<?xml version="1.0" standalone="no"?>
<!DOCTYPE svg PUBLIC "-//W3C//DTD SVG 1.1//EN" "http://www.w3.org/Graphics/SVG/1.1/DTD/svg11.dtd" >
<svg xmlns="http://www.w3.org/2000/svg" xmlns:xlink="http://www.w3.org/1999/xlink" version="1.1">
<metadata>
Created by FontForge 20170731 at Fri Mar 17 17:29:50 2023
 By Aleksey,,,
Copyright (c) 2018. Netflix, Inc. and its affiliates. All rights reserved. 
</metadata>
<defs>
<font id="NetflixSans-Light" horiz-adv-x="1253" >
  <font-face 
    font-family="Netflix Sans Light"
    font-weight="300"
    font-stretch="normal"
    units-per-em="2048"
    panose-1="2 11 5 3 2 2 2 2 2 4"
    ascent="1638"
    descent="-410"
    x-height="1044"
    cap-height="1425"
    bbox="-487 -930 3545 2107"
    underline-thickness="163"
    underline-position="-468"
    unicode-range="U+000D-FFFD"
  />
<missing-glyph horiz-adv-x="1024" 
d="M922 0h-820v1536h820v-1536zM819 102v1332h-614v-1332h614z" />
    <glyph glyph-name=".notdef" horiz-adv-x="1024" 
d="M922 0h-820v1536h820v-1536zM819 102v1332h-614v-1332h614z" />
    <glyph glyph-name="uni0000" horiz-adv-x="0" 
 />
    <glyph glyph-name="uni0000" horiz-adv-x="0" 
 />
    <glyph glyph-name="uni000D" unicode="&#xd;" horiz-adv-x="481" 
 />
    <glyph glyph-name="space" unicode=" " horiz-adv-x="481" 
 />
    <glyph glyph-name="exclam" unicode="!" horiz-adv-x="563" 
d="M211 387l-10 1038h164l-11 -1038h-143zM283 -23q-51 0 -86 35t-35 86t35 86t86 35t86 -35q34 -34 34 -86t-34 -86q-35 -35 -86 -35z" />
    <glyph glyph-name="quotedbl" unicode="&#x22;" horiz-adv-x="761" 
d="M141 977l-8 508h152l-9 -508h-135zM487 977l-8 508h152l-8 -508h-136z" />
    <glyph glyph-name="numbersign" unicode="#" 
d="M180 0l68 379h-168v129h190l72 403h-244v129h267l67 379h137l-67 -379h366l68 379h137l-67 -379h168v-129h-191l-72 -403h244v-129h-266l-68 -379h-137l68 379h-367l-68 -379h-137zM408 508h366l72 403h-367z" />
    <glyph glyph-name="dollar" unicode="$" 
d="M565 -221v205q-184 21 -301 118q-118 97 -153 256h155q27 -94 103 -155q79 -63 196 -78v543l-65 12q-375 64 -375 369q0 114 59 200t158 137q101 52 223 58v217h125v-219q153 -15 275 -101q114 -83 155 -249h-155q-25 96 -101 149q-71 50 -174 62v-506l47 -9
q191 -35 299 -129q107 -98 107 -262q0 -179 -123 -293q-124 -115 -330 -124v-201h-125zM283 1057q0 -56 22 -105q19 -41 84 -78q60 -34 176 -55v486q-128 -9 -205 -74t-77 -174zM985 391q0 101 -67 162q-69 59 -228 94v-526q133 9 215 82q80 71 80 188z" />
    <glyph glyph-name="percent" unicode="%" horiz-adv-x="1902" 
d="M479 741q-98 0 -178 50q-83 47 -129 129q-49 79 -49 178q0 98 49 180q46 80 129 129q80 47 178 47q97 0 180 -47q79 -49 129 -129q48 -85 48 -180q0 -96 -48 -178q-50 -82 -129 -129q-83 -50 -180 -50zM381 0l977 1425h164l-977 -1425h-164zM479 881q91 0 154 63
q63 60 63 154q0 92 -63 155q-65 62 -154 62q-88 0 -153 -62q-64 -64 -64 -155q0 -93 64 -154q63 -63 153 -63zM1423 -29q-101 0 -180 49q-80 47 -127 130q-49 79 -49 178q0 98 49 180q46 79 127 129q80 47 180 47q101 0 181 -47q80 -49 129 -129q47 -83 47 -180
q0 -98 -47 -178q-50 -84 -129 -130q-79 -49 -181 -49zM1423 111q91 0 154 63q63 60 63 154q0 92 -63 155q-65 62 -154 62q-88 0 -153 -62q-64 -64 -64 -155q0 -93 64 -154q63 -63 153 -63z" />
    <glyph glyph-name="ampersand" unicode="&#x26;" horiz-adv-x="1495" 
d="M602 -31q-146 0 -252 56q-106 54 -162 147q-55 88 -55 203q0 141 82 248q77 101 219 174q-83 85 -127 166q-41 71 -41 163q0 94 49 170q47 73 136 121q83 45 196 45q112 0 197 -43q87 -49 131 -119q47 -77 47 -167q0 -131 -92 -220q-98 -91 -256 -151l364 -369l201 275
h178l-280 -375l290 -293h-204l-179 180q-87 -93 -198 -153q-107 -58 -244 -58zM424 1122q0 -71 37 -123q34 -55 121 -145q148 59 217 119q67 61 67 151q0 83 -59 142q-60 57 -158 57q-99 0 -162 -57t-63 -144zM295 387q0 -111 82 -190q79 -82 233 -82q94 0 178 41
q81 40 158 123l-420 423q-112 -55 -172 -133q-59 -80 -59 -182z" />
    <glyph glyph-name="quotesingle" unicode="'" horiz-adv-x="415" 
d="M141 977l-8 508h152l-9 -508h-135z" />
    <glyph glyph-name="parenleft" unicode="(" horiz-adv-x="606" 
d="M389 -328q-137 214 -196 451q-60 240 -60 467t60 467q59 234 196 448h154q-135 -232 -193 -456q-59 -233 -59 -459t59 -459q58 -227 193 -459h-154z" />
    <glyph glyph-name="parenright" unicode=")" horiz-adv-x="606" 
d="M217 -328h-154q139 238 195 459q57 225 57 459t-57 459q-56 218 -195 456h154q142 -221 199 -448q57 -228 57 -467t-57 -467q-57 -230 -199 -451z" />
    <glyph glyph-name="asterisk" unicode="*" horiz-adv-x="960" 
d="M205 924l186 231l-287 78l43 131l279 -107l-16 299h141l-16 -299l278 107l43 -131l-287 -78l187 -231l-111 -80l-166 250l-164 -250z" />
    <glyph glyph-name="plus" unicode="+" 
d="M557 201v417h-393v136h393v417h141v-417h394v-136h-394v-417h-141z" />
    <glyph glyph-name="comma" unicode="," horiz-adv-x="548" 
d="M70 -348q76 108 125 194q42 80 57 146q-48 3 -78 33q-29 29 -29 71q0 45 33 78q29 33 86 33q58 0 92 -37q35 -38 35 -100q0 -90 -45 -189q-48 -105 -135 -229h-141z" />
    <glyph glyph-name="hyphen" unicode="-" horiz-adv-x="991" 
d="M172 524v138h647v-138h-647z" />
    <glyph glyph-name="period" unicode="." horiz-adv-x="548" 
d="M274 -23q-51 0 -86 35q-34 34 -34 86t34 86q35 35 86 35t86 -35t35 -86t-35 -86t-86 -35z" />
    <glyph glyph-name="slash" unicode="/" horiz-adv-x="794" 
d="M27 -328l587 1833h154l-586 -1833h-155z" />
    <glyph glyph-name="zero" unicode="0" 
d="M627 -31q-163 0 -287 92q-122 91 -190 261q-70 165 -70 391q0 225 70 393q68 167 190 258q124 92 287 92q162 0 286 -92q122 -91 193 -258q68 -171 68 -393q0 -223 -68 -391q-71 -170 -193 -261q-124 -92 -286 -92zM627 115q114 0 202 73t138 209q47 133 47 316
q0 181 -47 317q-50 134 -138 207q-89 74 -202 74q-117 0 -203 -74q-88 -73 -135 -207q-49 -134 -49 -317q0 -185 49 -316q47 -136 135 -209q85 -73 203 -73z" />
    <glyph glyph-name="one" unicode="1" 
d="M639 0v1257l-371 -131v148l529 178v-1452h-158z" />
    <glyph glyph-name="two" unicode="2" 
d="M121 0v127l573 518q96 87 146 148q56 66 75 118q23 61 23 119q0 119 -88 201q-89 80 -232 80q-136 0 -223 -72q-89 -71 -110 -184h-162q22 120 88 207q67 92 172 143q102 51 240 51t247 -53q104 -53 168 -152q60 -97 60 -219q0 -86 -31 -162q-28 -68 -96 -149
q-66 -79 -170 -172l-451 -408h766v-141h-995z" />
    <glyph glyph-name="three" unicode="3" 
d="M629 -31q-216 0 -348 99q-134 94 -181 264h164q34 -101 129 -160q92 -57 234 -57q87 0 164 30q73 29 124 95q50 65 50 159q0 123 -95 191q-95 65 -249 65h-170v144h167q134 0 220 65q84 66 84 185q0 89 -43 147q-44 60 -113 86q-76 29 -156 29q-125 0 -213 -60
q-87 -58 -118 -155h-164q47 159 174 260q126 100 325 100q125 0 234 -47q102 -44 170 -137q63 -86 63 -217q0 -120 -63 -201q-64 -82 -174 -119q133 -38 207 -127q73 -88 73 -217q0 -137 -69 -229q-71 -95 -183 -144q-113 -49 -243 -49z" />
    <glyph glyph-name="four" unicode="4" 
d="M803 0v362h-737v123l747 940h148v-923h227v-140h-227v-362h-158zM244 502h559v702z" />
    <glyph glyph-name="five" unicode="5" 
d="M643 -31q-187 0 -317 86q-132 82 -185 238h172q40 -87 127 -133q83 -45 195 -45q90 0 170 41t129 116q47 77 47 179q0 157 -98 239t-250 82q-89 0 -182 -41q-94 -45 -154 -119h-143l77 813h813v-143h-684l-49 -520q65 71 154 115q90 41 199 41q140 0 247 -58
q109 -59 170 -160q60 -108 60 -245q0 -147 -68 -256q-72 -114 -182 -170q-117 -60 -248 -60z" />
    <glyph glyph-name="six" unicode="6" 
d="M668 -31q-161 0 -285 78q-130 79 -199 242q-73 165 -73 432q0 230 69 393q72 166 197 254t297 88q177 0 293 -82q116 -84 174 -235h-168q-41 85 -117 129q-76 43 -180 43q-190 0 -299 -152q-111 -153 -111 -440v-47q51 111 164 186q109 74 254 74q135 0 244 -62
q110 -65 172 -170q63 -105 63 -241q0 -144 -67 -254q-67 -111 -181 -172q-113 -64 -247 -64zM655 115q102 0 179 45q77 44 124 121q46 76 46 172q0 94 -46 170q-43 71 -124 120q-79 43 -179 43q-98 0 -174 -43q-81 -47 -125 -120q-47 -77 -47 -170q0 -95 47 -172
q44 -72 127 -121q74 -45 172 -45z" />
    <glyph glyph-name="seven" unicode="7" 
d="M1112 1425v-125l-575 -1300h-172l577 1284h-807v141h977z" />
    <glyph glyph-name="eight" unicode="8" horiz-adv-x="1255" 
d="M629 -31q-150 0 -264 47q-122 47 -195 138q-74 89 -74 225q0 129 84 225q81 93 221 131q-120 41 -186 127q-70 88 -70 207q0 112 66 203q65 87 174 135q107 49 244 49q135 0 245 -49q109 -50 173 -135q63 -86 63 -203q0 -119 -68 -205q-71 -89 -186 -129
q138 -38 219 -131q84 -96 84 -225q0 -136 -74 -225q-73 -91 -194 -138q-114 -47 -262 -47zM629 799q83 0 159 30q72 29 121 91q45 57 45 141q0 75 -43 133q-45 54 -118 88q-76 31 -164 31q-90 0 -166 -31q-76 -36 -117 -88q-45 -57 -45 -133q0 -82 47 -141q50 -63 121 -91
q73 -30 160 -30zM629 115q94 0 180 28q83 27 137 90q53 59 53 154q0 88 -53 150q-49 57 -137 94q-79 33 -180 33t-180 -33q-91 -37 -140 -94q-53 -62 -53 -150q0 -95 53 -154q54 -63 140 -90q86 -28 180 -28z" />
    <glyph glyph-name="nine" unicode="9" 
d="M586 1456q163 0 288 -76q127 -77 197 -243q72 -170 72 -430q0 -348 -142 -543t-401 -195q-171 0 -299 82q-129 77 -188 236h166q42 -91 129 -131q90 -41 186 -41q190 0 293 151q100 147 100 441v47q-51 -112 -162 -187q-110 -73 -254 -73q-140 0 -245 63
q-107 61 -172 170q-64 107 -64 240q0 140 68 252q63 109 178 174q108 63 250 63zM600 1311q-102 0 -178 -43q-80 -47 -125 -121q-47 -77 -47 -174q0 -93 47 -170q46 -76 125 -119q77 -45 178 -45q100 0 174 45q80 46 125 119q45 74 45 170q0 97 -47 174q-43 71 -125 121
q-76 43 -172 43z" />
    <glyph glyph-name="colon" unicode=":" horiz-adv-x="548" 
d="M274 -23q-51 0 -86 35q-34 34 -34 86t34 86q35 35 86 35t86 -35t35 -86t-35 -86t-86 -35zM274 831q-51 0 -86 35q-34 34 -34 86t34 86q35 35 86 35t86 -35t35 -86t-35 -86t-86 -35z" />
    <glyph glyph-name="semicolon" unicode=";" horiz-adv-x="548" 
d="M70 -348q76 108 125 194q42 80 57 146q-48 3 -78 33q-29 29 -29 71q0 45 33 78q29 33 86 33q58 0 92 -37q35 -38 35 -100q0 -90 -45 -189q-48 -105 -135 -229h-141zM274 831q-51 0 -86 35q-34 34 -34 86t34 86q35 35 86 35t86 -35t35 -86t-35 -86t-86 -35z" />
    <glyph glyph-name="less" unicode="&#x3c;" 
d="M1085 178l-944 440v136l944 440v-150l-784 -358l784 -358v-150z" />
    <glyph glyph-name="equal" unicode="=" 
d="M164 848v135h926v-135h-926zM164 389v135h926v-135h-926z" />
    <glyph glyph-name="greater" unicode="&#x3e;" 
d="M168 178v150l784 358l-784 358v150l944 -440v-136z" />
    <glyph glyph-name="question" unicode="?" horiz-adv-x="1179" 
d="M479 387v96q0 65 19 127q15 56 65 109q43 49 139 110q84 49 121 86q43 43 56 78q14 35 14 86q0 94 -80 162q-83 68 -221 68q-136 0 -227 -66q-90 -69 -105 -170h-162q14 102 82 195q65 86 170 137q102 51 248 51q145 0 244 -51q101 -52 157 -135q56 -86 56 -191t-56 -188
q-58 -81 -190 -164q-84 -52 -117 -88q-40 -40 -49 -80q-12 -41 -12 -86v-86h-152zM569 -23q-51 0 -86 35q-34 34 -34 86t34 86q35 35 86 35t86 -35t35 -86t-35 -86t-86 -35z" />
    <glyph glyph-name="at" unicode="@" horiz-adv-x="2150" 
d="M1001 -432q-166 0 -317 53q-151 56 -270 160q-119 107 -187 258q-69 147 -69 346q0 207 69 385q68 182 199 322q135 141 319 219q189 80 431 80q165 0 317 -50q155 -54 264 -149q114 -99 178 -242t64 -334q0 -210 -70 -350q-72 -147 -176 -215q-109 -71 -223 -71
q-89 0 -150 49q-62 47 -71 125q-126 -181 -332 -181q-111 0 -193 52q-86 50 -135 143q-49 91 -49 219q0 115 37 219q38 103 102 182q65 77 152 123q86 45 188 45q109 0 185 -49q73 -47 112 -133l23 154h133l-92 -666q-2 -10 -2 -29v-30q0 -43 30 -70t76 -27q62 0 133 56
q72 56 123 168q49 113 49 286q0 205 -90 351q-91 140 -250 215q-157 71 -354 71t-354 -65q-158 -66 -266 -182q-108 -114 -168 -277t-60 -346q0 -217 96 -369q93 -150 259 -231q167 -78 360 -78q102 0 190 16q73 13 179 52v-140q-171 -65 -390 -65zM997 115q108 0 185 65
q73 61 114 162q37 98 37 201q0 128 -59 202q-63 72 -174 72q-113 0 -189 -61q-79 -62 -120 -156q-41 -96 -41 -203q0 -134 67 -207q66 -75 180 -75z" />
    <glyph glyph-name="A" unicode="A" horiz-adv-x="1396" 
d="M1184 0l-162 408h-655l-160 -408h-166l575 1425h162l578 -1425h-172zM424 553h541l-271 684z" />
    <glyph glyph-name="B" unicode="B" horiz-adv-x="1411" 
d="M193 0v1425h565q239 0 364 -98q125 -101 125 -274q0 -113 -63 -191q-64 -79 -176 -119q149 -41 219 -129q71 -89 71 -217q0 -181 -131 -288q-133 -109 -381 -109h-593zM741 1280h-387v-473h387q164 0 250 63q90 63 90 174q0 112 -84 175q-85 61 -256 61zM774 662h-420
v-517h420q179 0 268 68q91 66 91 193q0 116 -93 188q-92 68 -266 68z" />
    <glyph glyph-name="C" unicode="C" horiz-adv-x="1458" 
d="M106 713q0 213 87 385q82 169 233 264q149 94 342 94q242 0 393 -121q150 -120 203 -334h-170q-42 144 -147 224q-107 82 -279 82q-143 0 -256 -72q-109 -70 -176 -207q-64 -131 -64 -315q0 -185 64 -316q67 -136 176 -204q112 -74 256 -74q170 0 283 82q110 79 145 213
h168q-52 -203 -203 -324t-393 -121q-188 0 -342 97q-152 96 -233 262q-87 172 -87 385z" />
    <glyph glyph-name="D" unicode="D" horiz-adv-x="1499" 
d="M193 0v1425h505q196 0 353 -86q154 -87 249 -247q93 -166 93 -379q0 -215 -93 -377q-94 -163 -249 -248q-155 -88 -353 -88h-505zM354 145h332q146 0 270 68q122 67 197 195q74 127 74 305q0 180 -74 307q-74 126 -197 194q-126 66 -270 66h-332v-1135z" />
    <glyph glyph-name="E" unicode="E" horiz-adv-x="1312" 
d="M193 0v1425h974v-145h-813v-473h791v-145h-791v-517h824v-145h-985z" />
    <glyph glyph-name="F" unicode="F" horiz-adv-x="1255" 
d="M193 0v1425h946v-145h-785v-508h760v-145h-760v-627h-161z" />
    <glyph glyph-name="G" unicode="G" horiz-adv-x="1536" 
d="M793 -31q-200 0 -357 97q-155 94 -241 264q-89 170 -89 383q0 215 89 385q89 171 243 264q152 94 353 94q217 0 376 -102q159 -104 226 -285h-172q-46 106 -162 172q-117 66 -268 66q-148 0 -267 -72q-115 -72 -184 -207q-68 -136 -68 -315t66 -314q65 -133 184 -206
q118 -74 273 -74q132 0 241 59q104 57 168 162q60 105 60 235v43h-473v146h634v-168q0 -184 -79 -324t-222 -221q-143 -82 -331 -82z" />
    <glyph glyph-name="H" unicode="H" horiz-adv-x="1570" 
d="M193 0v1425h161v-604h863v604h161v-1425h-161v676h-863v-676h-161z" />
    <glyph glyph-name="I" unicode="I" horiz-adv-x="546" 
d="M354 0h-161v1425h161v-1425z" />
    <glyph glyph-name="J" unicode="J" horiz-adv-x="1232" 
d="M899 438v987h162v-989q0 -137 -57 -239q-58 -108 -166 -166q-109 -62 -258 -62q-216 0 -355 121q-137 119 -164 318h164q18 -133 115 -211q96 -78 240 -78q141 0 231 90q88 88 88 229z" />
    <glyph glyph-name="K" unicode="K" horiz-adv-x="1333" 
d="M193 0v1425h161v-624l705 624h213l-785 -688l820 -737h-226l-727 657v-657h-161z" />
    <glyph glyph-name="L" unicode="L" horiz-adv-x="1228" 
d="M1145 145v-145h-952v1425h161v-1280h791z" />
    <glyph glyph-name="M" unicode="M" horiz-adv-x="1812" 
d="M352 0h-159v1425h174l542 -870l539 870h172v-1425h-160v1174l-553 -895l-555 890v-1169z" />
    <glyph glyph-name="N" unicode="N" horiz-adv-x="1564" 
d="M193 0v1425h159l860 -1169v1169h160v-1425h-160l-860 1169v-1169h-159z" />
    <glyph glyph-name="O" unicode="O" horiz-adv-x="1609" 
d="M805 -31q-154 0 -281 56q-131 58 -221 155q-92 99 -145 236q-52 134 -52 297t52 297q53 135 145 235q92 99 221 156q125 55 281 55q155 0 280 -55q131 -58 222 -156q92 -100 145 -235q51 -131 51 -297t-51 -297q-53 -137 -145 -236q-90 -97 -222 -155q-127 -56 -280 -56z
M805 119q152 0 274 78q121 77 191 211q67 131 67 305q0 175 -67 309q-71 132 -191 209q-119 76 -274 76q-156 0 -275 -76q-120 -77 -188 -209q-70 -134 -70 -309q0 -174 70 -305q67 -134 188 -211q122 -78 275 -78z" />
    <glyph glyph-name="P" unicode="P" horiz-adv-x="1345" 
d="M193 0v1425h507q277 0 418 -120q139 -124 139 -326q0 -205 -139 -326q-142 -121 -418 -121h-346v-532h-161zM354 678h328q206 0 309 80q101 76 101 221q0 144 -101 223q-104 78 -309 78h-328v-602z" />
    <glyph glyph-name="Q" unicode="Q" horiz-adv-x="1609" 
d="M805 -31q-154 0 -281 56q-131 58 -221 155q-92 99 -145 236q-52 134 -52 297t52 297q53 135 145 235q92 99 221 156q125 55 281 55q155 0 280 -55q131 -58 222 -156q92 -100 145 -235q51 -131 51 -297q0 -183 -65 -334q-68 -151 -185 -250l222 -279h-179l-159 199
q-60 -35 -156 -59q-83 -21 -176 -21zM805 119q124 0 233 53l-231 293h178l170 -213q85 81 133 199q49 119 49 262q0 175 -67 309q-71 132 -191 209q-119 76 -274 76q-156 0 -275 -76q-120 -77 -188 -209q-70 -134 -70 -309q0 -174 70 -305q67 -134 188 -211q122 -78 275 -78
z" />
    <glyph glyph-name="R" unicode="R" horiz-adv-x="1390" 
d="M193 0v1425h520q277 0 413 -112q140 -116 140 -320q0 -158 -90 -268q-86 -106 -240 -147l391 -578h-197l-366 551h-29h-381v-551h-161zM354 696h342q202 0 305 80q99 76 99 219q0 139 -99 213q-104 72 -305 72h-342v-584z" />
    <glyph glyph-name="S" unicode="S" horiz-adv-x="1298" 
d="M664 -31q-222 0 -375 105q-156 102 -203 291h168q35 -117 143 -181q109 -65 265 -65q101 0 186 31q78 26 131 88q49 58 49 141q0 71 -27 123q-26 51 -98 86q-69 34 -203 55l-174 27q-206 35 -305 123q-100 87 -100 256q0 125 69 215q70 91 189 143q116 49 264 49
q130 0 242 -41q106 -39 186 -125q75 -81 103 -213h-168q-27 121 -125 176q-102 54 -238 54q-156 0 -256 -68q-100 -66 -100 -184q0 -65 28 -113q26 -45 99 -76q75 -32 194 -49l162 -24q220 -35 322 -134t102 -272q0 -131 -68 -223q-71 -95 -190 -144q-117 -51 -272 -51z" />
    <glyph glyph-name="T" unicode="T" horiz-adv-x="1366" 
d="M764 0h-162v1280h-518v145h1198v-145h-518v-1280z" />
    <glyph glyph-name="U" unicode="U" horiz-adv-x="1517" 
d="M760 -31q-191 0 -324 80q-130 75 -198 221q-68 145 -68 336v819h162v-809q0 -234 106 -364q106 -133 322 -133q215 0 321 133q105 132 105 364v809h162v-819q0 -189 -66 -336q-68 -145 -199 -221q-133 -80 -323 -80z" />
    <glyph glyph-name="V" unicode="V" horiz-adv-x="1394" 
d="M1354 1425l-576 -1425h-164l-573 1425h174l485 -1228l484 1228h170z" />
    <glyph glyph-name="W" unicode="W" horiz-adv-x="1996" 
d="M498 0l-437 1425h170l355 -1192l336 1188h149l348 -1194l350 1198h164l-434 -1425h-160l-342 1159l-340 -1159h-159z" />
    <glyph glyph-name="X" unicode="X" horiz-adv-x="1396" 
d="M43 0l551 743l-498 682h201l403 -563l404 563h192l-497 -680l551 -745h-201l-457 625l-456 -625h-193z" />
    <glyph glyph-name="Y" unicode="Y" horiz-adv-x="1298" 
d="M569 0v557l-536 868h188l432 -714l428 714h183l-533 -864v-561h-162z" />
    <glyph glyph-name="Z" unicode="Z" horiz-adv-x="1263" 
d="M92 1425h1067v-139l-870 -1141h885v-145h-1082v139l871 1141h-871v145z" />
    <glyph glyph-name="bracketleft" unicode="[" horiz-adv-x="702" 
d="M201 -328v1833h426v-137h-277v-1558h277v-138h-426z" />
    <glyph glyph-name="backslash" unicode="\" horiz-adv-x="794" 
d="M768 -328h-154l-587 1833h153z" />
    <glyph glyph-name="bracketright" unicode="]" horiz-adv-x="702" 
d="M502 -328h-426v138h276v1558h-276v137h426v-1833z" />
    <glyph glyph-name="asciicircum" unicode="^" 
d="M162 821l393 713h145l394 -713h-156l-311 580l-310 -580h-155z" />
    <glyph glyph-name="underscore" unicode="_" horiz-adv-x="1024" 
d="M0 -383v137h1024v-137h-1024z" />
    <glyph glyph-name="grave" unicode="`" horiz-adv-x="1165" 
d="M594 1196l-172 315h168l153 -315h-149z" />
    <glyph glyph-name="a" unicode="a" horiz-adv-x="1089" 
d="M438 -27q-156 0 -256 86q-98 85 -98 234q0 158 115 244t325 86h262v51q0 141 -69 198q-72 60 -191 60q-106 0 -168 -39q-69 -41 -84 -100h-155q27 126 137 202t270 76q191 0 301 -98q111 -99 111 -309v-664h-145v164q-57 -97 -152 -144q-100 -47 -203 -47zM467 109
q79 0 147 32q75 35 123 101q49 64 49 166v86h-254q-142 0 -219 -50t-77 -145q0 -91 65 -141q64 -49 166 -49z" />
    <glyph glyph-name="b" unicode="b" horiz-adv-x="1230" 
d="M162 0v1485h151v-619q60 98 150 152q89 53 207 53q136 0 243 -70q107 -72 164 -192q60 -129 60 -287t-60 -284q-57 -123 -164 -195q-107 -70 -243 -70q-123 0 -211 58q-93 56 -150 153v-184h-147zM647 115q100 0 174 51q76 52 119 143q43 90 43 213t-43 213
q-44 93 -119 144q-74 51 -174 51q-102 0 -176 -51q-78 -54 -121 -144q-45 -89 -45 -213t45 -213q42 -89 121 -143q74 -51 176 -51z" />
    <glyph glyph-name="c" unicode="c" horiz-adv-x="1087" 
d="M584 -27q-146 0 -256 70q-111 67 -172 193q-62 124 -62 286q0 161 62 285t172 194t256 70q173 0 286 -94q112 -96 136 -238h-160q-15 83 -82 138t-180 55q-100 0 -174 -51q-75 -51 -119 -144q-43 -93 -43 -215q0 -187 94 -297t242 -110q112 0 180 53q69 54 84 137h158
q-21 -138 -134 -235q-117 -97 -288 -97z" />
    <glyph glyph-name="d" unicode="d" horiz-adv-x="1230" 
d="M561 -27q-140 0 -244 70q-105 71 -163 195q-60 126 -60 284t60 287q58 121 163 192q104 70 244 70q117 0 209 -53q88 -55 148 -152v619h151v-1485h-147v184q-57 -96 -148 -153q-91 -58 -213 -58zM584 115q104 0 178 51t121 143q43 90 43 213t-43 213q-48 94 -121 144
q-74 51 -178 51q-100 0 -174 -51q-75 -51 -119 -144q-43 -90 -43 -213t43 -213q43 -91 119 -143q74 -51 174 -51z" />
    <glyph glyph-name="e" unicode="e" horiz-adv-x="1134" 
d="M592 -27q-152 0 -264 68q-114 67 -172 190q-62 124 -62 291q0 154 60 283q59 127 168 196q107 70 262 70q144 0 247 -65q100 -63 154 -181q51 -114 51 -270v-82h-786q12 -173 102 -266q88 -94 240 -94q100 0 170 37q71 35 92 94h160q-38 -126 -152 -197
q-115 -74 -270 -74zM584 932q-143 0 -228 -88q-86 -89 -104 -240h631q-3 146 -80 238q-78 90 -219 90z" />
    <glyph glyph-name="f" unicode="f" horiz-adv-x="671" 
d="M35 1044h192v107q0 156 84 246q82 88 238 88h67v-137h-49q-91 0 -139 -54q-49 -55 -49 -151v-99h237v-137h-237v-907h-152v907h-192v137z" />
    <glyph glyph-name="g" unicode="g" horiz-adv-x="1230" 
d="M561 -10q-141 0 -244 69q-105 70 -163 193q-60 123 -60 278t60 281q58 120 163 190q104 70 244 70q124 0 213 -57q94 -60 148 -156v186h147v-1017q0 -224 -121 -351q-122 -125 -342 -125q-184 0 -303 82q-122 82 -162 207h166q33 -62 107 -106q71 -41 190 -41
q314 0 314 327v177q-60 -97 -148 -152t-209 -55zM584 131q102 0 176 51t119 142q42 85 45 206q3 117 -41 207q-48 92 -121 142q-74 51 -178 51q-103 0 -174 -51q-74 -51 -119 -142q-43 -87 -43 -207q0 -119 43 -206q45 -91 119 -142q71 -51 174 -51z" />
    <glyph glyph-name="h" unicode="h" horiz-adv-x="1167" 
d="M162 0v1485h151v-586q53 79 144 127q83 45 186 45q121 0 203 -55q80 -53 127 -150q43 -93 43 -221v-645h-152v614q0 151 -63 232q-66 84 -193 84q-75 0 -143 -35q-70 -39 -109 -104q-43 -70 -43 -170v-621h-151z" />
    <glyph glyph-name="i" unicode="i" horiz-adv-x="475" 
d="M238 1204q-45 0 -80 35t-35 80q0 47 35 82q33 33 80 33q48 0 81 -33t33 -82q0 -47 -33 -80q-35 -35 -81 -35zM162 0v1044h151v-1044h-151z" />
    <glyph glyph-name="j" unicode="j" horiz-adv-x="475" 
d="M238 1204q-45 0 -80 35t-35 80q0 47 35 82q33 33 80 33q48 0 81 -33t33 -82q0 -47 -33 -80q-35 -35 -81 -35zM-59 -420v137h53q82 0 127 54q41 56 41 149v1124h151v-1136q0 -157 -73 -242q-77 -86 -224 -86h-75z" />
    <glyph glyph-name="k" unicode="k" horiz-adv-x="1064" 
d="M162 0v1485h151v-883l488 442h196l-542 -493l594 -551h-205l-531 498v-498h-151z" />
    <glyph glyph-name="l" unicode="l" horiz-adv-x="475" 
d="M162 0v1485h151v-1485h-151z" />
    <glyph glyph-name="m" unicode="m" horiz-adv-x="1763" 
d="M162 0v1044h147v-139q53 80 131 123q76 43 172 43q110 0 187 -51q80 -53 121 -148q53 95 145 148q86 51 195 51q162 0 256 -110q96 -116 96 -308v-653h-152v635q0 141 -61 217q-66 78 -170 78q-106 0 -187 -78q-79 -76 -79 -217v-635h-152v635q0 142 -63 217
q-66 78 -168 78q-109 0 -187 -78q-80 -77 -80 -217v-635h-151z" />
    <glyph glyph-name="n" unicode="n" horiz-adv-x="1167" 
d="M313 621v-621h-151v1044h147v-151q56 87 144 133q86 45 190 45q121 0 203 -55q80 -53 127 -150q43 -93 43 -221v-645h-152v614q0 151 -63 232q-66 84 -193 84q-75 0 -143 -35q-70 -39 -109 -104q-43 -70 -43 -170z" />
    <glyph glyph-name="o" unicode="o" horiz-adv-x="1175" 
d="M588 -27q-146 0 -256 70q-113 70 -174 195q-64 122 -64 284t64 287q61 122 174 192q110 70 256 70q145 0 258 -70q110 -70 174 -192q61 -125 61 -287t-61 -284q-64 -125 -174 -195q-113 -70 -258 -70zM588 115q153 0 246 112q94 110 94 295q0 184 -94 297
q-94 111 -246 111q-150 0 -244 -111q-96 -116 -96 -297q0 -182 96 -295q93 -112 244 -112z" />
    <glyph glyph-name="p" unicode="p" horiz-adv-x="1230" 
d="M162 -420v1464h147v-184q57 97 150 156q88 55 211 55q136 0 243 -70q107 -72 164 -192q60 -129 60 -287t-60 -284q-57 -123 -164 -195q-107 -70 -243 -70q-118 0 -207 56q-90 51 -150 149v-598h-151zM647 115q100 0 174 51q76 52 119 143q43 90 43 213t-43 213
q-44 93 -119 144q-74 51 -174 51q-102 0 -176 -51q-78 -54 -121 -144q-45 -89 -45 -213t45 -213q42 -89 121 -143q74 -51 176 -51z" />
    <glyph glyph-name="q" unicode="q" horiz-adv-x="1230" 
d="M561 -27q-140 0 -244 70q-105 71 -163 195q-60 126 -60 284t60 287q58 121 163 192q104 70 244 70q122 0 213 -55q92 -61 148 -156v184h147v-1464h-151v598q-60 -97 -148 -149q-92 -56 -209 -56zM584 115q104 0 178 51t121 143q43 90 43 213t-43 213q-48 94 -121 144
q-74 51 -178 51q-100 0 -174 -51q-75 -51 -119 -144q-43 -90 -43 -213t43 -213q43 -91 119 -143q74 -51 174 -51z" />
    <glyph glyph-name="r" unicode="r" horiz-adv-x="704" 
d="M313 532v-532h-151v1044h147v-192q48 92 131 145q82 52 181 52h28v-146h-33q-78 0 -149 -41q-71 -44 -111 -125q-43 -82 -43 -205z" />
    <glyph glyph-name="s" unicode="s" horiz-adv-x="1001" 
d="M520 -31q-180 0 -295 86q-115 81 -143 213h156q15 -65 92 -112q77 -50 188 -50q108 0 178 48q68 47 68 131q0 67 -45 106q-46 40 -158 55l-162 21q-297 37 -297 285q0 93 52 163q54 72 141 115q90 41 203 41q159 0 266 -76q102 -74 137 -202h-156q-21 66 -86 104
q-64 37 -157 37q-114 0 -178 -49q-66 -54 -66 -129q0 -64 47 -99q46 -34 152 -49l161 -20q148 -18 226 -99q76 -79 76 -200q0 -98 -52 -168q-50 -71 -143 -113q-85 -39 -205 -39z" />
    <glyph glyph-name="t" unicode="t" horiz-adv-x="681" 
d="M526 -8q-147 0 -223 82q-76 79 -76 235v598h-192v137h192v340q43 3 78 11q46 11 74 20v-371h235v-137h-235v-585q0 -193 170 -193h65v-137h-88z" />
    <glyph glyph-name="u" unicode="u" horiz-adv-x="1159" 
d="M846 420v624h151v-1044h-147v150q-55 -86 -133 -130q-78 -47 -182 -47q-178 0 -279 119q-104 116 -104 309v643h151v-624q0 -137 72 -221t192 -84q114 0 197 80q82 79 82 225z" />
    <glyph glyph-name="v" unicode="v" horiz-adv-x="1042" 
d="M598 0h-156l-413 1044h172l323 -866l324 866h164z" />
    <glyph glyph-name="w" unicode="w" horiz-adv-x="1536" 
d="M379 0l-340 1044h160l258 -833l241 829h140l249 -831l254 835h156l-340 -1044h-143l-246 817l-246 -817h-143z" />
    <glyph glyph-name="x" unicode="x" horiz-adv-x="1048" 
d="M25 0l403 545l-365 499h191l276 -393l277 393h178l-362 -503l401 -541h-190l-314 434l-317 -434h-178z" />
    <glyph glyph-name="y" unicode="y" horiz-adv-x="1042" 
d="M272 -420l172 420l-415 1044h172l325 -866l322 866h164l-580 -1464h-160z" />
    <glyph glyph-name="z" unicode="z" horiz-adv-x="1013" 
d="M84 0v135l647 772h-647v137h836v-135l-648 -772h662v-137h-850z" />
    <glyph glyph-name="braceleft" unicode="{" horiz-adv-x="780" 
d="M588 -328q-139 0 -221 70q-86 71 -86 233v326q0 113 -39 164t-127 51h-45v146h45q86 0 127 53q39 51 39 162v325q0 163 86 234q81 69 221 69h117v-137h-91q-82 0 -133 -39t-51 -153v-312q0 -130 -39 -186q-40 -61 -119 -88q79 -27 119 -88q39 -62 39 -189v-311
q0 -115 51 -154q49 -38 133 -38h91v-138h-117z" />
    <glyph glyph-name="bar" unicode="|" horiz-adv-x="641" 
d="M246 -244v1741h149v-1741h-149z" />
    <glyph glyph-name="braceright" unicode="}" horiz-adv-x="780" 
d="M193 -328h-117v138h90q86 0 135 38q49 40 49 154v311q0 127 39 189q40 61 119 88q-79 27 -119 88q-39 56 -39 186v312q0 113 -49 153q-51 39 -135 39h-90v137h117q142 0 223 -69q84 -72 84 -234v-325q0 -111 39 -162q41 -53 127 -53h45v-146h-45q-88 0 -127 -51t-39 -164
v-326q0 -161 -84 -233q-82 -70 -223 -70z" />
    <glyph glyph-name="asciitilde" unicode="~" 
d="M895 516q-74 0 -139 33q-71 32 -160 106q-86 70 -131 93q-51 26 -98 26q-69 0 -99 -41q-32 -38 -32 -112v-80h-140v90q0 129 72 207q71 77 190 77q72 0 140 -30q74 -38 159 -109q76 -62 131 -90q56 -29 99 -29q65 0 100 41q31 42 31 113v80h139v-90q0 -131 -70 -207
q-72 -78 -192 -78z" />
    <glyph glyph-name="uni00A0" unicode="&#xa0;" horiz-adv-x="481" 
 />
    <glyph glyph-name="exclamdown" unicode="&#xa1;" horiz-adv-x="563" 
d="M283 829q-51 0 -86 35t-35 86t35 86t86 35t86 -35q34 -34 34 -86t-34 -86q-35 -35 -86 -35zM201 -377l10 1039h143l11 -1039h-164z" />
    <glyph glyph-name="cent" unicode="&#xa2;" 
d="M588 -25v185q-127 18 -221 94q-97 75 -148 192q-53 121 -53 269q0 147 53 268q51 116 148 195q95 74 221 92v180h123v-176q158 -12 260 -107q104 -97 125 -229h-156q-15 84 -72 135q-59 53 -157 62v-840q101 9 159 61q57 51 72 133h154q-21 -136 -123 -227
q-102 -94 -262 -106v-181h-123zM319 715q0 -163 74 -275t195 -139v827q-121 -27 -195 -139t-74 -274z" />
    <glyph glyph-name="sterling" unicode="&#xa3;" 
d="M121 0v125q117 111 164 227q43 110 43 223q0 22 -4 58h-203v139h168q-33 90 -49 156q-15 62 -15 141q0 108 56 197q51 87 153 139q96 51 234 51q162 0 274 -80q110 -82 162 -219h-166q-77 154 -266 154q-140 0 -213 -70q-76 -70 -76 -176q0 -58 16 -127q14 -62 50 -166
h499v-139h-469q2 -16 2 -53q0 -124 -32 -224q-32 -101 -132 -215h816v-141h-1012z" />
    <glyph glyph-name="currency" unicode="&#xa4;" horiz-adv-x="1259" 
d="M174 168l-94 96l196 197q-42 54 -63 119q-23 71 -23 135q0 66 23 137q20 61 63 117l-196 196l94 97l197 -197q53 39 121 61q71 23 137 23t137 -23q68 -22 121 -61l196 197l95 -97l-197 -196q43 -56 63 -117q23 -71 23 -137q0 -64 -23 -135q-21 -65 -63 -119l197 -197
l-95 -96l-196 197q-56 -41 -121 -62q-68 -22 -137 -22t-137 22q-65 21 -121 62zM629 422q86 0 151 39q66 42 105 106q39 62 39 148q0 84 -39 149q-41 64 -105 105q-65 39 -151 39q-88 0 -150 -39q-64 -39 -106 -105q-39 -65 -39 -149q0 -86 39 -148q40 -66 106 -106
q62 -39 150 -39z" />
    <glyph glyph-name="yen" unicode="&#xa5;" 
d="M549 0v281h-359v127h359v165h-359v125h289l-426 727h178l400 -712l397 712h172l-424 -727h291v-125h-358v-165h358v-127h-358v-281h-160z" />
    <glyph glyph-name="brokenbar" unicode="&#xa6;" horiz-adv-x="641" 
d="M246 1497h147v-717h-147v717zM393 -244h-147v717h147v-717z" />
    <glyph glyph-name="section" unicode="&#xa7;" horiz-adv-x="1122" 
d="M569 -154q-170 0 -274 84q-105 82 -129 215h151q15 -66 78 -114q64 -49 172 -49q107 0 166 47q58 46 58 127q0 75 -48 120q-51 45 -145 60l-164 29q-143 27 -223 98t-80 196q0 94 55 170q57 75 144 115q-66 48 -99 109q-32 60 -32 139q0 92 49 162q43 66 131 112
q84 41 192 41q159 0 260 -84q99 -82 123 -213h-149q-15 65 -74 115q-62 47 -158 47q-99 0 -161 -47q-64 -46 -64 -127q0 -77 49 -123q46 -44 131 -59l154 -25q142 -21 225 -104q82 -82 82 -205q0 -100 -51 -166q-51 -65 -137 -106q71 -42 106 -107q33 -62 33 -139
q0 -92 -45 -160q-48 -72 -129 -115q-82 -43 -197 -43zM649 469q71 14 133 63q58 46 58 130q0 89 -52 135t-145 61l-176 29q-73 -21 -129 -74q-57 -54 -57 -137q0 -78 47 -119q48 -45 151 -59z" />
    <glyph glyph-name="dieresis" unicode="&#xa8;" horiz-adv-x="1165" 
d="M770 1243q-45 0 -76 31q-30 30 -30 76q0 45 30 75q31 31 76 31t76 -31t31 -75q0 -45 -31 -76t-76 -31zM397 1243q-44 0 -75 31t-31 76q0 44 31 75t75 31q45 0 76 -31t31 -75q0 -45 -31 -76t-76 -31z" />
    <glyph glyph-name="copyright" unicode="&#xa9;" horiz-adv-x="1658" 
d="M829 -31q-152 0 -282 56q-133 53 -230 153q-99 102 -151 236q-55 134 -55 299t55 299q52 133 151 235q97 100 230 156q130 53 282 53q150 0 283 -53q131 -55 229 -156q100 -107 152 -235q53 -136 53 -299t-53 -299q-53 -129 -152 -236q-98 -101 -229 -153
q-133 -56 -283 -56zM829 82q167 0 304 82q137 84 215 225q79 140 79 324q0 182 -79 325q-80 141 -215 224q-135 81 -304 81q-170 0 -303 -81q-137 -82 -217 -224q-80 -145 -80 -325q0 -182 80 -324q79 -142 217 -225q134 -82 303 -82zM840 274q-118 0 -207 56
q-88 55 -137 153q-52 98 -52 230q0 127 52 225q49 98 137 156q88 55 207 55q141 0 231 -78q92 -80 107 -194h-144q-12 66 -61 106q-51 39 -135 39q-111 0 -183 -84q-71 -86 -71 -225q0 -145 71 -228q71 -86 183 -86q84 0 137 41q52 40 61 103h142q-15 -113 -105 -191
t-233 -78z" />
    <glyph glyph-name="ordfeminine" unicode="&#xaa;" horiz-adv-x="913" 
d="M371 625q-130 0 -205 69q-80 68 -80 189q0 124 92 198q93 72 262 72h199v35q0 108 -51 153q-54 48 -146 48q-73 0 -129 -29q-49 -28 -65 -78h-135q21 101 112 164q88 61 217 61q155 0 244 -77q88 -79 88 -250v-531h-125v121q-47 -75 -121 -108q-75 -37 -157 -37zM397 743
q49 0 101 21q47 16 90 59q39 39 51 103v112h-195q-221 0 -221 -149q0 -66 47 -107q45 -39 127 -39z" />
    <glyph glyph-name="guillemotleft" unicode="&#xab;" horiz-adv-x="1038" 
d="M387 94l-278 424l278 424h156l-275 -424l275 -424h-156zM764 94l-279 424l279 424h156l-275 -424l275 -424h-156z" />
    <glyph glyph-name="logicalnot" unicode="&#xac;" 
d="M942 410v372h-784v136h925v-508h-141z" />
    <glyph glyph-name="uni00AD" unicode="&#xad;" horiz-adv-x="991" 
d="M172 524v138h647v-138h-647z" />
    <glyph glyph-name="registered" unicode="&#xae;" horiz-adv-x="1052" 
d="M526 551q-125 0 -225 59q-97 56 -158 162q-57 99 -57 232q0 134 57 233q59 103 158 160q100 59 225 59t228 -59q96 -57 155 -160q58 -101 58 -233q0 -131 -58 -232q-61 -107 -155 -162q-103 -59 -228 -59zM526 649q100 0 174 45q77 47 123 125q43 79 43 185
q0 105 -43 184q-46 78 -123 125q-74 45 -174 45t-174 -45q-79 -48 -121 -125q-45 -77 -45 -184q0 -108 45 -185q42 -77 121 -125q74 -45 174 -45zM358 795v444h187q80 0 127 -41q43 -43 43 -108q0 -91 -84 -129l110 -166h-112l-97 149h-75v-149h-99zM457 1024h69q90 0 90 66
q0 63 -90 63h-69v-129z" />
    <glyph glyph-name="macron" unicode="&#xaf;" horiz-adv-x="1165" 
d="M283 1423h602v-131h-602v131z" />
    <glyph glyph-name="degree" unicode="&#xb0;" horiz-adv-x="817" 
d="M408 895q-88 0 -150 39q-65 41 -104 106q-39 62 -39 150q0 86 39 151q41 66 104 105q62 39 150 39q87 0 149 -39q65 -40 105 -105q38 -63 38 -151q0 -89 -38 -150q-39 -64 -105 -106q-62 -39 -149 -39zM408 1006q71 0 124 53q52 52 52 131t-52 131q-53 53 -124 53
q-72 0 -125 -53q-52 -52 -52 -131t52 -131q53 -53 125 -53z" />
    <glyph glyph-name="plusminus" unicode="&#xb1;" 
d="M164 0v135h926v-135h-926zM557 313v418h-393v135h393v418h141v-418h394v-135h-394v-418h-141z" />
    <glyph glyph-name="twosuperior" unicode="&#xb2;" horiz-adv-x="819" 
d="M102 819v109l338 282q73 61 101 103q26 39 26 86q0 55 -43 92t-118 37q-71 0 -115 -33q-48 -36 -60 -90h-133q17 103 103 176q83 68 209 68q131 0 213 -70t82 -178q0 -79 -43 -137q-48 -64 -136 -138l-231 -190h420v-117h-613z" />
    <glyph glyph-name="threesuperior" unicode="&#xb3;" horiz-adv-x="819" 
d="M414 801q-136 0 -219 59q-85 61 -109 164h137q15 -53 64 -80q48 -26 121 -26q71 0 120 32q54 35 54 103q0 57 -47 92q-44 33 -129 33h-99v110h94q69 0 117 31q45 29 45 88q0 61 -47 96q-51 31 -115 31q-60 0 -110 -29q-47 -27 -62 -75h-135q27 101 109 159q82 60 203 60
q78 0 145 -27q65 -27 106 -80q39 -51 39 -125q0 -64 -34 -110q-38 -47 -103 -68q75 -20 119 -74q41 -53 41 -121q0 -78 -41 -131q-46 -58 -113 -84q-73 -28 -151 -28z" />
    <glyph glyph-name="acute" unicode="&#xb4;" horiz-adv-x="1165" 
d="M571 1196h-149l153 315h168z" />
    <glyph glyph-name="uni00B5" unicode="&#xb5;" horiz-adv-x="1210" 
d="M162 -420v1464h151v-624q0 -137 72 -221t193 -84q116 0 198 82q80 80 80 223v624h152v-759q0 -156 125 -156h22v-137h-45q-187 0 -225 176q-41 -88 -117 -141q-77 -56 -188 -56q-96 0 -160 41q-72 41 -111 109v-541h-147z" />
    <glyph glyph-name="paragraph" unicode="&#xb6;" horiz-adv-x="1380" 
d="M688 -287v822h-41q-278 0 -418 122q-141 120 -141 326q0 204 141 324q139 118 418 118h520v-1712h-143v1577h-193v-1577h-143z" />
    <glyph glyph-name="periodcentered" unicode="&#xb7;" horiz-adv-x="548" 
d="M274 629q-51 0 -86 35q-34 34 -34 86t34 86t86 34t86 -34q35 -35 35 -86t-35 -86t-86 -35z" />
    <glyph glyph-name="cedilla" unicode="&#xb8;" horiz-adv-x="1165" 
d="M406 -483v110h94q58 0 96 21q37 21 37 61q0 80 -119 80h-82l88 260h115l-60 -158q87 -3 138 -51q53 -50 53 -133q0 -87 -64 -139q-63 -51 -174 -51h-122z" />
    <glyph glyph-name="onesuperior" unicode="&#xb9;" horiz-adv-x="819" 
d="M399 819v670l-215 -66v125l346 99v-828h-131z" />
    <glyph glyph-name="ordmasculine" unicode="&#xba;" horiz-adv-x="987" 
d="M494 623q-121 0 -207 57q-92 61 -142 158q-51 96 -51 227q0 132 51 231q51 96 142 156q88 55 207 55q118 0 206 -55q91 -60 142 -156q51 -99 51 -231q0 -131 -51 -227q-50 -97 -142 -158q-86 -57 -206 -57zM494 745q114 0 188 89t74 231t-74 231q-73 88 -188 88
q-116 0 -189 -88q-74 -89 -74 -231t74 -231t189 -89z" />
    <glyph glyph-name="guillemotright" unicode="&#xbb;" horiz-adv-x="1038" 
d="M119 94l274 424l-274 424h155l279 -424l-279 -424h-155zM496 94l274 424l-274 424h155l279 -424l-279 -424h-155z" />
    <glyph glyph-name="onequarter" unicode="&#xbc;" horiz-adv-x="1925" 
d="M399 655v670l-215 -65v124l346 99v-828h-131zM455 0l929 1425h156l-930 -1425h-155zM1604 0v190h-430v103l430 520h127v-510h131v-113h-131v-190h-127zM1315 303h289v348z" />
    <glyph glyph-name="onehalf" unicode="&#xbd;" horiz-adv-x="1925" 
d="M399 655v670l-215 -65v124l346 99v-828h-131zM403 0l930 1425h156l-930 -1425h-156zM1208 0v109l338 282q73 61 101 103q26 39 26 86q0 55 -43 92t-119 37q-70 0 -114 -33q-48 -36 -60 -90h-133q17 103 103 176q82 67 209 67q132 0 213 -69t81 -178q0 -80 -43 -138
q-47 -64 -135 -137l-231 -190h420v-117h-613z" />
    <glyph glyph-name="threequarters" unicode="&#xbe;" horiz-adv-x="1925" 
d="M414 637q-136 0 -219 59q-85 61 -109 164h137q15 -53 64 -80q48 -26 121 -26q71 0 120 32q54 35 54 103q0 57 -47 92q-44 33 -129 33h-99v110h94q69 0 117 31q45 29 45 88q0 61 -47 96q-51 31 -115 31q-60 0 -110 -29q-47 -27 -62 -75h-135q27 101 109 159q82 60 203 60
q78 0 145 -27q65 -27 106 -80q39 -51 39 -125q0 -64 -34 -110q-38 -47 -103 -68q75 -20 119 -74q41 -53 41 -120q0 -78 -41 -131q-46 -58 -113 -84q-76 -29 -151 -29zM481 0l930 1425h156l-930 -1425h-156zM1604 0v190h-430v103l430 520h127v-510h131v-113h-131v-190h-127z
M1315 303h289v348z" />
    <glyph glyph-name="questiondown" unicode="&#xbf;" horiz-adv-x="1118" 
d="M608 829q-51 0 -86 35t-35 86t35 86t86 35t86 -35t35 -86t-35 -86t-86 -35zM580 -408q-143 0 -244 52q-103 53 -158 135q-55 85 -55 190q0 109 57 189q58 82 189 164q74 46 118 90q40 43 50 77q10 45 10 86v87h151v-97q0 -66 -16 -125q-17 -54 -66 -110
q-46 -52 -141 -111q-84 -51 -119 -86q-42 -39 -57 -76q-14 -38 -14 -88q0 -95 82 -162q79 -67 219 -67q138 0 227 65q90 69 105 170h161q-18 -106 -82 -194q-64 -85 -168 -137q-107 -52 -249 -52z" />
    <glyph glyph-name="Agrave" unicode="&#xc0;" horiz-adv-x="1396" 
d="M1184 0l-162 408h-655l-160 -408h-166l575 1425h162l578 -1425h-172zM424 553h541l-271 684zM631 1579l-195 299h170l178 -299h-153z" />
    <glyph glyph-name="Aacute" unicode="&#xc1;" horiz-adv-x="1396" 
d="M1184 0l-162 408h-655l-160 -408h-166l575 1425h162l578 -1425h-172zM424 553h541l-271 684zM762 1579h-154l178 299h170z" />
    <glyph glyph-name="Acircumflex" unicode="&#xc2;" horiz-adv-x="1396" 
d="M1184 0l-162 408h-655l-160 -408h-166l575 1425h162l578 -1425h-172zM424 553h541l-271 684zM352 1579l256 299h176l256 -299h-161l-183 197l-182 -197h-162z" />
    <glyph glyph-name="Atilde" unicode="&#xc3;" horiz-adv-x="1396" 
d="M1184 0l-162 408h-655l-160 -408h-166l575 1425h162l578 -1425h-172zM424 553h541l-271 684zM852 1581q-43 0 -84 14q-47 16 -96 54q-39 27 -68 45q-24 12 -49 12q-78 0 -78 -78v-43h-127v64q0 84 53 137q51 51 138 51q43 0 84 -14q47 -16 96 -54q50 -35 67 -43
q22 -14 50 -14q77 0 77 78v43h127v-61q0 -85 -53 -138t-137 -53z" />
    <glyph glyph-name="Adieresis" unicode="&#xc4;" horiz-adv-x="1396" 
d="M1184 0l-162 408h-655l-160 -408h-166l575 1425h162l578 -1425h-172zM424 553h541l-271 684zM901 1624q-45 0 -76 31q-30 30 -30 76q0 45 30 75q31 31 76 31t76 -31t31 -75q0 -45 -31 -76t-76 -31zM492 1624q-45 0 -76 31t-31 76q0 44 31 75t76 31q44 0 75 -31t31 -75
q0 -45 -31 -76t-75 -31z" />
    <glyph glyph-name="Aring" unicode="&#xc5;" horiz-adv-x="1396" 
d="M1184 0l-162 408h-655l-160 -408h-166l575 1425h162l578 -1425h-172zM424 553h541l-271 684zM696 1317q-73 0 -123 33q-56 37 -84 86q-32 49 -32 116q0 68 32 117q28 49 84 86q50 33 123 33t123 -33q52 -34 86 -86q31 -54 31 -117q0 -62 -31 -116q-34 -52 -86 -86
q-50 -33 -123 -33zM696 1427q53 0 90 37q35 35 35 88q0 52 -35 90q-38 35 -90 35q-53 0 -88 -35q-37 -37 -37 -90q0 -54 37 -88q34 -37 88 -37z" />
    <glyph glyph-name="AE" unicode="&#xc6;" horiz-adv-x="2158" 
d="M199 0h-183l949 1425h1048v-145h-813v-473h791v-145h-791v-517h823v-145h-985v408h-573zM559 553h479v737z" />
    <glyph glyph-name="Ccedilla" unicode="&#xc7;" horiz-adv-x="1458" 
d="M106 713q0 213 87 385q82 169 233 264q149 94 342 94q242 0 393 -121q150 -120 203 -334h-170q-42 144 -147 224q-107 82 -279 82q-143 0 -256 -72q-109 -70 -176 -207q-64 -131 -64 -315q0 -185 64 -316q67 -136 176 -204q112 -74 256 -74q170 0 283 82q110 79 145 213
h168q-52 -203 -203 -324t-393 -121q-188 0 -342 97q-152 96 -233 262q-87 172 -87 385zM612 -483v110h95q59 0 96 21q35 21 35 61q0 80 -117 80h-82l86 242h113l-56 -140q87 -3 138 -51q53 -50 53 -133q0 -87 -64 -139q-63 -51 -174 -51h-123z" />
    <glyph glyph-name="Egrave" unicode="&#xc8;" horiz-adv-x="1312" 
d="M193 0v1425h974v-145h-813v-473h791v-145h-791v-517h824v-145h-985zM614 1579l-194 299h170l178 -299h-154z" />
    <glyph glyph-name="Eacute" unicode="&#xc9;" horiz-adv-x="1312" 
d="M193 0v1425h974v-145h-813v-473h791v-145h-791v-517h824v-145h-985zM745 1579h-153l178 299h170z" />
    <glyph glyph-name="Ecircumflex" unicode="&#xca;" horiz-adv-x="1312" 
d="M193 0v1425h974v-145h-813v-473h791v-145h-791v-517h824v-145h-985zM336 1579l256 299h176l256 -299h-162l-182 197l-182 -197h-162z" />
    <glyph glyph-name="Edieresis" unicode="&#xcb;" horiz-adv-x="1312" 
d="M193 0v1425h974v-145h-813v-473h791v-145h-791v-517h824v-145h-985zM885 1624q-45 0 -76 31t-31 76q0 44 31 75t76 31t76 -31q30 -30 30 -75q0 -46 -30 -76q-31 -31 -76 -31zM475 1624q-45 0 -76 31q-30 30 -30 76q0 45 30 75q31 31 76 31t76 -31t31 -75q0 -45 -31 -76
t-76 -31z" />
    <glyph glyph-name="Igrave" unicode="&#xcc;" horiz-adv-x="546" 
d="M354 0h-161v1425h161v-1425zM207 1579l-195 299h170l178 -299h-153z" />
    <glyph glyph-name="Iacute" unicode="&#xcd;" horiz-adv-x="546" 
d="M354 0h-161v1425h161v-1425zM338 1579h-154l178 299h170z" />
    <glyph glyph-name="Icircumflex" unicode="&#xce;" horiz-adv-x="546" 
d="M354 0h-161v1425h161v-1425zM-72 1579l256 299h176l256 -299h-161l-183 197l-182 -197h-162z" />
    <glyph glyph-name="Idieresis" unicode="&#xcf;" horiz-adv-x="546" 
d="M354 0h-161v1425h161v-1425zM477 1624q-45 0 -76 31q-30 30 -30 76q0 45 30 75q31 31 76 31t76 -31t31 -75q0 -45 -31 -76t-76 -31zM68 1624q-45 0 -76 31t-31 76q0 44 31 75t76 31q44 0 75 -31t31 -75q0 -45 -31 -76t-75 -31z" />
    <glyph glyph-name="Eth" unicode="&#xd0;" horiz-adv-x="1550" 
d="M244 0v682h-201v137h201v606h506q193 0 350 -86q159 -90 252 -247q92 -164 92 -379q0 -217 -92 -377q-93 -161 -252 -248q-155 -88 -350 -88h-506zM406 145h333q145 0 269 68q121 66 196 195q74 127 74 305q0 180 -74 307t-196 194q-126 66 -269 66h-333v-461h348v-137
h-348v-537z" />
    <glyph glyph-name="Ntilde" unicode="&#xd1;" horiz-adv-x="1564" 
d="M193 0v1425h159l860 -1169v1169h160v-1425h-160l-860 1169v-1169h-159zM938 1581q-43 0 -84 14q-47 16 -96 54q-39 27 -68 45q-24 12 -49 12q-78 0 -78 -78v-43h-127v64q0 84 53 137q51 51 138 51q43 0 84 -14q47 -16 96 -54q50 -35 67 -43q22 -14 50 -14q77 0 77 78v43
h127v-61q0 -85 -53 -138t-137 -53z" />
    <glyph glyph-name="Ograve" unicode="&#xd2;" horiz-adv-x="1609" 
d="M805 -31q-154 0 -281 56q-131 58 -221 155q-92 99 -145 236q-52 134 -52 297t52 297q53 135 145 235q92 99 221 156q125 55 281 55q155 0 280 -55q131 -58 222 -156q92 -100 145 -235q51 -131 51 -297t-51 -297q-53 -137 -145 -236q-90 -97 -222 -155q-127 -56 -280 -56z
M805 119q152 0 274 78q121 77 191 211q67 131 67 305q0 175 -67 309q-71 132 -191 209q-119 76 -274 76q-156 0 -275 -76q-120 -77 -188 -209q-70 -134 -70 -309q0 -174 70 -305q67 -134 188 -211q122 -78 275 -78zM739 1579l-194 299h170l178 -299h-154z" />
    <glyph glyph-name="Oacute" unicode="&#xd3;" horiz-adv-x="1609" 
d="M805 -31q-154 0 -281 56q-131 58 -221 155q-92 99 -145 236q-52 134 -52 297t52 297q53 135 145 235q92 99 221 156q125 55 281 55q155 0 280 -55q131 -58 222 -156q92 -100 145 -235q51 -131 51 -297t-51 -297q-53 -137 -145 -236q-90 -97 -222 -155q-127 -56 -280 -56z
M805 119q152 0 274 78q121 77 191 211q67 131 67 305q0 175 -67 309q-71 132 -191 209q-119 76 -274 76q-156 0 -275 -76q-120 -77 -188 -209q-70 -134 -70 -309q0 -174 70 -305q67 -134 188 -211q122 -78 275 -78zM870 1579h-153l178 299h170z" />
    <glyph glyph-name="Ocircumflex" unicode="&#xd4;" horiz-adv-x="1609" 
d="M805 -31q-154 0 -281 56q-131 58 -221 155q-92 99 -145 236q-52 134 -52 297t52 297q53 135 145 235q92 99 221 156q125 55 281 55q155 0 280 -55q131 -58 222 -156q92 -100 145 -235q51 -131 51 -297t-51 -297q-53 -137 -145 -236q-90 -97 -222 -155q-127 -56 -280 -56z
M805 119q152 0 274 78q121 77 191 211q67 131 67 305q0 175 -67 309q-71 132 -191 209q-119 76 -274 76q-156 0 -275 -76q-120 -77 -188 -209q-70 -134 -70 -309q0 -174 70 -305q67 -134 188 -211q122 -78 275 -78zM461 1579l256 299h176l256 -299h-162l-182 197l-182 -197
h-162z" />
    <glyph glyph-name="Otilde" unicode="&#xd5;" horiz-adv-x="1609" 
d="M805 -31q-154 0 -281 56q-131 58 -221 155q-92 99 -145 236q-52 134 -52 297t52 297q53 135 145 235q92 99 221 156q125 55 281 55q155 0 280 -55q131 -58 222 -156q92 -100 145 -235q51 -131 51 -297t-51 -297q-53 -137 -145 -236q-90 -97 -222 -155q-127 -56 -280 -56z
M805 119q152 0 274 78q121 77 191 211q67 131 67 305q0 175 -67 309q-71 132 -191 209q-119 76 -274 76q-156 0 -275 -76q-120 -77 -188 -209q-70 -134 -70 -309q0 -174 70 -305q67 -134 188 -211q122 -78 275 -78zM961 1581q-43 0 -84 14q-49 17 -97 54q-48 33 -67 45
q-24 12 -49 12q-78 0 -78 -78v-43h-127v64q0 84 53 137q51 51 137 51q43 0 84 -14q47 -16 96 -54q47 -33 68 -43q22 -14 49 -14q78 0 78 78v43h127v-61q0 -85 -53 -138t-137 -53z" />
    <glyph glyph-name="Odieresis" unicode="&#xd6;" horiz-adv-x="1609" 
d="M805 -31q-154 0 -281 56q-131 58 -221 155q-92 99 -145 236q-52 134 -52 297t52 297q53 135 145 235q92 99 221 156q125 55 281 55q155 0 280 -55q131 -58 222 -156q92 -100 145 -235q51 -131 51 -297t-51 -297q-53 -137 -145 -236q-90 -97 -222 -155q-127 -56 -280 -56z
M805 119q152 0 274 78q121 77 191 211q67 131 67 305q0 175 -67 309q-71 132 -191 209q-119 76 -274 76q-156 0 -275 -76q-120 -77 -188 -209q-70 -134 -70 -309q0 -174 70 -305q67 -134 188 -211q122 -78 275 -78zM1010 1624q-45 0 -76 31t-31 76q0 44 31 75t76 31
q44 0 75 -31t31 -75q0 -45 -31 -76t-75 -31zM600 1624q-45 0 -76 31q-30 30 -30 76q0 45 30 75q31 31 76 31t76 -31t31 -75q0 -45 -31 -76t-76 -31z" />
    <glyph glyph-name="multiply" unicode="&#xd7;" 
d="M291 250l-96 94l337 338l-337 338l96 94l336 -336l338 336l96 -94l-338 -338l338 -338l-96 -94l-338 336z" />
    <glyph glyph-name="Oslash" unicode="&#xd8;" horiz-adv-x="1609" 
d="M178 -98l162 241q-109 100 -170 246q-64 146 -64 324q0 163 52 297q53 135 145 235q92 99 221 156q125 55 281 55q101 0 190 -24q92 -25 166 -70l109 162h162l-162 -242q107 -98 172 -246q61 -146 61 -323q0 -166 -51 -297q-53 -137 -145 -236q-90 -97 -222 -155
q-127 -56 -280 -56q-99 0 -191 25q-93 25 -165 69l-109 -161h-162zM272 713q0 -134 43 -244q40 -111 115 -193l645 957q-121 74 -270 74q-156 0 -275 -76q-120 -77 -188 -209q-70 -134 -70 -309zM805 119q152 0 274 78q120 77 191 209q67 131 67 307q0 130 -41 245
q-45 114 -116 191l-645 -956q121 -74 270 -74z" />
    <glyph glyph-name="Ugrave" unicode="&#xd9;" horiz-adv-x="1517" 
d="M760 -31q-191 0 -324 80q-130 75 -198 221q-68 145 -68 336v819h162v-809q0 -234 106 -364q106 -133 322 -133q215 0 321 133q105 132 105 364v809h162v-819q0 -189 -66 -336q-68 -145 -199 -221q-133 -80 -323 -80zM694 1579l-194 299h170l178 -299h-154z" />
    <glyph glyph-name="Uacute" unicode="&#xda;" horiz-adv-x="1517" 
d="M760 -31q-191 0 -324 80q-130 75 -198 221q-68 145 -68 336v819h162v-809q0 -234 106 -364q106 -133 322 -133q215 0 321 133q105 132 105 364v809h162v-819q0 -189 -66 -336q-68 -145 -199 -221q-133 -80 -323 -80zM825 1579h-153l178 299h170z" />
    <glyph glyph-name="Ucircumflex" unicode="&#xdb;" horiz-adv-x="1517" 
d="M760 -31q-191 0 -324 80q-130 75 -198 221q-68 145 -68 336v819h162v-809q0 -234 106 -364q106 -133 322 -133q215 0 321 133q105 132 105 364v809h162v-819q0 -189 -66 -336q-68 -145 -199 -221q-133 -80 -323 -80zM416 1579l256 299h176l256 -299h-162l-182 197
l-182 -197h-162z" />
    <glyph glyph-name="Udieresis" unicode="&#xdc;" horiz-adv-x="1517" 
d="M760 -31q-191 0 -324 80q-130 75 -198 221q-68 145 -68 336v819h162v-809q0 -234 106 -364q106 -133 322 -133q215 0 321 133q105 132 105 364v809h162v-819q0 -189 -66 -336q-68 -145 -199 -221q-133 -80 -323 -80zM965 1624q-45 0 -76 31t-31 76q0 44 31 75t76 31
q44 0 75 -31t31 -75q0 -45 -31 -76t-75 -31zM555 1624q-45 0 -76 31q-30 30 -30 76q0 45 30 75q31 31 76 31t76 -31t31 -75q0 -45 -31 -76t-76 -31z" />
    <glyph glyph-name="Yacute" unicode="&#xdd;" horiz-adv-x="1298" 
d="M569 0v557l-536 868h188l432 -714l428 714h183l-533 -864v-561h-162zM713 1579h-154l178 299h170z" />
    <glyph glyph-name="Thorn" unicode="&#xde;" horiz-adv-x="1345" 
d="M193 0v1425h161v-260h346q276 0 418 -121q139 -121 139 -325q0 -205 -139 -326q-142 -121 -418 -121h-346v-272h-161zM682 1020h-328v-602h328q206 0 309 80q101 76 101 221q0 144 -101 223q-104 78 -309 78z" />
    <glyph glyph-name="germandbls" unicode="&#xdf;" horiz-adv-x="1257" 
d="M162 0v977q0 246 131 377q128 131 340 131q129 0 225 -47q99 -52 150 -135q53 -86 53 -199q0 -118 -57 -195q-56 -79 -162 -118q142 -34 225 -134q80 -100 80 -243q0 -127 -60 -221q-59 -95 -163 -144t-240 -49h-192v137h180q142 0 231 74q88 73 88 215q0 138 -92 209
q-97 72 -248 72h-125v137h84q125 0 209 63q86 65 86 193q0 116 -76 180q-75 63 -196 63q-140 0 -230 -90t-90 -282v-971h-151z" />
    <glyph glyph-name="agrave" unicode="&#xe0;" horiz-adv-x="1089" 
d="M438 -27q-156 0 -256 86q-98 85 -98 234q0 158 115 244t325 86h262v51q0 141 -69 198q-72 60 -191 60q-106 0 -168 -39q-69 -41 -84 -100h-155q27 126 137 202t270 76q191 0 301 -98q111 -99 111 -309v-664h-145v164q-57 -97 -152 -144q-100 -47 -203 -47zM467 109
q79 0 147 32q75 35 123 101q49 64 49 166v86h-254q-142 0 -219 -50t-77 -145q0 -91 65 -141q64 -49 166 -49zM481 1196l-172 315h168l154 -315h-150z" />
    <glyph glyph-name="aacute" unicode="&#xe1;" horiz-adv-x="1089" 
d="M438 -27q-156 0 -256 86q-98 85 -98 234q0 158 115 244t325 86h262v51q0 141 -69 198q-72 60 -191 60q-106 0 -168 -39q-69 -41 -84 -100h-155q27 126 137 202t270 76q191 0 301 -98q111 -99 111 -309v-664h-145v164q-57 -97 -152 -144q-100 -47 -203 -47zM467 109
q79 0 147 32q75 35 123 101q49 64 49 166v86h-254q-142 0 -219 -50t-77 -145q0 -91 65 -141q64 -49 166 -49zM608 1196h-149l153 315h168z" />
    <glyph glyph-name="acircumflex" unicode="&#xe2;" horiz-adv-x="1089" 
d="M438 -27q-156 0 -256 86q-98 85 -98 234q0 158 115 244t325 86h262v51q0 141 -69 198q-72 60 -191 60q-106 0 -168 -39q-69 -41 -84 -100h-155q27 126 137 202t270 76q191 0 301 -98q111 -99 111 -309v-664h-145v164q-57 -97 -152 -144q-100 -47 -203 -47zM467 109
q79 0 147 32q75 35 123 101q49 64 49 166v86h-254q-142 0 -219 -50t-77 -145q0 -91 65 -141q64 -49 166 -49zM215 1196l244 315h172l243 -315h-155l-174 213l-174 -213h-156z" />
    <glyph glyph-name="atilde" unicode="&#xe3;" horiz-adv-x="1089" 
d="M438 -27q-156 0 -256 86q-98 85 -98 234q0 158 115 244t325 86h262v51q0 141 -69 198q-72 60 -191 60q-106 0 -168 -39q-69 -41 -84 -100h-155q27 126 137 202t270 76q191 0 301 -98q111 -99 111 -309v-664h-145v164q-57 -97 -152 -144q-100 -47 -203 -47zM467 109
q79 0 147 32q75 35 123 101q49 64 49 166v86h-254q-142 0 -219 -50t-77 -145q0 -91 65 -141q64 -49 166 -49zM696 1202q-35 0 -84 17q-38 13 -98 57q-45 33 -63 41q-27 10 -45 10q-72 0 -72 -76v-45h-123v64q0 86 51 137q48 51 129 51q40 0 86 -16q35 -12 98 -58
q44 -33 66 -41q23 -10 43 -10q72 0 72 76v45h123v-63q0 -83 -50 -136q-53 -53 -133 -53z" />
    <glyph glyph-name="adieresis" unicode="&#xe4;" horiz-adv-x="1089" 
d="M438 -27q-156 0 -256 86q-98 85 -98 234q0 158 115 244t325 86h262v51q0 141 -69 198q-72 60 -191 60q-106 0 -168 -39q-69 -41 -84 -100h-155q27 126 137 202t270 76q191 0 301 -98q111 -99 111 -309v-664h-145v164q-57 -97 -152 -144q-100 -47 -203 -47zM467 109
q79 0 147 32q75 35 123 101q49 64 49 166v86h-254q-142 0 -219 -50t-77 -145q0 -91 65 -141q64 -49 166 -49zM731 1243q-45 0 -76 31q-30 30 -30 76q0 45 30 75q31 31 76 31t76 -31t31 -75q0 -45 -31 -76t-76 -31zM358 1243q-44 0 -75 31t-31 76q0 44 31 75t75 31
q45 0 76 -31t31 -75q0 -45 -31 -76t-76 -31z" />
    <glyph glyph-name="aring" unicode="&#xe5;" horiz-adv-x="1089" 
d="M438 -27q-156 0 -256 86q-98 85 -98 234q0 158 115 244t325 86h262v51q0 141 -69 198q-72 60 -191 60q-106 0 -168 -39q-69 -41 -84 -100h-155q27 126 137 202t270 76q191 0 301 -98q111 -99 111 -309v-664h-145v164q-57 -97 -152 -144q-100 -47 -203 -47zM467 109
q79 0 147 32q75 35 123 101q49 64 49 166v86h-254q-142 0 -219 -50t-77 -145q0 -91 65 -141q64 -49 166 -49zM545 1163q-73 0 -123 33q-56 37 -84 86q-33 50 -33 117t33 117q28 49 84 86q49 32 123 32t123 -32q52 -34 86 -86q30 -52 30 -117t-30 -117q-34 -52 -86 -86
q-50 -33 -123 -33zM545 1274q53 0 90 37q35 35 35 88q0 52 -35 90q-38 35 -90 35q-53 0 -88 -35q-37 -37 -37 -90q0 -54 37 -88q34 -37 88 -37z" />
    <glyph glyph-name="ae" unicode="&#xe6;" horiz-adv-x="1828" 
d="M446 -27q-162 0 -262 86q-100 84 -100 234q0 160 113 242q112 83 321 83h268v56q0 141 -69 198q-72 60 -191 60q-106 0 -168 -39q-69 -41 -84 -100h-155q27 126 137 202t270 76q132 0 226 -49q95 -53 141 -166q63 112 168 166q101 49 219 49q143 0 246 -65
q98 -62 153 -181q52 -116 52 -268v-68h-787q9 -178 98 -278q88 -98 244 -98q102 0 172 37q68 33 90 94h160q-38 -126 -152 -197q-115 -74 -270 -74q-149 0 -256 64q-110 66 -168 184q-55 -119 -170 -184q-113 -64 -246 -64zM1278 932q-139 0 -223 -84q-84 -87 -105 -230h627
q-9 143 -82 228q-77 86 -217 86zM467 109q86 0 154 32q73 36 118 101q47 65 47 170v77h-258q-138 0 -215 -47t-77 -143q0 -91 65 -141q64 -49 166 -49z" />
    <glyph glyph-name="ccedilla" unicode="&#xe7;" horiz-adv-x="1087" 
d="M584 -27q-146 0 -256 70q-111 67 -172 193q-62 124 -62 286q0 161 62 285t172 194t256 70q173 0 286 -94q112 -96 136 -238h-160q-15 83 -82 138t-180 55q-100 0 -174 -51q-75 -51 -119 -144q-43 -93 -43 -215q0 -187 94 -297t242 -110q112 0 180 53q69 54 84 137h158
q-21 -138 -134 -235q-117 -97 -288 -97zM424 -483v110h94q58 0 96 21q37 21 37 61q0 80 -119 80h-81l88 260h114l-59 -158q86 -3 137 -51q53 -50 53 -133q0 -88 -63 -139t-174 -51h-123z" />
    <glyph glyph-name="egrave" unicode="&#xe8;" horiz-adv-x="1134" 
d="M592 -27q-152 0 -264 68q-114 67 -172 190q-62 124 -62 291q0 154 60 283q59 127 168 196q107 70 262 70q144 0 247 -65q100 -63 154 -181q51 -114 51 -270v-82h-786q12 -173 102 -266q88 -94 240 -94q100 0 170 37q71 35 92 94h160q-38 -126 -152 -197
q-115 -74 -270 -74zM584 932q-143 0 -228 -88q-86 -89 -104 -240h631q-3 146 -80 238q-78 90 -219 90zM502 1196l-172 315h168l153 -315h-149z" />
    <glyph glyph-name="eacute" unicode="&#xe9;" horiz-adv-x="1134" 
d="M592 -27q-152 0 -264 68q-114 67 -172 190q-62 124 -62 291q0 154 60 283q59 127 168 196q107 70 262 70q144 0 247 -65q100 -63 154 -181q51 -114 51 -270v-82h-786q12 -173 102 -266q88 -94 240 -94q100 0 170 37q71 35 92 94h160q-38 -126 -152 -197
q-115 -74 -270 -74zM584 932q-143 0 -228 -88q-86 -89 -104 -240h631q-3 146 -80 238q-78 90 -219 90zM629 1196h-150l154 315h168z" />
    <glyph glyph-name="ecircumflex" unicode="&#xea;" horiz-adv-x="1134" 
d="M592 -27q-152 0 -264 68q-114 67 -172 190q-62 124 -62 291q0 154 60 283q59 127 168 196q107 70 262 70q144 0 247 -65q100 -63 154 -181q51 -114 51 -270v-82h-786q12 -173 102 -266q88 -94 240 -94q100 0 170 37q71 35 92 94h160q-38 -126 -152 -197
q-115 -74 -270 -74zM584 932q-143 0 -228 -88q-86 -89 -104 -240h631q-3 146 -80 238q-78 90 -219 90zM236 1196l243 315h172l244 -315h-156l-174 213l-174 -213h-155z" />
    <glyph glyph-name="edieresis" unicode="&#xeb;" horiz-adv-x="1134" 
d="M592 -27q-152 0 -264 68q-114 67 -172 190q-62 124 -62 291q0 154 60 283q59 127 168 196q107 70 262 70q144 0 247 -65q100 -63 154 -181q51 -114 51 -270v-82h-786q12 -173 102 -266q88 -94 240 -94q100 0 170 37q71 35 92 94h160q-38 -126 -152 -197
q-115 -74 -270 -74zM584 932q-143 0 -228 -88q-86 -89 -104 -240h631q-3 146 -80 238q-78 90 -219 90zM752 1243q-45 0 -76 31t-31 76q0 44 31 75t76 31q44 0 75 -31t31 -75q0 -45 -31 -76t-75 -31zM379 1243q-45 0 -76 31t-31 76q0 44 31 75t76 31t76 -31q30 -30 30 -75
q0 -46 -30 -76q-31 -31 -76 -31z" />
    <glyph glyph-name="igrave" unicode="&#xec;" horiz-adv-x="475" 
d="M162 0v1044h151v-1044h-151zM174 1196l-172 315h168l154 -315h-150z" />
    <glyph glyph-name="iacute" unicode="&#xed;" horiz-adv-x="475" 
d="M162 0v1044h151v-1044h-151zM301 1196h-149l153 315h168z" />
    <glyph glyph-name="icircumflex" unicode="&#xee;" horiz-adv-x="475" 
d="M162 0v1044h151v-1044h-151zM-63 1196l215 315h172l215 -315h-156l-145 203l-148 -203h-153z" />
    <glyph glyph-name="idieresis" unicode="&#xef;" horiz-adv-x="475" 
d="M162 0v1044h151v-1044h-151zM72 1243q-47 0 -78 31q-29 32 -29 76q0 43 29 75q31 31 78 31t78 -31q28 -31 28 -75q0 -45 -28 -76q-31 -31 -78 -31zM403 1243q-47 0 -75 31q-31 31 -31 76q0 44 31 75q28 31 75 31t78 -31q29 -32 29 -75q0 -44 -29 -76q-31 -31 -78 -31z
" />
    <glyph glyph-name="eth" unicode="&#xf0;" horiz-adv-x="1183" 
d="M588 -27q-144 0 -256 68q-112 64 -174 184q-64 119 -64 273q0 157 64 276q61 119 170 184q111 66 243 66q102 0 191 -47q87 -46 147 -133q-25 111 -69 194q-49 93 -123 176l-299 -96v123l205 68q-116 98 -244 176h215q98 -64 172 -129l287 94v-125l-195 -63
q121 -141 174 -326q49 -180 49 -408q0 -174 -63 -297q-65 -127 -174 -190q-112 -68 -256 -68zM588 115q100 0 176 49q75 46 119 135q43 85 43 199q0 118 -45 204q-47 87 -123 136q-77 47 -170 47q-150 0 -244 -107t-94 -280q0 -114 43 -199q44 -89 119 -135q76 -49 176 -49z
" />
    <glyph glyph-name="ntilde" unicode="&#xf1;" horiz-adv-x="1167" 
d="M313 621v-621h-151v1044h147v-151q56 87 144 133q86 45 190 45q121 0 203 -55q80 -53 127 -150q43 -93 43 -221v-645h-152v614q0 151 -63 232q-66 84 -193 84q-75 0 -143 -35q-70 -39 -109 -104q-43 -70 -43 -170zM741 1202q-35 0 -84 17q-38 13 -98 57q-45 33 -63 41
q-27 10 -45 10q-72 0 -72 -76v-45h-123v64q0 86 51 137q48 51 129 51q40 0 86 -16q37 -13 99 -58q45 -34 65 -41q23 -10 43 -10q72 0 72 76v45h123v-63q0 -83 -50 -136q-53 -53 -133 -53z" />
    <glyph glyph-name="ograve" unicode="&#xf2;" horiz-adv-x="1175" 
d="M588 -27q-146 0 -256 70q-113 70 -174 195q-64 122 -64 284t64 287q61 122 174 192q110 70 256 70q145 0 258 -70q110 -70 174 -192q61 -125 61 -287t-61 -284q-64 -125 -174 -195q-113 -70 -258 -70zM588 115q153 0 246 112q94 110 94 295q0 184 -94 297
q-94 111 -246 111q-150 0 -244 -111q-96 -116 -96 -297q0 -182 96 -295q93 -112 244 -112zM524 1196l-172 315h168l154 -315h-150z" />
    <glyph glyph-name="oacute" unicode="&#xf3;" horiz-adv-x="1175" 
d="M588 -27q-146 0 -256 70q-113 70 -174 195q-64 122 -64 284t64 287q61 122 174 192q110 70 256 70q145 0 258 -70q110 -70 174 -192q61 -125 61 -287t-61 -284q-64 -125 -174 -195q-113 -70 -258 -70zM588 115q153 0 246 112q94 110 94 295q0 184 -94 297
q-94 111 -246 111q-150 0 -244 -111q-96 -116 -96 -297q0 -182 96 -295q93 -112 244 -112zM651 1196h-149l153 315h168z" />
    <glyph glyph-name="ocircumflex" unicode="&#xf4;" horiz-adv-x="1175" 
d="M588 -27q-146 0 -256 70q-113 70 -174 195q-64 122 -64 284t64 287q61 122 174 192q110 70 256 70q145 0 258 -70q110 -70 174 -192q61 -125 61 -287t-61 -284q-64 -125 -174 -195q-113 -70 -258 -70zM588 115q153 0 246 112q94 110 94 295q0 184 -94 297
q-94 111 -246 111q-150 0 -244 -111q-96 -116 -96 -297q0 -182 96 -295q93 -112 244 -112zM258 1196l244 315h172l244 -315h-156l-174 213l-174 -213h-156z" />
    <glyph glyph-name="otilde" unicode="&#xf5;" horiz-adv-x="1175" 
d="M588 -27q-146 0 -256 70q-113 70 -174 195q-64 122 -64 284t64 287q61 122 174 192q110 70 256 70q145 0 258 -70q110 -70 174 -192q61 -125 61 -287t-61 -284q-64 -125 -174 -195q-113 -70 -258 -70zM588 115q153 0 246 112q94 110 94 295q0 184 -94 297
q-94 111 -246 111q-150 0 -244 -111q-96 -116 -96 -297q0 -182 96 -295q93 -112 244 -112zM739 1202q-35 0 -84 17q-38 13 -98 57q-45 33 -63 41q-27 10 -45 10q-72 0 -72 -76v-45h-123v64q0 86 51 137q48 51 129 51q40 0 86 -16q35 -12 98 -58q44 -33 66 -41q23 -10 43 -10
q72 0 72 76v45h123v-63q0 -83 -50 -136q-53 -53 -133 -53z" />
    <glyph glyph-name="odieresis" unicode="&#xf6;" horiz-adv-x="1175" 
d="M588 -27q-146 0 -256 70q-113 70 -174 195q-64 122 -64 284t64 287q61 122 174 192q110 70 256 70q145 0 258 -70q110 -70 174 -192q61 -125 61 -287t-61 -284q-64 -125 -174 -195q-113 -70 -258 -70zM588 115q153 0 246 112q94 110 94 295q0 184 -94 297
q-94 111 -246 111q-150 0 -244 -111q-96 -116 -96 -297q0 -182 96 -295q93 -112 244 -112zM774 1243q-45 0 -76 31q-30 30 -30 76q0 45 30 75q31 31 76 31t76 -31t31 -75q0 -45 -31 -76t-76 -31zM401 1243q-44 0 -75 31t-31 76q0 44 31 75t75 31q45 0 76 -31t31 -75
q0 -45 -31 -76t-76 -31z" />
    <glyph glyph-name="divide" unicode="&#xf7;" 
d="M627 961q-47 0 -74 30q-29 32 -29 72t29 72q27 30 74 30q46 0 73 -30q29 -32 29 -72t-29 -72q-27 -30 -73 -30zM164 618v136h926v-136h-926zM627 207q-46 0 -74 31q-29 32 -29 71q0 40 29 72q28 31 74 31q45 0 73 -31q29 -32 29 -72q0 -39 -29 -71q-28 -31 -73 -31z" />
    <glyph glyph-name="oslash" unicode="&#xf8;" horiz-adv-x="1175" 
d="M121 -98l129 204q-75 72 -115 179q-41 109 -41 237q0 162 64 287q61 122 174 192q110 70 256 70q128 0 237 -59l84 131h146l-129 -205q74 -71 114 -178q41 -109 41 -238q0 -162 -61 -284q-64 -125 -174 -195q-113 -70 -258 -70q-127 0 -238 60l-84 -131h-145zM248 522
q0 -86 22 -160q20 -68 64 -126l416 655q-74 41 -162 41q-102 0 -176 -51q-78 -54 -121 -144t-43 -215zM588 113q104 0 178 51q76 52 119 143q43 90 43 215q0 82 -23 162q-21 71 -63 125l-416 -655q74 -41 162 -41z" />
    <glyph glyph-name="ugrave" unicode="&#xf9;" horiz-adv-x="1159" 
d="M846 420v624h151v-1044h-147v150q-55 -86 -133 -130q-78 -47 -182 -47q-178 0 -279 119q-104 116 -104 309v643h151v-624q0 -137 72 -221t192 -84q114 0 197 80q82 79 82 225zM512 1196l-172 315h168l154 -315h-150z" />
    <glyph glyph-name="uacute" unicode="&#xfa;" horiz-adv-x="1159" 
d="M846 420v624h151v-1044h-147v150q-55 -86 -133 -130q-78 -47 -182 -47q-178 0 -279 119q-104 116 -104 309v643h151v-624q0 -137 72 -221t192 -84q114 0 197 80q82 79 82 225zM639 1196h-150l154 315h168z" />
    <glyph glyph-name="ucircumflex" unicode="&#xfb;" horiz-adv-x="1159" 
d="M846 420v624h151v-1044h-147v150q-55 -86 -133 -130q-78 -47 -182 -47q-178 0 -279 119q-104 116 -104 309v643h151v-624q0 -137 72 -221t192 -84q114 0 197 80q82 79 82 225zM246 1196l243 315h173l243 -315h-155l-175 213l-174 -213h-155z" />
    <glyph glyph-name="udieresis" unicode="&#xfc;" horiz-adv-x="1159" 
d="M846 420v624h151v-1044h-147v150q-55 -86 -133 -130q-78 -47 -182 -47q-178 0 -279 119q-104 116 -104 309v643h151v-624q0 -137 72 -221t192 -84q114 0 197 80q82 79 82 225zM762 1243q-45 0 -76 31t-31 76q0 44 31 75t76 31t76 -31q30 -30 30 -75q0 -46 -30 -76
q-31 -31 -76 -31zM389 1243q-45 0 -76 31q-30 30 -30 76q0 45 30 75q31 31 76 31t76 -31t31 -75q0 -45 -31 -76t-76 -31z" />
    <glyph glyph-name="yacute" unicode="&#xfd;" horiz-adv-x="1042" 
d="M272 -420l172 420l-415 1044h172l325 -866l322 866h164l-580 -1464h-160zM588 1196h-150l154 315h168z" />
    <glyph glyph-name="thorn" unicode="&#xfe;" horiz-adv-x="1230" 
d="M162 -420v1905h151v-619q60 98 150 152q89 53 207 53q136 0 243 -70q107 -72 164 -192q60 -129 60 -287t-60 -284q-57 -123 -164 -195q-107 -70 -243 -70q-118 0 -207 56q-90 51 -150 149v-598h-151zM647 115q100 0 174 51q76 52 119 143q43 90 43 213t-43 213
q-44 93 -119 144q-74 51 -174 51q-102 0 -176 -51q-78 -54 -121 -144q-45 -89 -45 -213t45 -213q42 -89 121 -143q74 -51 176 -51z" />
    <glyph glyph-name="ydieresis" unicode="&#xff;" horiz-adv-x="1042" 
d="M272 -420l172 420l-415 1044h172l325 -866l322 866h164l-580 -1464h-160zM711 1243q-45 0 -76 31t-31 76q0 44 31 75t76 31q44 0 75 -31t31 -75q0 -45 -31 -76t-75 -31zM338 1243q-45 0 -76 31t-31 76q0 44 31 75t76 31t76 -31q30 -30 30 -75q0 -46 -30 -76
q-31 -31 -76 -31z" />
    <glyph glyph-name="Amacron" unicode="&#x100;" horiz-adv-x="1396" 
d="M1184 0l-162 408h-655l-160 -408h-166l575 1425h162l578 -1425h-172zM424 553h541l-271 684zM385 1802h623v-131h-623v131z" />
    <glyph glyph-name="amacron" unicode="&#x101;" horiz-adv-x="1089" 
d="M438 -27q-156 0 -256 86q-98 85 -98 234q0 158 115 244t325 86h262v51q0 141 -69 198q-72 60 -191 60q-106 0 -168 -39q-69 -41 -84 -100h-155q27 126 137 202t270 76q191 0 301 -98q111 -99 111 -309v-664h-145v164q-57 -97 -152 -144q-100 -47 -203 -47zM467 109
q79 0 147 32q75 35 123 101q49 64 49 166v86h-254q-142 0 -219 -50t-77 -145q0 -91 65 -141q64 -49 166 -49zM244 1423h602v-131h-602v131z" />
    <glyph glyph-name="Abreve" unicode="&#x102;" horiz-adv-x="1396" 
d="M1184 0l-162 408h-655l-160 -408h-166l575 1425h162l578 -1425h-172zM424 553h541l-271 684zM696 1573q-138 0 -229 82q-96 84 -105 219h142q9 -81 61 -127q52 -49 131 -49t131 49q53 47 62 127h141q-9 -135 -102 -219q-94 -82 -232 -82z" />
    <glyph glyph-name="abreve" unicode="&#x103;" horiz-adv-x="1089" 
d="M438 -27q-156 0 -256 86q-98 85 -98 234q0 158 115 244t325 86h262v51q0 141 -69 198q-72 60 -191 60q-106 0 -168 -39q-69 -41 -84 -100h-155q27 126 137 202t270 76q191 0 301 -98q111 -99 111 -309v-664h-145v164q-57 -97 -152 -144q-100 -47 -203 -47zM467 109
q79 0 147 32q75 35 123 101q49 64 49 166v86h-254q-142 0 -219 -50t-77 -145q0 -91 65 -141q64 -49 166 -49zM545 1192q-133 0 -223 84q-92 83 -101 229h141q9 -90 58 -139q45 -51 125 -51q79 0 127 51q46 49 55 139h141q-9 -146 -98 -229q-93 -84 -225 -84z" />
    <glyph glyph-name="Aogonek" unicode="&#x104;" horiz-adv-x="1396" 
d="M1184 0l-162 408h-655l-160 -408h-166l575 1425h162l578 -1425h-172zM424 553h541l-271 684zM1280 -483q-118 0 -188 61t-70 156q0 188 252 311l74 -45q-105 -63 -148 -125q-41 -59 -41 -117q0 -57 41 -92q39 -33 107 -33h65v-116h-92z" />
    <glyph glyph-name="aogonek" unicode="&#x105;" horiz-adv-x="1089" 
d="M438 -27q-156 0 -256 86q-98 85 -98 234q0 158 115 244t325 86h262v51q0 141 -69 198q-72 60 -191 60q-106 0 -168 -39q-69 -41 -84 -100h-155q27 126 137 202t270 76q191 0 301 -98q111 -99 111 -309v-664h-145v164q-57 -97 -152 -144q-100 -47 -203 -47zM467 109
q79 0 147 32q75 35 123 101q49 64 49 166v86h-254q-142 0 -219 -50t-77 -145q0 -91 65 -141q64 -49 166 -49zM870 -483q-118 0 -188 61t-70 156q0 188 252 311l74 -45q-103 -62 -147 -125q-41 -59 -41 -117q0 -57 41 -92q39 -33 106 -33h66v-116h-93z" />
    <glyph glyph-name="Cacute" unicode="&#x106;" horiz-adv-x="1458" 
d="M106 713q0 213 87 385q82 169 233 264q149 94 342 94q242 0 393 -121q150 -120 203 -334h-170q-42 144 -147 224q-107 82 -279 82q-143 0 -256 -72q-109 -70 -176 -207q-64 -131 -64 -315q0 -185 64 -316q67 -136 176 -204q112 -74 256 -74q170 0 283 82q110 79 145 213
h168q-52 -203 -203 -324t-393 -121q-188 0 -342 97q-152 96 -233 262q-87 172 -87 385zM834 1579h-154l178 299h170z" />
    <glyph glyph-name="cacute" unicode="&#x107;" horiz-adv-x="1087" 
d="M584 -27q-146 0 -256 70q-111 67 -172 193q-62 124 -62 286q0 161 62 285t172 194t256 70q173 0 286 -94q112 -96 136 -238h-160q-15 83 -82 138t-180 55q-100 0 -174 -51q-75 -51 -119 -144q-43 -93 -43 -215q0 -187 94 -297t242 -110q112 0 180 53q69 54 84 137h158
q-21 -138 -134 -235q-117 -97 -288 -97zM647 1196h-149l153 315h168z" />
    <glyph glyph-name="Ccircumflex" unicode="&#x108;" horiz-adv-x="1458" 
d="M106 713q0 213 87 385q82 169 233 264q149 94 342 94q242 0 393 -121q150 -120 203 -334h-170q-42 144 -147 224q-107 82 -279 82q-143 0 -256 -72q-109 -70 -176 -207q-64 -131 -64 -315q0 -185 64 -316q67 -136 176 -204q112 -74 256 -74q170 0 283 82q110 79 145 213
h168q-52 -203 -203 -324t-393 -121q-188 0 -342 97q-152 96 -233 262q-87 172 -87 385zM424 1579l256 299h176l256 -299h-162l-182 197l-182 -197h-162z" />
    <glyph glyph-name="ccircumflex" unicode="&#x109;" horiz-adv-x="1087" 
d="M584 -27q-146 0 -256 70q-111 67 -172 193q-62 124 -62 286q0 161 62 285t172 194t256 70q173 0 286 -94q112 -96 136 -238h-160q-15 83 -82 138t-180 55q-100 0 -174 -51q-75 -51 -119 -144q-43 -93 -43 -215q0 -187 94 -297t242 -110q112 0 180 53q69 54 84 137h158
q-21 -138 -134 -235q-117 -97 -288 -97zM254 1196l244 315h172l243 -315h-155l-174 213l-174 -213h-156z" />
    <glyph glyph-name="Cdotaccent" unicode="&#x10a;" horiz-adv-x="1458" 
d="M106 713q0 213 87 385q82 169 233 264q149 94 342 94q242 0 393 -121q150 -120 203 -334h-170q-42 144 -147 224q-107 82 -279 82q-143 0 -256 -72q-109 -70 -176 -207q-64 -131 -64 -315q0 -185 64 -316q67 -136 176 -204q112 -74 256 -74q170 0 283 82q110 79 145 213
h168q-52 -203 -203 -324t-393 -121q-188 0 -342 97q-152 96 -233 262q-87 172 -87 385zM768 1614q-47 0 -80 33t-33 79q0 47 33 80t80 33t80 -33t33 -80q0 -46 -33 -79t-80 -33z" />
    <glyph glyph-name="cdotaccent" unicode="&#x10b;" horiz-adv-x="1087" 
d="M584 -27q-146 0 -256 70q-111 67 -172 193q-62 124 -62 286q0 161 62 285t172 194t256 70q173 0 286 -94q112 -96 136 -238h-160q-15 83 -82 138t-180 55q-100 0 -174 -51q-75 -51 -119 -144q-43 -93 -43 -215q0 -187 94 -297t242 -110q112 0 180 53q69 54 84 137h158
q-21 -138 -134 -235q-117 -97 -288 -97zM584 1239q-45 0 -80 35q-33 33 -33 78q0 47 33 80q32 32 80 32t80 -32t32 -80q0 -46 -32 -78q-35 -35 -80 -35z" />
    <glyph glyph-name="Ccaron" unicode="&#x10c;" horiz-adv-x="1458" 
d="M106 713q0 213 87 385q82 169 233 264q149 94 342 94q242 0 393 -121q150 -120 203 -334h-170q-42 144 -147 224q-107 82 -279 82q-143 0 -256 -72q-109 -70 -176 -207q-64 -131 -64 -315q0 -185 64 -316q67 -136 176 -204q112 -74 256 -74q170 0 283 82q110 79 145 213
h168q-52 -203 -203 -324t-393 -121q-188 0 -342 97q-152 96 -233 262q-87 172 -87 385zM680 1579l-256 299h162l182 -197l182 197h162l-256 -299h-176z" />
    <glyph glyph-name="ccaron" unicode="&#x10d;" horiz-adv-x="1087" 
d="M584 -27q-146 0 -256 70q-111 67 -172 193q-62 124 -62 286q0 161 62 285t172 194t256 70q173 0 286 -94q112 -96 136 -238h-160q-15 83 -82 138t-180 55q-100 0 -174 -51q-75 -51 -119 -144q-43 -93 -43 -215q0 -187 94 -297t242 -110q112 0 180 53q69 54 84 137h158
q-21 -138 -134 -235q-117 -97 -288 -97zM498 1196l-244 315h156l174 -213l174 213h155l-243 -315h-172z" />
    <glyph glyph-name="Dcaron" unicode="&#x10e;" horiz-adv-x="1499" 
d="M193 0v1425h505q196 0 353 -86q154 -87 249 -247q93 -166 93 -379q0 -215 -93 -377q-94 -163 -249 -248q-155 -88 -353 -88h-505zM354 145h332q146 0 270 68q122 67 197 195q74 127 74 305q0 180 -74 307q-74 126 -197 194q-126 66 -270 66h-332v-1135zM639 1579
l-256 299h162l182 -197l182 197h162l-256 -299h-176z" />
    <glyph glyph-name="dcaron" unicode="&#x10f;" horiz-adv-x="1370" 
d="M561 -27q-140 0 -244 70q-105 71 -163 195q-60 126 -60 284t60 287q58 121 163 192q104 70 244 70q117 0 209 -53q88 -55 148 -152v619h151v-1485h-147v184q-57 -96 -148 -153q-91 -58 -213 -58zM584 115q104 0 178 51t121 143q43 90 43 213t-43 213q-48 94 -121 144
q-74 51 -178 51q-100 0 -174 -51q-75 -51 -119 -144q-43 -90 -43 -213t43 -213q43 -91 119 -143q74 -51 174 -51zM1223 1030l14 455h152l-46 -455h-120z" />
    <glyph glyph-name="Dcroat" unicode="&#x110;" horiz-adv-x="1550" 
d="M244 0v682h-201v137h201v606h506q193 0 350 -86q159 -90 252 -247q92 -164 92 -379q0 -217 -92 -377q-93 -161 -252 -248q-155 -88 -350 -88h-506zM406 145h333q145 0 269 68q121 66 196 195q74 127 74 305q0 180 -74 307t-196 194q-126 66 -269 66h-333v-461h348v-137
h-348v-537z" />
    <glyph glyph-name="dcroat" unicode="&#x111;" horiz-adv-x="1249" 
d="M561 -27q-133 0 -239 68q-108 68 -166 186q-62 118 -62 273t62 276q58 118 166 189q104 67 239 67q117 0 209 -53q90 -57 148 -150v353h-322v123h322v180h151v-180h164v-123h-164v-1182h-147v180q-59 -96 -150 -151q-92 -56 -211 -56zM586 115q96 0 172 49q77 50 123 137
q45 83 45 199t-45 202q-46 87 -123 140q-76 49 -172 49q-94 0 -170 -49q-77 -50 -123 -137q-45 -86 -45 -205q0 -118 45 -201q47 -85 123 -135q76 -49 170 -49z" />
    <glyph glyph-name="Emacron" unicode="&#x112;" horiz-adv-x="1312" 
d="M193 0v1425h974v-145h-813v-473h791v-145h-791v-517h824v-145h-985zM369 1802h622v-131h-622v131z" />
    <glyph glyph-name="emacron" unicode="&#x113;" horiz-adv-x="1134" 
d="M592 -27q-152 0 -264 68q-114 67 -172 190q-62 124 -62 291q0 154 60 283q59 127 168 196q107 70 262 70q144 0 247 -65q100 -63 154 -181q51 -114 51 -270v-82h-786q12 -173 102 -266q88 -94 240 -94q100 0 170 37q71 35 92 94h160q-38 -126 -152 -197
q-115 -74 -270 -74zM584 932q-143 0 -228 -88q-86 -89 -104 -240h631q-3 146 -80 238q-78 90 -219 90zM264 1423h602v-131h-602v131z" />
    <glyph glyph-name="Ebreve" unicode="&#x114;" horiz-adv-x="1312" 
d="M193 0v1425h974v-145h-813v-473h791v-145h-791v-517h824v-145h-985zM680 1573q-138 0 -229 82q-96 84 -105 219h141q9 -80 62 -127q52 -49 131 -49t131 49q52 46 61 127h142q-9 -134 -103 -219q-94 -82 -231 -82z" />
    <glyph glyph-name="ebreve" unicode="&#x115;" horiz-adv-x="1134" 
d="M592 -27q-152 0 -264 68q-114 67 -172 190q-62 124 -62 291q0 154 60 283q59 127 168 196q107 70 262 70q144 0 247 -65q100 -63 154 -181q51 -114 51 -270v-82h-786q12 -173 102 -266q88 -94 240 -94q100 0 170 37q71 35 92 94h160q-38 -126 -152 -197
q-115 -74 -270 -74zM584 932q-143 0 -228 -88q-86 -89 -104 -240h631q-3 146 -80 238q-78 90 -219 90zM565 1192q-133 0 -223 84q-91 82 -100 229h141q9 -91 57 -139q45 -51 125 -51q79 0 127 51q47 50 56 139h141q-9 -146 -98 -229q-93 -84 -226 -84z" />
    <glyph glyph-name="Edotaccent" unicode="&#x116;" horiz-adv-x="1312" 
d="M193 0v1425h974v-145h-813v-473h791v-145h-791v-517h824v-145h-985zM680 1614q-47 0 -80 33t-33 79q0 47 33 80t80 33t80 -33t33 -80q0 -46 -33 -79t-80 -33z" />
    <glyph glyph-name="edotaccent" unicode="&#x117;" horiz-adv-x="1134" 
d="M592 -27q-152 0 -264 68q-114 67 -172 190q-62 124 -62 291q0 154 60 283q59 127 168 196q107 70 262 70q144 0 247 -65q100 -63 154 -181q51 -114 51 -270v-82h-786q12 -173 102 -266q88 -94 240 -94q100 0 170 37q71 35 92 94h160q-38 -126 -152 -197
q-115 -74 -270 -74zM584 932q-143 0 -228 -88q-86 -89 -104 -240h631q-3 146 -80 238q-78 90 -219 90zM565 1239q-45 0 -80 35q-32 32 -32 78q0 48 32 80t80 32t80 -32q33 -33 33 -80q0 -45 -33 -78q-35 -35 -80 -35z" />
    <glyph glyph-name="Eogonek" unicode="&#x118;" horiz-adv-x="1312" 
d="M193 0v1425h974v-145h-813v-473h791v-145h-791v-517h824v-145h-985zM1090 -483q-119 0 -189 61t-70 156q0 188 252 311l74 -45q-103 -62 -147 -125q-41 -59 -41 -117q0 -57 41 -92q39 -33 106 -33h66v-116h-92z" />
    <glyph glyph-name="eogonek" unicode="&#x119;" horiz-adv-x="1134" 
d="M592 -27q-152 0 -264 68q-114 67 -172 190q-62 124 -62 291q0 154 60 283q59 127 168 196q107 70 262 70q144 0 247 -65q100 -63 154 -181q51 -114 51 -270v-82h-786q12 -173 102 -266q88 -94 240 -94q100 0 170 37q71 35 92 94h160q-38 -126 -152 -197
q-115 -74 -270 -74zM584 932q-143 0 -228 -88q-86 -89 -104 -240h631q-3 146 -80 238q-78 90 -219 90zM743 -483q-119 0 -188 57q-70 58 -70 160q0 56 29 116q25 55 100 117q74 64 195 135l70 -43q-113 -78 -164 -129q-57 -54 -74 -92q-18 -40 -18 -80q0 -64 41 -94
q42 -31 106 -31h66v-116h-93z" />
    <glyph glyph-name="Ecaron" unicode="&#x11a;" horiz-adv-x="1312" 
d="M193 0v1425h974v-145h-813v-473h791v-145h-791v-517h824v-145h-985zM592 1579l-256 299h162l182 -197l182 197h162l-256 -299h-176z" />
    <glyph glyph-name="ecaron" unicode="&#x11b;" horiz-adv-x="1134" 
d="M592 -27q-152 0 -264 68q-114 67 -172 190q-62 124 -62 291q0 154 60 283q59 127 168 196q107 70 262 70q144 0 247 -65q100 -63 154 -181q51 -114 51 -270v-82h-786q12 -173 102 -266q88 -94 240 -94q100 0 170 37q71 35 92 94h160q-38 -126 -152 -197
q-115 -74 -270 -74zM584 932q-143 0 -228 -88q-86 -89 -104 -240h631q-3 146 -80 238q-78 90 -219 90zM479 1196l-243 315h155l174 -213l174 213h156l-244 -315h-172z" />
    <glyph glyph-name="Gcircumflex" unicode="&#x11c;" horiz-adv-x="1536" 
d="M793 -31q-200 0 -357 97q-155 94 -241 264q-89 170 -89 383q0 215 89 385q89 171 243 264q152 94 353 94q217 0 376 -102q159 -104 226 -285h-172q-46 106 -162 172q-117 66 -268 66q-148 0 -267 -72q-115 -72 -184 -207q-68 -136 -68 -315t66 -314q65 -133 184 -206
q118 -74 273 -74q132 0 241 59q104 57 168 162q60 105 60 235v43h-473v146h634v-168q0 -184 -79 -324t-222 -221q-143 -82 -331 -82zM440 1579l256 299h176l256 -299h-161l-183 197l-182 -197h-162z" />
    <glyph glyph-name="gcircumflex" unicode="&#x11d;" horiz-adv-x="1230" 
d="M561 -10q-141 0 -244 69q-105 70 -163 193q-60 123 -60 278t60 281q58 120 163 190q104 70 244 70q124 0 213 -57q94 -60 148 -156v186h147v-1017q0 -224 -121 -351q-122 -125 -342 -125q-184 0 -303 82q-122 82 -162 207h166q33 -62 107 -106q71 -41 190 -41
q314 0 314 327v177q-60 -97 -148 -152t-209 -55zM584 131q102 0 176 51t119 142q42 85 45 206q3 117 -41 207q-48 92 -121 142q-74 51 -178 51q-103 0 -174 -51q-74 -51 -119 -142q-43 -87 -43 -207q0 -119 43 -206q45 -91 119 -142q71 -51 174 -51zM264 1196l244 315h172
l244 -315h-156l-174 213l-174 -213h-156z" />
    <glyph glyph-name="Gbreve" unicode="&#x11e;" horiz-adv-x="1536" 
d="M793 -31q-200 0 -357 97q-155 94 -241 264q-89 170 -89 383q0 215 89 385q89 171 243 264q152 94 353 94q217 0 376 -102q159 -104 226 -285h-172q-46 106 -162 172q-117 66 -268 66q-148 0 -267 -72q-115 -72 -184 -207q-68 -136 -68 -315t66 -314q65 -133 184 -206
q118 -74 273 -74q132 0 241 59q104 57 168 162q60 105 60 235v43h-473v146h634v-168q0 -184 -79 -324t-222 -221q-143 -82 -331 -82zM784 1573q-138 0 -229 82q-95 83 -104 219h141q9 -81 61 -127q52 -49 131 -49t131 49q53 47 62 127h141q-9 -135 -102 -219
q-94 -82 -232 -82z" />
    <glyph glyph-name="gbreve" unicode="&#x11f;" horiz-adv-x="1230" 
d="M561 -10q-141 0 -244 69q-105 70 -163 193q-60 123 -60 278t60 281q58 120 163 190q104 70 244 70q124 0 213 -57q94 -60 148 -156v186h147v-1017q0 -224 -121 -351q-122 -125 -342 -125q-184 0 -303 82q-122 82 -162 207h166q33 -62 107 -106q71 -41 190 -41
q314 0 314 327v177q-60 -97 -148 -152t-209 -55zM584 131q102 0 176 51t119 142q42 85 45 206q3 117 -41 207q-48 92 -121 142q-74 51 -178 51q-103 0 -174 -51q-74 -51 -119 -142q-43 -87 -43 -207q0 -119 43 -206q45 -91 119 -142q71 -51 174 -51zM594 1192
q-133 0 -223 84q-92 83 -101 229h142q9 -91 57 -139q45 -51 125 -51q79 0 127 51q46 49 55 139h142q-9 -145 -99 -229q-93 -84 -225 -84z" />
    <glyph glyph-name="Gdotaccent" unicode="&#x120;" horiz-adv-x="1536" 
d="M793 -31q-200 0 -357 97q-155 94 -241 264q-89 170 -89 383q0 215 89 385q89 171 243 264q152 94 353 94q217 0 376 -102q159 -104 226 -285h-172q-46 106 -162 172q-117 66 -268 66q-148 0 -267 -72q-115 -72 -184 -207q-68 -136 -68 -315t66 -314q65 -133 184 -206
q118 -74 273 -74q132 0 241 59q104 57 168 162q60 105 60 235v43h-473v146h634v-168q0 -184 -79 -324t-222 -221q-143 -82 -331 -82zM784 1614q-46 0 -79 33t-33 79q0 47 33 80t79 33q47 0 80 -33t33 -80q0 -46 -33 -79t-80 -33z" />
    <glyph glyph-name="gdotaccent" unicode="&#x121;" horiz-adv-x="1230" 
d="M561 -10q-141 0 -244 69q-105 70 -163 193q-60 123 -60 278t60 281q58 120 163 190q104 70 244 70q124 0 213 -57q94 -60 148 -156v186h147v-1017q0 -224 -121 -351q-122 -125 -342 -125q-184 0 -303 82q-122 82 -162 207h166q33 -62 107 -106q71 -41 190 -41
q314 0 314 327v177q-60 -97 -148 -152t-209 -55zM584 131q102 0 176 51t119 142q42 85 45 206q3 117 -41 207q-48 92 -121 142q-74 51 -178 51q-103 0 -174 -51q-74 -51 -119 -142q-43 -87 -43 -207q0 -119 43 -206q45 -91 119 -142q71 -51 174 -51zM594 1239q-45 0 -80 35
q-33 33 -33 78q0 47 33 80q32 32 80 32t80 -32q33 -33 33 -80q0 -45 -33 -78q-35 -35 -80 -35z" />
    <glyph glyph-name="uni0122" unicode="&#x122;" horiz-adv-x="1536" 
d="M793 -31q-200 0 -357 97q-155 94 -241 264q-89 170 -89 383q0 215 89 385q89 171 243 264q152 94 353 94q217 0 376 -102q159 -104 226 -285h-172q-46 106 -162 172q-117 66 -268 66q-148 0 -267 -72q-115 -72 -184 -207q-68 -136 -68 -315t66 -314q65 -133 184 -206
q118 -74 273 -74q132 0 241 59q104 57 168 162q60 105 60 235v43h-473v146h634v-168q0 -184 -79 -324t-222 -221q-143 -82 -331 -82zM674 -514q54 81 69 111q22 46 39 98q-49 3 -75 29q-29 29 -29 67q0 44 31 72q28 31 79 31q57 0 91 -37q30 -34 30 -88q0 -61 -24 -125
q-25 -67 -86 -158h-125z" />
    <glyph glyph-name="uni0123" unicode="&#x123;" horiz-adv-x="1230" 
d="M561 -10q-141 0 -244 69q-105 70 -163 193q-60 123 -60 278t60 281q58 120 163 190q104 70 244 70q124 0 213 -57q94 -60 148 -156v186h147v-1017q0 -224 -121 -351q-122 -125 -342 -125q-184 0 -303 82q-122 82 -162 207h166q33 -62 107 -106q71 -41 190 -41
q314 0 314 327v177q-60 -97 -148 -152t-209 -55zM584 131q102 0 176 51t119 142q42 85 45 206q3 117 -41 207q-48 92 -121 142q-74 51 -178 51q-103 0 -174 -51q-74 -51 -119 -142q-43 -87 -43 -207q0 -119 43 -206q45 -91 119 -142q71 -51 174 -51zM598 1165q-58 0 -88 37
q-33 33 -33 88q0 58 29 137q28 74 94 166h125q-47 -67 -76 -120q-23 -42 -47 -109q54 -3 80 -29q27 -27 27 -67q0 -43 -29 -72q-31 -31 -82 -31z" />
    <glyph glyph-name="Hcircumflex" unicode="&#x124;" horiz-adv-x="1570" 
d="M193 0v1425h161v-604h863v604h161v-1425h-161v676h-863v-676h-161zM442 1579l256 299h176l256 -299h-161l-183 197l-182 -197h-162z" />
    <glyph glyph-name="hcircumflex" unicode="&#x125;" horiz-adv-x="1167" 
d="M162 0v1485h151v-586q53 79 144 127q83 45 186 45q121 0 203 -55q80 -53 127 -150q43 -93 43 -221v-645h-152v614q0 151 -63 232q-66 84 -193 84q-75 0 -143 -35q-70 -39 -109 -104q-43 -70 -43 -170v-621h-151zM-106 1579l256 299h176l256 -299h-162l-182 197l-183 -197
h-161z" />
    <glyph glyph-name="Hbar" unicode="&#x126;" horiz-adv-x="1634" 
d="M225 0v1053h-164v133h164v239h162v-239h860v239h162v-239h164v-133h-164v-1053h-162v662h-860v-662h-162zM387 807h860v246h-860v-246z" />
    <glyph glyph-name="hbar" unicode="&#x127;" horiz-adv-x="1183" 
d="M178 0v1180h-164v125h164v180h152v-180h323v-125h-323v-320q54 80 143 127q83 45 186 45q121 0 203 -55q78 -52 127 -152q43 -93 43 -219v-606h-151v575q0 150 -64 232q-66 84 -192 84q-76 0 -144 -35q-68 -38 -108 -104q-43 -70 -43 -170v-582h-152z" />
    <glyph glyph-name="Itilde" unicode="&#x128;" horiz-adv-x="546" 
d="M354 0h-161v1425h161v-1425zM428 1581q-43 0 -84 14q-47 16 -96 54q-39 27 -68 45q-24 12 -49 12q-78 0 -78 -78v-43h-127v64q0 83 54 137q51 51 137 51q43 0 84 -14q47 -16 96 -54q47 -33 68 -43q22 -14 49 -14q78 0 78 78v43h126v-61q0 -85 -53 -138t-137 -53z" />
    <glyph glyph-name="itilde" unicode="&#x129;" horiz-adv-x="475" 
d="M162 0v1044h151v-1044h-151zM373 1202q-37 0 -76 17q-41 16 -90 57q-12 9 -30.5 23t-24.5 18q-20 10 -39 10q-56 0 -56 -70v-51h-123v64q0 85 46 137q45 51 122 51q43 0 78 -14q33 -14 88 -60q45 -33 56 -38q20 -13 38 -13q56 0 56 70v51h123v-63q0 -85 -45 -136
q-47 -53 -123 -53z" />
    <glyph glyph-name="Imacron" unicode="&#x12a;" horiz-adv-x="546" 
d="M354 0h-161v1425h161v-1425zM-39 1802h623v-131h-623v131z" />
    <glyph glyph-name="imacron" unicode="&#x12b;" horiz-adv-x="475" 
d="M162 0v1044h151v-1044h-151zM-63 1423h602v-131h-602v131z" />
    <glyph glyph-name="Ibreve" unicode="&#x12c;" horiz-adv-x="546" 
d="M354 0h-161v1425h161v-1425zM272 1573q-138 0 -229 82q-95 83 -104 219h141q9 -81 61 -127q52 -49 131 -49t131 49q53 47 62 127h141q-9 -135 -102 -219q-94 -82 -232 -82z" />
    <glyph glyph-name="ibreve" unicode="&#x12d;" horiz-adv-x="475" 
d="M162 0v1044h151v-1044h-151zM238 1192q-132 0 -213 84q-82 82 -91 229h142q9 -93 47 -139q39 -51 115 -51q75 0 114 51q38 46 47 139h142q-9 -147 -88 -229q-84 -84 -215 -84z" />
    <glyph glyph-name="Iogonek" unicode="&#x12e;" horiz-adv-x="546" 
d="M354 0h-161v1425h161v-1425zM283 -483q-119 0 -189 61q-69 60 -69 156q0 188 251 311l74 -45q-103 -62 -147 -125q-41 -59 -41 -117q0 -57 41 -92q39 -33 106 -33h66v-116h-92z" />
    <glyph glyph-name="iogonek" unicode="&#x12f;" horiz-adv-x="475" 
d="M238 1204q-45 0 -80 35t-35 80q0 47 35 82q33 33 80 33q48 0 81 -33t33 -82q0 -47 -33 -80q-35 -35 -81 -35zM162 0v1044h151v-1044h-151zM246 -483q-119 0 -189 61q-69 60 -69 156q0 188 252 311l73 -45q-103 -62 -147 -125q-41 -59 -41 -117q0 -57 41 -92
q39 -33 106 -33h66v-116h-92z" />
    <glyph glyph-name="Idotaccent" unicode="&#x130;" horiz-adv-x="546" 
d="M354 0h-161v1425h161v-1425zM272 1614q-46 0 -79 33t-33 79q0 47 33 80t79 33q47 0 80 -33t33 -80q0 -46 -33 -79t-80 -33z" />
    <glyph glyph-name="dotlessi" unicode="&#x131;" horiz-adv-x="475" 
d="M162 0v1044h151v-1044h-151z" />
    <glyph glyph-name="IJ" unicode="&#x132;" horiz-adv-x="1449" 
d="M725 -31q-145 0 -266 56q-124 57 -197 155q-77 103 -92 238h168q21 -134 121 -215q104 -84 266 -84q114 0 201 43q87 40 141 131q51 86 51 229v903h162v-909q0 -186 -76 -305q-78 -125 -200 -182q-129 -60 -279 -60zM170 668v757h162v-757h-162z" />
    <glyph glyph-name="ij" unicode="&#x133;" horiz-adv-x="950" 
d="M238 1204q-45 0 -80 35t-35 80q0 47 35 82q33 33 80 33q48 0 81 -33t33 -82q0 -47 -33 -80q-35 -35 -81 -35zM162 0v1044h151v-1044h-151zM713 1204q-45 0 -80 35t-35 80q0 47 35 82q33 33 80 33q49 0 82 -33q32 -32 32 -82q0 -48 -32 -80q-35 -35 -82 -35zM416 -420v137
h53q82 0 127 54q41 56 41 149v1124h151v-1136q0 -157 -73 -242q-77 -86 -223 -86h-76z" />
    <glyph glyph-name="Jcircumflex" unicode="&#x134;" horiz-adv-x="1232" 
d="M899 438v987h162v-989q0 -137 -57 -239q-58 -108 -166 -166q-109 -62 -258 -62q-216 0 -355 121q-137 119 -164 318h164q18 -133 115 -211q96 -78 240 -78q141 0 231 90q88 88 88 229zM637 1579l256 299h176l256 -299h-162l-182 197l-182 -197h-162z" />
    <glyph glyph-name="jcircumflex" unicode="&#x135;" horiz-adv-x="475" 
d="M-59 -420v137h53q82 0 127 54q41 56 41 149v1124h151v-1136q0 -157 -73 -242q-77 -86 -224 -86h-75zM-63 1196l215 315h172l215 -315h-156l-145 203l-148 -203h-153z" />
    <glyph glyph-name="uni0136" unicode="&#x136;" horiz-adv-x="1333" 
d="M193 0v1425h161v-624l705 624h213l-785 -688l820 -737h-226l-727 657v-657h-161zM594 -514q58 88 70 111q19 39 38 98q-49 3 -75 29q-29 29 -29 67q0 44 31 72q28 31 80 31q56 0 90 -37q30 -34 30 -88q0 -61 -24 -125q-25 -67 -86 -158h-125z" />
    <glyph glyph-name="uni0137" unicode="&#x137;" horiz-adv-x="1064" 
d="M162 0v1485h151v-883l488 442h196l-542 -493l594 -551h-205l-531 498v-498h-151zM449 -514q54 81 69 111q22 46 39 98q-50 3 -76 29q-28 28 -28 67q0 45 30 72q28 31 80 31q56 0 90 -37q31 -36 31 -88q0 -58 -25 -125t-86 -158h-124z" />
    <glyph glyph-name="kgreenlandic" unicode="&#x138;" horiz-adv-x="1064" 
d="M162 0v1044h151v-460l488 460h196l-540 -512l592 -532h-205l-531 477v-477h-151z" />
    <glyph glyph-name="Lacute" unicode="&#x139;" horiz-adv-x="1228" 
d="M1145 145v-145h-952v1425h161v-1280h791zM338 1579h-154l178 299h170z" />
    <glyph glyph-name="lacute" unicode="&#x13a;" horiz-adv-x="475" 
d="M162 0v1485h151v-1485h-151zM303 1593h-153l178 299h170z" />
    <glyph glyph-name="uni013B" unicode="&#x13b;" horiz-adv-x="1228" 
d="M1145 145v-145h-952v1425h161v-1280h791zM555 -514q58 88 70 111q22 46 39 98q-50 3 -76 29q-29 29 -29 67q0 44 31 72q28 31 80 31q56 0 90 -37q31 -36 31 -88q0 -58 -25 -125t-86 -158h-125z" />
    <glyph glyph-name="uni013C" unicode="&#x13c;" horiz-adv-x="475" 
d="M162 0v1485h151v-1485h-151zM119 -514q54 81 69 111q22 46 39 98q-49 3 -75 29q-29 29 -29 67q0 44 31 72q28 31 79 31q57 0 91 -37q30 -34 30 -88q0 -61 -24 -125q-25 -67 -86 -158h-125z" />
    <glyph glyph-name="Lcaron" unicode="&#x13d;" horiz-adv-x="1228" 
d="M1145 145v-145h-952v1425h161v-1280h791zM580 971l14 454h151l-45 -454h-120z" />
    <glyph glyph-name="lcaron" unicode="&#x13e;" horiz-adv-x="614" 
d="M162 0v1485h151v-1485h-151zM467 1030l14 455h152l-45 -455h-121z" />
    <glyph glyph-name="Ldot" unicode="&#x13f;" horiz-adv-x="1228" 
d="M1145 145v-145h-952v1425h161v-1280h791zM866 629q-51 0 -86 35t-35 86t35 86q34 34 86 34t86 -34q35 -35 35 -86t-35 -86t-86 -35z" />
    <glyph glyph-name="ldot" unicode="&#x140;" horiz-adv-x="757" 
d="M162 0v1485h151v-1485h-151zM608 629q-51 0 -86 35t-35 86t35 86q34 34 86 34t86 -34q35 -35 35 -86t-35 -86t-86 -35z" />
    <glyph glyph-name="Lslash" unicode="&#x141;" horiz-adv-x="1275" 
d="M240 0v629l-201 -111v152l201 110v645h161v-555l373 205v-151l-373 -205v-574h791v-145h-952z" />
    <glyph glyph-name="lslash" unicode="&#x142;" horiz-adv-x="544" 
d="M197 0v670l-183 -117v143l183 117v672h151v-574l182 117v-143l-182 -117v-768h-151z" />
    <glyph glyph-name="Nacute" unicode="&#x143;" horiz-adv-x="1564" 
d="M193 0v1425h159l860 -1169v1169h160v-1425h-160l-860 1169v-1169h-159zM848 1579h-154l178 299h170z" />
    <glyph glyph-name="nacute" unicode="&#x144;" horiz-adv-x="1167" 
d="M313 621v-621h-151v1044h147v-151q56 87 144 133q86 45 190 45q121 0 203 -55q80 -53 127 -150q43 -93 43 -221v-645h-152v614q0 151 -63 232q-66 84 -193 84q-75 0 -143 -35q-70 -39 -109 -104q-43 -70 -43 -170zM653 1196h-149l153 315h168z" />
    <glyph glyph-name="uni0145" unicode="&#x145;" horiz-adv-x="1564" 
d="M193 0v1425h159l860 -1169v1169h160v-1425h-160l-860 1169v-1169h-159zM664 -514q54 81 69 111q22 46 39 98q-50 3 -76 29q-28 28 -28 67q0 45 30 72q28 31 80 31q56 0 90 -37q31 -36 31 -88q0 -58 -25 -125t-86 -158h-124z" />
    <glyph glyph-name="uni0146" unicode="&#x146;" horiz-adv-x="1167" 
d="M313 621v-621h-151v1044h147v-151q56 87 144 133q86 45 190 45q121 0 203 -55q80 -53 127 -150q43 -93 43 -221v-645h-152v614q0 151 -63 232q-66 84 -193 84q-75 0 -143 -35q-70 -39 -109 -104q-43 -70 -43 -170zM471 -514q58 88 70 111q22 46 39 98q-50 3 -76 29
q-29 29 -29 67q0 44 31 72q28 31 80 31q56 0 90 -37q31 -36 31 -88q0 -58 -25 -125t-86 -158h-125z" />
    <glyph glyph-name="Ncaron" unicode="&#x147;" horiz-adv-x="1564" 
d="M193 0v1425h159l860 -1169v1169h160v-1425h-160l-860 1169v-1169h-159zM694 1579l-256 299h162l182 -197l183 197h161l-256 -299h-176z" />
    <glyph glyph-name="ncaron" unicode="&#x148;" horiz-adv-x="1167" 
d="M313 621v-621h-151v1044h147v-151q56 87 144 133q86 45 190 45q121 0 203 -55q80 -53 127 -150q43 -93 43 -221v-645h-152v614q0 151 -63 232q-66 84 -193 84q-75 0 -143 -35q-70 -39 -109 -104q-43 -70 -43 -170zM504 1196l-244 315h156l174 -213l174 213h156l-244 -315
h-172z" />
    <glyph glyph-name="napostrophe" unicode="&#x149;" horiz-adv-x="1454" 
d="M98 971q70 103 107 172q30 56 47 123q-52 3 -80 34q-29 29 -29 72q0 45 33 78q29 33 84 33q61 0 94 -39t33 -101q0 -75 -35 -165q-33 -85 -114 -207h-140zM600 621v-621h-151v1044h147v-151q57 88 143 133t191 45q121 0 203 -55q80 -53 127 -150q43 -93 43 -221v-645
h-152v614q0 150 -64 232q-66 84 -192 84q-75 0 -143 -35q-70 -39 -109 -104q-43 -70 -43 -170z" />
    <glyph glyph-name="Eng" unicode="&#x14a;" horiz-adv-x="1542" 
d="M193 0v1425h157v-245q72 127 201 202q127 74 283 74q173 0 294 -80q123 -85 183 -219q61 -137 61 -309v-529q0 -327 -297 -327h-76v137h54q77 0 116 45q41 47 41 158v487q0 225 -102 357q-104 131 -305 131q-120 0 -223 -56q-105 -60 -164 -164q-62 -109 -62 -262v-825
h-161z" />
    <glyph glyph-name="eng" unicode="&#x14b;" horiz-adv-x="1167" 
d="M643 -420v137h53q85 0 127 54q41 56 41 149v694q0 151 -63 232q-66 84 -193 84q-75 0 -143 -35q-70 -39 -109 -104q-43 -70 -43 -170v-621h-151v1044h147v-151q56 87 144 133q86 45 190 45q121 0 203 -55q80 -53 127 -150q43 -93 43 -221v-737q0 -156 -74 -242
q-77 -86 -223 -86h-76z" />
    <glyph glyph-name="Omacron" unicode="&#x14c;" horiz-adv-x="1609" 
d="M805 -31q-154 0 -281 56q-131 58 -221 155q-92 99 -145 236q-52 134 -52 297t52 297q53 135 145 235q92 99 221 156q125 55 281 55q155 0 280 -55q131 -58 222 -156q92 -100 145 -235q51 -131 51 -297t-51 -297q-53 -137 -145 -236q-90 -97 -222 -155q-127 -56 -280 -56z
M805 119q152 0 274 78q121 77 191 211q67 131 67 305q0 175 -67 309q-71 132 -191 209q-119 76 -274 76q-156 0 -275 -76q-120 -77 -188 -209q-70 -134 -70 -309q0 -174 70 -305q67 -134 188 -211q122 -78 275 -78zM494 1802h622v-131h-622v131z" />
    <glyph glyph-name="omacron" unicode="&#x14d;" horiz-adv-x="1175" 
d="M588 -27q-146 0 -256 70q-113 70 -174 195q-64 122 -64 284t64 287q61 122 174 192q110 70 256 70q145 0 258 -70q110 -70 174 -192q61 -125 61 -287t-61 -284q-64 -125 -174 -195q-113 -70 -258 -70zM588 115q153 0 246 112q94 110 94 295q0 184 -94 297
q-94 111 -246 111q-150 0 -244 -111q-96 -116 -96 -297q0 -182 96 -295q93 -112 244 -112zM287 1423h602v-131h-602v131z" />
    <glyph glyph-name="Obreve" unicode="&#x14e;" horiz-adv-x="1609" 
d="M805 -31q-154 0 -281 56q-131 58 -221 155q-92 99 -145 236q-52 134 -52 297t52 297q53 135 145 235q92 99 221 156q125 55 281 55q155 0 280 -55q131 -58 222 -156q92 -100 145 -235q51 -131 51 -297t-51 -297q-53 -137 -145 -236q-90 -97 -222 -155q-127 -56 -280 -56z
M805 119q152 0 274 78q121 77 191 211q67 131 67 305q0 175 -67 309q-71 132 -191 209q-119 76 -274 76q-156 0 -275 -76q-120 -77 -188 -209q-70 -134 -70 -309q0 -174 70 -305q67 -134 188 -211q122 -78 275 -78zM805 1573q-139 0 -230 82q-95 83 -104 219h141
q9 -80 62 -127q52 -49 131 -49t131 49q52 46 61 127h142q-9 -134 -103 -219q-94 -82 -231 -82z" />
    <glyph glyph-name="obreve" unicode="&#x14f;" horiz-adv-x="1175" 
d="M588 -27q-146 0 -256 70q-113 70 -174 195q-64 122 -64 284t64 287q61 122 174 192q110 70 256 70q145 0 258 -70q110 -70 174 -192q61 -125 61 -287t-61 -284q-64 -125 -174 -195q-113 -70 -258 -70zM588 115q153 0 246 112q94 110 94 295q0 184 -94 297
q-94 111 -246 111q-150 0 -244 -111q-96 -116 -96 -297q0 -182 96 -295q93 -112 244 -112zM588 1192q-133 0 -223 84q-92 83 -101 229h142q9 -91 57 -139q45 -51 125 -51q79 0 127 51q46 49 55 139h141q-9 -146 -98 -229q-93 -84 -225 -84z" />
    <glyph glyph-name="Ohungarumlaut" unicode="&#x150;" horiz-adv-x="1609" 
d="M805 -31q-154 0 -281 56q-131 58 -221 155q-92 99 -145 236q-52 134 -52 297t52 297q53 135 145 235q92 99 221 156q125 55 281 55q155 0 280 -55q131 -58 222 -156q92 -100 145 -235q51 -131 51 -297t-51 -297q-53 -137 -145 -236q-90 -97 -222 -155q-127 -56 -280 -56z
M805 119q152 0 274 78q121 77 191 211q67 131 67 305q0 175 -67 309q-71 132 -191 209q-119 76 -274 76q-156 0 -275 -76q-120 -77 -188 -209q-70 -134 -70 -309q0 -174 70 -305q67 -134 188 -211q122 -78 275 -78zM721 1579h-148l172 299h164zM1038 1579h-147l192 299h164z
" />
    <glyph glyph-name="ohungarumlaut" unicode="&#x151;" horiz-adv-x="1175" 
d="M588 -27q-146 0 -256 70q-113 70 -174 195q-64 122 -64 284t64 287q61 122 174 192q110 70 256 70q145 0 258 -70q110 -70 174 -192q61 -125 61 -287t-61 -284q-64 -125 -174 -195q-113 -70 -258 -70zM588 115q153 0 246 112q94 110 94 295q0 184 -94 297
q-94 111 -246 111q-150 0 -244 -111q-96 -116 -96 -297q0 -182 96 -295q93 -112 244 -112zM674 1196l174 315h162l-193 -315h-143zM360 1196l154 315h160l-170 -315h-144z" />
    <glyph glyph-name="OE" unicode="&#x152;" horiz-adv-x="2451" 
d="M793 -31q-146 0 -273 56q-129 57 -217 155q-92 99 -145 236q-52 134 -52 297t52 297q53 135 145 235q90 100 217 156q125 55 273 55q192 0 323 -82q133 -83 215 -223v274h975v-145h-813v-473h791v-145h-791v-517h823v-145h-985v274q-82 -140 -215 -223q-131 -82 -323 -82
zM803 119q154 0 276 78q118 75 189 211q69 129 69 305q0 177 -69 309q-72 134 -189 209q-119 76 -276 76q-156 0 -275 -76q-117 -75 -186 -209q-70 -134 -70 -309q0 -176 70 -307q68 -136 186 -211q119 -76 275 -76z" />
    <glyph glyph-name="oe" unicode="&#x153;" horiz-adv-x="1968" 
d="M588 -27q-146 0 -256 70q-113 70 -174 195q-64 122 -64 284t64 287q61 122 174 192q110 70 256 70q141 0 248 -70q102 -67 163 -188q59 121 166 191q107 67 252 67t248 -65q100 -63 154 -181q51 -114 51 -270v-80h-787q9 -173 101 -268q88 -94 239 -94q102 0 172 37
q72 35 93 94h159q-38 -127 -151 -197q-115 -74 -273 -74q-149 0 -258 68q-111 69 -168 192q-57 -117 -166 -188q-106 -72 -243 -72zM1415 932q-143 0 -225 -88q-87 -90 -105 -240h631q-6 149 -80 238q-78 90 -221 90zM588 115q102 0 176 51q74 48 121 141q43 87 43 213
q0 125 -43 215q-48 94 -121 144q-74 51 -176 51q-150 0 -244 -111q-96 -116 -96 -297q0 -182 96 -295q93 -112 244 -112z" />
    <glyph glyph-name="Racute" unicode="&#x154;" horiz-adv-x="1390" 
d="M193 0v1425h520q277 0 413 -112q140 -116 140 -320q0 -158 -90 -268q-86 -106 -240 -147l391 -578h-197l-366 551h-29h-381v-551h-161zM354 696h342q202 0 305 80q99 76 99 219q0 139 -99 213q-104 72 -305 72h-342v-584zM756 1579h-154l178 299h170z" />
    <glyph glyph-name="racute" unicode="&#x155;" horiz-adv-x="704" 
d="M313 532v-532h-151v1044h147v-192q48 92 131 145q82 52 181 52h28v-146h-33q-78 0 -149 -41q-71 -44 -111 -125q-43 -82 -43 -205zM469 1196h-150l154 315h168z" />
    <glyph glyph-name="uni0156" unicode="&#x156;" horiz-adv-x="1390" 
d="M193 0v1425h520q277 0 413 -112q140 -116 140 -320q0 -158 -90 -268q-86 -106 -240 -147l391 -578h-197l-366 551h-29h-381v-551h-161zM354 696h342q202 0 305 80q99 76 99 219q0 139 -99 213q-104 72 -305 72h-342v-584zM612 -514q58 88 70 111q22 46 39 98
q-50 3 -76 29q-29 29 -29 67q0 44 31 72q28 31 80 31q56 0 90 -37q31 -36 31 -88q0 -58 -25 -125t-86 -158h-125z" />
    <glyph glyph-name="uni0157" unicode="&#x157;" horiz-adv-x="704" 
d="M313 532v-532h-151v1044h147v-192q48 92 131 145q82 52 181 52h28v-146h-33q-78 0 -149 -41q-71 -44 -111 -125q-43 -82 -43 -205zM119 -514q54 81 69 111q22 46 39 98q-49 3 -75 29q-29 29 -29 67q0 44 31 72q28 31 79 31q57 0 91 -37q30 -34 30 -88q0 -61 -24 -125
q-25 -67 -86 -158h-125z" />
    <glyph glyph-name="Rcaron" unicode="&#x158;" horiz-adv-x="1390" 
d="M193 0v1425h520q277 0 413 -112q140 -116 140 -320q0 -158 -90 -268q-86 -106 -240 -147l391 -578h-197l-366 551h-29h-381v-551h-161zM354 696h342q202 0 305 80q99 76 99 219q0 139 -99 213q-104 72 -305 72h-342v-584zM602 1579l-256 299h162l182 -197l182 197h162
l-256 -299h-176z" />
    <glyph glyph-name="rcaron" unicode="&#x159;" horiz-adv-x="704" 
d="M313 532v-532h-151v1044h147v-192q48 92 131 145q82 52 181 52h28v-146h-33q-78 0 -149 -41q-71 -44 -111 -125q-43 -82 -43 -205zM319 1196l-243 315h155l175 -213l174 213h155l-243 -315h-173z" />
    <glyph glyph-name="Sacute" unicode="&#x15a;" horiz-adv-x="1298" 
d="M664 -31q-222 0 -375 105q-156 102 -203 291h168q35 -117 143 -181q109 -65 265 -65q101 0 186 31q78 26 131 88q49 58 49 141q0 71 -27 123q-26 51 -98 86q-69 34 -203 55l-174 27q-206 35 -305 123q-100 87 -100 256q0 125 69 215q70 91 189 143q116 49 264 49
q130 0 242 -41q106 -39 186 -125q75 -81 103 -213h-168q-27 121 -125 176q-102 54 -238 54q-156 0 -256 -68q-100 -66 -100 -184q0 -65 28 -113q26 -45 99 -76q75 -32 194 -49l162 -24q220 -35 322 -134t102 -272q0 -131 -68 -223q-71 -95 -190 -144q-117 -51 -272 -51z
M709 1579h-154l178 299h170z" />
    <glyph glyph-name="sacute" unicode="&#x15b;" horiz-adv-x="1001" 
d="M520 -31q-180 0 -295 86q-115 81 -143 213h156q15 -65 92 -112q77 -50 188 -50q108 0 178 48q68 47 68 131q0 67 -45 106q-46 40 -158 55l-162 21q-297 37 -297 285q0 93 52 163q54 72 141 115q90 41 203 41q159 0 266 -76q102 -74 137 -202h-156q-21 66 -86 104
q-64 37 -157 37q-114 0 -178 -49q-66 -54 -66 -129q0 -64 47 -99q46 -34 152 -49l161 -20q148 -18 226 -99q76 -79 76 -200q0 -98 -52 -168q-50 -71 -143 -113q-85 -39 -205 -39zM561 1196h-149l153 315h168z" />
    <glyph glyph-name="Scircumflex" unicode="&#x15c;" horiz-adv-x="1298" 
d="M664 -31q-222 0 -375 105q-156 102 -203 291h168q35 -117 143 -181q109 -65 265 -65q101 0 186 31q78 26 131 88q49 58 49 141q0 71 -27 123q-26 51 -98 86q-69 34 -203 55l-174 27q-206 35 -305 123q-100 87 -100 256q0 125 69 215q70 91 189 143q116 49 264 49
q130 0 242 -41q106 -39 186 -125q75 -81 103 -213h-168q-27 121 -125 176q-102 54 -238 54q-156 0 -256 -68q-100 -66 -100 -184q0 -65 28 -113q26 -45 99 -76q75 -32 194 -49l162 -24q220 -35 322 -134t102 -272q0 -131 -68 -223q-71 -95 -190 -144q-117 -51 -272 -51z
M299 1579l256 299h176l256 -299h-162l-182 197l-182 -197h-162z" />
    <glyph glyph-name="scircumflex" unicode="&#x15d;" horiz-adv-x="1001" 
d="M520 -31q-180 0 -295 86q-115 81 -143 213h156q15 -65 92 -112q77 -50 188 -50q108 0 178 48q68 47 68 131q0 67 -45 106q-46 40 -158 55l-162 21q-297 37 -297 285q0 93 52 163q54 72 141 115q90 41 203 41q159 0 266 -76q102 -74 137 -202h-156q-21 66 -86 104
q-64 37 -157 37q-114 0 -178 -49q-66 -54 -66 -129q0 -64 47 -99q46 -34 152 -49l161 -20q148 -18 226 -99q76 -79 76 -200q0 -98 -52 -168q-50 -71 -143 -113q-85 -39 -205 -39zM168 1196l244 315h172l243 -315h-155l-174 213l-174 -213h-156z" />
    <glyph glyph-name="Scedilla" unicode="&#x15e;" horiz-adv-x="1298" 
d="M664 -31q-222 0 -375 105q-156 102 -203 291h168q35 -117 143 -181q109 -65 265 -65q101 0 186 31q78 26 131 88q49 58 49 141q0 71 -27 123q-26 51 -98 86q-69 34 -203 55l-174 27q-206 35 -305 123q-100 87 -100 256q0 125 69 215q70 91 189 143q116 49 264 49
q130 0 242 -41q106 -39 186 -125q75 -81 103 -213h-168q-27 121 -125 176q-102 54 -238 54q-156 0 -256 -68q-100 -66 -100 -184q0 -65 28 -113q26 -45 99 -76q75 -32 194 -49l162 -24q220 -35 322 -134t102 -272q0 -131 -68 -223q-71 -95 -190 -144q-117 -51 -272 -51z
M508 -483v110h94q58 0 96 21q35 21 35 61q0 80 -117 80h-81l86 242h112l-55 -140q86 -3 137 -51q53 -50 53 -133q0 -88 -63 -139t-174 -51h-123z" />
    <glyph glyph-name="scedilla" unicode="&#x15f;" horiz-adv-x="1001" 
d="M520 -31q-180 0 -295 86q-115 81 -143 213h156q15 -65 92 -112q77 -50 188 -50q108 0 178 48q68 47 68 131q0 67 -45 106q-46 40 -158 55l-162 21q-297 37 -297 285q0 93 52 163q54 72 141 115q90 41 203 41q159 0 266 -76q102 -74 137 -202h-156q-21 66 -86 104
q-64 37 -157 37q-114 0 -178 -49q-66 -54 -66 -129q0 -64 47 -99q46 -34 152 -49l161 -20q148 -18 226 -99q76 -79 76 -200q0 -98 -52 -168q-50 -71 -143 -113q-85 -39 -205 -39zM365 -483v110h94q59 0 96 21t37 61q0 80 -119 80h-82l88 260h115l-59 -158q86 -3 137 -51
q53 -50 53 -133q0 -88 -63 -139t-175 -51h-122z" />
    <glyph glyph-name="Scaron" unicode="&#x160;" horiz-adv-x="1298" 
d="M664 -31q-222 0 -375 105q-156 102 -203 291h168q35 -117 143 -181q109 -65 265 -65q101 0 186 31q78 26 131 88q49 58 49 141q0 71 -27 123q-26 51 -98 86q-69 34 -203 55l-174 27q-206 35 -305 123q-100 87 -100 256q0 125 69 215q70 91 189 143q116 49 264 49
q130 0 242 -41q106 -39 186 -125q75 -81 103 -213h-168q-27 121 -125 176q-102 54 -238 54q-156 0 -256 -68q-100 -66 -100 -184q0 -65 28 -113q26 -45 99 -76q75 -32 194 -49l162 -24q220 -35 322 -134t102 -272q0 -131 -68 -223q-71 -95 -190 -144q-117 -51 -272 -51z
M555 1579l-256 299h162l182 -197l182 197h162l-256 -299h-176z" />
    <glyph glyph-name="scaron" unicode="&#x161;" horiz-adv-x="1001" 
d="M520 -31q-180 0 -295 86q-115 81 -143 213h156q15 -65 92 -112q77 -50 188 -50q108 0 178 48q68 47 68 131q0 67 -45 106q-46 40 -158 55l-162 21q-297 37 -297 285q0 93 52 163q54 72 141 115q90 41 203 41q159 0 266 -76q102 -74 137 -202h-156q-21 66 -86 104
q-64 37 -157 37q-114 0 -178 -49q-66 -54 -66 -129q0 -64 47 -99q46 -34 152 -49l161 -20q148 -18 226 -99q76 -79 76 -200q0 -98 -52 -168q-50 -71 -143 -113q-85 -39 -205 -39zM412 1196l-244 315h156l174 -213l174 213h155l-243 -315h-172z" />
    <glyph glyph-name="uni0162" unicode="&#x162;" horiz-adv-x="1366" 
d="M764 0h-162v1280h-518v145h1198v-145h-518v-1280zM526 -483v110h95q59 0 96 21q35 21 35 61q0 80 -117 80h-82l86 242h113l-56 -140q87 -3 138 -51q53 -50 53 -133q0 -87 -64 -139q-63 -51 -174 -51h-123z" />
    <glyph glyph-name="uni0163" unicode="&#x163;" horiz-adv-x="681" 
d="M526 -8q-147 0 -223 82q-76 79 -76 235v598h-192v137h192v340q43 3 78 11q46 11 74 20v-371h235v-137h-235v-585q0 -193 170 -193h65v-137h-88zM260 -483v110h94q60 0 97 21q36 20 36 61q0 80 -118 80h-82l88 260h114l-59 -158q86 -3 137 -51q54 -51 54 -133
q0 -87 -64 -139q-63 -51 -174 -51h-123z" />
    <glyph glyph-name="Tcaron" unicode="&#x164;" horiz-adv-x="1366" 
d="M764 0h-162v1280h-518v145h1198v-145h-518v-1280zM594 1579l-256 299h162l182 -197l182 197h162l-256 -299h-176z" />
    <glyph glyph-name="tcaron" unicode="&#x165;" horiz-adv-x="716" 
d="M526 -8q-147 0 -223 82q-76 79 -76 235v598h-192v137h192v340q43 3 78 11q46 11 74 20v-371h235v-137h-235v-585q0 -193 170 -193h65v-137h-88zM524 1176l15 309h151l-45 -309h-121z" />
    <glyph glyph-name="Tbar" unicode="&#x166;" horiz-adv-x="1366" 
d="M602 0v608h-350v140h350v532h-518v145h1198v-145h-518v-532h350v-140h-350v-608h-162z" />
    <glyph glyph-name="tbar" unicode="&#x167;" horiz-adv-x="681" 
d="M35 510v133h192v264h-192v137h192v340q43 3 78 11q46 11 74 20v-371h235v-137h-235v-264h235v-133h-235v-188q0 -193 170 -193h65v-137h-88q-147 0 -223 82q-76 79 -76 235v201h-192z" />
    <glyph glyph-name="Utilde" unicode="&#x168;" horiz-adv-x="1517" 
d="M760 -31q-191 0 -324 80q-130 75 -198 221q-68 145 -68 336v819h162v-809q0 -234 106 -364q106 -133 322 -133q215 0 321 133q105 132 105 364v809h162v-819q0 -189 -66 -336q-68 -145 -199 -221q-133 -80 -323 -80zM915 1581q-43 0 -84 14q-47 16 -96 54q-48 33 -67 45
q-24 12 -50 12q-77 0 -77 -78v-43h-127v64q0 84 53 137q51 51 137 51q43 0 84 -14q47 -16 96 -54q47 -33 68 -43q22 -14 49 -14q78 0 78 78v43h127v-61q0 -85 -53 -138t-138 -53z" />
    <glyph glyph-name="utilde" unicode="&#x169;" horiz-adv-x="1159" 
d="M846 420v624h151v-1044h-147v150q-55 -86 -133 -130q-78 -47 -182 -47q-178 0 -279 119q-104 116 -104 309v643h151v-624q0 -137 72 -221t192 -84q114 0 197 80q82 79 82 225zM727 1202q-35 0 -84 17q-38 13 -98 57q-43 32 -64 41q-27 10 -45 10q-71 0 -71 -76v-45h-123
v64q0 86 51 137q48 51 129 51q40 0 86 -16q35 -12 98 -58q44 -33 66 -41q23 -10 43 -10q71 0 71 76v45h123v-63q0 -84 -49 -136q-53 -53 -133 -53z" />
    <glyph glyph-name="Umacron" unicode="&#x16a;" horiz-adv-x="1517" 
d="M760 -31q-191 0 -324 80q-130 75 -198 221q-68 145 -68 336v819h162v-809q0 -234 106 -364q106 -133 322 -133q215 0 321 133q105 132 105 364v809h162v-819q0 -189 -66 -336q-68 -145 -199 -221q-133 -80 -323 -80zM449 1802h622v-131h-622v131z" />
    <glyph glyph-name="umacron" unicode="&#x16b;" horiz-adv-x="1159" 
d="M846 420v624h151v-1044h-147v150q-55 -86 -133 -130q-78 -47 -182 -47q-178 0 -279 119q-104 116 -104 309v643h151v-624q0 -137 72 -221t192 -84q114 0 197 80q82 79 82 225zM274 1423h603v-131h-603v131z" />
    <glyph glyph-name="Ubreve" unicode="&#x16c;" horiz-adv-x="1517" 
d="M760 -31q-191 0 -324 80q-130 75 -198 221q-68 145 -68 336v819h162v-809q0 -234 106 -364q106 -133 322 -133q215 0 321 133q105 132 105 364v809h162v-819q0 -189 -66 -336q-68 -145 -199 -221q-133 -80 -323 -80zM760 1573q-139 0 -230 82q-95 83 -104 219h141
q9 -80 62 -127q52 -49 131 -49t131 49q52 46 61 127h142q-9 -134 -103 -219q-94 -82 -231 -82z" />
    <glyph glyph-name="ubreve" unicode="&#x16d;" horiz-adv-x="1159" 
d="M846 420v624h151v-1044h-147v150q-55 -86 -133 -130q-78 -47 -182 -47q-178 0 -279 119q-104 116 -104 309v643h151v-624q0 -137 72 -221t192 -84q114 0 197 80q82 79 82 225zM575 1192q-133 0 -223 84q-91 82 -100 229h141q9 -90 58 -139q45 -51 124 -51t127 51
q47 50 56 139h141q-9 -146 -98 -229q-93 -84 -226 -84z" />
    <glyph glyph-name="Uring" unicode="&#x16e;" horiz-adv-x="1517" 
d="M760 -31q-191 0 -324 80q-130 75 -198 221q-68 145 -68 336v819h162v-809q0 -234 106 -364q106 -133 322 -133q215 0 321 133q105 132 105 364v809h162v-819q0 -189 -66 -336q-68 -145 -199 -221q-133 -80 -323 -80zM760 1536q-73 0 -123 33q-56 37 -84 86
q-33 50 -33 117q0 66 33 116q28 49 84 86q50 33 123 33t123 -33q52 -34 86 -86q30 -52 30 -116t-30 -117q-34 -52 -86 -86q-50 -33 -123 -33zM760 1647q54 0 90 36q35 35 35 89q0 52 -35 90q-37 34 -90 34q-54 0 -88 -34q-37 -37 -37 -90q0 -55 37 -89q33 -36 88 -36z" />
    <glyph glyph-name="uring" unicode="&#x16f;" horiz-adv-x="1159" 
d="M846 420v624h151v-1044h-147v150q-55 -86 -133 -130q-78 -47 -182 -47q-178 0 -279 119q-104 116 -104 309v643h151v-624q0 -137 72 -221t192 -84q114 0 197 80q82 79 82 225zM575 1163q-72 0 -122 33q-56 37 -84 86q-33 50 -33 117t33 117q28 49 84 86q49 32 122 32
q74 0 123 -32q52 -34 86 -86q31 -54 31 -117t-31 -117q-34 -52 -86 -86q-50 -33 -123 -33zM575 1274q54 0 91 37q34 34 34 88q0 53 -34 90q-38 35 -91 35t-88 -35q-36 -36 -36 -90q0 -55 36 -88q34 -37 88 -37z" />
    <glyph glyph-name="Uhungarumlaut" unicode="&#x170;" horiz-adv-x="1517" 
d="M760 -31q-191 0 -324 80q-130 75 -198 221q-68 145 -68 336v819h162v-809q0 -234 106 -364q106 -133 322 -133q215 0 321 133q105 132 105 364v809h162v-819q0 -189 -66 -336q-68 -145 -199 -221q-133 -80 -323 -80zM676 1579h-148l172 299h164zM993 1579h-147l192 299
h164z" />
    <glyph glyph-name="uhungarumlaut" unicode="&#x171;" horiz-adv-x="1159" 
d="M846 420v624h151v-1044h-147v150q-55 -86 -133 -130q-78 -47 -182 -47q-178 0 -279 119q-104 116 -104 309v643h151v-624q0 -137 72 -221t192 -84q114 0 197 80q82 79 82 225zM662 1196l174 315h161l-192 -315h-143zM348 1196l154 315h160l-170 -315h-144z" />
    <glyph glyph-name="Uogonek" unicode="&#x172;" horiz-adv-x="1517" 
d="M760 -31q-191 0 -324 80q-130 75 -198 221q-68 145 -68 336v819h162v-809q0 -234 106 -364q106 -133 322 -133q215 0 321 133q105 132 105 364v809h162v-819q0 -189 -66 -336q-68 -145 -199 -221q-133 -80 -323 -80zM961 -483q-120 0 -189 57q-70 58 -70 160q0 56 29 116
q25 55 100 117q74 64 195 135l70 -43q-113 -78 -164 -129q-57 -54 -74 -92q-18 -40 -18 -80q0 -64 41 -94q42 -31 106 -31h66v-116h-92z" />
    <glyph glyph-name="uogonek" unicode="&#x173;" horiz-adv-x="1159" 
d="M846 420v624h151v-1044h-147v150q-55 -86 -133 -130q-78 -47 -182 -47q-178 0 -279 119q-104 116 -104 309v643h151v-624q0 -137 72 -221t192 -84q114 0 197 80q82 79 82 225zM930 -483q-119 0 -189 61q-69 60 -69 156q0 188 252 311l73 -45q-103 -62 -147 -125
q-41 -59 -41 -117q0 -57 41 -92q39 -33 106 -33h66v-116h-92z" />
    <glyph glyph-name="Wcircumflex" unicode="&#x174;" horiz-adv-x="1996" 
d="M498 0l-437 1425h170l355 -1192l336 1188h149l348 -1194l350 1198h164l-434 -1425h-160l-342 1159l-340 -1159h-159zM655 1579l256 299h176l256 -299h-161l-183 197l-182 -197h-162z" />
    <glyph glyph-name="wcircumflex" unicode="&#x175;" horiz-adv-x="1536" 
d="M379 0l-340 1044h160l258 -833l241 829h140l249 -831l254 835h156l-340 -1044h-143l-246 817l-246 -817h-143zM438 1196l244 315h172l244 -315h-156l-174 213l-174 -213h-156z" />
    <glyph glyph-name="Ycircumflex" unicode="&#x176;" horiz-adv-x="1298" 
d="M569 0v557l-536 868h188l432 -714l428 714h183l-533 -864v-561h-162zM303 1579l256 299h176l256 -299h-162l-182 197l-182 -197h-162z" />
    <glyph glyph-name="ycircumflex" unicode="&#x177;" horiz-adv-x="1042" 
d="M272 -420l172 420l-415 1044h172l325 -866l322 866h164l-580 -1464h-160zM195 1196l243 315h172l244 -315h-156l-174 213l-174 -213h-155z" />
    <glyph glyph-name="Ydieresis" unicode="&#x178;" horiz-adv-x="1298" 
d="M569 0v557l-536 868h188l432 -714l428 714h183l-533 -864v-561h-162zM852 1624q-45 0 -76 31t-31 76q0 44 31 75t76 31t76 -31q30 -30 30 -75q0 -46 -30 -76q-31 -31 -76 -31zM442 1624q-44 0 -75 31t-31 76q0 44 31 75t75 31q45 0 76 -31t31 -75q0 -45 -31 -76t-76 -31z
" />
    <glyph glyph-name="Zacute" unicode="&#x179;" horiz-adv-x="1263" 
d="M92 1425h1067v-139l-870 -1141h885v-145h-1082v139l871 1141h-871v145zM692 1579h-153l178 299h170z" />
    <glyph glyph-name="zacute" unicode="&#x17a;" horiz-adv-x="1013" 
d="M84 0v135l647 772h-647v137h836v-135l-648 -772h662v-137h-850zM567 1196h-149l153 315h168z" />
    <glyph glyph-name="Zdotaccent" unicode="&#x17b;" horiz-adv-x="1263" 
d="M92 1425h1067v-139l-870 -1141h885v-145h-1082v139l871 1141h-871v145zM627 1614q-47 0 -80 33t-33 79q0 47 33 80t80 33t80 -33q32 -32 32 -80q0 -47 -32 -79q-33 -33 -80 -33z" />
    <glyph glyph-name="zdotaccent" unicode="&#x17c;" horiz-adv-x="1013" 
d="M84 0v135l647 772h-647v137h836v-135l-648 -772h662v-137h-850zM504 1239q-45 0 -80 35q-33 33 -33 78q0 47 33 80q32 32 80 32t80 -32t32 -80q0 -46 -32 -78q-35 -35 -80 -35z" />
    <glyph glyph-name="Zcaron" unicode="&#x17d;" horiz-adv-x="1263" 
d="M92 1425h1067v-139l-870 -1141h885v-145h-1082v139l871 1141h-871v145zM539 1579l-256 299h161l183 -197l182 197h162l-256 -299h-176z" />
    <glyph glyph-name="zcaron" unicode="&#x17e;" horiz-adv-x="1013" 
d="M84 0v135l647 772h-647v137h836v-135l-648 -772h662v-137h-850zM418 1196l-244 315h156l174 -213l174 213h156l-244 -315h-172z" />
    <glyph glyph-name="longs" unicode="&#x17f;" horiz-adv-x="540" 
d="M549 1485v-135h-47q-95 0 -142 -56t-47 -153v-1141h-151v1149q0 162 82 250q83 86 237 86h68z" />
    <glyph glyph-name="uni0181" unicode="&#x181;" horiz-adv-x="1802" 
d="M584 0v1280h-19q-170 0 -246 -88q-77 -89 -77 -299v-47h-154v57q0 272 125 397q122 125 360 125h576q239 0 364 -98q125 -101 125 -274q0 -113 -63 -191q-64 -78 -178 -119q150 -41 221 -127q72 -90 72 -219q0 -181 -131 -288q-133 -109 -381 -109h-594zM1133 1280h-388
v-473h388q163 0 249 63q91 63 91 174q0 112 -84 175q-85 61 -256 61zM1165 662h-420v-517h420q180 0 269 68q90 66 90 193q0 117 -92 188q-92 68 -267 68z" />
    <glyph glyph-name="uni0186" unicode="&#x186;" horiz-adv-x="1458" 
d="M690 -31q-242 0 -393 121t-203 324h168q35 -136 148 -215q112 -80 282 -80q141 0 256 74q108 68 174 204q64 131 64 316q0 182 -62 315q-62 134 -170 207q-113 72 -256 72q-173 0 -282 -80q-112 -83 -152 -226h-170q60 215 211 334q151 121 397 121q196 0 342 -94
q146 -96 228 -264q80 -171 80 -385q0 -212 -84 -385q-84 -166 -236 -262q-154 -97 -342 -97z" />
    <glyph glyph-name="uni018A" unicode="&#x18a;" horiz-adv-x="1890" 
d="M584 0v1280h-19q-170 0 -246 -88q-77 -89 -77 -299v-47h-154v57q0 272 125 397q122 125 360 125h517q193 0 350 -86q159 -90 252 -247q92 -164 92 -379q0 -217 -92 -377q-93 -161 -252 -248q-155 -88 -350 -88h-506zM745 145h332q147 0 271 68q121 66 196 195
q74 127 74 305q0 180 -74 307t-196 194q-126 66 -271 66h-332v-1135z" />
    <glyph glyph-name="uni018E" unicode="&#x18e;" horiz-adv-x="1312" 
d="M1120 0h-985v145h823v517h-790v145h790v473h-813v145h975v-1425z" />
    <glyph glyph-name="uni018F" unicode="&#x18f;" horiz-adv-x="1486" 
d="M1380 711q0 -226 -77 -394q-79 -166 -226 -256q-148 -92 -350 -92q-186 0 -326 90q-139 89 -215 252q-75 156 -75 371v88h1101q-15 261 -147 399t-336 138q-154 0 -260 -68t-152 -162h-172q45 114 125 197q85 85 199 133q116 49 262 49q194 0 340 -88q144 -89 227 -256
q82 -168 82 -401zM727 119q206 0 336 133q126 132 147 371h-936q3 -143 62 -258q58 -119 156 -181q103 -65 235 -65z" />
    <glyph glyph-name="uni0190" unicode="&#x190;" horiz-adv-x="1273" 
d="M637 -31q-137 0 -250 49q-115 49 -186 144q-72 97 -72 229q0 129 78 219q76 87 211 125q-112 37 -176 119q-66 84 -66 201q0 126 66 217q67 92 172 137q109 47 239 47q203 0 332 -100q130 -101 174 -260h-164q-35 94 -123 153q-88 58 -217 58q-85 0 -155 -27
q-71 -27 -115 -86q-43 -58 -43 -145q0 -117 84 -183q83 -65 223 -65h168v-146h-172q-161 0 -256 -65q-94 -67 -94 -191q0 -96 49 -157q50 -62 127 -92q79 -31 168 -31q142 0 240 55q97 54 131 158h164q-47 -172 -181 -266q-142 -97 -356 -97z" />
    <glyph glyph-name="florin" unicode="&#x192;" horiz-adv-x="716" 
d="M35 -420v137h49q91 0 141 56q47 56 47 151v983h-192v137h192v107q0 156 84 246q82 88 238 88h68v-137h-50q-91 0 -139 -54q-49 -55 -49 -151v-99h238v-137h-238v-993q0 -158 -82 -246t-240 -88h-67z" />
    <glyph glyph-name="uni0194" unicode="&#x194;" horiz-adv-x="1427" 
d="M715 -31q-127 0 -191 70q-65 71 -65 166q0 66 28 127q23 47 78 129l53 80l-577 884h186l490 -761l489 761h180l-577 -880l55 -84q54 -77 78 -129q29 -63 29 -127q0 -94 -66 -166q-64 -70 -190 -70zM596 211q0 -51 33 -84q30 -35 86 -35q53 0 88 35q31 36 31 84
q0 45 -21 86q-17 33 -65 104l-33 48l-33 -48q-43 -60 -66 -104q-20 -39 -20 -86z" />
    <glyph glyph-name="uni0198" unicode="&#x198;" horiz-adv-x="1511" 
d="M193 0v1425h161v-626l369 430q100 115 192 172q94 55 218 55q142 0 225 -86q82 -85 82 -254v-94h-162v80q0 114 -43 166q-43 49 -119 49q-66 0 -125 -35q-62 -40 -147 -135l-359 -408l822 -739h-226l-727 657v-657h-161z" />
    <glyph glyph-name="uni0199" unicode="&#x199;" horiz-adv-x="1064" 
d="M162 0v1092q0 204 100 297q101 96 281 96h131v-129h-119q-115 0 -178 -66q-64 -64 -64 -205v-483l488 442h196l-542 -493l594 -551h-205l-531 498v-498h-151z" />
    <glyph glyph-name="uni019D" unicode="&#x19d;" horiz-adv-x="1636" 
d="M49 -8v137h53q78 0 117 45q41 47 41 158v1093h158v-245q73 128 200 202t279 74q172 0 293 -80q119 -82 180 -219q62 -139 62 -309v-848h-162v819q0 224 -103 357q-101 131 -301 131q-118 0 -221 -56q-102 -58 -162 -164q-61 -107 -61 -262v-506q0 -327 -297 -327h-76z
" />
    <glyph glyph-name="uni019F" unicode="&#x19f;" horiz-adv-x="1607" 
d="M805 -31q-154 0 -281 56q-131 58 -221 155q-92 99 -145 236q-52 134 -52 297t52 297q53 135 145 235q92 99 221 156q125 55 281 55q152 0 280 -55q131 -58 222 -156q91 -102 143 -235q51 -131 51 -297t-51 -297q-53 -135 -143 -236q-90 -97 -222 -155q-130 -56 -280 -56z
M805 1307q-143 0 -260 -66q-115 -68 -185 -184q-71 -121 -86 -273h1061q-15 152 -86 273q-69 115 -186 184q-117 66 -258 66zM805 119q145 0 258 67q115 65 186 183t86 270h-1061q15 -152 86 -270q71 -117 187 -183q113 -67 258 -67z" />
    <glyph glyph-name="Ohorn" unicode="&#x1a0;" horiz-adv-x="1619" 
d="M1501 713q0 -166 -51 -297q-53 -135 -143 -236q-90 -97 -222 -155q-130 -56 -280 -56q-154 0 -281 56q-131 58 -221 155q-92 99 -145 236q-52 134 -52 297t52 297q53 135 145 235q92 99 221 156q125 55 281 55q52 0 117 -10q47 -8 108 -25q35 -8 60 -10q34 -6 59 -6h14
q191 0 191 190v68h145v-76q0 -128 -59 -205q-63 -78 -178 -96q112 -100 176 -246q63 -144 63 -327zM272 713q0 -174 70 -305q67 -134 188 -211q122 -78 275 -78q152 0 274 78q121 77 191 211q67 131 67 305q0 175 -67 309q-71 132 -191 209q-119 76 -274 76q-156 0 -275 -76
q-120 -77 -188 -209q-70 -134 -70 -309z" />
    <glyph glyph-name="ohorn" unicode="&#x1a1;" horiz-adv-x="1193" 
d="M1083 522q0 -163 -63 -286q-64 -125 -174 -195q-113 -70 -258 -70q-146 0 -256 70q-113 70 -174 195q-64 125 -64 286q0 162 64 287q61 122 174 192q110 70 256 70q57 0 98 -8q16 -3 90 -27q40 -12 76 -12q79 0 115 45q37 46 37 129v68h137v-78q0 -232 -195 -273
q66 -73 103 -172q34 -101 34 -221zM248 522q0 -125 43 -215q42 -89 121 -143q74 -51 176 -51q104 0 178 51q76 52 119 143q43 90 43 215q0 122 -43 215q-44 93 -119 144q-74 51 -178 51q-102 0 -176 -51q-78 -54 -121 -144q-43 -93 -43 -215z" />
    <glyph glyph-name="Uhorn" unicode="&#x1af;" horiz-adv-x="1546" 
d="M1346 606q0 -189 -66 -336q-68 -145 -199 -221q-133 -80 -323 -80q-191 0 -324 80q-131 76 -196 221q-68 145 -68 336v819h160v-809q0 -234 106 -364q106 -133 322 -133q215 0 321 133q105 132 105 364v809h125q170 0 170 191v67h147v-75q0 -297 -280 -312v-690z" />
    <glyph glyph-name="uhorn" unicode="&#x1b0;" horiz-adv-x="1185" 
d="M535 -29q-177 0 -279 117q-104 116 -104 307v649h151v-630q0 -135 72 -219q70 -82 192 -82q114 0 197 80q82 79 82 221v630h108q154 0 154 175v67h139v-78q0 -269 -250 -284v-924h-147v145q-52 -81 -133 -127q-78 -47 -182 -47z" />
    <glyph glyph-name="uni01B3" unicode="&#x1b3;" horiz-adv-x="1724" 
d="M569 0v557l-536 868h186l436 -716l267 467q82 143 180 213q98 67 237 67q161 0 238 -92q76 -91 76 -250v-92h-162v74q0 221 -166 221q-87 0 -145 -49q-57 -46 -119 -146l-330 -561v-561h-162z" />
    <glyph glyph-name="uni01B4" unicode="&#x1b4;" horiz-adv-x="1437" 
d="M272 -420l172 420l-415 1044h172l323 -866l221 588q57 160 146 233q87 72 215 72q131 0 201 -76q69 -75 69 -217v-73h-151v55q0 92 -33 131q-35 41 -100 41q-64 0 -109 -39q-46 -40 -90 -150l-461 -1163h-160z" />
    <glyph glyph-name="uni01CD" unicode="&#x1cd;" horiz-adv-x="1396" 
d="M1184 0l-162 408h-655l-160 -408h-166l575 1425h162l578 -1425h-172zM424 553h541l-271 684zM608 1579l-256 299h162l182 -197l183 197h161l-256 -299h-176z" />
    <glyph glyph-name="uni01CE" unicode="&#x1ce;" horiz-adv-x="1089" 
d="M438 -27q-156 0 -256 86q-98 85 -98 234q0 158 115 244t325 86h262v51q0 141 -69 198q-72 60 -191 60q-106 0 -168 -39q-69 -41 -84 -100h-155q27 126 137 202t270 76q191 0 301 -98q111 -99 111 -309v-664h-145v164q-57 -97 -152 -144q-100 -47 -203 -47zM467 109
q79 0 147 32q75 35 123 101q49 64 49 166v86h-254q-142 0 -219 -50t-77 -145q0 -91 65 -141q64 -49 166 -49zM459 1196l-244 315h156l174 -213l174 213h155l-243 -315h-172z" />
    <glyph glyph-name="uni01CF" unicode="&#x1cf;" horiz-adv-x="546" 
d="M354 0h-161v1425h161v-1425zM184 1579l-256 299h162l182 -197l183 197h161l-256 -299h-176z" />
    <glyph glyph-name="uni01D0" unicode="&#x1d0;" horiz-adv-x="475" 
d="M162 0v1044h151v-1044h-151zM152 1196l-215 315h153l148 -202l145 202h156l-215 -315h-172z" />
    <glyph glyph-name="uni01D1" unicode="&#x1d1;" horiz-adv-x="1609" 
d="M805 -31q-154 0 -281 56q-131 58 -221 155q-92 99 -145 236q-52 134 -52 297t52 297q53 135 145 235q92 99 221 156q125 55 281 55q155 0 280 -55q131 -58 222 -156q92 -100 145 -235q51 -131 51 -297t-51 -297q-53 -137 -145 -236q-90 -97 -222 -155q-127 -56 -280 -56z
M805 119q152 0 274 78q121 77 191 211q67 131 67 305q0 175 -67 309q-71 132 -191 209q-119 76 -274 76q-156 0 -275 -76q-120 -77 -188 -209q-70 -134 -70 -309q0 -174 70 -305q67 -134 188 -211q122 -78 275 -78zM717 1579l-256 299h162l182 -197l182 197h162l-256 -299
h-176z" />
    <glyph glyph-name="uni01D2" unicode="&#x1d2;" horiz-adv-x="1175" 
d="M588 -27q-146 0 -256 70q-113 70 -174 195q-64 122 -64 284t64 287q61 122 174 192q110 70 256 70q145 0 258 -70q110 -70 174 -192q61 -125 61 -287t-61 -284q-64 -125 -174 -195q-113 -70 -258 -70zM588 115q153 0 246 112q94 110 94 295q0 184 -94 297
q-94 111 -246 111q-150 0 -244 -111q-96 -116 -96 -297q0 -182 96 -295q93 -112 244 -112zM502 1196l-244 315h156l174 -213l174 213h156l-244 -315h-172z" />
    <glyph glyph-name="uni01D3" unicode="&#x1d3;" horiz-adv-x="1517" 
d="M760 -31q-191 0 -324 80q-130 75 -198 221q-68 145 -68 336v819h162v-809q0 -234 106 -364q106 -133 322 -133q215 0 321 133q105 132 105 364v809h162v-819q0 -189 -66 -336q-68 -145 -199 -221q-133 -80 -323 -80zM672 1579l-256 299h162l182 -197l182 197h162
l-256 -299h-176z" />
    <glyph glyph-name="uni01D4" unicode="&#x1d4;" horiz-adv-x="1159" 
d="M846 420v624h151v-1044h-147v150q-55 -86 -133 -130q-78 -47 -182 -47q-178 0 -279 119q-104 116 -104 309v643h151v-624q0 -137 72 -221t192 -84q114 0 197 80q82 79 82 225zM489 1196l-243 315h155l174 -213l175 213h155l-243 -315h-173z" />
    <glyph glyph-name="uni01D5" unicode="&#x1d5;" horiz-adv-x="1517" 
d="M760 -31q-191 0 -324 80q-130 75 -198 221q-68 145 -68 336v819h162v-809q0 -234 106 -364q106 -133 322 -133q215 0 321 133q105 132 105 364v809h162v-819q0 -189 -66 -336q-68 -145 -199 -221q-133 -80 -323 -80zM1063 1712q0 -40 -29 -72q-30 -30 -76 -30t-73 30
q-31 31 -31 72q0 43 31 74q28 31 73 31t76 -31q29 -32 29 -74zM666 1712q0 -41 -31 -72q-30 -30 -76 -30q-45 0 -72 30q-30 30 -30 72q0 44 30 74q28 31 72 31q45 0 76 -31t31 -74zM449 2050h622v-123h-622v123z" />
    <glyph glyph-name="uni01D6" unicode="&#x1d6;" horiz-adv-x="1159" 
d="M846 420v624h151v-1044h-147v150q-55 -86 -133 -130q-78 -47 -182 -47q-178 0 -279 119q-104 116 -104 309v643h151v-624q0 -137 72 -221t192 -84q114 0 197 80q82 79 82 225zM766 1247q-46 0 -74 31q-30 27 -30 72q0 41 30 71q28 31 74 31q43 0 74 -31q28 -31 28 -71
q0 -44 -28 -72q-31 -31 -74 -31zM385 1247q-44 0 -72 31q-30 27 -30 72q0 41 30 71q28 31 72 31q45 0 76 -31q28 -31 28 -71q0 -44 -28 -72q-31 -31 -76 -31zM274 1735h603v-121h-603v121z" />
    <glyph glyph-name="uni01D7" unicode="&#x1d7;" horiz-adv-x="1517" 
d="M760 -31q-191 0 -324 80q-130 75 -198 221q-68 145 -68 336v819h162v-809q0 -234 106 -364q106 -133 322 -133q215 0 321 133q105 132 105 364v809h162v-819q0 -189 -66 -336q-68 -145 -199 -221q-133 -80 -323 -80zM1063 1712q0 -40 -29 -72q-30 -30 -76 -30t-73 30
q-31 31 -31 72q0 43 31 74q28 31 73 31t76 -31q29 -32 29 -74zM666 1712q0 -41 -31 -72q-30 -30 -76 -30q-45 0 -72 30q-30 30 -30 72q0 44 30 74q28 31 72 31q45 0 76 -31t31 -74zM823 1831h-145l166 268h164z" />
    <glyph glyph-name="uni01D8" unicode="&#x1d8;" horiz-adv-x="1159" 
d="M846 420v624h151v-1044h-147v150q-55 -86 -133 -130q-78 -47 -182 -47q-178 0 -279 119q-104 116 -104 309v643h151v-624q0 -137 72 -221t192 -84q114 0 197 80q82 79 82 225zM766 1247q-46 0 -74 31q-30 27 -30 72q0 41 30 71q28 31 74 31q43 0 74 -31q28 -31 28 -71
q0 -44 -28 -72q-31 -31 -74 -31zM385 1247q-44 0 -72 31q-30 27 -30 72q0 41 30 71q28 31 72 31q45 0 76 -31q28 -31 28 -71q0 -44 -28 -72q-31 -31 -76 -31zM641 1505h-139l153 314h158z" />
    <glyph glyph-name="uni01D9" unicode="&#x1d9;" horiz-adv-x="1517" 
d="M760 -31q-191 0 -324 80q-130 75 -198 221q-68 145 -68 336v819h162v-809q0 -234 106 -364q106 -133 322 -133q215 0 321 133q105 132 105 364v809h162v-819q0 -189 -66 -336q-68 -145 -199 -221q-133 -80 -323 -80zM1063 1712q0 -40 -29 -72q-30 -30 -76 -30t-73 30
q-31 31 -31 72q0 43 31 74q28 31 73 31t76 -31q29 -32 29 -74zM666 1712q0 -41 -31 -72q-30 -30 -76 -30q-45 0 -72 30q-30 30 -30 72q0 44 30 74q28 31 72 31q45 0 76 -31t31 -74zM428 2099h154l178 -182l178 182h154l-246 -268h-172z" />
    <glyph glyph-name="uni01DA" unicode="&#x1da;" horiz-adv-x="1159" 
d="M846 420v624h151v-1044h-147v150q-55 -86 -133 -130q-78 -47 -182 -47q-178 0 -279 119q-104 116 -104 309v643h151v-624q0 -137 72 -221t192 -84q114 0 197 80q82 79 82 225zM766 1247q-46 0 -74 31q-30 27 -30 72q0 41 30 71q28 31 74 31q43 0 74 -31q28 -31 28 -71
q0 -44 -28 -72q-31 -31 -74 -31zM385 1247q-44 0 -72 31q-30 27 -30 72q0 41 30 71q28 31 72 31q45 0 76 -31q28 -31 28 -71q0 -44 -28 -72q-31 -31 -76 -31zM489 1511l-231 299h148l169 -206l170 206h148l-231 -299h-173z" />
    <glyph glyph-name="uni01DB" unicode="&#x1db;" horiz-adv-x="1517" 
d="M760 -31q-191 0 -324 80q-130 75 -198 221q-68 145 -68 336v819h162v-809q0 -234 106 -364q106 -133 322 -133q215 0 321 133q105 132 105 364v809h162v-819q0 -189 -66 -336q-68 -145 -199 -221q-133 -80 -323 -80zM1063 1712q0 -40 -29 -72q-30 -30 -76 -30t-73 30
q-31 31 -31 72q0 43 31 74q28 31 73 31t76 -31q29 -32 29 -74zM666 1712q0 -41 -31 -72q-30 -30 -76 -30q-45 0 -72 30q-30 30 -30 72q0 44 30 74q28 31 72 31q45 0 76 -31t31 -74zM692 1831l-184 268h164l166 -268h-146z" />
    <glyph glyph-name="uni01DC" unicode="&#x1dc;" horiz-adv-x="1159" 
d="M846 420v624h151v-1044h-147v150q-55 -86 -133 -130q-78 -47 -182 -47q-178 0 -279 119q-104 116 -104 309v643h151v-624q0 -137 72 -221t192 -84q114 0 197 80q82 79 82 225zM766 1247q-46 0 -74 31q-30 27 -30 72q0 41 30 71q28 31 74 31q43 0 74 -31q28 -31 28 -71
q0 -44 -28 -72q-31 -31 -74 -31zM385 1247q-44 0 -72 31q-30 27 -30 72q0 41 30 71q28 31 72 31q45 0 76 -31q28 -31 28 -71q0 -44 -28 -72q-31 -31 -76 -31zM508 1505l-172 314h160l153 -314h-141z" />
    <glyph glyph-name="uni01DD" unicode="&#x1dd;" horiz-adv-x="1134" 
d="M543 1069q151 0 266 -68q111 -67 172 -190q59 -124 59 -291q0 -162 -57 -282q-57 -121 -168 -193q-109 -72 -264 -72q-146 0 -246 66q-101 64 -153 180q-54 120 -54 268v82h787q-12 174 -101 269q-89 92 -241 92q-100 0 -170 -37q-72 -38 -92 -94h-160q37 125 151 198
q116 72 271 72zM551 113q142 0 227 88q87 87 105 237h-631q3 -146 80 -235q78 -90 219 -90z" />
    <glyph glyph-name="uni01F8" unicode="&#x1f8;" horiz-adv-x="1564" 
d="M193 0v1425h159l860 -1169v1169h160v-1425h-160l-860 1169v-1169h-159zM717 1579l-195 299h170l178 -299h-153z" />
    <glyph glyph-name="uni01F9" unicode="&#x1f9;" horiz-adv-x="1167" 
d="M313 621v-621h-151v1044h147v-151q56 87 144 133q86 45 190 45q121 0 203 -55q80 -53 127 -150q43 -93 43 -221v-645h-152v614q0 151 -63 232q-66 84 -193 84q-75 0 -143 -35q-70 -39 -109 -104q-43 -70 -43 -170zM526 1196l-172 315h168l154 -315h-150z" />
    <glyph glyph-name="Aringacute" unicode="&#x1fa;" horiz-adv-x="1396" 
d="M614 1847l144 260h166l-160 -260h-150zM41 0l543 1346q-54 25 -90 86q-35 56 -35 120q0 67 33 117q29 50 86 86q50 33 120 33t123 -33q52 -34 86 -86q31 -54 31 -117q0 -64 -35 -120q-35 -60 -92 -89l545 -1343h-172l-162 408h-657l-160 -408h-164zM698 1427q53 0 90 37
q35 35 35 88q0 52 -35 90q-38 35 -90 35q-53 0 -88 -35q-37 -37 -37 -90q0 -54 37 -88q34 -37 88 -37zM422 553h543l-273 686z" />
    <glyph glyph-name="aringacute" unicode="&#x1fb;" horiz-adv-x="1089" 
d="M438 -27q-156 0 -256 86q-98 85 -98 234q0 158 115 244t325 86h262v51q0 141 -69 198q-72 60 -191 60q-106 0 -168 -39q-69 -41 -84 -100h-155q27 126 137 202t270 76q191 0 301 -98q111 -99 111 -309v-664h-145v164q-57 -97 -152 -144q-100 -47 -203 -47zM467 109
q79 0 147 32q75 35 123 101q49 64 49 166v86h-254q-142 0 -219 -50t-77 -145q0 -91 65 -141q64 -49 166 -49zM545 1163q-73 0 -123 33q-56 37 -84 86q-33 50 -33 117t33 117q28 49 84 86q49 32 123 32t123 -32q52 -34 86 -86q30 -52 30 -117t-30 -117q-34 -52 -86 -86
q-50 -33 -123 -33zM545 1274q53 0 90 37q35 35 35 88q0 52 -35 90q-38 35 -90 35q-53 0 -88 -35q-37 -37 -37 -90q0 -54 37 -88q34 -37 88 -37zM610 1700h-153l178 299h170z" />
    <glyph glyph-name="AEacute" unicode="&#x1fc;" horiz-adv-x="2158" 
d="M199 0h-183l949 1425h1048v-145h-813v-473h791v-145h-791v-517h823v-145h-985v408h-573zM559 553h479v737zM1544 1579h-153l178 299h170z" />
    <glyph glyph-name="aeacute" unicode="&#x1fd;" horiz-adv-x="1828" 
d="M446 -27q-162 0 -262 86q-100 84 -100 234q0 160 113 242q112 83 321 83h268v56q0 141 -69 198q-72 60 -191 60q-106 0 -168 -39q-69 -41 -84 -100h-155q27 126 137 202t270 76q132 0 226 -49q95 -53 141 -166q63 112 168 166q101 49 219 49q143 0 246 -65
q98 -62 153 -181q52 -116 52 -268v-68h-787q9 -178 98 -278q88 -98 244 -98q102 0 172 37q68 33 90 94h160q-38 -126 -152 -197q-115 -74 -270 -74q-149 0 -256 64q-110 66 -168 184q-55 -119 -170 -184q-113 -64 -246 -64zM1278 932q-139 0 -223 -84q-84 -87 -105 -230h627
q-9 143 -82 228q-77 86 -217 86zM467 109q86 0 154 32q73 36 118 101q47 65 47 170v77h-258q-138 0 -215 -47t-77 -143q0 -91 65 -141q64 -49 166 -49zM954 1196h-149l153 315h168z" />
    <glyph glyph-name="Oslashacute" unicode="&#x1fe;" horiz-adv-x="1609" 
d="M178 -98l162 241q-109 100 -170 246q-64 146 -64 324q0 163 52 297q53 135 145 235q92 99 221 156q125 55 281 55q101 0 190 -24q92 -25 166 -70l109 162h162l-162 -242q107 -98 172 -246q61 -146 61 -323q0 -166 -51 -297q-53 -137 -145 -236q-90 -97 -222 -155
q-127 -56 -280 -56q-99 0 -191 25q-93 25 -165 69l-109 -161h-162zM272 713q0 -134 43 -244q40 -111 115 -193l645 957q-121 74 -270 74q-156 0 -275 -76q-120 -77 -188 -209q-70 -134 -70 -309zM805 119q152 0 274 78q120 77 191 209q67 131 67 307q0 130 -41 245
q-45 114 -116 191l-645 -956q121 -74 270 -74zM870 1579h-153l178 299h170z" />
    <glyph glyph-name="oslashacute" unicode="&#x1ff;" horiz-adv-x="1175" 
d="M121 -98l129 204q-75 72 -115 179q-41 109 -41 237q0 162 64 287q61 122 174 192q110 70 256 70q128 0 237 -59l84 131h146l-129 -205q74 -71 114 -178q41 -109 41 -238q0 -162 -61 -284q-64 -125 -174 -195q-113 -70 -258 -70q-127 0 -238 60l-84 -131h-145zM248 522
q0 -86 22 -160q20 -68 64 -126l416 655q-74 41 -162 41q-102 0 -176 -51q-78 -54 -121 -144t-43 -215zM588 113q104 0 178 51q76 52 119 143q43 90 43 215q0 82 -23 162q-21 71 -63 125l-416 -655q74 -41 162 -41zM651 1196h-149l153 315h168z" />
    <glyph glyph-name="uni0218" unicode="&#x218;" horiz-adv-x="1298" 
d="M664 -31q-222 0 -375 105q-156 102 -203 291h168q35 -117 143 -181q109 -65 265 -65q101 0 186 31q78 26 131 88q49 58 49 141q0 71 -27 123q-26 51 -98 86q-69 34 -203 55l-174 27q-206 35 -305 123q-100 87 -100 256q0 125 69 215q70 91 189 143q116 49 264 49
q130 0 242 -41q106 -39 186 -125q75 -81 103 -213h-168q-27 121 -125 176q-102 54 -238 54q-156 0 -256 -68q-100 -66 -100 -184q0 -65 28 -113q26 -45 99 -76q75 -32 194 -49l162 -24q220 -35 322 -134t102 -272q0 -131 -68 -223q-71 -95 -190 -144q-117 -51 -272 -51z
M545 -514q54 81 69 111q22 46 39 98q-49 3 -75 29q-29 29 -29 67q0 44 31 72q28 31 79 31q57 0 91 -37q30 -34 30 -88q0 -61 -24 -125q-25 -67 -86 -158h-125z" />
    <glyph glyph-name="uni0219" unicode="&#x219;" horiz-adv-x="1001" 
d="M520 -31q-180 0 -295 86q-115 81 -143 213h156q15 -65 92 -112q77 -50 188 -50q108 0 178 48q68 47 68 131q0 67 -45 106q-46 40 -158 55l-162 21q-297 37 -297 285q0 93 52 163q54 72 141 115q90 41 203 41q159 0 266 -76q102 -74 137 -202h-156q-21 66 -86 104
q-64 37 -157 37q-114 0 -178 -49q-66 -54 -66 -129q0 -64 47 -99q46 -34 152 -49l161 -20q148 -18 226 -99q76 -79 76 -200q0 -98 -52 -168q-50 -71 -143 -113q-85 -39 -205 -39zM406 -514q54 81 69 111q22 46 39 98q-50 3 -76 29q-28 28 -28 67q0 45 30 72q28 31 80 31
q56 0 90 -37q31 -36 31 -88q0 -58 -25 -125t-86 -158h-124z" />
    <glyph glyph-name="uni021A" unicode="&#x21a;" horiz-adv-x="1366" 
d="M764 0h-162v1280h-518v145h1198v-145h-518v-1280zM563 -514q58 88 70 111q22 46 39 98q-50 3 -76 29q-29 29 -29 67q0 44 31 72q28 31 80 31q56 0 90 -37q31 -36 31 -88q0 -58 -25 -125t-86 -158h-125z" />
    <glyph glyph-name="uni021B" unicode="&#x21b;" horiz-adv-x="681" 
d="M526 -8q-147 0 -223 82q-76 79 -76 235v598h-192v137h192v340q43 3 78 11q46 11 74 20v-371h235v-137h-235v-585q0 -193 170 -193h65v-137h-88zM301 -514q58 88 70 111q22 46 39 98q-50 3 -76 29q-29 29 -29 67q0 44 31 72q28 31 80 31q56 0 90 -37q31 -36 31 -88
q0 -58 -25 -125t-86 -158h-125z" />
    <glyph glyph-name="uni0232" unicode="&#x232;" horiz-adv-x="1298" 
d="M569 0v557l-536 868h188l432 -714l428 714h183l-533 -864v-561h-162zM336 1802h622v-131h-622v131z" />
    <glyph glyph-name="uni0233" unicode="&#x233;" horiz-adv-x="1042" 
d="M272 -420l172 420l-415 1044h172l325 -866l322 866h164l-580 -1464h-160zM223 1423h602v-131h-602v131z" />
    <glyph glyph-name="uni0237" unicode="&#x237;" horiz-adv-x="475" 
d="M-59 -420v137h53q82 0 127 54q41 56 41 149v1124h151v-1136q0 -157 -73 -242q-77 -86 -224 -86h-75z" />
    <glyph glyph-name="uni024C" unicode="&#x24c;" horiz-adv-x="1423" 
d="M225 0v551h-164v145h164v729h520q278 0 414 -112q139 -115 139 -320q0 -158 -90 -268q-87 -106 -239 -147l391 -578h-197l-366 551h-29h-381v-551h-162zM387 1280v-584h342q202 0 305 80q99 76 99 219q0 139 -99 213q-104 72 -305 72h-342z" />
    <glyph glyph-name="uni024D" unicode="&#x24d;" horiz-adv-x="720" 
d="M178 0v383h-164v113h164v548h148v-192q48 92 131 145q82 52 180 52h29v-146h-33q-79 0 -150 -41q-70 -43 -110 -125q-43 -82 -43 -205v-36h336v-113h-336v-383h-152z" />
    <glyph glyph-name="uni0250" unicode="&#x250;" horiz-adv-x="1089" 
d="M651 1071q156 0 256 -86q99 -85 99 -233q0 -159 -113 -244q-115 -86 -328 -86h-262v-51q0 -141 70 -199q71 -59 190 -59q102 0 170 41q68 43 82 98h156q-27 -125 -137 -201q-109 -78 -271 -78q-190 0 -301 99q-110 98 -110 309v663h145v-163q57 98 154 143q96 47 200 47z
M303 637v-86h254q143 0 219 49q78 50 78 145q0 94 -63 142q-64 49 -168 49q-78 0 -148 -33q-75 -35 -123 -98q-49 -67 -49 -168z" />
    <glyph glyph-name="uni0251" unicode="&#x251;" horiz-adv-x="1269" 
d="M539 -29q-133 0 -234 70q-99 66 -155 192q-56 124 -56 287q0 164 58 289q58 122 159 192t240 70q114 0 203 -57q93 -60 151 -166q2 18 9 55t8 43q10 61 20 98h150q-24 -123 -39 -253q-17 -153 -17 -254v-78q0 -125 13 -201q12 -72 45 -98q37 -29 96 -29h22v-139h-41
q-229 0 -264 207q-53 -108 -149 -168q-102 -60 -219 -60zM569 113q145 0 232 112q88 113 88 295q0 127 -39 215q-40 89 -113 144q-71 51 -168 51q-143 0 -231 -113q-90 -116 -90 -297q0 -179 90 -295q87 -112 231 -112z" />
    <glyph glyph-name="uni0253" unicode="&#x253;" horiz-adv-x="1230" 
d="M162 0v1092q0 204 100 297q101 96 281 96h131v-129h-119q-115 0 -178 -66q-64 -64 -64 -205v-219q60 98 150 152q89 53 207 53q136 0 243 -70q107 -72 164 -192q60 -129 60 -287t-60 -284q-57 -123 -164 -195q-107 -70 -243 -70q-123 0 -211 58q-93 56 -150 153v-184
h-147zM647 115q100 0 174 51q76 52 119 143q43 90 43 213t-43 213q-44 93 -119 144q-74 51 -174 51q-102 0 -176 -51q-78 -54 -121 -144q-45 -89 -45 -213t45 -213q42 -89 121 -143q74 -51 176 -51z" />
    <glyph glyph-name="uni0254" unicode="&#x254;" horiz-adv-x="1087" 
d="M504 -27q-173 0 -287 97q-114 95 -135 235h158q15 -85 82 -137q68 -53 182 -53q147 0 241 110q95 112 95 297q0 122 -43 215q-44 93 -119 144q-74 51 -174 51q-114 0 -178 -55q-69 -57 -84 -138h-160q24 143 135 238q110 94 287 94q146 0 256 -70t172 -194
q61 -122 61 -285q0 -164 -61 -286q-61 -126 -172 -193q-110 -70 -256 -70z" />
    <glyph glyph-name="uni0257" unicode="&#x257;" horiz-adv-x="1300" 
d="M561 -27q-140 0 -244 70q-105 71 -163 195q-60 126 -60 284t60 287q58 121 163 192q104 70 244 70q117 0 209 -53q88 -55 148 -152v289q0 165 83 248q82 82 232 82h57v-129h-28q-91 0 -142 -45t-51 -172v-1139h-147v184q-57 -96 -148 -153q-91 -58 -213 -58zM584 115
q104 0 178 51t121 143q43 90 43 213t-43 213q-48 94 -121 144q-74 51 -178 51q-100 0 -174 -51q-75 -51 -119 -144q-43 -90 -43 -213t43 -213q43 -91 119 -143q74 -51 174 -51z" />
    <glyph glyph-name="uni0258" unicode="&#x258;" horiz-adv-x="1134" 
d="M543 -27q-156 0 -271 74q-113 70 -151 197h160q21 -59 92 -94q70 -37 170 -37q153 0 241 94q89 92 101 266h-787v82q0 150 54 270q55 119 153 181q103 65 246 65q154 0 264 -70q110 -72 168 -196q57 -123 57 -283q0 -167 -59 -291q-61 -123 -172 -190q-115 -68 -266 -68z
M551 932q-141 0 -219 -90q-77 -89 -80 -238h631q-18 150 -105 240q-85 88 -227 88z" />
    <glyph glyph-name="uni0259" unicode="&#x259;" horiz-adv-x="1134" 
d="M543 1069q151 0 266 -68q111 -67 172 -190q59 -124 59 -291q0 -162 -57 -282q-57 -121 -168 -193q-109 -72 -264 -72q-146 0 -246 66q-101 64 -153 180q-54 120 -54 268v82h787q-12 174 -101 269q-89 92 -241 92q-100 0 -170 -37q-72 -38 -92 -94h-160q37 125 151 198
q116 72 271 72zM551 113q142 0 227 88q87 87 105 237h-631q3 -146 80 -235q78 -90 219 -90z" />
    <glyph glyph-name="uni025B" unicode="&#x25b;" horiz-adv-x="1062" 
d="M530 -29q-191 0 -313 84q-119 82 -119 221q0 94 62 162q61 70 168 97q-101 28 -152 90q-55 61 -55 151q0 84 53 152q50 64 141 106q87 37 209 37q174 0 289 -74t156 -219h-158q-38 83 -106 119q-72 35 -177 35q-119 0 -184 -45q-70 -46 -70 -123q0 -75 68 -119
q62 -45 188 -45h211v-135h-206q-133 0 -207 -47q-76 -46 -76 -133q0 -82 78 -129q74 -45 205 -45q118 0 190 34q75 35 102 117h160q-43 -149 -160 -219q-115 -72 -297 -72z" />
    <glyph glyph-name="uni0261" unicode="&#x261;" horiz-adv-x="1230" 
d="M561 -10q-141 0 -244 69q-105 70 -163 193q-60 123 -60 278t60 281q58 120 163 190q104 70 244 70q124 0 213 -57q94 -60 148 -156v186h147v-1017q0 -224 -121 -351q-122 -125 -342 -125q-184 0 -303 82q-122 82 -162 207h166q33 -62 107 -106q71 -41 190 -41
q314 0 314 327v177q-60 -97 -148 -152t-209 -55zM584 131q102 0 176 51t119 142q42 85 45 206q3 117 -41 207q-48 92 -121 142q-74 51 -178 51q-103 0 -174 -51q-74 -51 -119 -142q-43 -87 -43 -207q0 -119 43 -206q45 -91 119 -142q71 -51 174 -51z" />
    <glyph glyph-name="uni0263" unicode="&#x263;" horiz-adv-x="1136" 
d="M569 -449q-113 0 -172 68q-59 71 -59 158q0 59 22 114q21 54 72 144l51 94l-454 915h170l370 -788l371 788h166l-451 -917l50 -90q48 -87 71 -143q21 -52 21 -113q0 -90 -58 -160t-170 -70zM475 -215q0 -48 27 -78q26 -29 67 -29q42 0 68 29q25 31 25 78q0 35 -13 72
q-16 41 -41 86l-43 75l-41 -75q-33 -60 -39 -86q-10 -38 -10 -72z" />
    <glyph glyph-name="uni026A" unicode="&#x26a;" horiz-adv-x="475" 
d="M162 0v1044h151v-1044h-151z" />
    <glyph glyph-name="uni0272" unicode="&#x272;" horiz-adv-x="1167" 
d="M-59 -420v137h53q82 0 127 54q41 56 41 149v1124h147v-151q56 87 144 133q86 45 190 45q121 0 203 -55q80 -53 127 -150q43 -93 43 -221v-645h-152v614q0 151 -63 232q-66 84 -193 84q-75 0 -143 -35q-70 -39 -109 -104q-43 -70 -43 -170v-713q0 -158 -75 -242
q-77 -86 -222 -86h-75z" />
    <glyph glyph-name="uni0275" unicode="&#x275;" horiz-adv-x="1177" 
d="M588 -29q-147 0 -256 72q-113 70 -174 195q-64 122 -64 284t64 287q61 122 174 192q110 70 256 70q145 0 258 -70q111 -69 176 -192q61 -125 61 -287t-61 -284q-65 -126 -176 -195q-112 -72 -258 -72zM588 932q-138 0 -230 -92q-92 -95 -110 -250h680q-18 154 -111 250
q-92 92 -229 92zM588 113q137 0 231 94t109 250h-680q15 -158 110 -250q91 -94 230 -94z" />
    <glyph glyph-name="uni0283" unicode="&#x283;" horiz-adv-x="540" 
d="M549 1485v-135h-47q-95 0 -142 -56t-47 -153v-1225q0 -162 -82 -250q-83 -86 -237 -86h-70v135h49q92 0 142 56q47 56 47 153v1225q0 162 82 250q83 86 237 86h68z" />
    <glyph glyph-name="uni028A" unicode="&#x28a;" horiz-adv-x="1171" 
d="M586 109q125 0 188 75q64 73 64 217v363q0 278 254 278h38v-131h-18q-123 0 -123 -155v-355q0 -206 -108 -317q-107 -113 -295 -113t-295 113q-109 112 -109 317v355q0 155 -123 155h-18v131h39q254 0 254 -278v-363q0 -143 65 -217q63 -75 187 -75z" />
    <glyph glyph-name="uni02BB" unicode="&#x2bb;" horiz-adv-x="1165" 
d="M565 971q-59 0 -92 39q-35 41 -35 100q0 76 35 166q32 81 115 207h139q-65 -96 -106 -172q-32 -59 -48 -123q50 -3 80 -33q29 -32 29 -74q0 -39 -31 -75q-35 -35 -86 -35z" />
    <glyph glyph-name="circumflex" unicode="&#x2c6;" horiz-adv-x="1165" 
d="M254 1196l244 315h172l243 -315h-155l-174 213l-174 -213h-156z" />
    <glyph glyph-name="caron" unicode="&#x2c7;" horiz-adv-x="1165" 
d="M498 1196l-244 315h156l174 -213l174 213h155l-243 -315h-172z" />
    <glyph glyph-name="uni02C9" unicode="&#x2c9;" horiz-adv-x="1165" 
d="M283 1423h602v-131h-602v131z" />
    <glyph glyph-name="uni02CA" unicode="&#x2ca;" horiz-adv-x="1165" 
d="M571 1196h-149l153 315h168z" />
    <glyph glyph-name="uni02CB" unicode="&#x2cb;" horiz-adv-x="1165" 
d="M594 1196l-172 315h168l153 -315h-149z" />
    <glyph glyph-name="breve" unicode="&#x2d8;" horiz-adv-x="1165" 
d="M584 1192q-134 0 -224 84q-91 82 -100 229h141q9 -90 58 -139q45 -51 125 -51q79 0 127 51q46 49 55 139h141q-9 -146 -98 -229q-93 -84 -225 -84z" />
    <glyph glyph-name="dotaccent" unicode="&#x2d9;" horiz-adv-x="1165" 
d="M584 1239q-45 0 -80 35q-33 33 -33 78q0 47 33 80q32 32 80 32t80 -32t32 -80q0 -46 -32 -78q-35 -35 -80 -35z" />
    <glyph glyph-name="ring" unicode="&#x2da;" horiz-adv-x="1165" 
d="M584 1163q-73 0 -123 33q-56 37 -84 86q-33 50 -33 117t33 117q28 49 84 86q49 32 123 32t123 -32q52 -34 86 -86q30 -52 30 -117t-30 -117q-34 -52 -86 -86q-50 -33 -123 -33zM584 1274q53 0 90 37q35 35 35 88q0 52 -35 90q-38 35 -90 35q-53 0 -88 -35
q-37 -37 -37 -90q0 -54 37 -88q34 -37 88 -37z" />
    <glyph glyph-name="ogonek" unicode="&#x2db;" horiz-adv-x="1165" 
d="M639 -483q-118 0 -188 61t-70 156q0 188 252 311l74 -45q-105 -63 -148 -125q-41 -59 -41 -117q0 -57 41 -92q39 -33 107 -33h65v-116h-92z" />
    <glyph glyph-name="tilde" unicode="&#x2dc;" horiz-adv-x="1165" 
d="M735 1202q-35 0 -84 17q-38 13 -98 57q-43 32 -64 41q-27 10 -45 10q-71 0 -71 -76v-45h-123v64q0 86 51 137q48 51 129 51q40 0 86 -16q35 -12 98 -58q44 -33 66 -41q23 -10 43 -10q72 0 72 76v45h123v-63q0 -83 -50 -136q-53 -53 -133 -53z" />
    <glyph glyph-name="hungarumlaut" unicode="&#x2dd;" horiz-adv-x="1165" 
d="M584 1196l174 315h162l-193 -315h-143zM270 1196l154 315h160l-170 -315h-144z" />
    <glyph glyph-name="gravecomb" unicode="&#x300;" horiz-adv-x="0" 
d="M-63 1196l-173 315h168l154 -315h-149z" />
    <glyph glyph-name="acutecomb" unicode="&#x301;" horiz-adv-x="0" 
d="M63 1196h-149l154 315h168z" />
    <glyph glyph-name="uni0302" unicode="&#x302;" horiz-adv-x="0" 
d="M-330 1196l244 315h172l244 -315h-156l-174 213l-174 -213h-156z" />
    <glyph glyph-name="tildecomb" unicode="&#x303;" horiz-adv-x="0" 
d="M152 1202q-35 0 -84 17q-40 14 -99 57q-45 34 -65 41q-23 10 -43 10q-72 0 -72 -76v-45h-123v64q0 85 49 137q51 51 131 51q40 0 86 -16q37 -13 99 -58q45 -34 65 -41q23 -10 43 -10q72 0 72 76v45h123v-63q0 -84 -49 -136q-53 -53 -133 -53z" />
    <glyph glyph-name="uni0304" unicode="&#x304;" horiz-adv-x="0" 
d="M-301 1423h602v-131h-602v131z" />
    <glyph glyph-name="uni0306" unicode="&#x306;" horiz-adv-x="0" 
d="M0 1192q-132 0 -225 84q-90 84 -99 229h142q9 -90 55 -139q48 -51 127 -51t127 51q46 49 55 139h142q-9 -145 -99 -229q-93 -84 -225 -84z" />
    <glyph glyph-name="uni0307" unicode="&#x307;" horiz-adv-x="0" 
d="M0 1239q-45 0 -80 35q-33 33 -33 78q0 47 33 80q32 32 80 32t80 -32q33 -33 33 -80q0 -45 -33 -78q-35 -35 -80 -35z" />
    <glyph glyph-name="uni0308" unicode="&#x308;" horiz-adv-x="0" 
d="M186 1243q-44 0 -75 31t-31 76q0 44 31 75t75 31q45 0 76 -31t31 -75q0 -45 -31 -76t-76 -31zM-186 1243q-45 0 -76 31t-31 76q0 44 31 75t76 31q44 0 75 -31t31 -75q0 -45 -31 -76t-75 -31z" />
    <glyph glyph-name="hookabovecomb" unicode="&#x309;" horiz-adv-x="0" 
d="M-109 1163l-30 107l86 24q57 18 104 43q37 21 37 62q0 74 -115 74h-172v114h181q114 0 176 -47q61 -49 61 -137q0 -90 -63 -135q-58 -42 -174 -78z" />
    <glyph glyph-name="uni030A" unicode="&#x30a;" horiz-adv-x="0" 
d="M0 1163q-73 0 -123 33q-52 34 -86 86q-31 54 -31 117t31 117q34 52 86 86q49 32 123 32t123 -32q52 -34 86 -86q31 -54 31 -117t-31 -117q-34 -52 -86 -86q-50 -33 -123 -33zM0 1274q53 0 90 37q35 35 35 88q0 52 -35 90q-38 35 -90 35t-90 -35q-35 -38 -35 -90
q0 -53 35 -88q37 -37 90 -37z" />
    <glyph glyph-name="uni030B" unicode="&#x30b;" horiz-adv-x="0" 
d="M86 1196l174 315h162l-193 -315h-143zM-227 1196l153 315h160l-170 -315h-143z" />
    <glyph glyph-name="uni030C" unicode="&#x30c;" horiz-adv-x="0" 
d="M-86 1196l-244 315h156l174 -213l174 213h156l-244 -315h-172z" />
    <glyph glyph-name="uni0312" unicode="&#x312;" horiz-adv-x="0" 
d="M4 1165q-56 0 -90 37q-31 36 -31 88q0 64 27 137q26 68 96 166h125q-47 -67 -76 -120q-23 -42 -47 -109q54 -3 80 -29q27 -27 27 -67q0 -43 -29 -72q-31 -31 -82 -31z" />
    <glyph glyph-name="uni0315" unicode="&#x315;" horiz-adv-x="0" 
d="M-8 1030l14 455h152l-45 -455h-121z" />
    <glyph glyph-name="uni031B" unicode="&#x31b;" horiz-adv-x="0" 
d="M-195 1044q156 0 156 175v67h137v-78q0 -139 -71 -213q-70 -73 -209 -73h-94v122h81z" />
    <glyph glyph-name="dotbelowcomb" unicode="&#x323;" horiz-adv-x="0" 
d="M0 -369q-47 0 -80 33t-33 80t33 80t80 33t80 -33t33 -80t-33 -80t-80 -33z" />
    <glyph glyph-name="uni0326" unicode="&#x326;" horiz-adv-x="0" 
d="M-119 -514q49 74 68 111q28 58 41 98q-52 3 -78 29q-27 27 -27 67q0 43 29 72q31 31 82 31q56 0 90 -37q31 -36 31 -88q0 -58 -25 -125t-86 -158h-125z" />
    <glyph glyph-name="uni0327" unicode="&#x327;" horiz-adv-x="0" 
d="M-160 -483v110h94q60 0 97 21t37 61q0 80 -119 80h-82l88 260h115l-60 -158q86 -3 137 -51q54 -51 54 -133q0 -87 -64 -139q-63 -51 -174 -51h-123z" />
    <glyph glyph-name="uni0328" unicode="&#x328;" horiz-adv-x="0" 
d="M10 -483q-118 0 -188 61t-70 156q0 188 252 311l74 -45q-105 -63 -148 -125q-41 -59 -41 -117q0 -57 41 -92q39 -33 107 -33h65v-116h-92z" />
    <glyph glyph-name="uni0329" unicode="&#x329;" horiz-adv-x="0" 
d="M-74 -506v389h144v-389h-144z" />
    <glyph glyph-name="uni0338" unicode="&#x338;" horiz-adv-x="0" 
d="M-416 -297l729 1974h101l-729 -1974h-101z" />
    <glyph glyph-name="uni0344" unicode="&#x344;" horiz-adv-x="0" 
d="M-70 1559l156 339h152l-170 -339h-138zM-188 1243q-45 0 -76 31q-29 32 -29 76q0 41 29 73q31 31 76 31q44 0 75 -31t31 -73q0 -45 -31 -76t-75 -31zM188 1243q-44 0 -75 31t-31 76q0 42 31 73t75 31q45 0 76 -31q29 -32 29 -73q0 -44 -29 -76q-31 -31 -76 -31z" />
    <glyph glyph-name="uni0374" unicode="&#x374;" horiz-adv-x="495" 
d="M86 922l180 503h146l-201 -503h-125z" />
    <glyph glyph-name="uni0375" unicode="&#x375;" horiz-adv-x="495" 
d="M86 -483l180 483h146l-201 -483h-125z" />
    <glyph glyph-name="uni037E" unicode="&#x37e;" horiz-adv-x="548" 
d="M70 -348q76 108 125 194q42 80 57 146q-48 3 -78 33q-29 29 -29 71q0 45 33 78q29 33 86 33q58 0 92 -37q35 -38 35 -100q0 -90 -45 -189q-48 -105 -135 -229h-141zM274 831q-51 0 -86 35q-34 34 -34 86t34 86q35 35 86 35t86 -35t35 -86t-35 -86t-86 -35z" />
    <glyph glyph-name="tonos" unicode="&#x384;" horiz-adv-x="1167" 
d="M428 1196l158 340h155l-168 -340h-145z" />
    <glyph glyph-name="dieresistonos" unicode="&#x385;" horiz-adv-x="1167" 
d="M514 1559l156 339h151l-170 -339h-137zM395 1243q-45 0 -73 31q-31 31 -31 76q0 42 31 73q28 31 73 31t76 -31t31 -73q0 -45 -31 -76t-76 -31zM772 1243q-45 0 -76 31q-30 30 -30 76q0 43 30 73q31 31 76 31t76 -31q29 -32 29 -73q0 -44 -29 -76q-31 -31 -76 -31z" />
    <glyph glyph-name="Alphatonos" unicode="&#x386;" horiz-adv-x="1386" 
d="M1174 0l-162 408h-656l-159 -408h-166l575 1425h162l578 -1425h-172zM414 553h540l-270 684zM47 1085l135 340h154l-152 -340h-137z" />
    <glyph glyph-name="anoteleia" unicode="&#x387;" horiz-adv-x="548" 
d="M274 831q-51 0 -86 35q-34 34 -34 86t34 86q35 35 86 35t86 -35t35 -86t-35 -86t-86 -35z" />
    <glyph glyph-name="Epsilontonos" unicode="&#x388;" horiz-adv-x="1619" 
d="M500 0v1425h975v-145h-813v-473h790v-145h-790v-517h823v-145h-985zM31 1085l135 340h153l-151 -340h-137z" />
    <glyph glyph-name="Etatonos" unicode="&#x389;" horiz-adv-x="1878" 
d="M500 0v1425h162v-604h862v604h162v-1425h-162v676h-862v-676h-162zM31 1085l135 340h153l-151 -340h-137z" />
    <glyph glyph-name="Iotatonos" unicode="&#x38a;" horiz-adv-x="854" 
d="M662 0h-162v1425h162v-1425zM31 1085l135 340h153l-151 -340h-137z" />
    <glyph glyph-name="Omicrontonos" unicode="&#x38c;" horiz-adv-x="1839" 
d="M1034 -31q-153 0 -280 56q-132 58 -222 155q-92 99 -145 236q-51 131 -51 297t51 297q53 135 145 235q91 98 222 156q125 55 280 55q156 0 281 -55q129 -57 221 -156q92 -100 145 -235q52 -134 52 -297t-52 -297q-53 -137 -145 -236q-90 -97 -221 -155q-127 -56 -281 -56
zM1034 119q153 0 275 78q120 76 190 211q68 133 68 305q0 173 -68 309q-71 133 -190 209t-275 76q-155 0 -274 -76q-122 -78 -189 -209q-69 -132 -69 -309q0 -176 69 -305q66 -133 189 -211q122 -78 274 -78zM31 1085l135 340h153l-151 -340h-137z" />
    <glyph glyph-name="Upsilontonos" unicode="&#x38e;" horiz-adv-x="1714" 
d="M985 0v557l-536 868h188l432 -714l428 714h182l-532 -864v-561h-162zM31 1085l135 340h153l-151 -340h-137z" />
    <glyph glyph-name="Omegatonos" unicode="&#x38f;" horiz-adv-x="1847" 
d="M348 0v145h303q-142 103 -227 265q-86 164 -86 350q0 152 51 274q54 129 143 221q91 94 220 148q127 53 278 53q152 0 279 -53t219 -148q89 -92 143 -221q51 -122 51 -274q0 -186 -86 -350q-85 -162 -227 -265h303v-145h-532v137q108 57 196 154q84 93 133 209
q47 118 47 245q0 160 -67 285q-69 128 -186 203q-121 74 -273 74q-151 0 -272 -74q-119 -76 -187 -203q-67 -125 -67 -285q0 -129 49 -245q46 -116 133 -209q83 -95 195 -154v-137h-533zM31 1085l135 340h153l-151 -340h-137z" />
    <glyph glyph-name="iotadieresistonos" unicode="&#x390;" horiz-adv-x="581" 
d="M152 309v735h151v-727q0 -90 43 -139t129 -49h66v-137h-90q-148 0 -224 82q-75 78 -75 235zM160 1559l155 339h152l-170 -339h-137zM41 1243q-45 0 -76 31q-28 31 -28 76q0 42 28 73q31 31 76 31t76 -31q30 -30 30 -73q0 -46 -30 -76q-31 -31 -76 -31zM418 1243
q-45 0 -76 31t-31 76q0 42 31 73t76 31t76 -31q28 -31 28 -73q0 -45 -28 -76q-31 -31 -76 -31z" />
    <glyph glyph-name="Alpha" unicode="&#x391;" horiz-adv-x="1396" 
d="M1184 0l-162 408h-655l-160 -408h-166l575 1425h162l578 -1425h-172zM424 553h541l-271 684z" />
    <glyph glyph-name="Beta" unicode="&#x392;" horiz-adv-x="1411" 
d="M193 0v1425h565q239 0 364 -98q125 -101 125 -274q0 -113 -63 -191q-64 -79 -176 -119q149 -41 219 -129q71 -89 71 -217q0 -181 -131 -288q-133 -109 -381 -109h-593zM741 1280h-387v-473h387q164 0 250 63q90 63 90 174q0 112 -84 175q-85 61 -256 61zM774 662h-420
v-517h420q179 0 268 68q91 66 91 193q0 116 -93 188q-92 68 -266 68z" />
    <glyph glyph-name="Gamma" unicode="&#x393;" horiz-adv-x="1202" 
d="M193 0v1425h925v-145h-764v-1280h-161z" />
    <glyph glyph-name="uni0394" unicode="&#x394;" horiz-adv-x="1443" 
d="M805 1425l557 -1284v-141h-1278v141l555 1284h166zM250 145h938l-469 1102z" />
    <glyph glyph-name="Epsilon" unicode="&#x395;" horiz-adv-x="1312" 
d="M193 0v1425h974v-145h-813v-473h791v-145h-791v-517h824v-145h-985z" />
    <glyph glyph-name="Zeta" unicode="&#x396;" horiz-adv-x="1263" 
d="M92 1425h1067v-139l-870 -1141h885v-145h-1082v139l871 1141h-871v145z" />
    <glyph glyph-name="Eta" unicode="&#x397;" horiz-adv-x="1570" 
d="M193 0v1425h161v-604h863v604h161v-1425h-161v676h-863v-676h-161z" />
    <glyph glyph-name="Theta" unicode="&#x398;" horiz-adv-x="1609" 
d="M805 -31q-154 0 -281 56q-131 58 -221 155q-92 99 -145 236q-52 134 -52 297t52 297q53 135 145 235q92 99 221 156q125 55 281 55q155 0 280 -55q131 -58 222 -156q92 -100 145 -235q51 -131 51 -297t-51 -297q-53 -137 -145 -236q-90 -97 -222 -155q-127 -56 -280 -56z
M805 119q152 0 274 78q121 77 191 211q67 131 67 305q0 175 -67 309q-71 132 -191 209q-119 76 -274 76q-156 0 -275 -76q-120 -77 -188 -209q-70 -134 -70 -309q0 -174 70 -305q67 -134 188 -211q122 -78 275 -78zM528 637v149h553v-149h-553z" />
    <glyph glyph-name="Iota" unicode="&#x399;" horiz-adv-x="546" 
d="M354 0h-161v1425h161v-1425z" />
    <glyph glyph-name="Kappa" unicode="&#x39a;" horiz-adv-x="1333" 
d="M193 0v1425h161v-624l705 624h213l-785 -688l820 -737h-226l-727 657v-657h-161z" />
    <glyph glyph-name="Lambda" unicode="&#x39b;" horiz-adv-x="1378" 
d="M1163 0l-475 1231l-477 -1231h-170l569 1425h162l565 -1425h-174z" />
    <glyph glyph-name="Mu" unicode="&#x39c;" horiz-adv-x="1812" 
d="M352 0h-159v1425h174l542 -870l539 870h172v-1425h-160v1174l-553 -895l-555 890v-1169z" />
    <glyph glyph-name="Nu" unicode="&#x39d;" horiz-adv-x="1564" 
d="M193 0v1425h159l860 -1169v1169h160v-1425h-160l-860 1169v-1169h-159z" />
    <glyph glyph-name="Xi" unicode="&#x39e;" horiz-adv-x="1247" 
d="M137 1280v145h973v-145h-973zM299 662v145h649v-145h-649zM123 0v145h1001v-145h-1001z" />
    <glyph glyph-name="Omicron" unicode="&#x39f;" horiz-adv-x="1609" 
d="M805 -31q-154 0 -281 56q-131 58 -221 155q-92 99 -145 236q-52 134 -52 297t52 297q53 135 145 235q92 99 221 156q125 55 281 55q155 0 280 -55q131 -58 222 -156q92 -100 145 -235q51 -131 51 -297t-51 -297q-53 -137 -145 -236q-90 -97 -222 -155q-127 -56 -280 -56z
M805 119q152 0 274 78q121 77 191 211q67 131 67 305q0 175 -67 309q-71 132 -191 209q-119 76 -274 76q-156 0 -275 -76q-120 -77 -188 -209q-70 -134 -70 -309q0 -174 70 -305q67 -134 188 -211q122 -78 275 -78z" />
    <glyph glyph-name="Pi" unicode="&#x3a0;" horiz-adv-x="1544" 
d="M193 0v1425h1159v-1425h-162v1280h-836v-1280h-161z" />
    <glyph glyph-name="Rho" unicode="&#x3a1;" horiz-adv-x="1345" 
d="M193 0v1425h507q277 0 418 -120q139 -124 139 -326q0 -205 -139 -326q-142 -121 -418 -121h-346v-532h-161zM354 678h328q206 0 309 80q101 76 101 221q0 144 -101 223q-104 78 -309 78h-328v-602z" />
    <glyph glyph-name="Sigma" unicode="&#x3a3;" horiz-adv-x="1222" 
d="M1133 145v-145h-1041v141l547 572l-547 571v141h1030v-145h-819l545 -567l-547 -568h832z" />
    <glyph glyph-name="Tau" unicode="&#x3a4;" horiz-adv-x="1366" 
d="M764 0h-162v1280h-518v145h1198v-145h-518v-1280z" />
    <glyph glyph-name="Upsilon" unicode="&#x3a5;" horiz-adv-x="1298" 
d="M569 0v557l-536 868h188l432 -714l428 714h183l-533 -864v-561h-162z" />
    <glyph glyph-name="Phi" unicode="&#x3a6;" horiz-adv-x="1650" 
d="M745 0v168q-195 9 -339 84q-153 78 -234 205q-84 128 -84 288q0 163 84 291q82 126 234 203q144 75 339 84v168h160v-168q195 -9 342 -84q150 -78 232 -203q84 -128 84 -291q0 -160 -84 -288q-81 -126 -232 -205q-147 -75 -342 -84v-168h-160zM1401 745q0 124 -64 218
q-63 93 -174 151q-113 58 -258 64v-865q145 6 258 64q109 57 174 153q64 94 64 215zM250 745q0 -123 63 -215q66 -96 176 -153q110 -58 256 -64v865q-146 -6 -256 -64q-112 -58 -176 -151q-63 -92 -63 -218z" />
    <glyph glyph-name="Chi" unicode="&#x3a7;" horiz-adv-x="1396" 
d="M43 0l551 743l-498 682h201l403 -563l404 563h192l-497 -680l551 -745h-201l-457 625l-456 -625h-193z" />
    <glyph glyph-name="Psi" unicode="&#x3a8;" horiz-adv-x="1574" 
d="M709 0v385q-285 21 -437 176q-155 152 -155 434v430h157v-430q0 -213 111 -327q113 -116 324 -131v888h157v-890q212 18 324 133q110 113 110 327v430h158v-430q0 -280 -153 -436q-156 -156 -439 -174v-385h-157z" />
    <glyph glyph-name="uni03A9" unicode="&#x3a9;" horiz-adv-x="1634" 
d="M135 0v145h303q-142 103 -227 265q-86 164 -86 350q0 152 51 274q54 129 143 221q91 94 220 148q127 53 278 53q152 0 279 -53t219 -148q89 -92 143 -221q51 -122 51 -274q0 -186 -86 -350q-85 -162 -227 -265h303v-145h-532v137q108 57 196 154q84 93 133 209
q47 118 47 245q0 160 -67 285q-69 128 -186 203q-121 74 -273 74q-151 0 -272 -74q-119 -76 -187 -203q-67 -125 -67 -285q0 -129 49 -245q46 -116 133 -209q83 -95 195 -154v-137h-533z" />
    <glyph glyph-name="Iotadieresis" unicode="&#x3aa;" horiz-adv-x="546" 
d="M354 0h-161v1425h161v-1425zM477 1624q-45 0 -76 31q-30 30 -30 76q0 45 30 75q31 31 76 31t76 -31t31 -75q0 -45 -31 -76t-76 -31zM68 1624q-45 0 -76 31t-31 76q0 44 31 75t76 31q44 0 75 -31t31 -75q0 -45 -31 -76t-75 -31z" />
    <glyph glyph-name="Upsilondieresis" unicode="&#x3ab;" horiz-adv-x="1298" 
d="M569 0v557l-536 868h188l432 -714l428 714h183l-533 -864v-561h-162zM852 1624q-45 0 -76 31t-31 76q0 44 31 75t76 31t76 -31q30 -30 30 -75q0 -46 -30 -76q-31 -31 -76 -31zM442 1624q-44 0 -75 31t-31 76q0 44 31 75t75 31q45 0 76 -31t31 -75q0 -45 -31 -76t-76 -31z
" />
    <glyph glyph-name="alphatonos" unicode="&#x3ac;" horiz-adv-x="1269" 
d="M539 -29q-133 0 -234 70q-99 66 -155 192q-56 124 -56 287q0 164 58 289q58 122 159 192t240 70q114 0 203 -57q93 -60 151 -166q2 18 9 55t8 43q10 61 20 98h150q-24 -123 -39 -253q-17 -153 -17 -254v-78q0 -125 13 -201q12 -72 45 -98q37 -29 96 -29h22v-139h-41
q-229 0 -264 207q-53 -108 -149 -168q-102 -60 -219 -60zM569 113q145 0 232 112q88 113 88 295q0 127 -39 215q-40 89 -113 144q-71 51 -168 51q-143 0 -231 -113q-90 -116 -90 -297q0 -179 90 -295q87 -112 231 -112zM535 1196l157 340h156l-168 -340h-145z" />
    <glyph glyph-name="epsilontonos" unicode="&#x3ad;" horiz-adv-x="1062" 
d="M530 -29q-191 0 -313 84q-119 82 -119 221q0 94 62 162q61 70 168 97q-101 28 -152 90q-55 61 -55 151q0 84 53 152q50 64 141 106q87 37 209 37q174 0 289 -74t156 -219h-158q-38 83 -106 119q-72 35 -177 35q-119 0 -184 -45q-70 -46 -70 -123q0 -75 68 -119
q62 -45 188 -45h211v-135h-206q-133 0 -207 -47q-76 -46 -76 -133q0 -82 78 -129q74 -45 205 -45q118 0 190 34q75 35 102 117h160q-43 -149 -160 -219q-115 -72 -297 -72zM461 1196l157 340h156l-168 -340h-145z" />
    <glyph glyph-name="etatonos" unicode="&#x3ae;" horiz-adv-x="1216" 
d="M913 -420v1034q0 151 -63 232q-66 84 -193 84q-75 0 -143 -35q-68 -38 -108 -104q-44 -71 -44 -170v-621h-151v754q0 153 -125 153h-20v137h40q194 0 228 -172q54 95 141 146q89 53 203 53q123 0 211 -55q84 -55 131 -150q45 -91 45 -221v-1065h-152zM541 1196l157 340
h156l-168 -340h-145z" />
    <glyph glyph-name="iotatonos" unicode="&#x3af;" horiz-adv-x="581" 
d="M152 309v735h151v-727q0 -90 43 -139t129 -49h66v-137h-90q-148 0 -224 82q-75 78 -75 235zM150 1196l157 340h156l-168 -340h-145z" />
    <glyph glyph-name="upsilondieresistonos" unicode="&#x3b0;" horiz-adv-x="1155" 
d="M618 -29q-210 0 -319 127q-111 126 -111 365v291q0 153 -122 153h-19v137h39q254 0 254 -290v-291q0 -177 68 -266q67 -88 210 -88q142 0 211 118q72 119 72 318q0 104 -29 252q-27 133 -73 247h155q49 -112 76 -243q25 -134 25 -254q0 -268 -115 -422
q-118 -154 -322 -154zM469 1559l156 339h151l-170 -339h-137zM350 1243q-46 0 -74 31q-30 30 -30 76q0 43 30 73q28 31 74 31q45 0 76 -31t31 -73q0 -45 -31 -76t-76 -31zM727 1243q-45 0 -76 31q-30 30 -30 76q0 43 30 73q31 31 76 31t76 -31q28 -31 28 -73q0 -45 -28 -76
q-31 -31 -76 -31z" />
    <glyph glyph-name="alpha" unicode="&#x3b1;" horiz-adv-x="1269" 
d="M539 -29q-133 0 -234 70q-99 66 -155 192q-56 124 -56 287q0 164 58 289q58 122 159 192t240 70q114 0 203 -57q93 -60 151 -166q2 18 9 55t8 43q10 61 20 98h150q-24 -123 -39 -253q-17 -153 -17 -254v-78q0 -125 13 -201q12 -72 45 -98q37 -29 96 -29h22v-139h-41
q-229 0 -264 207q-53 -108 -149 -168q-102 -60 -219 -60zM569 113q145 0 232 112q88 113 88 295q0 127 -39 215q-40 89 -113 144q-71 51 -168 51q-143 0 -231 -113q-90 -116 -90 -297q0 -179 90 -295q87 -112 231 -112z" />
    <glyph glyph-name="beta" unicode="&#x3b2;" horiz-adv-x="1175" 
d="M676 -29q-122 0 -213 49q-93 49 -150 140v-580h-151v1415q0 159 55 275q52 113 152 178q92 63 227 63q115 0 203 -49q85 -48 139 -135q51 -83 51 -197q0 -118 -65 -210q-69 -93 -170 -123q147 -30 237 -140q90 -113 90 -274q0 -120 -49 -211q-52 -94 -141 -147
q-94 -54 -215 -54zM313 487q0 -169 95 -272q92 -102 241 -102q126 0 203 80q76 76 76 204q0 155 -99 238q-101 84 -256 84h-84v135h80q113 0 191 78q76 76 76 188q0 114 -66 183q-64 67 -180 67q-126 0 -201 -96q-76 -98 -76 -270v-517z" />
    <glyph glyph-name="gamma" unicode="&#x3b3;" horiz-adv-x="1091" 
d="M623 0v-420h-152v420l-254 692q-42 109 -57 137q-26 50 -51 64t-66 14h-10v137h12q80 0 135 -22q46 -18 90 -82q32 -51 76 -170l215 -625q87 144 154 301q63 152 108 314q43 164 51 284h154q-8 -107 -45 -251q-34 -133 -88 -275q-54 -137 -123 -272q-74 -138 -149 -246z
" />
    <glyph glyph-name="delta" unicode="&#x3b4;" horiz-adv-x="1155" 
d="M578 -29q-147 0 -252 60q-113 59 -170 162q-62 106 -62 241q0 167 94 295q97 132 256 201q-105 58 -174 127q-63 63 -63 162q0 125 115 208q116 84 311 84q85 0 162 -12q74 -12 135 -43v-135q-113 49 -293 49q-137 0 -205 -39q-72 -41 -72 -112q0 -59 50 -97
q33 -29 143 -90l119 -61q183 -92 289 -223q100 -124 100 -306q0 -141 -62 -247q-59 -104 -170 -164q-105 -60 -251 -60zM248 442q0 -151 94 -239q93 -90 236 -90t237 94q92 95 92 246q0 130 -88 231q-90 100 -217 164l-43 22q-145 -62 -227 -172q-84 -113 -84 -256z" />
    <glyph glyph-name="epsilon" unicode="&#x3b5;" horiz-adv-x="1062" 
d="M530 -29q-191 0 -313 84q-119 82 -119 221q0 94 62 162q61 70 168 97q-101 28 -152 90q-55 61 -55 151q0 84 53 152q50 64 141 106q87 37 209 37q174 0 289 -74t156 -219h-158q-38 83 -106 119q-72 35 -177 35q-119 0 -184 -45q-70 -46 -70 -123q0 -75 68 -119
q62 -45 188 -45h211v-135h-206q-133 0 -207 -47q-76 -46 -76 -133q0 -82 78 -129q74 -45 205 -45q118 0 190 34q75 35 102 117h160q-43 -149 -160 -219q-115 -72 -297 -72z" />
    <glyph glyph-name="zeta" unicode="&#x3b6;" horiz-adv-x="882" 
d="M774 -317v81q0 112 -43 170q-44 60 -143 80l-103 21q-192 37 -290 135q-101 98 -101 283q0 207 144 428q148 226 440 467h-526v137h727v-121q-631 -520 -631 -899q0 -136 71 -201q73 -70 213 -96l101 -18q146 -27 213 -115q65 -89 65 -262v-90h-137z" />
    <glyph glyph-name="eta" unicode="&#x3b7;" horiz-adv-x="1216" 
d="M913 -420v1034q0 151 -63 232q-66 84 -193 84q-75 0 -143 -35q-68 -38 -108 -104q-44 -71 -44 -170v-621h-151v754q0 153 -125 153h-20v137h40q194 0 228 -172q54 95 141 146q89 53 203 53q123 0 211 -55q84 -55 131 -150q45 -91 45 -221v-1065h-152z" />
    <glyph glyph-name="theta" unicode="&#x3b8;" horiz-adv-x="1169" 
d="M586 -29q-229 0 -355 205q-127 207 -127 567q0 359 127 566q126 202 355 202t354 -204q127 -207 127 -566q0 -358 -127 -565q-126 -205 -354 -205zM586 1370q-147 0 -232 -143q-87 -141 -96 -410h655q-9 267 -94 410q-88 143 -233 143zM586 113q146 0 235 147
q86 148 92 420h-655q6 -274 94 -420q86 -147 234 -147z" />
    <glyph glyph-name="iota" unicode="&#x3b9;" horiz-adv-x="581" 
d="M152 309v735h151v-727q0 -90 43 -139t129 -49h66v-137h-90q-148 0 -224 82q-75 78 -75 235z" />
    <glyph glyph-name="kappa" unicode="&#x3ba;" horiz-adv-x="1085" 
d="M162 0v1044h151v-501l342 336q89 86 164 129q68 36 152 36h22v-137h-22q-103 0 -221 -112l-228 -222l539 -573h-193l-444 477l-111 -110v-367h-151z" />
    <glyph glyph-name="lambda" unicode="&#x3bb;" horiz-adv-x="1075" 
d="M57 0l379 1018l-53 137q-40 106 -90 150q-49 43 -121 43h-41v137h41q131 0 211 -68q77 -65 137 -219l361 -942q27 -70 63 -98q37 -29 80 -29h18v-137h-22q-108 0 -170 47q-59 45 -107 168l-235 624l-289 -831h-162z" />
    <glyph glyph-name="uni03BC" unicode="&#x3bc;" horiz-adv-x="1210" 
d="M162 -420v1464h151v-624q0 -137 72 -221t193 -84q116 0 198 82q80 80 80 223v624h152v-759q0 -156 125 -156h22v-137h-45q-187 0 -225 176q-41 -88 -117 -141q-77 -56 -188 -56q-96 0 -160 41q-72 41 -111 109v-541h-147z" />
    <glyph glyph-name="nu" unicode="&#x3bd;" horiz-adv-x="1085" 
d="M469 0l-252 692q-40 106 -57 139q-24 47 -51 62q-25 14 -66 14h-10v137h12q80 0 135 -22q46 -18 90 -82q32 -51 76 -170l215 -620q84 145 144 290q61 148 108 316q43 153 55 288h154q-9 -114 -43 -243q-34 -130 -88 -275q-55 -141 -123 -276q-67 -133 -145 -250h-154z
" />
    <glyph glyph-name="xi" unicode="&#x3be;" horiz-adv-x="921" 
d="M797 -317v81q0 111 -41 170q-44 59 -146 80l-102 21q-196 41 -301 133q-109 95 -109 260q0 140 86 246q85 102 222 129q-99 21 -164 104q-68 80 -68 187q0 85 47 153q49 67 129 101h-246v137h740v-137h-150q-168 0 -268 -62q-98 -64 -98 -182q0 -108 78 -174
q76 -64 208 -64h170v-137h-170q-166 0 -264 -76t-98 -209q0 -118 78 -184q78 -65 225 -92l100 -18q144 -27 211 -115q68 -89 68 -262v-90h-137z" />
    <glyph glyph-name="omicron" unicode="&#x3bf;" horiz-adv-x="1159" 
d="M580 -29q-146 0 -252 72q-111 71 -172 195q-62 124 -62 284t62 287q61 121 172 192q107 70 252 70q144 0 254 -70q110 -72 170 -192q61 -125 61 -289q0 -162 -61 -284q-60 -123 -170 -195q-110 -70 -254 -70zM580 113q100 0 174 53q71 51 116 145q41 93 41 211t-41 211
q-45 96 -116 146q-71 51 -174 51t-174 -51q-74 -53 -115 -146q-43 -93 -43 -213q0 -121 43 -211q39 -89 115 -143q74 -53 174 -53z" />
    <glyph glyph-name="pi" unicode="&#x3c0;" horiz-adv-x="1245" 
d="M242 0v907h-199v137h1131v-137h-201v-590q0 -188 166 -188h14v-137h-39q-293 0 -293 317v598h-428v-907h-151z" />
    <glyph glyph-name="rho" unicode="&#x3c1;" horiz-adv-x="1198" 
d="M145 -420v903q0 277 131 432q129 156 347 156q144 0 251 -70t168 -192q62 -127 62 -287q0 -163 -57 -286t-164 -195q-104 -70 -240 -70q-118 0 -207 60q-92 57 -139 149v-600h-152zM625 115q148 0 235 112q90 113 90 295q0 181 -90 297q-88 111 -235 111t-236 -111
q-90 -116 -90 -297q0 -182 90 -295q87 -112 236 -112z" />
    <glyph glyph-name="uni03C2" unicode="&#x3c2;" horiz-adv-x="1073" 
d="M823 -317v81q0 114 -41 173t-133 77l-102 21q-215 40 -334 174q-119 131 -119 338q0 147 60 270q57 118 168 187q107 67 251 67q164 0 279 -92t139 -242h-160q-15 84 -83 140q-70 55 -173 55q-99 0 -172 -49t-114 -135q-41 -90 -41 -199q0 -159 92 -254q91 -97 254 -127
l100 -18q136 -24 201 -113q66 -94 66 -264v-90h-138z" />
    <glyph glyph-name="sigma" unicode="&#x3c3;" horiz-adv-x="1222" 
d="M575 -27q-140 0 -251 66q-110 66 -168 184q-62 118 -62 275q0 171 70 293q68 125 192 188q127 65 293 65h516v-137h-309q105 -80 158 -192q49 -110 49 -226q0 -150 -59 -268q-62 -117 -170 -182q-111 -66 -259 -66zM580 115q98 0 174 49q74 50 114 137q41 87 41 201
q0 126 -55 233q-59 106 -162 172h-51q-177 0 -283 -106q-110 -107 -110 -301q0 -116 43 -201q41 -85 117 -135q73 -49 172 -49z" />
    <glyph glyph-name="tau" unicode="&#x3c4;" horiz-adv-x="958" 
d="M647 -8q-149 0 -225 82q-76 79 -76 235v598h-307v137h852v-137h-393v-590q0 -91 45 -139q43 -49 127 -49h102v-137h-125z" />
    <glyph glyph-name="upsilon" unicode="&#x3c5;" horiz-adv-x="1155" 
d="M618 -29q-210 0 -319 127q-111 126 -111 365v291q0 153 -122 153h-19v137h39q254 0 254 -290v-291q0 -177 68 -266q67 -88 210 -88q142 0 211 118q72 119 72 318q0 104 -29 252q-27 133 -73 247h155q49 -112 76 -243q25 -134 25 -254q0 -268 -115 -422
q-118 -154 -322 -154z" />
    <glyph glyph-name="phi" unicode="&#x3c6;" horiz-adv-x="1511" 
d="M680 -420v420q-176 9 -307 76q-134 67 -211 182q-76 113 -76 264t76 264q78 117 211 183q129 66 307 75v299q44 4 76 11q41 9 75 20v-330q178 -9 310 -75q131 -67 209 -183q75 -112 75 -264t-75 -264q-77 -114 -209 -182q-134 -67 -310 -76v-420h-151zM1272 522
q0 112 -55 197q-60 85 -156 133q-99 48 -230 57v-774q129 6 230 58q96 48 156 133q55 82 55 196zM240 522q0 -116 57 -196q57 -85 156 -133q98 -52 227 -58v774q-131 -9 -227 -57q-99 -48 -156 -133q-57 -83 -57 -197z" />
    <glyph glyph-name="chi" unicode="&#x3c7;" horiz-adv-x="1024" 
d="M43 -420l381 739l-205 418q-51 98 -76 131q-33 39 -80 39h-28v137h26q69 0 121 -22q42 -19 86 -76q32 -42 82 -143l164 -338l297 579h158l-373 -722l217 -437q49 -99 82 -137q33 -39 76 -39h28v-137h-30q-67 0 -111 18q-41 19 -84 74q-31 41 -90 158l-174 350l-309 -592
h-158z" />
    <glyph glyph-name="psi" unicode="&#x3c8;" horiz-adv-x="1478" 
d="M672 -420v393q-262 21 -406 174q-147 150 -147 406v491h151v-491q0 -191 105 -305q104 -113 297 -131v1226q43 3 78 11q42 10 73 20v-1257q195 15 299 131q103 115 103 334q0 92 -19 225q-19 130 -51 237h154q36 -116 53 -235q16 -134 16 -223q0 -277 -145 -434
q-149 -158 -410 -179v-393h-151z" />
    <glyph glyph-name="omega" unicode="&#x3c9;" horiz-adv-x="1593" 
d="M483 -29q-179 0 -282 148q-103 145 -103 395q0 154 39 281q41 132 115 249h158q-158 -267 -158 -532q0 -184 67 -291q65 -108 185 -108q104 0 162 94q57 89 57 258v287h147v-287q0 -167 58 -258q58 -94 162 -94q118 0 186 108q65 109 65 291q0 266 -157 532h157
q74 -117 115 -249q39 -127 39 -281q0 -251 -102 -395q-103 -148 -283 -148q-121 0 -203 70q-84 68 -110 180q-27 -113 -109 -180q-82 -70 -205 -70z" />
    <glyph glyph-name="iotadieresis" unicode="&#x3ca;" horiz-adv-x="581" 
d="M152 309v735h151v-727q0 -90 43 -139t129 -49h66v-137h-90q-148 0 -224 82q-75 78 -75 235zM416 1243q-45 0 -76 31t-31 76q0 44 31 75t76 31t76 -31q30 -30 30 -75q0 -46 -30 -76q-31 -31 -76 -31zM43 1243q-45 0 -76 31q-30 30 -30 76q0 45 30 75q31 31 76 31t76 -31
t31 -75q0 -45 -31 -76t-76 -31z" />
    <glyph glyph-name="upsilondieresis" unicode="&#x3cb;" horiz-adv-x="1155" 
d="M618 -29q-210 0 -319 127q-111 126 -111 365v291q0 153 -122 153h-19v137h39q254 0 254 -290v-291q0 -177 68 -266q67 -88 210 -88q142 0 211 118q72 119 72 318q0 104 -29 252q-27 133 -73 247h155q49 -112 76 -243q25 -134 25 -254q0 -268 -115 -422
q-118 -154 -322 -154zM725 1243q-45 0 -76 31t-31 76q0 44 31 75t76 31t76 -31q30 -30 30 -75q0 -46 -30 -76q-31 -31 -76 -31zM352 1243q-45 0 -76 31q-30 30 -30 76q0 45 30 75q31 31 76 31t76 -31t31 -75q0 -45 -31 -76t-76 -31z" />
    <glyph glyph-name="omicrontonos" unicode="&#x3cc;" horiz-adv-x="1159" 
d="M580 -29q-146 0 -252 72q-111 71 -172 195q-62 124 -62 284t62 287q61 121 172 192q107 70 252 70q144 0 254 -70q110 -72 170 -192q61 -125 61 -289q0 -162 -61 -284q-60 -123 -170 -195q-110 -70 -254 -70zM580 113q100 0 174 53q71 51 116 145q41 93 41 211t-41 211
q-45 96 -116 146q-71 51 -174 51t-174 -51q-74 -53 -115 -146q-43 -93 -43 -213q0 -121 43 -211q39 -89 115 -143q74 -53 174 -53zM500 1196l157 340h156l-168 -340h-145z" />
    <glyph glyph-name="upsilontonos" unicode="&#x3cd;" horiz-adv-x="1155" 
d="M618 -29q-210 0 -319 127q-111 126 -111 365v291q0 153 -122 153h-19v137h39q254 0 254 -290v-291q0 -177 68 -266q67 -88 210 -88q142 0 211 118q72 119 72 318q0 104 -29 252q-27 133 -73 247h155q49 -112 76 -243q25 -134 25 -254q0 -268 -115 -422
q-118 -154 -322 -154zM459 1196l157 340h156l-168 -340h-145z" />
    <glyph glyph-name="omegatonos" unicode="&#x3ce;" horiz-adv-x="1593" 
d="M483 -29q-179 0 -282 148q-103 145 -103 395q0 154 39 281q41 132 115 249h158q-158 -267 -158 -532q0 -184 67 -291q65 -108 185 -108q104 0 162 94q57 89 57 258v287h147v-287q0 -167 58 -258q58 -94 162 -94q118 0 186 108q65 109 65 291q0 266 -157 532h157
q74 -117 115 -249q39 -127 39 -281q0 -251 -102 -395q-103 -148 -283 -148q-121 0 -203 70q-84 68 -110 180q-27 -113 -109 -180q-82 -70 -205 -70zM717 1196l157 340h156l-168 -340h-145z" />
    <glyph glyph-name="uni0400" unicode="&#x400;" horiz-adv-x="1312" 
d="M193 0v1425h974v-145h-813v-473h791v-145h-791v-517h824v-145h-985zM614 1579l-194 299h170l178 -299h-154z" />
    <glyph glyph-name="uni0401" unicode="&#x401;" horiz-adv-x="1312" 
d="M193 0v1425h974v-145h-813v-473h791v-145h-791v-517h824v-145h-985zM885 1624q-45 0 -76 31t-31 76q0 44 31 75t76 31t76 -31q30 -30 30 -75q0 -46 -30 -76q-31 -31 -76 -31zM475 1624q-45 0 -76 31q-30 30 -30 76q0 45 30 75q31 31 76 31t76 -31t31 -75q0 -45 -31 -76
t-76 -31z" />
    <glyph glyph-name="uni0402" unicode="&#x402;" horiz-adv-x="1667" 
d="M487 0v1280h-403v145h1063v-145h-498v-473q87 49 193 76q101 26 211 26q157 0 274 -57q118 -59 182 -160t64 -241q0 -138 -66 -242q-67 -104 -186 -162q-117 -57 -283 -57h-49v141h49q165 0 269 88q102 89 102 232q0 144 -100 225q-104 84 -269 84q-115 0 -215 -33
q-112 -37 -176 -90v-637h-162z" />
    <glyph glyph-name="uni0403" unicode="&#x403;" horiz-adv-x="1202" 
d="M193 0v1425h925v-145h-764v-1280h-161zM727 1579h-154l179 299h170z" />
    <glyph glyph-name="uni0404" unicode="&#x404;" horiz-adv-x="1458" 
d="M768 -31q-195 0 -344 94q-153 96 -234 263q-84 170 -84 387q0 216 84 389q81 164 234 260q149 94 344 94q234 0 387 -117q150 -120 209 -338h-172q-42 148 -150 226q-115 80 -276 80q-137 0 -244 -64q-105 -63 -170 -178t-80 -270h748v-146h-750q12 -159 76 -278
q67 -124 172 -187q109 -65 248 -65q162 0 278 78q113 76 148 215h172q-53 -212 -209 -326q-156 -117 -387 -117z" />
    <glyph glyph-name="uni0405" unicode="&#x405;" horiz-adv-x="1298" 
d="M664 -31q-222 0 -375 105q-156 102 -203 291h168q35 -117 143 -181q109 -65 265 -65q101 0 186 31q78 26 131 88q49 58 49 141q0 71 -27 123q-26 51 -98 86q-69 34 -203 55l-174 27q-206 35 -305 123q-100 87 -100 256q0 125 69 215q70 91 189 143q116 49 264 49
q130 0 242 -41q106 -39 186 -125q75 -81 103 -213h-168q-27 121 -125 176q-102 54 -238 54q-156 0 -256 -68q-100 -66 -100 -184q0 -65 28 -113q26 -45 99 -76q75 -32 194 -49l162 -24q220 -35 322 -134t102 -272q0 -131 -68 -223q-71 -95 -190 -144q-117 -51 -272 -51z" />
    <glyph glyph-name="uni0406" unicode="&#x406;" horiz-adv-x="546" 
d="M354 0h-161v1425h161v-1425z" />
    <glyph glyph-name="uni0407" unicode="&#x407;" horiz-adv-x="546" 
d="M354 0h-161v1425h161v-1425zM477 1624q-45 0 -76 31q-30 30 -30 76q0 45 30 75q31 31 76 31t76 -31t31 -75q0 -45 -31 -76t-76 -31zM68 1624q-45 0 -76 31t-31 76q0 44 31 75t76 31q44 0 75 -31t31 -75q0 -45 -31 -76t-75 -31z" />
    <glyph glyph-name="uni0408" unicode="&#x408;" horiz-adv-x="1232" 
d="M899 438v987h162v-989q0 -137 -57 -239q-58 -108 -166 -166q-109 -62 -258 -62q-216 0 -355 121q-137 119 -164 318h164q18 -133 115 -211q96 -78 240 -78q141 0 231 90q88 88 88 229z" />
    <glyph glyph-name="uni0409" unicode="&#x409;" horiz-adv-x="2306" 
d="M59 -10v143h35q118 0 189 111q67 107 67 297v884h996v-579h358q241 0 379 -111q135 -114 135 -311q0 -200 -135 -311q-137 -113 -379 -113h-520v1282h-680v-741q0 -255 -105 -402q-104 -149 -282 -149h-58zM1694 700h-348v-555h348q171 0 266 74q94 70 94 205
q0 132 -94 205q-95 71 -266 71z" />
    <glyph glyph-name="uni040A" unicode="&#x40a;" horiz-adv-x="2308" 
d="M193 0v1425h161v-585h828v585h161v-585h365q242 0 377 -111t135 -309t-135 -309t-377 -111h-526v694h-828v-694h-161zM1696 694h-353v-549h353q169 0 266 72q94 70 94 203t-94 203q-95 71 -266 71z" />
    <glyph glyph-name="uni040B" unicode="&#x40b;" horiz-adv-x="1708" 
d="M487 0v1280h-403v145h1063v-145h-498v-475q162 104 393 104q264 0 402 -141q139 -145 139 -414v-354h-162v344q0 416 -401 416q-111 0 -209 -31q-94 -28 -162 -84v-645h-162z" />
    <glyph glyph-name="uni040C" unicode="&#x40c;" horiz-adv-x="1370" 
d="M193 0v1425h159v-622h305l488 622h186l-551 -700l563 -725h-194l-510 657h-287v-657h-159zM786 1579h-153l178 299h170z" />
    <glyph glyph-name="uni040D" unicode="&#x40d;" horiz-adv-x="1597" 
d="M193 0v1425h161v-1175l903 1175h148v-1425h-160v1176l-905 -1176h-147zM735 1579l-194 299h170l178 -299h-154z" />
    <glyph glyph-name="uni040E" unicode="&#x40e;" horiz-adv-x="1374" 
d="M270 -8v145h74q103 0 174 41q69 42 121 139l-606 1108h182l508 -933l438 933h178l-553 -1140q-78 -162 -176 -226q-101 -67 -264 -67h-76zM682 1573q-158 0 -248 84q-91 85 -100 225h139q9 -86 66 -137q51 -51 143 -51q91 0 145 51q55 52 64 137h141q-12 -141 -102 -225
t-248 -84z" />
    <glyph glyph-name="uni040F" unicode="&#x40f;" horiz-adv-x="1533" 
d="M193 0v1425h161v-1280h826v1280h161v-1425h-495v-338h-156v338h-497z" />
    <glyph glyph-name="uni0410" unicode="&#x410;" horiz-adv-x="1396" 
d="M1184 0l-162 408h-655l-160 -408h-166l575 1425h162l578 -1425h-172zM424 553h541l-271 684z" />
    <glyph glyph-name="uni0411" unicode="&#x411;" horiz-adv-x="1349" 
d="M193 0v1425h985v-145h-824v-442h385q245 0 381 -109q135 -111 135 -309t-135 -309t-381 -111h-546zM733 692h-379v-547h379q167 0 264 72q95 71 95 203q0 130 -95 201t-264 71z" />
    <glyph glyph-name="uni0412" unicode="&#x412;" horiz-adv-x="1423" 
d="M193 0v1425h587q234 0 365 -96q127 -100 127 -276q0 -112 -64 -191q-62 -79 -180 -121q137 -37 211 -123q72 -90 72 -221q0 -188 -135 -293q-134 -104 -377 -104h-606zM766 1280h-412v-473h412q166 0 252 63q90 63 90 174q0 115 -86 177q-89 59 -256 59zM788 662h-434
v-517h434q359 0 359 261q0 120 -92 188q-95 68 -267 68z" />
    <glyph glyph-name="uni0413" unicode="&#x413;" horiz-adv-x="1202" 
d="M193 0v1425h925v-145h-764v-1280h-161z" />
    <glyph glyph-name="uni0414" unicode="&#x414;" horiz-adv-x="1669" 
d="M76 -338v483h123q85 43 137 168q51 122 51 299v813h993v-1280h219v-483h-153v338h-1217v-338h-153zM541 612q0 -147 -41 -268q-41 -122 -115 -199h834v1135h-678v-668z" />
    <glyph glyph-name="uni0415" unicode="&#x415;" horiz-adv-x="1312" 
d="M193 0v1425h974v-145h-813v-473h791v-145h-791v-517h824v-145h-985z" />
    <glyph glyph-name="uni0416" unicode="&#x416;" horiz-adv-x="2160" 
d="M27 0l563 725l-551 700h188l486 -622h288v622h160v-622h287l487 622h187l-551 -700l563 -725h-195l-512 659h-266v-659h-160v659h-268l-510 -659h-196z" />
    <glyph glyph-name="uni0417" unicode="&#x417;" horiz-adv-x="1310" 
d="M664 -31q-224 0 -369 109q-147 110 -193 307h168q34 -132 136 -199q100 -69 260 -69q165 0 266 76q100 72 100 196q0 126 -98 199q-100 71 -268 71h-146v142h142q157 0 251 67q93 66 93 179q0 118 -93 190q-97 72 -245 72q-151 0 -252 -70q-98 -67 -133 -197h-166
q53 202 192 308q138 106 361 106q147 0 258 -51q110 -51 176 -141q63 -86 63 -207t-67 -203q-66 -81 -191 -119q136 -40 213 -129q76 -91 76 -223q0 -121 -68 -213q-71 -95 -190 -147q-123 -54 -276 -54z" />
    <glyph glyph-name="uni0418" unicode="&#x418;" horiz-adv-x="1597" 
d="M193 0v1425h161v-1175l903 1175h148v-1425h-160v1176l-905 -1176h-147z" />
    <glyph glyph-name="uni0419" unicode="&#x419;" horiz-adv-x="1597" 
d="M193 0v1425h161v-1175l903 1175h148v-1425h-160v1176l-905 -1176h-147zM801 1573q-158 0 -248 84q-91 85 -100 225h139q9 -87 65 -137q51 -51 144 -51q91 0 145 51q55 52 64 137h141q-12 -141 -102 -225t-248 -84z" />
    <glyph glyph-name="uni041A" unicode="&#x41a;" horiz-adv-x="1370" 
d="M193 0v1425h159v-622h305l488 622h186l-551 -700l563 -725h-194l-510 657h-287v-657h-159z" />
    <glyph glyph-name="uni041B" unicode="&#x41b;" horiz-adv-x="1552" 
d="M59 -10v143h35q118 0 189 111q67 107 67 297v884h1010v-1425h-162v1282h-694v-741q0 -255 -105 -402q-104 -149 -282 -149h-58z" />
    <glyph glyph-name="uni041C" unicode="&#x41c;" horiz-adv-x="1812" 
d="M352 0h-159v1425h174l542 -870l539 870h172v-1425h-160v1174l-553 -895l-555 890v-1169z" />
    <glyph glyph-name="uni041D" unicode="&#x41d;" horiz-adv-x="1570" 
d="M193 0v1425h161v-604h863v604h161v-1425h-161v676h-863v-676h-161z" />
    <glyph glyph-name="uni041E" unicode="&#x41e;" horiz-adv-x="1609" 
d="M805 -31q-154 0 -281 56q-131 58 -221 155q-92 99 -145 236q-52 134 -52 297t52 297q53 135 145 235q92 99 221 156q125 55 281 55q155 0 280 -55q131 -58 222 -156q92 -100 145 -235q51 -131 51 -297t-51 -297q-53 -137 -145 -236q-90 -97 -222 -155q-127 -56 -280 -56z
M805 119q152 0 274 78q121 77 191 211q67 131 67 305q0 175 -67 309q-71 132 -191 209q-119 76 -274 76q-156 0 -275 -76q-120 -77 -188 -209q-70 -134 -70 -309q0 -174 70 -305q67 -134 188 -211q122 -78 275 -78z" />
    <glyph glyph-name="uni041F" unicode="&#x41f;" horiz-adv-x="1544" 
d="M193 0v1425h1159v-1425h-162v1280h-836v-1280h-161z" />
    <glyph glyph-name="uni0420" unicode="&#x420;" horiz-adv-x="1345" 
d="M193 0v1425h507q277 0 418 -120q139 -124 139 -326q0 -205 -139 -326q-142 -121 -418 -121h-346v-532h-161zM354 678h328q206 0 309 80q101 76 101 221q0 144 -101 223q-104 78 -309 78h-328v-602z" />
    <glyph glyph-name="uni0421" unicode="&#x421;" horiz-adv-x="1458" 
d="M106 713q0 213 87 385q82 169 233 264q149 94 342 94q242 0 393 -121q150 -120 203 -334h-170q-42 144 -147 224q-107 82 -279 82q-143 0 -256 -72q-109 -70 -176 -207q-64 -131 -64 -315q0 -185 64 -316q67 -136 176 -204q112 -74 256 -74q170 0 283 82q110 79 145 213
h168q-52 -203 -203 -324t-393 -121q-188 0 -342 97q-152 96 -233 262q-87 172 -87 385z" />
    <glyph glyph-name="uni0422" unicode="&#x422;" horiz-adv-x="1366" 
d="M764 0h-162v1280h-518v145h1198v-145h-518v-1280z" />
    <glyph glyph-name="uni0423" unicode="&#x423;" horiz-adv-x="1374" 
d="M270 -8v145h74q103 0 174 41q69 42 121 139l-606 1108h182l508 -933l438 933h178l-553 -1140q-78 -162 -176 -226q-101 -67 -264 -67h-76z" />
    <glyph glyph-name="uni0424" unicode="&#x424;" horiz-adv-x="1771" 
d="M805 -66v199q-212 6 -369 80q-157 71 -243 201q-87 128 -87 299q0 170 87 301q85 126 243 200q159 72 369 78v199h162v-199q211 -6 370 -78q156 -74 242 -200q86 -130 86 -301q0 -172 -86 -299q-87 -131 -242 -201q-157 -74 -370 -80v-199h-162zM270 713q0 -131 68 -226
q65 -96 188 -151q121 -56 285 -62v877q-166 -6 -285 -61q-122 -55 -188 -152q-68 -95 -68 -225zM1501 713q0 130 -65 225q-69 96 -189 152q-122 55 -286 61v-877q162 6 286 62q121 56 189 151q65 95 65 226z" />
    <glyph glyph-name="uni0425" unicode="&#x425;" horiz-adv-x="1396" 
d="M43 0l551 743l-498 682h201l403 -563l404 563h192l-497 -680l551 -745h-201l-457 625l-456 -625h-193z" />
    <glyph glyph-name="uni0426" unicode="&#x426;" horiz-adv-x="1595" 
d="M1372 -338v338h-1179v1425h161v-1280h791v1280h160v-1280h221v-483h-154z" />
    <glyph glyph-name="uni0427" unicode="&#x427;" horiz-adv-x="1411" 
d="M666 516q-265 0 -402 143q-139 142 -139 412v354h160v-344q0 -415 403 -415q110 0 209 30q93 30 160 84v645h162v-1425h-162v618q-163 -102 -391 -102z" />
    <glyph glyph-name="uni0428" unicode="&#x428;" horiz-adv-x="2099" 
d="M193 0v1425h161v-1280h615v1280h161v-1280h615v1280h162v-1425h-1714z" />
    <glyph glyph-name="uni0429" unicode="&#x429;" horiz-adv-x="2197" 
d="M1972 -338v338h-1779v1425h161v-1280h615v1280h161v-1280h615v1280h162v-1280h221v-483h-156z" />
    <glyph glyph-name="uni042A" unicode="&#x42a;" horiz-adv-x="1636" 
d="M485 0v1280h-401v145h563v-579h387q244 0 379 -111q135 -114 135 -311q0 -200 -135 -311q-134 -113 -379 -113h-549zM1024 700h-377v-555h377q171 0 266 74q94 70 94 205q0 132 -94 205q-95 71 -266 71z" />
    <glyph glyph-name="uni042B" unicode="&#x42b;" horiz-adv-x="1763" 
d="M1571 0h-162v1425h162v-1425zM193 0v1425h161v-579h367q241 0 379 -111q135 -114 135 -311q0 -200 -135 -311q-137 -113 -379 -113h-528zM711 700h-357v-555h357q171 0 266 74q94 70 94 205q0 132 -94 205q-95 71 -266 71z" />
    <glyph glyph-name="uni042C" unicode="&#x42c;" horiz-adv-x="1343" 
d="M193 0v1425h161v-579h387q241 0 379 -111q135 -114 135 -311q0 -200 -135 -311q-137 -113 -379 -113h-548zM731 700h-377v-555h377q171 0 266 74q95 71 95 205q0 131 -95 205q-95 71 -266 71z" />
    <glyph glyph-name="uni042D" unicode="&#x42d;" horiz-adv-x="1458" 
d="M690 -31q-231 0 -387 117q-156 114 -209 326h172q34 -137 150 -215t276 -78q141 0 250 65q102 61 170 187q64 119 76 278h-750v146h748q-15 159 -78 270q-64 114 -172 178q-107 64 -244 64q-162 0 -274 -80q-110 -77 -152 -226h-172q59 219 211 338q150 117 385 117
q195 0 344 -94q153 -96 234 -260q84 -173 84 -389q0 -217 -84 -387q-81 -167 -234 -263q-149 -94 -344 -94z" />
    <glyph glyph-name="uni042E" unicode="&#x42e;" horiz-adv-x="2140" 
d="M193 0v1425h159v-604h318q21 185 114 332q86 137 236 223q145 80 328 80q198 0 356 -96q153 -94 242 -262q88 -169 88 -385q0 -214 -88 -383t-242 -264q-160 -97 -356 -97t-347 92q-149 88 -239 250q-89 157 -98 365h-312v-676h-159zM1348 119q151 0 270 76
q117 76 184 211q66 135 66 307q0 171 -66 309q-68 133 -184 209q-119 76 -270 76q-153 0 -269 -76q-119 -76 -184 -209q-68 -136 -68 -309q0 -174 68 -307q64 -135 184 -211q116 -76 269 -76z" />
    <glyph glyph-name="uni042F" unicode="&#x42f;" horiz-adv-x="1376" 
d="M63 0l398 582q-162 41 -246 147q-88 104 -88 264q0 212 143 322q140 110 414 110h500v-1425h-160v555h-340q-37 0 -55 2l-379 -557h-187zM696 698h328v582h-328q-403 0 -403 -287q0 -146 104 -219q101 -76 299 -76z" />
    <glyph glyph-name="uni0430" unicode="&#x430;" horiz-adv-x="1089" 
d="M438 -27q-156 0 -256 86q-98 85 -98 234q0 158 115 244t325 86h262v51q0 141 -69 198q-72 60 -191 60q-106 0 -168 -39q-69 -41 -84 -100h-155q27 126 137 202t270 76q191 0 301 -98q111 -99 111 -309v-664h-145v164q-57 -97 -152 -144q-100 -47 -203 -47zM467 109
q79 0 147 32q75 35 123 101q49 64 49 166v86h-254q-142 0 -219 -50t-77 -145q0 -91 65 -141q64 -49 166 -49z" />
    <glyph glyph-name="uni0431" unicode="&#x431;" horiz-adv-x="1165" 
d="M600 -31q-241 0 -369 168q-129 167 -129 471q0 394 125 586q127 192 398 213l194 16q76 6 76 84h145q0 -210 -202 -225l-197 -16q-186 -15 -274 -123q-92 -113 -113 -346q54 92 156 155q95 56 206 56q135 0 246 -66q106 -66 168 -184q60 -123 60 -271q0 -150 -62 -268
q-64 -120 -172 -184q-114 -66 -256 -66zM600 111q100 0 176 49q73 46 117 133q43 82 43 196t-43 199q-44 84 -117 133q-77 47 -176 47q-96 0 -172 -49q-75 -49 -119 -135q-43 -85 -43 -195q0 -168 92 -274q91 -104 242 -104z" />
    <glyph glyph-name="uni0432" unicode="&#x432;" horiz-adv-x="1146" 
d="M168 0v1044h483q174 0 269 -71q92 -71 92 -205q0 -82 -45 -139q-50 -63 -127 -88q204 -55 204 -248q0 -140 -100 -215q-104 -78 -282 -78h-494zM625 913h-306v-313h306q111 0 172 43q61 40 61 117q0 73 -59 114q-59 39 -174 39zM641 469h-322v-338h322q122 0 186 43
t64 127q0 77 -66 125q-64 43 -184 43z" />
    <glyph glyph-name="uni0433" unicode="&#x433;" horiz-adv-x="944" 
d="M168 0v1044h723v-137h-572v-907h-151z" />
    <glyph glyph-name="uni0434" unicode="&#x434;" horiz-adv-x="1275" 
d="M41 -307v444h115q143 73 143 336v571h764v-907h174v-444h-147v307h-902v-307h-147zM436 473q0 -232 -104 -336h579v770h-475v-434z" />
    <glyph glyph-name="uni0435" unicode="&#x435;" horiz-adv-x="1134" 
d="M592 -27q-152 0 -264 68q-114 67 -172 190q-62 124 -62 291q0 154 60 283q59 127 168 196q107 70 262 70q144 0 247 -65q100 -63 154 -181q51 -114 51 -270v-82h-786q12 -173 102 -266q88 -94 240 -94q100 0 170 37q71 35 92 94h160q-38 -126 -152 -197
q-115 -74 -270 -74zM584 932q-143 0 -228 -88q-86 -89 -104 -240h631q-3 146 -80 238q-78 90 -219 90z" />
    <glyph glyph-name="uni0436" unicode="&#x436;" horiz-adv-x="1622" 
d="M16 0l433 528l-431 516h181l364 -444h172v444h152v-444h170l364 444h181l-428 -516l432 -528h-187l-377 465h-155v-465h-152v465h-157l-377 -465h-185z" />
    <glyph glyph-name="uni0437" unicode="&#x437;" horiz-adv-x="1040" 
d="M512 -31q-174 0 -289 80q-114 80 -149 227h168q20 -78 94 -124q70 -46 176 -46q126 0 197 50t71 135q0 82 -73 131q-74 47 -201 47h-127v131h129q117 0 184 43q66 41 66 117q0 81 -66 129q-65 47 -180 47q-103 0 -170 -43q-69 -45 -90 -123h-162q27 140 141 223
q115 80 283 80q182 0 291 -80q108 -83 108 -217q0 -90 -55 -151t-153 -88q110 -27 169 -95q60 -69 60 -163q0 -141 -115 -224q-118 -86 -307 -86z" />
    <glyph glyph-name="uni0438" unicode="&#x438;" horiz-adv-x="1255" 
d="M168 0v1044h151v-821l625 821h143v-1044h-151v817l-623 -817h-145z" />
    <glyph glyph-name="uni0439" unicode="&#x439;" horiz-adv-x="1255" 
d="M168 0v1044h151v-821l625 821h143v-1044h-151v817l-623 -817h-145zM627 1192q-155 0 -242 84t-96 227h139q9 -92 59 -139q51 -51 140 -51q88 0 139 51q48 48 57 139h140q-9 -144 -95 -227q-90 -84 -241 -84z" />
    <glyph glyph-name="uni043A" unicode="&#x43a;" horiz-adv-x="1064" 
d="M168 0v1044h151v-444h179l366 444h183l-431 -512l433 -532h-185l-377 463h-168v-463h-151z" />
    <glyph glyph-name="uni043B" unicode="&#x43b;" horiz-adv-x="1243" 
d="M41 -8v137h43q211 0 211 350v565h780v-1044h-151v907h-486v-436q0 -235 -86 -356q-86 -123 -243 -123h-68z" />
    <glyph glyph-name="uni043C" unicode="&#x43c;" horiz-adv-x="1454" 
d="M313 0h-145v1044h162l399 -606l395 606h162v-1044h-147v817l-412 -627l-414 631v-821z" />
    <glyph glyph-name="uni043D" unicode="&#x43d;" horiz-adv-x="1222" 
d="M168 0v1044h151v-430h584v430h152v-1044h-152v477h-584v-477h-151z" />
    <glyph glyph-name="uni043E" unicode="&#x43e;" horiz-adv-x="1175" 
d="M588 -27q-146 0 -256 70q-113 70 -174 195q-64 122 -64 284t64 287q61 122 174 192q110 70 256 70q145 0 258 -70q110 -70 174 -192q61 -125 61 -287t-61 -284q-64 -125 -174 -195q-113 -70 -258 -70zM588 115q153 0 246 112q94 110 94 295q0 184 -94 297
q-94 111 -246 111q-150 0 -244 -111q-96 -116 -96 -297q0 -182 96 -295q93 -112 244 -112z" />
    <glyph glyph-name="uni043F" unicode="&#x43f;" horiz-adv-x="1191" 
d="M168 0v1044h856v-1044h-152v907h-553v-907h-151z" />
    <glyph glyph-name="uni0440" unicode="&#x440;" horiz-adv-x="1236" 
d="M168 -420v1464h147v-184q57 97 150 156q88 55 211 55q137 0 244 -70q105 -71 163 -192q60 -129 60 -287t-60 -284q-58 -124 -163 -195q-107 -70 -244 -70q-118 0 -207 56q-90 51 -150 149v-598h-151zM653 115q100 0 174 51q76 52 119 143q43 90 43 213t-43 213
q-44 93 -119 144q-74 51 -174 51q-102 0 -176 -51q-78 -54 -121 -144q-45 -89 -45 -213t45 -213q42 -89 121 -143q74 -51 176 -51z" />
    <glyph glyph-name="uni0441" unicode="&#x441;" horiz-adv-x="1087" 
d="M584 -27q-146 0 -256 70q-111 67 -172 193q-62 124 -62 286q0 161 62 285t172 194t256 70q173 0 286 -94q112 -96 136 -238h-160q-15 83 -82 138t-180 55q-100 0 -174 -51q-75 -51 -119 -144q-43 -93 -43 -215q0 -187 94 -297t242 -110q112 0 180 53q69 54 84 137h158
q-21 -138 -134 -235q-117 -97 -288 -97z" />
    <glyph glyph-name="uni0442" unicode="&#x442;" horiz-adv-x="1034" 
d="M592 0h-152v907h-387v137h928v-137h-389v-907z" />
    <glyph glyph-name="uni0443" unicode="&#x443;" horiz-adv-x="1042" 
d="M272 -420l172 420l-415 1044h172l325 -866l322 866h164l-580 -1464h-160z" />
    <glyph glyph-name="uni0444" unicode="&#x444;" horiz-adv-x="1505" 
d="M680 -420v393q-174 9 -307 80q-132 71 -209 191q-78 122 -78 278q0 157 78 279t209 192q129 69 307 78v414h145v-414q179 -9 308 -78q133 -71 210 -192q76 -119 76 -279q0 -159 -76 -278q-76 -120 -210 -191q-133 -71 -308 -80v-393h-145zM1264 522q0 120 -56 209
q-57 90 -155 141q-99 51 -232 60v-817q129 6 232 59q98 51 155 141q56 89 56 207zM242 522q0 -119 55 -207q56 -90 156 -141q100 -53 229 -59v815q-131 -6 -229 -58q-100 -51 -156 -141q-55 -88 -55 -209z" />
    <glyph glyph-name="uni0445" unicode="&#x445;" horiz-adv-x="1048" 
d="M25 0l403 545l-365 499h191l276 -393l277 393h178l-362 -503l401 -541h-190l-314 434l-317 -434h-178z" />
    <glyph glyph-name="uni0446" unicode="&#x446;" horiz-adv-x="1241" 
d="M1055 -307v307h-887v1044h151v-907h558v907h151v-907h174v-444h-147z" />
    <glyph glyph-name="uni0447" unicode="&#x447;" horiz-adv-x="1114" 
d="M502 358q-190 0 -301 105q-113 101 -113 285v296h152v-282q0 -133 73 -197q73 -67 207 -67q166 0 275 86v460h151v-1044h-151v434q-122 -76 -293 -76z" />
    <glyph glyph-name="uni0448" unicode="&#x448;" horiz-adv-x="1687" 
d="M168 0v1044h151v-907h449v907h152v-907h448v907h152v-1044h-1352z" />
    <glyph glyph-name="uni0449" unicode="&#x449;" horiz-adv-x="1732" 
d="M1546 -307v307h-1378v1044h151v-907h449v907h152v-907h448v907h152v-907h174v-444h-148z" />
    <glyph glyph-name="uni044A" unicode="&#x44a;" horiz-adv-x="1271" 
d="M365 0v907h-312v137h463v-368h287q190 0 297 -88q106 -87 106 -250q0 -161 -106 -248q-110 -90 -297 -90h-438zM791 541h-275v-406h275q121 0 192 53q68 53 68 150q0 96 -68 149q-73 54 -192 54z" />
    <glyph glyph-name="uni044B" unicode="&#x44b;" horiz-adv-x="1468" 
d="M168 0v1044h151v-368h283q190 0 297 -88t107 -250q0 -160 -107 -248q-110 -90 -297 -90h-434zM1149 0v1044h151v-1044h-151zM590 541h-271v-406h271q124 0 192 53t68 150q0 96 -68 149q-73 54 -192 54z" />
    <glyph glyph-name="uni044C" unicode="&#x44c;" horiz-adv-x="1075" 
d="M168 0v1044h151v-368h287q190 0 297 -88t107 -250q0 -160 -107 -248q-110 -90 -297 -90h-438zM594 541h-275v-406h275q121 0 192 53q68 53 68 150q0 96 -68 149q-73 54 -192 54z" />
    <glyph glyph-name="uni044D" unicode="&#x44d;" horiz-adv-x="1093" 
d="M522 -29q-165 0 -286 92q-119 91 -154 242h158q26 -86 104 -139q77 -53 178 -53q136 0 221 94q86 92 101 254h-467v137h465q-18 153 -103 244q-87 90 -217 90q-104 0 -178 -51q-77 -53 -104 -142h-158q42 157 158 242q119 90 282 90q145 0 252 -67q108 -70 166 -193
q59 -124 59 -289t-59 -289q-58 -124 -166 -192q-107 -70 -252 -70z" />
    <glyph glyph-name="uni044E" unicode="&#x44e;" horiz-adv-x="1642" 
d="M168 0v1044h151v-430h246q15 135 84 240q64 101 170 160q102 57 236 57q145 0 258 -70q110 -70 174 -192q61 -125 61 -287t-61 -284q-64 -125 -174 -195q-112 -72 -258 -72q-142 0 -248 66q-108 64 -172 178q-65 115 -74 264h-242v-479h-151zM1055 113q104 0 178 51
q76 52 119 145q43 90 43 213t-43 213q-45 95 -119 146t-178 51q-102 0 -176 -51q-77 -53 -121 -146q-43 -90 -43 -213t43 -213q42 -91 121 -145q74 -51 176 -51z" />
    <glyph glyph-name="uni044F" unicode="&#x44f;" horiz-adv-x="1120" 
d="M59 0l324 403q-132 35 -201 115q-71 80 -71 201q0 157 116 242q115 83 330 83h395v-1044h-147v385h-248h-18l-308 -385h-172zM565 518h240v393h-240q-307 0 -307 -196q0 -197 307 -197z" />
    <glyph glyph-name="uni0450" unicode="&#x450;" horiz-adv-x="1134" 
d="M592 -27q-152 0 -264 68q-114 67 -172 190q-62 124 -62 291q0 154 60 283q59 127 168 196q107 70 262 70q144 0 247 -65q100 -63 154 -181q51 -114 51 -270v-82h-786q12 -173 102 -266q88 -94 240 -94q100 0 170 37q71 35 92 94h160q-38 -126 -152 -197
q-115 -74 -270 -74zM584 932q-143 0 -228 -88q-86 -89 -104 -240h631q-3 146 -80 238q-78 90 -219 90zM502 1196l-172 315h168l153 -315h-149z" />
    <glyph glyph-name="uni0451" unicode="&#x451;" horiz-adv-x="1134" 
d="M592 -27q-152 0 -264 68q-114 67 -172 190q-62 124 -62 291q0 154 60 283q59 127 168 196q107 70 262 70q144 0 247 -65q100 -63 154 -181q51 -114 51 -270v-82h-786q12 -173 102 -266q88 -94 240 -94q100 0 170 37q71 35 92 94h160q-38 -126 -152 -197
q-115 -74 -270 -74zM584 932q-143 0 -228 -88q-86 -89 -104 -240h631q-3 146 -80 238q-78 90 -219 90zM752 1243q-45 0 -76 31t-31 76q0 44 31 75t76 31q44 0 75 -31t31 -75q0 -45 -31 -76t-75 -31zM379 1243q-45 0 -76 31t-31 76q0 44 31 75t76 31t76 -31q30 -30 30 -75
q0 -46 -30 -76q-31 -31 -76 -31z" />
    <glyph glyph-name="uni0452" unicode="&#x452;" horiz-adv-x="1163" 
d="M586 -324v138h47q86 0 151 77q64 79 99 224q35 143 35 334q0 203 -74 315q-77 108 -217 108q-91 0 -154 -38q-66 -40 -104 -111q-39 -68 -39 -164v-559h-152v1161h-164v127h164v197h152v-197h325v-127h-325v-325q58 86 141 131t188 45q195 0 304 -148q106 -144 106 -415
q0 -364 -113 -568q-114 -205 -313 -205h-57z" />
    <glyph glyph-name="uni0453" unicode="&#x453;" horiz-adv-x="944" 
d="M168 0v1044h723v-137h-572v-907h-151zM588 1196h-150l154 315h168z" />
    <glyph glyph-name="uni0454" unicode="&#x454;" horiz-adv-x="1091" 
d="M582 -29q-147 0 -254 70q-111 71 -172 195q-62 124 -62 286q0 160 62 287q61 121 172 192q110 70 254 70q165 0 278 -88q115 -89 150 -244h-162q-21 89 -92 142q-68 51 -174 51q-133 0 -222 -92q-87 -90 -108 -242h465v-137h-467q15 -155 106 -252q90 -96 226 -96
q110 0 178 51q72 51 90 139h160q-27 -152 -144 -240q-121 -92 -284 -92z" />
    <glyph glyph-name="uni0455" unicode="&#x455;" horiz-adv-x="1001" 
d="M520 -31q-180 0 -295 86q-115 81 -143 213h156q15 -65 92 -112q77 -50 188 -50q108 0 178 48q68 47 68 131q0 67 -45 106q-46 40 -158 55l-162 21q-297 37 -297 285q0 93 52 163q54 72 141 115q90 41 203 41q159 0 266 -76q102 -74 137 -202h-156q-21 66 -86 104
q-64 37 -157 37q-114 0 -178 -49q-66 -54 -66 -129q0 -64 47 -99q46 -34 152 -49l161 -20q148 -18 226 -99q76 -79 76 -200q0 -98 -52 -168q-50 -71 -143 -113q-85 -39 -205 -39z" />
    <glyph glyph-name="uni0456" unicode="&#x456;" horiz-adv-x="475" 
d="M238 1204q-45 0 -80 35t-35 80q0 47 35 82q33 33 80 33q48 0 81 -33t33 -82q0 -47 -33 -80q-35 -35 -81 -35zM162 0v1044h151v-1044h-151z" />
    <glyph glyph-name="uni0457" unicode="&#x457;" horiz-adv-x="475" 
d="M190 1321q0 -46 -30 -76q-31 -31 -76 -31t-76 31t-31 76t31 76q30 30 76 30t76 -30t30 -76zM500 1321q0 -44 -29 -76q-28 -31 -76 -31t-76 31q-30 30 -30 76t30 76q27 30 76 30q46 0 76 -30q29 -32 29 -76zM162 0v1044h151v-1044h-151z" />
    <glyph glyph-name="uni0458" unicode="&#x458;" horiz-adv-x="475" 
d="M238 1204q-45 0 -80 35t-35 80q0 47 35 82q33 33 80 33q48 0 81 -33t33 -82q0 -47 -33 -80q-35 -35 -81 -35zM-59 -420v137h53q82 0 127 54q41 56 41 149v1124h151v-1136q0 -157 -73 -242q-77 -86 -224 -86h-75z" />
    <glyph glyph-name="uni0459" unicode="&#x459;" horiz-adv-x="1810" 
d="M41 -8v137h43q211 0 211 350v565h770v-368h276q190 0 297 -88t107 -250q0 -160 -107 -248q-110 -90 -297 -90h-428v907h-475v-436q0 -235 -86 -356q-86 -123 -243 -123h-68zM1329 541h-264v-406h264q122 0 193 53q67 52 67 150q0 97 -67 149q-73 54 -193 54z" />
    <glyph glyph-name="uni045A" unicode="&#x45a;" horiz-adv-x="1800" 
d="M168 0v1044h151v-399h574v399h151v-399h287q187 0 297 -84q107 -85 107 -237q0 -156 -107 -238q-109 -86 -297 -86h-438v510h-574v-510h-151zM1319 510h-275v-375h275q122 0 192 49q68 50 68 140q0 89 -68 139q-71 47 -192 47z" />
    <glyph glyph-name="uni045B" unicode="&#x45b;" horiz-adv-x="1185" 
d="M178 0v1161h-164v127h164v197h152v-197h325v-127h-325v-327q54 85 139 131q86 47 190 47q171 0 273 -117t102 -311v-584h-151v553q0 152 -68 235q-69 84 -192 84q-127 0 -209 -88q-84 -90 -84 -225v-559h-152z" />
    <glyph glyph-name="uni045C" unicode="&#x45c;" horiz-adv-x="1064" 
d="M168 0v1044h151v-444h179l366 444h183l-431 -512l433 -532h-185l-377 463h-168v-463h-151zM647 1196h-149l153 315h168z" />
    <glyph glyph-name="uni045D" unicode="&#x45d;" horiz-adv-x="1255" 
d="M168 0v1044h151v-821l625 821h143v-1044h-151v817l-623 -817h-145zM563 1196l-172 315h168l154 -315h-150z" />
    <glyph glyph-name="uni045E" unicode="&#x45e;" horiz-adv-x="1042" 
d="M272 -420l172 420l-415 1044h172l325 -866l322 866h164l-580 -1464h-160zM524 1192q-154 0 -241 84q-88 85 -97 227h140q9 -92 59 -139q51 -51 139 -51q89 0 140 51q48 48 57 139h139q-9 -145 -94 -227q-90 -84 -242 -84z" />
    <glyph glyph-name="uni045F" unicode="&#x45f;" horiz-adv-x="1206" 
d="M168 0v1044h151v-907h568v907h151v-1044h-360v-311h-148v311h-362z" />
    <glyph glyph-name="uni0490" unicode="&#x490;" horiz-adv-x="1204" 
d="M193 0v1425h774v310h153v-455h-766v-1280h-161z" />
    <glyph glyph-name="uni0491" unicode="&#x491;" horiz-adv-x="948" 
d="M745 1272h150v-365h-576v-907h-151v1044h577v228z" />
    <glyph glyph-name="uni0492" unicode="&#x492;" horiz-adv-x="1314" 
d="M305 0v627h-229v145h229v653h926v-145h-766v-508h477v-145h-477v-627h-160z" />
    <glyph glyph-name="uni0493" unicode="&#x493;" horiz-adv-x="1021" 
d="M248 0v436h-195v137h195v471h721v-137h-570v-334h373v-137h-373v-436h-151z" />
    <glyph glyph-name="uni0496" unicode="&#x496;" horiz-adv-x="2293" 
d="M27 0l563 725l-551 700h188l486 -622h288v622h160v-622h287l487 622h187l-551 -700l450 -582h203v-481h-151v338h-134l-512 659h-266v-659h-160v659h-268l-510 -659h-196z" />
    <glyph glyph-name="uni0497" unicode="&#x497;" horiz-adv-x="1691" 
d="M16 0l433 528l-431 516h181l364 -444h172v444h152v-444h170l364 444h181l-428 -516l319 -393h160v-452h-148v317h-86l-377 465h-155v-465h-152v465h-157l-377 -465h-185z" />
    <glyph glyph-name="uni049A" unicode="&#x49a;" horiz-adv-x="1462" 
d="M193 0v1425h159v-622h305l488 622h186l-551 -700l451 -580h170v-483h-150v338h-102l-510 657h-287v-657h-159z" />
    <glyph glyph-name="uni049B" unicode="&#x49b;" horiz-adv-x="1150" 
d="M168 0v1044h151v-444h179l366 444h183l-431 -512l322 -397h162v-448h-148v313h-88l-377 463h-168v-463h-151z" />
    <glyph glyph-name="uni04A2" unicode="&#x4a2;" horiz-adv-x="1667" 
d="M193 0v1425h161v-604h863v604h161v-1280h219v-483h-149v338h-231v676h-863v-676h-161z" />
    <glyph glyph-name="uni04A3" unicode="&#x4a3;" horiz-adv-x="1267" 
d="M168 0v1044h151v-430h584v430h152v-909h174v-448h-148v313h-178v477h-584v-477h-151z" />
    <glyph glyph-name="uni04AE" unicode="&#x4ae;" horiz-adv-x="1298" 
d="M569 0v557l-536 868h188l432 -714l428 714h183l-533 -864v-561h-162z" />
    <glyph glyph-name="uni04AF" unicode="&#x4af;" horiz-adv-x="1042" 
d="M446 -420v410l-417 1054h172l323 -870l324 870h164l-414 -1044v-420h-152z" />
    <glyph glyph-name="uni04B0" unicode="&#x4b0;" horiz-adv-x="1298" 
d="M203 483v138h327l-497 804h188l432 -714l428 714h183l-496 -804h328v-138h-365v-483h-162v483h-366z" />
    <glyph glyph-name="uni04B1" unicode="&#x4b1;" horiz-adv-x="1042" 
d="M150 -57v137h262l-383 964h172l323 -870l324 870h164l-383 -964h266v-137h-297v-363h-152v363h-296z" />
    <glyph glyph-name="uni04B2" unicode="&#x4b2;" horiz-adv-x="1472" 
d="M43 0l551 743l-498 682h201l403 -563l404 563h192l-497 -680l442 -600h170v-483h-149v338h-113l-457 625l-456 -625h-193z" />
    <glyph glyph-name="uni04B3" unicode="&#x4b3;" horiz-adv-x="1132" 
d="M25 0l403 545l-365 499h191l276 -393l277 393h178l-362 -503l301 -406h157v-448h-147v313h-100l-314 434l-317 -434h-178z" />
    <glyph glyph-name="uni04B6" unicode="&#x4b6;" horiz-adv-x="1507" 
d="M666 516q-265 0 -402 143q-139 142 -139 412v354h160v-344q0 -415 403 -415q110 0 209 30q93 30 160 84v645h162v-1280h219v-483h-150v338h-231v618q-163 -102 -391 -102z" />
    <glyph glyph-name="uni04B7" unicode="&#x4b7;" horiz-adv-x="1159" 
d="M502 358q-190 0 -301 105q-113 101 -113 285v296h152v-282q0 -133 73 -197q73 -67 207 -67q166 0 275 86v460h151v-909h174v-448h-147v313h-178v434q-122 -76 -293 -76z" />
    <glyph glyph-name="uni04BA" unicode="&#x4ba;" horiz-adv-x="1411" 
d="M193 0v1425h161v-594q78 48 178 74q102 27 213 27q264 0 402 -141q139 -145 139 -414v-377h-162v367q0 417 -405 417q-111 0 -205 -30q-93 -30 -160 -84v-670h-161z" />
    <glyph glyph-name="uni04BB" unicode="&#x4bb;" horiz-adv-x="1173" 
d="M168 0v1485h151v-586q53 79 144 127q83 45 186 45q121 0 203 -55q80 -53 127 -150q43 -93 43 -221v-645h-152v614q0 151 -63 232q-66 84 -193 84q-75 0 -143 -35q-70 -39 -109 -104q-43 -70 -43 -170v-621h-151z" />
    <glyph glyph-name="uni04C0" unicode="&#x4c0;" horiz-adv-x="546" 
d="M354 0h-161v1425h161v-1425z" />
    <glyph glyph-name="uni04CF" unicode="&#x4cf;" horiz-adv-x="475" 
d="M162 0v1485h151v-1485h-151z" />
    <glyph glyph-name="uni04D4" unicode="&#x4d4;" horiz-adv-x="2158" 
d="M199 0h-183l949 1425h1048v-145h-813v-473h791v-145h-791v-517h823v-145h-985v408h-573zM559 553h479v737z" />
    <glyph glyph-name="uni04D5" unicode="&#x4d5;" horiz-adv-x="1828" 
d="M446 -27q-162 0 -262 86q-100 84 -100 234q0 160 113 242q112 83 321 83h268v56q0 141 -69 198q-72 60 -191 60q-106 0 -168 -39q-69 -41 -84 -100h-155q27 126 137 202t270 76q132 0 226 -49q95 -53 141 -166q63 112 168 166q101 49 219 49q143 0 246 -65
q98 -62 153 -181q52 -116 52 -268v-68h-787q9 -178 98 -278q88 -98 244 -98q102 0 172 37q68 33 90 94h160q-38 -126 -152 -197q-115 -74 -270 -74q-149 0 -256 64q-110 66 -168 184q-55 -119 -170 -184q-113 -64 -246 -64zM1278 932q-139 0 -223 -84q-84 -87 -105 -230h627
q-9 143 -82 228q-77 86 -217 86zM467 109q86 0 154 32q73 36 118 101q47 65 47 170v77h-258q-138 0 -215 -47t-77 -143q0 -91 65 -141q64 -49 166 -49z" />
    <glyph glyph-name="uni04D8" unicode="&#x4d8;" horiz-adv-x="1486" 
d="M1380 711q0 -226 -77 -394q-79 -166 -226 -256q-148 -92 -350 -92q-186 0 -326 90q-139 89 -215 252q-75 156 -75 371v88h1101q-15 261 -147 399t-336 138q-154 0 -260 -68t-152 -162h-172q45 114 125 197q85 85 199 133q116 49 262 49q194 0 340 -88q144 -89 227 -256
q82 -168 82 -401zM727 119q206 0 336 133q126 132 147 371h-936q3 -143 62 -258q58 -119 156 -181q103 -65 235 -65z" />
    <glyph glyph-name="uni04D9" unicode="&#x4d9;" horiz-adv-x="1134" 
d="M543 1069q151 0 266 -68q111 -67 172 -190q59 -124 59 -291q0 -162 -57 -282q-57 -121 -168 -193q-109 -72 -264 -72q-146 0 -246 66q-101 64 -153 180q-54 120 -54 268v82h787q-12 174 -101 269q-89 92 -241 92q-100 0 -170 -37q-72 -38 -92 -94h-160q37 125 151 198
q116 72 271 72zM551 113q142 0 227 88q87 87 105 237h-631q3 -146 80 -235q78 -90 219 -90z" />
    <glyph glyph-name="uni04E2" unicode="&#x4e2;" horiz-adv-x="1597" 
d="M193 0v1425h161v-1175l903 1175h148v-1425h-160v1176l-905 -1176h-147zM489 1802h623v-131h-623v131z" />
    <glyph glyph-name="uni04E3" unicode="&#x4e3;" horiz-adv-x="1255" 
d="M168 0v1044h151v-821l625 821h143v-1044h-151v817l-623 -817h-145zM326 1423h602v-131h-602v131z" />
    <glyph glyph-name="uni04E8" unicode="&#x4e8;" horiz-adv-x="1607" 
d="M805 -31q-154 0 -281 56q-131 58 -221 155q-92 99 -145 236q-52 134 -52 297t52 297q53 135 145 235q92 99 221 156q125 55 281 55q152 0 280 -55q131 -58 222 -156q91 -102 143 -235q51 -131 51 -297t-51 -297q-53 -135 -143 -236q-90 -97 -222 -155q-130 -56 -280 -56z
M805 1307q-143 0 -260 -66q-115 -68 -185 -184q-71 -121 -86 -273h1061q-15 152 -86 273q-69 115 -186 184q-117 66 -258 66zM805 119q145 0 258 67q115 65 186 183t86 270h-1061q15 -152 86 -270q71 -117 187 -183q113 -67 258 -67z" />
    <glyph glyph-name="uni04E9" unicode="&#x4e9;" horiz-adv-x="1177" 
d="M588 -29q-147 0 -256 72q-113 70 -174 195q-64 122 -64 284t64 287q61 122 174 192q110 70 256 70q145 0 258 -70q111 -69 176 -192q61 -125 61 -287t-61 -284q-65 -126 -176 -195q-112 -72 -258 -72zM588 932q-138 0 -230 -92q-92 -95 -110 -250h680q-18 154 -111 250
q-92 92 -229 92zM588 113q137 0 231 94t109 250h-680q15 -158 110 -250q91 -94 230 -94z" />
    <glyph glyph-name="uni04EE" unicode="&#x4ee;" horiz-adv-x="1374" 
d="M270 -8v145h74q103 0 174 41q69 42 121 139l-606 1108h182l508 -933l438 933h178l-553 -1140q-78 -162 -176 -226q-101 -67 -264 -67h-76zM371 1802h622v-131h-622v131z" />
    <glyph glyph-name="uni04EF" unicode="&#x4ef;" horiz-adv-x="1042" 
d="M272 -420l172 420l-415 1044h172l325 -866l322 866h164l-580 -1464h-160zM223 1423h602v-131h-602v131z" />
    <glyph glyph-name="uni058F" unicode="&#x58f;" 
d="M555 338v139h313v160h-313v139h313v199q0 158 -82 246q-84 90 -227 90t-227 -90q-82 -88 -82 -246v-66h-158v76q0 137 60 248q60 108 163 164q106 59 246 59q139 0 248 -59q105 -59 164 -164q57 -105 57 -248v-209h156v-139h-156v-160h156v-139h-156v-338h-162v338h-313z
" />
    <glyph glyph-name="uni060B" unicode="&#x60b;" 
d="M651 1223l-137 139l139 135l135 -137zM475 -14q-107 0 -184 6q-65 5 -141 16v146q102 -13 159 -15q88 -6 187 -6q107 0 209 12q100 12 141 50q44 41 47 192h-211q-161 0 -248 37q-89 34 -131 100q-39 62 -39 150q0 96 53 182q53 84 134 135q80 51 170 51q104 0 178 -51
t129 -143q50 -84 78 -203q26 -110 26 -237q0 -185 -57 -271q-60 -91 -182 -121q-123 -30 -318 -30zM682 522h203q-10 100 -43 183q-36 86 -90 137q-56 53 -138 53q-56 0 -104 -31q-49 -32 -76 -78q-31 -51 -31 -106q0 -50 21 -84q17 -36 78 -55q62 -19 180 -19zM586 -580
l-15 324l134 23l-15 -347h-104z" />
    <glyph glyph-name="uni0E3F" unicode="&#xe3f;" 
d="M133 4v1417h428v240h125v-242q208 -12 324 -102q110 -88 110 -256q0 -113 -65 -193q-67 -82 -183 -123q152 -38 226 -127q73 -88 73 -219q0 -182 -124 -282q-129 -104 -361 -113v-225h-125v225h-428zM287 1286v-483h274v483h-274zM963 1055q0 206 -277 227v-475
q128 15 205 82q72 66 72 166zM287 668v-529h274v529h-274zM1012 403q0 113 -84 185q-80 69 -242 78v-525q326 15 326 262z" />
    <glyph glyph-name="uni1E24" unicode="&#x1e24;" horiz-adv-x="1570" 
d="M193 0v1425h161v-604h863v604h161v-1425h-161v676h-863v-676h-161zM786 -369q-46 0 -79 33t-33 80t33 80t79 33q47 0 80 -33t33 -80t-33 -80t-80 -33z" />
    <glyph glyph-name="uni1E25" unicode="&#x1e25;" horiz-adv-x="1167" 
d="M162 0v1485h151v-586q53 79 144 127q83 45 186 45q121 0 203 -55q80 -53 127 -150q43 -93 43 -221v-645h-152v614q0 151 -63 232q-66 84 -193 84q-75 0 -143 -35q-70 -39 -109 -104q-43 -70 -43 -170v-621h-151zM590 -369q-47 0 -80 33t-33 80t33 80t80 33t80 -33
q32 -32 32 -80t-32 -80q-33 -33 -80 -33z" />
    <glyph glyph-name="uni1E36" unicode="&#x1e36;" horiz-adv-x="1228" 
d="M1145 145v-145h-952v1425h161v-1280h791zM674 -369q-47 0 -80 33t-33 80t33 80t80 33t80 -33q32 -32 32 -80t-32 -80q-33 -33 -80 -33z" />
    <glyph glyph-name="uni1E37" unicode="&#x1e37;" horiz-adv-x="475" 
d="M162 0v1485h151v-1485h-151zM238 -369q-47 0 -80 33t-33 80t33 80t80 33q46 0 79 -33t33 -80t-33 -80t-79 -33z" />
    </font>
</defs>
</svg>
