<?xml version="1.0" standalone="no"?>
<!DOCTYPE svg PUBLIC "-//W3C//DTD SVG 1.1//EN" "http://www.w3.org/Graphics/SVG/1.1/DTD/svg11.dtd" >
<svg xmlns="http://www.w3.org/2000/svg" xmlns:xlink="http://www.w3.org/1999/xlink" version="1.1">
<metadata>
Created by FontForge 20170731 at Fri Mar 17 17:29:48 2023
 By Aleksey,,,
Copyright (c) 2018. Netflix, Inc. and its affiliates. All rights reserved. 
</metadata>
<defs>
<font id="NetflixSans-Regular" horiz-adv-x="1253" >
  <font-face 
    font-family="Netflix Sans"
    font-weight="400"
    font-stretch="normal"
    units-per-em="2048"
    panose-1="2 11 6 3 2 2 2 2 2 4"
    ascent="1638"
    descent="-410"
    x-height="1049"
    cap-height="1425"
    bbox="-494 -930 3578 2107"
    underline-thickness="163"
    underline-position="-468"
    unicode-range="U+000D-FFFD"
  />
<missing-glyph horiz-adv-x="1024" 
d="M922 0h-820v1536h820v-1536zM819 102v1332h-614v-1332h614z" />
    <glyph glyph-name=".notdef" horiz-adv-x="1024" 
d="M922 0h-820v1536h820v-1536zM819 102v1332h-614v-1332h614z" />
    <glyph glyph-name="uni0000" horiz-adv-x="0" 
 />
    <glyph glyph-name="uni0000" horiz-adv-x="0" 
 />
    <glyph glyph-name="uni000D" unicode="&#xd;" horiz-adv-x="477" 
 />
    <glyph glyph-name="space" unicode=" " horiz-adv-x="477" 
 />
    <glyph glyph-name="exclam" unicode="!" horiz-adv-x="571" 
d="M201 403l-13 1022h197l-12 -1022h-172zM287 -25q-55 0 -94 39q-41 41 -41 97q0 55 41 96q39 39 94 39q57 0 96 -39t39 -96q0 -58 -39 -97t-96 -39z" />
    <glyph glyph-name="quotedbl" unicode="&#x22;" horiz-adv-x="802" 
d="M135 963l-8 522h180l-8 -522h-164zM504 963l-8 522h180l-8 -522h-164z" />
    <glyph glyph-name="numbersign" unicode="#" 
d="M168 0l65 369h-159v151h186l68 379h-238v152h264l66 368h162l-66 -368h344l66 368h159l-65 -368h160v-152h-187l-67 -379h237v-151h-264l-65 -369h-162l65 369h-344l-65 -369h-160zM420 520h344l70 379h-345z" />
    <glyph glyph-name="dollar" unicode="$" 
d="M557 -221v205q-188 21 -301 120q-120 102 -154 263h183q25 -84 94 -142q65 -57 178 -75v503l-61 11q-192 35 -283 131q-96 96 -96 247q0 116 59 205q59 86 158 137q103 53 223 62v215h143v-219q162 -18 277 -107q113 -88 151 -252h-182q-24 90 -88 136q-62 45 -158 57
v-469l43 -8q194 -35 301 -133t107 -265q0 -181 -123 -295t-328 -126v-201h-143zM305 1053q0 -57 21 -97q22 -42 75 -71q52 -30 156 -51v446q-113 -12 -182 -72q-70 -58 -70 -155zM963 393q0 88 -60 148q-59 56 -203 86v-482q121 12 193 78q70 64 70 170z" />
    <glyph glyph-name="percent" unicode="%" horiz-adv-x="1925" 
d="M481 725q-100 0 -182 49q-83 50 -133 133q-49 82 -49 183q0 102 49 184q48 80 133 131q82 49 182 49q103 0 185 -49t131 -131t49 -184q0 -101 -49 -183q-51 -85 -131 -133q-82 -49 -185 -49zM381 0l971 1425h192l-971 -1425h-192zM481 887q85 0 144 59t59 144
q0 86 -59 145q-57 57 -144 57q-86 0 -143 -57q-59 -59 -59 -145q0 -85 59 -144t143 -59zM1444 -29q-100 0 -182 49q-84 50 -134 134q-49 82 -49 182q0 102 49 184q47 79 134 131q82 49 182 49q102 0 184 -49t131 -131t49 -184q0 -100 -49 -182q-52 -87 -131 -134
q-82 -49 -184 -49zM1444 133q83 0 143 60t60 143q0 85 -60 145q-58 58 -143 58q-86 0 -144 -58q-59 -59 -59 -145q0 -84 59 -143q60 -60 144 -60z" />
    <glyph glyph-name="ampersand" unicode="&#x26;" horiz-adv-x="1503" 
d="M602 -31q-150 0 -256 56q-105 51 -162 145q-57 89 -57 207q0 137 78 244q74 101 213 174q-79 85 -121 161q-39 71 -39 164q0 98 51 172q50 78 140 125q86 45 202 45q121 0 207 -45q87 -48 135 -121q47 -77 47 -168q0 -127 -90 -217q-88 -89 -252 -153l334 -340l187 252
h211l-281 -373l291 -297h-244l-162 164q-88 -88 -194 -141q-105 -54 -238 -54zM446 1114q0 -67 35 -117q26 -37 113 -131q137 54 197 109q63 57 63 141q0 76 -53 129q-54 51 -146 51t-149 -51q-60 -54 -60 -131zM319 395q0 -105 76 -178q76 -76 221 -76q166 0 306 140
l-398 405q-98 -52 -151 -123q-54 -76 -54 -168z" />
    <glyph glyph-name="quotesingle" unicode="'" horiz-adv-x="434" 
d="M135 963l-8 522h180l-8 -522h-164z" />
    <glyph glyph-name="parenleft" unicode="(" horiz-adv-x="624" 
d="M383 -328q-138 212 -197 447q-59 236 -59 471t59 471q59 232 197 444h184q-134 -229 -192 -456q-60 -237 -60 -459t60 -459q58 -230 192 -459h-184z" />
    <glyph glyph-name="parenright" unicode=")" horiz-adv-x="624" 
d="M242 -328h-185q139 238 195 459q57 225 57 459t-57 459q-56 218 -195 456h185q140 -214 198 -444q58 -232 58 -471t-58 -471q-58 -233 -198 -447z" />
    <glyph glyph-name="asterisk" unicode="*" horiz-adv-x="978" 
d="M199 922l186 227l-285 74l50 151l276 -108l-18 297h161l-18 -297l276 108l50 -151l-287 -74l188 -227l-129 -95l-162 248l-159 -248z" />
    <glyph glyph-name="plus" unicode="+" 
d="M545 195v411h-387v160h387v412h166v-412h387v-160h-387v-411h-166z" />
    <glyph glyph-name="comma" unicode="," horiz-adv-x="557" 
d="M63 -350q79 121 123 196q47 80 62 146q-54 6 -80 39q-31 36 -31 78q0 51 37 88q33 36 96 36t103 -40q39 -39 39 -111q0 -92 -45 -197q-38 -86 -138 -235h-166z" />
    <glyph glyph-name="hyphen" unicode="-" horiz-adv-x="991" 
d="M168 512v162h655v-162h-655z" />
    <glyph glyph-name="period" unicode="." horiz-adv-x="557" 
d="M279 -25q-56 0 -95 39q-41 41 -41 97q0 55 41 96q39 39 95 39q57 0 96 -39t39 -96q0 -58 -39 -97t-96 -39z" />
    <glyph glyph-name="slash" unicode="/" horiz-adv-x="819" 
d="M25 -328l585 1833h185l-586 -1833h-184z" />
    <glyph glyph-name="zero" unicode="0" 
d="M627 -31q-164 0 -291 92q-124 90 -195 261q-69 163 -69 391q0 227 69 393q71 168 195 258q127 92 291 92t291 -92q122 -89 194 -258q70 -168 70 -393q0 -226 -70 -391q-72 -172 -194 -261q-127 -92 -291 -92zM627 143q108 0 190 70q78 69 125 197q45 122 45 303t-45 303
q-47 127 -125 196q-82 70 -190 70q-110 0 -189 -70q-80 -68 -127 -196q-45 -122 -45 -303t45 -303q48 -129 127 -197q79 -70 189 -70z" />
    <glyph glyph-name="one" unicode="1" 
d="M623 0v1223l-363 -123v176l553 176v-1452h-190z" />
    <glyph glyph-name="two" unicode="2" 
d="M117 0v154l569 512q86 76 135 135q48 56 70 112q20 50 20 111q0 107 -77 184q-80 74 -216 74q-128 0 -208 -65q-82 -64 -103 -170h-192q21 119 88 210q71 96 174 146q109 53 246 53q144 0 251 -55t170 -152q62 -100 62 -223q0 -86 -31 -162q-28 -72 -96 -149
q-69 -82 -166 -166l-422 -377h733v-172h-1007z" />
    <glyph glyph-name="three" unicode="3" 
d="M629 -31q-220 0 -357 101q-138 99 -178 270h195q34 -93 121 -145q88 -52 217 -52q75 0 151 29q67 26 115 86q45 57 45 145q0 115 -86 177q-89 59 -231 59h-172v172h167q126 0 205 61q78 63 78 170q0 121 -84 181q-86 59 -205 59q-118 0 -198 -53q-84 -53 -111 -142h-192
q44 165 176 267t331 102q129 0 238 -47q109 -50 174 -139q64 -88 64 -219q0 -114 -62 -197q-64 -81 -172 -119q132 -37 203 -127q72 -90 72 -215q0 -135 -70 -229q-73 -98 -184 -146q-113 -49 -250 -49z" />
    <glyph glyph-name="four" unicode="4" 
d="M780 0v352h-721v146l732 927h180v-907h223v-166h-223v-352h-191zM268 518h512v649z" />
    <glyph glyph-name="five" unicode="5" 
d="M645 -31q-197 0 -328 88q-133 89 -186 246h203q37 -79 119 -119q80 -41 180 -41q89 0 160 39q70 37 116 107q43 67 43 164q0 143 -90 221q-88 76 -231 76q-89 0 -170 -37q-88 -42 -144 -109h-172l80 821h826v-172h-672l-45 -481q58 70 145 111q84 41 195 41
q139 0 246 -58q104 -56 167 -164q60 -108 60 -245q0 -149 -68 -258q-72 -114 -182 -170q-117 -60 -252 -60z" />
    <glyph glyph-name="six" unicode="6" 
d="M668 -31q-166 0 -293 80q-132 81 -201 248q-72 170 -72 424q0 226 72 393t199 254q125 88 299 88q179 0 301 -84q114 -83 174 -244h-199q-40 76 -108 115t-166 39q-179 0 -281 -141q-102 -144 -102 -422v-23q55 106 160 174q104 66 241 66q135 0 244 -62
q107 -64 170 -169t63 -242q0 -148 -67 -258q-70 -111 -184 -172q-113 -64 -250 -64zM653 143q92 0 166 41q73 40 117 111q41 71 41 160q0 86 -41 157q-44 70 -117 111q-74 41 -166 41q-90 0 -161 -41q-74 -41 -117 -111t-43 -157q0 -88 43 -158q45 -74 117 -113
q74 -41 161 -41z" />
    <glyph glyph-name="seven" unicode="7" 
d="M1120 1425v-151l-565 -1274h-205l565 1253h-786v172h991z" />
    <glyph glyph-name="eight" unicode="8" horiz-adv-x="1257" 
d="M629 -31q-155 0 -269 47q-122 46 -196 138t-74 227q0 129 82 223q80 92 217 133q-119 41 -182 125q-68 86 -68 203q0 112 66 203q63 87 174 139q110 49 250 49t250 -49q114 -54 176 -139q63 -86 63 -203t-65 -203q-66 -84 -185 -125q137 -41 217 -133q82 -94 82 -223
q0 -136 -73 -227t-197 -138q-117 -47 -268 -47zM629 809q73 0 149 29q67 26 113 84q41 53 41 131q0 108 -88 172q-86 63 -215 63t-215 -63q-88 -64 -88 -172q0 -79 43 -131q42 -58 110 -84q76 -29 150 -29zM629 141q85 0 170 29q79 28 127 82q49 55 49 143q0 82 -49 140
q-48 57 -127 88q-82 28 -170 28q-89 0 -168 -28q-80 -30 -129 -88t-49 -140q0 -88 49 -143t129 -82q82 -29 168 -29z" />
    <glyph glyph-name="nine" unicode="9" 
d="M586 1456q167 0 295 -78q129 -81 198 -245q72 -170 72 -424q0 -351 -141 -545q-145 -195 -408 -195q-175 0 -309 84q-133 83 -189 244h199q41 -80 119 -117t172 -37q181 0 276 142t95 422v24q-55 -106 -160 -174q-106 -68 -244 -68q-137 0 -244 64q-108 62 -170 170
q-63 105 -63 240q0 141 68 256q66 108 182 174q111 63 252 63zM602 1282q-95 0 -166 -39q-74 -41 -117 -110q-43 -70 -43 -162q0 -88 43 -158q43 -71 117 -111q73 -40 166 -40q92 0 162 40q72 41 115 111t43 158q0 89 -43 159t-115 111q-74 41 -162 41z" />
    <glyph glyph-name="colon" unicode=":" horiz-adv-x="557" 
d="M279 -25q-56 0 -95 39q-41 41 -41 97q0 55 41 96q39 39 95 39q57 0 96 -39t39 -96q0 -58 -39 -97t-96 -39zM279 809q-56 0 -95 39q-41 41 -41 96t41 96q39 39 95 39q57 0 96 -39t39 -96t-39 -96t-96 -39z" />
    <glyph glyph-name="semicolon" unicode=";" horiz-adv-x="557" 
d="M63 -350q79 121 123 196q47 80 62 146q-54 6 -80 39q-31 36 -31 78q0 51 37 88q33 36 96 36t103 -40q39 -39 39 -111q0 -92 -45 -197q-38 -86 -138 -235h-166zM279 809q-56 0 -95 39q-41 41 -41 96t41 96q39 39 95 39q57 0 96 -39t39 -96t-39 -96t-96 -39z" />
    <glyph glyph-name="less" unicode="&#x3c;" 
d="M1090 170l-953 436v160l953 436v-172l-764 -344l764 -344v-172z" />
    <glyph glyph-name="equal" unicode="=" 
d="M158 838v159h938v-159h-938zM158 375v160h938v-160h-938z" />
    <glyph glyph-name="greater" unicode="&#x3e;" 
d="M164 170v172l764 344l-764 344v172l952 -436v-160z" />
    <glyph glyph-name="question" unicode="?" horiz-adv-x="1185" 
d="M467 403v86q0 69 18 127q14 55 64 111q46 52 137 109q76 46 117 84q40 34 55 71q14 32 14 80q0 87 -73 148q-76 61 -205 61q-130 0 -213 -59q-83 -62 -98 -156h-191q17 108 84 199q65 89 172 141q105 51 254 51q146 0 248 -51q102 -53 160 -137q57 -86 57 -197
q0 -108 -57 -188q-63 -89 -189 -162q-78 -48 -112 -84q-39 -42 -47 -76q-13 -44 -13 -82v-76h-182zM571 -25q-55 0 -94 39q-41 41 -41 97q0 55 41 96q39 39 94 39q58 0 97 -39t39 -96q0 -58 -39 -97t-97 -39z" />
    <glyph glyph-name="at" unicode="@" horiz-adv-x="2172" 
d="M1008 -440q-174 0 -326 55q-157 59 -274 164q-123 111 -189 260q-69 150 -69 348q0 205 71 391t205 326q131 140 326 223q195 80 436 80q179 0 328 -51q156 -55 268 -152q117 -104 180 -246q66 -147 66 -333q0 -212 -70 -355t-182 -217q-110 -73 -232 -73q-91 0 -153 47
q-65 47 -80 120q-61 -82 -146 -127q-80 -45 -180 -45q-111 0 -196 52q-89 54 -136 145q-49 94 -49 221q0 157 64 285q65 130 172 209q110 78 241 78q104 0 181 -47q71 -45 110 -127l21 145h159l-90 -655q-2 -10 -2 -27v-31q0 -37 29 -63q27 -27 72 -27q59 0 127 53
q67 52 114 162q47 109 47 277q0 202 -90 342q-88 138 -243 209q-153 69 -353 69q-262 0 -448 -110q-186 -113 -289 -308q-100 -190 -100 -442q0 -214 94 -360q92 -151 252 -228q155 -76 356 -76q102 0 199 17q95 20 188 57v-166q-175 -69 -409 -69zM1014 141q100 0 172 60
q67 55 106 151q35 93 35 191q0 121 -55 188q-56 68 -164 68q-103 0 -174 -56q-73 -58 -113 -145q-39 -85 -39 -192q0 -125 64 -195q61 -70 168 -70z" />
    <glyph glyph-name="A" unicode="A" horiz-adv-x="1411" 
d="M1167 0l-149 383h-633l-147 -383h-201l569 1425h197l571 -1425h-207zM451 557h499l-250 647z" />
    <glyph glyph-name="B" unicode="B" horiz-adv-x="1409" 
d="M184 0v1425h580q238 0 362 -100q127 -103 127 -276q0 -111 -61 -187q-64 -79 -170 -119q144 -41 213 -127q70 -88 70 -215q0 -183 -136 -292t-378 -109h-607zM741 1251h-362v-430h362q149 0 232 56q84 57 84 159q0 215 -316 215zM774 647h-395v-473h395q332 0 332 238
q0 112 -86 174q-85 61 -246 61z" />
    <glyph glyph-name="C" unicode="C" horiz-adv-x="1462" 
d="M100 713q0 215 86 385q81 166 236 264q149 94 346 94q254 0 403 -125q148 -124 201 -342h-203q-35 135 -137 211q-104 78 -264 78q-135 0 -244 -68q-108 -70 -166 -196q-59 -127 -59 -301q0 -172 59 -299t166 -197t244 -70q162 0 266 76q102 74 137 203h201
q-49 -205 -201 -332q-149 -125 -403 -125q-192 0 -346 97q-156 99 -236 262q-86 170 -86 385z" />
    <glyph glyph-name="D" unicode="D" horiz-adv-x="1499" 
d="M184 0v1425h514q199 0 359 -86q160 -91 250 -247q92 -164 92 -379q0 -217 -92 -377q-90 -160 -250 -248q-158 -88 -359 -88h-514zM379 174h307q142 0 258 64q115 64 186 184q70 119 70 291q0 174 -70 293q-69 118 -186 182q-114 63 -258 63h-307v-1077z" />
    <glyph glyph-name="E" unicode="E" horiz-adv-x="1312" 
d="M184 0v1425h990v-174h-795v-432h772v-174h-772v-471h805v-174h-1000z" />
    <glyph glyph-name="F" unicode="F" horiz-adv-x="1259" 
d="M184 0v1425h963v-174h-768v-467h743v-174h-743v-610h-195z" />
    <glyph glyph-name="G" unicode="G" horiz-adv-x="1536" 
d="M793 -31q-203 0 -363 97q-157 95 -242 264q-88 169 -88 383q0 216 88 385q88 168 246 264q155 94 357 94q228 0 385 -104q161 -109 225 -295h-205q-47 100 -152 160q-107 61 -253 61q-144 0 -254 -70q-111 -70 -175 -196q-63 -123 -63 -299t63 -299q62 -127 175 -197
q110 -70 260 -70q126 0 229 56q97 51 156 147q55 94 55 215v37h-446v174h641v-178q0 -180 -80 -322q-78 -141 -224 -225q-143 -82 -335 -82z" />
    <glyph glyph-name="H" unicode="H" horiz-adv-x="1570" 
d="M184 0v1425h195v-589h813v589h194v-1425h-194v662h-813v-662h-195z" />
    <glyph glyph-name="I" unicode="I" horiz-adv-x="563" 
d="M379 0h-195v1425h195v-1425z" />
    <glyph glyph-name="J" unicode="J" horiz-adv-x="1239" 
d="M881 444v981h194v-983q0 -136 -59 -245q-57 -106 -168 -166q-112 -62 -264 -62q-225 0 -363 123q-141 126 -162 324h195q15 -126 104 -197q90 -72 226 -72q133 0 215 82t82 215z" />
    <glyph glyph-name="K" unicode="K" horiz-adv-x="1351" 
d="M184 0v1425h195v-612l665 612h250l-751 -686l786 -739h-266l-684 643v-643h-195z" />
    <glyph glyph-name="L" unicode="L" horiz-adv-x="1232" 
d="M1151 174v-174h-967v1425h195v-1251h772z" />
    <glyph glyph-name="M" unicode="M" horiz-adv-x="1818" 
d="M375 0h-191v1425h213l516 -829l508 829h213v-1425h-192v1133l-533 -867l-534 862v-1128z" />
    <glyph glyph-name="N" unicode="N" horiz-adv-x="1566" 
d="M184 0v1425h193l813 -1118v1118h192v-1425h-192l-813 1118v-1118h-193z" />
    <glyph glyph-name="O" unicode="O" horiz-adv-x="1609" 
d="M805 -31q-153 0 -283 56q-132 57 -223 155q-92 99 -145 236q-54 139 -54 297t54 297q53 135 145 235q93 100 223 156q128 55 283 55q154 0 282 -55q132 -57 224 -156q96 -103 147 -235q51 -131 51 -297t-51 -297q-52 -133 -147 -236q-90 -97 -224 -155q-130 -56 -282 -56
zM805 147q146 0 262 72q112 69 178 201q66 129 66 293q0 163 -66 295q-66 129 -178 198q-116 72 -262 72q-144 0 -260 -72q-115 -71 -180 -198q-66 -132 -66 -295q0 -164 66 -293q65 -130 180 -201q116 -72 260 -72z" />
    <glyph glyph-name="P" unicode="P" horiz-adv-x="1349" 
d="M184 0v1425h525q275 0 415 -125q142 -127 142 -329q0 -205 -142 -332q-140 -125 -415 -125h-330v-514h-195zM379 688h303q196 0 291 74q94 73 94 209q0 134 -94 207t-291 73h-303v-563z" />
    <glyph glyph-name="Q" unicode="Q" horiz-adv-x="1609" 
d="M805 -31q-153 0 -283 56q-132 57 -223 155q-92 99 -145 236q-54 139 -54 297t54 297q53 135 145 235q93 100 223 156q128 55 283 55q154 0 282 -55q132 -57 224 -156q96 -103 147 -235q51 -131 51 -297q0 -179 -65 -330q-63 -146 -180 -248l221 -280h-207l-150 188
q-148 -74 -323 -74zM805 147q114 0 207 43l-230 293h207l158 -200q79 79 121 186q43 110 43 244q0 163 -66 295q-66 129 -178 198q-116 72 -262 72q-144 0 -260 -72q-115 -71 -180 -198q-66 -132 -66 -295q0 -164 66 -293q65 -130 180 -201q116 -72 260 -72z" />
    <glyph glyph-name="R" unicode="R" horiz-adv-x="1394" 
d="M184 0v1425h537q274 0 414 -116q139 -118 139 -324q0 -166 -88 -270q-86 -105 -228 -150l379 -565h-231l-354 535h-373v-535h-195zM379 709h319q194 0 285 73q92 71 92 205q0 131 -92 199q-92 65 -285 65h-319v-542z" />
    <glyph glyph-name="S" unicode="S" horiz-adv-x="1300" 
d="M664 -31q-231 0 -383 107q-157 109 -203 299h198q34 -108 136 -166q103 -62 250 -62q143 0 243 62q99 58 99 174q0 63 -27 113q-28 48 -94 82q-63 32 -195 51l-170 26q-206 35 -305 123q-98 88 -98 262q0 127 71 222q69 90 191 143q117 51 266 51q137 0 250 -43
q109 -41 188 -127q77 -86 101 -217h-199q-27 111 -115 160t-223 49q-150 0 -239 -59q-93 -63 -93 -168q0 -92 64 -144q63 -51 241 -78l160 -24q219 -35 322 -135q102 -102 102 -275q0 -137 -69 -229q-72 -97 -191 -146q-119 -51 -278 -51z" />
    <glyph glyph-name="T" unicode="T" horiz-adv-x="1370" 
d="M782 0h-194v1251h-506v174h1206v-174h-506v-1251z" />
    <glyph glyph-name="U" unicode="U" horiz-adv-x="1519" 
d="M760 -31q-195 0 -328 80q-134 78 -201 221t-67 338v817h194v-800q0 -220 99 -349q95 -129 303 -129q206 0 305 129q96 131 96 349v800h195v-817q0 -193 -68 -338q-67 -143 -201 -221q-133 -80 -327 -80z" />
    <glyph glyph-name="V" unicode="V" horiz-adv-x="1406" 
d="M1370 1425l-567 -1425h-199l-567 1425h211l461 -1192l456 1192h205z" />
    <glyph glyph-name="W" unicode="W" horiz-adv-x="2004" 
d="M489 0l-432 1425h203l332 -1144l319 1140h181l331 -1145l326 1149h199l-430 -1425h-187l-330 1124l-325 -1124h-187z" />
    <glyph glyph-name="X" unicode="X" horiz-adv-x="1419" 
d="M41 0l543 743l-490 682h240l379 -536l377 536h231l-492 -682l545 -743h-239l-435 600l-428 -600h-231z" />
    <glyph glyph-name="Y" unicode="Y" horiz-adv-x="1318" 
d="M563 0v549l-532 876h225l410 -690l403 690h217l-528 -872v-553h-195z" />
    <glyph glyph-name="Z" unicode="Z" horiz-adv-x="1271" 
d="M92 1425h1075v-165l-837 -1086h852v-174h-1090v166l838 1085h-838v174z" />
    <glyph glyph-name="bracketleft" unicode="[" horiz-adv-x="720" 
d="M193 -328v1833h452v-162h-272v-1509h272v-162h-452z" />
    <glyph glyph-name="backslash" unicode="\" horiz-adv-x="819" 
d="M795 -328h-185l-585 1833h184z" />
    <glyph glyph-name="bracketright" unicode="]" horiz-adv-x="720" 
d="M528 -328h-452v162h272v1509h-272v162h452v-1833z" />
    <glyph glyph-name="asciicircum" unicode="^" 
d="M150 817l393 721h170l393 -721h-180l-299 561l-297 -561h-180z" />
    <glyph glyph-name="underscore" unicode="_" horiz-adv-x="1024" 
d="M0 -387v164h1024v-164h-1024z" />
    <glyph glyph-name="grave" unicode="`" horiz-adv-x="1173" 
d="M588 1198l-176 318h196l156 -318h-176z" />
    <glyph glyph-name="a" unicode="a" horiz-adv-x="1095" 
d="M436 -29q-162 0 -260 88q-98 85 -98 236q0 161 117 250q113 88 327 88h248v45q0 128 -63 182q-65 53 -179 53q-96 0 -155 -36q-61 -37 -76 -91h-184q27 130 139 211q112 80 278 80q198 0 310 -100t112 -313v-664h-172v158q-55 -94 -149 -140q-90 -47 -195 -47zM477 131
q65 0 135 31q65 29 113 92q45 57 45 152v77h-235q-133 0 -201 -45q-72 -47 -72 -135q0 -82 60 -127q57 -45 155 -45z" />
    <glyph glyph-name="b" unicode="b" horiz-adv-x="1236" 
d="M154 0v1485h182v-600q56 89 143 141q86 51 201 51q140 0 246 -69q105 -70 164 -195q59 -127 59 -289t-59 -286q-57 -123 -164 -195q-106 -72 -246 -72q-114 0 -205 54q-86 51 -143 145v-170h-178zM647 139q139 0 227 107q89 106 89 278t-89 281q-88 104 -227 104
q-142 0 -229 -106q-90 -110 -90 -279q0 -168 90 -278q88 -107 229 -107z" />
    <glyph glyph-name="c" unicode="c" horiz-adv-x="1097" 
d="M588 -29q-149 0 -262 70t-174 195q-64 125 -64 288q0 162 64 287q62 128 174 197t262 69q182 0 295 -98q113 -101 137 -248h-191q-15 76 -75 127t-168 51q-139 0 -224 -104q-88 -107 -88 -281q0 -176 88 -280q86 -105 224 -105q106 0 170 49q60 45 75 127h189
q-15 -97 -72 -176q-58 -77 -147 -123q-89 -45 -213 -45z" />
    <glyph glyph-name="d" unicode="d" horiz-adv-x="1236" 
d="M557 -29q-141 0 -244 72q-108 71 -166 195q-59 124 -59 286t59 289q60 126 166 195q103 69 244 69q115 0 201 -51q87 -52 143 -141v600h182v-1485h-178v170q-57 -94 -143 -145q-91 -54 -205 -54zM590 139q143 0 231 107t88 278q0 172 -88 279q-87 106 -231 106
q-140 0 -228 -104q-88 -107 -88 -281t88 -278q88 -107 228 -107z" />
    <glyph glyph-name="e" unicode="e" horiz-adv-x="1140" 
d="M594 -29q-153 0 -268 68q-116 69 -176 192q-62 127 -62 295q0 156 62 283q59 127 172 197q112 71 266 71q149 0 252 -65q102 -68 155 -185q54 -123 54 -276v-86h-773q15 -162 97 -244q83 -86 223 -86q96 0 158 33q63 29 84 82h188q-38 -127 -154 -203t-278 -76zM586 913
q-130 0 -207 -77q-80 -80 -98 -220h583q-6 133 -73 215q-70 82 -205 82z" />
    <glyph glyph-name="f" unicode="f" horiz-adv-x="688" 
d="M35 1049h186v94q0 164 88 252q87 90 244 90h80v-164h-51q-85 0 -131 -49q-48 -54 -48 -142v-81h230v-164h-230v-885h-182v885h-186v164z" />
    <glyph glyph-name="g" unicode="g" horiz-adv-x="1236" 
d="M557 -6q-141 0 -244 69q-108 70 -166 193q-59 121 -59 279q0 156 59 280q58 123 166 193q103 69 244 69q119 0 205 -51q85 -50 143 -143v166h178v-1018q0 -230 -125 -355t-348 -125q-187 0 -315 84q-124 81 -162 215h197q34 -57 100 -94q67 -37 176 -37q142 0 219 74
q76 73 76 227v164q-54 -86 -143 -139q-86 -51 -201 -51zM590 162q96 0 166 49q71 47 112 131t41 195q0 110 -41 194t-112 131t-166 47q-93 0 -164 -47q-69 -46 -111 -131q-41 -84 -41 -194q0 -111 41 -195q42 -85 111 -131q70 -49 164 -49z" />
    <glyph glyph-name="h" unicode="h" horiz-adv-x="1177" 
d="M154 0v1485h182v-574q56 79 141 123q82 43 185 43q118 0 200 -55q78 -52 127 -152q45 -91 45 -221v-649h-182v614q0 138 -61 217q-63 78 -181 78q-78 0 -135 -32q-62 -33 -100 -99q-39 -62 -39 -157v-621h-182z" />
    <glyph glyph-name="i" unicode="i" horiz-adv-x="489" 
d="M246 1200q-53 0 -90 37t-37 90t37 90t90 37t90 -37t37 -90t-37 -90t-90 -37zM154 0v1049h182v-1049h-182z" />
    <glyph glyph-name="j" unicode="j" horiz-adv-x="489" 
d="M246 1200q-53 0 -90 37t-37 90t37 90t90 37t90 -37t37 -90t-37 -90t-90 -37zM-57 -420v164h55q78 0 117 51t39 139v1115h182v-1133q0 -158 -78 -248q-76 -88 -227 -88h-88z" />
    <glyph glyph-name="k" unicode="k" horiz-adv-x="1089" 
d="M154 0v1485h182v-875l461 439h231l-522 -496l567 -553h-239l-498 494v-494h-182z" />
    <glyph glyph-name="l" unicode="l" horiz-adv-x="489" 
d="M154 0v1485h182v-1485h-182z" />
    <glyph glyph-name="m" unicode="m" horiz-adv-x="1763" 
d="M154 0v1049h178v-129q106 157 299 157q104 0 180 -49q76 -52 119 -143q54 92 145 143q88 49 193 49q163 0 256 -112q96 -116 96 -308v-657h-182v633q0 130 -58 203t-157 73q-102 0 -172 -73q-72 -75 -72 -203v-633h-182v633q0 130 -58 203t-157 73q-104 0 -174 -73
q-72 -75 -72 -203v-633h-182z" />
    <glyph glyph-name="n" unicode="n" horiz-adv-x="1177" 
d="M336 621v-621h-182v1049h178v-142q53 79 141 127q85 43 189 43q118 0 200 -55q78 -52 127 -152q45 -91 45 -221v-649h-182v614q0 138 -61 217q-63 78 -181 78q-78 0 -135 -32q-62 -33 -100 -99q-39 -62 -39 -157z" />
    <glyph glyph-name="o" unicode="o" horiz-adv-x="1187" 
d="M594 -29q-149 0 -262 70q-114 71 -178 195q-66 129 -66 288q0 160 66 289q64 124 178 195q112 69 262 69t262 -69q117 -73 180 -195q64 -125 64 -289q0 -163 -64 -288q-63 -122 -180 -195q-113 -70 -262 -70zM594 139q142 0 231 105q88 104 88 280q0 177 -88 281
t-231 104q-141 0 -229 -104q-91 -108 -91 -281q0 -172 91 -280q88 -105 229 -105z" />
    <glyph glyph-name="p" unicode="p" horiz-adv-x="1236" 
d="M154 -420v1469h178v-170q57 94 143 145q89 53 205 53q140 0 246 -69q105 -70 164 -195q59 -127 59 -289t-59 -286q-57 -123 -164 -195q-106 -72 -246 -72q-113 0 -201 52q-87 52 -143 141v-584h-182zM647 139q139 0 227 107q89 106 89 278t-89 281q-88 104 -227 104
q-142 0 -229 -106q-90 -110 -90 -279q0 -168 90 -278q88 -107 229 -107z" />
    <glyph glyph-name="q" unicode="q" horiz-adv-x="1236" 
d="M557 -29q-141 0 -244 72q-108 71 -166 195q-59 124 -59 286t59 289q60 126 166 195q103 69 244 69q116 0 205 -53q86 -51 143 -145v170h178v-1469h-182v584q-56 -89 -143 -141q-88 -52 -201 -52zM590 139q143 0 231 107t88 278q0 172 -88 279q-87 106 -231 106
q-140 0 -228 -104q-88 -107 -88 -281t88 -278q88 -107 228 -107z" />
    <glyph glyph-name="r" unicode="r" horiz-adv-x="727" 
d="M336 530v-530h-182v1049h178v-187q50 92 129 144q79 49 178 49h33v-176h-37q-83 0 -148 -39q-69 -40 -110 -117t-41 -193z" />
    <glyph glyph-name="s" unicode="s" horiz-adv-x="1009" 
d="M524 -31q-184 0 -303 88q-119 84 -143 219h184q15 -58 86 -102q67 -43 172 -43q103 0 164 43q61 40 61 115q0 58 -43 98q-42 36 -147 51l-160 21q-297 37 -297 291q0 91 54 170q52 73 143 116q90 41 207 41q169 0 276 -82q108 -82 135 -209h-182q-21 63 -78 97
q-54 32 -147 32q-102 0 -160 -43q-61 -46 -61 -116q0 -60 43 -90q46 -31 141 -43l160 -21q149 -18 227 -102q76 -82 76 -205q0 -98 -53 -172q-51 -71 -146 -113q-89 -41 -209 -41z" />
    <glyph glyph-name="t" unicode="t" horiz-adv-x="700" 
d="M530 -8q-148 0 -229 84q-80 83 -80 241v568h-186v164h186v333q82 6 182 35v-368h230v-164h-230v-551q0 -85 43 -131q41 -47 117 -47h70v-164h-103z" />
    <glyph glyph-name="u" unicode="u" horiz-adv-x="1169" 
d="M834 424v625h182v-1049h-178v139q-53 -80 -131 -123q-77 -45 -179 -45q-179 0 -280 119q-105 120 -105 311v648h183v-625q0 -129 67 -205q65 -80 180 -80q109 0 185 76t76 209z" />
    <glyph glyph-name="v" unicode="v" horiz-adv-x="1069" 
d="M629 0h-189l-413 1049h206l306 -836l305 836h198z" />
    <glyph glyph-name="w" unicode="w" horiz-adv-x="1556" 
d="M375 0l-338 1049h188l242 -795l227 790h166l236 -792l237 797h187l-340 -1049h-168l-234 784l-235 -784h-168z" />
    <glyph glyph-name="x" unicode="x" horiz-adv-x="1075" 
d="M23 0l397 549l-359 500h226l260 -375l254 375h213l-359 -506l398 -543h-226l-297 416l-294 -416h-213z" />
    <glyph glyph-name="y" unicode="y" horiz-adv-x="1069" 
d="M268 -420l174 420l-415 1049h206l308 -834l303 834h198l-579 -1469h-195z" />
    <glyph glyph-name="z" unicode="z" horiz-adv-x="1024" 
d="M82 0v158l620 727h-620v164h850v-158l-619 -727h633v-164h-864z" />
    <glyph glyph-name="braceleft" unicode="{" horiz-adv-x="798" 
d="M600 -328q-148 0 -238 72q-88 73 -88 248v305q0 106 -36 156q-40 49 -125 49h-43v174h43q86 0 125 51q36 48 36 154v305q0 175 88 248q89 71 238 71h123v-162h-88q-85 0 -131 -38q-49 -40 -49 -150v-289q0 -130 -39 -186q-42 -63 -129 -90q87 -27 129 -90q39 -59 39 -189
v-288q0 -110 49 -150q48 -39 131 -39h88v-162h-123z" />
    <glyph glyph-name="bar" unicode="|" horiz-adv-x="649" 
d="M236 -244v1741h178v-1741h-178z" />
    <glyph glyph-name="braceright" unicode="}" horiz-adv-x="798" 
d="M199 -328h-123v162h88q83 0 131 39q49 40 49 150v288q0 127 41 189q42 64 127 90q-85 26 -127 90q-41 59 -41 186v289q0 110 -49 150q-46 38 -131 38h-88v162h123q148 0 237 -71q88 -73 88 -248v-305q0 -106 39 -154q36 -51 123 -51h43v-174h-43q-86 0 -123 -49
q-39 -51 -39 -156v-305q0 -175 -88 -248q-90 -72 -237 -72z" />
    <glyph glyph-name="asciitilde" unicode="~" 
d="M891 510q-76 0 -141 33q-72 31 -162 106q-77 61 -121 84q-48 25 -92 25q-63 0 -90 -37q-31 -42 -31 -107v-82h-166v93q0 137 76 219q74 80 198 80q71 0 144 -31q76 -39 160 -109q79 -63 120 -84q46 -24 93 -24q63 0 92 39q28 39 28 104v82h166v-92q0 -138 -73 -217
q-76 -82 -201 -82z" />
    <glyph glyph-name="uni00A0" unicode="&#xa0;" horiz-adv-x="477" 
 />
    <glyph glyph-name="exclamdown" unicode="&#xa1;" horiz-adv-x="571" 
d="M287 807q-55 0 -94 39q-41 41 -41 96t41 96q39 39 94 39q57 0 96 -39t39 -96t-39 -96t-96 -39zM188 -373l13 1022h172l12 -1022h-197z" />
    <glyph glyph-name="cent" unicode="&#xa2;" 
d="M580 -27v185q-130 22 -222 96q-99 80 -149 195q-53 118 -53 266q0 147 53 268q51 114 149 193q92 74 222 96v180h139v-176q158 -14 264 -113q102 -99 123 -235h-182q-15 78 -66 123q-54 47 -139 59v-791q176 21 207 181h180q-22 -142 -121 -234q-100 -97 -266 -112v-181
h-139zM340 715q0 -152 66 -256q65 -103 174 -133v778q-109 -30 -174 -133q-66 -104 -66 -256z" />
    <glyph glyph-name="sterling" unicode="&#xa3;" 
d="M117 0v150q114 114 159 219q46 104 46 217q0 17 -3 32h-204v166h161q-28 80 -45 146q-14 55 -14 137q0 111 55 199q51 86 154 139q99 51 238 51q168 0 284 -84q110 -82 164 -231h-197q-67 143 -243 143q-131 0 -197 -63q-67 -64 -67 -162q0 -51 16 -117q15 -66 49 -158
h473v-166h-440v-26q0 -117 -33 -215q-33 -102 -123 -205h789v-172h-1022z" />
    <glyph glyph-name="currency" unicode="&#xa4;" horiz-adv-x="1261" 
d="M186 162l-110 112l192 193q-36 47 -59 117q-21 62 -21 131q0 67 21 131q23 70 59 117l-192 192l110 113l193 -193q50 35 119 58q61 20 133 20q74 0 135 -20q66 -21 117 -58l192 193l111 -113l-193 -192q37 -48 60 -115q20 -61 20 -133q0 -70 -20 -131q-22 -68 -60 -117
l193 -193l-109 -112l-194 192q-49 -35 -117 -57q-64 -21 -135 -21q-69 0 -133 21q-72 23 -119 57zM631 444q78 0 139 37q59 33 98 97q35 62 35 137t-35 137q-37 61 -98 98q-62 35 -139 35t-139 -35q-64 -39 -97 -98q-37 -61 -37 -137t37 -137q35 -62 97 -97q61 -37 139 -37z
" />
    <glyph glyph-name="yen" unicode="&#xa5;" 
d="M532 0v268h-348v146h348v149h-348v146h273l-412 716h211l377 -694l373 694h202l-407 -716h272v-146h-350v-149h350v-146h-350v-268h-191z" />
    <glyph glyph-name="brokenbar" unicode="&#xa6;" horiz-adv-x="649" 
d="M236 1497h176v-717h-176v717zM412 -244h-176v717h176v-717z" />
    <glyph glyph-name="section" unicode="&#xa7;" horiz-adv-x="1128" 
d="M571 -156q-171 0 -280 86q-108 85 -129 224h178q12 -60 72 -105q57 -45 157 -45q102 0 154 43q51 39 51 115q0 70 -43 110q-44 41 -133 56l-170 30q-303 55 -303 291q0 98 55 174q52 73 139 117q-68 49 -96 109q-30 61 -30 137q0 93 49 166q50 70 135 114q85 43 196 43
q166 0 269 -86q102 -88 123 -221h-174q-15 59 -70 105q-55 43 -146 43t-147 -41q-57 -42 -57 -117q0 -74 45 -113q43 -43 123 -55l153 -25q143 -21 228 -106q81 -84 81 -209q0 -97 -49 -164q-50 -68 -129 -108q70 -42 99 -105q30 -64 30 -137q0 -92 -47 -166
q-45 -72 -131 -117q-85 -43 -203 -43zM659 481q64 15 115 60q49 40 49 116q0 82 -45 127q-46 43 -135 58l-178 30q-69 -19 -113 -69q-49 -52 -49 -123q0 -70 41 -111q42 -42 143 -57z" />
    <glyph glyph-name="dieresis" unicode="&#xa8;" horiz-adv-x="1173" 
d="M776 1235q-49 0 -84 35t-35 82q0 49 35 84q32 32 84 32t84 -32q35 -35 35 -84q0 -47 -35 -82t-84 -35zM399 1235q-49 0 -84 35q-34 34 -34 82q0 50 34 84q32 32 84 32q54 0 86 -32q33 -33 33 -84q0 -49 -33 -82q-35 -35 -86 -35z" />
    <glyph glyph-name="copyright" unicode="&#xa9;" horiz-adv-x="1656" 
d="M827 -31q-151 0 -284 56q-133 53 -230 153q-99 102 -151 236q-56 136 -56 299t56 299q52 133 151 235q97 100 230 156q133 53 284 53q152 0 285 -53q131 -55 229 -156q100 -103 154 -235q53 -136 53 -299t-53 -299q-55 -134 -154 -236q-98 -101 -229 -153
q-133 -56 -285 -56zM827 94q166 0 299 80t213 219q78 141 78 320q0 178 -78 319q-80 139 -213 219t-299 80t-299 -80q-136 -80 -213 -219t-77 -319q0 -181 77 -320t213 -219q133 -80 299 -80zM840 274q-120 0 -209 56q-92 57 -139 155q-52 98 -52 228q0 127 52 225
q48 96 139 156q88 55 209 55q143 0 235 -80q94 -82 109 -199h-164q-13 61 -57 97q-46 37 -125 37q-105 0 -170 -80q-66 -81 -66 -211q0 -135 66 -213q65 -80 170 -80q78 0 127 37q48 36 57 94h162q-15 -114 -107 -197q-92 -80 -237 -80z" />
    <glyph glyph-name="ordfeminine" unicode="&#xaa;" horiz-adv-x="917" 
d="M369 623q-132 0 -207 69q-80 71 -80 191q0 126 94 202q91 76 262 76h189v27q0 99 -47 143q-50 41 -136 41q-73 0 -118 -26q-49 -27 -64 -70h-153q21 103 112 170q86 63 225 63q158 0 246 -79q90 -81 90 -252v-531h-141v117q-49 -74 -119 -107q-72 -34 -153 -34zM406 758
q68 0 133 39q67 37 88 116v119h-181q-102 0 -151 -37q-51 -36 -51 -102q0 -64 43 -98q40 -37 119 -37z" />
    <glyph glyph-name="guillemotleft" unicode="&#xab;" horiz-adv-x="1075" 
d="M379 94l-275 424l275 424h182l-268 -424l268 -424h-182zM780 94l-274 424l274 424h183l-269 -424l269 -424h-183z" />
    <glyph glyph-name="logicalnot" unicode="&#xac;" 
d="M924 406v360h-772v160h938v-520h-166z" />
    <glyph glyph-name="uni00AD" unicode="&#xad;" horiz-adv-x="991" 
d="M168 512v162h655v-162h-655z" />
    <glyph glyph-name="registered" unicode="&#xae;" horiz-adv-x="1056" 
d="M528 543q-124 0 -227 59q-101 58 -160 164q-59 103 -59 233t59 236q60 105 160 162q103 59 227 59q127 0 230 -59q100 -57 160 -162q57 -102 57 -236t-57 -233q-59 -106 -160 -164q-103 -59 -230 -59zM528 647q100 0 174 45t121 125q43 76 43 182t-43 185
q-48 78 -121 123q-74 45 -174 45t-174 -45q-73 -45 -118 -123q-46 -79 -46 -185t46 -182q44 -80 118 -125t174 -45zM356 788v451h193q81 0 127 -43q45 -42 45 -111q0 -91 -82 -131l111 -166h-123l-92 148h-70v-148h-109zM465 1024h63q86 0 86 61q0 62 -86 62h-63v-123z" />
    <glyph glyph-name="macron" unicode="&#xaf;" horiz-adv-x="1173" 
d="M283 1438h614v-154h-614v154z" />
    <glyph glyph-name="degree" unicode="&#xb0;" horiz-adv-x="815" 
d="M408 887q-84 0 -152 41q-66 40 -106 106q-39 65 -39 152q0 86 39 151q43 71 106 109q65 39 152 39q86 0 151 -39t107 -109q39 -65 39 -151q0 -87 -39 -152t-107 -106t-151 -41zM408 1010q72 0 120 51q47 53 47 125t-47 125q-48 51 -120 51q-74 0 -119 -51
q-49 -52 -49 -125t49 -125q45 -51 119 -51z" />
    <glyph glyph-name="plusminus" unicode="&#xb1;" 
d="M158 0v160h938v-160h-938zM545 322v411h-387v160h387v412h166v-412h387v-160h-387v-411h-166z" />
    <glyph glyph-name="twosuperior" unicode="&#xb2;" horiz-adv-x="819" 
d="M100 819v125l336 279q71 62 92 94q25 39 25 78q0 49 -39 82q-41 30 -108 30q-65 0 -107 -28q-44 -30 -53 -80h-152q14 107 103 180q85 70 213 70q132 0 217 -70q84 -72 84 -180q0 -81 -43 -139q-48 -64 -138 -136l-211 -170h400v-135h-619z" />
    <glyph glyph-name="threesuperior" unicode="&#xb3;" horiz-adv-x="819" 
d="M416 801q-144 0 -226 61q-87 59 -108 168h158q16 -50 59 -72q43 -24 109 -24q61 0 112 31q47 27 47 90q0 56 -43 86q-45 28 -118 28h-99v125h94q65 0 109 29q39 26 39 80q0 59 -43 86q-44 27 -105 27q-58 0 -100 -25q-41 -23 -57 -68h-154q27 101 111 164q83 62 207 62
q119 0 208 -62q86 -65 86 -172q0 -129 -135 -176q76 -21 117 -74t41 -118q0 -76 -41 -132q-46 -58 -113 -84q-70 -30 -155 -30z" />
    <glyph glyph-name="acute" unicode="&#xb4;" horiz-adv-x="1173" 
d="M588 1198h-176l155 318h197z" />
    <glyph glyph-name="uni00B5" unicode="&#xb5;" horiz-adv-x="1222" 
d="M154 -420v1469h182v-625q0 -129 67 -205q65 -80 181 -80q108 0 184 76t76 209v625h182v-748q0 -145 121 -145h22v-164h-55q-193 0 -233 168q-41 -84 -113 -135q-72 -54 -180 -54q-93 0 -158 39q-67 40 -104 107v-537h-172z" />
    <glyph glyph-name="paragraph" unicode="&#xb6;" horiz-adv-x="1404" 
d="M682 -287v803h-37q-271 0 -416 127t-145 332q0 206 145 330q144 120 416 120h555v-1712h-168v1553h-182v-1553h-168z" />
    <glyph glyph-name="periodcentered" unicode="&#xb7;" horiz-adv-x="557" 
d="M279 614q-56 0 -95 39q-41 41 -41 97q0 55 41 96q39 39 95 39q57 0 96 -39t39 -96q0 -58 -39 -97t-96 -39z" />
    <glyph glyph-name="cedilla" unicode="&#xb8;" horiz-adv-x="1173" 
d="M401 -492v127h99q51 0 90 17q31 19 31 57q0 72 -111 72h-82l90 274h129l-61 -161q85 -3 139 -54q53 -53 53 -135q0 -94 -63 -145q-64 -52 -176 -52h-138z" />
    <glyph glyph-name="onesuperior" unicode="&#xb9;" horiz-adv-x="819" 
d="M389 819v647l-209 -61v143l361 99v-828h-152z" />
    <glyph glyph-name="ordmasculine" unicode="&#xba;" horiz-adv-x="991" 
d="M496 621q-122 0 -211 57q-93 60 -144 158q-51 96 -51 229q0 132 51 231q51 97 144 156q89 57 211 57t211 -57q91 -58 143 -156q51 -99 51 -231q0 -133 -51 -229q-51 -99 -143 -158q-89 -57 -211 -57zM496 762q106 0 178 84q69 81 69 219q0 140 -69 221q-70 82 -178 82
q-109 0 -179 -82q-69 -81 -69 -221q0 -138 69 -219q72 -84 179 -84z" />
    <glyph glyph-name="guillemotright" unicode="&#xbb;" horiz-adv-x="1075" 
d="M113 94l268 424l-268 424h182l274 -424l-274 -424h-182zM514 94l268 424l-268 424h182l275 -424l-275 -424h-182z" />
    <glyph glyph-name="onequarter" unicode="&#xbc;" horiz-adv-x="1925" 
d="M389 655v648l-209 -62v143l361 99v-828h-152zM440 0l930 1425h180l-929 -1425h-181zM1593 0v184h-422v117l420 512h148v-502h127v-127h-127v-184h-146zM1327 311h266v326z" />
    <glyph glyph-name="onehalf" unicode="&#xbd;" horiz-adv-x="1925" 
d="M389 655v648l-209 -62v143l361 99v-828h-152zM393 0l930 1425h180l-930 -1425h-180zM1206 0v125l336 278q70 61 92 95q25 39 25 77q0 49 -39 82q-42 31 -109 31q-63 0 -106 -29q-44 -30 -53 -79h-152q14 107 103 180q84 69 213 69q133 0 217 -69q84 -72 84 -180
q0 -82 -43 -140q-46 -62 -138 -135l-211 -170h400v-135h-619z" />
    <glyph glyph-name="threequarters" unicode="&#xbe;" horiz-adv-x="1925" 
d="M416 637q-144 0 -226 61q-87 59 -108 168h158q16 -49 59 -71q45 -25 109 -25q61 0 112 31q47 27 47 90q0 56 -43 86q-47 29 -118 29h-99v124h94q65 0 109 29q39 26 39 80q0 59 -43 86q-44 27 -105 27q-58 0 -100 -25q-42 -23 -57 -67h-154q26 100 111 163q83 62 207 62
q119 0 208 -62q86 -65 86 -172q0 -129 -135 -176q76 -21 117 -74t41 -118q0 -75 -41 -131q-46 -58 -113 -84q-73 -31 -155 -31zM469 0l930 1425h180l-930 -1425h-180zM1593 0v184h-422v117l420 512h148v-502h127v-127h-127v-184h-146zM1327 311h266v326z" />
    <glyph glyph-name="questiondown" unicode="&#xbf;" horiz-adv-x="1124" 
d="M612 807q-55 0 -94 39q-41 41 -41 96t41 96q39 39 94 39q58 0 97 -39t39 -96t-39 -96t-97 -39zM582 -403q-147 0 -246 51q-104 52 -162 137q-57 86 -57 197q0 110 57 190q61 87 188 160q81 49 113 84q38 41 49 78q11 46 11 79v76h182v-86q0 -61 -17 -127
q-17 -56 -65 -110q-46 -52 -137 -109q-72 -44 -117 -82q-40 -37 -55 -72q-15 -38 -15 -81q0 -87 76 -148q73 -61 203 -61t213 59q83 62 98 156h191q-18 -111 -82 -199q-65 -89 -172 -141q-105 -51 -256 -51z" />
    <glyph glyph-name="Agrave" unicode="&#xc0;" horiz-adv-x="1411" 
d="M1167 0l-149 383h-633l-147 -383h-201l569 1425h197l571 -1425h-207zM451 557h499l-250 647zM627 1577l-203 301h203l180 -301h-180z" />
    <glyph glyph-name="Aacute" unicode="&#xc1;" horiz-adv-x="1411" 
d="M1167 0l-149 383h-633l-147 -383h-201l569 1425h197l571 -1425h-207zM451 557h499l-250 647zM782 1577h-180l180 301h203z" />
    <glyph glyph-name="Acircumflex" unicode="&#xc2;" horiz-adv-x="1411" 
d="M1167 0l-149 383h-633l-147 -383h-201l569 1425h197l571 -1425h-207zM451 557h499l-250 647zM344 1577l254 301h213l254 -301h-193l-167 182l-168 -182h-193z" />
    <glyph glyph-name="Atilde" unicode="&#xc3;" horiz-adv-x="1411" 
d="M1167 0l-149 383h-633l-147 -383h-201l569 1425h197l571 -1425h-207zM451 557h499l-250 647zM862 1575q-38 0 -82 12q-44 11 -100 49q-36 24 -66 39q-26 13 -49 13q-69 0 -69 -70v-39h-148v68q0 90 55 145q56 53 144 53q37 0 84 -12q43 -12 98 -49q36 -24 66 -39
q24 -12 49 -12q69 0 69 67v41h148v-67q0 -92 -55 -144q-55 -55 -144 -55z" />
    <glyph glyph-name="Adieresis" unicode="&#xc4;" horiz-adv-x="1411" 
d="M1167 0l-149 383h-633l-147 -383h-201l569 1425h197l571 -1425h-207zM451 557h499l-250 647zM918 1612q-49 0 -84 35t-35 82q0 48 35 83q33 33 84 33q50 0 83 -33q35 -35 35 -83q0 -47 -35 -82t-83 -35zM492 1612q-49 0 -84 35t-35 82q0 48 35 83q33 33 84 33
q53 0 86 -33q32 -32 32 -83q0 -50 -32 -82q-35 -35 -86 -35z" />
    <glyph glyph-name="Aring" unicode="&#xc5;" horiz-adv-x="1411" 
d="M1167 0l-149 383h-633l-147 -383h-201l569 1425h197l571 -1425h-207zM451 557h499l-250 647zM705 1305q-74 0 -125 32q-54 34 -88 88q-33 53 -33 121t33 121q34 54 88 88q53 33 125 33q71 0 124 -33q56 -35 89 -88q32 -51 32 -121t-32 -121q-33 -53 -89 -88
q-51 -32 -124 -32zM705 1427q48 0 83 35q33 33 33 84q0 53 -33 86t-83 33q-51 0 -84 -33t-33 -86q0 -51 33 -84q35 -35 84 -35z" />
    <glyph glyph-name="AE" unicode="&#xc6;" horiz-adv-x="2170" 
d="M231 0h-217l940 1425h1078v-174h-795v-432h772v-174h-772v-471h805v-174h-1000v383h-565zM588 557h454v709z" />
    <glyph glyph-name="Ccedilla" unicode="&#xc7;" horiz-adv-x="1462" 
d="M100 713q0 215 86 385q81 166 236 264q149 94 346 94q254 0 403 -125q148 -124 201 -342h-203q-35 135 -137 211q-104 78 -264 78q-135 0 -244 -68q-108 -70 -166 -196q-59 -127 -59 -301q0 -172 59 -299t166 -197t244 -70q162 0 266 76q102 74 137 203h201
q-49 -205 -201 -332q-149 -125 -403 -125q-192 0 -346 97q-156 99 -236 262q-86 170 -86 385zM606 -492v127h99q51 0 90 17q30 18 30 57q0 72 -108 72h-84l88 258h127l-57 -145q85 -3 139 -54q53 -53 53 -135q0 -94 -63 -145q-64 -52 -177 -52h-137z" />
    <glyph glyph-name="Egrave" unicode="&#xc8;" horiz-adv-x="1312" 
d="M184 0v1425h990v-174h-795v-432h772v-174h-772v-471h805v-174h-1000zM600 1577l-203 301h203l180 -301h-180z" />
    <glyph glyph-name="Eacute" unicode="&#xc9;" horiz-adv-x="1312" 
d="M184 0v1425h990v-174h-795v-432h772v-174h-772v-471h805v-174h-1000zM756 1577h-181l181 301h202z" />
    <glyph glyph-name="Ecircumflex" unicode="&#xca;" horiz-adv-x="1312" 
d="M184 0v1425h990v-174h-795v-432h772v-174h-772v-471h805v-174h-1000zM317 1577l254 301h213l254 -301h-192l-168 182l-168 -182h-193z" />
    <glyph glyph-name="Edieresis" unicode="&#xcb;" horiz-adv-x="1312" 
d="M184 0v1425h990v-174h-795v-432h772v-174h-772v-471h805v-174h-1000zM891 1612q-49 0 -84 35t-35 82q0 48 35 83q33 33 84 33t84 -33q35 -35 35 -83q0 -47 -35 -82t-84 -35zM465 1612q-49 0 -84 35t-35 82q0 48 35 83q33 33 84 33q53 0 86 -33t33 -83q0 -49 -33 -82
q-35 -35 -86 -35z" />
    <glyph glyph-name="Igrave" unicode="&#xcc;" horiz-adv-x="563" 
d="M379 0h-195v1425h195v-1425zM203 1577l-203 301h203l180 -301h-180z" />
    <glyph glyph-name="Iacute" unicode="&#xcd;" horiz-adv-x="563" 
d="M379 0h-195v1425h195v-1425zM358 1577h-180l180 301h203z" />
    <glyph glyph-name="Icircumflex" unicode="&#xce;" horiz-adv-x="563" 
d="M379 0h-195v1425h195v-1425zM-80 1577l254 301h213l254 -301h-192l-168 182l-168 -182h-193z" />
    <glyph glyph-name="Idieresis" unicode="&#xcf;" horiz-adv-x="563" 
d="M379 0h-195v1425h195v-1425zM494 1612q-49 0 -84 35t-35 82q0 48 35 83q33 33 84 33t84 -33q34 -34 34 -83q0 -48 -34 -82q-35 -35 -84 -35zM68 1612q-49 0 -84 35t-35 82q0 48 35 83q33 33 84 33q53 0 86 -33q32 -32 32 -83q0 -50 -32 -82q-35 -35 -86 -35z" />
    <glyph glyph-name="Eth" unicode="&#xd0;" horiz-adv-x="1552" 
d="M238 0v668h-195v161h195v596h514q198 0 358 -86q160 -91 250 -247q92 -164 92 -379q0 -217 -92 -377q-90 -160 -250 -248q-158 -88 -358 -88h-514zM432 174h307q142 0 258 64q117 64 187 184q69 117 69 291q0 176 -69 293t-187 182q-114 63 -258 63h-307v-422h336v-161
h-336v-494z" />
    <glyph glyph-name="Ntilde" unicode="&#xd1;" horiz-adv-x="1566" 
d="M184 0v1425h193l813 -1118v1118h192v-1425h-192l-813 1118v-1118h-193zM940 1575q-38 0 -82 12q-44 11 -100 49q-36 24 -66 39q-26 13 -49 13q-70 0 -70 -70v-39h-147v68q0 90 55 145q56 53 144 53q37 0 84 -12q43 -12 98 -49q39 -26 65 -39q24 -12 50 -12q69 0 69 67v41
h148v-67q0 -91 -56 -144q-55 -55 -143 -55z" />
    <glyph glyph-name="Ograve" unicode="&#xd2;" horiz-adv-x="1609" 
d="M805 -31q-153 0 -283 56q-132 57 -223 155q-92 99 -145 236q-54 139 -54 297t54 297q53 135 145 235q93 100 223 156q128 55 283 55q154 0 282 -55q132 -57 224 -156q96 -103 147 -235q51 -131 51 -297t-51 -297q-52 -133 -147 -236q-90 -97 -224 -155q-130 -56 -282 -56
zM805 147q146 0 262 72q112 69 178 201q66 129 66 293q0 163 -66 295q-66 129 -178 198q-116 72 -262 72q-144 0 -260 -72q-115 -71 -180 -198q-66 -132 -66 -295q0 -164 66 -293q65 -130 180 -201q116 -72 260 -72zM727 1577l-203 301h203l180 -301h-180z" />
    <glyph glyph-name="Oacute" unicode="&#xd3;" horiz-adv-x="1609" 
d="M805 -31q-153 0 -283 56q-132 57 -223 155q-92 99 -145 236q-54 139 -54 297t54 297q53 135 145 235q93 100 223 156q128 55 283 55q154 0 282 -55q132 -57 224 -156q96 -103 147 -235q51 -131 51 -297t-51 -297q-52 -133 -147 -236q-90 -97 -224 -155q-130 -56 -282 -56
zM805 147q146 0 262 72q112 69 178 201q66 129 66 293q0 163 -66 295q-66 129 -178 198q-116 72 -262 72q-144 0 -260 -72q-115 -71 -180 -198q-66 -132 -66 -295q0 -164 66 -293q65 -130 180 -201q116 -72 260 -72zM883 1577h-181l181 301h202z" />
    <glyph glyph-name="Ocircumflex" unicode="&#xd4;" horiz-adv-x="1609" 
d="M805 -31q-153 0 -283 56q-132 57 -223 155q-92 99 -145 236q-54 139 -54 297t54 297q53 135 145 235q93 100 223 156q128 55 283 55q154 0 282 -55q132 -57 224 -156q96 -103 147 -235q51 -131 51 -297t-51 -297q-52 -133 -147 -236q-90 -97 -224 -155q-130 -56 -282 -56
zM805 147q146 0 262 72q112 69 178 201q66 129 66 293q0 163 -66 295q-66 129 -178 198q-116 72 -262 72q-144 0 -260 -72q-115 -71 -180 -198q-66 -132 -66 -295q0 -164 66 -293q65 -130 180 -201q116 -72 260 -72zM444 1577l254 301h213l254 -301h-192l-168 182l-168 -182
h-193z" />
    <glyph glyph-name="Otilde" unicode="&#xd5;" horiz-adv-x="1609" 
d="M805 -31q-153 0 -283 56q-132 57 -223 155q-92 99 -145 236q-54 139 -54 297t54 297q53 135 145 235q93 100 223 156q128 55 283 55q154 0 282 -55q132 -57 224 -156q96 -103 147 -235q51 -131 51 -297t-51 -297q-52 -133 -147 -236q-90 -97 -224 -155q-130 -56 -282 -56
zM805 147q146 0 262 72q112 69 178 201q66 129 66 293q0 163 -66 295q-66 129 -178 198q-116 72 -262 72q-144 0 -260 -72q-115 -71 -180 -198q-66 -132 -66 -295q0 -164 66 -293q65 -130 180 -201q116 -72 260 -72zM963 1575q-39 0 -82 12q-46 12 -101 49q-39 26 -65 39
t-49 13q-70 0 -70 -70v-39h-147v68q0 90 55 145q56 53 143 53q37 0 84 -12q43 -12 98 -49q36 -24 66 -39q24 -12 49 -12q70 0 70 67v41h147v-67q0 -92 -55 -144q-55 -55 -143 -55z" />
    <glyph glyph-name="Odieresis" unicode="&#xd6;" horiz-adv-x="1609" 
d="M805 -31q-153 0 -283 56q-132 57 -223 155q-92 99 -145 236q-54 139 -54 297t54 297q53 135 145 235q93 100 223 156q128 55 283 55q154 0 282 -55q132 -57 224 -156q96 -103 147 -235q51 -131 51 -297t-51 -297q-52 -133 -147 -236q-90 -97 -224 -155q-130 -56 -282 -56
zM805 147q146 0 262 72q112 69 178 201q66 129 66 293q0 163 -66 295q-66 129 -178 198q-116 72 -262 72q-144 0 -260 -72q-115 -71 -180 -198q-66 -132 -66 -295q0 -164 66 -293q65 -130 180 -201q116 -72 260 -72zM1018 1612q-49 0 -84 35t-35 82q0 48 35 83q33 33 84 33
t84 -33q35 -35 35 -83q0 -47 -35 -82t-84 -35zM592 1612q-49 0 -84 35t-35 82q0 48 35 83q33 33 84 33q53 0 86 -33t33 -83q0 -49 -33 -82q-35 -35 -86 -35z" />
    <glyph glyph-name="multiply" unicode="&#xd7;" 
d="M297 240l-113 110l332 332l-332 332l113 110l330 -329l331 329l113 -110l-332 -332l332 -332l-113 -110l-331 329z" />
    <glyph glyph-name="Oslash" unicode="&#xd8;" horiz-adv-x="1609" 
d="M168 -98l164 243q-109 103 -170 246q-62 145 -62 322q0 158 54 297q53 135 145 235q93 100 223 156q128 55 283 55q91 0 184 -22q78 -19 164 -64l102 154h187l-164 -244q109 -103 170 -246t61 -321q0 -166 -51 -297q-52 -133 -147 -236q-90 -97 -224 -155
q-130 -56 -282 -56q-87 0 -184 23q-82 19 -164 63l-103 -153h-186zM299 713q0 -125 37 -226q37 -104 104 -180l609 910q-107 61 -244 61q-144 0 -260 -72q-115 -71 -180 -198q-66 -132 -66 -295zM805 147q146 0 262 72q112 69 178 201q66 129 66 293q0 123 -37 227
q-37 101 -105 178l-608 -909q109 -62 244 -62z" />
    <glyph glyph-name="Ugrave" unicode="&#xd9;" horiz-adv-x="1519" 
d="M760 -31q-195 0 -328 80q-134 78 -201 221t-67 338v817h194v-800q0 -220 99 -349q95 -129 303 -129q206 0 305 129q96 131 96 349v800h195v-817q0 -193 -68 -338q-67 -143 -201 -221q-133 -80 -327 -80zM682 1577l-203 301h203l180 -301h-180z" />
    <glyph glyph-name="Uacute" unicode="&#xda;" horiz-adv-x="1519" 
d="M760 -31q-195 0 -328 80q-134 78 -201 221t-67 338v817h194v-800q0 -220 99 -349q95 -129 303 -129q206 0 305 129q96 131 96 349v800h195v-817q0 -193 -68 -338q-67 -143 -201 -221q-133 -80 -327 -80zM838 1577h-181l181 301h202z" />
    <glyph glyph-name="Ucircumflex" unicode="&#xdb;" horiz-adv-x="1519" 
d="M760 -31q-195 0 -328 80q-134 78 -201 221t-67 338v817h194v-800q0 -220 99 -349q95 -129 303 -129q206 0 305 129q96 131 96 349v800h195v-817q0 -193 -68 -338q-67 -143 -201 -221q-133 -80 -327 -80zM399 1577l254 301h213l254 -301h-192l-168 182l-168 -182h-193z
" />
    <glyph glyph-name="Udieresis" unicode="&#xdc;" horiz-adv-x="1519" 
d="M760 -31q-195 0 -328 80q-134 78 -201 221t-67 338v817h194v-800q0 -220 99 -349q95 -129 303 -129q206 0 305 129q96 131 96 349v800h195v-817q0 -193 -68 -338q-67 -143 -201 -221q-133 -80 -327 -80zM973 1612q-49 0 -84 35t-35 82q0 48 35 83q33 33 84 33t84 -33
q35 -35 35 -83q0 -47 -35 -82t-84 -35zM547 1612q-49 0 -84 35t-35 82q0 48 35 83q33 33 84 33q53 0 86 -33t33 -83q0 -49 -33 -82q-35 -35 -86 -35z" />
    <glyph glyph-name="Yacute" unicode="&#xdd;" horiz-adv-x="1318" 
d="M563 0v549l-532 876h225l410 -690l403 690h217l-528 -872v-553h-195zM735 1577h-180l180 301h203z" />
    <glyph glyph-name="Thorn" unicode="&#xde;" horiz-adv-x="1349" 
d="M184 0v1425h195v-251h330q274 0 415 -123q142 -127 142 -332t-142 -332q-140 -125 -415 -125h-330v-262h-195zM682 999h-303v-563h303q196 0 291 74q94 73 94 209q0 134 -94 207t-291 73z" />
    <glyph glyph-name="germandbls" unicode="&#xdf;" horiz-adv-x="1267" 
d="M154 0v973q0 246 133 379t352 133q135 0 233 -49q97 -49 154 -136q53 -89 53 -202q0 -116 -57 -191q-58 -78 -160 -119q142 -35 221 -133q78 -101 78 -241q0 -130 -57 -219q-58 -94 -164 -144q-102 -51 -244 -51h-186v164h170q132 0 213 69q82 67 82 199q0 125 -86 193
q-86 65 -230 65h-116v164h75q115 0 195 59t80 179q0 110 -70 168q-69 57 -184 57q-135 0 -219 -84q-84 -87 -84 -268v-965h-182z" />
    <glyph glyph-name="agrave" unicode="&#xe0;" horiz-adv-x="1095" 
d="M436 -29q-162 0 -260 88q-98 85 -98 236q0 161 117 250q113 88 327 88h248v45q0 128 -63 182q-65 53 -179 53q-96 0 -155 -36q-61 -37 -76 -91h-184q27 130 139 211q112 80 278 80q198 0 310 -100t112 -313v-664h-172v158q-55 -94 -149 -140q-90 -47 -195 -47zM477 131
q65 0 135 31q65 29 113 92q45 57 45 152v77h-235q-133 0 -201 -45q-72 -47 -72 -135q0 -82 60 -127q57 -45 155 -45zM471 1198l-176 318h197l155 -318h-176z" />
    <glyph glyph-name="aacute" unicode="&#xe1;" horiz-adv-x="1095" 
d="M436 -29q-162 0 -260 88q-98 85 -98 236q0 161 117 250q113 88 327 88h248v45q0 128 -63 182q-65 53 -179 53q-96 0 -155 -36q-61 -37 -76 -91h-184q27 130 139 211q112 80 278 80q198 0 310 -100t112 -313v-664h-172v158q-55 -94 -149 -140q-90 -47 -195 -47zM477 131
q65 0 135 31q65 29 113 92q45 57 45 152v77h-235q-133 0 -201 -45q-72 -47 -72 -135q0 -82 60 -127q57 -45 155 -45zM623 1198h-177l156 318h197z" />
    <glyph glyph-name="acircumflex" unicode="&#xe2;" horiz-adv-x="1095" 
d="M436 -29q-162 0 -260 88q-98 85 -98 236q0 161 117 250q113 88 327 88h248v45q0 128 -63 182q-65 53 -179 53q-96 0 -155 -36q-61 -37 -76 -91h-184q27 130 139 211q112 80 278 80q198 0 310 -100t112 -313v-664h-172v158q-55 -94 -149 -140q-90 -47 -195 -47zM477 131
q65 0 135 31q65 29 113 92q45 57 45 152v77h-235q-133 0 -201 -45q-72 -47 -72 -135q0 -82 60 -127q57 -45 155 -45zM199 1198l245 318h205l246 -318h-184l-164 197l-164 -197h-184z" />
    <glyph glyph-name="atilde" unicode="&#xe3;" horiz-adv-x="1095" 
d="M436 -29q-162 0 -260 88q-98 85 -98 236q0 161 117 250q113 88 327 88h248v45q0 128 -63 182q-65 53 -179 53q-96 0 -155 -36q-61 -37 -76 -91h-184q27 130 139 211q112 80 278 80q198 0 310 -100t112 -313v-664h-172v158q-55 -94 -149 -140q-90 -47 -195 -47zM477 131
q65 0 135 31q65 29 113 92q45 57 45 152v77h-235q-133 0 -201 -45q-72 -47 -72 -135q0 -82 60 -127q57 -45 155 -45zM700 1202q-37 0 -86 17q-51 17 -102 53q-49 33 -59 37q-19 8 -43 8q-64 0 -64 -70v-41h-143v68q0 90 53 143t135 53q45 0 88 -14q43 -15 101 -55
q46 -30 61 -37q19 -8 41 -8q63 0 63 69v41h144v-67q0 -91 -51 -142q-52 -55 -138 -55z" />
    <glyph glyph-name="adieresis" unicode="&#xe4;" horiz-adv-x="1095" 
d="M436 -29q-162 0 -260 88q-98 85 -98 236q0 161 117 250q113 88 327 88h248v45q0 128 -63 182q-65 53 -179 53q-96 0 -155 -36q-61 -37 -76 -91h-184q27 130 139 211q112 80 278 80q198 0 310 -100t112 -313v-664h-172v158q-55 -94 -149 -140q-90 -47 -195 -47zM477 131
q65 0 135 31q65 29 113 92q45 57 45 152v77h-235q-133 0 -201 -45q-72 -47 -72 -135q0 -82 60 -127q57 -45 155 -45zM735 1235q-49 0 -84 35t-35 82q0 49 35 84q32 32 84 32t84 -32q35 -35 35 -84q0 -47 -35 -82t-84 -35zM358 1235q-49 0 -84 35q-34 34 -34 82q0 50 34 84
q32 32 84 32q54 0 86 -32q33 -33 33 -84q0 -49 -33 -82q-35 -35 -86 -35z" />
    <glyph glyph-name="aring" unicode="&#xe5;" horiz-adv-x="1095" 
d="M436 -29q-162 0 -260 88q-98 85 -98 236q0 161 117 250q113 88 327 88h248v45q0 128 -63 182q-65 53 -179 53q-96 0 -155 -36q-61 -37 -76 -91h-184q27 130 139 211q112 80 278 80q198 0 310 -100t112 -313v-664h-172v158q-55 -94 -149 -140q-90 -47 -195 -47zM477 131
q65 0 135 31q65 29 113 92q45 57 45 152v77h-235q-133 0 -201 -45q-72 -47 -72 -135q0 -82 60 -127q57 -45 155 -45zM547 1161q-72 0 -125 33q-54 34 -88 88q-33 53 -33 121t33 121q34 54 88 88q53 33 125 33t125 -33q54 -34 88 -88q33 -53 33 -121t-33 -121
q-34 -54 -88 -88q-53 -33 -125 -33zM547 1284q49 0 84 35q33 33 33 84q0 53 -33 86t-84 33t-84 -33t-33 -86q0 -51 33 -84q35 -35 84 -35z" />
    <glyph glyph-name="ae" unicode="&#xe6;" horiz-adv-x="1824" 
d="M449 -29q-168 0 -269 88q-102 86 -102 236q0 157 115 246q115 86 323 86h254v51q0 128 -63 182q-65 53 -179 53q-96 0 -155 -36q-61 -37 -76 -91h-184q27 130 139 211q112 80 278 80q128 0 224 -47q91 -49 141 -158q66 110 164 158q103 47 215 47q147 0 250 -65
q102 -68 155 -185q54 -123 54 -274v-74h-772q9 -167 92 -256q82 -88 225 -88q98 0 160 33q63 29 84 82h188q-38 -127 -154 -203t-278 -76q-146 0 -252 62q-105 60 -168 176q-59 -119 -168 -176q-115 -62 -241 -62zM1270 913q-130 0 -205 -75q-79 -79 -100 -211h583
q-9 131 -78 209q-71 77 -200 77zM477 131q69 0 141 29q64 27 109 90q43 58 43 153v76h-238q-128 0 -198 -43q-72 -44 -72 -133q0 -82 60 -127q57 -45 155 -45z" />
    <glyph glyph-name="ccedilla" unicode="&#xe7;" horiz-adv-x="1097" 
d="M588 -29q-149 0 -262 70t-174 195q-64 125 -64 288q0 162 64 287q62 128 174 197t262 69q182 0 295 -98q113 -101 137 -248h-191q-15 76 -75 127t-168 51q-139 0 -224 -104q-88 -107 -88 -281q0 -176 88 -280q86 -105 224 -105q106 0 170 49q60 45 75 127h189
q-15 -97 -72 -176q-58 -77 -147 -123q-89 -45 -213 -45zM420 -492v127h98q51 0 90 17q31 19 31 57q0 72 -111 72h-82l91 274h129l-62 -161q85 -3 139 -54q54 -54 54 -135q0 -93 -64 -145t-176 -52h-137z" />
    <glyph glyph-name="egrave" unicode="&#xe8;" horiz-adv-x="1140" 
d="M594 -29q-153 0 -268 68q-116 69 -176 192q-62 127 -62 295q0 156 62 283q59 127 172 197q112 71 266 71q149 0 252 -65q102 -68 155 -185q54 -123 54 -276v-86h-773q15 -162 97 -244q83 -86 223 -86q96 0 158 33q63 29 84 82h188q-38 -127 -154 -203t-278 -76zM586 913
q-130 0 -207 -77q-80 -80 -98 -220h583q-6 133 -73 215q-70 82 -205 82zM494 1198l-177 318h197l156 -318h-176z" />
    <glyph glyph-name="eacute" unicode="&#xe9;" horiz-adv-x="1140" 
d="M594 -29q-153 0 -268 68q-116 69 -176 192q-62 127 -62 295q0 156 62 283q59 127 172 197q112 71 266 71q149 0 252 -65q102 -68 155 -185q54 -123 54 -276v-86h-773q15 -162 97 -244q83 -86 223 -86q96 0 158 33q63 29 84 82h188q-38 -127 -154 -203t-278 -76zM586 913
q-130 0 -207 -77q-80 -80 -98 -220h583q-6 133 -73 215q-70 82 -205 82zM645 1198h-176l156 318h196z" />
    <glyph glyph-name="ecircumflex" unicode="&#xea;" horiz-adv-x="1140" 
d="M594 -29q-153 0 -268 68q-116 69 -176 192q-62 127 -62 295q0 156 62 283q59 127 172 197q112 71 266 71q149 0 252 -65q102 -68 155 -185q54 -123 54 -276v-86h-773q15 -162 97 -244q83 -86 223 -86q96 0 158 33q63 29 84 82h188q-38 -127 -154 -203t-278 -76zM586 913
q-130 0 -207 -77q-80 -80 -98 -220h583q-6 133 -73 215q-70 82 -205 82zM221 1198l246 318h205l246 -318h-185l-164 197l-163 -197h-185z" />
    <glyph glyph-name="edieresis" unicode="&#xeb;" horiz-adv-x="1140" 
d="M594 -29q-153 0 -268 68q-116 69 -176 192q-62 127 -62 295q0 156 62 283q59 127 172 197q112 71 266 71q149 0 252 -65q102 -68 155 -185q54 -123 54 -276v-86h-773q15 -162 97 -244q83 -86 223 -86q96 0 158 33q63 29 84 82h188q-38 -127 -154 -203t-278 -76zM586 913
q-130 0 -207 -77q-80 -80 -98 -220h583q-6 133 -73 215q-70 82 -205 82zM758 1235q-49 0 -84 35t-35 82q0 49 35 84q32 32 84 32t84 -32q35 -35 35 -84q0 -47 -35 -82t-84 -35zM381 1235q-49 0 -84 35t-35 82q0 49 35 84q32 32 84 32q54 0 86 -32q33 -33 33 -84
q0 -49 -33 -82q-35 -35 -86 -35z" />
    <glyph glyph-name="igrave" unicode="&#xec;" horiz-adv-x="489" 
d="M154 0v1049h182v-1049h-182zM170 1198l-176 318h196l156 -318h-176z" />
    <glyph glyph-name="iacute" unicode="&#xed;" horiz-adv-x="489" 
d="M154 0v1049h182v-1049h-182zM322 1198h-177l156 318h197z" />
    <glyph glyph-name="icircumflex" unicode="&#xee;" horiz-adv-x="489" 
d="M154 0v1049h182v-1049h-182zM-72 1198l215 318h205l215 -318h-184l-133 184l-133 -184h-185z" />
    <glyph glyph-name="idieresis" unicode="&#xef;" horiz-adv-x="489" 
d="M154 0v1049h182v-1049h-182zM74 1233q-48 0 -86 35q-33 33 -33 84t33 84q35 32 86 32q52 0 84 -32q35 -35 35 -84t-35 -84t-84 -35zM418 1233q-49 0 -84 35t-35 84t35 84q32 32 84 32q54 0 86 -32q33 -33 33 -84t-33 -84q-35 -35 -86 -35z" />
    <glyph glyph-name="eth" unicode="&#xf0;" horiz-adv-x="1193" 
d="M594 -31q-147 0 -262 68q-113 67 -178 188q-66 123 -66 273q0 159 64 278q66 122 174 185q109 65 241 65q104 0 187 -45q87 -47 145 -129q-23 96 -68 184t-116 168l-301 -96v141l192 62q-91 82 -237 174h252q89 -59 155 -119l289 92v-141l-184 -60q118 -141 168 -323
q47 -180 47 -395q0 -181 -64 -306q-64 -129 -178 -196q-115 -68 -260 -68zM594 137q139 0 227 101q88 98 88 260q0 108 -43 190q-42 79 -114 127q-68 45 -158 45q-142 0 -229 -100q-91 -105 -91 -262q0 -158 91 -260q88 -101 229 -101z" />
    <glyph glyph-name="ntilde" unicode="&#xf1;" horiz-adv-x="1177" 
d="M336 621v-621h-182v1049h178v-142q53 79 141 127q85 43 189 43q118 0 200 -55q78 -52 127 -152q45 -91 45 -221v-649h-182v614q0 138 -61 217q-63 78 -181 78q-78 0 -135 -32q-62 -33 -100 -99q-39 -62 -39 -157zM750 1202q-37 0 -86 17q-53 18 -103 53q-49 33 -59 37
q-19 8 -43 8q-64 0 -64 -70v-41h-143v68q0 90 53 143t135 53q45 0 88 -14q43 -15 101 -55q46 -30 61 -37q19 -8 41 -8q64 0 64 69v41h143v-67q0 -91 -51 -142q-52 -55 -137 -55z" />
    <glyph glyph-name="ograve" unicode="&#xf2;" horiz-adv-x="1187" 
d="M594 -29q-149 0 -262 70q-114 71 -178 195q-66 129 -66 288q0 160 66 289q64 124 178 195q112 69 262 69t262 -69q117 -73 180 -195q64 -125 64 -289q0 -163 -64 -288q-63 -122 -180 -195q-113 -70 -262 -70zM594 139q142 0 231 105q88 104 88 280q0 177 -88 281
t-231 104q-141 0 -229 -104q-91 -108 -91 -281q0 -172 91 -280q88 -105 229 -105zM518 1198l-176 318h197l155 -318h-176z" />
    <glyph glyph-name="oacute" unicode="&#xf3;" horiz-adv-x="1187" 
d="M594 -29q-149 0 -262 70q-114 71 -178 195q-66 129 -66 288q0 160 66 289q64 124 178 195q112 69 262 69t262 -69q117 -73 180 -195q64 -125 64 -289q0 -163 -64 -288q-63 -122 -180 -195q-113 -70 -262 -70zM594 139q142 0 231 105q88 104 88 280q0 177 -88 281
t-231 104q-141 0 -229 -104q-91 -108 -91 -281q0 -172 91 -280q88 -105 229 -105zM670 1198h-176l155 318h197z" />
    <glyph glyph-name="ocircumflex" unicode="&#xf4;" horiz-adv-x="1187" 
d="M594 -29q-149 0 -262 70q-114 71 -178 195q-66 129 -66 288q0 160 66 289q64 124 178 195q112 69 262 69t262 -69q117 -73 180 -195q64 -125 64 -289q0 -163 -64 -288q-63 -122 -180 -195q-113 -70 -262 -70zM594 139q142 0 231 105q88 104 88 280q0 177 -88 281
t-231 104q-141 0 -229 -104q-91 -108 -91 -281q0 -172 91 -280q88 -105 229 -105zM246 1198l246 318h204l246 -318h-184l-164 197l-164 -197h-184z" />
    <glyph glyph-name="otilde" unicode="&#xf5;" horiz-adv-x="1187" 
d="M594 -29q-149 0 -262 70q-114 71 -178 195q-66 129 -66 288q0 160 66 289q64 124 178 195q112 69 262 69t262 -69q117 -73 180 -195q64 -125 64 -289q0 -163 -64 -288q-63 -122 -180 -195q-113 -70 -262 -70zM594 139q142 0 231 105q88 104 88 280q0 177 -88 281
t-231 104q-141 0 -229 -104q-91 -108 -91 -281q0 -172 91 -280q88 -105 229 -105zM748 1202q-37 0 -86 17q-53 18 -103 53q-49 33 -59 37q-19 8 -43 8q-64 0 -64 -70v-41h-143v68q0 90 53 143t135 53q45 0 88 -14q43 -15 101 -55q46 -30 61 -37q19 -8 41 -8q64 0 64 69v41
h143v-67q0 -91 -51 -142q-52 -55 -137 -55z" />
    <glyph glyph-name="odieresis" unicode="&#xf6;" horiz-adv-x="1187" 
d="M594 -29q-149 0 -262 70q-114 71 -178 195q-66 129 -66 288q0 160 66 289q64 124 178 195q112 69 262 69t262 -69q117 -73 180 -195q64 -125 64 -289q0 -163 -64 -288q-63 -122 -180 -195q-113 -70 -262 -70zM594 139q142 0 231 105q88 104 88 280q0 177 -88 281
t-231 104q-141 0 -229 -104q-91 -108 -91 -281q0 -172 91 -280q88 -105 229 -105zM782 1235q-49 0 -84 35q-34 34 -34 82q0 50 34 84q32 32 84 32t84 -32q35 -35 35 -84q0 -47 -35 -82t-84 -35zM406 1235q-49 0 -84 35t-35 82q0 49 35 84q32 32 84 32q54 0 86 -32t32 -84
q0 -50 -32 -82q-35 -35 -86 -35z" />
    <glyph glyph-name="divide" unicode="&#xf7;" 
d="M627 956q-47 0 -82 35q-33 33 -33 80t33 80t82 33t82 -33q32 -32 32 -80t-32 -80q-35 -35 -82 -35zM158 604v160h938v-160h-938zM627 184q-47 0 -82 35q-33 33 -33 80t33 80t82 33t82 -33q32 -32 32 -80t-32 -80q-35 -35 -82 -35z" />
    <glyph glyph-name="oslash" unicode="&#xf8;" horiz-adv-x="1187" 
d="M113 -98l133 207q-77 74 -117 180q-41 109 -41 235q0 160 66 289q64 124 178 195q112 69 262 69q124 0 233 -53l78 123h170l-133 -207q77 -74 117 -180q41 -109 41 -236q0 -163 -64 -288q-63 -122 -180 -195q-113 -70 -262 -70q-123 0 -234 54l-77 -123h-170zM272 524
q0 -151 72 -258l391 613q-60 32 -141 32q-144 0 -232 -104q-90 -110 -90 -283zM594 137q143 0 231 107q90 107 90 280q0 152 -71 258l-391 -612q62 -33 141 -33z" />
    <glyph glyph-name="ugrave" unicode="&#xf9;" horiz-adv-x="1169" 
d="M834 424v625h182v-1049h-178v139q-53 -80 -131 -123q-77 -45 -179 -45q-179 0 -280 119q-105 120 -105 311v648h183v-625q0 -129 67 -205q65 -80 180 -80q109 0 185 76t76 209zM506 1198l-176 318h196l156 -318h-176z" />
    <glyph glyph-name="uacute" unicode="&#xfa;" horiz-adv-x="1169" 
d="M834 424v625h182v-1049h-178v139q-53 -80 -131 -123q-77 -45 -179 -45q-179 0 -280 119q-105 120 -105 311v648h183v-625q0 -129 67 -205q65 -80 180 -80q109 0 185 76t76 209zM657 1198h-176l156 318h197z" />
    <glyph glyph-name="ucircumflex" unicode="&#xfb;" horiz-adv-x="1169" 
d="M834 424v625h182v-1049h-178v139q-53 -80 -131 -123q-77 -45 -179 -45q-179 0 -280 119q-105 120 -105 311v648h183v-625q0 -129 67 -205q65 -80 180 -80q109 0 185 76t76 209zM233 1198l246 318h205l246 -318h-185l-163 197l-164 -197h-185z" />
    <glyph glyph-name="udieresis" unicode="&#xfc;" horiz-adv-x="1169" 
d="M834 424v625h182v-1049h-178v139q-53 -80 -131 -123q-77 -45 -179 -45q-179 0 -280 119q-105 120 -105 311v648h183v-625q0 -129 67 -205q65 -80 180 -80q109 0 185 76t76 209zM770 1235q-49 0 -84 35t-35 82q0 49 35 84q32 32 84 32t84 -32q35 -35 35 -84q0 -47 -35 -82
t-84 -35zM393 1235q-49 0 -84 35t-35 82q0 49 35 84q32 32 84 32q54 0 86 -32q33 -33 33 -84q0 -49 -33 -82q-35 -35 -86 -35z" />
    <glyph glyph-name="yacute" unicode="&#xfd;" horiz-adv-x="1069" 
d="M268 -420l174 420l-415 1049h206l308 -834l303 834h198l-579 -1469h-195zM614 1198h-176l156 318h197z" />
    <glyph glyph-name="thorn" unicode="&#xfe;" horiz-adv-x="1236" 
d="M154 -420v1905h182v-600q56 89 143 141q86 51 201 51q140 0 246 -69q105 -70 164 -195q59 -127 59 -289t-59 -286q-57 -123 -164 -195q-106 -72 -246 -72q-113 0 -201 52q-87 52 -143 141v-584h-182zM647 139q139 0 227 107q89 106 89 278t-89 281q-88 104 -227 104
q-142 0 -229 -106q-90 -110 -90 -279q0 -168 90 -278q88 -107 229 -107z" />
    <glyph glyph-name="ydieresis" unicode="&#xff;" horiz-adv-x="1069" 
d="M268 -420l174 420l-415 1049h206l308 -834l303 834h198l-579 -1469h-195zM727 1235q-49 0 -84 35t-35 82q0 49 35 84q32 32 84 32t84 -32q35 -35 35 -84q0 -47 -35 -82t-84 -35zM350 1235q-49 0 -84 35t-35 82q0 49 35 84q32 32 84 32q54 0 86 -32q33 -33 33 -84
q0 -49 -33 -82q-35 -35 -86 -35z" />
    <glyph glyph-name="Amacron" unicode="&#x100;" horiz-adv-x="1411" 
d="M1167 0l-149 383h-633l-147 -383h-201l569 1425h197l571 -1425h-207zM451 557h499l-250 647zM385 1812h639v-155h-639v155z" />
    <glyph glyph-name="amacron" unicode="&#x101;" horiz-adv-x="1095" 
d="M436 -29q-162 0 -260 88q-98 85 -98 236q0 161 117 250q113 88 327 88h248v45q0 128 -63 182q-65 53 -179 53q-96 0 -155 -36q-61 -37 -76 -91h-184q27 130 139 211q112 80 278 80q198 0 310 -100t112 -313v-664h-172v158q-55 -94 -149 -140q-90 -47 -195 -47zM477 131
q65 0 135 31q65 29 113 92q45 57 45 152v77h-235q-133 0 -201 -45q-72 -47 -72 -135q0 -82 60 -127q57 -45 155 -45zM240 1438h614v-154h-614v154z" />
    <glyph glyph-name="Abreve" unicode="&#x102;" horiz-adv-x="1411" 
d="M1167 0l-149 383h-633l-147 -383h-201l569 1425h197l571 -1425h-207zM451 557h499l-250 647zM705 1569q-142 0 -238 84q-98 82 -107 221h166q9 -72 58 -115q45 -45 121 -45q74 0 122 45q47 44 56 115h166q-9 -137 -105 -221q-101 -84 -239 -84z" />
    <glyph glyph-name="abreve" unicode="&#x103;" horiz-adv-x="1095" 
d="M436 -29q-162 0 -260 88q-98 85 -98 236q0 161 117 250q113 88 327 88h248v45q0 128 -63 182q-65 53 -179 53q-96 0 -155 -36q-61 -37 -76 -91h-184q27 130 139 211q112 80 278 80q198 0 310 -100t112 -313v-664h-172v158q-55 -94 -149 -140q-90 -47 -195 -47zM477 131
q65 0 135 31q65 29 113 92q45 57 45 152v77h-235q-133 0 -201 -45q-72 -47 -72 -135q0 -82 60 -127q57 -45 155 -45zM547 1192q-140 0 -232 86q-93 84 -102 233h164q9 -85 53 -129q47 -47 117 -47t117 47q44 44 53 129h164q-9 -148 -103 -233q-92 -86 -231 -86z" />
    <glyph glyph-name="Aogonek" unicode="&#x104;" horiz-adv-x="1411" 
d="M1167 0l-149 383h-633l-147 -383h-201l569 1425h197l571 -1425h-207zM451 557h499l-250 647zM1284 -492q-126 0 -197 62q-73 61 -73 160q0 194 260 317l82 -47q-101 -64 -139 -123q-39 -56 -39 -115q0 -58 41 -88t100 -30h65v-136h-100z" />
    <glyph glyph-name="aogonek" unicode="&#x105;" horiz-adv-x="1095" 
d="M436 -29q-162 0 -260 88q-98 85 -98 236q0 161 117 250q113 88 327 88h248v45q0 128 -63 182q-65 53 -179 53q-96 0 -155 -36q-61 -37 -76 -91h-184q27 130 139 211q112 80 278 80q198 0 310 -100t112 -313v-664h-172v158q-55 -94 -149 -140q-90 -47 -195 -47zM477 131
q65 0 135 31q65 29 113 92q45 57 45 152v77h-235q-133 0 -201 -45q-72 -47 -72 -135q0 -82 60 -127q57 -45 155 -45zM879 -492q-126 0 -197 62q-74 62 -74 160q0 194 260 317l82 -47q-101 -64 -139 -123q-39 -56 -39 -115q0 -58 41 -88t100 -30h66v-136h-100z" />
    <glyph glyph-name="Cacute" unicode="&#x106;" horiz-adv-x="1462" 
d="M100 713q0 215 86 385q81 166 236 264q149 94 346 94q254 0 403 -125q148 -124 201 -342h-203q-35 135 -137 211q-104 78 -264 78q-135 0 -244 -68q-108 -70 -166 -196q-59 -127 -59 -301q0 -172 59 -299t166 -197t244 -70q162 0 266 76q102 74 137 203h201
q-49 -205 -201 -332q-149 -125 -403 -125q-192 0 -346 97q-156 99 -236 262q-86 170 -86 385zM846 1577h-180l180 301h203z" />
    <glyph glyph-name="cacute" unicode="&#x107;" horiz-adv-x="1097" 
d="M588 -29q-149 0 -262 70t-174 195q-64 125 -64 288q0 162 64 287q62 128 174 197t262 69q182 0 295 -98q113 -101 137 -248h-191q-15 76 -75 127t-168 51q-139 0 -224 -104q-88 -107 -88 -281q0 -176 88 -280q86 -105 224 -105q106 0 170 49q60 45 75 127h189
q-15 -97 -72 -176q-58 -77 -147 -123q-89 -45 -213 -45zM664 1198h-177l156 318h197z" />
    <glyph glyph-name="Ccircumflex" unicode="&#x108;" horiz-adv-x="1462" 
d="M100 713q0 215 86 385q81 166 236 264q149 94 346 94q254 0 403 -125q148 -124 201 -342h-203q-35 135 -137 211q-104 78 -264 78q-135 0 -244 -68q-108 -70 -166 -196q-59 -127 -59 -301q0 -172 59 -299t166 -197t244 -70q162 0 266 76q102 74 137 203h201
q-49 -205 -201 -332q-149 -125 -403 -125q-192 0 -346 97q-156 99 -236 262q-86 170 -86 385zM408 1577l254 301h212l254 -301h-192l-168 182l-168 -182h-192z" />
    <glyph glyph-name="ccircumflex" unicode="&#x109;" horiz-adv-x="1097" 
d="M588 -29q-149 0 -262 70t-174 195q-64 125 -64 288q0 162 64 287q62 128 174 197t262 69q182 0 295 -98q113 -101 137 -248h-191q-15 76 -75 127t-168 51q-139 0 -224 -104q-88 -107 -88 -281q0 -176 88 -280q86 -105 224 -105q106 0 170 49q60 45 75 127h189
q-15 -97 -72 -176q-58 -77 -147 -123q-89 -45 -213 -45zM240 1198l245 318h205l246 -318h-184l-164 197l-164 -197h-184z" />
    <glyph glyph-name="Cdotaccent" unicode="&#x10a;" horiz-adv-x="1462" 
d="M100 713q0 215 86 385q81 166 236 264q149 94 346 94q254 0 403 -125q148 -124 201 -342h-203q-35 135 -137 211q-104 78 -264 78q-135 0 -244 -68q-108 -70 -166 -196q-59 -127 -59 -301q0 -172 59 -299t166 -197t244 -70q162 0 266 76q102 74 137 203h201
q-49 -205 -201 -332q-149 -125 -403 -125q-192 0 -346 97q-156 99 -236 262q-86 170 -86 385zM768 1599q-54 0 -88 37q-37 34 -37 88t37 91q34 34 88 34q53 0 90 -34q35 -38 35 -91t-35 -88q-37 -37 -90 -37z" />
    <glyph glyph-name="cdotaccent" unicode="&#x10b;" horiz-adv-x="1097" 
d="M588 -29q-149 0 -262 70t-174 195q-64 125 -64 288q0 162 64 287q62 128 174 197t262 69q182 0 295 -98q113 -101 137 -248h-191q-15 76 -75 127t-168 51q-139 0 -224 -104q-88 -107 -88 -281q0 -176 88 -280q86 -105 224 -105q106 0 170 49q60 45 75 127h189
q-15 -97 -72 -176q-58 -77 -147 -123q-89 -45 -213 -45zM588 1229q-54 0 -88 37q-37 37 -37 88t37 88q34 37 88 37q53 0 90 -37q35 -38 35 -88t-35 -88q-37 -37 -90 -37z" />
    <glyph glyph-name="Ccaron" unicode="&#x10c;" horiz-adv-x="1462" 
d="M100 713q0 215 86 385q81 166 236 264q149 94 346 94q254 0 403 -125q148 -124 201 -342h-203q-35 135 -137 211q-104 78 -264 78q-135 0 -244 -68q-108 -70 -166 -196q-59 -127 -59 -301q0 -172 59 -299t166 -197t244 -70q162 0 266 76q102 74 137 203h201
q-49 -205 -201 -332q-149 -125 -403 -125q-192 0 -346 97q-156 99 -236 262q-86 170 -86 385zM662 1577l-254 301h192l168 -182l168 182h192l-254 -301h-212z" />
    <glyph glyph-name="ccaron" unicode="&#x10d;" horiz-adv-x="1097" 
d="M588 -29q-149 0 -262 70t-174 195q-64 125 -64 288q0 162 64 287q62 128 174 197t262 69q182 0 295 -98q113 -101 137 -248h-191q-15 76 -75 127t-168 51q-139 0 -224 -104q-88 -107 -88 -281q0 -176 88 -280q86 -105 224 -105q106 0 170 49q60 45 75 127h189
q-15 -97 -72 -176q-58 -77 -147 -123q-89 -45 -213 -45zM485 1198l-245 318h184l164 -197l164 197h184l-246 -318h-205z" />
    <glyph glyph-name="Dcaron" unicode="&#x10e;" horiz-adv-x="1499" 
d="M184 0v1425h514q199 0 359 -86q160 -91 250 -247q92 -164 92 -379q0 -217 -92 -377q-90 -160 -250 -248q-158 -88 -359 -88h-514zM379 174h307q142 0 258 64q115 64 186 184q70 119 70 291q0 174 -70 293q-69 118 -186 182q-114 63 -258 63h-307v-1077zM616 1577
l-254 301h193l168 -182l168 182h192l-254 -301h-213z" />
    <glyph glyph-name="dcaron" unicode="&#x10f;" horiz-adv-x="1406" 
d="M557 -29q-141 0 -244 72q-108 71 -166 195q-59 124 -59 286t59 289q60 126 166 195q103 69 244 69q115 0 201 -51q87 -52 143 -141v600h182v-1485h-178v170q-57 -94 -143 -145q-91 -54 -205 -54zM590 139q143 0 231 107t88 278q0 172 -88 279q-87 106 -231 106
q-140 0 -228 -104q-88 -107 -88 -281t88 -278q88 -107 228 -107zM1233 1024l12 461h178l-47 -461h-143z" />
    <glyph glyph-name="Dcroat" unicode="&#x110;" horiz-adv-x="1552" 
d="M238 0v668h-195v161h195v596h514q198 0 358 -86q160 -91 250 -247q92 -164 92 -379q0 -217 -92 -377q-90 -160 -250 -248q-158 -88 -358 -88h-514zM432 174h307q142 0 258 64q117 64 187 184q69 117 69 291q0 176 -69 293t-187 182q-114 63 -258 63h-307v-422h336v-161
h-336v-494z" />
    <glyph glyph-name="dcroat" unicode="&#x111;" horiz-adv-x="1257" 
d="M557 -29q-136 0 -240 70q-104 65 -167 188q-62 121 -62 275q0 155 62 276q63 123 167 191q104 67 240 67q113 0 201 -49q86 -53 143 -139v324h-311v141h311v170h182v-170h158v-141h-158v-1174h-178v164q-54 -86 -143 -139q-86 -54 -205 -54zM592 139q90 0 164 47
q70 46 114 129q41 84 41 189q0 108 -41 192q-44 82 -114 129q-71 45 -164 45q-94 0 -162 -45q-73 -48 -113 -129q-43 -82 -43 -192q0 -107 43 -189q40 -81 113 -129q71 -47 162 -47z" />
    <glyph glyph-name="Emacron" unicode="&#x112;" horiz-adv-x="1312" 
d="M184 0v1425h990v-174h-795v-432h772v-174h-772v-471h805v-174h-1000zM358 1812h639v-155h-639v155z" />
    <glyph glyph-name="emacron" unicode="&#x113;" horiz-adv-x="1140" 
d="M594 -29q-153 0 -268 68q-116 69 -176 192q-62 127 -62 295q0 156 62 283q59 127 172 197q112 71 266 71q149 0 252 -65q102 -68 155 -185q54 -123 54 -276v-86h-773q15 -162 97 -244q83 -86 223 -86q96 0 158 33q63 29 84 82h188q-38 -127 -154 -203t-278 -76zM586 913
q-130 0 -207 -77q-80 -80 -98 -220h583q-6 133 -73 215q-70 82 -205 82zM262 1438h615v-154h-615v154z" />
    <glyph glyph-name="Ebreve" unicode="&#x114;" horiz-adv-x="1312" 
d="M184 0v1425h990v-174h-795v-432h772v-174h-772v-471h805v-174h-1000zM678 1569q-142 0 -238 84q-97 81 -106 221h166q9 -73 57 -115q45 -45 121 -45q75 0 123 45q46 43 55 115h166q-9 -138 -104 -221q-101 -84 -240 -84z" />
    <glyph glyph-name="ebreve" unicode="&#x115;" horiz-adv-x="1140" 
d="M594 -29q-153 0 -268 68q-116 69 -176 192q-62 127 -62 295q0 156 62 283q59 127 172 197q112 71 266 71q149 0 252 -65q102 -68 155 -185q54 -123 54 -276v-86h-773q15 -162 97 -244q83 -86 223 -86q96 0 158 33q63 29 84 82h188q-38 -127 -154 -203t-278 -76zM586 913
q-130 0 -207 -77q-80 -80 -98 -220h583q-6 133 -73 215q-70 82 -205 82zM569 1192q-139 0 -231 86q-93 84 -102 233h163q9 -84 54 -129q47 -47 116 -47q70 0 117 47q44 44 53 129h164q-9 -149 -102 -233q-92 -86 -232 -86z" />
    <glyph glyph-name="Edotaccent" unicode="&#x116;" horiz-adv-x="1312" 
d="M184 0v1425h990v-174h-795v-432h772v-174h-772v-471h805v-174h-1000zM678 1599q-54 0 -88 37q-37 34 -37 88t37 91q34 34 88 34q53 0 90 -34q35 -38 35 -91t-35 -88q-37 -37 -90 -37z" />
    <glyph glyph-name="edotaccent" unicode="&#x117;" horiz-adv-x="1140" 
d="M594 -29q-153 0 -268 68q-116 69 -176 192q-62 127 -62 295q0 156 62 283q59 127 172 197q112 71 266 71q149 0 252 -65q102 -68 155 -185q54 -123 54 -276v-86h-773q15 -162 97 -244q83 -86 223 -86q96 0 158 33q63 29 84 82h188q-38 -127 -154 -203t-278 -76zM586 913
q-130 0 -207 -77q-80 -80 -98 -220h583q-6 133 -73 215q-70 82 -205 82zM569 1229q-54 0 -88 37q-37 37 -37 88t37 88q34 37 88 37q53 0 90 -37q35 -38 35 -88t-35 -88q-37 -37 -90 -37z" />
    <glyph glyph-name="Eogonek" unicode="&#x118;" horiz-adv-x="1312" 
d="M184 0v1425h990v-174h-795v-432h772v-174h-772v-471h805v-174h-1000zM1092 -492q-126 0 -197 62q-74 62 -74 160q0 194 260 317l82 -47q-101 -64 -139 -123q-39 -56 -39 -115q0 -58 41 -88q40 -30 100 -30h66v-136h-100z" />
    <glyph glyph-name="eogonek" unicode="&#x119;" horiz-adv-x="1140" 
d="M594 -29q-153 0 -268 68q-116 69 -176 192q-62 127 -62 295q0 156 62 283q59 127 172 197q112 71 266 71q149 0 252 -65q102 -68 155 -185q54 -123 54 -276v-86h-773q15 -162 97 -244q83 -86 223 -86q96 0 158 33q63 29 84 82h188q-38 -127 -154 -203t-278 -76zM586 913
q-130 0 -207 -77q-80 -80 -98 -220h583q-6 133 -73 215q-70 82 -205 82zM750 -492q-125 0 -197 60q-74 59 -74 162q0 55 29 118q27 58 102 121q65 60 201 137l78 -47q-110 -75 -162 -127q-57 -57 -70 -92q-16 -43 -16 -78q0 -60 41 -90q42 -28 102 -28h66v-136h-100z" />
    <glyph glyph-name="Ecaron" unicode="&#x11a;" horiz-adv-x="1312" 
d="M184 0v1425h990v-174h-795v-432h772v-174h-772v-471h805v-174h-1000zM571 1577l-254 301h193l168 -182l168 182h192l-254 -301h-213z" />
    <glyph glyph-name="ecaron" unicode="&#x11b;" horiz-adv-x="1140" 
d="M594 -29q-153 0 -268 68q-116 69 -176 192q-62 127 -62 295q0 156 62 283q59 127 172 197q112 71 266 71q149 0 252 -65q102 -68 155 -185q54 -123 54 -276v-86h-773q15 -162 97 -244q83 -86 223 -86q96 0 158 33q63 29 84 82h188q-38 -127 -154 -203t-278 -76zM586 913
q-130 0 -207 -77q-80 -80 -98 -220h583q-6 133 -73 215q-70 82 -205 82zM467 1198l-246 318h185l163 -197l164 197h185l-246 -318h-205z" />
    <glyph glyph-name="Gcircumflex" unicode="&#x11c;" horiz-adv-x="1536" 
d="M793 -31q-203 0 -363 97q-157 95 -242 264q-88 169 -88 383q0 216 88 385q88 168 246 264q155 94 357 94q228 0 385 -104q161 -109 225 -295h-205q-47 100 -152 160q-107 61 -253 61q-144 0 -254 -70q-111 -70 -175 -196q-63 -123 -63 -299t63 -299q62 -127 175 -197
q110 -70 260 -70q126 0 229 56q97 51 156 147q55 94 55 215v37h-446v174h641v-178q0 -180 -80 -322q-78 -141 -224 -225q-143 -82 -335 -82zM424 1577l254 301h213l254 -301h-193l-168 182l-168 -182h-192z" />
    <glyph glyph-name="gcircumflex" unicode="&#x11d;" horiz-adv-x="1236" 
d="M557 -6q-141 0 -244 69q-108 70 -166 193q-59 121 -59 279q0 156 59 280q58 123 166 193q103 69 244 69q119 0 205 -51q85 -50 143 -143v166h178v-1018q0 -230 -125 -355t-348 -125q-187 0 -315 84q-124 81 -162 215h197q34 -57 100 -94q67 -37 176 -37q142 0 219 74
q76 73 76 227v164q-54 -86 -143 -139q-86 -51 -201 -51zM590 162q96 0 166 49q71 47 112 131t41 195q0 110 -41 194t-112 131t-166 47q-93 0 -164 -47q-69 -46 -111 -131q-41 -84 -41 -194q0 -111 41 -195q42 -85 111 -131q70 -49 164 -49zM254 1198l246 318h205l245 -318
h-184l-164 197l-164 -197h-184z" />
    <glyph glyph-name="Gbreve" unicode="&#x11e;" horiz-adv-x="1536" 
d="M793 -31q-203 0 -363 97q-157 95 -242 264q-88 169 -88 383q0 216 88 385q88 168 246 264q155 94 357 94q228 0 385 -104q161 -109 225 -295h-205q-47 100 -152 160q-107 61 -253 61q-144 0 -254 -70q-111 -70 -175 -196q-63 -123 -63 -299t63 -299q62 -127 175 -197
q110 -70 260 -70q126 0 229 56q97 51 156 147q55 94 55 215v37h-446v174h641v-178q0 -180 -80 -322q-78 -141 -224 -225q-143 -82 -335 -82zM784 1569q-141 0 -237 84q-98 82 -107 221h166q9 -72 58 -115q45 -45 120 -45t123 45q47 44 56 115h165q-9 -138 -104 -221
q-101 -84 -240 -84z" />
    <glyph glyph-name="gbreve" unicode="&#x11f;" horiz-adv-x="1236" 
d="M557 -6q-141 0 -244 69q-108 70 -166 193q-59 121 -59 279q0 156 59 280q58 123 166 193q103 69 244 69q119 0 205 -51q85 -50 143 -143v166h178v-1018q0 -230 -125 -355t-348 -125q-187 0 -315 84q-124 81 -162 215h197q34 -57 100 -94q67 -37 176 -37q142 0 219 74
q76 73 76 227v164q-54 -86 -143 -139q-86 -51 -201 -51zM590 162q96 0 166 49q71 47 112 131t41 195q0 110 -41 194t-112 131t-166 47q-93 0 -164 -47q-69 -46 -111 -131q-41 -84 -41 -194q0 -111 41 -195q42 -85 111 -131q70 -49 164 -49zM602 1192q-139 0 -231 86
q-94 85 -103 233h164q9 -85 53 -129q47 -47 117 -47t117 47q44 44 53 129h164q-9 -149 -102 -233q-92 -86 -232 -86z" />
    <glyph glyph-name="Gdotaccent" unicode="&#x120;" horiz-adv-x="1536" 
d="M793 -31q-203 0 -363 97q-157 95 -242 264q-88 169 -88 383q0 216 88 385q88 168 246 264q155 94 357 94q228 0 385 -104q161 -109 225 -295h-205q-47 100 -152 160q-107 61 -253 61q-144 0 -254 -70q-111 -70 -175 -196q-63 -123 -63 -299t63 -299q62 -127 175 -197
q110 -70 260 -70q126 0 229 56q97 51 156 147q55 94 55 215v37h-446v174h641v-178q0 -180 -80 -322q-78 -141 -224 -225q-143 -82 -335 -82zM784 1599q-54 0 -88 37q-37 34 -37 88t37 91q34 34 88 34q53 0 90 -34q35 -38 35 -91t-35 -88q-37 -37 -90 -37z" />
    <glyph glyph-name="gdotaccent" unicode="&#x121;" horiz-adv-x="1236" 
d="M557 -6q-141 0 -244 69q-108 70 -166 193q-59 121 -59 279q0 156 59 280q58 123 166 193q103 69 244 69q119 0 205 -51q85 -50 143 -143v166h178v-1018q0 -230 -125 -355t-348 -125q-187 0 -315 84q-124 81 -162 215h197q34 -57 100 -94q67 -37 176 -37q142 0 219 74
q76 73 76 227v164q-54 -86 -143 -139q-86 -51 -201 -51zM590 162q96 0 166 49q71 47 112 131t41 195q0 110 -41 194t-112 131t-166 47q-93 0 -164 -47q-69 -46 -111 -131q-41 -84 -41 -194q0 -111 41 -195q42 -85 111 -131q70 -49 164 -49zM602 1229q-54 0 -88 37
q-37 37 -37 88t37 88q34 37 88 37q53 0 90 -37q35 -38 35 -88t-35 -88q-37 -37 -90 -37z" />
    <glyph glyph-name="uni0122" unicode="&#x122;" horiz-adv-x="1536" 
d="M793 -31q-203 0 -363 97q-157 95 -242 264q-88 169 -88 383q0 216 88 385q88 168 246 264q155 94 357 94q228 0 385 -104q161 -109 225 -295h-205q-47 100 -152 160q-107 61 -253 61q-144 0 -254 -70q-111 -70 -175 -196q-63 -123 -63 -299t63 -299q62 -127 175 -197
q110 -70 260 -70q126 0 229 56q97 51 156 147q55 94 55 215v37h-446v174h641v-178q0 -180 -80 -322q-78 -141 -224 -225q-143 -82 -335 -82zM664 -522q35 48 69 106q27 55 41 97q-49 3 -78 32q-28 28 -28 72q0 50 32 78q33 33 88 33q63 0 99 -39q35 -38 35 -95
q0 -62 -27 -129q-31 -74 -90 -155h-141z" />
    <glyph glyph-name="uni0123" unicode="&#x123;" horiz-adv-x="1236" 
d="M557 -6q-141 0 -244 69q-108 70 -166 193q-59 121 -59 279q0 156 59 280q58 123 166 193q103 69 244 69q119 0 205 -51q85 -50 143 -143v166h178v-1018q0 -230 -125 -355t-348 -125q-187 0 -315 84q-124 81 -162 215h197q34 -57 100 -94q67 -37 176 -37q142 0 219 74
q76 73 76 227v164q-54 -86 -143 -139q-86 -51 -201 -51zM590 162q96 0 166 49q71 47 112 131t41 195q0 110 -41 194t-112 131t-166 47q-93 0 -164 -47q-69 -46 -111 -131q-41 -84 -41 -194q0 -111 41 -195q42 -85 111 -131q70 -49 164 -49zM606 1169q-64 0 -98 37
q-35 38 -35 94q0 61 31 140q25 70 96 170h143q-44 -60 -75 -117q-26 -51 -47 -109q48 -3 77 -32t29 -74q0 -47 -33 -76q-33 -33 -88 -33z" />
    <glyph glyph-name="Hcircumflex" unicode="&#x124;" horiz-adv-x="1570" 
d="M184 0v1425h195v-589h813v589h194v-1425h-194v662h-813v-662h-195zM426 1577l254 301h213l254 -301h-193l-168 182l-168 -182h-192z" />
    <glyph glyph-name="hcircumflex" unicode="&#x125;" horiz-adv-x="1177" 
d="M154 0v1485h182v-574q56 79 141 123q82 43 185 43q118 0 200 -55q78 -52 127 -152q45 -91 45 -221v-649h-182v614q0 138 -61 217q-63 78 -181 78q-78 0 -135 -32q-62 -33 -100 -99q-39 -62 -39 -157v-621h-182zM-115 1577l254 301h213l254 -301h-192l-168 182l-168 -182
h-193z" />
    <glyph glyph-name="Hbar" unicode="&#x126;" horiz-adv-x="1652" 
d="M225 0v1044h-164v156h164v225h195v-225h813v225h194v-225h164v-156h-164v-1044h-194v639h-813v-639h-195zM420 813h813v231h-813v-231z" />
    <glyph glyph-name="hbar" unicode="&#x127;" horiz-adv-x="1198" 
d="M174 0v1171h-158v146h158v168h182v-168h312v-146h-312v-299q55 79 142 123q82 43 184 43q119 0 201 -55q78 -52 127 -152q45 -91 45 -221v-610h-183v575q0 139 -61 218q-62 77 -180 77q-78 0 -135 -32q-63 -34 -101 -99q-39 -62 -39 -157v-582h-182z" />
    <glyph glyph-name="Itilde" unicode="&#x128;" horiz-adv-x="563" 
d="M379 0h-195v1425h195v-1425zM438 1575q-38 0 -82 12q-44 11 -100 49q-36 24 -66 39q-26 13 -49 13q-69 0 -69 -70v-39h-148v68q0 89 56 145q56 53 143 53q37 0 84 -12q43 -12 98 -49q36 -24 66 -39q24 -12 49 -12q69 0 69 67v41h148v-67q0 -92 -55 -144q-55 -55 -144 -55
z" />
    <glyph glyph-name="itilde" unicode="&#x129;" horiz-adv-x="489" 
d="M154 0v1049h182v-1049h-182zM381 1202q-43 0 -78 15q-36 12 -90 55q-10 7 -27 19.5t-22 15.5q-20 10 -39 10q-47 0 -47 -60v-51h-146v68q0 89 48 143q50 53 131 53q42 0 77 -12q41 -18 91 -57q49 -34 51 -35q17 -10 37 -10q47 0 47 59v51h145v-67q0 -89 -47 -142
q-49 -55 -131 -55z" />
    <glyph glyph-name="Imacron" unicode="&#x12a;" horiz-adv-x="563" 
d="M379 0h-195v1425h195v-1425zM-39 1812h639v-155h-639v155z" />
    <glyph glyph-name="imacron" unicode="&#x12b;" horiz-adv-x="489" 
d="M154 0v1049h182v-1049h-182zM-61 1438h614v-154h-614v154z" />
    <glyph glyph-name="Ibreve" unicode="&#x12c;" horiz-adv-x="563" 
d="M379 0h-195v1425h195v-1425zM281 1569q-142 0 -238 84q-97 81 -106 221h165q9 -72 58 -115q45 -45 121 -45q74 0 122 45q47 44 56 115h166q-9 -137 -105 -221q-101 -84 -239 -84z" />
    <glyph glyph-name="ibreve" unicode="&#x12d;" horiz-adv-x="489" 
d="M154 0v1049h182v-1049h-182zM246 1192q-140 0 -223 86q-87 84 -93 233h166q9 -85 45 -129q35 -47 105 -47q68 0 106 47q34 46 43 129h166q-6 -149 -90 -233q-86 -86 -225 -86z" />
    <glyph glyph-name="Iogonek" unicode="&#x12e;" horiz-adv-x="563" 
d="M379 0h-195v1425h195v-1425zM297 -492q-126 0 -197 62q-73 61 -73 160q0 194 260 317l82 -47q-103 -65 -140 -123q-39 -56 -39 -115q0 -58 41 -88t101 -30h65v-136h-100z" />
    <glyph glyph-name="iogonek" unicode="&#x12f;" horiz-adv-x="489" 
d="M246 1200q-53 0 -90 37t-37 90t37 90t90 37t90 -37t37 -90t-37 -90t-90 -37zM154 0v1049h182v-1049h-182zM258 -492q-126 0 -197 62q-73 61 -73 160q0 194 260 317l82 -47q-103 -65 -140 -123q-38 -55 -38 -115q0 -58 41 -88t100 -30h65v-136h-100z" />
    <glyph glyph-name="Idotaccent" unicode="&#x130;" horiz-adv-x="563" 
d="M379 0h-195v1425h195v-1425zM281 1599q-54 0 -88 37q-37 34 -37 88t37 91q34 34 88 34q53 0 90 -34q35 -38 35 -91t-35 -88q-37 -37 -90 -37z" />
    <glyph glyph-name="dotlessi" unicode="&#x131;" horiz-adv-x="489" 
d="M154 0v1049h182v-1049h-182z" />
    <glyph glyph-name="IJ" unicode="&#x132;" horiz-adv-x="1456" 
d="M729 -31q-153 0 -272 58q-123 55 -199 157q-79 106 -94 246h203q18 -129 112 -205q96 -78 250 -78q105 0 189 41q82 40 131 125q49 82 49 222v890h194v-901q0 -186 -75 -307q-74 -122 -205 -186q-127 -62 -283 -62zM166 672v753h194v-753h-194z" />
    <glyph glyph-name="ij" unicode="&#x133;" horiz-adv-x="978" 
d="M246 1200q-53 0 -90 37t-37 90t37 90t90 37t90 -37t37 -90t-37 -90t-90 -37zM154 0v1049h182v-1049h-182zM735 1200q-53 0 -90 37t-37 90t37 90t90 37t90 -37t37 -90t-37 -90t-90 -37zM432 -420v164h55q78 0 117 51t39 139v1115h182v-1133q0 -159 -77 -248
q-76 -88 -228 -88h-88z" />
    <glyph glyph-name="Jcircumflex" unicode="&#x134;" horiz-adv-x="1239" 
d="M881 444v981h194v-983q0 -136 -59 -245q-57 -106 -168 -166q-112 -62 -264 -62q-225 0 -363 123q-141 126 -162 324h195q15 -126 104 -197q90 -72 226 -72q133 0 215 82t82 215zM618 1577l254 301h213l254 -301h-192l-168 182l-168 -182h-193z" />
    <glyph glyph-name="jcircumflex" unicode="&#x135;" horiz-adv-x="489" 
d="M-57 -420v164h55q78 0 117 51t39 139v1115h182v-1133q0 -158 -78 -248q-76 -88 -227 -88h-88zM-72 1198l215 318h205l215 -318h-184l-133 184l-133 -184h-185z" />
    <glyph glyph-name="uni0136" unicode="&#x136;" horiz-adv-x="1351" 
d="M184 0v1425h195v-612l665 612h250l-751 -686l786 -739h-266l-684 643v-643h-195zM590 -522q35 48 69 106q27 55 41 97q-48 3 -77 32t-29 72q0 49 33 78q33 33 88 33q62 0 98 -39q35 -38 35 -95q0 -62 -27 -129q-31 -74 -90 -155h-141z" />
    <glyph glyph-name="uni0137" unicode="&#x137;" horiz-adv-x="1089" 
d="M154 0v1485h182v-875l461 439h231l-522 -496l567 -553h-239l-498 494v-494h-182zM446 -522q40 56 70 106q27 55 41 97q-49 3 -78 32q-28 28 -28 72q0 50 32 78q33 33 88 33q63 0 99 -39q35 -38 35 -95q0 -62 -27 -129q-31 -74 -90 -155h-142z" />
    <glyph glyph-name="kgreenlandic" unicode="&#x138;" horiz-adv-x="1089" 
d="M154 0v1049h182v-459l461 459h231l-522 -514l567 -535h-239l-498 473v-473h-182z" />
    <glyph glyph-name="Lacute" unicode="&#x139;" horiz-adv-x="1232" 
d="M1151 174v-174h-967v1425h195v-1251h772zM358 1577h-180l180 301h203z" />
    <glyph glyph-name="lacute" unicode="&#x13a;" horiz-adv-x="489" 
d="M154 0v1485h182v-1485h-182zM324 1597h-181l181 301h202z" />
    <glyph glyph-name="uni013B" unicode="&#x13b;" horiz-adv-x="1232" 
d="M1151 174v-174h-967v1425h195v-1251h772zM545 -522q35 48 69 106q27 55 41 97q-48 3 -77 32t-29 72q0 49 33 78q33 33 88 33q62 0 98 -39q35 -38 35 -95q0 -62 -27 -129q-31 -74 -90 -155h-141z" />
    <glyph glyph-name="uni013C" unicode="&#x13c;" horiz-adv-x="489" 
d="M154 0v1485h182v-1485h-182zM117 -522q35 48 69 106q27 55 41 97q-48 3 -77 32t-29 72q0 49 33 78q33 33 88 33q62 0 98 -39q35 -38 35 -95q0 -62 -27 -129q-31 -74 -90 -155h-141z" />
    <glyph glyph-name="Lcaron" unicode="&#x13d;" horiz-adv-x="1232" 
d="M1151 174v-174h-967v1425h195v-1251h772zM598 965l12 460h178l-47 -460h-143z" />
    <glyph glyph-name="lcaron" unicode="&#x13e;" horiz-adv-x="659" 
d="M154 0v1485h182v-1485h-182zM485 1024l13 461h178l-47 -461h-144z" />
    <glyph glyph-name="Ldot" unicode="&#x13f;" horiz-adv-x="1232" 
d="M1151 174v-174h-967v1425h195v-1251h772zM877 614q-56 0 -95 39q-41 41 -41 97q0 55 41 96q39 39 95 39q57 0 96 -39t39 -96q0 -58 -39 -97t-96 -39z" />
    <glyph glyph-name="ldot" unicode="&#x140;" horiz-adv-x="796" 
d="M154 0v1485h182v-1485h-182zM635 614q-55 0 -94 39q-41 41 -41 97q0 55 41 96q39 39 94 39q57 0 96 -39t39 -96q0 -58 -39 -97t-96 -39z" />
    <glyph glyph-name="Lslash" unicode="&#x141;" horiz-adv-x="1282" 
d="M233 0v616l-196 -108v178l196 109v630h195v-524l358 197v-178l-358 -197v-549h772v-174h-967z" />
    <glyph glyph-name="lslash" unicode="&#x142;" horiz-adv-x="567" 
d="M193 0v649l-179 -114v165l179 115v670h182v-555l178 114v-165l-178 -115v-764h-182z" />
    <glyph glyph-name="Nacute" unicode="&#x143;" horiz-adv-x="1566" 
d="M184 0v1425h193l813 -1118v1118h192v-1425h-192l-813 1118v-1118h-193zM860 1577h-180l180 301h203z" />
    <glyph glyph-name="nacute" unicode="&#x144;" horiz-adv-x="1177" 
d="M336 621v-621h-182v1049h178v-142q53 79 141 127q85 43 189 43q118 0 200 -55q78 -52 127 -152q45 -91 45 -221v-649h-182v614q0 138 -61 217q-63 78 -181 78q-78 0 -135 -32q-62 -33 -100 -99q-39 -62 -39 -157zM672 1198h-176l155 318h197z" />
    <glyph glyph-name="uni0145" unicode="&#x145;" horiz-adv-x="1566" 
d="M184 0v1425h193l813 -1118v1118h192v-1425h-192l-813 1118v-1118h-193zM653 -522q40 56 70 106q27 55 41 97q-49 3 -78 32t-29 72q0 49 33 78q33 33 88 33q63 0 99 -39q34 -37 34 -95q0 -64 -26 -129q-31 -74 -90 -155h-142z" />
    <glyph glyph-name="uni0146" unicode="&#x146;" horiz-adv-x="1177" 
d="M336 621v-621h-182v1049h178v-142q53 79 141 127q85 43 189 43q118 0 200 -55q78 -52 127 -152q45 -91 45 -221v-649h-182v614q0 138 -61 217q-63 78 -181 78q-78 0 -135 -32q-62 -33 -100 -99q-39 -62 -39 -157zM467 -522q40 56 70 106q27 55 41 97q-49 3 -78 32t-29 72
q0 49 33 78q33 33 88 33q62 0 98 -39q35 -38 35 -95q0 -62 -27 -129q-31 -74 -90 -155h-141z" />
    <glyph glyph-name="Ncaron" unicode="&#x147;" horiz-adv-x="1566" 
d="M184 0v1425h193l813 -1118v1118h192v-1425h-192l-813 1118v-1118h-193zM676 1577l-254 301h192l168 -182l168 182h193l-254 -301h-213z" />
    <glyph glyph-name="ncaron" unicode="&#x148;" horiz-adv-x="1177" 
d="M336 621v-621h-182v1049h178v-142q53 79 141 127q85 43 189 43q118 0 200 -55q78 -52 127 -152q45 -91 45 -221v-649h-182v614q0 138 -61 217q-63 78 -181 78q-78 0 -135 -32q-62 -33 -100 -99q-39 -62 -39 -157zM494 1198l-246 318h184l164 -197l164 197h184l-246 -318
h-204z" />
    <glyph glyph-name="napostrophe" unicode="&#x149;" horiz-adv-x="1488" 
d="M90 942q77 118 107 174q33 61 49 125q-53 6 -82 39q-31 31 -31 78q0 48 37 88q34 37 94 37q62 0 103 -41q39 -42 39 -113q0 -82 -35 -172q-32 -82 -119 -215h-162zM647 621v-621h-182v1049h178v-142q53 79 141 127q85 43 189 43q119 0 201 -55q77 -51 126 -152
q46 -93 46 -221v-649h-183v614q0 138 -61 217q-63 78 -180 78q-79 0 -136 -32q-62 -33 -100 -99q-39 -62 -39 -157z" />
    <glyph glyph-name="Eng" unicode="&#x14a;" horiz-adv-x="1546" 
d="M184 0v1425h189v-235q74 127 198 196q122 70 275 70q172 0 293 -80q117 -77 182 -217q61 -137 61 -309v-524q0 -166 -82 -248q-83 -86 -229 -86h-106v164h67q76 0 117 47q39 45 39 127v489q0 211 -96 336q-99 123 -289 123q-121 0 -213 -51q-96 -54 -154 -154
q-57 -99 -57 -250v-823h-195z" />
    <glyph glyph-name="eng" unicode="&#x14b;" horiz-adv-x="1177" 
d="M639 -420v164h55q80 0 119 51t39 139v680q0 138 -61 217q-63 78 -181 78q-78 0 -135 -32q-62 -33 -100 -99q-39 -62 -39 -157v-621h-182v1049h178v-142q53 79 141 127q85 43 189 43q118 0 200 -55q78 -52 127 -152q45 -91 45 -221v-733q0 -158 -78 -248q-79 -88 -229 -88
h-88z" />
    <glyph glyph-name="Omacron" unicode="&#x14c;" horiz-adv-x="1609" 
d="M805 -31q-153 0 -283 56q-132 57 -223 155q-92 99 -145 236q-54 139 -54 297t54 297q53 135 145 235q93 100 223 156q128 55 283 55q154 0 282 -55q132 -57 224 -156q96 -103 147 -235q51 -131 51 -297t-51 -297q-52 -133 -147 -236q-90 -97 -224 -155q-130 -56 -282 -56
zM805 147q146 0 262 72q112 69 178 201q66 129 66 293q0 163 -66 295q-66 129 -178 198q-116 72 -262 72q-144 0 -260 -72q-115 -71 -180 -198q-66 -132 -66 -295q0 -164 66 -293q65 -130 180 -201q116 -72 260 -72zM485 1812h639v-155h-639v155z" />
    <glyph glyph-name="omacron" unicode="&#x14d;" horiz-adv-x="1187" 
d="M594 -29q-149 0 -262 70q-114 71 -178 195q-66 129 -66 288q0 160 66 289q64 124 178 195q112 69 262 69t262 -69q117 -73 180 -195q64 -125 64 -289q0 -163 -64 -288q-63 -122 -180 -195q-113 -70 -262 -70zM594 139q142 0 231 105q88 104 88 280q0 177 -88 281
t-231 104q-141 0 -229 -104q-91 -108 -91 -281q0 -172 91 -280q88 -105 229 -105zM287 1438h614v-154h-614v154z" />
    <glyph glyph-name="Obreve" unicode="&#x14e;" horiz-adv-x="1609" 
d="M805 -31q-153 0 -283 56q-132 57 -223 155q-92 99 -145 236q-54 139 -54 297t54 297q53 135 145 235q93 100 223 156q128 55 283 55q154 0 282 -55q132 -57 224 -156q96 -103 147 -235q51 -131 51 -297t-51 -297q-52 -133 -147 -236q-90 -97 -224 -155q-130 -56 -282 -56
zM805 147q146 0 262 72q112 69 178 201q66 129 66 293q0 163 -66 295q-66 129 -178 198q-116 72 -262 72q-144 0 -260 -72q-115 -71 -180 -198q-66 -132 -66 -295q0 -164 66 -293q65 -130 180 -201q116 -72 260 -72zM805 1569q-142 0 -238 84q-97 81 -106 221h166
q9 -73 57 -115q45 -45 121 -45q75 0 123 45q46 43 55 115h166q-9 -137 -105 -221q-101 -84 -239 -84z" />
    <glyph glyph-name="obreve" unicode="&#x14f;" horiz-adv-x="1187" 
d="M594 -29q-149 0 -262 70q-114 71 -178 195q-66 129 -66 288q0 160 66 289q64 124 178 195q112 69 262 69t262 -69q117 -73 180 -195q64 -125 64 -289q0 -163 -64 -288q-63 -122 -180 -195q-113 -70 -262 -70zM594 139q142 0 231 105q88 104 88 280q0 177 -88 281
t-231 104q-141 0 -229 -104q-91 -108 -91 -281q0 -172 91 -280q88 -105 229 -105zM594 1192q-140 0 -232 86q-93 84 -102 233h164q9 -85 53 -129q47 -47 117 -47t117 47q44 44 53 129h164q-9 -148 -103 -233q-92 -86 -231 -86z" />
    <glyph glyph-name="Ohungarumlaut" unicode="&#x150;" horiz-adv-x="1609" 
d="M805 -31q-153 0 -283 56q-132 57 -223 155q-92 99 -145 236q-54 139 -54 297t54 297q53 135 145 235q93 100 223 156q128 55 283 55q154 0 282 -55q132 -57 224 -156q96 -103 147 -235q51 -131 51 -297t-51 -297q-52 -133 -147 -236q-90 -97 -224 -155q-130 -56 -282 -56
zM805 147q146 0 262 72q112 69 178 201q66 129 66 293q0 163 -66 295q-66 129 -178 198q-116 72 -262 72q-144 0 -260 -72q-115 -71 -180 -198q-66 -132 -66 -295q0 -164 66 -293q65 -130 180 -201q116 -72 260 -72zM721 1577h-172l178 301h195zM1063 1577h-172l199 301h194
z" />
    <glyph glyph-name="ohungarumlaut" unicode="&#x151;" horiz-adv-x="1187" 
d="M594 -29q-149 0 -262 70q-114 71 -178 195q-66 129 -66 288q0 160 66 289q64 124 178 195q112 69 262 69t262 -69q117 -73 180 -195q64 -125 64 -289q0 -163 -64 -288q-63 -122 -180 -195q-113 -70 -262 -70zM594 139q142 0 231 105q88 104 88 280q0 177 -88 281
t-231 104q-141 0 -229 -104q-91 -108 -91 -281q0 -172 91 -280q88 -105 229 -105zM680 1198l174 318h188l-194 -318h-168zM342 1198l154 318h188l-174 -318h-168z" />
    <glyph glyph-name="OE" unicode="&#x152;" horiz-adv-x="2433" 
d="M784 -31q-146 0 -270 56q-129 57 -217 155q-92 99 -145 236q-52 134 -52 297t52 297q53 135 145 235q90 100 217 156q122 55 270 55q185 0 312 -74q130 -79 209 -200v243h989v-174h-795v-432h772v-174h-772v-471h805v-174h-999v244q-82 -125 -209 -199q-125 -76 -312 -76
zM803 147q146 0 262 72q115 71 180 201q66 129 66 293q0 163 -66 295q-65 127 -180 198q-116 72 -262 72q-144 0 -260 -72q-112 -69 -178 -198q-66 -132 -66 -295q0 -164 66 -293q66 -132 178 -201q116 -72 260 -72z" />
    <glyph glyph-name="oe" unicode="&#x153;" horiz-adv-x="1964" 
d="M594 -29q-149 0 -262 70q-114 71 -178 195q-66 129 -66 288q0 160 66 289q64 124 178 195q112 69 262 69q134 0 240 -65q102 -66 165 -176q59 115 164 178t248 63q149 0 252 -65q104 -69 156 -185q53 -121 53 -276v-86h-772q15 -165 96 -246q84 -84 221 -84q98 0 160 33
q63 29 84 82h188q-38 -128 -153 -203q-119 -76 -281 -76q-143 0 -250 64q-108 64 -168 182q-60 -117 -163 -180q-111 -66 -240 -66zM1409 913q-131 0 -207 -79q-80 -80 -98 -220h584q-3 134 -74 217q-70 82 -205 82zM594 139q140 0 229 105q88 104 88 280q0 177 -88 281
t-229 104t-229 -104q-91 -108 -91 -281q0 -172 91 -280q88 -105 229 -105z" />
    <glyph glyph-name="Racute" unicode="&#x154;" horiz-adv-x="1394" 
d="M184 0v1425h537q274 0 414 -116q139 -118 139 -324q0 -166 -88 -270q-86 -105 -228 -150l379 -565h-231l-354 535h-373v-535h-195zM379 709h319q194 0 285 73q92 71 92 205q0 131 -92 199q-92 65 -285 65h-319v-542zM768 1577h-180l180 301h203z" />
    <glyph glyph-name="racute" unicode="&#x155;" horiz-adv-x="727" 
d="M336 530v-530h-182v1049h178v-187q50 92 129 144q79 49 178 49h33v-176h-37q-83 0 -148 -39q-69 -40 -110 -117t-41 -193zM489 1198h-176l156 318h197z" />
    <glyph glyph-name="uni0156" unicode="&#x156;" horiz-adv-x="1394" 
d="M184 0v1425h537q274 0 414 -116q139 -118 139 -324q0 -166 -88 -270q-86 -105 -228 -150l379 -565h-231l-354 535h-373v-535h-195zM379 709h319q194 0 285 73q92 71 92 205q0 131 -92 199q-92 65 -285 65h-319v-542zM602 -522q40 56 70 106q27 55 41 97q-49 3 -78 32
t-29 72q0 49 33 78q33 33 88 33q62 0 98 -39q35 -38 35 -95q0 -64 -26 -129q-30 -71 -91 -155h-141z" />
    <glyph glyph-name="uni0157" unicode="&#x157;" horiz-adv-x="727" 
d="M336 530v-530h-182v1049h178v-187q50 92 129 144q79 49 178 49h33v-176h-37q-83 0 -148 -39q-69 -40 -110 -117t-41 -193zM117 -522q35 48 69 106q27 55 41 97q-48 3 -77 32t-29 72q0 49 33 78q33 33 88 33q62 0 98 -39q35 -38 35 -95q0 -62 -27 -129q-31 -74 -90 -155
h-141z" />
    <glyph glyph-name="Rcaron" unicode="&#x158;" horiz-adv-x="1394" 
d="M184 0v1425h537q274 0 414 -116q139 -118 139 -324q0 -166 -88 -270q-86 -105 -228 -150l379 -565h-231l-354 535h-373v-535h-195zM379 709h319q194 0 285 73q92 71 92 205q0 131 -92 199q-92 65 -285 65h-319v-542zM584 1577l-254 301h192l168 -182l168 182h193
l-254 -301h-213z" />
    <glyph glyph-name="rcaron" unicode="&#x159;" horiz-adv-x="727" 
d="M336 530v-530h-182v1049h178v-187q50 92 129 144q79 49 178 49h33v-176h-37q-83 0 -148 -39q-69 -40 -110 -117t-41 -193zM311 1198l-245 318h184l164 -197l164 197h184l-246 -318h-205z" />
    <glyph glyph-name="Sacute" unicode="&#x15a;" horiz-adv-x="1300" 
d="M664 -31q-231 0 -383 107q-157 109 -203 299h198q34 -108 136 -166q103 -62 250 -62q143 0 243 62q99 58 99 174q0 63 -27 113q-28 48 -94 82q-63 32 -195 51l-170 26q-206 35 -305 123q-98 88 -98 262q0 127 71 222q69 90 191 143q117 51 266 51q137 0 250 -43
q109 -41 188 -127q77 -86 101 -217h-199q-27 111 -115 160t-223 49q-150 0 -239 -59q-93 -63 -93 -168q0 -92 64 -144q63 -51 241 -78l160 -24q219 -35 322 -135q102 -102 102 -275q0 -137 -69 -229q-72 -97 -191 -146q-119 -51 -278 -51zM721 1577h-180l180 301h203z" />
    <glyph glyph-name="sacute" unicode="&#x15b;" horiz-adv-x="1009" 
d="M524 -31q-184 0 -303 88q-119 84 -143 219h184q15 -58 86 -102q67 -43 172 -43q103 0 164 43q61 40 61 115q0 58 -43 98q-42 36 -147 51l-160 21q-297 37 -297 291q0 91 54 170q52 73 143 116q90 41 207 41q169 0 276 -82q108 -82 135 -209h-182q-21 63 -78 97
q-54 32 -147 32q-102 0 -160 -43q-61 -46 -61 -116q0 -60 43 -90q46 -31 141 -43l160 -21q149 -18 227 -102q76 -82 76 -205q0 -98 -53 -172q-51 -71 -146 -113q-89 -41 -209 -41zM578 1198h-177l156 318h197z" />
    <glyph glyph-name="Scircumflex" unicode="&#x15c;" horiz-adv-x="1300" 
d="M664 -31q-231 0 -383 107q-157 109 -203 299h198q34 -108 136 -166q103 -62 250 -62q143 0 243 62q99 58 99 174q0 63 -27 113q-28 48 -94 82q-63 32 -195 51l-170 26q-206 35 -305 123q-98 88 -98 262q0 127 71 222q69 90 191 143q117 51 266 51q137 0 250 -43
q109 -41 188 -127q77 -86 101 -217h-199q-27 111 -115 160t-223 49q-150 0 -239 -59q-93 -63 -93 -168q0 -92 64 -144q63 -51 241 -78l160 -24q219 -35 322 -135q102 -102 102 -275q0 -137 -69 -229q-72 -97 -191 -146q-119 -51 -278 -51zM283 1577l254 301h213l254 -301
h-193l-168 182l-168 -182h-192z" />
    <glyph glyph-name="scircumflex" unicode="&#x15d;" horiz-adv-x="1009" 
d="M524 -31q-184 0 -303 88q-119 84 -143 219h184q15 -58 86 -102q67 -43 172 -43q103 0 164 43q61 40 61 115q0 58 -43 98q-42 36 -147 51l-160 21q-297 37 -297 291q0 91 54 170q52 73 143 116q90 41 207 41q169 0 276 -82q108 -82 135 -209h-182q-21 63 -78 97
q-54 32 -147 32q-102 0 -160 -43q-61 -46 -61 -116q0 -60 43 -90q46 -31 141 -43l160 -21q149 -18 227 -102q76 -82 76 -205q0 -98 -53 -172q-51 -71 -146 -113q-89 -41 -209 -41zM154 1198l245 318h205l246 -318h-184l-164 197l-164 -197h-184z" />
    <glyph glyph-name="Scedilla" unicode="&#x15e;" horiz-adv-x="1300" 
d="M664 -31q-231 0 -383 107q-157 109 -203 299h198q34 -108 136 -166q103 -62 250 -62q143 0 243 62q99 58 99 174q0 63 -27 113q-28 48 -94 82q-63 32 -195 51l-170 26q-206 35 -305 123q-98 88 -98 262q0 127 71 222q69 90 191 143q117 51 266 51q137 0 250 -43
q109 -41 188 -127q77 -86 101 -217h-199q-27 111 -115 160t-223 49q-150 0 -239 -59q-93 -63 -93 -168q0 -92 64 -144q63 -51 241 -78l160 -24q219 -35 322 -135q102 -102 102 -275q0 -137 -69 -229q-72 -97 -191 -146q-119 -51 -278 -51zM502 -492v127h98q51 0 90 17
q31 19 31 57q0 72 -109 72h-84l88 258h127l-57 -145q85 -3 139 -54q54 -54 54 -135q0 -93 -64 -145t-176 -52h-137z" />
    <glyph glyph-name="scedilla" unicode="&#x15f;" horiz-adv-x="1009" 
d="M524 -31q-184 0 -303 88q-119 84 -143 219h184q15 -58 86 -102q67 -43 172 -43q103 0 164 43q61 40 61 115q0 58 -43 98q-42 36 -147 51l-160 21q-297 37 -297 291q0 91 54 170q52 73 143 116q90 41 207 41q169 0 276 -82q108 -82 135 -209h-182q-21 63 -78 97
q-54 32 -147 32q-102 0 -160 -43q-61 -46 -61 -116q0 -60 43 -90q46 -31 141 -43l160 -21q149 -18 227 -102q76 -82 76 -205q0 -98 -53 -172q-51 -71 -146 -113q-89 -41 -209 -41zM362 -492v127h99q51 0 90 17q31 19 31 57q0 72 -111 72h-82l90 274h129l-61 -161
q85 -3 139 -54q53 -53 53 -135q0 -94 -63 -145q-64 -52 -176 -52h-138z" />
    <glyph glyph-name="Scaron" unicode="&#x160;" horiz-adv-x="1300" 
d="M664 -31q-231 0 -383 107q-157 109 -203 299h198q34 -108 136 -166q103 -62 250 -62q143 0 243 62q99 58 99 174q0 63 -27 113q-28 48 -94 82q-63 32 -195 51l-170 26q-206 35 -305 123q-98 88 -98 262q0 127 71 222q69 90 191 143q117 51 266 51q137 0 250 -43
q109 -41 188 -127q77 -86 101 -217h-199q-27 111 -115 160t-223 49q-150 0 -239 -59q-93 -63 -93 -168q0 -92 64 -144q63 -51 241 -78l160 -24q219 -35 322 -135q102 -102 102 -275q0 -137 -69 -229q-72 -97 -191 -146q-119 -51 -278 -51zM537 1577l-254 301h192l168 -182
l168 182h193l-254 -301h-213z" />
    <glyph glyph-name="scaron" unicode="&#x161;" horiz-adv-x="1009" 
d="M524 -31q-184 0 -303 88q-119 84 -143 219h184q15 -58 86 -102q67 -43 172 -43q103 0 164 43q61 40 61 115q0 58 -43 98q-42 36 -147 51l-160 21q-297 37 -297 291q0 91 54 170q52 73 143 116q90 41 207 41q169 0 276 -82q108 -82 135 -209h-182q-21 63 -78 97
q-54 32 -147 32q-102 0 -160 -43q-61 -46 -61 -116q0 -60 43 -90q46 -31 141 -43l160 -21q149 -18 227 -102q76 -82 76 -205q0 -98 -53 -172q-51 -71 -146 -113q-89 -41 -209 -41zM399 1198l-245 318h184l164 -197l164 197h184l-246 -318h-205z" />
    <glyph glyph-name="uni0162" unicode="&#x162;" horiz-adv-x="1370" 
d="M782 0h-194v1251h-506v174h1206v-174h-506v-1251zM522 -492v127h99q51 0 90 17q30 18 30 57q0 72 -108 72h-84l88 258h127l-57 -145q85 -3 139 -54q53 -53 53 -135q0 -94 -63 -145q-64 -52 -177 -52h-137z" />
    <glyph glyph-name="uni0163" unicode="&#x163;" horiz-adv-x="700" 
d="M530 -8q-148 0 -229 84q-80 83 -80 241v568h-186v164h186v333q82 6 182 35v-368h230v-164h-230v-551q0 -85 43 -131q41 -47 117 -47h70v-164h-103zM260 -492v127h98q52 0 91 17q30 18 30 57q0 72 -110 72h-82l90 274h129l-62 -161q86 -3 140 -54q53 -53 53 -135
q0 -93 -64 -145t-176 -52h-137z" />
    <glyph glyph-name="Tcaron" unicode="&#x164;" horiz-adv-x="1370" 
d="M782 0h-194v1251h-506v174h1206v-174h-506v-1251zM578 1577l-254 301h192l168 -182l168 182h192l-253 -301h-213z" />
    <glyph glyph-name="tcaron" unicode="&#x165;" horiz-adv-x="749" 
d="M530 -8q-148 0 -229 84q-80 83 -80 241v568h-186v164h186v333q82 6 182 35v-368h230v-164h-230v-551q0 -85 43 -131q41 -47 117 -47h70v-164h-103zM547 1176l12 309h178l-47 -309h-143z" />
    <glyph glyph-name="Tbar" unicode="&#x166;" horiz-adv-x="1370" 
d="M588 0v586h-340v164h340v501h-506v174h1206v-174h-506v-501h340v-164h-340v-586h-194z" />
    <glyph glyph-name="tbar" unicode="&#x167;" horiz-adv-x="700" 
d="M35 494v157h186v234h-186v164h186v333q82 6 182 35v-368h230v-164h-230v-234h230v-157h-230v-160q0 -85 43 -131q41 -47 117 -47h70v-164h-103q-148 0 -229 84q-80 83 -80 241v177h-186z" />
    <glyph glyph-name="Utilde" unicode="&#x168;" horiz-adv-x="1519" 
d="M760 -31q-195 0 -328 80q-134 78 -201 221t-67 338v817h194v-800q0 -220 99 -349q95 -129 303 -129q206 0 305 129q96 131 96 349v800h195v-817q0 -193 -68 -338q-67 -143 -201 -221q-133 -80 -327 -80zM918 1575q-38 0 -82 12q-46 12 -101 49q-39 26 -65 39t-49 13
q-70 0 -70 -70v-39h-148v68q0 89 56 145q56 53 143 53q38 0 84 -12q43 -12 98 -49q36 -24 66 -39q24 -12 49 -12q70 0 70 67v41h147v-67q0 -92 -55 -144q-55 -55 -143 -55z" />
    <glyph glyph-name="utilde" unicode="&#x169;" horiz-adv-x="1169" 
d="M834 424v625h182v-1049h-178v139q-53 -80 -131 -123q-77 -45 -179 -45q-179 0 -280 119q-105 120 -105 311v648h183v-625q0 -129 67 -205q65 -80 180 -80q109 0 185 76t76 209zM735 1202q-37 0 -86 17q-51 17 -102 53q-47 32 -60 37q-19 8 -43 8q-63 0 -63 -70v-41h-143
v68q0 90 53 143t135 53q45 0 88 -14q41 -14 100 -55q44 -29 62 -37q19 -8 41 -8q63 0 63 69v41h144v-67q0 -90 -52 -142q-52 -55 -137 -55z" />
    <glyph glyph-name="Umacron" unicode="&#x16a;" horiz-adv-x="1519" 
d="M760 -31q-195 0 -328 80q-134 78 -201 221t-67 338v817h194v-800q0 -220 99 -349q95 -129 303 -129q206 0 305 129q96 131 96 349v800h195v-817q0 -193 -68 -338q-67 -143 -201 -221q-133 -80 -327 -80zM440 1812h639v-155h-639v155z" />
    <glyph glyph-name="umacron" unicode="&#x16b;" horiz-adv-x="1169" 
d="M834 424v625h182v-1049h-178v139q-53 -80 -131 -123q-77 -45 -179 -45q-179 0 -280 119q-105 120 -105 311v648h183v-625q0 -129 67 -205q65 -80 180 -80q109 0 185 76t76 209zM274 1438h615v-154h-615v154z" />
    <glyph glyph-name="Ubreve" unicode="&#x16c;" horiz-adv-x="1519" 
d="M760 -31q-195 0 -328 80q-134 78 -201 221t-67 338v817h194v-800q0 -220 99 -349q95 -129 303 -129q206 0 305 129q96 131 96 349v800h195v-817q0 -193 -68 -338q-67 -143 -201 -221q-133 -80 -327 -80zM760 1569q-142 0 -238 84q-97 81 -106 221h166q9 -73 57 -115
q45 -45 121 -45q75 0 123 45q46 43 55 115h166q-9 -137 -105 -221q-101 -84 -239 -84z" />
    <glyph glyph-name="ubreve" unicode="&#x16d;" horiz-adv-x="1169" 
d="M834 424v625h182v-1049h-178v139q-53 -80 -131 -123q-77 -45 -179 -45q-179 0 -280 119q-105 120 -105 311v648h183v-625q0 -129 67 -205q65 -80 180 -80q109 0 185 76t76 209zM582 1192q-140 0 -232 86q-93 84 -102 233h164q9 -85 53 -129q47 -47 117 -47q69 0 116 47
q45 45 54 129h163q-9 -149 -102 -233q-92 -86 -231 -86z" />
    <glyph glyph-name="Uring" unicode="&#x16e;" horiz-adv-x="1519" 
d="M760 -31q-195 0 -328 80q-134 78 -201 221t-67 338v817h194v-800q0 -220 99 -349q95 -129 303 -129q206 0 305 129q96 131 96 349v800h195v-817q0 -193 -68 -338q-67 -143 -201 -221q-133 -80 -327 -80zM760 1530q-72 0 -125 33q-54 34 -88 88q-33 53 -33 121
q0 67 33 120q34 54 88 88q53 33 125 33t125 -33q54 -34 88 -88q33 -53 33 -120q0 -68 -33 -121q-34 -54 -88 -88q-53 -33 -125 -33zM760 1653q49 0 84 35q33 33 33 84q0 53 -33 86q-32 32 -84 32t-84 -32q-33 -33 -33 -86q0 -51 33 -84q35 -35 84 -35z" />
    <glyph glyph-name="uring" unicode="&#x16f;" horiz-adv-x="1169" 
d="M834 424v625h182v-1049h-178v139q-53 -80 -131 -123q-77 -45 -179 -45q-179 0 -280 119q-105 120 -105 311v648h183v-625q0 -129 67 -205q65 -80 180 -80q109 0 185 76t76 209zM582 1161q-72 0 -125 33q-54 34 -88 88q-33 53 -33 121t33 121q34 54 88 88q53 33 125 33
t125 -33q54 -34 88 -88q32 -51 32 -121t-32 -121q-34 -54 -88 -88q-53 -33 -125 -33zM582 1284q49 0 84 35q32 32 32 84q0 54 -32 86q-33 33 -84 33t-84 -33t-33 -86q0 -51 33 -84q35 -35 84 -35z" />
    <glyph glyph-name="Uhungarumlaut" unicode="&#x170;" horiz-adv-x="1519" 
d="M760 -31q-195 0 -328 80q-134 78 -201 221t-67 338v817h194v-800q0 -220 99 -349q95 -129 303 -129q206 0 305 129q96 131 96 349v800h195v-817q0 -193 -68 -338q-67 -143 -201 -221q-133 -80 -327 -80zM676 1577h-172l178 301h195zM1018 1577h-172l198 301h195z" />
    <glyph glyph-name="uhungarumlaut" unicode="&#x171;" horiz-adv-x="1169" 
d="M834 424v625h182v-1049h-178v139q-53 -80 -131 -123q-77 -45 -179 -45q-179 0 -280 119q-105 120 -105 311v648h183v-625q0 -129 67 -205q65 -80 180 -80q109 0 185 76t76 209zM668 1198l174 318h188l-194 -318h-168zM330 1198l153 318h189l-174 -318h-168z" />
    <glyph glyph-name="Uogonek" unicode="&#x172;" horiz-adv-x="1519" 
d="M760 -31q-195 0 -328 80q-134 78 -201 221t-67 338v817h194v-800q0 -220 99 -349q95 -129 303 -129q206 0 305 129q96 131 96 349v800h195v-817q0 -193 -68 -338q-67 -143 -201 -221q-133 -80 -327 -80zM963 -492q-125 0 -197 60q-74 59 -74 162q0 55 29 118
q27 58 102 121q65 60 201 137l78 -47q-110 -75 -162 -127q-57 -57 -70 -92q-16 -43 -16 -78q0 -60 41 -90q42 -28 102 -28h66v-136h-100z" />
    <glyph glyph-name="uogonek" unicode="&#x173;" horiz-adv-x="1169" 
d="M834 424v625h182v-1049h-178v139q-53 -80 -131 -123q-77 -45 -179 -45q-179 0 -280 119q-105 120 -105 311v648h183v-625q0 -129 67 -205q65 -80 180 -80q109 0 185 76t76 209zM940 -492q-126 0 -197 62q-73 61 -73 160q0 194 260 317l82 -47q-103 -65 -140 -123
q-38 -55 -38 -115q0 -58 40 -88t101 -30h65v-136h-100z" />
    <glyph glyph-name="Wcircumflex" unicode="&#x174;" horiz-adv-x="2004" 
d="M489 0l-432 1425h203l332 -1144l319 1140h181l331 -1145l326 1149h199l-430 -1425h-187l-330 1124l-325 -1124h-187zM643 1577l254 301h213l254 -301h-193l-167 182l-168 -182h-193z" />
    <glyph glyph-name="wcircumflex" unicode="&#x175;" horiz-adv-x="1556" 
d="M375 0l-338 1049h188l242 -795l227 790h166l236 -792l237 797h187l-340 -1049h-168l-234 784l-235 -784h-168zM428 1198l246 318h205l245 -318h-184l-164 197l-164 -197h-184z" />
    <glyph glyph-name="Ycircumflex" unicode="&#x176;" horiz-adv-x="1318" 
d="M563 0v549l-532 876h225l410 -690l403 690h217l-528 -872v-553h-195zM297 1577l254 301h213l254 -301h-193l-168 182l-168 -182h-192z" />
    <glyph glyph-name="ycircumflex" unicode="&#x177;" horiz-adv-x="1069" 
d="M268 -420l174 420l-415 1049h206l308 -834l303 834h198l-579 -1469h-195zM190 1198l246 318h205l246 -318h-185l-163 197l-164 -197h-185z" />
    <glyph glyph-name="Ydieresis" unicode="&#x178;" horiz-adv-x="1318" 
d="M563 0v549l-532 876h225l410 -690l403 690h217l-528 -872v-553h-195zM870 1612q-49 0 -84 35q-34 34 -34 82q0 49 34 83q33 33 84 33t84 -33q35 -35 35 -83q0 -47 -35 -82t-84 -35zM444 1612q-49 0 -84 35q-34 34 -34 82q0 49 34 83q33 33 84 33q53 0 86 -33t33 -83
q0 -49 -33 -82q-35 -35 -86 -35z" />
    <glyph glyph-name="Zacute" unicode="&#x179;" horiz-adv-x="1271" 
d="M92 1425h1075v-165l-837 -1086h852v-174h-1090v166l838 1085h-838v174zM709 1577h-181l181 301h202z" />
    <glyph glyph-name="zacute" unicode="&#x17a;" horiz-adv-x="1024" 
d="M82 0v158l620 727h-620v164h850v-158l-619 -727h633v-164h-864zM586 1198h-176l155 318h197z" />
    <glyph glyph-name="Zdotaccent" unicode="&#x17b;" horiz-adv-x="1271" 
d="M92 1425h1075v-165l-837 -1086h852v-174h-1090v166l838 1085h-838v174zM631 1599q-54 0 -88 37q-37 34 -37 88t37 91q34 34 88 34q53 0 90 -34q35 -38 35 -91t-35 -88q-37 -37 -90 -37z" />
    <glyph glyph-name="zdotaccent" unicode="&#x17c;" horiz-adv-x="1024" 
d="M82 0v158l620 727h-620v164h850v-158l-619 -727h633v-164h-864zM510 1229q-54 0 -88 37q-37 37 -37 88t37 88q34 37 88 37q53 0 90 -37q35 -38 35 -88t-35 -88q-37 -37 -90 -37z" />
    <glyph glyph-name="Zcaron" unicode="&#x17d;" horiz-adv-x="1271" 
d="M92 1425h1075v-165l-837 -1086h852v-174h-1090v166l838 1085h-838v174zM524 1577l-254 301h193l168 -182l168 182h192l-254 -301h-213z" />
    <glyph glyph-name="zcaron" unicode="&#x17e;" horiz-adv-x="1024" 
d="M82 0v158l620 727h-620v164h850v-158l-619 -727h633v-164h-864zM408 1198l-246 318h184l164 -197l164 197h184l-246 -318h-204z" />
    <glyph glyph-name="longs" unicode="&#x17f;" horiz-adv-x="557" 
d="M563 1485v-162h-49q-88 0 -133 -51t-45 -144v-1128h-182v1141q0 165 86 254q87 90 243 90h80z" />
    <glyph glyph-name="uni0181" unicode="&#x181;" horiz-adv-x="1814" 
d="M590 0v1251h-12q-164 0 -236 -84q-72 -87 -72 -284v-49h-184v59q0 275 127 405q127 127 371 127h585q239 0 363 -100q127 -103 127 -276q0 -107 -62 -187q-60 -78 -170 -119q144 -41 213 -127q70 -88 70 -215q0 -184 -135 -292q-136 -109 -379 -109h-606zM1147 1251h-363
v-430h363q148 0 231 56q84 57 84 159q0 215 -315 215zM1180 647h-396v-473h396q331 0 331 238q0 112 -86 174q-85 61 -245 61z" />
    <glyph glyph-name="uni0186" unicode="&#x186;" horiz-adv-x="1464" 
d="M694 -31q-252 0 -401 125q-153 126 -203 332h201q35 -129 137 -203q104 -76 268 -76q137 0 244 70q104 70 166 197q59 127 59 299q0 178 -57 301q-58 125 -164 196q-106 68 -242 68q-165 0 -266 -76q-101 -74 -143 -213h-203q56 216 209 342q152 125 406 125
q197 0 346 -94q149 -96 231 -264t82 -385q0 -215 -86 -385q-83 -164 -238 -262q-154 -97 -346 -97z" />
    <glyph glyph-name="uni018A" unicode="&#x18a;" horiz-adv-x="1904" 
d="M590 0v1251h-12q-164 0 -236 -84q-72 -87 -72 -284v-49h-184v59q0 275 127 405q127 127 371 127h520q198 0 358 -86q160 -91 250 -247q92 -164 92 -379q0 -217 -92 -377q-90 -160 -250 -248q-158 -88 -358 -88h-514zM784 174h308q142 0 258 64q115 64 186 184
q70 119 70 291q0 174 -70 293q-69 118 -186 182q-114 63 -258 63h-308v-1077z" />
    <glyph glyph-name="uni018E" unicode="&#x18e;" horiz-adv-x="1312" 
d="M1128 0h-999v174h805v471h-772v174h772v432h-795v174h989v-1425z" />
    <glyph glyph-name="uni018F" unicode="&#x18f;" horiz-adv-x="1490" 
d="M1391 709q0 -222 -78 -392q-80 -167 -228 -256q-148 -92 -352 -92q-191 0 -334 90q-140 88 -217 252q-78 167 -78 377v96h1088q-18 242 -143 367q-127 127 -318 127q-143 0 -246 -59q-97 -58 -145 -150h-203q42 108 127 199q79 85 203 139q119 49 266 49q195 0 344 -90
q150 -90 232 -256q82 -168 82 -401zM731 147q196 0 316 123q119 122 143 340h-889q3 -133 59 -239q52 -105 148 -164q97 -60 223 -60z" />
    <glyph glyph-name="uni0190" unicode="&#x190;" horiz-adv-x="1275" 
d="M637 -31q-140 0 -256 49q-114 47 -188 146q-72 97 -72 227q0 129 76 217q74 90 206 127q-108 36 -174 121q-63 81 -63 197q0 128 65 217q66 90 175 139q112 47 245 47q205 0 340 -102q133 -106 176 -267h-192q-35 89 -115 140t-203 51t-206 -57q-86 -59 -86 -179
q0 -111 77 -170t209 -59h168v-174h-174q-148 0 -237 -59q-89 -62 -89 -177q0 -88 46 -143q46 -57 118 -84q79 -29 158 -29q131 0 223 50q89 50 123 143h195q-42 -171 -183 -272q-138 -99 -362 -99z" />
    <glyph glyph-name="florin" unicode="&#x192;" horiz-adv-x="731" 
d="M35 -420v164h51q88 0 133 51t45 142v948h-186v164h186v94q0 164 88 252q87 90 244 90h80v-164h-51q-85 0 -131 -49q-48 -54 -48 -142v-81h230v-164h-230v-963q0 -163 -86 -252q-87 -90 -245 -90h-80z" />
    <glyph glyph-name="uni0194" unicode="&#x194;" horiz-adv-x="1437" 
d="M721 -31q-142 0 -207 74q-68 74 -68 174q0 66 29 129q22 48 78 131l53 78l-569 870h225l461 -725l463 725h215l-570 -866l56 -82q56 -83 78 -131q28 -61 28 -129q0 -100 -65 -174t-207 -74zM608 223q0 -53 33 -82q30 -30 80 -30t80 30t30 82q0 41 -18 82q-22 41 -63 103
l-29 43l-29 -43q-41 -62 -63 -103q-21 -41 -21 -82z" />
    <glyph glyph-name="uni0198" unicode="&#x198;" horiz-adv-x="1529" 
d="M184 0v1425h195v-616l344 414q93 113 195 176q92 57 229 57q153 0 233 -86q78 -90 78 -246v-112h-190v100q0 84 -35 131q-38 47 -107 47q-64 0 -120 -35q-58 -37 -134 -125l-331 -389l788 -741h-266l-684 643v-643h-195z" />
    <glyph glyph-name="uni0199" unicode="&#x199;" horiz-adv-x="1089" 
d="M154 0v1090q0 204 102 299q104 96 289 96h137v-152h-121q-108 0 -166 -61q-59 -62 -59 -191v-471l461 439h231l-522 -496l567 -553h-239l-498 494v-494h-182z" />
    <glyph glyph-name="uni019D" unicode="&#x19d;" horiz-adv-x="1652" 
d="M47 -8v164h68q75 0 116 47q39 45 39 127v1095h189v-233q72 123 196 194q122 70 271 70q165 0 286 -80q118 -78 183 -217q61 -137 61 -309v-850h-194v819q0 210 -97 336q-95 123 -282 123q-115 0 -207 -51q-96 -54 -154 -154q-57 -99 -57 -250v-497q0 -166 -82 -248
q-83 -86 -229 -86h-107z" />
    <glyph glyph-name="uni019F" unicode="&#x19f;" horiz-adv-x="1609" 
d="M805 -31q-153 0 -283 56q-132 57 -223 155q-92 99 -145 236q-54 139 -54 297t54 297q53 135 145 235q93 100 223 156q128 55 283 55q154 0 282 -55q132 -57 224 -156q96 -103 147 -235q51 -131 51 -297t-51 -297q-52 -133 -147 -236q-90 -97 -224 -155q-130 -56 -282 -56
zM805 1278q-133 0 -242 -59q-107 -61 -174 -168q-68 -109 -86 -252h1004q-18 143 -86 252q-67 107 -174 168q-109 59 -242 59zM805 147q133 0 242 62q104 57 174 168q69 111 84 248h-1000q15 -137 84 -248q69 -110 176 -168q109 -62 240 -62z" />
    <glyph glyph-name="Ohorn" unicode="&#x1a0;" horiz-adv-x="1628" 
d="M1509 713q0 -166 -51 -297q-52 -133 -147 -236q-90 -97 -224 -155q-130 -56 -282 -56q-153 0 -283 56q-132 57 -223 155q-92 99 -145 236q-54 139 -54 297t54 297q53 135 145 235q93 100 223 156q128 55 283 55q54 0 119 -10q49 -8 110 -25q35 -8 60 -10q35 -6 59 -6h12
q181 0 181 178v78h174v-92q0 -127 -58 -203q-59 -77 -174 -98q105 -101 162 -240q59 -145 59 -315zM299 713q0 -164 66 -293q65 -130 180 -201q116 -72 260 -72q146 0 262 72q112 69 178 201q66 129 66 293q0 163 -66 295q-66 129 -178 198q-116 72 -262 72q-144 0 -260 -72
q-115 -71 -180 -198q-66 -132 -66 -295z" />
    <glyph glyph-name="ohorn" unicode="&#x1a1;" horiz-adv-x="1214" 
d="M1100 524q0 -163 -64 -288q-63 -122 -180 -195q-113 -70 -262 -70t-262 70q-114 71 -178 195q-66 129 -66 288q0 160 66 289q64 124 178 195q112 69 262 69q45 0 100 -10q36 -7 92 -25q23 -8 37 -10q24 -4 39 -4q78 0 111 45q33 42 33 119v78h163v-92q0 -231 -192 -277
q55 -66 92 -168q31 -98 31 -209zM274 524q0 -172 91 -280q88 -105 229 -105q142 0 231 105q88 104 88 280q0 177 -88 281t-231 104q-141 0 -229 -104q-91 -108 -91 -281z" />
    <glyph glyph-name="Uhorn" unicode="&#x1af;" horiz-adv-x="1566" 
d="M1356 608q0 -193 -68 -338q-67 -143 -201 -221q-133 -80 -327 -80q-195 0 -328 80q-134 78 -201 221t-67 338v817h194v-800q0 -220 99 -349q95 -129 303 -129q206 0 305 129q96 131 96 349v800h148q159 0 159 179v77h174v-92q0 -143 -71 -223q-74 -83 -215 -92v-666z" />
    <glyph glyph-name="uhorn" unicode="&#x1b0;" horiz-adv-x="1208" 
d="M528 -29q-179 0 -280 119q-105 117 -105 307v652h183v-629q0 -127 67 -203q66 -78 180 -78q109 0 185 76q76 73 76 205v629h120q146 0 146 163v78h164v-92q0 -265 -248 -289v-909h-178v137q-54 -79 -131 -121q-77 -45 -179 -45z" />
    <glyph glyph-name="uni01B3" unicode="&#x1b3;" horiz-adv-x="1740" 
d="M563 0v549l-532 876h223l412 -692l247 432q82 149 189 221q101 70 246 70q157 0 239 -88t82 -252v-104h-190v92q0 89 -35 139q-35 47 -115 47q-78 0 -133 -49q-54 -46 -109 -135l-329 -553v-553h-195z" />
    <glyph glyph-name="uni01B4" unicode="&#x1b4;" horiz-adv-x="1470" 
d="M268 -420l174 420l-415 1049h206l308 -836l194 539q62 171 156 247q93 78 231 78t215 -80q74 -83 74 -227v-82h-180v60q0 163 -125 163q-59 0 -102 -37q-46 -40 -86 -141l-455 -1153h-195z" />
    <glyph glyph-name="uni01CD" unicode="&#x1cd;" horiz-adv-x="1411" 
d="M1167 0l-149 383h-633l-147 -383h-201l569 1425h197l571 -1425h-207zM451 557h499l-250 647zM598 1577l-254 301h193l168 -182l167 182h193l-254 -301h-213z" />
    <glyph glyph-name="uni01CE" unicode="&#x1ce;" horiz-adv-x="1095" 
d="M436 -29q-162 0 -260 88q-98 85 -98 236q0 161 117 250q113 88 327 88h248v45q0 128 -63 182q-65 53 -179 53q-96 0 -155 -36q-61 -37 -76 -91h-184q27 130 139 211q112 80 278 80q198 0 310 -100t112 -313v-664h-172v158q-55 -94 -149 -140q-90 -47 -195 -47zM477 131
q65 0 135 31q65 29 113 92q45 57 45 152v77h-235q-133 0 -201 -45q-72 -47 -72 -135q0 -82 60 -127q57 -45 155 -45zM444 1198l-245 318h184l164 -197l164 197h184l-246 -318h-205z" />
    <glyph glyph-name="uni01CF" unicode="&#x1cf;" horiz-adv-x="563" 
d="M379 0h-195v1425h195v-1425zM174 1577l-254 301h193l168 -182l168 182h192l-254 -301h-213z" />
    <glyph glyph-name="uni01D0" unicode="&#x1d0;" horiz-adv-x="489" 
d="M154 0v1049h182v-1049h-182zM143 1198l-215 318h185l133 -185l133 185h184l-215 -318h-205z" />
    <glyph glyph-name="uni01D1" unicode="&#x1d1;" horiz-adv-x="1609" 
d="M805 -31q-153 0 -283 56q-132 57 -223 155q-92 99 -145 236q-54 139 -54 297t54 297q53 135 145 235q93 100 223 156q128 55 283 55q154 0 282 -55q132 -57 224 -156q96 -103 147 -235q51 -131 51 -297t-51 -297q-52 -133 -147 -236q-90 -97 -224 -155q-130 -56 -282 -56
zM805 147q146 0 262 72q112 69 178 201q66 129 66 293q0 163 -66 295q-66 129 -178 198q-116 72 -262 72q-144 0 -260 -72q-115 -71 -180 -198q-66 -132 -66 -295q0 -164 66 -293q65 -130 180 -201q116 -72 260 -72zM698 1577l-254 301h193l168 -182l168 182h192l-254 -301
h-213z" />
    <glyph glyph-name="uni01D2" unicode="&#x1d2;" horiz-adv-x="1187" 
d="M594 -29q-149 0 -262 70q-114 71 -178 195q-66 129 -66 288q0 160 66 289q64 124 178 195q112 69 262 69t262 -69q117 -73 180 -195q64 -125 64 -289q0 -163 -64 -288q-63 -122 -180 -195q-113 -70 -262 -70zM594 139q142 0 231 105q88 104 88 280q0 177 -88 281
t-231 104q-141 0 -229 -104q-91 -108 -91 -281q0 -172 91 -280q88 -105 229 -105zM492 1198l-246 318h184l164 -197l164 197h184l-246 -318h-204z" />
    <glyph glyph-name="uni01D3" unicode="&#x1d3;" horiz-adv-x="1519" 
d="M760 -31q-195 0 -328 80q-134 78 -201 221t-67 338v817h194v-800q0 -220 99 -349q95 -129 303 -129q206 0 305 129q96 131 96 349v800h195v-817q0 -193 -68 -338q-67 -143 -201 -221q-133 -80 -327 -80zM653 1577l-254 301h193l168 -182l168 182h192l-254 -301h-213z" />
    <glyph glyph-name="uni01D4" unicode="&#x1d4;" horiz-adv-x="1169" 
d="M834 424v625h182v-1049h-178v139q-53 -80 -131 -123q-77 -45 -179 -45q-179 0 -280 119q-105 120 -105 311v648h183v-625q0 -129 67 -205q65 -80 180 -80q109 0 185 76t76 209zM479 1198l-246 318h185l164 -197l163 197h185l-246 -318h-205z" />
    <glyph glyph-name="uni01D5" unicode="&#x1d5;" horiz-adv-x="1519" 
d="M760 -31q-195 0 -328 80q-134 78 -201 221t-67 338v817h194v-800q0 -220 99 -349q95 -129 303 -129q206 0 305 129q96 131 96 349v800h195v-817q0 -193 -68 -338q-67 -143 -201 -221q-133 -80 -327 -80zM1077 1700q0 -45 -33 -78t-81 -33q-47 0 -80 33t-33 78q0 49 33 82
t80 33q48 0 81 -33t33 -82zM670 1700q0 -45 -33 -78t-82 -33q-47 0 -80 33t-33 78q0 49 33 82t80 33q49 0 82 -33t33 -82zM442 2056h635v-141h-635v141z" />
    <glyph glyph-name="uni01D6" unicode="&#x1d6;" horiz-adv-x="1169" 
d="M834 424v625h182v-1049h-178v139q-53 -80 -131 -123q-77 -45 -179 -45q-179 0 -280 119q-105 120 -105 311v648h183v-625q0 -129 67 -205q65 -80 180 -80q109 0 185 76t76 209zM776 1239q-47 0 -80 33q-32 28 -32 78q0 48 32 80q34 30 80 30t80 -30q31 -36 31 -80
q0 -47 -31 -78q-33 -33 -80 -33zM387 1239q-49 0 -78 33q-33 29 -33 78q0 47 33 80q30 30 78 30q45 0 80 -30q33 -33 33 -80q0 -49 -33 -78q-33 -33 -80 -33zM274 1747h615v-139h-615v139z" />
    <glyph glyph-name="uni01D7" unicode="&#x1d7;" horiz-adv-x="1519" 
d="M760 -31q-195 0 -328 80q-134 78 -201 221t-67 338v817h194v-800q0 -220 99 -349q95 -129 303 -129q206 0 305 129q96 131 96 349v800h195v-817q0 -193 -68 -338q-67 -143 -201 -221q-133 -80 -327 -80zM1077 1700q0 -45 -33 -78t-81 -33q-47 0 -80 33t-33 78q0 49 33 82
t80 33q48 0 81 -33t33 -82zM670 1700q0 -45 -33 -78t-82 -33q-47 0 -80 33t-33 78q0 49 33 82t80 33q49 0 82 -33t33 -82zM834 1831h-168l161 264h191z" />
    <glyph glyph-name="uni01D8" unicode="&#x1d8;" horiz-adv-x="1169" 
d="M834 424v625h182v-1049h-178v139q-53 -80 -131 -123q-77 -45 -179 -45q-179 0 -280 119q-105 120 -105 311v648h183v-625q0 -129 67 -205q65 -80 180 -80q109 0 185 76t76 209zM776 1239q-47 0 -80 33q-32 28 -32 78q0 48 32 80q34 30 80 30t80 -30q31 -36 31 -80
q0 -47 -31 -78q-33 -33 -80 -33zM387 1239q-49 0 -78 33q-33 29 -33 78q0 47 33 80q30 30 78 30q45 0 80 -30q33 -33 33 -80q0 -49 -33 -78q-33 -33 -80 -33zM653 1516h-161l153 315h184z" />
    <glyph glyph-name="uni01D9" unicode="&#x1d9;" horiz-adv-x="1519" 
d="M760 -31q-195 0 -328 80q-134 78 -201 221t-67 338v817h194v-800q0 -220 99 -349q95 -129 303 -129q206 0 305 129q96 131 96 349v800h195v-817q0 -193 -68 -338q-67 -143 -201 -221q-133 -80 -327 -80zM1077 1700q0 -45 -33 -78t-81 -33q-47 0 -80 33t-33 78q0 49 33 82
t80 33q48 0 81 -33t33 -82zM670 1700q0 -45 -33 -78t-82 -33q-47 0 -80 33t-33 78q0 49 33 82t80 33q49 0 82 -33t33 -82zM412 2093h180l168 -164l168 164h180l-246 -262h-205z" />
    <glyph glyph-name="uni01DA" unicode="&#x1da;" horiz-adv-x="1169" 
d="M834 424v625h182v-1049h-178v139q-53 -80 -131 -123q-77 -45 -179 -45q-179 0 -280 119q-105 120 -105 311v648h183v-625q0 -129 67 -205q65 -80 180 -80q109 0 185 76t76 209zM776 1239q-47 0 -80 33q-32 28 -32 78q0 48 32 80q34 30 80 30t80 -30q31 -36 31 -80
q0 -47 -31 -78q-33 -33 -80 -33zM387 1239q-49 0 -78 33q-33 29 -33 78q0 47 33 80q30 30 78 30q45 0 80 -30q33 -33 33 -80q0 -49 -33 -78q-33 -33 -80 -33zM481 1524l-233 297h172l162 -195l161 195h172l-233 -297h-201z" />
    <glyph glyph-name="uni01DB" unicode="&#x1db;" horiz-adv-x="1519" 
d="M760 -31q-195 0 -328 80q-134 78 -201 221t-67 338v817h194v-800q0 -220 99 -349q95 -129 303 -129q206 0 305 129q96 131 96 349v800h195v-817q0 -193 -68 -338q-67 -143 -201 -221q-133 -80 -327 -80zM1077 1700q0 -45 -33 -78t-81 -33q-47 0 -80 33t-33 78q0 49 33 82
t80 33q48 0 81 -33t33 -82zM670 1700q0 -45 -33 -78t-82 -33q-47 0 -80 33t-33 78q0 49 33 82t80 33q49 0 82 -33t33 -82zM680 1831l-184 264h190l162 -264h-168z" />
    <glyph glyph-name="uni01DC" unicode="&#x1dc;" horiz-adv-x="1169" 
d="M834 424v625h182v-1049h-178v139q-53 -80 -131 -123q-77 -45 -179 -45q-179 0 -280 119q-105 120 -105 311v648h183v-625q0 -129 67 -205q65 -80 180 -80q109 0 185 76t76 209zM776 1239q-47 0 -80 33q-32 28 -32 78q0 48 32 80q34 30 80 30t80 -30q31 -36 31 -80
q0 -47 -31 -78q-33 -33 -80 -33zM387 1239q-49 0 -78 33q-33 29 -33 78q0 47 33 80q30 30 78 30q45 0 80 -30q33 -33 33 -80q0 -49 -33 -78q-33 -33 -80 -33zM508 1516l-174 315h184l154 -315h-164z" />
    <glyph glyph-name="uni01DD" unicode="&#x1dd;" horiz-adv-x="1140" 
d="M547 1077q157 0 270 -67q112 -66 174 -193t62 -295q0 -153 -60 -282q-62 -127 -172 -197q-116 -72 -268 -72q-147 0 -250 68q-106 65 -158 184q-53 118 -53 275v86h772q-15 161 -96 245q-84 84 -223 84q-91 0 -156 -30q-67 -36 -86 -84h-188q38 127 153 202
q116 76 279 76zM555 135q129 0 209 80q78 78 96 217h-584q6 -133 76 -215q67 -82 203 -82z" />
    <glyph glyph-name="uni01F8" unicode="&#x1f8;" horiz-adv-x="1566" 
d="M184 0v1425h193l813 -1118v1118h192v-1425h-192l-813 1118v-1118h-193zM705 1577l-203 301h203l180 -301h-180z" />
    <glyph glyph-name="uni01F9" unicode="&#x1f9;" horiz-adv-x="1177" 
d="M336 621v-621h-182v1049h178v-142q53 79 141 127q85 43 189 43q118 0 200 -55q78 -52 127 -152q45 -91 45 -221v-649h-182v614q0 138 -61 217q-63 78 -181 78q-78 0 -135 -32q-62 -33 -100 -99q-39 -62 -39 -157zM520 1198l-176 318h197l155 -318h-176z" />
    <glyph glyph-name="Aringacute" unicode="&#x1fa;" horiz-adv-x="1411" 
d="M610 1847l142 260h194l-162 -260h-174zM37 0l536 1341q-56 37 -84 89q-30 52 -30 116q0 68 33 121q34 54 88 88q53 33 125 33q71 0 124 -33q56 -35 89 -88q32 -51 32 -121q0 -64 -30 -116q-28 -52 -84 -89l538 -1341h-207l-149 383h-637l-148 -383h-196zM705 1427
q48 0 83 35q33 33 33 84q0 53 -33 86t-83 33q-51 0 -84 -33t-33 -86q0 -51 33 -84q35 -35 84 -35zM446 557h504l-252 653z" />
    <glyph glyph-name="aringacute" unicode="&#x1fb;" horiz-adv-x="1095" 
d="M436 -29q-162 0 -260 88q-98 85 -98 236q0 161 117 250q113 88 327 88h248v45q0 128 -63 182q-65 53 -179 53q-96 0 -155 -36q-61 -37 -76 -91h-184q27 130 139 211q112 80 278 80q198 0 310 -100t112 -313v-664h-172v158q-55 -94 -149 -140q-90 -47 -195 -47zM477 131
q65 0 135 31q65 29 113 92q45 57 45 152v77h-235q-133 0 -201 -45q-72 -47 -72 -135q0 -82 60 -127q57 -45 155 -45zM547 1161q-72 0 -125 33q-54 34 -88 88q-33 53 -33 121t33 121q34 54 88 88q53 33 125 33t125 -33q54 -34 88 -88q33 -53 33 -121t-33 -121
q-34 -54 -88 -88q-53 -33 -125 -33zM547 1284q49 0 84 35q33 33 33 84q0 53 -33 86t-84 33t-84 -33t-33 -86q0 -51 33 -84q35 -35 84 -35zM625 1708h-181l181 301h202z" />
    <glyph glyph-name="AEacute" unicode="&#x1fc;" horiz-adv-x="2170" 
d="M231 0h-217l940 1425h1078v-174h-795v-432h772v-174h-772v-471h805v-174h-1000v383h-565zM588 557h454v709zM1565 1577h-181l181 301h202z" />
    <glyph glyph-name="aeacute" unicode="&#x1fd;" horiz-adv-x="1824" 
d="M449 -29q-168 0 -269 88q-102 86 -102 236q0 157 115 246q115 86 323 86h254v51q0 128 -63 182q-65 53 -179 53q-96 0 -155 -36q-61 -37 -76 -91h-184q27 130 139 211q112 80 278 80q128 0 224 -47q91 -49 141 -158q66 110 164 158q103 47 215 47q147 0 250 -65
q102 -68 155 -185q54 -123 54 -274v-74h-772q9 -167 92 -256q82 -88 225 -88q98 0 160 33q63 29 84 82h188q-38 -127 -154 -203t-278 -76q-146 0 -252 62q-105 60 -168 176q-59 -119 -168 -176q-115 -62 -241 -62zM1270 913q-130 0 -205 -75q-79 -79 -100 -211h583
q-9 131 -78 209q-71 77 -200 77zM477 131q69 0 141 29q64 27 109 90q43 58 43 153v76h-238q-128 0 -198 -43q-72 -44 -72 -133q0 -82 60 -127q57 -45 155 -45zM967 1198h-176l155 318h197z" />
    <glyph glyph-name="Oslashacute" unicode="&#x1fe;" horiz-adv-x="1609" 
d="M168 -98l164 243q-109 103 -170 246q-62 145 -62 322q0 158 54 297q53 135 145 235q93 100 223 156q128 55 283 55q91 0 184 -22q78 -19 164 -64l102 154h187l-164 -244q109 -103 170 -246t61 -321q0 -166 -51 -297q-52 -133 -147 -236q-90 -97 -224 -155
q-130 -56 -282 -56q-87 0 -184 23q-82 19 -164 63l-103 -153h-186zM299 713q0 -125 37 -226q37 -104 104 -180l609 910q-107 61 -244 61q-144 0 -260 -72q-115 -71 -180 -198q-66 -132 -66 -295zM805 147q146 0 262 72q112 69 178 201q66 129 66 293q0 123 -37 227
q-37 101 -105 178l-608 -909q109 -62 244 -62zM883 1577h-181l181 301h202z" />
    <glyph glyph-name="oslashacute" unicode="&#x1ff;" horiz-adv-x="1187" 
d="M113 -98l133 207q-77 74 -117 180q-41 109 -41 235q0 160 66 289q64 124 178 195q112 69 262 69q124 0 233 -53l78 123h170l-133 -207q77 -74 117 -180q41 -109 41 -236q0 -163 -64 -288q-63 -122 -180 -195q-113 -70 -262 -70q-123 0 -234 54l-77 -123h-170zM272 524
q0 -151 72 -258l391 613q-60 32 -141 32q-144 0 -232 -104q-90 -110 -90 -283zM594 137q143 0 231 107q90 107 90 280q0 152 -71 258l-391 -612q62 -33 141 -33zM670 1198h-176l155 318h197z" />
    <glyph glyph-name="uni0218" unicode="&#x218;" horiz-adv-x="1300" 
d="M664 -31q-231 0 -383 107q-157 109 -203 299h198q34 -108 136 -166q103 -62 250 -62q143 0 243 62q99 58 99 174q0 63 -27 113q-28 48 -94 82q-63 32 -195 51l-170 26q-206 35 -305 123q-98 88 -98 262q0 127 71 222q69 90 191 143q117 51 266 51q137 0 250 -43
q109 -41 188 -127q77 -86 101 -217h-199q-27 111 -115 160t-223 49q-150 0 -239 -59q-93 -63 -93 -168q0 -92 64 -144q63 -51 241 -78l160 -24q219 -35 322 -135q102 -102 102 -275q0 -137 -69 -229q-72 -97 -191 -146q-119 -51 -278 -51zM535 -522q35 48 69 106
q27 55 41 97q-49 3 -78 32q-28 28 -28 72q0 50 32 78q33 33 88 33q63 0 99 -39q35 -38 35 -95q0 -62 -27 -129q-31 -74 -90 -155h-141z" />
    <glyph glyph-name="uni0219" unicode="&#x219;" horiz-adv-x="1009" 
d="M524 -31q-184 0 -303 88q-119 84 -143 219h184q15 -58 86 -102q67 -43 172 -43q103 0 164 43q61 40 61 115q0 58 -43 98q-42 36 -147 51l-160 21q-297 37 -297 291q0 91 54 170q52 73 143 116q90 41 207 41q169 0 276 -82q108 -82 135 -209h-182q-21 63 -78 97
q-54 32 -147 32q-102 0 -160 -43q-61 -46 -61 -116q0 -60 43 -90q46 -31 141 -43l160 -21q149 -18 227 -102q76 -82 76 -205q0 -98 -53 -172q-51 -71 -146 -113q-89 -41 -209 -41zM401 -522q40 56 70 106q27 55 41 97q-49 3 -78 32q-28 28 -28 72q0 50 32 78q33 33 88 33
q63 0 99 -39q34 -37 34 -95q0 -64 -26 -129q-31 -74 -90 -155h-142z" />
    <glyph glyph-name="uni021A" unicode="&#x21a;" horiz-adv-x="1370" 
d="M782 0h-194v1251h-506v174h1206v-174h-506v-1251zM555 -522q40 56 70 106q27 55 41 97q-49 3 -78 32t-29 72q0 49 33 78q33 33 88 33q62 0 98 -39q35 -38 35 -95q0 -62 -27 -129q-31 -74 -90 -155h-141z" />
    <glyph glyph-name="uni021B" unicode="&#x21b;" horiz-adv-x="700" 
d="M530 -8q-148 0 -229 84q-80 83 -80 241v568h-186v164h186v333q82 6 182 35v-368h230v-164h-230v-551q0 -85 43 -131q41 -47 117 -47h70v-164h-103zM299 -522q40 56 70 106q27 55 41 97q-49 3 -78 32t-29 72q0 49 33 78q33 33 88 33q62 0 98 -39q35 -38 35 -95
q0 -62 -27 -129q-31 -74 -90 -155h-141z" />
    <glyph glyph-name="uni0232" unicode="&#x232;" horiz-adv-x="1318" 
d="M563 0v549l-532 876h225l410 -690l403 690h217l-528 -872v-553h-195zM338 1812h639v-155h-639v155z" />
    <glyph glyph-name="uni0233" unicode="&#x233;" horiz-adv-x="1069" 
d="M268 -420l174 420l-415 1049h206l308 -834l303 834h198l-579 -1469h-195zM231 1438h615v-154h-615v154z" />
    <glyph glyph-name="uni0237" unicode="&#x237;" horiz-adv-x="489" 
d="M-57 -420v164h55q78 0 117 51t39 139v1115h182v-1133q0 -158 -78 -248q-76 -88 -227 -88h-88z" />
    <glyph glyph-name="uni024C" unicode="&#x24c;" horiz-adv-x="1435" 
d="M225 0v535h-164v174h164v716h537q274 0 414 -116q139 -118 139 -324q0 -166 -88 -270q-86 -105 -228 -150l379 -565h-231l-354 535h-373v-535h-195zM420 1251v-542h319q194 0 285 73q92 71 92 205q0 131 -92 199q-92 65 -285 65h-319z" />
    <glyph glyph-name="uni024D" unicode="&#x24d;" horiz-adv-x="745" 
d="M174 0v375h-158v127h158v547h178v-187q50 92 129 144q79 49 178 49h33v-176h-37q-82 0 -147 -39q-70 -40 -111 -117t-41 -193v-28h334v-127h-334v-375h-182z" />
    <glyph glyph-name="uni0250" unicode="&#x250;" horiz-adv-x="1095" 
d="M659 1077q161 0 261 -86q98 -88 98 -237q0 -159 -115 -248q-119 -90 -330 -90h-247v-45q0 -128 65 -181q64 -55 176 -55q97 0 158 37q59 38 74 90h184q-27 -130 -137 -209q-113 -82 -281 -82q-194 0 -307 101q-115 103 -115 313v664h172v-158q55 95 150 141q91 45 194 45
zM326 643v-78h235q133 0 201 45q72 47 72 135q0 81 -60 129q-62 44 -156 44q-65 0 -135 -31q-63 -28 -112 -90q-45 -60 -45 -154z" />
    <glyph glyph-name="uni0251" unicode="&#x251;" horiz-adv-x="1275" 
d="M532 -29q-132 0 -233 70q-101 67 -156 192q-55 122 -55 289q0 164 59 291q58 125 162 195q103 69 242 69q105 0 194 -53q90 -56 148 -158q17 107 35 183h178q-24 -123 -39 -261q-16 -147 -16 -256v-69q0 -123 12 -187q9 -68 43 -92q33 -26 92 -26h23v-166h-52
q-232 0 -272 196q-50 -98 -149 -159q-94 -58 -216 -58zM575 137q138 0 220 107t82 278q0 174 -82 281q-81 106 -220 106q-136 0 -217 -106q-84 -110 -84 -281q0 -168 84 -278q82 -107 217 -107z" />
    <glyph glyph-name="uni0253" unicode="&#x253;" horiz-adv-x="1236" 
d="M154 0v1090q0 204 102 299q104 96 289 96h135v-152h-119q-108 0 -166 -61q-59 -62 -59 -191v-196q56 89 143 141q86 51 201 51q140 0 246 -69q105 -70 164 -195q59 -127 59 -289t-59 -286q-57 -123 -164 -195q-106 -72 -246 -72q-114 0 -205 54q-86 51 -143 145v-170
h-178zM647 139q139 0 227 107q89 106 89 278t-89 281q-88 104 -227 104q-142 0 -229 -106q-90 -110 -90 -279q0 -168 90 -278q88 -107 229 -107z" />
    <glyph glyph-name="uni0254" unicode="&#x254;" horiz-adv-x="1097" 
d="M510 -29q-125 0 -211 45q-91 46 -147 123q-59 77 -74 176h188q15 -82 78 -127q61 -49 168 -49q136 0 225 105q86 106 86 280q0 172 -86 281q-88 104 -225 104q-108 0 -168 -51q-61 -52 -76 -127h-190q24 147 137 248q113 98 295 98q150 0 262 -69q110 -68 176 -197
q62 -127 62 -287q0 -161 -62 -288q-65 -126 -176 -195q-113 -70 -262 -70z" />
    <glyph glyph-name="uni0257" unicode="&#x257;" horiz-adv-x="1306" 
d="M557 -29q-141 0 -244 72q-108 71 -166 195q-59 124 -59 286t59 289q60 126 166 195q103 69 244 69q115 0 201 -51q87 -52 143 -141v264q0 166 86 252q84 84 236 84h73v-152h-34q-86 0 -132 -43q-47 -44 -47 -162v-1128h-178v170q-57 -94 -143 -145q-91 -54 -205 -54z
M590 139q143 0 231 107t88 278q0 172 -88 279q-87 106 -231 106q-140 0 -228 -104q-88 -107 -88 -281t88 -278q88 -107 228 -107z" />
    <glyph glyph-name="uni0258" unicode="&#x258;" horiz-adv-x="1140" 
d="M547 -29q-163 0 -279 76q-115 75 -153 203h188q21 -52 86 -82q62 -33 156 -33q140 0 223 86q81 81 96 244h-772v86q0 155 53 276q53 117 158 185q103 65 250 65q153 0 268 -71q110 -70 172 -197q60 -129 60 -283q0 -168 -62 -295q-61 -125 -174 -192q-115 -68 -270 -68z
M555 913q-136 0 -203 -82q-70 -82 -76 -215h584q-18 139 -96 220q-80 77 -209 77z" />
    <glyph glyph-name="uni0259" unicode="&#x259;" horiz-adv-x="1140" 
d="M547 1077q157 0 270 -67q112 -66 174 -193t62 -295q0 -153 -60 -282q-62 -127 -172 -197q-116 -72 -268 -72q-147 0 -250 68q-106 65 -158 184q-53 118 -53 275v86h772q-15 161 -96 245q-84 84 -223 84q-91 0 -156 -30q-67 -36 -86 -84h-188q38 127 153 202
q116 76 279 76zM555 135q129 0 209 80q78 78 96 217h-584q6 -133 76 -215q67 -82 203 -82z" />
    <glyph glyph-name="uni025B" unicode="&#x25b;" horiz-adv-x="1073" 
d="M535 -29q-198 0 -320 84q-123 83 -123 224q0 94 66 163q70 70 174 95q-103 24 -158 88q-57 60 -57 153q0 86 53 154q50 64 147 106q88 39 211 39q175 0 297 -78q117 -77 158 -227h-188q-35 75 -99 109q-60 32 -161 32q-108 0 -170 -41q-64 -40 -64 -110q0 -69 61 -109
q59 -41 175 -41h211v-157h-207q-123 0 -193 -43q-69 -43 -69 -121q0 -74 71 -115t189 -41q111 0 178 33q69 29 96 104h188q-44 -154 -163 -227q-121 -74 -303 -74z" />
    <glyph glyph-name="uni0261" unicode="&#x261;" horiz-adv-x="1236" 
d="M557 -6q-141 0 -244 69q-108 70 -166 193q-59 121 -59 279q0 156 59 280q58 123 166 193q103 69 244 69q119 0 205 -51q85 -50 143 -143v166h178v-1018q0 -230 -125 -355t-348 -125q-187 0 -315 84q-124 81 -162 215h197q34 -57 100 -94q67 -37 176 -37q142 0 219 74
q76 73 76 227v164q-54 -86 -143 -139q-86 -51 -201 -51zM590 162q96 0 166 49q71 47 112 131t41 195q0 110 -41 194t-112 131t-166 47q-93 0 -164 -47q-69 -46 -111 -131q-41 -84 -41 -194q0 -111 41 -195q42 -85 111 -131q70 -49 164 -49z" />
    <glyph glyph-name="uni0263" unicode="&#x263;" horiz-adv-x="1157" 
d="M580 -449q-121 0 -185 70q-65 71 -65 168q0 38 10 80q6 29 35 88q20 42 65 123l37 65l-450 904h204l349 -750l350 750h200l-446 -906l33 -59q45 -81 65 -123q28 -54 35 -86q10 -42 10 -78q0 -103 -65 -174q-66 -72 -182 -72zM489 -201q0 -45 25 -73q21 -27 66 -27
q43 0 67 27q23 30 23 73q0 37 -15 72q-15 37 -45 90l-32 59l-33 -59q-32 -56 -43 -90q-13 -37 -13 -72z" />
    <glyph glyph-name="uni026A" unicode="&#x26a;" horiz-adv-x="489" 
d="M154 0v1049h182v-1049h-182z" />
    <glyph glyph-name="uni0272" unicode="&#x272;" horiz-adv-x="1177" 
d="M-57 -420v164h55q78 0 117 51t39 139v1115h178v-142q53 79 141 127q85 43 189 43q118 0 200 -55q78 -52 127 -152q45 -91 45 -221v-649h-182v614q0 138 -61 217q-63 78 -181 78q-78 0 -135 -32q-62 -33 -100 -99q-39 -62 -39 -157v-705q0 -158 -78 -248q-76 -88 -227 -88
h-88z" />
    <glyph glyph-name="uni0275" unicode="&#x275;" horiz-adv-x="1187" 
d="M594 -29q-150 0 -262 72q-114 71 -178 195q-66 126 -66 286t66 289q66 126 178 195t262 69q152 0 264 -69t178 -195q64 -125 64 -289t-64 -286q-64 -124 -178 -195q-112 -72 -264 -72zM594 913q-126 0 -213 -84q-89 -86 -107 -227h639q-18 141 -104 227q-90 84 -215 84z
M594 135q126 0 215 86q86 83 104 225h-639q18 -142 107 -225q86 -86 213 -86z" />
    <glyph glyph-name="uni0283" unicode="&#x283;" horiz-adv-x="557" 
d="M563 1485v-162h-49q-88 0 -133 -51t-45 -144v-1204q0 -165 -86 -254q-87 -90 -244 -90h-82v162h51q89 0 134 51t45 144v1204q0 165 86 254q87 90 243 90h80z" />
    <glyph glyph-name="uni028A" unicode="&#x28a;" horiz-adv-x="1191" 
d="M596 133q235 0 235 283v340q0 293 273 293h47v-158h-18q-119 0 -119 -150v-325q0 -219 -113 -332q-115 -115 -305 -115q-188 0 -303 115t-115 332v325q0 150 -119 150h-18v158h47q272 0 272 -293v-340q0 -283 236 -283z" />
    <glyph glyph-name="uni02BB" unicode="&#x2bb;" horiz-adv-x="1173" 
d="M571 942q-65 0 -102 43q-39 39 -39 111q0 82 35 172q32 82 119 215h161q-72 -110 -106 -174q-33 -61 -49 -125q51 -6 82 -37q30 -35 30 -80q0 -49 -34 -86q-36 -39 -97 -39z" />
    <glyph glyph-name="circumflex" unicode="&#x2c6;" horiz-adv-x="1173" 
d="M240 1198l245 318h205l246 -318h-184l-164 197l-164 -197h-184z" />
    <glyph glyph-name="caron" unicode="&#x2c7;" horiz-adv-x="1173" 
d="M485 1198l-245 318h184l164 -197l164 197h184l-246 -318h-205z" />
    <glyph glyph-name="uni02C9" unicode="&#x2c9;" horiz-adv-x="1173" 
d="M283 1438h614v-154h-614v154z" />
    <glyph glyph-name="uni02CA" unicode="&#x2ca;" horiz-adv-x="1173" 
d="M588 1198h-176l155 318h197z" />
    <glyph glyph-name="uni02CB" unicode="&#x2cb;" horiz-adv-x="1173" 
d="M588 1198l-176 318h196l156 -318h-176z" />
    <glyph glyph-name="breve" unicode="&#x2d8;" horiz-adv-x="1173" 
d="M588 1192q-140 0 -232 86q-93 84 -102 233h164q9 -85 53 -129q47 -47 117 -47t117 47q44 44 53 129h164q-9 -148 -103 -233q-92 -86 -231 -86z" />
    <glyph glyph-name="dotaccent" unicode="&#x2d9;" horiz-adv-x="1173" 
d="M588 1229q-54 0 -88 37q-37 37 -37 88t37 88q34 37 88 37q53 0 90 -37q35 -38 35 -88t-35 -88q-37 -37 -90 -37z" />
    <glyph glyph-name="ring" unicode="&#x2da;" horiz-adv-x="1173" 
d="M588 1161q-72 0 -125 33q-54 34 -88 88q-33 53 -33 121t33 121q34 54 88 88q53 33 125 33t125 -33q54 -34 88 -88q33 -53 33 -121t-33 -121q-34 -54 -88 -88q-53 -33 -125 -33zM588 1284q49 0 84 35q33 33 33 84q0 53 -33 86t-84 33t-84 -33t-33 -86q0 -51 33 -84
q35 -35 84 -35z" />
    <glyph glyph-name="ogonek" unicode="&#x2db;" horiz-adv-x="1173" 
d="M645 -492q-125 0 -196 62q-74 62 -74 160q0 194 260 317l82 -47q-101 -64 -139 -123q-39 -56 -39 -115q0 -58 41 -88q40 -30 100 -30h65v-136h-100z" />
    <glyph glyph-name="tilde" unicode="&#x2dc;" horiz-adv-x="1173" 
d="M741 1202q-37 0 -86 17q-51 17 -102 53q-49 33 -59 37q-19 8 -43 8q-64 0 -64 -70v-41h-143v68q0 90 53 143t135 53q45 0 88 -14q43 -15 101 -55q46 -30 61 -37q19 -8 41 -8q63 0 63 69v41h144v-67q0 -91 -51 -142q-52 -55 -138 -55z" />
    <glyph glyph-name="hungarumlaut" unicode="&#x2dd;" horiz-adv-x="1173" 
d="M586 1198l174 318h188l-194 -318h-168zM248 1198l153 318h189l-174 -318h-168z" />
    <glyph glyph-name="gravecomb" unicode="&#x300;" horiz-adv-x="0" 
d="M-76 1198l-176 318h197l155 -318h-176z" />
    <glyph glyph-name="acutecomb" unicode="&#x301;" horiz-adv-x="0" 
d="M76 1198h-176l155 318h197z" />
    <glyph glyph-name="uni0302" unicode="&#x302;" horiz-adv-x="0" 
d="M-348 1198l246 318h204l246 -318h-184l-164 197l-164 -197h-184z" />
    <glyph glyph-name="tildecomb" unicode="&#x303;" horiz-adv-x="0" 
d="M154 1202q-37 0 -86 17q-53 18 -103 53q-46 30 -61 37q-19 8 -41 8q-64 0 -64 -70v-41h-143v68q0 92 51 143q53 53 137 53q45 0 86 -14q44 -14 103 -55q46 -30 61 -37q19 -8 41 -8q64 0 64 69v41h143v-67q0 -91 -51 -142q-52 -55 -137 -55z" />
    <glyph glyph-name="uni0304" unicode="&#x304;" horiz-adv-x="0" 
d="M-307 1438h614v-154h-614v154z" />
    <glyph glyph-name="uni0306" unicode="&#x306;" horiz-adv-x="0" 
d="M0 1192q-139 0 -231 86q-94 85 -103 233h164q9 -85 53 -129q47 -47 117 -47t117 47q44 44 53 129h164q-9 -148 -103 -233q-92 -86 -231 -86z" />
    <glyph glyph-name="uni0307" unicode="&#x307;" horiz-adv-x="0" 
d="M0 1229q-53 0 -90 37q-35 38 -35 88t35 88q37 37 90 37t90 -37q35 -38 35 -88t-35 -88q-37 -37 -90 -37z" />
    <glyph glyph-name="uni0308" unicode="&#x308;" horiz-adv-x="0" 
d="M188 1235q-49 0 -84 35q-34 34 -34 82q0 50 34 84q32 32 84 32t84 -32q35 -35 35 -84q0 -47 -35 -82t-84 -35zM-188 1235q-49 0 -84 35t-35 82q0 49 35 84q32 32 84 32t84 -32q34 -34 34 -84q0 -48 -34 -82q-35 -35 -84 -35z" />
    <glyph glyph-name="hookabovecomb" unicode="&#x309;" horiz-adv-x="0" 
d="M-113 1161l-34 125l86 25q63 17 98 39q33 17 33 53q0 61 -101 61h-172v129h185q116 0 180 -49q61 -49 61 -139q0 -92 -65 -139q-60 -41 -181 -78z" />
    <glyph glyph-name="uni030A" unicode="&#x30a;" horiz-adv-x="0" 
d="M0 1161q-72 0 -125 33q-54 34 -88 88q-33 53 -33 121t33 121q34 54 88 88q53 33 125 33t125 -33q54 -34 88 -88q33 -53 33 -121t-33 -121q-34 -54 -88 -88q-53 -33 -125 -33zM0 1284q49 0 84 35q33 33 33 84q0 53 -33 86t-84 33t-84 -33t-33 -86q0 -51 33 -84
q35 -35 84 -35z" />
    <glyph glyph-name="uni030B" unicode="&#x30b;" horiz-adv-x="0" 
d="M86 1198l174 318h189l-195 -318h-168zM-252 1198l154 318h188l-174 -318h-168z" />
    <glyph glyph-name="uni030C" unicode="&#x30c;" horiz-adv-x="0" 
d="M-102 1198l-246 318h184l164 -197l164 197h184l-246 -318h-204z" />
    <glyph glyph-name="uni0312" unicode="&#x312;" horiz-adv-x="0" 
d="M4 1169q-64 0 -98 37q-35 38 -35 94q0 58 29 140q29 73 98 170h143q-44 -60 -75 -117q-29 -57 -48 -109q49 -3 78 -32t29 -74q0 -47 -33 -76q-33 -33 -88 -33z" />
    <glyph glyph-name="uni0315" unicode="&#x315;" horiz-adv-x="0" 
d="M-4 1024l12 461h178l-47 -461h-143z" />
    <glyph glyph-name="uni031B" unicode="&#x31b;" horiz-adv-x="0" 
d="M-195 1049q148 0 148 163v78h164v-92q0 -141 -74 -215q-76 -76 -221 -76h-98v142h81z" />
    <glyph glyph-name="dotbelowcomb" unicode="&#x323;" horiz-adv-x="0" 
d="M0 -387q-52 0 -90 35q-35 38 -35 90q0 53 35 88q37 37 90 37t90 -37q35 -35 35 -88q0 -52 -35 -90q-38 -35 -90 -35z" />
    <glyph glyph-name="uni0326" unicode="&#x326;" horiz-adv-x="0" 
d="M-129 -522q46 64 68 106q26 47 43 97q-49 3 -78 32t-29 72q0 49 33 78q33 33 88 33q62 0 98 -39q35 -38 35 -95q0 -62 -27 -129q-31 -74 -90 -155h-141z" />
    <glyph glyph-name="uni0327" unicode="&#x327;" horiz-adv-x="0" 
d="M-168 -492v127h98q51 0 90 17q31 19 31 57q0 72 -110 72h-82l90 274h129l-62 -161q86 -3 140 -54q53 -53 53 -135q0 -93 -64 -145t-176 -52h-137z" />
    <glyph glyph-name="uni0328" unicode="&#x328;" horiz-adv-x="0" 
d="M18 -492q-124 0 -198 62q-72 63 -72 160q0 194 260 317l82 -47q-99 -63 -141 -123q-37 -58 -37 -115q0 -59 39 -88q41 -30 102 -30h66v-136h-101z" />
    <glyph glyph-name="uni0329" unicode="&#x329;" horiz-adv-x="0" 
d="M-86 -514v399h170v-399h-170z" />
    <glyph glyph-name="uni0338" unicode="&#x338;" horiz-adv-x="0" 
d="M-418 -299l727 1978h107l-725 -1978h-109z" />
    <glyph glyph-name="uni0344" unicode="&#x344;" horiz-adv-x="0" 
d="M-82 1565l156 344h182l-176 -344h-162zM-190 1233q-49 0 -84 35q-33 33 -33 82t33 82q32 32 84 32q49 0 81 -32q35 -35 35 -82t-35 -82t-81 -35zM190 1233q-46 0 -81 35t-35 82t35 82q32 32 81 32q52 0 84 -32q33 -33 33 -82t-33 -82q-35 -35 -84 -35z" />
    <glyph glyph-name="uni0374" unicode="&#x374;" horiz-adv-x="514" 
d="M82 922l180 503h170l-203 -503h-147z" />
    <glyph glyph-name="uni0375" unicode="&#x375;" horiz-adv-x="514" 
d="M82 -483l180 483h170l-203 -483h-147z" />
    <glyph glyph-name="uni037E" unicode="&#x37e;" horiz-adv-x="557" 
d="M63 -350q79 121 123 196q47 80 62 146q-54 6 -80 39q-31 36 -31 78q0 51 37 88q33 36 96 36t103 -40q39 -39 39 -111q0 -92 -45 -197q-38 -86 -138 -235h-166zM279 809q-56 0 -95 39q-41 41 -41 96t41 96q39 39 95 39q57 0 96 -39t39 -96t-39 -96t-96 -39z" />
    <glyph glyph-name="tonos" unicode="&#x384;" horiz-adv-x="1177" 
d="M418 1198l157 344h185l-172 -344h-170z" />
    <glyph glyph-name="dieresistonos" unicode="&#x385;" horiz-adv-x="1177" 
d="M506 1565l156 344h182l-176 -344h-162zM397 1233q-47 0 -82 35q-34 34 -34 82t34 82q32 32 82 32q52 0 84 -32q33 -33 33 -82t-33 -82q-35 -35 -84 -35zM778 1233q-47 0 -82 35q-34 34 -34 82t34 82q32 32 82 32q52 0 84 -32q33 -33 33 -82t-33 -82q-35 -35 -84 -35z" />
    <glyph glyph-name="Alphatonos" unicode="&#x386;" horiz-adv-x="1419" 
d="M1176 0l-150 383h-633l-147 -383h-201l569 1425h197l571 -1425h-206zM459 557h499l-249 647zM31 1081l135 344h182l-155 -344h-162z" />
    <glyph glyph-name="anoteleia" unicode="&#x387;" horiz-adv-x="557" 
d="M279 809q-56 0 -95 39q-41 41 -41 96t41 96q39 39 95 39q57 0 96 -39t39 -96t-39 -96t-96 -39z" />
    <glyph glyph-name="Epsilontonos" unicode="&#x388;" horiz-adv-x="1652" 
d="M524 0v1425h989v-174h-794v-432h772v-174h-772v-471h805v-174h-1000zM31 1081l135 344h182l-155 -344h-162z" />
    <glyph glyph-name="Etatonos" unicode="&#x389;" horiz-adv-x="1910" 
d="M524 0v1425h195v-589h813v589h194v-1425h-194v662h-813v-662h-195zM31 1081l135 344h182l-155 -344h-162z" />
    <glyph glyph-name="Iotatonos" unicode="&#x38a;" horiz-adv-x="903" 
d="M719 0h-195v1425h195v-1425zM31 1081l135 344h182l-155 -344h-162z" />
    <glyph glyph-name="Omicrontonos" unicode="&#x38c;" horiz-adv-x="1865" 
d="M1061 -31q-153 0 -283 56q-132 57 -223 155q-92 99 -145 236q-54 139 -54 297t54 297q53 135 145 235q93 100 223 156q128 55 283 55q154 0 282 -55q132 -57 224 -156q96 -103 147 -235q51 -131 51 -297t-51 -297q-52 -133 -147 -236q-90 -97 -224 -155
q-130 -56 -282 -56zM1061 147q146 0 262 72q112 69 178 201q66 129 66 293q0 163 -66 295q-66 129 -178 198q-116 72 -262 72q-144 0 -260 -72q-115 -71 -180 -198q-66 -132 -66 -295q0 -164 66 -293q65 -130 180 -201q116 -72 260 -72zM31 1081l135 344h182l-155 -344h-162
z" />
    <glyph glyph-name="Upsilontonos" unicode="&#x38e;" horiz-adv-x="1761" 
d="M1006 0v549l-533 876h225l410 -690l403 690h218l-529 -872v-553h-194zM31 1081l135 344h182l-155 -344h-162z" />
    <glyph glyph-name="Omegatonos" unicode="&#x38f;" horiz-adv-x="1873" 
d="M362 0v174h291q-135 99 -215 256t-80 334q0 149 52 274q53 127 145 219q93 96 221 148q122 51 279 51q155 0 280 -51q125 -52 221 -148q93 -96 144 -219q51 -122 51 -274q0 -177 -80 -334t-215 -256h291v-174h-553v166q104 53 186 145t127 201q45 107 45 233
q0 154 -63 271q-67 124 -174 192q-113 70 -260 70q-148 0 -258 -70q-109 -67 -176 -192q-64 -119 -64 -271q0 -121 47 -233q46 -113 125 -201q82 -92 186 -145v-166h-553zM31 1081l135 344h182l-155 -344h-162z" />
    <glyph glyph-name="iotadieresistonos" unicode="&#x390;" horiz-adv-x="595" 
d="M143 315v734h183v-719q0 -174 161 -174h68v-164h-102q-149 0 -230 84q-80 83 -80 239zM154 1565l155 344h183l-177 -344h-161zM45 1233q-49 0 -84 35q-33 33 -33 82t33 82q32 32 84 32t84 -32q33 -33 33 -82t-33 -82q-35 -35 -84 -35zM426 1233q-47 0 -82 35t-35 82
t35 82q32 32 82 32q52 0 84 -32q33 -33 33 -82t-33 -82q-35 -35 -84 -35z" />
    <glyph glyph-name="Alpha" unicode="&#x391;" horiz-adv-x="1411" 
d="M1167 0l-149 383h-633l-147 -383h-201l569 1425h197l571 -1425h-207zM451 557h499l-250 647z" />
    <glyph glyph-name="Beta" unicode="&#x392;" horiz-adv-x="1409" 
d="M184 0v1425h580q238 0 362 -100q127 -103 127 -276q0 -111 -61 -187q-64 -79 -170 -119q144 -41 213 -127q70 -88 70 -215q0 -183 -136 -292t-378 -109h-607zM741 1251h-362v-430h362q149 0 232 56q84 57 84 159q0 215 -316 215zM774 647h-395v-473h395q332 0 332 238
q0 112 -86 174q-85 61 -246 61z" />
    <glyph glyph-name="Gamma" unicode="&#x393;" horiz-adv-x="1206" 
d="M184 0v1425h940v-174h-745v-1251h-195z" />
    <glyph glyph-name="uni0394" unicode="&#x394;" horiz-adv-x="1456" 
d="M827 1425l547 -1257v-168h-1292v168l545 1257h200zM281 174h882l-440 1047z" />
    <glyph glyph-name="Epsilon" unicode="&#x395;" horiz-adv-x="1312" 
d="M184 0v1425h990v-174h-795v-432h772v-174h-772v-471h805v-174h-1000z" />
    <glyph glyph-name="Zeta" unicode="&#x396;" horiz-adv-x="1271" 
d="M92 1425h1075v-165l-837 -1086h852v-174h-1090v166l838 1085h-838v174z" />
    <glyph glyph-name="Eta" unicode="&#x397;" horiz-adv-x="1570" 
d="M184 0v1425h195v-589h813v589h194v-1425h-194v662h-813v-662h-195z" />
    <glyph glyph-name="Theta" unicode="&#x398;" horiz-adv-x="1609" 
d="M805 -31q-153 0 -283 56q-132 57 -223 155q-92 99 -145 236q-54 139 -54 297t54 297q53 135 145 235q93 100 223 156q128 55 283 55q154 0 282 -55q132 -57 224 -156q96 -103 147 -235q51 -131 51 -297t-51 -297q-52 -133 -147 -236q-90 -97 -224 -155q-130 -56 -282 -56
zM805 147q146 0 262 72q112 69 178 201q66 129 66 293q0 163 -66 295q-66 129 -178 198q-116 72 -262 72q-144 0 -260 -72q-115 -71 -180 -198q-66 -132 -66 -295q0 -164 66 -293q65 -130 180 -201q116 -72 260 -72zM539 623v178h532v-178h-532z" />
    <glyph glyph-name="Iota" unicode="&#x399;" horiz-adv-x="563" 
d="M379 0h-195v1425h195v-1425z" />
    <glyph glyph-name="Kappa" unicode="&#x39a;" horiz-adv-x="1351" 
d="M184 0v1425h195v-612l665 612h250l-751 -686l786 -739h-266l-684 643v-643h-195z" />
    <glyph glyph-name="Lambda" unicode="&#x39b;" horiz-adv-x="1392" 
d="M1147 0l-453 1194l-456 -1194h-201l563 1425h197l559 -1425h-209z" />
    <glyph glyph-name="Mu" unicode="&#x39c;" horiz-adv-x="1818" 
d="M375 0h-191v1425h213l516 -829l508 829h213v-1425h-192v1133l-533 -867l-534 862v-1128z" />
    <glyph glyph-name="Nu" unicode="&#x39d;" horiz-adv-x="1566" 
d="M184 0v1425h193l813 -1118v1118h192v-1425h-192l-813 1118v-1118h-193z" />
    <glyph glyph-name="Xi" unicode="&#x39e;" 
d="M133 1251v174h987v-174h-987zM295 645v174h663v-174h-663zM119 0v174h1016v-174h-1016z" />
    <glyph glyph-name="Omicron" unicode="&#x39f;" horiz-adv-x="1609" 
d="M805 -31q-153 0 -283 56q-132 57 -223 155q-92 99 -145 236q-54 139 -54 297t54 297q53 135 145 235q93 100 223 156q128 55 283 55q154 0 282 -55q132 -57 224 -156q96 -103 147 -235q51 -131 51 -297t-51 -297q-52 -133 -147 -236q-90 -97 -224 -155q-130 -56 -282 -56
zM805 147q146 0 262 72q112 69 178 201q66 129 66 293q0 163 -66 295q-66 129 -178 198q-116 72 -262 72q-144 0 -260 -72q-115 -71 -180 -198q-66 -132 -66 -295q0 -164 66 -293q65 -130 180 -201q116 -72 260 -72z" />
    <glyph glyph-name="Pi" unicode="&#x3a0;" horiz-adv-x="1544" 
d="M184 0v1425h1176v-1425h-195v1251h-786v-1251h-195z" />
    <glyph glyph-name="Rho" unicode="&#x3a1;" horiz-adv-x="1349" 
d="M184 0v1425h525q275 0 415 -125q142 -127 142 -329q0 -205 -142 -332q-140 -125 -415 -125h-330v-514h-195zM379 688h303q196 0 291 74q94 73 94 209q0 134 -94 207t-291 73h-303v-563z" />
    <glyph glyph-name="Sigma" unicode="&#x3a3;" horiz-adv-x="1232" 
d="M1145 174v-174h-1053v168l524 545l-524 544v168h1043v-174h-793l520 -538l-522 -539h805z" />
    <glyph glyph-name="Tau" unicode="&#x3a4;" horiz-adv-x="1370" 
d="M782 0h-194v1251h-506v174h1206v-174h-506v-1251z" />
    <glyph glyph-name="Upsilon" unicode="&#x3a5;" horiz-adv-x="1318" 
d="M563 0v549l-532 876h225l410 -690l403 690h217l-528 -872v-553h-195z" />
    <glyph glyph-name="Phi" unicode="&#x3a6;" horiz-adv-x="1669" 
d="M739 0v168q-192 9 -340 86q-150 78 -231 205q-84 128 -84 289q0 159 84 290q82 126 231 203q144 75 340 84v168h191v-168q196 -9 340 -84q149 -77 231 -203q84 -131 84 -290q0 -161 -84 -289q-81 -127 -231 -205q-148 -77 -340 -86v-168h-191zM281 748q0 -112 59 -201
q62 -94 162 -144q99 -54 237 -63v815q-136 -9 -237 -61q-103 -54 -162 -144q-59 -89 -59 -202zM1389 748q0 114 -58 202q-58 87 -162 144q-104 52 -239 61v-815q137 9 239 63q101 52 162 144q58 88 58 201z" />
    <glyph glyph-name="Chi" unicode="&#x3a7;" horiz-adv-x="1419" 
d="M41 0l543 743l-490 682h240l379 -536l377 536h231l-492 -682l545 -743h-239l-435 600l-428 -600h-231z" />
    <glyph glyph-name="Psi" unicode="&#x3a8;" horiz-adv-x="1593" 
d="M702 0v381q-277 21 -434 178q-155 155 -155 436v430h190v-430q0 -395 399 -436v866h191v-866q397 41 397 436v430h191v-430q0 -277 -154 -434q-159 -159 -434 -180v-381h-191z" />
    <glyph glyph-name="uni03A9" unicode="&#x3a9;" horiz-adv-x="1638" 
d="M127 0v174h291q-135 99 -215 256t-80 334q0 152 51 274q53 127 145 219q92 95 222 148q122 51 278 51t281 -51q125 -52 221 -148q91 -94 143 -219t52 -274q0 -177 -80 -334t-215 -256h290v-174h-553v166q105 54 187 145q82 92 127 201q45 107 45 233q0 152 -64 271
q-67 124 -174 192q-113 70 -260 70q-148 0 -258 -70q-109 -67 -176 -192q-63 -117 -63 -271q0 -121 47 -233q46 -113 125 -201q82 -92 186 -145v-166h-553z" />
    <glyph glyph-name="Iotadieresis" unicode="&#x3aa;" horiz-adv-x="563" 
d="M379 0h-195v1425h195v-1425zM494 1612q-49 0 -84 35t-35 82q0 48 35 83q33 33 84 33t84 -33q34 -34 34 -83q0 -48 -34 -82q-35 -35 -84 -35zM68 1612q-49 0 -84 35t-35 82q0 48 35 83q33 33 84 33q53 0 86 -33q32 -32 32 -83q0 -50 -32 -82q-35 -35 -86 -35z" />
    <glyph glyph-name="Upsilondieresis" unicode="&#x3ab;" horiz-adv-x="1318" 
d="M563 0v549l-532 876h225l410 -690l403 690h217l-528 -872v-553h-195zM870 1612q-49 0 -84 35q-34 34 -34 82q0 49 34 83q33 33 84 33t84 -33q35 -35 35 -83q0 -47 -35 -82t-84 -35zM444 1612q-49 0 -84 35q-34 34 -34 82q0 49 34 83q33 33 84 33q53 0 86 -33t33 -83
q0 -49 -33 -82q-35 -35 -86 -35z" />
    <glyph glyph-name="alphatonos" unicode="&#x3ac;" horiz-adv-x="1275" 
d="M532 -29q-132 0 -233 70q-101 67 -156 192q-55 122 -55 289q0 164 59 291q58 125 162 195q103 69 242 69q105 0 194 -53q90 -56 148 -158q17 107 35 183h178q-24 -123 -39 -261q-16 -147 -16 -256v-69q0 -123 12 -187q9 -68 43 -92q33 -26 92 -26h23v-166h-52
q-232 0 -272 196q-50 -98 -149 -159q-94 -58 -216 -58zM575 137q138 0 220 107t82 278q0 174 -82 281q-81 106 -220 106q-136 0 -217 -106q-84 -110 -84 -281q0 -168 84 -278q82 -107 217 -107zM530 1198l158 344h184l-172 -344h-170z" />
    <glyph glyph-name="epsilontonos" unicode="&#x3ad;" horiz-adv-x="1073" 
d="M535 -29q-198 0 -320 84q-123 83 -123 224q0 94 66 163q70 70 174 95q-103 24 -158 88q-57 60 -57 153q0 86 53 154q50 64 147 106q88 39 211 39q175 0 297 -78q117 -77 158 -227h-188q-35 75 -99 109q-60 32 -161 32q-108 0 -170 -41q-64 -40 -64 -110q0 -69 61 -109
q59 -41 175 -41h211v-157h-207q-123 0 -193 -43q-69 -43 -69 -121q0 -74 71 -115t189 -41q111 0 178 33q69 29 96 104h188q-44 -154 -163 -227q-121 -74 -303 -74zM451 1198l157 344h185l-172 -344h-170z" />
    <glyph glyph-name="etatonos" unicode="&#x3ae;" horiz-adv-x="1228" 
d="M901 -420v1034q0 138 -61 217q-63 78 -181 78q-78 0 -135 -32q-62 -33 -100 -99q-39 -62 -39 -160v-618h-182v741q0 144 -119 144h-21v164h50q197 0 237 -166q54 91 142 143q86 51 198 51q187 0 291 -119q102 -120 102 -309v-1069h-182zM530 1198l158 344h184l-172 -344
h-170z" />
    <glyph glyph-name="iotatonos" unicode="&#x3af;" horiz-adv-x="595" 
d="M143 315v734h183v-719q0 -174 161 -174h68v-164h-102q-149 0 -230 84q-80 83 -80 239zM141 1198l158 344h184l-172 -344h-170z" />
    <glyph glyph-name="upsilondieresistonos" unicode="&#x3b0;" horiz-adv-x="1165" 
d="M623 -29q-211 0 -326 127t-115 369v274q0 144 -116 144h-19v164h47q271 0 271 -293v-289q0 -332 258 -332q130 0 198 111q66 111 66 299q0 70 -13 166q-14 85 -36 176q-17 71 -54 162h187q49 -112 76 -246q24 -132 24 -256q0 -269 -117 -422q-121 -154 -331 -154z
M463 1565l155 344h183l-176 -344h-162zM354 1233q-47 0 -82 35q-34 34 -34 82t34 82q32 32 82 32q52 0 84 -32q33 -33 33 -82t-33 -82q-35 -35 -84 -35zM735 1233q-47 0 -82 35t-35 82t35 82q32 32 82 32q52 0 84 -32q33 -33 33 -82t-33 -82q-35 -35 -84 -35z" />
    <glyph glyph-name="alpha" unicode="&#x3b1;" horiz-adv-x="1275" 
d="M532 -29q-132 0 -233 70q-101 67 -156 192q-55 122 -55 289q0 164 59 291q58 125 162 195q103 69 242 69q105 0 194 -53q90 -56 148 -158q17 107 35 183h178q-24 -123 -39 -261q-16 -147 -16 -256v-69q0 -123 12 -187q9 -68 43 -92q33 -26 92 -26h23v-166h-52
q-232 0 -272 196q-50 -98 -149 -159q-94 -58 -216 -58zM575 137q138 0 220 107t82 278q0 174 -82 281q-81 106 -220 106q-136 0 -217 -106q-84 -110 -84 -281q0 -168 84 -278q82 -107 217 -107z" />
    <glyph glyph-name="beta" unicode="&#x3b2;" horiz-adv-x="1183" 
d="M688 -29q-235 0 -352 176v-567h-182v1407q0 160 55 279q56 121 156 184t235 63q118 0 209 -49q92 -51 143 -135q52 -88 52 -201q0 -116 -64 -204q-64 -90 -166 -125q146 -35 234 -142t88 -272q0 -119 -49 -213q-53 -94 -144 -147q-94 -54 -215 -54zM336 489
q0 -162 88 -256q87 -96 227 -96q119 0 189 76q69 72 69 193q0 142 -90 223q-90 78 -239 78h-78v159h73q105 0 175 70q67 70 67 176q0 105 -59 170q-58 64 -164 64q-115 0 -186 -89q-72 -90 -72 -253v-515z" />
    <glyph glyph-name="gamma" unicode="&#x3b3;" horiz-adv-x="1112" 
d="M465 -420v420l-248 672q-39 100 -57 135q-23 45 -49 61q-31 17 -66 17h-12v164h14q84 0 148 -23q56 -20 98 -84q35 -53 78 -174l202 -594q76 133 144 293q54 134 100 305q38 152 47 277h187q-15 -162 -70 -347t-141 -368q-90 -191 -193 -334v-420h-182z" />
    <glyph glyph-name="delta" unicode="&#x3b4;" horiz-adv-x="1163" 
d="M582 -29q-150 0 -258 60q-112 59 -172 162q-64 101 -64 239q0 158 92 285q87 124 250 196q-105 57 -168 129q-61 70 -61 166q0 85 53 156t154 111q93 38 233 38q89 0 166 -12q75 -15 137 -45v-160q-62 23 -131 37q-83 13 -166 13q-127 0 -192 -35q-68 -38 -68 -103
q0 -54 45 -90q45 -39 131 -84l127 -65q179 -93 285 -224q100 -124 100 -301q0 -140 -61 -247q-65 -108 -174 -166q-114 -60 -258 -60zM272 446q0 -141 88 -223q87 -84 222 -84q136 0 221 88q86 86 86 226q0 83 -39 151q-39 69 -105 125q-58 50 -141 94l-43 23
q-133 -57 -211 -162q-78 -104 -78 -238z" />
    <glyph glyph-name="epsilon" unicode="&#x3b5;" horiz-adv-x="1073" 
d="M535 -29q-198 0 -320 84q-123 83 -123 224q0 94 66 163q70 70 174 95q-103 24 -158 88q-57 60 -57 153q0 86 53 154q50 64 147 106q88 39 211 39q175 0 297 -78q117 -77 158 -227h-188q-35 75 -99 109q-60 32 -161 32q-108 0 -170 -41q-64 -40 -64 -110q0 -69 61 -109
q59 -41 175 -41h211v-157h-207q-123 0 -193 -43q-69 -43 -69 -121q0 -74 71 -115t189 -41q111 0 178 33q69 29 96 104h188q-44 -154 -163 -227q-121 -74 -303 -74z" />
    <glyph glyph-name="zeta" unicode="&#x3b6;" horiz-adv-x="894" 
d="M762 -317v79q0 111 -41 170q-45 61 -143 78l-99 19q-192 38 -291 137q-100 100 -100 285q0 205 139 421q141 217 428 449h-508v164h744v-146q-617 -506 -617 -870q0 -128 68 -193t203 -92l96 -18q146 -27 215 -117q68 -92 68 -276v-90h-162z" />
    <glyph glyph-name="eta" unicode="&#x3b7;" horiz-adv-x="1228" 
d="M901 -420v1034q0 138 -61 217q-63 78 -181 78q-78 0 -135 -32q-62 -33 -100 -99q-39 -62 -39 -160v-618h-182v741q0 144 -119 144h-21v164h50q197 0 237 -166q54 91 142 143q86 51 198 51q187 0 291 -119q102 -120 102 -309v-1069h-182z" />
    <glyph glyph-name="theta" unicode="&#x3b8;" horiz-adv-x="1177" 
d="M590 -29q-155 0 -264 95q-109 90 -168 266q-60 177 -60 411t60 414q59 174 168 264q109 92 264 92q154 0 266 -92q111 -97 168 -266q57 -168 57 -414q0 -243 -57 -411q-58 -174 -168 -267q-112 -92 -266 -92zM590 1346q-136 0 -219 -132q-86 -138 -95 -387h627
q-9 254 -92 387q-82 132 -221 132zM590 139q141 0 223 137q81 132 90 394h-627q9 -256 93 -394q82 -137 221 -137z" />
    <glyph glyph-name="iota" unicode="&#x3b9;" horiz-adv-x="595" 
d="M143 315v734h183v-719q0 -174 161 -174h68v-164h-102q-149 0 -230 84q-80 83 -80 239z" />
    <glyph glyph-name="kappa" unicode="&#x3ba;" horiz-adv-x="1107" 
d="M154 0v1049h182v-480l326 316q94 91 165 127q73 37 158 37h25v-164h-25q-106 0 -223 -111l-203 -196l528 -578h-229l-420 463l-102 -98v-365h-182z" />
    <glyph glyph-name="lambda" unicode="&#x3bb;" horiz-adv-x="1093" 
d="M55 0l377 1014l-51 127q-38 97 -88 143q-47 41 -119 41h-43v160h45q141 0 227 -68q84 -68 142 -221l350 -913q28 -73 61 -99q36 -28 82 -28h23v-164h-27q-123 0 -186 51q-68 55 -113 178l-217 576l-272 -797h-191z" />
    <glyph glyph-name="uni03BC" unicode="&#x3bc;" horiz-adv-x="1222" 
d="M154 -420v1469h182v-625q0 -129 67 -205q65 -80 181 -80q108 0 184 76t76 209v625h182v-748q0 -145 121 -145h22v-164h-55q-193 0 -233 168q-41 -84 -113 -135q-72 -54 -180 -54q-93 0 -158 39q-67 40 -104 107v-537h-172z" />
    <glyph glyph-name="nu" unicode="&#x3bd;" horiz-adv-x="1103" 
d="M463 0l-246 670q-39 100 -57 135q-23 45 -49 61q-31 17 -66 17h-12v164h14q86 0 150 -23q54 -23 96 -84q35 -53 78 -174l202 -588q74 130 136 281q53 135 98 303q38 140 51 285h184q-9 -114 -43 -242q-44 -167 -84 -273q-51 -137 -120 -278q-60 -122 -146 -254h-186z" />
    <glyph glyph-name="xi" unicode="&#x3be;" horiz-adv-x="935" 
d="M786 -317v79q0 111 -41 170q-45 61 -143 78l-98 19q-191 37 -301 133q-109 95 -109 258q0 138 86 244q84 104 219 131q-97 21 -163 102q-66 78 -66 182q0 80 43 144t119 98h-232v164h758v-164h-151q-169 0 -258 -57q-93 -59 -93 -170q0 -105 74 -164q72 -60 197 -60h172
v-163h-172q-162 0 -254 -68q-94 -70 -94 -195q0 -114 73 -172q74 -61 217 -88l97 -18q146 -27 215 -117q67 -91 67 -276v-90h-162z" />
    <glyph glyph-name="omicron" unicode="&#x3bf;" horiz-adv-x="1167" 
d="M584 -29q-146 0 -258 72q-113 70 -174 195q-64 122 -64 286t64 289q63 127 174 195q112 69 258 69t258 -69q109 -67 176 -195q61 -125 61 -289t-61 -286q-65 -126 -176 -195q-112 -72 -258 -72zM584 139q139 0 225 109q84 110 84 276q0 169 -84 279q-84 106 -225 106
q-143 0 -224 -106q-86 -109 -86 -279q0 -167 86 -276q83 -109 224 -109z" />
    <glyph glyph-name="pi" unicode="&#x3c0;" horiz-adv-x="1263" 
d="M238 0v885h-195v164h1149v-164h-195v-555q0 -174 156 -174h21v-164h-56q-303 0 -303 323v570h-395v-885h-182z" />
    <glyph glyph-name="rho" unicode="&#x3c1;" horiz-adv-x="1206" 
d="M139 -420v901q0 282 133 439t355 157q147 0 256 -69q108 -68 174 -195q61 -125 61 -289q0 -161 -59 -288q-57 -123 -164 -195q-104 -70 -240 -70q-112 0 -198 54q-89 53 -135 137v-582h-183zM627 139q139 0 221 107q84 110 84 278q0 169 -84 279q-81 106 -221 106
t-221 -106q-84 -110 -84 -279q0 -168 84 -278q82 -107 221 -107z" />
    <glyph glyph-name="uni03C2" unicode="&#x3c2;" horiz-adv-x="1081" 
d="M811 -317v79q0 114 -39 170q-42 61 -133 78l-98 19q-212 40 -334 174q-119 131 -119 340q0 155 62 276q59 121 169 191q110 67 256 67q172 0 291 -96q116 -96 140 -252h-191q-15 79 -76 131q-61 49 -161 49q-141 0 -222 -100q-82 -101 -82 -262q0 -154 88 -242
q92 -92 244 -121l96 -18q141 -26 207 -117q64 -91 64 -276v-90h-162z" />
    <glyph glyph-name="sigma" unicode="&#x3c3;" horiz-adv-x="1234" 
d="M580 -29q-146 0 -258 68q-109 63 -172 186q-62 121 -62 275q0 169 72 295q71 124 196 188q129 66 299 66h525v-164h-299q96 -74 147 -185q49 -107 49 -213q0 -150 -61 -266q-63 -119 -174 -182q-115 -68 -262 -68zM584 139q137 0 223 103q84 104 84 262q0 119 -49 217
q-52 99 -148 164h-51q-165 0 -266 -101q-103 -103 -103 -282q0 -108 39 -187q41 -84 109 -129q71 -47 162 -47z" />
    <glyph glyph-name="tau" unicode="&#x3c4;" horiz-adv-x="972" 
d="M651 -8q-151 0 -229 84q-80 83 -80 239v570h-303v164h866v-164h-381v-555q0 -174 160 -174h102v-164h-135z" />
    <glyph glyph-name="upsilon" unicode="&#x3c5;" horiz-adv-x="1165" 
d="M623 -29q-211 0 -326 127t-115 369v274q0 144 -116 144h-19v164h47q271 0 271 -293v-289q0 -332 258 -332q130 0 198 111q66 111 66 299q0 70 -13 166q-14 85 -36 176q-17 71 -54 162h187q49 -112 76 -246q24 -132 24 -256q0 -269 -117 -422q-121 -154 -331 -154z" />
    <glyph glyph-name="phi" unicode="&#x3c6;" horiz-adv-x="1521" 
d="M670 -420v422q-170 9 -303 80q-132 68 -209 182q-76 113 -76 260q0 149 76 262q75 111 209 183q135 69 303 78v294q82 6 182 35v-329q170 -9 305 -78q131 -70 207 -183t76 -262q0 -147 -76 -260q-78 -116 -207 -182q-133 -71 -305 -80v-422h-182zM1255 524
q0 154 -112 254q-113 98 -291 113v-733q181 15 291 114q112 97 112 252zM266 524q0 -154 113 -252q110 -99 291 -114v733q-178 -15 -291 -113q-113 -101 -113 -254z" />
    <glyph glyph-name="chi" unicode="&#x3c7;" horiz-adv-x="1042" 
d="M37 -420l381 742l-201 401q-41 80 -74 125q-34 37 -80 37h-30v164h28q75 0 132 -23q46 -19 94 -76q38 -49 86 -147l149 -307l281 553h188l-370 -725l208 -420q46 -94 82 -133q35 -35 76 -35h31v-164h-35q-73 0 -119 18q-49 21 -90 74q-45 58 -96 162l-162 321l-291 -567
h-188z" />
    <glyph glyph-name="psi" unicode="&#x3c8;" horiz-adv-x="1490" 
d="M664 -420v395q-259 21 -406 177q-145 154 -145 407v490h182v-490q0 -175 96 -285q94 -108 273 -129v1196q82 6 182 35v-1233q366 41 366 451q0 92 -16 223q-20 131 -51 232h184q31 -97 51 -230q17 -139 17 -223q0 -278 -146 -436q-149 -161 -405 -185v-395h-182z" />
    <glyph glyph-name="omega" unicode="&#x3c9;" horiz-adv-x="1597" 
d="M483 -29q-183 0 -286 148q-105 147 -105 399q0 292 154 531h186q-156 -267 -156 -533q0 -173 62 -276q58 -101 172 -101q96 0 149 86q52 82 52 238v293h176v-293q0 -155 53 -238q53 -86 147 -86q114 0 175 101q59 103 59 276q0 266 -156 533h187q153 -237 153 -531
q0 -252 -102 -399q-106 -148 -289 -148q-119 0 -201 64q-85 66 -114 168q-29 -104 -115 -168q-82 -64 -201 -64z" />
    <glyph glyph-name="iotadieresis" unicode="&#x3ca;" horiz-adv-x="595" 
d="M143 315v734h183v-719q0 -174 161 -174h68v-164h-102q-149 0 -230 84q-80 83 -80 239zM424 1235q-49 0 -84 35t-35 82q0 49 35 84q32 32 84 32t84 -32q35 -35 35 -84q0 -47 -35 -82t-84 -35zM47 1235q-49 0 -84 35t-35 82q0 49 35 84q32 32 84 32q54 0 86 -32
q33 -33 33 -84q0 -49 -33 -82q-35 -35 -86 -35z" />
    <glyph glyph-name="upsilondieresis" unicode="&#x3cb;" horiz-adv-x="1165" 
d="M623 -29q-211 0 -326 127t-115 369v274q0 144 -116 144h-19v164h47q271 0 271 -293v-289q0 -332 258 -332q130 0 198 111q66 111 66 299q0 70 -13 166q-14 85 -36 176q-17 71 -54 162h187q49 -112 76 -246q24 -132 24 -256q0 -269 -117 -422q-121 -154 -331 -154z
M733 1235q-49 0 -84 35t-35 82q0 49 35 84q32 32 84 32t84 -32q35 -35 35 -84q0 -47 -35 -82t-84 -35zM356 1235q-49 0 -84 35q-34 34 -34 82q0 50 34 84q32 32 84 32q54 0 86 -32q33 -33 33 -84q0 -49 -33 -82q-35 -35 -86 -35z" />
    <glyph glyph-name="omicrontonos" unicode="&#x3cc;" horiz-adv-x="1167" 
d="M584 -29q-146 0 -258 72q-113 70 -174 195q-64 122 -64 286t64 289q63 127 174 195q112 69 258 69t258 -69q109 -67 176 -195q61 -125 61 -289t-61 -286q-65 -126 -176 -195q-112 -72 -258 -72zM584 139q139 0 225 109q84 110 84 276q0 169 -84 279q-84 106 -225 106
q-143 0 -224 -106q-86 -109 -86 -279q0 -167 86 -276q83 -109 224 -109zM489 1198l158 344h184l-172 -344h-170z" />
    <glyph glyph-name="upsilontonos" unicode="&#x3cd;" horiz-adv-x="1165" 
d="M623 -29q-211 0 -326 127t-115 369v274q0 144 -116 144h-19v164h47q271 0 271 -293v-289q0 -332 258 -332q130 0 198 111q66 111 66 299q0 70 -13 166q-14 85 -36 176q-17 71 -54 162h187q49 -112 76 -246q24 -132 24 -256q0 -269 -117 -422q-121 -154 -331 -154z
M451 1198l157 344h185l-172 -344h-170z" />
    <glyph glyph-name="omegatonos" unicode="&#x3ce;" horiz-adv-x="1597" 
d="M483 -29q-183 0 -286 148q-105 147 -105 399q0 292 154 531h186q-156 -267 -156 -533q0 -173 62 -276q58 -101 172 -101q96 0 149 86q52 82 52 238v293h176v-293q0 -155 53 -238q53 -86 147 -86q114 0 175 101q59 103 59 276q0 266 -156 533h187q153 -237 153 -531
q0 -252 -102 -399q-106 -148 -289 -148q-119 0 -201 64q-85 66 -114 168q-29 -104 -115 -168q-82 -64 -201 -64zM705 1198l157 344h185l-173 -344h-169z" />
    <glyph glyph-name="uni0400" unicode="&#x400;" horiz-adv-x="1312" 
d="M184 0v1425h990v-174h-795v-432h772v-174h-772v-471h805v-174h-1000zM600 1577l-203 301h203l180 -301h-180z" />
    <glyph glyph-name="uni0401" unicode="&#x401;" horiz-adv-x="1312" 
d="M184 0v1425h990v-174h-795v-432h772v-174h-772v-471h805v-174h-1000zM891 1612q-49 0 -84 35t-35 82q0 48 35 83q33 33 84 33t84 -33q35 -35 35 -83q0 -47 -35 -82t-84 -35zM465 1612q-49 0 -84 35t-35 82q0 48 35 83q33 33 84 33q53 0 86 -33t33 -83q0 -49 -33 -82
q-35 -35 -86 -35z" />
    <glyph glyph-name="uni0402" unicode="&#x402;" horiz-adv-x="1679" 
d="M483 0v1251h-401v174h1079v-174h-483v-432q83 44 190 72q102 24 203 24q161 0 275 -57q119 -60 182 -162q63 -103 63 -243q0 -142 -67 -246t-191 -160q-123 -57 -291 -57h-49v166h49q160 0 254 82q97 85 97 215q0 128 -93 206q-91 76 -249 76q-102 0 -201 -30
q-102 -30 -172 -82v-623h-195z" />
    <glyph glyph-name="uni0403" unicode="&#x403;" horiz-adv-x="1206" 
d="M184 0v1425h940v-174h-745v-1251h-195zM739 1577h-180l180 301h203z" />
    <glyph glyph-name="uni0404" unicode="&#x404;" horiz-adv-x="1462" 
d="M768 -31q-199 0 -348 94q-155 95 -236 261q-84 173 -84 389t84 389q80 163 236 262q151 92 348 92q236 0 393 -121q156 -120 211 -344h-205q-37 137 -141 213q-106 74 -260 74q-190 0 -317 -127q-126 -126 -150 -344h709v-174h-709q21 -222 145 -352q128 -134 322 -134
q153 0 262 74q103 67 139 201h205q-52 -212 -211 -334q-158 -119 -393 -119z" />
    <glyph glyph-name="uni0405" unicode="&#x405;" horiz-adv-x="1300" 
d="M664 -31q-231 0 -383 107q-157 109 -203 299h198q34 -108 136 -166q103 -62 250 -62q143 0 243 62q99 58 99 174q0 63 -27 113q-28 48 -94 82q-63 32 -195 51l-170 26q-206 35 -305 123q-98 88 -98 262q0 127 71 222q69 90 191 143q117 51 266 51q137 0 250 -43
q109 -41 188 -127q77 -86 101 -217h-199q-27 111 -115 160t-223 49q-150 0 -239 -59q-93 -63 -93 -168q0 -92 64 -144q63 -51 241 -78l160 -24q219 -35 322 -135q102 -102 102 -275q0 -137 -69 -229q-72 -97 -191 -146q-119 -51 -278 -51z" />
    <glyph glyph-name="uni0406" unicode="&#x406;" horiz-adv-x="563" 
d="M379 0h-195v1425h195v-1425z" />
    <glyph glyph-name="uni0407" unicode="&#x407;" horiz-adv-x="563" 
d="M379 0h-195v1425h195v-1425zM494 1612q-49 0 -84 35t-35 82q0 48 35 83q33 33 84 33t84 -33q34 -34 34 -83q0 -48 -34 -82q-35 -35 -84 -35zM68 1612q-49 0 -84 35t-35 82q0 48 35 83q33 33 84 33q53 0 86 -33q32 -32 32 -83q0 -50 -32 -82q-35 -35 -86 -35z" />
    <glyph glyph-name="uni0408" unicode="&#x408;" horiz-adv-x="1239" 
d="M881 444v981h194v-983q0 -136 -59 -245q-57 -106 -168 -166q-112 -62 -264 -62q-225 0 -363 123q-141 126 -162 324h195q15 -126 104 -197q90 -72 226 -72q133 0 215 82t82 215z" />
    <glyph glyph-name="uni0409" unicode="&#x409;" horiz-adv-x="2301" 
d="M55 -12v172h41q116 0 183 104q65 106 65 285v876h1010v-565h348q245 0 381 -112q135 -114 135 -318q0 -201 -135 -315q-139 -115 -381 -115h-543v1251h-631v-702q0 -172 -49 -297q-50 -127 -139 -195q-90 -69 -215 -69h-70zM1686 686h-332v-512h332q156 0 245 68
q88 67 88 188t-88 188q-89 68 -245 68z" />
    <glyph glyph-name="uni040A" unicode="&#x40a;" horiz-adv-x="2310" 
d="M184 0v1425h195v-575h782v575h195v-575h354q243 0 381 -111q135 -114 135 -313t-135 -313q-137 -113 -381 -113h-549v676h-782v-676h-195zM1694 676h-338v-502h338q156 0 245 68q89 65 89 184t-89 184q-91 66 -245 66z" />
    <glyph glyph-name="uni040B" unicode="&#x40b;" horiz-adv-x="1716" 
d="M483 0v1251h-401v174h1079v-174h-483v-434q166 96 377 96q265 0 405 -143q139 -145 139 -416v-354h-194v338q0 397 -381 397q-101 0 -193 -28q-89 -26 -153 -78v-629h-195z" />
    <glyph glyph-name="uni040C" unicode="&#x40c;" horiz-adv-x="1384" 
d="M184 0v1425h193v-606h289l462 606h224l-537 -696l547 -729h-234l-483 645h-268v-645h-193zM805 1577h-180l180 301h203z" />
    <glyph glyph-name="uni040D" unicode="&#x40d;" horiz-adv-x="1599" 
d="M184 0v1425h195v-1124l856 1124h180v-1425h-194v1124l-859 -1124h-178zM723 1577l-203 301h203l180 -301h-180z" />
    <glyph glyph-name="uni040E" unicode="&#x40e;" horiz-adv-x="1392" 
d="M268 -8v174h74q98 0 166 35q69 35 119 114l-596 1110h219l479 -899l416 899h215l-545 -1126q-82 -169 -188 -238t-283 -69h-76zM690 1569q-166 0 -256 84t-102 229h166q9 -77 57 -125q45 -45 135 -45t135 45q49 49 58 125h166q-12 -144 -103 -229q-90 -84 -256 -84z" />
    <glyph glyph-name="uni040F" unicode="&#x40f;" horiz-adv-x="1533" 
d="M184 0v1425h195v-1251h776v1251h195v-1425h-490v-338h-184v338h-492z" />
    <glyph glyph-name="uni0410" unicode="&#x410;" horiz-adv-x="1411" 
d="M1167 0l-149 383h-633l-147 -383h-201l569 1425h197l571 -1425h-207zM451 557h499l-250 647z" />
    <glyph glyph-name="uni0411" unicode="&#x411;" horiz-adv-x="1357" 
d="M184 0v1425h1002v-174h-807v-403h371q247 0 385 -111q135 -114 135 -313q0 -200 -135 -311q-137 -113 -385 -113h-566zM739 674h-360v-500h360q155 0 246 66q86 65 86 184t-86 184q-91 66 -246 66z" />
    <glyph glyph-name="uni0412" unicode="&#x412;" horiz-adv-x="1419" 
d="M184 0v1425h602q233 0 361 -98q129 -102 129 -278q0 -109 -62 -189q-64 -79 -174 -119q135 -38 205 -123q70 -88 70 -217q0 -188 -137 -295q-135 -106 -377 -106h-617zM764 1251h-385v-430h385q151 0 233 58q82 55 82 157q0 215 -315 215zM784 647h-405v-473h405
q332 0 332 238q0 112 -86 174q-88 61 -246 61z" />
    <glyph glyph-name="uni0413" unicode="&#x413;" horiz-adv-x="1206" 
d="M184 0v1425h940v-174h-745v-1251h-195z" />
    <glyph glyph-name="uni0414" unicode="&#x414;" horiz-adv-x="1675" 
d="M70 -338v512h133q81 47 127 166q45 116 45 289v796h1007v-1251h224v-512h-185v338h-1167v-338h-184zM559 629q0 -150 -39 -260q-43 -125 -108 -195h776v1077h-629v-622z" />
    <glyph glyph-name="uni0415" unicode="&#x415;" horiz-adv-x="1312" 
d="M184 0v1425h990v-174h-795v-432h772v-174h-772v-471h805v-174h-1000z" />
    <glyph glyph-name="uni0416" unicode="&#x416;" horiz-adv-x="2166" 
d="M23 0l540 729l-530 696h223l457 -606h274v606h193v-606h274l457 606h223l-530 -696l540 -729h-233l-479 647h-252v-647h-193v647h-252l-479 -647h-233z" />
    <glyph glyph-name="uni0417" unicode="&#x417;" horiz-adv-x="1312" 
d="M666 -31q-231 0 -379 109q-147 108 -193 313h203q26 -117 125 -184q94 -64 246 -64q156 0 250 70q92 68 92 182q0 115 -92 183q-92 65 -252 65h-148v170h141q150 0 238 61q86 62 86 166q0 109 -86 177q-89 65 -231 65q-144 0 -236 -63q-96 -65 -123 -183h-198
q53 205 196 312q144 108 367 108q151 0 262 -51q113 -52 178 -141q66 -94 66 -207q0 -121 -64 -203q-66 -85 -186 -119q134 -41 207 -129t73 -221q0 -125 -69 -215q-70 -94 -191 -147q-127 -54 -282 -54z" />
    <glyph glyph-name="uni0418" unicode="&#x418;" horiz-adv-x="1599" 
d="M184 0v1425h195v-1124l856 1124h180v-1425h-194v1124l-859 -1124h-178z" />
    <glyph glyph-name="uni0419" unicode="&#x419;" horiz-adv-x="1599" 
d="M184 0v1425h195v-1124l856 1124h180v-1425h-194v1124l-859 -1124h-178zM801 1569q-166 0 -256 84q-91 85 -103 229h166q9 -76 58 -125q45 -45 135 -45t135 45q48 48 57 125h166q-12 -145 -102 -229t-256 -84z" />
    <glyph glyph-name="uni041A" unicode="&#x41a;" horiz-adv-x="1384" 
d="M184 0v1425h193v-606h289l462 606h224l-537 -696l547 -729h-234l-483 645h-268v-645h-193z" />
    <glyph glyph-name="uni041B" unicode="&#x41b;" horiz-adv-x="1552" 
d="M55 -12v172h41q116 0 183 104q65 106 65 285v876h1024v-1425h-194v1251h-646v-702q0 -172 -49 -297q-50 -127 -139 -195q-90 -69 -215 -69h-70z" />
    <glyph glyph-name="uni041C" unicode="&#x41c;" horiz-adv-x="1818" 
d="M375 0h-191v1425h213l516 -829l508 829h213v-1425h-192v1133l-533 -867l-534 862v-1128z" />
    <glyph glyph-name="uni041D" unicode="&#x41d;" horiz-adv-x="1570" 
d="M184 0v1425h195v-589h813v589h194v-1425h-194v662h-813v-662h-195z" />
    <glyph glyph-name="uni041E" unicode="&#x41e;" horiz-adv-x="1609" 
d="M805 -31q-153 0 -283 56q-132 57 -223 155q-92 99 -145 236q-54 139 -54 297t54 297q53 135 145 235q93 100 223 156q128 55 283 55q154 0 282 -55q132 -57 224 -156q96 -103 147 -235q51 -131 51 -297t-51 -297q-52 -133 -147 -236q-90 -97 -224 -155q-130 -56 -282 -56
zM805 147q146 0 262 72q112 69 178 201q66 129 66 293q0 163 -66 295q-66 129 -178 198q-116 72 -262 72q-144 0 -260 -72q-115 -71 -180 -198q-66 -132 -66 -295q0 -164 66 -293q65 -130 180 -201q116 -72 260 -72z" />
    <glyph glyph-name="uni041F" unicode="&#x41f;" horiz-adv-x="1544" 
d="M184 0v1425h1176v-1425h-195v1251h-786v-1251h-195z" />
    <glyph glyph-name="uni0420" unicode="&#x420;" horiz-adv-x="1349" 
d="M184 0v1425h525q275 0 415 -125q142 -127 142 -329q0 -205 -142 -332q-140 -125 -415 -125h-330v-514h-195zM379 688h303q196 0 291 74q94 73 94 209q0 134 -94 207t-291 73h-303v-563z" />
    <glyph glyph-name="uni0421" unicode="&#x421;" horiz-adv-x="1462" 
d="M100 713q0 215 86 385q81 166 236 264q149 94 346 94q254 0 403 -125q148 -124 201 -342h-203q-35 135 -137 211q-104 78 -264 78q-135 0 -244 -68q-108 -70 -166 -196q-59 -127 -59 -301q0 -172 59 -299t166 -197t244 -70q162 0 266 76q102 74 137 203h201
q-49 -205 -201 -332q-149 -125 -403 -125q-192 0 -346 97q-156 99 -236 262q-86 170 -86 385z" />
    <glyph glyph-name="uni0422" unicode="&#x422;" horiz-adv-x="1370" 
d="M782 0h-194v1251h-506v174h1206v-174h-506v-1251z" />
    <glyph glyph-name="uni0423" unicode="&#x423;" horiz-adv-x="1392" 
d="M268 -8v174h74q98 0 166 35q69 35 119 114l-596 1110h219l479 -899l416 899h215l-545 -1126q-82 -169 -188 -238t-283 -69h-76z" />
    <glyph glyph-name="uni0424" unicode="&#x424;" horiz-adv-x="1781" 
d="M793 -68v197q-212 9 -367 82q-157 71 -240 201q-86 130 -86 301t86 301q82 129 240 203q155 70 367 79v197h196v-197q212 -9 367 -79q155 -73 241 -203q84 -131 84 -301t-84 -301q-87 -131 -241 -201q-155 -73 -367 -82v-197h-196zM297 713q0 -185 137 -295
q132 -112 367 -121v831q-235 -9 -367 -118q-137 -113 -137 -297zM1485 713q0 183 -135 297q-135 109 -369 118v-831q234 9 369 121q135 111 135 295z" />
    <glyph glyph-name="uni0425" unicode="&#x425;" horiz-adv-x="1419" 
d="M41 0l543 743l-490 682h240l379 -536l377 536h231l-492 -682l545 -743h-239l-435 600l-428 -600h-231z" />
    <glyph glyph-name="uni0426" unicode="&#x426;" horiz-adv-x="1609" 
d="M1356 -338v338h-1172v1425h195v-1251h743v1251h195v-1251h223v-512h-184z" />
    <glyph glyph-name="uni0427" unicode="&#x427;" horiz-adv-x="1415" 
d="M662 512q-267 0 -404 143q-141 144 -141 416v354h194v-338q0 -397 381 -397q98 0 193 29q91 28 151 76v630h195v-1425h-195v606q-163 -94 -374 -94z" />
    <glyph glyph-name="uni0428" unicode="&#x428;" horiz-adv-x="2107" 
d="M184 0v1425h195v-1251h577v1251h195v-1251h578v1251h194v-1425h-1739z" />
    <glyph glyph-name="uni0429" unicode="&#x429;" horiz-adv-x="2220" 
d="M1966 -338v338h-1782v1425h195v-1251h579v1251h195v-1251h580v1251h194v-1251h223v-512h-184z" />
    <glyph glyph-name="uni042A" unicode="&#x42a;" horiz-adv-x="1648" 
d="M479 0v1251h-397v174h592v-565h375q242 0 378 -112q138 -114 138 -318q0 -201 -138 -315q-139 -115 -378 -115h-570zM1032 686h-358v-512h358q157 0 246 68q88 67 88 188t-88 188q-89 68 -246 68z" />
    <glyph glyph-name="uni042B" unicode="&#x42b;" horiz-adv-x="1789" 
d="M1606 0h-195v1425h195v-1425zM184 0v1425h195v-565h354q243 0 379 -112q137 -113 137 -318q0 -202 -137 -315q-139 -115 -379 -115h-549zM717 686h-338v-512h338q157 0 246 68q88 67 88 188t-88 188q-89 68 -246 68z" />
    <glyph glyph-name="uni042C" unicode="&#x42c;" horiz-adv-x="1353" 
d="M184 0v1425h195v-565h375q243 0 379 -112q137 -113 137 -318q0 -202 -137 -315q-139 -115 -379 -115h-570zM737 686h-358v-512h358q157 0 246 68q88 67 88 188t-88 188q-89 68 -246 68z" />
    <glyph glyph-name="uni042D" unicode="&#x42d;" horiz-adv-x="1462" 
d="M694 -31q-236 0 -391 119q-161 122 -213 334h205q36 -134 139 -201q109 -74 262 -74q194 0 322 134q124 130 145 352h-708v174h708q-24 219 -149 344q-127 127 -318 127q-154 0 -260 -74q-104 -76 -141 -213h-205q55 222 213 344q157 121 391 121q199 0 350 -92
q154 -97 234 -262q84 -173 84 -389t-84 -389q-82 -168 -234 -261q-149 -94 -350 -94z" />
    <glyph glyph-name="uni042E" unicode="&#x42e;" horiz-adv-x="2146" 
d="M184 0v1425h193v-589h295q24 184 119 323q92 139 237 219q147 78 326 78q151 0 276 -55q128 -56 221 -154q93 -104 144 -235q51 -134 51 -299q0 -166 -51 -297q-52 -136 -144 -236q-90 -97 -221 -155q-127 -56 -276 -56q-196 0 -344 90q-156 92 -242 244
q-93 159 -102 359h-289v-662h-193zM1354 147q143 0 256 72q108 68 174 201q63 123 63 293q0 169 -63 295q-66 130 -174 198q-113 72 -256 72q-141 0 -254 -72q-108 -68 -174 -198q-64 -128 -64 -295q0 -166 64 -291q66 -133 174 -201q112 -74 254 -74z" />
    <glyph glyph-name="uni042F" unicode="&#x42f;" horiz-adv-x="1384" 
d="M57 0l392 571q-160 48 -240 152q-84 110 -84 262q0 211 145 326q144 114 416 114h514v-1425h-192v541h-322h-39l-364 -541h-226zM700 713h308v538h-308q-376 0 -376 -266q0 -136 96 -205q94 -67 280 -67z" />
    <glyph glyph-name="uni0430" unicode="&#x430;" horiz-adv-x="1095" 
d="M436 -29q-162 0 -260 88q-98 85 -98 236q0 161 117 250q113 88 327 88h248v45q0 128 -63 182q-65 53 -179 53q-96 0 -155 -36q-61 -37 -76 -91h-184q27 130 139 211q112 80 278 80q198 0 310 -100t112 -313v-664h-172v158q-55 -94 -149 -140q-90 -47 -195 -47zM477 131
q65 0 135 31q65 29 113 92q45 57 45 152v77h-235q-133 0 -201 -45q-72 -47 -72 -135q0 -82 60 -127q57 -45 155 -45z" />
    <glyph glyph-name="uni0431" unicode="&#x431;" horiz-adv-x="1175" 
d="M608 -31q-246 0 -377 168q-133 171 -133 477q0 389 127 584q126 194 398 215l186 14q76 6 76 82h176q0 -234 -234 -252l-186 -14q-174 -12 -256 -110q-85 -105 -106 -320q59 92 151 145q91 52 201 52q135 0 246 -66q105 -65 167 -184q60 -123 60 -273q0 -154 -64 -270
q-66 -119 -174 -182q-117 -66 -258 -66zM606 137q140 0 225 99q87 101 87 256q0 152 -87 253q-85 99 -225 99q-94 0 -162 -45q-67 -44 -108 -125q-41 -80 -41 -182q0 -161 86 -256q85 -99 225 -99z" />
    <glyph glyph-name="uni0432" unicode="&#x432;" horiz-adv-x="1153" 
d="M162 0v1049h497q174 0 271 -72q94 -73 94 -207q0 -82 -45 -139q-49 -61 -125 -90q203 -56 203 -244q0 -140 -103 -217q-103 -80 -284 -80h-508zM623 895h-281v-283h281q103 0 159 39q58 37 58 107q0 64 -56 102q-59 35 -161 35zM641 459h-299v-305h299q113 0 172 41
t59 112q0 72 -59 113q-59 39 -172 39z" />
    <glyph glyph-name="uni0433" unicode="&#x433;" horiz-adv-x="948" 
d="M162 0v1049h737v-164h-555v-885h-182z" />
    <glyph glyph-name="uni0434" unicode="&#x434;" horiz-adv-x="1288" 
d="M37 -307v471h123q135 76 135 328v557h780v-885h178v-471h-176v307h-864v-307h-176zM461 492q0 -222 -103 -328h535v721h-432v-393z" />
    <glyph glyph-name="uni0435" unicode="&#x435;" horiz-adv-x="1140" 
d="M594 -29q-153 0 -268 68q-116 69 -176 192q-62 127 -62 295q0 156 62 283q59 127 172 197q112 71 266 71q149 0 252 -65q102 -68 155 -185q54 -123 54 -276v-86h-773q15 -162 97 -244q83 -86 223 -86q96 0 158 33q63 29 84 82h188q-38 -127 -154 -203t-278 -76zM586 913
q-130 0 -207 -77q-80 -80 -98 -220h583q-6 133 -73 215q-70 82 -205 82z" />
    <glyph glyph-name="uni0436" unicode="&#x436;" horiz-adv-x="1660" 
d="M16 0l424 535l-420 514h213l345 -435h161v435h183v-435h161l344 435h213l-419 -514l424 -535h-220l-356 455h-147v-455h-183v455h-147l-356 -455h-220z" />
    <glyph glyph-name="uni0437" unicode="&#x437;" horiz-adv-x="1040" 
d="M516 -31q-182 0 -297 84q-114 80 -149 236h198q21 -78 84 -117q65 -41 162 -41q114 0 176 45q64 46 64 121q0 74 -66 119q-67 43 -182 43h-125v155h129q108 0 164 39q59 38 59 105q0 72 -59 116t-162 44q-97 0 -156 -39q-61 -40 -80 -113h-192q28 148 143 229
q119 84 291 84q183 0 293 -82q109 -83 109 -217q0 -88 -54 -151q-50 -62 -149 -90q106 -26 166 -93q57 -66 57 -165q0 -141 -117 -226q-118 -86 -307 -86z" />
    <glyph glyph-name="uni0438" unicode="&#x438;" horiz-adv-x="1265" 
d="M162 0v1049h182v-779l588 779h172v-1049h-182v778l-586 -778h-174z" />
    <glyph glyph-name="uni0439" unicode="&#x439;" horiz-adv-x="1265" 
d="M162 0v1049h182v-779l588 779h172v-1049h-182v778l-586 -778h-174zM635 1192q-164 0 -250 86q-87 84 -96 231h164q9 -81 55 -127q44 -47 127 -47q82 0 129 47q44 47 53 127h164q-9 -147 -96 -231q-86 -86 -250 -86z" />
    <glyph glyph-name="uni043A" unicode="&#x43a;" horiz-adv-x="1093" 
d="M162 0v1049h182v-433h168l348 433h213l-420 -512l424 -537h-219l-354 453h-160v-453h-182z" />
    <glyph glyph-name="uni043B" unicode="&#x43b;" horiz-adv-x="1247" 
d="M37 -8v164h45q99 0 151 82t52 254v557h800v-1049h-184v885h-442v-406q0 -238 -92 -362q-91 -125 -254 -125h-76z" />
    <glyph glyph-name="uni043C" unicode="&#x43c;" horiz-adv-x="1462" 
d="M336 0h-174v1049h194l379 -578l371 578h194v-1049h-176v784l-393 -604l-395 606v-786z" />
    <glyph glyph-name="uni043D" unicode="&#x43d;" horiz-adv-x="1234" 
d="M162 0v1049h182v-420h547v420h182v-1049h-182v465h-547v-465h-182z" />
    <glyph glyph-name="uni043E" unicode="&#x43e;" horiz-adv-x="1187" 
d="M594 -29q-149 0 -262 70q-114 71 -178 195q-66 129 -66 288q0 160 66 289q64 124 178 195q112 69 262 69t262 -69q117 -73 180 -195q64 -125 64 -289q0 -163 -64 -288q-63 -122 -180 -195q-113 -70 -262 -70zM594 139q142 0 231 105q88 104 88 280q0 177 -88 281
t-231 104q-141 0 -229 -104q-91 -108 -91 -281q0 -172 91 -280q88 -105 229 -105z" />
    <glyph glyph-name="uni043F" unicode="&#x43f;" horiz-adv-x="1204" 
d="M162 0v1049h880v-1049h-182v885h-516v-885h-182z" />
    <glyph glyph-name="uni0440" unicode="&#x440;" horiz-adv-x="1245" 
d="M162 -420v1469h178v-170q57 94 143 145q89 53 205 53q140 0 246 -69q105 -70 164 -195q59 -127 59 -289t-59 -286q-57 -123 -164 -195q-106 -72 -246 -72q-113 0 -201 52q-87 52 -143 141v-584h-182zM655 139q140 0 228 107q88 104 88 278t-88 281q-88 104 -228 104
q-142 0 -229 -106q-90 -110 -90 -279q0 -168 90 -278q88 -107 229 -107z" />
    <glyph glyph-name="uni0441" unicode="&#x441;" horiz-adv-x="1097" 
d="M588 -29q-149 0 -262 70t-174 195q-64 125 -64 288q0 162 64 287q62 128 174 197t262 69q182 0 295 -98q113 -101 137 -248h-191q-15 76 -75 127t-168 51q-139 0 -224 -104q-88 -107 -88 -281q0 -176 88 -280q86 -105 224 -105q106 0 170 49q60 45 75 127h189
q-15 -97 -72 -176q-58 -77 -147 -123q-89 -45 -213 -45z" />
    <glyph glyph-name="uni0442" unicode="&#x442;" horiz-adv-x="1038" 
d="M610 0h-182v885h-379v164h940v-164h-379v-885z" />
    <glyph glyph-name="uni0443" unicode="&#x443;" horiz-adv-x="1069" 
d="M268 -420l174 420l-415 1049h206l308 -834l303 834h198l-579 -1469h-195z" />
    <glyph glyph-name="uni0444" unicode="&#x444;" horiz-adv-x="1523" 
d="M674 -420v393q-168 9 -305 82q-132 69 -211 193q-76 119 -76 276q0 158 76 277q78 123 211 192q137 73 305 82v410h174v-410q167 -9 307 -82q136 -73 211 -190q76 -119 76 -279q0 -157 -76 -276q-78 -122 -211 -193q-140 -73 -307 -82v-393h-174zM1255 524
q0 171 -112 271t-299 112v-766q184 12 299 115q112 100 112 268zM268 524q0 -167 113 -268q115 -103 297 -115v766q-185 -12 -297 -112q-113 -101 -113 -271z" />
    <glyph glyph-name="uni0445" unicode="&#x445;" horiz-adv-x="1075" 
d="M23 0l397 549l-359 500h226l260 -375l254 375h213l-359 -506l398 -543h-226l-297 416l-294 -416h-213z" />
    <glyph glyph-name="uni0446" unicode="&#x446;" horiz-adv-x="1255" 
d="M1044 -307v307h-882v1049h182v-885h516v885h182v-885h179v-471h-177z" />
    <glyph glyph-name="uni0447" unicode="&#x447;" horiz-adv-x="1126" 
d="M502 354q-192 0 -305 107q-115 109 -115 293v295h182v-277q0 -125 70 -186q70 -64 192 -64q155 0 256 78v449h183v-1049h-183v422q-118 -68 -280 -68z" />
    <glyph glyph-name="uni0448" unicode="&#x448;" horiz-adv-x="1697" 
d="M162 0v1049h182v-885h414v885h182v-885h414v885h182v-1049h-1374z" />
    <glyph glyph-name="uni0449" unicode="&#x449;" horiz-adv-x="1748" 
d="M1538 -307v307h-1376v1049h182v-885h414v885h182v-885h414v885h182v-885h178v-471h-176z" />
    <glyph glyph-name="uni044A" unicode="&#x44a;" horiz-adv-x="1280" 
d="M356 0v885h-307v164h490v-357h272q192 0 301 -92t109 -254t-109 -254t-301 -92h-455zM795 532h-256v-372h256q114 0 178 49q63 48 63 137t-63 137q-64 49 -178 49z" />
    <glyph glyph-name="uni044B" unicode="&#x44b;" horiz-adv-x="1495" 
d="M162 0v1049h182v-357h266q192 0 301 -92t109 -254t-109 -254t-301 -92h-448zM1151 0v1049h182v-1049h-182zM594 532h-250v-372h250q114 0 178 49t64 137t-64 137t-178 49z" />
    <glyph glyph-name="uni044C" unicode="&#x44c;" horiz-adv-x="1085" 
d="M162 0v1049h182v-357h272q195 0 304 -92q106 -90 106 -254t-106 -254q-109 -92 -304 -92h-454zM600 532h-256v-372h256q114 0 178 49t64 137t-64 137t-178 49z" />
    <glyph glyph-name="uni044D" unicode="&#x44d;" horiz-adv-x="1101" 
d="M526 -29q-169 0 -293 95q-120 92 -155 251h186q28 -85 98 -131q71 -47 166 -47q125 0 201 82q79 85 94 228h-450v163h448q-18 140 -94 219q-78 78 -199 78q-95 0 -166 -47q-70 -46 -98 -131h-186q35 160 155 252q122 94 293 94q147 0 256 -69q111 -70 172 -193
q60 -129 60 -291t-60 -288q-61 -124 -172 -195q-110 -70 -256 -70z" />
    <glyph glyph-name="uni044E" unicode="&#x44e;" horiz-adv-x="1665" 
d="M162 0v1049h182v-420h229q18 132 86 235q65 99 175 158q104 55 237 55q152 0 264 -69t178 -195q64 -125 64 -289t-64 -286q-64 -124 -178 -195q-112 -72 -264 -72q-143 0 -250 64q-111 63 -174 174q-68 112 -80 258h-223v-467h-182zM1071 139q144 0 232 107t88 278
q0 172 -88 279q-87 106 -232 106q-144 0 -231 -106q-88 -107 -88 -279q0 -171 88 -278t231 -107z" />
    <glyph glyph-name="uni044F" unicode="&#x44f;" horiz-adv-x="1128" 
d="M53 0l312 395q-118 34 -191 119q-70 82 -70 201q0 158 119 246q116 88 332 88h412v-1049h-176v373h-242l-289 -373h-207zM567 528h224v365h-224q-284 0 -284 -182q0 -183 284 -183z" />
    <glyph glyph-name="uni0450" unicode="&#x450;" horiz-adv-x="1140" 
d="M594 -29q-153 0 -268 68q-116 69 -176 192q-62 127 -62 295q0 156 62 283q59 127 172 197q112 71 266 71q149 0 252 -65q102 -68 155 -185q54 -123 54 -276v-86h-773q15 -162 97 -244q83 -86 223 -86q96 0 158 33q63 29 84 82h188q-38 -127 -154 -203t-278 -76zM586 913
q-130 0 -207 -77q-80 -80 -98 -220h583q-6 133 -73 215q-70 82 -205 82zM494 1198l-177 318h197l156 -318h-176z" />
    <glyph glyph-name="uni0451" unicode="&#x451;" horiz-adv-x="1140" 
d="M594 -29q-153 0 -268 68q-116 69 -176 192q-62 127 -62 295q0 156 62 283q59 127 172 197q112 71 266 71q149 0 252 -65q102 -68 155 -185q54 -123 54 -276v-86h-773q15 -162 97 -244q83 -86 223 -86q96 0 158 33q63 29 84 82h188q-38 -127 -154 -203t-278 -76zM586 913
q-130 0 -207 -77q-80 -80 -98 -220h583q-6 133 -73 215q-70 82 -205 82zM758 1235q-49 0 -84 35t-35 82q0 49 35 84q32 32 84 32t84 -32q35 -35 35 -84q0 -47 -35 -82t-84 -35zM381 1235q-49 0 -84 35t-35 82q0 49 35 84q32 32 84 32q54 0 86 -32q33 -33 33 -84
q0 -49 -33 -82q-35 -35 -86 -35z" />
    <glyph glyph-name="uni0452" unicode="&#x452;" horiz-adv-x="1181" 
d="M592 -322v164h47q125 0 199 164q71 165 71 443q0 196 -69 299q-70 102 -205 102q-123 0 -199 -82q-80 -83 -80 -209v-559h-182v1155h-158v145h158v185h182v-185h314v-145h-314v-305q116 168 324 168q194 0 305 -150q109 -151 109 -419q0 -237 -54 -414
q-53 -173 -151 -264q-101 -93 -236 -93h-61z" />
    <glyph glyph-name="uni0453" unicode="&#x453;" horiz-adv-x="948" 
d="M162 0v1049h737v-164h-555v-885h-182zM604 1198h-176l156 318h196z" />
    <glyph glyph-name="uni0454" unicode="&#x454;" horiz-adv-x="1097" 
d="M588 -29q-150 0 -260 70q-111 69 -176 195q-64 125 -64 288q0 164 64 289q65 126 176 195q112 69 260 69q170 0 289 -94q116 -93 143 -252h-191q-15 85 -79 131q-65 47 -164 47q-118 0 -201 -80q-83 -83 -104 -217h448v-163h-450q18 -142 102 -226t205 -84q103 0 168 47
q62 44 77 129h189q-24 -155 -143 -249q-121 -95 -289 -95z" />
    <glyph glyph-name="uni0455" unicode="&#x455;" horiz-adv-x="1009" 
d="M524 -31q-184 0 -303 88q-119 84 -143 219h184q15 -58 86 -102q67 -43 172 -43q103 0 164 43q61 40 61 115q0 58 -43 98q-42 36 -147 51l-160 21q-297 37 -297 291q0 91 54 170q52 73 143 116q90 41 207 41q169 0 276 -82q108 -82 135 -209h-182q-21 63 -78 97
q-54 32 -147 32q-102 0 -160 -43q-61 -46 -61 -116q0 -60 43 -90q46 -31 141 -43l160 -21q149 -18 227 -102q76 -82 76 -205q0 -98 -53 -172q-51 -71 -146 -113q-89 -41 -209 -41z" />
    <glyph glyph-name="uni0456" unicode="&#x456;" horiz-adv-x="489" 
d="M246 1200q-53 0 -90 37t-37 90t37 90t90 37t90 -37t37 -90t-37 -90t-90 -37zM154 0v1049h182v-1049h-182z" />
    <glyph glyph-name="uni0457" unicode="&#x457;" horiz-adv-x="491" 
d="M201 1327q0 -51 -33 -84q-35 -35 -84 -35q-47 0 -82 35q-35 32 -35 84t35 84q33 33 82 33q51 0 84 -33t33 -84zM526 1327q0 -52 -32 -84q-35 -35 -84 -35q-47 0 -82 35t-35 84t35 84q33 33 82 33q51 0 84 -33q32 -32 32 -84zM154 0v1049h182v-1049h-182z" />
    <glyph glyph-name="uni0458" unicode="&#x458;" horiz-adv-x="489" 
d="M246 1200q-53 0 -90 37t-37 90t37 90t90 37t90 -37t37 -90t-37 -90t-90 -37zM-57 -420v164h55q78 0 117 51t39 139v1115h182v-1133q0 -158 -78 -248q-76 -88 -227 -88h-88z" />
    <glyph glyph-name="uni0459" unicode="&#x459;" horiz-adv-x="1806" 
d="M37 -8v164h45q99 0 151 82t52 254v557h790v-357h262q194 0 303 -92q107 -91 107 -254t-107 -254q-109 -92 -303 -92h-444v885h-434v-406q0 -238 -92 -362q-91 -125 -254 -125h-76zM1321 532h-246v-372h246q114 0 178 49t64 137t-64 137t-178 49z" />
    <glyph glyph-name="uni045A" unicode="&#x45a;" horiz-adv-x="1806" 
d="M162 0v1049h182v-406h539v406h182v-390h272q194 0 303 -86q107 -88 107 -243q0 -157 -107 -242q-107 -88 -303 -88h-454v479h-539v-479h-182zM1321 500h-256v-340h256q116 0 178 45q64 46 64 125q0 81 -64 127q-64 43 -178 43z" />
    <glyph glyph-name="uni045B" unicode="&#x45b;" horiz-adv-x="1198" 
d="M174 0v1155h-158v145h158v185h182v-185h314v-145h-314v-307q53 76 140 125q80 45 184 45q170 0 272 -117q103 -121 103 -315v-586h-183v553q0 144 -63 219q-66 78 -180 78q-121 0 -197 -82t-76 -209v-559h-182z" />
    <glyph glyph-name="uni045C" unicode="&#x45c;" horiz-adv-x="1093" 
d="M162 0v1049h182v-433h168l348 433h213l-420 -512l424 -537h-219l-354 453h-160v-453h-182zM668 1198h-176l155 318h197z" />
    <glyph glyph-name="uni045D" unicode="&#x45d;" horiz-adv-x="1265" 
d="M162 0v1049h182v-779l588 779h172v-1049h-182v778l-586 -778h-174zM559 1198l-176 318h197l155 -318h-176z" />
    <glyph glyph-name="uni045E" unicode="&#x45e;" horiz-adv-x="1069" 
d="M268 -420l174 420l-415 1049h206l308 -834l303 834h198l-579 -1469h-195zM539 1192q-164 0 -250 86q-87 84 -96 231h163q9 -80 56 -127q44 -47 127 -47q82 0 129 47q44 47 53 127h164q-9 -146 -97 -231q-86 -86 -249 -86z" />
    <glyph glyph-name="uni045F" unicode="&#x45f;" horiz-adv-x="1214" 
d="M162 0v1049h182v-885h526v885h183v-1049h-357v-307h-176v307h-358z" />
    <glyph glyph-name="uni0490" unicode="&#x490;" horiz-adv-x="1208" 
d="M184 0v1425h758v312h184v-486h-747v-1251h-195z" />
    <glyph glyph-name="uni0491" unicode="&#x491;" horiz-adv-x="954" 
d="M727 1278h178v-393h-561v-885h-182v1049h565v229z" />
    <glyph glyph-name="uni0492" unicode="&#x492;" horiz-adv-x="1325" 
d="M303 0v610h-225v174h225v641h940v-174h-745v-467h458v-174h-458v-610h-195z" />
    <glyph glyph-name="uni0493" unicode="&#x493;" horiz-adv-x="1028" 
d="M242 0v416h-193v164h193v469h737v-164h-555v-305h356v-164h-356v-416h-182z" />
    <glyph glyph-name="uni0496" unicode="&#x496;" horiz-adv-x="2265" 
d="M23 0l546 729l-536 696h223l463 -606h278v606h193v-606h278l463 606h223l-536 -696l418 -557h188v-510h-180v338h-113l-485 647h-256v-647h-193v647h-256l-485 -647h-233z" />
    <glyph glyph-name="uni0497" unicode="&#x497;" horiz-adv-x="1722" 
d="M16 0l424 535l-420 514h213l345 -435h161v435h183v-435h161l344 435h213l-419 -514l297 -375h170v-477h-177v317h-86l-356 455h-147v-455h-183v455h-147l-356 -455h-220z" />
    <glyph glyph-name="uni049A" unicode="&#x49a;" horiz-adv-x="1458" 
d="M184 0v1425h193v-606h289l462 606h224l-537 -696l416 -555h172v-512h-178v338h-97l-483 645h-268v-645h-193z" />
    <glyph glyph-name="uni049B" unicode="&#x49b;" horiz-adv-x="1163" 
d="M162 0v1049h182v-433h168l348 433h213l-420 -512l297 -377h170v-467h-176v307h-86l-354 453h-160v-453h-182z" />
    <glyph glyph-name="uni04A2" unicode="&#x4a2;" horiz-adv-x="1679" 
d="M184 0v1425h195v-589h813v589h194v-1251h224v-512h-178v338h-240v662h-813v-662h-195z" />
    <glyph glyph-name="uni04A3" unicode="&#x4a3;" horiz-adv-x="1286" 
d="M162 0v1049h182v-420h547v420h182v-889h178v-467h-176v307h-184v465h-547v-465h-182z" />
    <glyph glyph-name="uni04AE" unicode="&#x4ae;" horiz-adv-x="1318" 
d="M563 0v549l-532 876h225l410 -690l403 690h217l-528 -872v-553h-195z" />
    <glyph glyph-name="uni04AF" unicode="&#x4af;" horiz-adv-x="1069" 
d="M444 -420v408l-417 1061h206l306 -842l305 842h198l-415 -1055v-414h-183z" />
    <glyph glyph-name="uni04B0" unicode="&#x4b0;" horiz-adv-x="1318" 
d="M203 457v164h317l-489 804h225l410 -690l403 690h217l-487 -804h317v-164h-358v-457h-195v457h-360z" />
    <glyph glyph-name="uni04B1" unicode="&#x4b1;" horiz-adv-x="1069" 
d="M154 -63v163h245l-372 949h206l306 -842l305 842h198l-372 -949h248v-163h-291v-357h-183v357h-290z" />
    <glyph glyph-name="uni04B2" unicode="&#x4b2;" horiz-adv-x="1472" 
d="M41 0l543 743l-490 682h240l379 -536l377 536h231l-492 -682l418 -569h170v-512h-178v338h-104l-435 600l-428 -600h-231z" />
    <glyph glyph-name="uni04B3" unicode="&#x4b3;" horiz-adv-x="1146" 
d="M23 0l397 549l-359 500h226l260 -375l254 375h213l-359 -506l281 -383h168v-467h-176v307h-101l-297 416l-294 -416h-213z" />
    <glyph glyph-name="uni04B6" unicode="&#x4b6;" horiz-adv-x="1523" 
d="M662 512q-267 0 -404 143q-141 144 -141 416v354h194v-338q0 -397 381 -397q98 0 193 29q91 28 151 76v630h195v-1251h223v-512h-178v338h-240v606q-163 -94 -374 -94z" />
    <glyph glyph-name="uni04B7" unicode="&#x4b7;" horiz-adv-x="1177" 
d="M502 354q-192 0 -305 107q-115 109 -115 293v295h182v-277q0 -125 70 -186q70 -64 192 -64q155 0 256 78v449h183v-889h178v-467h-176v307h-185v422q-118 -68 -280 -68z" />
    <glyph glyph-name="uni04BA" unicode="&#x4ba;" horiz-adv-x="1415" 
d="M184 0v1425h195v-579q166 90 375 90q265 0 405 -143q139 -145 139 -414v-379h-194v362q0 398 -387 398q-212 0 -338 -105v-655h-195z" />
    <glyph glyph-name="uni04BB" unicode="&#x4bb;" horiz-adv-x="1185" 
d="M162 0v1485h182v-574q56 79 141 123q82 43 185 43q118 0 200 -55q78 -52 127 -152q45 -91 45 -221v-649h-182v614q0 138 -61 217q-63 78 -181 78q-78 0 -135 -32q-62 -33 -100 -99q-39 -62 -39 -157v-621h-182z" />
    <glyph glyph-name="uni04C0" unicode="&#x4c0;" horiz-adv-x="563" 
d="M379 0h-195v1425h195v-1425z" />
    <glyph glyph-name="uni04CF" unicode="&#x4cf;" horiz-adv-x="489" 
d="M154 0v1485h182v-1485h-182z" />
    <glyph glyph-name="uni04D4" unicode="&#x4d4;" horiz-adv-x="2170" 
d="M231 0h-217l940 1425h1078v-174h-795v-432h772v-174h-772v-471h805v-174h-1000v383h-565zM588 557h454v709z" />
    <glyph glyph-name="uni04D5" unicode="&#x4d5;" horiz-adv-x="1824" 
d="M449 -29q-168 0 -269 88q-102 86 -102 236q0 157 115 246q115 86 323 86h254v51q0 128 -63 182q-65 53 -179 53q-96 0 -155 -36q-61 -37 -76 -91h-184q27 130 139 211q112 80 278 80q128 0 224 -47q91 -49 141 -158q66 110 164 158q103 47 215 47q147 0 250 -65
q102 -68 155 -185q54 -123 54 -274v-74h-772q9 -167 92 -256q82 -88 225 -88q98 0 160 33q63 29 84 82h188q-38 -127 -154 -203t-278 -76q-146 0 -252 62q-105 60 -168 176q-59 -119 -168 -176q-115 -62 -241 -62zM1270 913q-130 0 -205 -75q-79 -79 -100 -211h583
q-9 131 -78 209q-71 77 -200 77zM477 131q69 0 141 29q64 27 109 90q43 58 43 153v76h-238q-128 0 -198 -43q-72 -44 -72 -133q0 -82 60 -127q57 -45 155 -45z" />
    <glyph glyph-name="uni04D8" unicode="&#x4d8;" horiz-adv-x="1490" 
d="M1391 709q0 -222 -78 -392q-80 -167 -228 -256q-148 -92 -352 -92q-191 0 -334 90q-140 88 -217 252q-78 167 -78 377v96h1088q-18 242 -143 367q-127 127 -318 127q-143 0 -246 -59q-97 -58 -145 -150h-203q42 108 127 199q79 85 203 139q119 49 266 49q195 0 344 -90
q150 -90 232 -256q82 -168 82 -401zM731 147q196 0 316 123q119 122 143 340h-889q3 -133 59 -239q52 -105 148 -164q97 -60 223 -60z" />
    <glyph glyph-name="uni04D9" unicode="&#x4d9;" horiz-adv-x="1140" 
d="M547 1077q157 0 270 -67q112 -66 174 -193t62 -295q0 -153 -60 -282q-62 -127 -172 -197q-116 -72 -268 -72q-147 0 -250 68q-106 65 -158 184q-53 118 -53 275v86h772q-15 161 -96 245q-84 84 -223 84q-91 0 -156 -30q-67 -36 -86 -84h-188q38 127 153 202
q116 76 279 76zM555 135q129 0 209 80q78 78 96 217h-584q6 -133 76 -215q67 -82 203 -82z" />
    <glyph glyph-name="uni04E2" unicode="&#x4e2;" horiz-adv-x="1599" 
d="M184 0v1425h195v-1124l856 1124h180v-1425h-194v1124l-859 -1124h-178zM481 1812h639v-155h-639v155z" />
    <glyph glyph-name="uni04E3" unicode="&#x4e3;" horiz-adv-x="1265" 
d="M162 0v1049h182v-779l588 779h172v-1049h-182v778l-586 -778h-174zM328 1438h614v-154h-614v154z" />
    <glyph glyph-name="uni04E8" unicode="&#x4e8;" horiz-adv-x="1609" 
d="M805 -31q-153 0 -283 56q-132 57 -223 155q-92 99 -145 236q-54 139 -54 297t54 297q53 135 145 235q93 100 223 156q128 55 283 55q154 0 282 -55q132 -57 224 -156q96 -103 147 -235q51 -131 51 -297t-51 -297q-52 -133 -147 -236q-90 -97 -224 -155q-130 -56 -282 -56
zM805 1278q-133 0 -242 -59q-107 -61 -174 -168q-68 -109 -86 -252h1004q-18 143 -86 252q-67 107 -174 168q-109 59 -242 59zM805 147q133 0 242 62q104 57 174 168q69 111 84 248h-1000q15 -137 84 -248q69 -110 176 -168q109 -62 240 -62z" />
    <glyph glyph-name="uni04E9" unicode="&#x4e9;" horiz-adv-x="1187" 
d="M594 -29q-150 0 -262 72q-114 71 -178 195q-66 126 -66 286t66 289q66 126 178 195t262 69q152 0 264 -69t178 -195q64 -125 64 -289t-64 -286q-64 -124 -178 -195q-112 -72 -264 -72zM594 913q-126 0 -213 -84q-89 -86 -107 -227h639q-18 141 -104 227q-90 84 -215 84z
M594 135q126 0 215 86q86 83 104 225h-639q18 -142 107 -225q86 -86 213 -86z" />
    <glyph glyph-name="uni04EE" unicode="&#x4ee;" horiz-adv-x="1392" 
d="M268 -8v174h74q98 0 166 35q69 35 119 114l-596 1110h219l479 -899l416 899h215l-545 -1126q-82 -169 -188 -238t-283 -69h-76zM371 1812h639v-155h-639v155z" />
    <glyph glyph-name="uni04EF" unicode="&#x4ef;" horiz-adv-x="1069" 
d="M268 -420l174 420l-415 1049h206l308 -834l303 834h198l-579 -1469h-195zM231 1438h615v-154h-615v154z" />
    <glyph glyph-name="uni058F" unicode="&#x58f;" 
d="M553 313v166h293v142h-293v165h293v187q0 144 -74 227q-76 82 -209 82t-209 -82q-75 -81 -75 -227v-70h-189v82q0 137 60 248q60 107 165 164q109 59 250 59t250 -59q107 -58 166 -164q59 -109 59 -248v-199h150v-165h-150v-142h150v-166h-150v-313h-194v313h-293z" />
    <glyph glyph-name="uni060B" unicode="&#x60b;" 
d="M649 1249l-149 152l151 149l150 -151zM463 -16q-107 0 -187 6q-81 6 -145 18v174q86 -11 160 -16q88 -6 192 -6q111 0 213 12q103 12 144 47q44 41 47 176h-205q-237 0 -338 84q-98 82 -98 217q0 103 55 191q55 89 141 141q86 53 181 53q102 0 182 -53q78 -57 133 -147
q56 -98 82 -207q29 -126 29 -242q0 -188 -60 -285q-57 -96 -188 -131q-120 -32 -338 -32zM682 553h197q-16 96 -48 172q-34 80 -86 131q-55 49 -133 49q-52 0 -100 -28q-47 -27 -74 -74q-28 -48 -28 -101q0 -46 20 -79q19 -37 78 -52q59 -18 174 -18zM571 -582l-14 336
l148 27l-15 -363h-119z" />
    <glyph glyph-name="uni0E3F" unicode="&#xe3f;" 
d="M125 4v1417h426v240h143v-242q205 -15 320 -104q112 -90 112 -258q0 -112 -61 -191q-67 -82 -176 -121q146 -38 217 -127q72 -90 72 -217q0 -176 -127 -282q-130 -106 -357 -115v-225h-143v225h-426zM309 1262v-447h242v447h-242zM938 1047q0 183 -244 210v-436
q113 15 180 76q64 58 64 150zM309 655v-491h242v491h-242zM987 410q0 104 -76 168q-78 66 -217 75v-487q293 18 293 244z" />
    <glyph glyph-name="uni1E24" unicode="&#x1e24;" horiz-adv-x="1570" 
d="M184 0v1425h195v-589h813v589h194v-1425h-194v662h-813v-662h-195zM786 -387q-53 0 -88 35q-36 36 -36 90q0 55 36 88q34 37 88 37t91 -37q34 -34 34 -88q0 -53 -34 -90q-38 -35 -91 -35z" />
    <glyph glyph-name="uni1E25" unicode="&#x1e25;" horiz-adv-x="1177" 
d="M154 0v1485h182v-574q56 79 141 123q82 43 185 43q118 0 200 -55q78 -52 127 -152q45 -91 45 -221v-649h-182v614q0 138 -61 217q-63 78 -181 78q-78 0 -135 -32q-62 -33 -100 -99q-39 -62 -39 -157v-621h-182zM596 -387q-53 0 -88 35q-37 37 -37 90q0 54 37 88
q34 37 88 37q53 0 90 -37q35 -35 35 -88q0 -52 -35 -90q-38 -35 -90 -35z" />
    <glyph glyph-name="uni1E36" unicode="&#x1e36;" horiz-adv-x="1232" 
d="M1151 174v-174h-967v1425h195v-1251h772zM674 -387q-53 0 -88 35q-37 37 -37 90q0 54 37 88q34 37 88 37q53 0 90 -37q35 -35 35 -88q0 -52 -35 -90q-38 -35 -90 -35z" />
    <glyph glyph-name="uni1E37" unicode="&#x1e37;" horiz-adv-x="489" 
d="M154 0v1485h182v-1485h-182zM246 -387q-53 0 -88 35q-37 37 -37 90q0 54 37 88q34 37 88 37q53 0 90 -37q35 -35 35 -88q0 -52 -35 -90q-38 -35 -90 -35z" />
    <glyph glyph-name="uni1E3E" unicode="&#x1e3e;" horiz-adv-x="1818" 
d="M375 0h-191v1425h213l516 -829l508 829h213v-1425h-192v1133l-533 -867l-534 862v-1128zM987 1577h-180l180 301h203z" />
    <glyph glyph-name="uni1E3F" unicode="&#x1e3f;" horiz-adv-x="1763" 
d="M154 0v1049h178v-129q106 157 299 157q104 0 180 -49q76 -52 119 -143q54 92 145 143q88 49 193 49q163 0 256 -112q96 -116 96 -308v-657h-182v633q0 130 -58 203t-157 73q-102 0 -172 -73q-72 -75 -72 -203v-633h-182v633q0 130 -58 203t-157 73q-104 0 -174 -73
q-72 -75 -72 -203v-633h-182zM1004 1198h-177l156 318h197z" />
    <glyph glyph-name="uni1E62" unicode="&#x1e62;" horiz-adv-x="1300" 
d="M664 -31q-231 0 -383 107q-157 109 -203 299h198q34 -108 136 -166q103 -62 250 -62q143 0 243 62q99 58 99 174q0 63 -27 113q-28 48 -94 82q-63 32 -195 51l-170 26q-206 35 -305 123q-98 88 -98 262q0 127 71 222q69 90 191 143q117 51 266 51q137 0 250 -43
q109 -41 188 -127q77 -86 101 -217h-199q-27 111 -115 160t-223 49q-150 0 -239 -59q-93 -63 -93 -168q0 -92 64 -144q63 -51 241 -78l160 -24q219 -35 322 -135q102 -102 102 -275q0 -137 -69 -229q-72 -97 -191 -146q-119 -51 -278 -51zM664 -387q-54 0 -89 35
q-36 36 -36 90q0 55 36 88q34 37 89 37q53 0 90 -37q34 -34 34 -88q0 -53 -34 -90q-38 -35 -90 -35z" />
    <glyph glyph-name="uni1E63" unicode="&#x1e63;" horiz-adv-x="1009" 
d="M524 -31q-184 0 -303 88q-119 84 -143 219h184q15 -58 86 -102q67 -43 172 -43q103 0 164 43q61 40 61 115q0 58 -43 98q-42 36 -147 51l-160 21q-297 37 -297 291q0 91 54 170q52 73 143 116q90 41 207 41q169 0 276 -82q108 -82 135 -209h-182q-21 63 -78 97
q-54 32 -147 32q-102 0 -160 -43q-61 -46 -61 -116q0 -60 43 -90q46 -31 141 -43l160 -21q149 -18 227 -102q76 -82 76 -205q0 -98 -53 -172q-51 -71 -146 -113q-89 -41 -209 -41zM530 -387q-53 0 -88 35q-36 36 -36 90q0 55 36 88q34 37 88 37t91 -37q34 -34 34 -88
q0 -53 -34 -90q-38 -35 -91 -35z" />
    <glyph glyph-name="Wgrave" unicode="&#x1e80;" horiz-adv-x="2004" 
d="M489 0l-432 1425h203l332 -1144l319 1140h181l331 -1145l326 1149h199l-430 -1425h-187l-330 1124l-325 -1124h-187zM926 1577l-203 301h203l180 -301h-180z" />
    <glyph glyph-name="wgrave" unicode="&#x1e81;" horiz-adv-x="1556" 
d="M375 0l-338 1049h188l242 -795l227 790h166l236 -792l237 797h187l-340 -1049h-168l-234 784l-235 -784h-168zM700 1198l-176 318h197l156 -318h-177z" />
    </font>
</defs>
</svg>
