<?xml version="1.0" standalone="no"?>
<!DOCTYPE svg PUBLIC "-//W3C//DTD SVG 1.1//EN" "http://www.w3.org/Graphics/SVG/1.1/DTD/svg11.dtd" >
<svg xmlns="http://www.w3.org/2000/svg" xmlns:xlink="http://www.w3.org/1999/xlink" version="1.1">
<metadata>
Created by FontForge 20170731 at Fri Mar 17 17:29:49 2023
 By Aleksey,,,
Copyright (c) 2018. Netflix, Inc. and its affiliates. All rights reserved. 
</metadata>
<defs>
<font id="NetflixSans-Medium" horiz-adv-x="1253" >
  <font-face 
    font-family="Netflix Sans Med"
    font-weight="500"
    font-stretch="normal"
    units-per-em="2048"
    panose-1="2 11 7 3 2 2 2 2 2 4"
    ascent="1638"
    descent="-410"
    x-height="1059"
    cap-height="1425"
    bbox="-518 -930 3645 2109"
    underline-thickness="163"
    underline-position="-468"
    unicode-range="U+000D-FFFD"
  />
<missing-glyph horiz-adv-x="1024" 
d="M922 0h-820v1536h820v-1536zM819 102v1332h-614v-1332h614z" />
    <glyph glyph-name=".notdef" horiz-adv-x="1024" 
d="M922 0h-820v1536h820v-1536zM819 102v1332h-614v-1332h614z" />
    <glyph glyph-name="uni0000" horiz-adv-x="0" 
 />
    <glyph glyph-name="uni0000" horiz-adv-x="0" 
 />
    <glyph glyph-name="uni000D" unicode="&#xd;" horiz-adv-x="462" 
 />
    <glyph glyph-name="space" unicode=" " horiz-adv-x="462" 
 />
    <glyph glyph-name="exclam" unicode="!" horiz-adv-x="593" 
d="M174 444l-16 981h278l-16 -981h-246zM297 -29q-72 0 -121 52q-51 51 -51 120q0 70 51 121q48 51 121 51q72 0 123 -51q49 -52 49 -121q0 -68 -49 -120q-52 -52 -123 -52z" />
    <glyph glyph-name="quotedbl" unicode="&#x22;" horiz-adv-x="903" 
d="M125 928l-10 557h250l-11 -557h-229zM547 928l-10 557h249l-10 -557h-229z" />
    <glyph glyph-name="numbersign" unicode="#" 
d="M139 0l62 346h-144v199h179l59 329h-221v199h256l61 346h213l-61 -346h299l61 346h211l-61 -346h143v-199h-178l-60 -329h222v-199h-256l-62 -346h-213l62 346h-299l-62 -346h-211zM449 545h299l57 329h-299z" />
    <glyph glyph-name="dollar" unicode="$" 
d="M551 -221v205q-193 21 -313 129q-124 106 -158 276h254q21 -71 74 -121t143 -65v415l-66 13q-198 37 -292 139q-95 103 -95 258q0 120 62 209q60 90 162 143q105 54 229 66v215h158v-219q174 -21 290 -119q117 -99 154 -264h-252q-22 75 -67 115q-47 39 -125 51v-391
l49 -9q202 -35 309 -139t107 -272q0 -188 -127 -303q-125 -116 -338 -131v-201h-158zM365 1044q0 -65 34 -108q36 -46 152 -72v363q-87 -15 -137 -62q-49 -49 -49 -121zM907 399q0 68 -41 115q-42 46 -157 72v-387q198 27 198 200z" />
    <glyph glyph-name="percent" unicode="%" horiz-adv-x="1976" 
d="M481 692q-107 0 -190 51q-85 51 -139 138q-52 85 -52 192q0 108 52 193q53 86 139 137q83 51 190 51t193 -51q85 -52 137 -137q51 -83 51 -193q0 -109 -51 -192q-53 -86 -137 -138q-86 -51 -193 -51zM389 0l957 1425h241l-956 -1425h-242zM481 897q74 0 125 51t51 125
t-51 125t-125 51t-125 -51t-51 -125t51 -125t125 -51zM1495 -29q-107 0 -192 52q-86 53 -138 137q-51 83 -51 192q0 110 51 193q52 84 138 137q83 51 192 51q110 0 193 -51q85 -52 137 -137q51 -83 51 -193q0 -109 -51 -192q-52 -85 -137 -137t-193 -52zM1495 176
q74 0 125 51t51 125t-51 125t-125 51t-125 -51t-51 -125t51 -125t125 -51z" />
    <glyph glyph-name="ampersand" unicode="&#x26;" horiz-adv-x="1521" 
d="M604 -33q-157 0 -266 56q-107 51 -168 149q-59 95 -59 213q0 135 71 238q70 101 203 172q-75 78 -109 151q-36 71 -36 162q0 97 53 180q53 80 149 127t224 47q129 0 225 -47q90 -46 141 -125q49 -76 49 -172q0 -131 -82 -219q-83 -89 -241 -147l266 -279l154 203h284
l-282 -367l293 -309h-334l-123 129q-88 -76 -189 -119t-223 -43zM508 1096q0 -54 27 -95q28 -45 90 -110q102 42 155 92q51 45 51 115q0 61 -43 104t-116 43t-119 -43q-45 -42 -45 -106zM387 418q0 -92 64 -156q60 -63 180 -63q129 0 233 90l-342 360q-66 -47 -98 -102
q-37 -58 -37 -129z" />
    <glyph glyph-name="quotesingle" unicode="'" horiz-adv-x="481" 
d="M125 928l-10 557h250l-11 -557h-229z" />
    <glyph glyph-name="parenleft" unicode="(" horiz-adv-x="667" 
d="M367 -328q-139 213 -197 445q-59 233 -59 473t59 473q58 229 197 442h260q-134 -235 -191 -456q-59 -233 -59 -459t59 -459q57 -224 191 -459h-260z" />
    <glyph glyph-name="parenright" unicode=")" horiz-adv-x="667" 
d="M301 -328h-260q136 238 192 459q58 229 58 459t-58 459q-56 218 -192 456h260q139 -213 197 -442q59 -233 59 -473t-59 -473q-58 -232 -197 -445z" />
    <glyph glyph-name="asterisk" unicode="*" horiz-adv-x="1024" 
d="M184 920l181 210l-273 64l68 211l264 -111l-25 283h224l-25 -283l264 111l68 -211l-273 -64l181 -210l-179 -136l-147 242l-150 -242z" />
    <glyph glyph-name="plus" unicode="+" 
d="M514 180v395h-369v220h369v395h227v-395h369v-220h-369v-395h-227z" />
    <glyph glyph-name="comma" unicode="," horiz-adv-x="577" 
d="M49 -356q78 119 123 202q44 82 64 152q-56 12 -89 51q-32 38 -32 92q0 65 45 113q46 49 123 49q78 0 129 -51q49 -52 49 -139q0 -96 -47 -211q-46 -105 -146 -258h-219z" />
    <glyph glyph-name="hyphen" unicode="-" horiz-adv-x="991" 
d="M156 481v224h680v-224h-680z" />
    <glyph glyph-name="period" unicode="." horiz-adv-x="577" 
d="M289 -29q-72 0 -121 52q-51 51 -51 120q0 70 51 121q48 51 121 51q72 0 123 -51q49 -52 49 -121q0 -68 -49 -120q-52 -52 -123 -52z" />
    <glyph glyph-name="slash" unicode="/" horiz-adv-x="876" 
d="M18 -328l582 1833h258l-582 -1833h-258z" />
    <glyph glyph-name="zero" unicode="0" 
d="M627 -31q-171 0 -301 92q-128 88 -199 258q-72 170 -72 394q0 220 72 393q70 169 199 260q131 90 301 90t301 -90q130 -92 200 -260t70 -393q0 -229 -70 -394q-70 -169 -200 -258q-130 -92 -301 -92zM627 211q134 0 217 133q80 133 80 369q0 235 -80 368
q-83 133 -217 133q-135 0 -215 -133q-82 -131 -82 -368q0 -238 82 -369q80 -133 215 -133z" />
    <glyph glyph-name="one" unicode="1" 
d="M582 0v1145l-340 -105v240l610 172v-1452h-270z" />
    <glyph glyph-name="two" unicode="2" 
d="M104 0v219l562 496q108 94 149 157q39 59 39 138q0 88 -63 145q-65 59 -175 59q-107 0 -172 -53q-69 -54 -84 -137h-264q18 127 88 225q74 99 183 152q113 55 256 55q149 0 262 -55q118 -60 180 -156q63 -100 63 -231q0 -140 -73 -244q-75 -107 -211 -221l-363 -311h662
v-238h-1039z" />
    <glyph glyph-name="three" unicode="3" 
d="M631 -31q-235 0 -375 107q-144 105 -178 289h270q26 -74 103 -115q74 -41 178 -41q100 0 176 49t76 158q0 92 -72 143q-71 47 -186 47h-177v232h166q107 0 170 51q66 54 66 139q0 97 -70 143t-170 46q-96 0 -164 -41q-69 -42 -90 -111h-262q44 179 180 285
q135 106 353 106q132 0 245 -49q114 -53 181 -143q65 -92 65 -222q0 -111 -57 -188q-58 -79 -164 -119q128 -41 195 -129q65 -92 65 -209q0 -137 -70 -231q-73 -98 -190 -146q-117 -51 -264 -51z" />
    <glyph glyph-name="four" unicode="4" 
d="M735 0v324h-690v206l690 895h262v-876h209v-225h-209v-324h-262zM324 549h411v530z" />
    <glyph glyph-name="five" unicode="5" 
d="M649 -31q-210 0 -350 94q-143 94 -193 267h277q31 -60 96 -90q67 -31 148 -31q110 0 186 67q76 64 76 181q0 113 -74 178q-72 63 -188 63q-77 0 -144 -30q-67 -33 -114 -86h-242l82 843h858v-237h-643l-35 -387q50 59 133 98q78 35 178 35q130 0 238 -60
q106 -62 166 -165q59 -109 59 -246q0 -157 -69 -266t-187 -168q-114 -60 -258 -60z" />
    <glyph glyph-name="six" unicode="6" 
d="M668 -31q-274 0 -430 197q-158 196 -158 555q0 232 74 397q73 163 206 252q133 86 304 86q198 0 325 -92q123 -92 176 -262h-276q-59 117 -221 117q-147 0 -230 -115q-86 -118 -92 -356q59 89 152 141q92 51 221 51q128 0 235 -61q106 -60 170 -168q64 -107 64 -242
q0 -151 -74 -266q-74 -114 -192 -172q-121 -62 -254 -62zM653 207q113 0 191 72q76 70 76 180q0 109 -76 182q-77 74 -191 74q-77 0 -133 -33q-62 -35 -96 -92q-37 -58 -37 -131q0 -71 37 -129q32 -54 96 -90q59 -33 133 -33z" />
    <glyph glyph-name="seven" unicode="7" 
d="M1137 1425v-219l-535 -1206h-289l541 1186h-739v239h1022z" />
    <glyph glyph-name="eight" unicode="8" 
d="M627 -31q-156 0 -281 49q-128 47 -199 142q-73 94 -73 229q0 121 78 217q75 92 204 133q-116 41 -176 125q-61 82 -61 193q0 118 65 207t178 141q111 51 265 51q153 0 264 -51q116 -54 180 -141q64 -88 64 -207q0 -110 -62 -193q-60 -84 -176 -125q133 -42 207 -133
q76 -94 76 -217q0 -132 -72 -229q-75 -96 -199 -142q-125 -49 -282 -49zM627 836q102 0 176 53q71 53 71 147q0 91 -71 144t-176 53t-176 -53q-72 -54 -72 -144q0 -94 74 -147q71 -53 174 -53zM627 199q115 0 198 53q82 52 82 160q0 97 -82 155q-83 56 -198 56
q-114 0 -197 -56q-84 -60 -84 -155q0 -107 84 -160q83 -53 197 -53z" />
    <glyph glyph-name="nine" unicode="9" 
d="M586 1456q277 0 432 -192q156 -194 156 -551q0 -356 -148 -551q-150 -193 -418 -193q-195 0 -334 92q-138 91 -188 263h276q28 -61 93 -88q66 -29 139 -29q147 0 227 115t86 356q-59 -89 -149 -141q-94 -52 -223 -52t-238 62q-107 61 -168 168q-63 105 -63 239
q0 152 73 265q68 110 191 176q116 61 256 61zM602 1219q-112 0 -190 -72t-78 -182q0 -109 78 -181q76 -73 190 -73q79 0 133 32q59 35 96 93q35 59 35 129q0 72 -35 131q-34 54 -96 90q-56 33 -133 33z" />
    <glyph glyph-name="colon" unicode=":" horiz-adv-x="577" 
d="M289 -29q-72 0 -121 52q-51 51 -51 120q0 70 51 121q48 51 121 51q72 0 123 -51q49 -52 49 -121q0 -68 -49 -120q-52 -52 -123 -52zM289 754q-73 0 -121 51q-51 51 -51 121t51 121q48 51 121 51q72 0 123 -51q49 -52 49 -121t-49 -121q-51 -51 -123 -51z" />
    <glyph glyph-name="semicolon" unicode=";" horiz-adv-x="577" 
d="M49 -356q78 119 123 202q44 82 64 152q-56 12 -89 51q-32 38 -32 92q0 65 45 113q46 49 123 49q78 0 129 -51q49 -52 49 -139q0 -96 -47 -211q-46 -105 -146 -258h-219zM289 754q-73 0 -121 51q-51 51 -51 121t51 121q48 51 121 51q72 0 123 -51q49 -52 49 -121t-49 -121
q-51 -51 -123 -51z" />
    <glyph glyph-name="less" unicode="&#x3c;" 
d="M1100 145l-973 430v220l973 430v-234l-709 -307l709 -305v-234z" />
    <glyph glyph-name="equal" unicode="=" 
d="M145 813v219h963v-219h-963zM145 338v219h963v-219h-963z" />
    <glyph glyph-name="greater" unicode="&#x3e;" 
d="M154 145v234l708 305l-708 307v234l972 -430v-220z" />
    <glyph glyph-name="question" unicode="?" horiz-adv-x="1198" 
d="M434 444v62q0 111 43 190q41 77 168 154q78 46 113 76q34 27 51 61q12 27 12 66q0 65 -59 112q-62 47 -164 47q-110 0 -172 -45q-67 -46 -82 -123h-262q15 114 84 211q69 94 180 148q113 55 266 55q149 0 254 -51q107 -52 170 -143q62 -92 62 -209q0 -111 -60 -193
q-59 -79 -184 -157q-68 -42 -104 -78t-45 -66q-13 -37 -13 -69v-48h-258zM578 -29q-69 0 -121 52q-51 51 -51 120q0 70 51 121t121 51q69 0 120 -51q52 -52 52 -121q0 -68 -52 -120t-120 -52z" />
    <glyph glyph-name="at" unicode="@" horiz-adv-x="2234" 
d="M1022 -463q-180 0 -348 60q-164 59 -283 172q-122 113 -190 270q-70 155 -70 354q0 218 76 410q74 192 215 336q145 148 344 229q198 82 455 82q185 0 350 -53q160 -56 280 -158q123 -107 189 -252q67 -149 67 -338q0 -216 -73 -362q-75 -153 -193 -228
q-121 -77 -254 -77q-102 0 -164 45q-69 47 -92 116q-61 -82 -145 -123q-76 -40 -174 -40q-178 0 -285 116q-109 118 -109 312q0 157 64 288q65 133 172 209q110 78 242 78q97 0 168 -41q69 -40 108 -113l19 125h225l-88 -630q-2 -6 -2 -23v-31q0 -33 22 -55t60 -22
q56 0 114 49q62 52 101 151q39 98 39 256q0 188 -84 322q-83 128 -238 198q-151 68 -348 68q-259 0 -440 -111q-188 -113 -281 -303q-96 -197 -96 -434q0 -199 86 -344q84 -142 239 -219q149 -76 353 -76q125 0 219 21q113 25 211 65v-217q-102 -41 -213 -61
q-114 -21 -248 -21zM1053 199q85 0 147 47q56 45 92 127q31 79 31 170q0 106 -49 164q-50 59 -137 59q-86 0 -148 -47q-59 -42 -96 -125q-33 -73 -33 -170q0 -107 53 -166t140 -59z" />
    <glyph glyph-name="A" unicode="A" horiz-adv-x="1447" 
d="M1124 0l-118 324h-576l-117 -324h-284l551 1425h288l551 -1425h-295zM518 565h402l-201 551z" />
    <glyph glyph-name="B" unicode="B" horiz-adv-x="1406" 
d="M162 0v1425h616q230 0 359 -100q133 -103 133 -283q0 -217 -217 -299q136 -41 202 -127q66 -91 66 -208q0 -127 -64 -215q-66 -94 -180 -142q-114 -51 -274 -51h-641zM745 1190h-309v-340h309q121 0 185 43q65 41 65 127q0 170 -250 170zM780 614h-344v-378h344
q262 0 262 190q0 92 -67 141q-68 47 -195 47z" />
    <glyph glyph-name="C" unicode="C" horiz-adv-x="1474" 
d="M86 713q0 218 88 387q85 169 242 264q152 94 356 94q185 0 311 -63q132 -66 207 -178q80 -119 109 -259h-289q-27 115 -113 183q-88 67 -225 67q-122 0 -211 -59q-89 -62 -141 -172q-51 -111 -51 -264q0 -154 51 -262q52 -113 141 -172q89 -62 211 -62q136 0 227 66
t115 174h285q-26 -134 -107 -252q-78 -108 -209 -174q-128 -64 -311 -64q-208 0 -356 96q-156 94 -242 265q-88 169 -88 385z" />
    <glyph glyph-name="D" unicode="D" horiz-adv-x="1503" 
d="M162 0v1425h538q212 0 375 -88q162 -90 252 -247q90 -162 90 -377t-90 -377q-91 -159 -252 -248q-163 -88 -375 -88h-538zM440 244h244q133 0 234 55q100 55 159 160q58 104 58 254t-58 254t-159 159q-103 56 -234 56h-244v-938z" />
    <glyph glyph-name="E" unicode="E" horiz-adv-x="1316" 
d="M162 0v1425h1028v-243h-750v-334h725v-244h-725v-360h760v-244h-1038z" />
    <glyph glyph-name="F" unicode="F" horiz-adv-x="1269" 
d="M162 0v1425h1005v-241h-727v-369h703v-242h-703v-573h-278z" />
    <glyph glyph-name="G" unicode="G" horiz-adv-x="1540" 
d="M797 -33q-211 0 -373 96q-157 94 -248 267q-90 172 -90 383q0 213 90 385q87 167 250 264q162 96 369 96q235 0 403 -115q167 -114 225 -319h-286q-33 80 -123 133q-86 51 -219 51q-129 0 -224 -59q-98 -64 -149 -172q-53 -115 -53 -264q0 -150 53 -262q52 -111 151 -172
q100 -62 232 -62q110 0 192 43q86 45 131 117q48 76 48 164v22h-381v238h655v-199q0 -176 -78 -323q-80 -145 -225 -228q-150 -84 -350 -84z" />
    <glyph glyph-name="H" unicode="H" horiz-adv-x="1574" 
d="M162 0v1425h278v-557h695v557h278v-1425h-278v625h-695v-625h-278z" />
    <glyph glyph-name="I" unicode="I" horiz-adv-x="602" 
d="M440 0h-278v1425h278v-1425z" />
    <glyph glyph-name="J" unicode="J" horiz-adv-x="1255" 
d="M836 463v962h278v-970q0 -149 -61 -256q-65 -111 -179 -170q-118 -62 -280 -62q-155 0 -275 60q-118 58 -186 166q-68 109 -80 245h273q15 -107 84 -164t184 -57q105 0 174 66q68 65 68 180z" />
    <glyph glyph-name="K" unicode="K" horiz-adv-x="1398" 
d="M162 0v1425h278v-577l572 577h336l-678 -682l712 -743h-362l-580 606v-606h-278z" />
    <glyph glyph-name="L" unicode="L" horiz-adv-x="1241" 
d="M1165 244v-244h-1003v1425h278v-1181h725z" />
    <glyph glyph-name="M" unicode="M" horiz-adv-x="1832" 
d="M428 0h-266v1425h311l449 -729l438 729h311v-1425h-268v1034l-488 -801l-487 799v-1032z" />
    <glyph glyph-name="N" unicode="N" horiz-adv-x="1570" 
d="M162 0v1425h270l707 -999v999h270v-1425h-270l-707 999v-999h-270z" />
    <glyph glyph-name="O" unicode="O" horiz-adv-x="1615" 
d="M807 -33q-156 0 -289 56q-140 59 -229 155q-101 109 -150 238q-53 136 -53 297q0 160 53 299q49 126 150 235q91 98 229 156q131 55 289 55q160 0 291 -55t229 -156q101 -109 150 -235q53 -139 53 -299q0 -161 -53 -297q-49 -129 -150 -238q-96 -99 -229 -155t-291 -56z
M807 217q128 0 229 64q98 61 156 174q55 110 55 258q0 147 -55 260q-58 110 -156 174q-101 61 -229 61q-127 0 -225 -61q-101 -64 -156 -174q-57 -111 -57 -260q0 -150 57 -258q55 -113 156 -174q98 -64 225 -64z" />
    <glyph glyph-name="P" unicode="P" horiz-adv-x="1357" 
d="M162 0v1425h563q270 0 416 -131q147 -132 147 -346q0 -216 -147 -348q-146 -131 -416 -131h-285v-469h-278zM440 711h248q166 0 242 61t76 176q0 113 -76 174q-77 62 -242 62h-248v-473z" />
    <glyph glyph-name="Q" unicode="Q" horiz-adv-x="1615" 
d="M807 -33q-156 0 -289 56q-140 59 -229 155q-101 109 -150 238q-53 136 -53 297q0 160 53 299q49 126 150 235q91 98 229 156q131 55 289 55q160 0 291 -55t229 -156q101 -109 150 -235q53 -139 53 -299q0 -177 -64 -320q-66 -148 -176 -246l219 -280h-274l-127 164
q-137 -64 -301 -64zM807 215q74 0 139 21l-227 292h276l133 -172q58 64 89 156q30 88 30 201q0 147 -55 260q-58 110 -156 174q-101 61 -229 61q-127 0 -225 -61q-101 -64 -156 -174q-57 -111 -57 -260t57 -260q55 -113 156 -174q98 -64 225 -64z" />
    <glyph glyph-name="R" unicode="R" horiz-adv-x="1398" 
d="M162 0v1425h581q264 0 410 -125q145 -127 145 -337q0 -154 -77 -263q-80 -109 -211 -161l352 -539h-324l-313 494h-285v-494h-278zM440 735h267q157 0 235 60q74 59 74 170q0 112 -74 165q-79 54 -235 54h-267v-449z" />
    <glyph glyph-name="S" unicode="S" horiz-adv-x="1308" 
d="M668 -33q-249 0 -406 115q-159 116 -205 319h279q27 -85 115 -137q86 -53 213 -53q120 0 200 47q78 47 78 133q0 48 -22 90q-22 39 -84 66q-61 27 -179 45l-159 26q-200 35 -297 127q-101 94 -101 271q0 132 74 235q70 98 197 154q124 53 276 53q226 0 375 -104
q152 -109 186 -310h-278q-21 87 -94 130q-73 40 -187 40q-128 0 -196 -45q-72 -47 -72 -129q0 -74 55 -114q54 -41 215 -68l154 -24q420 -67 420 -416q0 -140 -72 -244q-70 -101 -197 -154q-120 -53 -288 -53z" />
    <glyph glyph-name="T" unicode="T" horiz-adv-x="1380" 
d="M829 0h-278v1182h-475v243h1229v-243h-476v-1182z" />
    <glyph glyph-name="U" unicode="U" horiz-adv-x="1523" 
d="M762 -33q-201 0 -340 80q-138 79 -209 225q-72 147 -72 342v811h279v-778q0 -200 82 -313q80 -117 260 -117t262 117q80 115 80 313v778h278v-811q0 -201 -69 -342q-71 -146 -209 -225q-139 -80 -342 -80z" />
    <glyph glyph-name="V" unicode="V" horiz-adv-x="1441" 
d="M1413 1425l-547 -1425h-291l-546 1425h303l395 -1089l393 1089h293z" />
    <glyph glyph-name="W" unicode="W" horiz-adv-x="2035" 
d="M469 0l-420 1425h291l276 -1003l273 999h256l287 -1005l268 1009h287l-420 -1425h-258l-291 1018l-291 -1018h-258z" />
    <glyph glyph-name="X" unicode="X" horiz-adv-x="1472" 
d="M35 0l528 741l-475 684h334l321 -473l312 473h329l-479 -682l533 -743h-336l-377 532l-363 -532h-327z" />
    <glyph glyph-name="Y" unicode="Y" horiz-adv-x="1372" 
d="M547 0v535l-522 890h317l350 -630l350 630h306l-523 -890v-535h-278z" />
    <glyph glyph-name="Z" unicode="Z" horiz-adv-x="1290" 
d="M90 1425h1102v-233l-760 -948h772v-244h-1114v233l760 949h-760v243z" />
    <glyph glyph-name="bracketleft" unicode="[" horiz-adv-x="763" 
d="M170 -328v1833h518v-223h-262v-1386h262v-224h-518z" />
    <glyph glyph-name="backslash" unicode="\" horiz-adv-x="876" 
d="M858 -328h-258l-582 1833h258z" />
    <glyph glyph-name="bracketright" unicode="]" horiz-adv-x="763" 
d="M594 -328h-518v224h262v1386h-262v223h518v-1833z" />
    <glyph glyph-name="asciicircum" unicode="^" 
d="M115 809l393 737h237l394 -737h-246l-266 512l-267 -512h-245z" />
    <glyph glyph-name="underscore" unicode="_" horiz-adv-x="1024" 
d="M0 -399v223h1024v-223h-1024z" />
    <glyph glyph-name="grave" unicode="`" horiz-adv-x="1198" 
d="M569 1204l-184 322h272l156 -322h-244z" />
    <glyph glyph-name="a" unicode="a" horiz-adv-x="1114" 
d="M430 -31q-164 0 -264 92q-100 87 -100 242q0 166 118 256q121 92 332 92h215v39q0 97 -53 144q-52 43 -143 43q-76 0 -127 -31q-50 -30 -62 -72h-250q27 137 144 225q120 91 303 91q204 0 325 -103q119 -104 119 -323v-664h-239v131q-52 -83 -138 -123q-85 -39 -180 -39z
M496 178q52 0 110 25q53 24 90 73q35 47 35 121v68h-203q-101 0 -153 -37q-56 -41 -56 -109q0 -69 50 -104q49 -37 127 -37z" />
    <glyph glyph-name="b" unicode="b" 
d="M135 0v1485h258v-555q54 75 135 119q80 41 183 41q136 0 243 -70q104 -70 166 -197q60 -129 60 -293q0 -161 -60 -290q-64 -130 -166 -199q-110 -72 -243 -72q-111 0 -191 45q-84 47 -135 125v-139h-250zM649 201q115 0 193 90q73 88 73 239q0 152 -73 240
q-76 88 -193 88q-119 0 -192 -88q-76 -88 -76 -240q0 -151 76 -239q75 -90 192 -90z" />
    <glyph glyph-name="c" unicode="c" horiz-adv-x="1120" 
d="M596 -31q-155 0 -274 72q-116 68 -183 199q-65 127 -65 290q0 162 65 289q67 131 183 199q119 72 274 72q131 0 229 -52q100 -56 156 -137q59 -87 74 -192h-267q-12 64 -59 108q-50 41 -137 41q-112 0 -182 -88t-70 -240q0 -151 70 -239q72 -90 182 -90q88 0 139 39
q50 41 62 104h262q-15 -107 -74 -190t-156 -134q-96 -51 -229 -51z" />
    <glyph glyph-name="d" unicode="d" 
d="M543 -31q-135 0 -242 72q-106 69 -166 199q-61 125 -61 290q0 168 61 293q59 127 166 197q104 70 242 70q102 0 182 -41q81 -44 135 -119v555h258v-1485h-250v139q-51 -78 -135 -125q-80 -45 -190 -45zM604 201q117 0 195 90q73 88 73 239q0 152 -73 240q-76 88 -195 88
q-117 0 -190 -88q-76 -88 -76 -240q0 -151 76 -239q75 -90 190 -90z" />
    <glyph glyph-name="e" unicode="e" horiz-adv-x="1155" 
d="M600 -31q-165 0 -281 70q-116 65 -182 194q-63 123 -63 302q0 161 63 284q61 126 178 199q119 72 279 72q232 0 358 -150q125 -149 125 -399v-95h-741q34 -264 266 -264q72 0 127 25q51 25 68 63h262q-41 -140 -160 -219q-122 -82 -299 -82zM592 877q-107 0 -172 -62
q-67 -67 -84 -180h487q-3 109 -61 176q-60 66 -170 66z" />
    <glyph glyph-name="f" unicode="f" horiz-adv-x="729" 
d="M37 1059h172v61q0 168 96 269q96 96 262 96h111v-225h-57q-73 0 -113 -43q-39 -42 -39 -115v-43h209v-225h-209v-834h-260v834h-172v225z" />
    <glyph glyph-name="g" unicode="g" 
d="M541 4q-138 0 -242 70q-108 71 -166 192q-59 124 -59 281q0 156 59 280q58 123 166 193q104 70 242 70q108 0 190 -46t137 -122v137h250v-1018q0 -235 -133 -365q-136 -127 -369 -127q-198 0 -335 93q-133 90 -168 235h270q28 -48 84 -74q61 -28 143 -28q120 0 185 59
t65 186v142q-57 -75 -135 -115q-82 -43 -184 -43zM602 236q119 0 195 88q75 84 75 225t-75 225q-77 86 -195 86q-114 0 -188 -86q-76 -85 -76 -225t76 -225q73 -88 188 -88z" />
    <glyph glyph-name="h" unicode="h" horiz-adv-x="1204" 
d="M135 0v1485h260v-543q115 148 310 148q171 0 272 -119q100 -118 100 -314v-657h-260v618q0 111 -49 175q-51 63 -154 63q-91 0 -155 -61q-64 -64 -64 -172v-623h-260z" />
    <glyph glyph-name="i" unicode="i" horiz-adv-x="532" 
d="M266 1182q-65 0 -112 47q-50 47 -50 114q0 68 50 115q47 47 112 47t115 -47q47 -47 47 -115q0 -67 -47 -114q-50 -47 -115 -47zM135 0v1059h260v-1059h-260z" />
    <glyph glyph-name="j" unicode="j" horiz-adv-x="532" 
d="M266 1182q-65 0 -112 47q-50 47 -50 114q0 68 50 115q47 47 112 47t115 -47q47 -47 47 -115q0 -67 -47 -114q-50 -47 -115 -47zM-55 -420v225h59q63 0 98 41q33 42 33 117v1096h260v-1127q0 -167 -84 -260q-86 -92 -245 -92h-121z" />
    <glyph glyph-name="k" unicode="k" horiz-adv-x="1146" 
d="M135 0v1485h260v-846l396 420h313l-469 -498l502 -561h-330l-412 469v-469h-260z" />
    <glyph glyph-name="l" unicode="l" horiz-adv-x="530" 
d="M135 0v1485h260v-1485h-260z" />
    <glyph glyph-name="m" unicode="m" horiz-adv-x="1769" 
d="M135 0v1059h250v-115q51 68 125 109q70 37 162 37q95 0 168 -46q70 -45 118 -129q59 83 146 129q85 46 184 46q164 0 258 -113q96 -116 96 -311v-666h-260v633q0 107 -45 164q-47 59 -129 59t-135 -59q-55 -58 -55 -164v-633h-260v633q0 107 -45 164q-47 59 -129 59
t-135 -59q-54 -60 -54 -164v-633h-260z" />
    <glyph glyph-name="n" unicode="n" horiz-adv-x="1204" 
d="M395 623v-623h-260v1059h250v-125q114 156 320 156q171 0 272 -119q100 -118 100 -314v-657h-260v618q0 111 -49 175q-51 63 -154 63q-91 0 -155 -61q-64 -64 -64 -172z" />
    <glyph glyph-name="o" unicode="o" horiz-adv-x="1208" 
d="M604 -31q-151 0 -274 72q-120 71 -189 199q-67 125 -67 290q0 168 67 293t189 197q119 70 274 70q158 0 277 -70q117 -69 186 -197q68 -127 68 -293q0 -163 -68 -290q-70 -131 -186 -199q-123 -72 -277 -72zM604 201q118 0 193 90q73 88 73 239q0 152 -73 240t-193 88
q-119 0 -192 -88q-74 -89 -74 -240q0 -150 74 -239q75 -90 192 -90z" />
    <glyph glyph-name="p" unicode="p" 
d="M135 -420v1479h250v-139q50 76 135 124q82 46 191 46q133 0 243 -72q102 -69 166 -199q60 -129 60 -291q0 -161 -60 -290q-62 -127 -166 -197q-106 -72 -243 -72q-104 0 -183 43q-80 40 -135 117v-549h-258zM649 201q117 0 193 88q73 88 73 239q0 154 -73 242
q-76 88 -193 88t-192 -90q-76 -88 -76 -240q0 -149 76 -237q75 -90 192 -90z" />
    <glyph glyph-name="q" unicode="q" 
d="M543 -31q-139 0 -242 72q-107 70 -166 197q-61 125 -61 290q0 166 61 291q60 130 166 199q107 72 242 72q108 0 190 -46q85 -48 135 -124v139h250v-1479h-258v549q-56 -77 -135 -117q-79 -43 -182 -43zM604 201q117 0 195 90q73 88 73 237q0 152 -73 240q-78 90 -195 90
t-190 -88q-76 -88 -76 -242q0 -151 76 -239q73 -88 190 -88z" />
    <glyph glyph-name="r" unicode="r" horiz-adv-x="776" 
d="M395 522v-522h-260v1059h250v-176q48 86 127 137q77 47 172 47h41v-246h-49q-118 0 -199 -78q-82 -76 -82 -221z" />
    <glyph glyph-name="s" unicode="s" horiz-adv-x="1030" 
d="M532 -31q-195 0 -319 92q-123 87 -145 238h249q9 -47 68 -82t141 -35q84 0 131 33q48 31 48 84q0 46 -37 76q-39 31 -129 43l-154 20q-151 21 -225 101q-74 77 -74 204q0 107 55 183q56 77 152 121q93 43 217 43q127 0 217 -43t147 -115q55 -72 70 -160h-248
q-16 52 -61 78q-50 27 -121 27q-81 0 -125 -33q-47 -35 -47 -86q0 -47 37 -68q40 -25 123 -37l151 -20q154 -21 232 -111t78 -213q0 -103 -56 -180q-59 -77 -153 -117q-98 -43 -222 -43z" />
    <glyph glyph-name="t" unicode="t" horiz-adv-x="745" 
d="M541 -8q-161 0 -246 88q-88 85 -88 254v500h-172v225h172v321q136 6 260 43v-364h209v-225h-209v-472q0 -70 35 -108q34 -37 98 -37h76v-225h-135z" />
    <glyph glyph-name="u" unicode="u" horiz-adv-x="1193" 
d="M799 434v625h260v-1059h-250v123q-53 -74 -127 -113q-72 -41 -170 -41q-182 0 -285 121q-100 118 -100 313v656h260v-625q0 -101 53 -166t150 -65q94 0 151 63q58 61 58 168z" />
    <glyph glyph-name="v" unicode="v" horiz-adv-x="1134" 
d="M702 0h-272l-412 1059h297l260 -762l261 762h280z" />
    <glyph glyph-name="w" unicode="w" horiz-adv-x="1597" 
d="M365 0l-338 1059h268l197 -686l190 684h233l199 -686l197 688h260l-338 -1059h-227l-209 717l-205 -717h-227z" />
    <glyph glyph-name="x" unicode="x" horiz-adv-x="1138" 
d="M16 0l387 557l-350 502h314l213 -324l208 324h297l-350 -512l387 -547h-313l-250 369l-246 -369h-297z" />
    <glyph glyph-name="y" unicode="y" horiz-adv-x="1134" 
d="M260 -420l174 420l-416 1059h297l263 -756l258 756h280l-577 -1479h-279z" />
    <glyph glyph-name="z" unicode="z" horiz-adv-x="1050" 
d="M78 0v215l549 619h-549v225h887v-215l-549 -619h561v-225h-899z" />
    <glyph glyph-name="braceleft" unicode="{" horiz-adv-x="841" 
d="M631 -328q-181 0 -275 82q-96 84 -96 279v254q0 86 -35 133q-33 45 -114 45h-41v248h41q81 0 114 45q35 47 35 133v254q0 194 96 278q94 82 275 82h135v-223h-82q-82 0 -125 -37q-43 -40 -43 -135v-236q0 -134 -43 -192q-48 -63 -149 -92q101 -29 149 -92q43 -61 43 -195
v-235q0 -96 43 -136q42 -36 125 -36h82v-224h-135z" />
    <glyph glyph-name="bar" unicode="|" horiz-adv-x="669" 
d="M211 -244v1741h248v-1741h-248z" />
    <glyph glyph-name="braceright" unicode="}" horiz-adv-x="841" 
d="M213 -328h-137v224h82q83 0 125 36q43 40 43 136v235q0 135 45 195q45 61 147 90q-103 29 -147 92q-45 60 -45 194v236q0 95 -43 135q-43 37 -125 37h-82v223h137q180 0 274 -82q95 -83 95 -278v-254q0 -87 34 -133q33 -45 117 -45h39v-248h-39q-84 0 -117 -45
q-34 -46 -34 -133v-254q0 -196 -95 -279q-94 -82 -274 -82z" />
    <glyph glyph-name="asciitilde" unicode="~" 
d="M879 494q-83 0 -148 32q-75 32 -162 107q-62 50 -96 67q-43 19 -74 19q-98 0 -98 -117v-90h-229v98q0 160 82 248q84 90 221 90q77 0 147 -30q83 -40 162 -109q67 -53 96 -66q39 -20 74 -20q98 0 98 119v88h230v-99q0 -157 -82 -245q-83 -92 -221 -92z" />
    <glyph glyph-name="uni00A0" unicode="&#xa0;" horiz-adv-x="462" 
 />
    <glyph glyph-name="exclamdown" unicode="&#xa1;" horiz-adv-x="593" 
d="M297 745q-72 0 -121 52q-51 51 -51 121q0 69 51 120q49 52 121 52q71 0 123 -52q49 -52 49 -120q0 -69 -49 -121q-52 -52 -123 -52zM158 -365l16 981h246l16 -981h-278z" />
    <glyph glyph-name="cent" unicode="&#xa2;" 
d="M571 -33v183q-133 21 -233 98q-100 75 -154 198q-55 119 -55 269q0 151 55 270q53 121 154 197q97 75 233 96v180h154v-178q173 -15 281 -123q109 -109 127 -256h-248q-24 129 -160 156v-686q140 24 164 155h244q-18 -149 -125 -256q-108 -108 -283 -123v-180h-154z
M385 715q0 -129 51 -215t135 -121v670q-82 -30 -135 -119q-51 -86 -51 -215z" />
    <glyph glyph-name="sterling" unicode="&#xa3;" 
d="M104 0v207q107 107 150 194q48 95 51 195h-205v211h150q-31 82 -41 129q-14 52 -14 129q0 113 57 199q56 89 160 141q99 51 243 51q191 0 310 -96q117 -99 163 -262h-260q-50 121 -198 121q-102 0 -154 -52q-55 -52 -55 -133q0 -49 14 -98q15 -52 45 -129h418v-211h-379
q-6 -96 -41 -186q-42 -98 -112 -174h745v-236h-1047z" />
    <glyph glyph-name="currency" unicode="&#xa4;" 
d="M203 152l-144 145l183 182q-68 109 -68 236q0 126 68 235l-183 183l144 145l182 -184q48 31 115 51q62 16 127 16q63 0 129 -16q65 -20 112 -51l183 184l143 -145l-182 -183q67 -107 67 -235q0 -129 -67 -236l182 -182l-143 -145l-183 184q-51 -33 -112 -49
q-65 -19 -129 -19q-65 0 -127 19q-64 16 -115 49zM627 477q102 0 168 72q63 69 63 166q0 99 -63 168t-168 69q-103 0 -166 -69q-66 -72 -66 -168q0 -94 66 -166t166 -72z" />
    <glyph glyph-name="yen" unicode="&#xa5;" 
d="M494 0v246h-326v170h326v137h-326v170h238l-379 702h297l311 -641l309 641h281l-377 -702h235v-170h-323v-137h323v-170h-323v-246h-266z" />
    <glyph glyph-name="brokenbar" unicode="&#xa6;" horiz-adv-x="669" 
d="M211 1497h248v-717h-248v717zM459 -244h-248v717h248v-717z" />
    <glyph glyph-name="section" unicode="&#xa7;" horiz-adv-x="1146" 
d="M582 -162q-184 0 -297 90q-113 91 -131 242h235q9 -48 60 -84q49 -37 131 -37q78 0 125 35q43 34 43 90q0 57 -33 86q-34 30 -109 45l-190 39q-163 34 -232 109q-71 77 -71 190q0 100 51 168q51 73 131 115q-115 89 -115 245q0 98 51 172q54 79 142 125q86 45 209 45
q177 0 286 -92q107 -91 125 -241h-233q-9 49 -55 86t-123 37q-75 0 -117 -33q-45 -33 -45 -92q0 -58 35 -88q36 -31 106 -46l160 -30q151 -27 233 -115q80 -89 80 -207q0 -96 -43 -160q-46 -67 -119 -110q59 -44 86 -105t27 -133q0 -100 -49 -176q-55 -80 -141 -125
t-213 -45zM690 508q44 14 76 51q31 36 31 88q0 66 -35 107q-37 40 -117 55l-184 33q-49 -19 -78 -58q-33 -39 -33 -94q0 -54 35 -92t119 -53z" />
    <glyph glyph-name="dieresis" unicode="&#xa8;" horiz-adv-x="1198" 
d="M823 1208q-61 0 -104 43q-43 40 -43 103q0 61 43 104q44 41 104 41q61 0 105 -41q43 -43 43 -104q0 -63 -43 -103q-43 -43 -105 -43zM377 1208q-62 0 -105 43q-43 40 -43 103q0 61 43 104q44 41 105 41q60 0 104 -41q43 -43 43 -104q0 -63 -43 -103q-43 -43 -104 -43z
" />
    <glyph glyph-name="copyright" unicode="&#xa9;" horiz-adv-x="1650" 
d="M825 -33q-155 0 -288 56q-136 54 -232 153q-101 101 -153 238q-56 136 -56 299q0 162 56 301q52 134 153 235q96 99 232 156q133 53 288 53q158 0 291 -53q131 -55 232 -156q98 -101 153 -235q53 -139 53 -301q0 -163 -53 -299q-55 -137 -153 -238q-101 -101 -232 -153
q-133 -56 -291 -56zM825 106q162 0 297 78q132 77 209 215q76 137 76 314q0 176 -76 313q-77 138 -209 215q-135 78 -297 78t-297 -78q-128 -74 -206 -215t-78 -313q0 -173 78 -314t206 -215q135 -78 297 -78zM842 276q-127 0 -215 58q-94 57 -142 153q-51 96 -51 228
q0 127 51 223q48 96 142 156q88 55 215 55q153 0 248 -86t110 -209h-213q-9 51 -45 80q-42 31 -102 31q-87 0 -140 -68q-55 -70 -55 -182q0 -118 55 -185q51 -69 140 -69q63 0 102 33q38 31 47 79h211q-15 -125 -110 -211t-248 -86z" />
    <glyph glyph-name="ordfeminine" unicode="&#xaa;" horiz-adv-x="925" 
d="M365 616q-131 0 -211 74t-80 195q0 127 96 205q93 75 264 75h166v25q0 81 -39 117q-40 34 -112 34q-61 0 -103 -22q-38 -23 -53 -57h-197q21 108 117 180q95 71 242 71q165 0 258 -81q94 -82 94 -258v-531h-189v107q-40 -67 -110 -101q-67 -33 -143 -33zM420 788
q55 0 112 31q53 30 68 99v94h-149q-168 0 -168 -115q0 -54 36 -80q40 -29 101 -29z" />
    <glyph glyph-name="guillemotleft" unicode="&#xab;" horiz-adv-x="1157" 
d="M354 94l-266 424l266 424h248l-262 -424l262 -424h-248zM813 94l-266 424l266 424h248l-262 -424l262 -424h-248z" />
    <glyph glyph-name="logicalnot" unicode="&#xac;" 
d="M874 393v336h-735v219h963v-555h-228z" />
    <glyph glyph-name="uni00AD" unicode="&#xad;" horiz-adv-x="991" 
d="M156 481v224h680v-224h-680z" />
    <glyph glyph-name="registered" unicode="&#xae;" horiz-adv-x="1069" 
d="M535 520q-133 0 -236 62q-106 59 -164 166q-61 107 -61 241q0 135 61 242q58 104 164 166q101 61 236 61q133 0 237 -61q103 -62 164 -166q59 -109 59 -242q0 -132 -59 -241q-61 -107 -164 -166q-106 -62 -237 -62zM535 633q99 0 176 47q73 44 120 125q46 79 46 184
q0 106 -46 185q-48 82 -120 126q-76 46 -176 46q-99 0 -175 -46q-75 -46 -122 -126q-45 -77 -45 -185q0 -107 45 -184q46 -79 122 -125q77 -47 175 -47zM354 772v465h205q88 0 133 -45q43 -46 43 -117q0 -45 -20 -78q-21 -34 -58 -57l109 -168h-141l-84 141h-62v-141h-125z
M479 1020h53q78 0 78 55t-78 55h-53v-110z" />
    <glyph glyph-name="macron" unicode="&#xaf;" horiz-adv-x="1198" 
d="M276 1473h648v-201h-648v201z" />
    <glyph glyph-name="degree" unicode="&#xb0;" horiz-adv-x="813" 
d="M408 866q-87 0 -158 41q-72 41 -113 113q-41 71 -41 156q0 86 41 157q40 69 113 111q71 41 158 41q86 0 157 -41q71 -40 111 -111q41 -71 41 -157q0 -85 -41 -156q-42 -73 -111 -113q-71 -41 -157 -41zM408 1022q64 0 106 45q43 43 43 109q0 64 -43 110q-43 43 -106 43
q-64 0 -107 -43q-45 -45 -45 -110q0 -67 45 -109q42 -45 107 -45z" />
    <glyph glyph-name="plusminus" unicode="&#xb1;" 
d="M145 0v219h963v-219h-963zM514 346v395h-369v220h369v395h227v-395h369v-220h-369v-395h-227z" />
    <glyph glyph-name="twosuperior" unicode="&#xb2;" horiz-adv-x="819" 
d="M92 819v166l334 268q54 44 72 72q18 27 18 61t-29 60q-27 24 -81 24q-53 0 -84 -22q-32 -26 -41 -62h-197q15 117 104 191q90 72 222 72q137 0 225 -70t88 -186q0 -84 -45 -146q-46 -65 -135 -129l-164 -123h352v-176h-639z" />
    <glyph glyph-name="threesuperior" unicode="&#xb3;" horiz-adv-x="819" 
d="M418 801q-149 0 -238 65q-88 64 -106 181h205q9 -37 45 -56q33 -20 84 -20q50 0 88 24q34 21 34 68q0 44 -32 63q-38 23 -92 23h-97v160h92q117 0 117 84q0 41 -31 63q-34 21 -84 21q-43 0 -79 -19q-34 -21 -43 -51h-201q27 113 113 178q85 64 221 64q77 0 153 -29
q70 -27 111 -80t41 -127q0 -60 -33 -104q-38 -51 -96 -70q69 -20 110 -74q39 -51 39 -116q0 -116 -92 -181q-94 -67 -229 -67z" />
    <glyph glyph-name="acute" unicode="&#xb4;" horiz-adv-x="1198" 
d="M631 1204h-244l156 322h272z" />
    <glyph glyph-name="uni00B5" unicode="&#xb5;" 
d="M135 -420v1479h260v-623q0 -105 56 -170q51 -63 147 -63q93 0 150 63q59 62 59 170v623h260v-715q0 -129 113 -129h24v-223h-82q-194 0 -250 145q-41 -78 -110 -123q-68 -45 -162 -45q-78 0 -133 27q-54 29 -88 78v-494h-244z" />
    <glyph glyph-name="paragraph" unicode="&#xb6;" horiz-adv-x="1454" 
d="M659 -287v758h-26q-178 0 -303 61q-128 60 -193 168q-67 107 -67 252q0 217 147 346q148 127 416 127h639v-1712h-221v1504h-170v-1504h-222z" />
    <glyph glyph-name="periodcentered" unicode="&#xb7;" horiz-adv-x="577" 
d="M289 578q-73 0 -121 51q-51 51 -51 121q0 69 51 120q49 52 121 52q71 0 123 -52q49 -52 49 -120q0 -69 -49 -121q-51 -51 -123 -51z" />
    <glyph glyph-name="cedilla" unicode="&#xb8;" horiz-adv-x="1198" 
d="M391 -518v156h113q102 0 102 67q0 64 -92 64h-94l94 301h158l-60 -168q85 -3 142 -60q55 -58 55 -143q0 -100 -66 -160q-66 -57 -186 -57h-166z" />
    <glyph glyph-name="onesuperior" unicode="&#xb9;" horiz-adv-x="819" 
d="M362 819v602l-192 -51v180l397 97v-828h-205z" />
    <glyph glyph-name="ordmasculine" unicode="&#xba;" horiz-adv-x="1003" 
d="M502 616q-125 0 -219 58q-96 60 -148 160q-55 101 -55 231q0 132 55 233q50 97 148 158q92 57 219 57t219 -57q95 -59 149 -158q54 -105 54 -233q0 -126 -54 -231q-56 -102 -149 -160q-94 -58 -219 -58zM502 805q93 0 153 72q58 70 58 188q0 120 -58 190t-153 70
q-94 0 -152 -70q-59 -71 -59 -190q0 -117 59 -188q60 -72 152 -72z" />
    <glyph glyph-name="guillemotright" unicode="&#xbb;" horiz-adv-x="1157" 
d="M96 94l262 424l-262 424h248l266 -424l-266 -424h-248zM555 94l262 424l-262 424h248l266 -424l-266 -424h-248z" />
    <glyph glyph-name="onequarter" unicode="&#xbc;" horiz-adv-x="1925" 
d="M362 655v602l-192 -51v180l397 97v-828h-205zM403 0l926 1425h234l-926 -1425h-234zM1569 0v168h-404v156l394 489h198v-485h119v-160h-119v-168h-188zM1360 328h209v260z" />
    <glyph glyph-name="onehalf" unicode="&#xbd;" horiz-adv-x="1925" 
d="M362 655v602l-192 -51v180l397 97v-828h-205zM367 0l925 1425h234l-926 -1425h-233zM1198 0v166l334 268q54 44 72 72q18 27 18 61t-29 60q-27 24 -82 24q-53 0 -84 -22q-32 -26 -41 -62h-196q15 117 104 191q89 71 222 71q138 0 225 -69q88 -70 88 -187q0 -83 -45 -145
q-46 -64 -135 -129l-164 -123h352v-176h-639z" />
    <glyph glyph-name="threequarters" unicode="&#xbe;" horiz-adv-x="1925" 
d="M418 637q-149 0 -238 65q-88 64 -106 181h205q9 -37 45 -56q33 -20 84 -20q50 0 88 24q34 21 34 68q0 45 -32 64q-36 22 -92 22h-97v160h92q117 0 117 84q0 41 -31 63q-34 21 -84 21q-43 0 -79 -19q-34 -21 -43 -51h-201q27 113 113 178q85 64 221 64q77 0 153 -29
q70 -27 111 -80t41 -127q0 -60 -33 -104q-38 -51 -96 -70q69 -20 110 -74q39 -51 39 -116q0 -115 -92 -180q-95 -68 -229 -68zM436 0l926 1425h233l-925 -1425h-234zM1569 0v168h-404v156l394 489h198v-485h119v-160h-119v-168h-188zM1360 328h209v260z" />
    <glyph glyph-name="questiondown" unicode="&#xbf;" horiz-adv-x="1138" 
d="M602 745q-69 0 -121 52q-51 51 -51 121q0 69 51 120q52 52 121 52t121 -52q51 -51 51 -120q0 -70 -51 -121q-52 -52 -121 -52zM567 -397q-149 0 -254 51q-107 52 -170 143q-61 91 -61 209q0 113 61 195q56 76 183 155q73 45 106 78t45 68q10 33 10 67v47h258v-61
q0 -112 -40 -188q-40 -79 -170 -156q-71 -42 -111 -74q-38 -33 -51 -61q-15 -30 -15 -68q0 -65 62 -112q60 -48 162 -48q107 0 174 46q65 47 80 122h262q-15 -114 -84 -211q-68 -93 -180 -147q-113 -55 -267 -55z" />
    <glyph glyph-name="Agrave" unicode="&#xc0;" horiz-adv-x="1447" 
d="M1124 0l-118 324h-576l-117 -324h-284l551 1425h288l551 -1425h-295zM518 565h402l-201 551zM612 1571l-211 307h283l180 -307h-252z" />
    <glyph glyph-name="Aacute" unicode="&#xc1;" horiz-adv-x="1447" 
d="M1124 0l-118 324h-576l-117 -324h-284l551 1425h288l551 -1425h-295zM518 565h402l-201 551zM838 1571h-252l180 307h283z" />
    <glyph glyph-name="Acircumflex" unicode="&#xc2;" horiz-adv-x="1447" 
d="M1124 0l-118 324h-576l-117 -324h-284l551 1425h288l551 -1425h-295zM518 565h402l-201 551zM322 1571l253 307h299l254 -307h-258l-145 153l-145 -153h-258z" />
    <glyph glyph-name="Atilde" unicode="&#xc3;" horiz-adv-x="1447" 
d="M1124 0l-118 324h-576l-117 -324h-284l551 1425h288l551 -1425h-295zM518 565h402l-201 551zM887 1561q-39 0 -86 12q-43 8 -99 45q-46 29 -59 35q-21 8 -45 8q-63 0 -63 -66v-30h-195v75q0 105 63 162q66 60 160 60q29 0 86 -11q45 -12 99 -47q34 -22 61 -32
q26 -11 43 -11q63 0 63 66v31h195v-76q0 -104 -61 -162q-65 -59 -162 -59z" />
    <glyph glyph-name="Adieresis" unicode="&#xc4;" horiz-adv-x="1447" 
d="M1124 0l-118 324h-576l-117 -324h-284l551 1425h288l551 -1425h-295zM518 565h402l-201 551zM956 1577q-61 0 -104 43q-43 40 -43 102t43 105q44 41 104 41q61 0 105 -41q43 -43 43 -105t-43 -102q-43 -43 -105 -43zM494 1577q-62 0 -105 43q-43 40 -43 102t43 105
q44 41 105 41q60 0 104 -41q43 -43 43 -105t-43 -102q-43 -43 -104 -43z" />
    <glyph glyph-name="Aring" unicode="&#xc5;" horiz-adv-x="1447" 
d="M1124 0l-118 324h-576l-117 -324h-284l551 1425h288l551 -1425h-295zM518 565h402l-201 551zM725 1280q-72 0 -131 35t-94 94t-35 129q0 72 35 131q33 56 94 92q59 35 131 35q74 0 133 -35q58 -34 92 -92q35 -59 35 -131q0 -70 -35 -129q-36 -61 -92 -94
q-59 -35 -133 -35zM725 1427q47 0 80 33q31 31 31 78q0 44 -31 80q-36 31 -80 31q-47 0 -78 -31q-33 -33 -33 -80q0 -49 33 -78q29 -33 78 -33z" />
    <glyph glyph-name="AE" unicode="&#xc6;" horiz-adv-x="2203" 
d="M315 0h-307l920 1425h1149v-243h-752v-334h727v-244h-727v-360h762v-244h-1038v324h-535zM662 565h387v631z" />
    <glyph glyph-name="Ccedilla" unicode="&#xc7;" horiz-adv-x="1474" 
d="M86 713q0 218 88 387q85 169 242 264q152 94 356 94q185 0 311 -63q132 -66 207 -178q80 -119 109 -259h-289q-27 115 -113 183q-88 67 -225 67q-122 0 -211 -59q-89 -62 -141 -172q-51 -111 -51 -264q0 -154 51 -262q52 -113 141 -172q89 -62 211 -62q136 0 227 66
t115 174h285q-26 -134 -107 -252q-78 -108 -209 -174q-128 -64 -311 -64q-208 0 -356 96q-156 94 -242 265q-88 169 -88 385zM592 -518v156h110q103 0 103 67q0 64 -92 64h-95l93 292h157l-57 -159q84 -3 141 -60q56 -59 56 -143q0 -100 -66 -160q-66 -57 -186 -57h-164z
" />
    <glyph glyph-name="Egrave" unicode="&#xc8;" horiz-adv-x="1316" 
d="M162 0v1425h1028v-243h-750v-334h725v-244h-725v-360h760v-244h-1038zM563 1571l-211 307h283l180 -307h-252z" />
    <glyph glyph-name="Eacute" unicode="&#xc9;" horiz-adv-x="1316" 
d="M162 0v1425h1028v-243h-750v-334h725v-244h-725v-360h760v-244h-1038zM788 1571h-251l180 307h282z" />
    <glyph glyph-name="Ecircumflex" unicode="&#xca;" horiz-adv-x="1316" 
d="M162 0v1425h1028v-243h-750v-334h725v-244h-725v-360h760v-244h-1038zM272 1571l254 307h299l254 -307h-258l-145 153l-146 -153h-258z" />
    <glyph glyph-name="Edieresis" unicode="&#xcb;" horiz-adv-x="1316" 
d="M162 0v1425h1028v-243h-750v-334h725v-244h-725v-360h760v-244h-1038zM907 1577q-61 0 -104 43q-43 40 -43 102t43 105q44 41 104 41q61 0 105 -41q43 -43 43 -105t-43 -102q-43 -43 -105 -43zM444 1577q-61 0 -104 43q-43 40 -43 102t43 105q44 41 104 41q61 0 105 -41
q43 -43 43 -105t-43 -102q-43 -43 -105 -43z" />
    <glyph glyph-name="Igrave" unicode="&#xcc;" horiz-adv-x="602" 
d="M440 0h-278v1425h278v-1425zM188 1571l-211 307h283l180 -307h-252z" />
    <glyph glyph-name="Iacute" unicode="&#xcd;" horiz-adv-x="602" 
d="M440 0h-278v1425h278v-1425zM414 1571h-252l180 307h283z" />
    <glyph glyph-name="Icircumflex" unicode="&#xce;" horiz-adv-x="602" 
d="M440 0h-278v1425h278v-1425zM-102 1571l254 307h299l254 -307h-259l-145 153l-145 -153h-258z" />
    <glyph glyph-name="Idieresis" unicode="&#xcf;" horiz-adv-x="602" 
d="M440 0h-278v1425h278v-1425zM532 1577q-61 0 -104 43q-43 40 -43 102t43 105q44 41 104 41q61 0 105 -41q43 -43 43 -105t-43 -102q-43 -43 -105 -43zM70 1577q-62 0 -105 43q-43 40 -43 102t43 105q44 41 105 41q60 0 104 -41q43 -43 43 -105t-43 -102q-43 -43 -104 -43
z" />
    <glyph glyph-name="Eth" unicode="&#xd0;" horiz-adv-x="1564" 
d="M223 0v641h-178v211h178v573h539q212 0 375 -88q162 -90 252 -247q90 -162 90 -377t-90 -377q-91 -159 -252 -248q-163 -88 -375 -88h-539zM502 244h243q133 0 234 55q102 55 160 160q57 102 57 254t-57 254q-58 103 -160 159q-103 56 -234 56h-243v-330h303v-211h-303
v-397z" />
    <glyph glyph-name="Ntilde" unicode="&#xd1;" horiz-adv-x="1570" 
d="M162 0v1425h270l707 -999v999h270v-1425h-270l-707 999v-999h-270zM946 1561q-40 0 -86 12q-42 8 -98 45q-44 28 -60 35q-21 8 -45 8q-63 0 -63 -66v-30h-195v75q0 104 64 162q66 60 160 60q29 0 86 -11q44 -11 98 -47q34 -22 61 -32q26 -11 43 -11q64 0 64 66v31h194
v-76q0 -104 -61 -162q-65 -59 -162 -59z" />
    <glyph glyph-name="Ograve" unicode="&#xd2;" horiz-adv-x="1615" 
d="M807 -33q-156 0 -289 56q-140 59 -229 155q-101 109 -150 238q-53 136 -53 297q0 160 53 299q49 126 150 235q91 98 229 156q131 55 289 55q160 0 291 -55t229 -156q101 -109 150 -235q53 -139 53 -299q0 -161 -53 -297q-49 -129 -150 -238q-96 -99 -229 -155t-291 -56z
M807 217q128 0 229 64q98 61 156 174q55 110 55 258q0 147 -55 260q-58 110 -156 174q-101 61 -229 61q-127 0 -225 -61q-101 -64 -156 -174q-57 -111 -57 -260q0 -150 57 -258q55 -113 156 -174q98 -64 225 -64zM694 1571l-211 307h283l180 -307h-252z" />
    <glyph glyph-name="Oacute" unicode="&#xd3;" horiz-adv-x="1615" 
d="M807 -33q-156 0 -289 56q-140 59 -229 155q-101 109 -150 238q-53 136 -53 297q0 160 53 299q49 126 150 235q91 98 229 156q131 55 289 55q160 0 291 -55t229 -156q101 -109 150 -235q53 -139 53 -299q0 -161 -53 -297q-49 -129 -150 -238q-96 -99 -229 -155t-291 -56z
M807 217q128 0 229 64q98 61 156 174q55 110 55 258q0 147 -55 260q-58 110 -156 174q-101 61 -229 61q-127 0 -225 -61q-101 -64 -156 -174q-57 -111 -57 -260q0 -150 57 -258q55 -113 156 -174q98 -64 225 -64zM920 1571h-252l180 307h282z" />
    <glyph glyph-name="Ocircumflex" unicode="&#xd4;" horiz-adv-x="1615" 
d="M807 -33q-156 0 -289 56q-140 59 -229 155q-101 109 -150 238q-53 136 -53 297q0 160 53 299q49 126 150 235q91 98 229 156q131 55 289 55q160 0 291 -55t229 -156q101 -109 150 -235q53 -139 53 -299q0 -161 -53 -297q-49 -129 -150 -238q-96 -99 -229 -155t-291 -56z
M807 217q128 0 229 64q98 61 156 174q55 110 55 258q0 147 -55 260q-58 110 -156 174q-101 61 -229 61q-127 0 -225 -61q-101 -64 -156 -174q-57 -111 -57 -260q0 -150 57 -258q55 -113 156 -174q98 -64 225 -64zM403 1571l254 307h299l254 -307h-258l-145 153l-145 -153
h-259z" />
    <glyph glyph-name="Otilde" unicode="&#xd5;" horiz-adv-x="1615" 
d="M807 -33q-156 0 -289 56q-140 59 -229 155q-101 109 -150 238q-53 136 -53 297q0 160 53 299q49 126 150 235q91 98 229 156q131 55 289 55q160 0 291 -55t229 -156q101 -109 150 -235q53 -139 53 -299q0 -161 -53 -297q-49 -129 -150 -238q-96 -99 -229 -155t-291 -56z
M807 217q128 0 229 64q98 61 156 174q55 110 55 258q0 147 -55 260q-58 110 -156 174q-101 61 -229 61q-127 0 -225 -61q-101 -64 -156 -174q-57 -111 -57 -260q0 -150 57 -258q55 -113 156 -174q98 -64 225 -64zM969 1561q-39 0 -86 12q-43 8 -99 45q-46 29 -59 35
q-21 8 -45 8q-64 0 -64 -66v-30h-194v75q0 105 63 162q66 60 160 60q29 0 86 -11q44 -11 98 -47q33 -21 62 -32q26 -11 43 -11q63 0 63 66v31h195v-76q0 -103 -62 -162q-65 -59 -161 -59z" />
    <glyph glyph-name="Odieresis" unicode="&#xd6;" horiz-adv-x="1615" 
d="M807 -33q-156 0 -289 56q-140 59 -229 155q-101 109 -150 238q-53 136 -53 297q0 160 53 299q49 126 150 235q91 98 229 156q131 55 289 55q160 0 291 -55t229 -156q101 -109 150 -235q53 -139 53 -299q0 -161 -53 -297q-49 -129 -150 -238q-96 -99 -229 -155t-291 -56z
M807 217q128 0 229 64q98 61 156 174q55 110 55 258q0 147 -55 260q-58 110 -156 174q-101 61 -229 61q-127 0 -225 -61q-101 -64 -156 -174q-57 -111 -57 -260q0 -150 57 -258q55 -113 156 -174q98 -64 225 -64zM1038 1577q-61 0 -104 43q-43 40 -43 102t43 105
q44 41 104 41q61 0 105 -41q43 -43 43 -105t-43 -102q-43 -43 -105 -43zM575 1577q-61 0 -104 43q-43 40 -43 102t43 105q44 41 104 41q61 0 105 -41q43 -43 43 -105t-43 -102q-43 -43 -105 -43z" />
    <glyph glyph-name="multiply" unicode="&#xd7;" 
d="M309 213l-153 149l319 320l-319 319l153 150l318 -317l317 317l154 -150l-320 -319l320 -320l-154 -149l-317 317z" />
    <glyph glyph-name="Oslash" unicode="&#xd8;" horiz-adv-x="1615" 
d="M152 -100l165 252q-110 103 -170 245q-61 143 -61 316q0 160 53 299q49 126 150 235q91 98 229 156q131 55 287 55q175 0 328 -72l92 140h239l-166 -252q110 -104 170 -244q62 -145 62 -317q0 -161 -53 -297q-49 -129 -150 -238q-96 -99 -229 -155t-293 -56
q-172 0 -322 72l-92 -139h-239zM358 713q0 -97 29 -189q28 -90 78 -151l530 805q-85 39 -188 39q-131 0 -232 -64q-100 -63 -159 -178q-58 -113 -58 -262zM807 209q130 0 233 65q101 64 160 179q57 111 57 260q0 106 -26 188q-28 88 -80 152l-530 -805q82 -39 186 -39z" />
    <glyph glyph-name="Ugrave" unicode="&#xd9;" horiz-adv-x="1523" 
d="M762 -33q-201 0 -340 80q-138 79 -209 225q-72 147 -72 342v811h279v-778q0 -200 82 -313q80 -117 260 -117t262 117q80 115 80 313v778h278v-811q0 -201 -69 -342q-71 -146 -209 -225q-139 -80 -342 -80zM649 1571l-211 307h283l180 -307h-252z" />
    <glyph glyph-name="Uacute" unicode="&#xda;" horiz-adv-x="1523" 
d="M762 -33q-201 0 -340 80q-138 79 -209 225q-72 147 -72 342v811h279v-778q0 -200 82 -313q80 -117 260 -117t262 117q80 115 80 313v778h278v-811q0 -201 -69 -342q-71 -146 -209 -225q-139 -80 -342 -80zM874 1571h-251l180 307h282z" />
    <glyph glyph-name="Ucircumflex" unicode="&#xdb;" horiz-adv-x="1523" 
d="M762 -33q-201 0 -340 80q-138 79 -209 225q-72 147 -72 342v811h279v-778q0 -200 82 -313q80 -117 260 -117t262 117q80 115 80 313v778h278v-811q0 -201 -69 -342q-71 -146 -209 -225q-139 -80 -342 -80zM358 1571l254 307h299l254 -307h-258l-145 153l-146 -153h-258z
" />
    <glyph glyph-name="Udieresis" unicode="&#xdc;" horiz-adv-x="1523" 
d="M762 -33q-201 0 -340 80q-138 79 -209 225q-72 147 -72 342v811h279v-778q0 -200 82 -313q80 -117 260 -117t262 117q80 115 80 313v778h278v-811q0 -201 -69 -342q-71 -146 -209 -225q-139 -80 -342 -80zM993 1577q-61 0 -104 43q-43 40 -43 102t43 105q44 41 104 41
q61 0 105 -41q43 -43 43 -105t-43 -102q-43 -43 -105 -43zM530 1577q-61 0 -104 43q-43 40 -43 102t43 105q44 41 104 41q61 0 105 -41q43 -43 43 -105t-43 -102q-43 -43 -105 -43z" />
    <glyph glyph-name="Yacute" unicode="&#xdd;" horiz-adv-x="1372" 
d="M547 0v535l-522 890h317l350 -630l350 630h306l-523 -890v-535h-278zM799 1571h-252l180 307h283z" />
    <glyph glyph-name="Thorn" unicode="&#xde;" horiz-adv-x="1357" 
d="M162 0v1425h278v-229h285q270 0 416 -131q147 -132 147 -346q0 -216 -147 -348q-146 -131 -416 -131h-285v-240h-278zM688 954h-248v-473h248q165 0 242 62q76 61 76 176q0 113 -76 174t-242 61z" />
    <glyph glyph-name="germandbls" unicode="&#xdf;" horiz-adv-x="1290" 
d="M135 0v963q0 246 139 385q137 137 375 137q149 0 254 -51q101 -49 164 -144q57 -86 57 -205q0 -105 -53 -182q-55 -76 -151 -117q132 -37 204 -135q74 -100 74 -237q0 -126 -57 -215q-57 -93 -164 -146q-109 -53 -250 -53h-172v225h147q106 0 170 58q62 59 62 159
q0 102 -68 158q-71 53 -184 53h-100v224h59q98 0 162 49q63 48 63 143q0 87 -57 135q-58 49 -156 49q-115 0 -186 -71q-72 -72 -72 -230v-952h-260z" />
    <glyph glyph-name="agrave" unicode="&#xe0;" horiz-adv-x="1114" 
d="M430 -31q-164 0 -264 92q-100 87 -100 242q0 166 118 256q121 92 332 92h215v39q0 97 -53 144q-52 43 -143 43q-76 0 -127 -31q-50 -30 -62 -72h-250q27 137 144 225q120 91 303 91q204 0 325 -103q119 -104 119 -323v-664h-239v131q-52 -83 -138 -123q-85 -39 -180 -39z
M496 178q52 0 110 25q53 24 90 73q35 47 35 121v68h-203q-101 0 -153 -37q-56 -41 -56 -109q0 -69 50 -104q49 -37 127 -37zM446 1204l-184 322h273l155 -322h-244z" />
    <glyph glyph-name="aacute" unicode="&#xe1;" horiz-adv-x="1114" 
d="M430 -31q-164 0 -264 92q-100 87 -100 242q0 166 118 256q121 92 332 92h215v39q0 97 -53 144q-52 43 -143 43q-76 0 -127 -31q-50 -30 -62 -72h-250q27 137 144 225q120 91 303 91q204 0 325 -103q119 -104 119 -323v-664h-239v131q-52 -83 -138 -123q-85 -39 -180 -39z
M496 178q52 0 110 25q53 24 90 73q35 47 35 121v68h-203q-101 0 -153 -37q-56 -41 -56 -109q0 -69 50 -104q49 -37 127 -37zM664 1204h-244l155 322h273z" />
    <glyph glyph-name="acircumflex" unicode="&#xe2;" horiz-adv-x="1114" 
d="M430 -31q-164 0 -264 92q-100 87 -100 242q0 166 118 256q121 92 332 92h215v39q0 97 -53 144q-52 43 -143 43q-76 0 -127 -31q-50 -30 -62 -72h-250q27 137 144 225q120 91 303 91q204 0 325 -103q119 -104 119 -323v-664h-239v131q-52 -83 -138 -123q-85 -39 -180 -39z
M496 178q52 0 110 25q53 24 90 73q35 47 35 121v68h-203q-101 0 -153 -37q-56 -41 -56 -109q0 -69 50 -104q49 -37 127 -37zM162 1204l252 322h282l252 -322h-250l-143 166l-143 -166h-250z" />
    <glyph glyph-name="atilde" unicode="&#xe3;" horiz-adv-x="1114" 
d="M430 -31q-164 0 -264 92q-100 87 -100 242q0 166 118 256q121 92 332 92h215v39q0 97 -53 144q-52 43 -143 43q-76 0 -127 -31q-50 -30 -62 -72h-250q27 137 144 225q120 91 303 91q204 0 325 -103q119 -104 119 -323v-664h-239v131q-52 -83 -138 -123q-85 -39 -180 -39z
M496 178q52 0 110 25q53 24 90 73q35 47 35 121v68h-203q-101 0 -153 -37q-56 -41 -56 -109q0 -69 50 -104q49 -37 127 -37zM711 1202q-43 0 -86 15q-44 12 -103 53q-41 25 -51 30q-25 7 -39 7q-59 0 -59 -66v-37h-189v80q0 100 60 160q59 59 153 59q45 0 86 -14
q53 -18 103 -53q41 -25 53 -29q16 -8 37 -8q59 0 59 65v37h189v-78q0 -101 -60 -161t-153 -60z" />
    <glyph glyph-name="adieresis" unicode="&#xe4;" horiz-adv-x="1114" 
d="M430 -31q-164 0 -264 92q-100 87 -100 242q0 166 118 256q121 92 332 92h215v39q0 97 -53 144q-52 43 -143 43q-76 0 -127 -31q-50 -30 -62 -72h-250q27 137 144 225q120 91 303 91q204 0 325 -103q119 -104 119 -323v-664h-239v131q-52 -83 -138 -123q-85 -39 -180 -39z
M496 178q52 0 110 25q53 24 90 73q35 47 35 121v68h-203q-101 0 -153 -37q-56 -41 -56 -109q0 -69 50 -104q49 -37 127 -37zM778 1208q-61 0 -104 43q-43 40 -43 103q0 61 43 104q44 41 104 41q61 0 105 -41q43 -43 43 -104q0 -63 -43 -103q-43 -43 -105 -43zM332 1208
q-62 0 -105 43q-43 40 -43 103q0 61 43 104q44 41 105 41q60 0 104 -41q43 -43 43 -104q0 -63 -43 -103q-43 -43 -104 -43z" />
    <glyph glyph-name="aring" unicode="&#xe5;" horiz-adv-x="1114" 
d="M430 -31q-164 0 -264 92q-100 87 -100 242q0 166 118 256q121 92 332 92h215v39q0 97 -53 144q-52 43 -143 43q-76 0 -127 -31q-50 -30 -62 -72h-250q27 137 144 225q120 91 303 91q204 0 325 -103q119 -104 119 -323v-664h-239v131q-52 -83 -138 -123q-85 -39 -180 -39z
M496 178q52 0 110 25q53 24 90 73q35 47 35 121v68h-203q-101 0 -153 -37q-56 -41 -56 -109q0 -69 50 -104q49 -37 127 -37zM555 1159q-72 0 -131 35t-94 94t-35 129q0 72 35 131q33 56 94 92q59 35 131 35q74 0 133 -35q58 -34 92 -92q35 -59 35 -131q0 -70 -35 -129
q-36 -61 -92 -94q-59 -35 -133 -35zM555 1307q48 0 80 32q31 31 31 78q0 44 -31 80q-36 31 -80 31q-47 0 -78 -31q-33 -33 -33 -80q0 -49 33 -78q28 -32 78 -32z" />
    <glyph glyph-name="ae" unicode="&#xe6;" horiz-adv-x="1816" 
d="M453 -31q-175 0 -281 92q-106 87 -106 242q0 166 116 254t330 88h219v45q0 100 -53 144q-52 43 -143 43q-76 0 -127 -31q-50 -30 -62 -72h-250q27 136 142 225q117 91 297 91q260 0 362 -181q62 92 160 138q93 43 207 43q149 0 258 -68q104 -65 161 -191q56 -124 56 -288
v-82h-742q27 -279 267 -279q72 0 127 25q50 24 67 63h262q-41 -141 -159 -219q-122 -82 -297 -82q-144 0 -250 56q-103 55 -168 157q-58 -103 -162 -157q-106 -56 -231 -56zM1253 877q-102 0 -168 -60q-63 -57 -84 -172h484q-6 104 -64 168t-168 64zM496 178q54 0 112 25
q54 25 88 73q35 47 35 121v64h-203q-103 0 -153 -33q-56 -35 -56 -104q0 -66 50 -107q48 -39 127 -39z" />
    <glyph glyph-name="ccedilla" unicode="&#xe7;" horiz-adv-x="1120" 
d="M596 -31q-155 0 -274 72q-116 68 -183 199q-65 127 -65 290q0 162 65 289q67 131 183 199q119 72 274 72q131 0 229 -52q100 -56 156 -137q59 -87 74 -192h-267q-12 64 -59 108q-50 41 -137 41q-112 0 -182 -88t-70 -240q0 -151 70 -239q72 -90 182 -90q88 0 139 39
q50 41 62 104h262q-15 -107 -74 -190t-156 -134q-96 -51 -229 -51zM406 -518v156h112q103 0 103 67q0 64 -93 64h-94l94 301h158l-59 -168q84 -3 141 -60q55 -58 55 -143q0 -101 -65 -160q-66 -57 -187 -57h-165z" />
    <glyph glyph-name="egrave" unicode="&#xe8;" horiz-adv-x="1155" 
d="M600 -31q-165 0 -281 70q-116 65 -182 194q-63 123 -63 302q0 161 63 284q61 126 178 199q119 72 279 72q232 0 358 -150q125 -149 125 -399v-95h-741q34 -264 266 -264q72 0 127 25q51 25 68 63h262q-41 -140 -160 -219q-122 -82 -299 -82zM592 877q-107 0 -172 -62
q-67 -67 -84 -180h487q-3 109 -61 176q-60 66 -170 66zM469 1204l-184 322h272l156 -322h-244z" />
    <glyph glyph-name="eacute" unicode="&#xe9;" horiz-adv-x="1155" 
d="M600 -31q-165 0 -281 70q-116 65 -182 194q-63 123 -63 302q0 161 63 284q61 126 178 199q119 72 279 72q232 0 358 -150q125 -149 125 -399v-95h-741q34 -264 266 -264q72 0 127 25q51 25 68 63h262q-41 -140 -160 -219q-122 -82 -299 -82zM592 877q-107 0 -172 -62
q-67 -67 -84 -180h487q-3 109 -61 176q-60 66 -170 66zM686 1204h-244l156 322h272z" />
    <glyph glyph-name="ecircumflex" unicode="&#xea;" horiz-adv-x="1155" 
d="M600 -31q-165 0 -281 70q-116 65 -182 194q-63 123 -63 302q0 161 63 284q61 126 178 199q119 72 279 72q232 0 358 -150q125 -149 125 -399v-95h-741q34 -264 266 -264q72 0 127 25q51 25 68 63h262q-41 -140 -160 -219q-122 -82 -299 -82zM592 877q-107 0 -172 -62
q-67 -67 -84 -180h487q-3 109 -61 176q-60 66 -170 66zM184 1204l252 322h283l252 -322h-250l-143 166l-144 -166h-250z" />
    <glyph glyph-name="edieresis" unicode="&#xeb;" horiz-adv-x="1155" 
d="M600 -31q-165 0 -281 70q-116 65 -182 194q-63 123 -63 302q0 161 63 284q61 126 178 199q119 72 279 72q232 0 358 -150q125 -149 125 -399v-95h-741q34 -264 266 -264q72 0 127 25q51 25 68 63h262q-41 -140 -160 -219q-122 -82 -299 -82zM592 877q-107 0 -172 -62
q-67 -67 -84 -180h487q-3 109 -61 176q-60 66 -170 66zM801 1208q-62 0 -105 43q-43 40 -43 103q0 61 43 104q44 41 105 41q60 0 104 -41q43 -43 43 -104q0 -63 -43 -103q-43 -43 -104 -43zM354 1208q-61 0 -104 43q-43 40 -43 103q0 61 43 104q44 41 104 41q61 0 105 -41
q43 -43 43 -104q0 -63 -43 -103q-43 -43 -105 -43z" />
    <glyph glyph-name="igrave" unicode="&#xec;" horiz-adv-x="530" 
d="M135 0v1059h260v-1059h-260zM158 1204l-185 322h273l155 -322h-243z" />
    <glyph glyph-name="iacute" unicode="&#xed;" horiz-adv-x="530" 
d="M135 0v1059h260v-1059h-260zM375 1204h-244l156 322h272z" />
    <glyph glyph-name="icircumflex" unicode="&#xee;" horiz-adv-x="530" 
d="M135 0v1059h260v-1059h-260zM-86 1204l211 322h283l210 -322h-245l-107 150l-106 -150h-246z" />
    <glyph glyph-name="idieresis" unicode="&#xef;" horiz-adv-x="530" 
d="M135 0v1059h260v-1059h-260zM84 1206q-62 0 -102 43q-41 41 -41 103q0 60 41 104q41 41 102 41t102 -41q41 -44 41 -104q0 -62 -41 -103q-40 -43 -102 -43zM449 1206q-63 0 -103 43q-41 41 -41 103q0 60 41 104q41 41 103 41q61 0 102 -41q41 -44 41 -104q0 -62 -41 -103
q-40 -43 -102 -43z" />
    <glyph glyph-name="eth" unicode="&#xf0;" horiz-adv-x="1216" 
d="M604 -31q-155 0 -274 70q-122 69 -189 188t-67 275q0 161 67 280q65 119 176 183q109 65 242 65q96 0 170 -39q80 -42 137 -114q-23 92 -59 159q-45 85 -100 148l-304 -92v172l175 53q-110 92 -232 168h332q78 -51 131 -99l289 89v-172l-162 -50q111 -140 156 -315
q41 -172 41 -367q0 -192 -68 -325q-68 -136 -186 -205q-118 -72 -275 -72zM604 201q116 0 191 84q73 82 73 217q0 138 -75 219q-76 82 -189 82q-119 0 -192 -82q-74 -83 -74 -219q0 -134 74 -217q75 -84 192 -84z" />
    <glyph glyph-name="ntilde" unicode="&#xf1;" horiz-adv-x="1204" 
d="M395 623v-623h-260v1059h250v-125q114 156 320 156q171 0 272 -119q100 -118 100 -314v-657h-260v618q0 111 -49 175q-51 63 -154 63q-91 0 -155 -61q-64 -64 -64 -172zM762 1202q-42 0 -86 15q-44 12 -103 53q-41 25 -51 30q-25 7 -39 7q-59 0 -59 -66v-37h-188v80
q0 101 59 160t154 59q45 0 86 -14q51 -17 102 -53q41 -25 53 -29q16 -8 37 -8q59 0 59 65v37h189v-78q0 -101 -60 -161t-153 -60z" />
    <glyph glyph-name="ograve" unicode="&#xf2;" horiz-adv-x="1208" 
d="M604 -31q-151 0 -274 72q-120 71 -189 199q-67 125 -67 290q0 168 67 293t189 197q119 70 274 70q158 0 277 -70q117 -69 186 -197q68 -127 68 -293q0 -163 -68 -290q-70 -131 -186 -199q-123 -72 -277 -72zM604 201q118 0 193 90q73 88 73 239q0 152 -73 240t-193 88
q-119 0 -192 -88q-74 -89 -74 -240q0 -150 74 -239q75 -90 192 -90zM496 1204l-185 322h273l155 -322h-243z" />
    <glyph glyph-name="oacute" unicode="&#xf3;" horiz-adv-x="1208" 
d="M604 -31q-151 0 -274 72q-120 71 -189 199q-67 125 -67 290q0 168 67 293t189 197q119 70 274 70q158 0 277 -70q117 -69 186 -197q68 -127 68 -293q0 -163 -68 -290q-70 -131 -186 -199q-123 -72 -277 -72zM604 201q118 0 193 90q73 88 73 239q0 152 -73 240t-193 88
q-119 0 -192 -88q-74 -89 -74 -240q0 -150 74 -239q75 -90 192 -90zM713 1204h-244l156 322h272z" />
    <glyph glyph-name="ocircumflex" unicode="&#xf4;" horiz-adv-x="1208" 
d="M604 -31q-151 0 -274 72q-120 71 -189 199q-67 125 -67 290q0 168 67 293t189 197q119 70 274 70q158 0 277 -70q117 -69 186 -197q68 -127 68 -293q0 -163 -68 -290q-70 -131 -186 -199q-123 -72 -277 -72zM604 201q118 0 193 90q73 88 73 239q0 152 -73 240t-193 88
q-119 0 -192 -88q-74 -89 -74 -240q0 -150 74 -239q75 -90 192 -90zM211 1204l252 322h282l252 -322h-249l-144 166l-143 -166h-250z" />
    <glyph glyph-name="otilde" unicode="&#xf5;" horiz-adv-x="1208" 
d="M604 -31q-151 0 -274 72q-120 71 -189 199q-67 125 -67 290q0 168 67 293t189 197q119 70 274 70q158 0 277 -70q117 -69 186 -197q68 -127 68 -293q0 -163 -68 -290q-70 -131 -186 -199q-123 -72 -277 -72zM604 201q118 0 193 90q73 88 73 239q0 152 -73 240t-193 88
q-119 0 -192 -88q-74 -89 -74 -240q0 -150 74 -239q75 -90 192 -90zM760 1202q-42 0 -86 15q-44 12 -103 53q-41 25 -51 30q-25 7 -39 7q-59 0 -59 -66v-37h-189v80q0 100 60 160q59 59 153 59q45 0 86 -14q53 -18 103 -53q41 -25 53 -29q16 -8 37 -8q59 0 59 65v37h189v-78
q0 -101 -60 -161t-153 -60z" />
    <glyph glyph-name="odieresis" unicode="&#xf6;" horiz-adv-x="1208" 
d="M604 -31q-151 0 -274 72q-120 71 -189 199q-67 125 -67 290q0 168 67 293t189 197q119 70 274 70q158 0 277 -70q117 -69 186 -197q68 -127 68 -293q0 -163 -68 -290q-70 -131 -186 -199q-123 -72 -277 -72zM604 201q118 0 193 90q73 88 73 239q0 152 -73 240t-193 88
q-119 0 -192 -88q-74 -89 -74 -240q0 -150 74 -239q75 -90 192 -90zM827 1208q-61 0 -104 43q-43 40 -43 103q0 61 43 104q44 41 104 41q61 0 105 -41q43 -43 43 -104q0 -63 -43 -103q-43 -43 -105 -43zM381 1208q-62 0 -105 43q-43 40 -43 103q0 61 43 104q44 41 105 41
q60 0 104 -41q43 -43 43 -104q0 -63 -43 -103q-43 -43 -104 -43z" />
    <glyph glyph-name="divide" unicode="&#xf7;" 
d="M627 946q-60 0 -103 43q-43 40 -43 101q0 59 43 102q44 41 103 41q58 0 102 -41q43 -43 43 -102q0 -61 -43 -101q-43 -43 -102 -43zM145 573v220h963v-220h-963zM627 133q-60 0 -103 43q-43 40 -43 100t43 103q44 41 103 41q58 0 102 -41q43 -43 43 -103t-43 -100
q-43 -43 -102 -43z" />
    <glyph glyph-name="oslash" unicode="&#xf8;" horiz-adv-x="1208" 
d="M100 -104l138 215q-79 79 -121 184q-43 107 -43 235q0 166 67 291t189 197q123 72 274 72q120 0 221 -46l76 119h207l-137 -215q80 -80 121 -182q43 -107 43 -236q0 -163 -68 -290q-70 -131 -186 -199q-123 -72 -277 -72q-122 0 -221 45l-76 -118h-207zM330 530
q0 -120 45 -200l330 522q-46 18 -101 18q-119 0 -196 -92q-78 -93 -78 -248zM604 188q121 0 199 93q76 91 76 249q0 119 -45 199l-330 -522q49 -19 100 -19z" />
    <glyph glyph-name="ugrave" unicode="&#xf9;" horiz-adv-x="1193" 
d="M799 434v625h260v-1059h-250v123q-53 -74 -127 -113q-72 -41 -170 -41q-182 0 -285 121q-100 118 -100 313v656h260v-625q0 -101 53 -166t150 -65q94 0 151 63q58 61 58 168zM485 1204l-184 322h272l156 -322h-244z" />
    <glyph glyph-name="uacute" unicode="&#xfa;" horiz-adv-x="1193" 
d="M799 434v625h260v-1059h-250v123q-53 -74 -127 -113q-72 -41 -170 -41q-182 0 -285 121q-100 118 -100 313v656h260v-625q0 -101 53 -166t150 -65q94 0 151 63q58 61 58 168zM702 1204h-243l155 322h273z" />
    <glyph glyph-name="ucircumflex" unicode="&#xfb;" horiz-adv-x="1193" 
d="M799 434v625h260v-1059h-250v123q-53 -74 -127 -113q-72 -41 -170 -41q-182 0 -285 121q-100 118 -100 313v656h260v-625q0 -101 53 -166t150 -65q94 0 151 63q58 61 58 168zM201 1204l252 322h282l252 -322h-250l-143 166l-143 -166h-250z" />
    <glyph glyph-name="udieresis" unicode="&#xfc;" horiz-adv-x="1193" 
d="M799 434v625h260v-1059h-250v123q-53 -74 -127 -113q-72 -41 -170 -41q-182 0 -285 121q-100 118 -100 313v656h260v-625q0 -101 53 -166t150 -65q94 0 151 63q58 61 58 168zM817 1208q-61 0 -104 43q-43 40 -43 103q0 61 43 104q44 41 104 41q61 0 105 -41
q43 -43 43 -104q0 -63 -43 -103q-43 -43 -105 -43zM371 1208q-62 0 -105 43q-43 40 -43 103q0 61 43 104q44 41 105 41q60 0 104 -41q43 -43 43 -104q0 -63 -43 -103q-43 -43 -104 -43z" />
    <glyph glyph-name="yacute" unicode="&#xfd;" horiz-adv-x="1134" 
d="M260 -420l174 420l-416 1059h297l263 -756l258 756h280l-577 -1479h-279zM682 1204h-244l156 322h272z" />
    <glyph glyph-name="thorn" unicode="&#xfe;" 
d="M135 -420v1905h258v-555q54 75 135 119q80 41 183 41q133 0 243 -72q102 -69 166 -199q60 -129 60 -291q0 -161 -60 -290q-62 -127 -166 -197q-106 -72 -243 -72q-104 0 -183 43q-80 40 -135 117v-549h-258zM649 201q117 0 193 88q73 88 73 239q0 154 -73 242
q-76 88 -193 88t-192 -90q-76 -88 -76 -240q0 -149 76 -237q75 -90 192 -90z" />
    <glyph glyph-name="ydieresis" unicode="&#xff;" horiz-adv-x="1134" 
d="M260 -420l174 420l-416 1059h297l263 -756l258 756h280l-577 -1479h-279zM797 1208q-62 0 -105 43q-43 40 -43 103q0 61 43 104q44 41 105 41q60 0 104 -41q43 -43 43 -104q0 -63 -43 -103q-43 -43 -104 -43zM350 1208q-61 0 -104 43q-43 40 -43 103q0 61 43 104
q44 41 104 41q61 0 105 -41q43 -43 43 -104q0 -63 -43 -103q-43 -43 -105 -43z" />
    <glyph glyph-name="Amacron" unicode="&#x100;" horiz-adv-x="1447" 
d="M1124 0l-118 324h-576l-117 -324h-284l551 1425h288l551 -1425h-295zM518 565h402l-201 551zM389 1831h672v-205h-672v205z" />
    <glyph glyph-name="amacron" unicode="&#x101;" horiz-adv-x="1114" 
d="M430 -31q-164 0 -264 92q-100 87 -100 242q0 166 118 256q121 92 332 92h215v39q0 97 -53 144q-52 43 -143 43q-76 0 -127 -31q-50 -30 -62 -72h-250q27 137 144 225q120 91 303 91q204 0 325 -103q119 -104 119 -323v-664h-239v131q-52 -83 -138 -123q-85 -39 -180 -39z
M496 178q52 0 110 25q53 24 90 73q35 47 35 121v68h-203q-101 0 -153 -37q-56 -41 -56 -109q0 -69 50 -104q49 -37 127 -37zM231 1473h648v-201h-648v201z" />
    <glyph glyph-name="Abreve" unicode="&#x102;" horiz-adv-x="1447" 
d="M1124 0l-118 324h-576l-117 -324h-284l551 1425h288l551 -1425h-295zM518 565h402l-201 551zM725 1559q-157 0 -258 88q-104 87 -113 229h219q9 -57 50 -92q40 -37 102 -37q64 0 104 37q39 33 48 92h219q-9 -142 -113 -229q-101 -88 -258 -88z" />
    <glyph glyph-name="abreve" unicode="&#x103;" horiz-adv-x="1114" 
d="M430 -31q-164 0 -264 92q-100 87 -100 242q0 166 118 256q121 92 332 92h215v39q0 97 -53 144q-52 43 -143 43q-76 0 -127 -31q-50 -30 -62 -72h-250q27 137 144 225q120 91 303 91q204 0 325 -103q119 -104 119 -323v-664h-239v131q-52 -83 -138 -123q-85 -39 -180 -39z
M496 178q52 0 110 25q53 24 90 73q35 47 35 121v68h-203q-101 0 -153 -37q-56 -41 -56 -109q0 -69 50 -104q49 -37 127 -37zM555 1192q-151 0 -252 90q-99 86 -108 242h213q9 -69 47 -107q39 -39 100 -39t100 39q38 38 47 107h213q-9 -155 -106 -242q-104 -90 -254 -90z" />
    <glyph glyph-name="Aogonek" unicode="&#x104;" horiz-adv-x="1447" 
d="M1124 0l-118 324h-576l-117 -324h-284l551 1425h288l551 -1425h-295zM518 565h402l-201 551zM1290 -514q-139 0 -217 63q-80 65 -80 170q0 208 283 334l102 -53q-94 -64 -131 -119q-37 -52 -37 -108q0 -57 37 -84q40 -29 96 -29h68v-174h-121z" />
    <glyph glyph-name="aogonek" unicode="&#x105;" horiz-adv-x="1114" 
d="M430 -31q-164 0 -264 92q-100 87 -100 242q0 166 118 256q121 92 332 92h215v39q0 97 -53 144q-52 43 -143 43q-76 0 -127 -31q-50 -30 -62 -72h-250q27 137 144 225q120 91 303 91q204 0 325 -103q119 -104 119 -323v-664h-239v131q-52 -83 -138 -123q-85 -39 -180 -39z
M496 178q52 0 110 25q53 24 90 73q35 47 35 121v68h-203q-101 0 -153 -37q-56 -41 -56 -109q0 -69 50 -104q49 -37 127 -37zM883 -514q-139 0 -217 63q-80 65 -80 170q0 208 282 334l103 -53q-99 -68 -131 -119q-37 -52 -37 -108q0 -58 39 -84q40 -29 94 -29h68v-174h-121z
" />
    <glyph glyph-name="Cacute" unicode="&#x106;" horiz-adv-x="1474" 
d="M86 713q0 218 88 387q85 169 242 264q152 94 356 94q185 0 311 -63q132 -66 207 -178q80 -119 109 -259h-289q-27 115 -113 183q-88 67 -225 67q-122 0 -211 -59q-89 -62 -141 -172q-51 -111 -51 -264q0 -154 51 -262q52 -113 141 -172q89 -62 211 -62q136 0 227 66
t115 174h285q-26 -134 -107 -252q-78 -108 -209 -174q-128 -64 -311 -64q-208 0 -356 96q-156 94 -242 265q-88 169 -88 385zM885 1571h-252l180 307h283z" />
    <glyph glyph-name="cacute" unicode="&#x107;" horiz-adv-x="1120" 
d="M596 -31q-155 0 -274 72q-116 68 -183 199q-65 127 -65 290q0 162 65 289q67 131 183 199q119 72 274 72q131 0 229 -52q100 -56 156 -137q59 -87 74 -192h-267q-12 64 -59 108q-50 41 -137 41q-112 0 -182 -88t-70 -240q0 -151 70 -239q72 -90 182 -90q88 0 139 39
q50 41 62 104h262q-15 -107 -74 -190t-156 -134q-96 -51 -229 -51zM705 1204h-244l155 322h273z" />
    <glyph glyph-name="Ccircumflex" unicode="&#x108;" horiz-adv-x="1474" 
d="M86 713q0 218 88 387q85 169 242 264q152 94 356 94q185 0 311 -63q132 -66 207 -178q80 -119 109 -259h-289q-27 115 -113 183q-88 67 -225 67q-122 0 -211 -59q-89 -62 -141 -172q-51 -111 -51 -264q0 -154 51 -262q52 -113 141 -172q89 -62 211 -62q136 0 227 66
t115 174h285q-26 -134 -107 -252q-78 -108 -209 -174q-128 -64 -311 -64q-208 0 -356 96q-156 94 -242 265q-88 169 -88 385zM369 1571l254 307h299l254 -307h-258l-146 153l-145 -153h-258z" />
    <glyph glyph-name="ccircumflex" unicode="&#x109;" horiz-adv-x="1120" 
d="M596 -31q-155 0 -274 72q-116 68 -183 199q-65 127 -65 290q0 162 65 289q67 131 183 199q119 72 274 72q131 0 229 -52q100 -56 156 -137q59 -87 74 -192h-267q-12 64 -59 108q-50 41 -137 41q-112 0 -182 -88t-70 -240q0 -151 70 -239q72 -90 182 -90q88 0 139 39
q50 41 62 104h262q-15 -107 -74 -190t-156 -134q-96 -51 -229 -51zM203 1204l252 322h282l252 -322h-250l-143 166l-143 -166h-250z" />
    <glyph glyph-name="Cdotaccent" unicode="&#x10a;" horiz-adv-x="1474" 
d="M86 713q0 218 88 387q85 169 242 264q152 94 356 94q185 0 311 -63q132 -66 207 -178q80 -119 109 -259h-289q-27 115 -113 183q-88 67 -225 67q-122 0 -211 -59q-89 -62 -141 -172q-51 -111 -51 -264q0 -154 51 -262q52 -113 141 -172q89 -62 211 -62q136 0 227 66
t115 174h285q-26 -134 -107 -252q-78 -108 -209 -174q-128 -64 -311 -64q-208 0 -356 96q-156 94 -242 265q-88 169 -88 385zM770 1567q-64 0 -111 47q-45 45 -45 110q0 68 45 113t111 45t111 -45t45 -113q0 -65 -45 -110q-47 -47 -111 -47z" />
    <glyph glyph-name="cdotaccent" unicode="&#x10b;" horiz-adv-x="1120" 
d="M596 -31q-155 0 -274 72q-116 68 -183 199q-65 127 -65 290q0 162 65 289q67 131 183 199q119 72 274 72q131 0 229 -52q100 -56 156 -137q59 -87 74 -192h-267q-12 64 -59 108q-50 41 -137 41q-112 0 -182 -88t-70 -240q0 -151 70 -239q72 -90 182 -90q88 0 139 39
q50 41 62 104h262q-15 -107 -74 -190t-156 -134q-96 -51 -229 -51zM594 1202q-64 0 -111 47q-45 45 -45 111q0 68 45 113t111 45t111 -45t45 -113q0 -66 -45 -111q-47 -47 -111 -47z" />
    <glyph glyph-name="Ccaron" unicode="&#x10c;" horiz-adv-x="1474" 
d="M86 713q0 218 88 387q85 169 242 264q152 94 356 94q185 0 311 -63q132 -66 207 -178q80 -119 109 -259h-289q-27 115 -113 183q-88 67 -225 67q-122 0 -211 -59q-89 -62 -141 -172q-51 -111 -51 -264q0 -154 51 -262q52 -113 141 -172q89 -62 211 -62q136 0 227 66
t115 174h285q-26 -134 -107 -252q-78 -108 -209 -174q-128 -64 -311 -64q-208 0 -356 96q-156 94 -242 265q-88 169 -88 385zM623 1571l-254 307h258l145 -154l146 154h258l-254 -307h-299z" />
    <glyph glyph-name="ccaron" unicode="&#x10d;" horiz-adv-x="1120" 
d="M596 -31q-155 0 -274 72q-116 68 -183 199q-65 127 -65 290q0 162 65 289q67 131 183 199q119 72 274 72q131 0 229 -52q100 -56 156 -137q59 -87 74 -192h-267q-12 64 -59 108q-50 41 -137 41q-112 0 -182 -88t-70 -240q0 -151 70 -239q72 -90 182 -90q88 0 139 39
q50 41 62 104h262q-15 -107 -74 -190t-156 -134q-96 -51 -229 -51zM455 1204l-252 322h250l143 -166l143 166h250l-252 -322h-282z" />
    <glyph glyph-name="Dcaron" unicode="&#x10e;" horiz-adv-x="1503" 
d="M162 0v1425h538q212 0 375 -88q162 -90 252 -247q90 -162 90 -377t-90 -377q-91 -159 -252 -248q-163 -88 -375 -88h-538zM440 244h244q133 0 234 55q100 55 159 160q58 104 58 254t-58 254t-159 159q-103 56 -234 56h-244v-938zM563 1571l-254 307h258l146 -154l145 154
h258l-254 -307h-299z" />
    <glyph glyph-name="dcaron" unicode="&#x10f;" horiz-adv-x="1490" 
d="M543 -31q-135 0 -242 72q-106 69 -166 199q-61 125 -61 290q0 168 61 293q59 127 166 197q104 70 242 70q102 0 182 -41q81 -44 135 -119v555h258v-1485h-250v139q-51 -78 -135 -125q-80 -45 -190 -45zM604 201q117 0 195 90q73 88 73 239q0 152 -73 240q-76 88 -195 88
q-117 0 -190 -88q-76 -88 -76 -240q0 -151 76 -239q75 -90 190 -90zM1260 1008l6 477h237l-49 -477h-194z" />
    <glyph glyph-name="Dcroat" unicode="&#x110;" horiz-adv-x="1564" 
d="M223 0v641h-178v211h178v573h539q212 0 375 -88q162 -90 252 -247q90 -162 90 -377t-90 -377q-91 -159 -252 -248q-163 -88 -375 -88h-539zM502 244h243q133 0 234 55q102 55 160 160q57 102 57 254t-57 254q-58 103 -160 159q-103 56 -234 56h-243v-330h303v-211h-303
v-397z" />
    <glyph glyph-name="dcroat" unicode="&#x111;" horiz-adv-x="1282" 
d="M543 -31q-133 0 -240 70q-106 66 -168 190q-61 119 -61 279q0 161 61 283t168 192t240 70q102 0 182 -41q78 -40 135 -115v266h-285v170h285v152h258v-152h144v-170h-144v-1163h-248v137q-52 -79 -135 -123q-80 -45 -192 -45zM604 201q116 0 193 86q75 84 75 221
q0 141 -75 225q-77 86 -193 86q-113 0 -190 -86q-76 -85 -76 -225q0 -139 76 -221q77 -86 190 -86z" />
    <glyph glyph-name="Emacron" unicode="&#x112;" horiz-adv-x="1316" 
d="M162 0v1425h1028v-243h-750v-334h725v-244h-725v-360h760v-244h-1038zM340 1831h672v-205h-672v205z" />
    <glyph glyph-name="emacron" unicode="&#x113;" horiz-adv-x="1155" 
d="M600 -31q-165 0 -281 70q-116 65 -182 194q-63 123 -63 302q0 161 63 284q61 126 178 199q119 72 279 72q232 0 358 -150q125 -149 125 -399v-95h-741q34 -264 266 -264q72 0 127 25q51 25 68 63h262q-41 -140 -160 -219q-122 -82 -299 -82zM592 877q-107 0 -172 -62
q-67 -67 -84 -180h487q-3 109 -61 176q-60 66 -170 66zM254 1473h647v-201h-647v201z" />
    <glyph glyph-name="Ebreve" unicode="&#x114;" horiz-adv-x="1316" 
d="M162 0v1425h1028v-243h-750v-334h725v-244h-725v-360h760v-244h-1038zM676 1559q-157 0 -258 88q-104 87 -113 229h219q9 -58 49 -92q40 -37 103 -37q64 0 104 37q38 32 47 92h220q-9 -142 -113 -229q-101 -88 -258 -88z" />
    <glyph glyph-name="ebreve" unicode="&#x115;" horiz-adv-x="1155" 
d="M600 -31q-165 0 -281 70q-116 65 -182 194q-63 123 -63 302q0 161 63 284q61 126 178 199q119 72 279 72q232 0 358 -150q125 -149 125 -399v-95h-741q34 -264 266 -264q72 0 127 25q51 25 68 63h262q-41 -140 -160 -219q-122 -82 -299 -82zM592 877q-107 0 -172 -62
q-67 -67 -84 -180h487q-3 109 -61 176q-60 66 -170 66zM578 1192q-151 0 -252 90q-100 87 -109 242h213q9 -69 47 -107q39 -39 101 -39q61 0 100 39q38 38 47 107h213q-9 -154 -107 -242q-104 -90 -253 -90z" />
    <glyph glyph-name="Edotaccent" unicode="&#x116;" horiz-adv-x="1316" 
d="M162 0v1425h1028v-243h-750v-334h725v-244h-725v-360h760v-244h-1038zM674 1567q-64 0 -111 47q-45 45 -45 110q0 68 45 113t111 45q65 0 110 -45t45 -113q0 -65 -45 -110q-47 -47 -110 -47z" />
    <glyph glyph-name="edotaccent" unicode="&#x117;" horiz-adv-x="1155" 
d="M600 -31q-165 0 -281 70q-116 65 -182 194q-63 123 -63 302q0 161 63 284q61 126 178 199q119 72 279 72q232 0 358 -150q125 -149 125 -399v-95h-741q34 -264 266 -264q72 0 127 25q51 25 68 63h262q-41 -140 -160 -219q-122 -82 -299 -82zM592 877q-107 0 -172 -62
q-67 -67 -84 -180h487q-3 109 -61 176q-60 66 -170 66zM575 1202q-63 0 -110 47q-45 45 -45 111q0 68 45 113t110 45q66 0 111 -45t45 -113q0 -66 -45 -111q-47 -47 -111 -47z" />
    <glyph glyph-name="Eogonek" unicode="&#x118;" horiz-adv-x="1316" 
d="M162 0v1425h1028v-243h-750v-334h725v-244h-725v-360h760v-244h-1038zM1081 -514q-139 0 -217 63q-80 65 -80 170q0 208 283 334l102 -53q-94 -64 -131 -119q-37 -52 -37 -108q0 -57 37 -84q40 -29 97 -29h67v-174h-121z" />
    <glyph glyph-name="eogonek" unicode="&#x119;" horiz-adv-x="1155" 
d="M600 -31q-165 0 -281 70q-116 65 -182 194q-63 123 -63 302q0 161 63 284q61 126 178 199q119 72 279 72q232 0 358 -150q125 -149 125 -399v-95h-741q34 -264 266 -264q72 0 127 25q51 25 68 63h262q-41 -140 -160 -219q-122 -82 -299 -82zM592 877q-107 0 -172 -62
q-67 -67 -84 -180h487q-3 109 -61 176q-60 66 -170 66zM758 -514q-141 0 -219 63q-80 65 -80 168q0 65 30 127q27 56 109 125q77 68 211 144l98 -54q-103 -69 -153 -122t-64 -91t-14 -73q0 -57 37 -84q40 -29 96 -29h68v-174h-119z" />
    <glyph glyph-name="Ecaron" unicode="&#x11a;" horiz-adv-x="1316" 
d="M162 0v1425h1028v-243h-750v-334h725v-244h-725v-360h760v-244h-1038zM526 1571l-254 307h258l146 -154l145 154h258l-254 -307h-299z" />
    <glyph glyph-name="ecaron" unicode="&#x11b;" horiz-adv-x="1155" 
d="M600 -31q-165 0 -281 70q-116 65 -182 194q-63 123 -63 302q0 161 63 284q61 126 178 199q119 72 279 72q232 0 358 -150q125 -149 125 -399v-95h-741q34 -264 266 -264q72 0 127 25q51 25 68 63h262q-41 -140 -160 -219q-122 -82 -299 -82zM592 877q-107 0 -172 -62
q-67 -67 -84 -180h487q-3 109 -61 176q-60 66 -170 66zM436 1204l-252 322h250l144 -166l143 166h250l-252 -322h-283z" />
    <glyph glyph-name="Gcircumflex" unicode="&#x11c;" horiz-adv-x="1540" 
d="M797 -33q-211 0 -373 96q-157 94 -248 267q-90 172 -90 383q0 213 90 385q87 167 250 264q162 96 369 96q235 0 403 -115q167 -114 225 -319h-286q-33 80 -123 133q-86 51 -219 51q-129 0 -224 -59q-98 -64 -149 -172q-53 -115 -53 -264q0 -150 53 -262q52 -111 151 -172
q100 -62 232 -62q110 0 192 43q86 45 131 117q48 76 48 164v22h-381v238h655v-199q0 -176 -78 -323q-80 -145 -225 -228q-150 -84 -350 -84zM385 1571l254 307h299l254 -307h-258l-146 153l-145 -153h-258z" />
    <glyph glyph-name="gcircumflex" unicode="&#x11d;" 
d="M541 4q-138 0 -242 70q-108 71 -166 192q-59 124 -59 281q0 156 59 280q58 123 166 193q104 70 242 70q108 0 190 -46t137 -122v137h250v-1018q0 -235 -133 -365q-136 -127 -369 -127q-198 0 -335 93q-133 90 -168 235h270q28 -48 84 -74q61 -28 143 -28q120 0 185 59
t65 186v142q-57 -75 -135 -115q-82 -43 -184 -43zM602 236q119 0 195 88q75 84 75 225t-75 225q-77 86 -195 86q-114 0 -188 -86q-76 -85 -76 -225t76 -225q73 -88 188 -88zM223 1204l252 322h283l252 -322h-250l-144 166l-143 -166h-250z" />
    <glyph glyph-name="Gbreve" unicode="&#x11e;" horiz-adv-x="1540" 
d="M797 -33q-211 0 -373 96q-157 94 -248 267q-90 172 -90 383q0 213 90 385q87 167 250 264q162 96 369 96q235 0 403 -115q167 -114 225 -319h-286q-33 80 -123 133q-86 51 -219 51q-129 0 -224 -59q-98 -64 -149 -172q-53 -115 -53 -264q0 -150 53 -262q52 -111 151 -172
q100 -62 232 -62q110 0 192 43q86 45 131 117q48 76 48 164v22h-381v238h655v-199q0 -176 -78 -323q-80 -145 -225 -228q-150 -84 -350 -84zM788 1559q-157 0 -258 88q-103 86 -112 229h219q9 -58 49 -92q40 -37 102 -37q65 0 105 37q38 32 47 92h219q-9 -143 -112 -229
q-101 -88 -259 -88z" />
    <glyph glyph-name="gbreve" unicode="&#x11f;" 
d="M541 4q-138 0 -242 70q-108 71 -166 192q-59 124 -59 281q0 156 59 280q58 123 166 193q104 70 242 70q108 0 190 -46t137 -122v137h250v-1018q0 -235 -133 -365q-136 -127 -369 -127q-198 0 -335 93q-133 90 -168 235h270q28 -48 84 -74q61 -28 143 -28q120 0 185 59
t65 186v142q-57 -75 -135 -115q-82 -43 -184 -43zM602 236q119 0 195 88q75 84 75 225t-75 225q-77 86 -195 86q-114 0 -188 -86q-76 -85 -76 -225t76 -225q73 -88 188 -88zM616 1192q-150 0 -251 90q-100 87 -109 242h213q9 -69 47 -107q39 -39 100 -39q62 0 101 39
q38 38 47 107h213q-9 -154 -107 -242q-104 -90 -254 -90z" />
    <glyph glyph-name="Gdotaccent" unicode="&#x120;" horiz-adv-x="1540" 
d="M797 -33q-211 0 -373 96q-157 94 -248 267q-90 172 -90 383q0 213 90 385q87 167 250 264q162 96 369 96q235 0 403 -115q167 -114 225 -319h-286q-33 80 -123 133q-86 51 -219 51q-129 0 -224 -59q-98 -64 -149 -172q-53 -115 -53 -264q0 -150 53 -262q52 -111 151 -172
q100 -62 232 -62q110 0 192 43q86 45 131 117q48 76 48 164v22h-381v238h655v-199q0 -176 -78 -323q-80 -145 -225 -228q-150 -84 -350 -84zM786 1567q-63 0 -110 47q-45 45 -45 110q0 68 45 113t110 45q66 0 111 -45t45 -113q0 -65 -45 -110q-47 -47 -111 -47z" />
    <glyph glyph-name="gdotaccent" unicode="&#x121;" 
d="M541 4q-138 0 -242 70q-108 71 -166 192q-59 124 -59 281q0 156 59 280q58 123 166 193q104 70 242 70q108 0 190 -46t137 -122v137h250v-1018q0 -235 -133 -365q-136 -127 -369 -127q-198 0 -335 93q-133 90 -168 235h270q28 -48 84 -74q61 -28 143 -28q120 0 185 59
t65 186v142q-57 -75 -135 -115q-82 -43 -184 -43zM602 236q119 0 195 88q75 84 75 225t-75 225q-77 86 -195 86q-114 0 -188 -86q-76 -85 -76 -225t76 -225q73 -88 188 -88zM614 1202q-63 0 -110 47q-45 45 -45 111q0 68 45 113t110 45q66 0 111 -45t45 -113q0 -66 -45 -111
q-47 -47 -111 -47z" />
    <glyph glyph-name="uni0122" unicode="&#x122;" horiz-adv-x="1540" 
d="M797 -33q-211 0 -373 96q-157 94 -248 267q-90 172 -90 383q0 213 90 385q87 167 250 264q162 96 369 96q235 0 403 -115q167 -114 225 -319h-286q-33 80 -123 133q-86 51 -219 51q-129 0 -224 -59q-98 -64 -149 -172q-53 -115 -53 -264q0 -150 53 -262q52 -111 151 -172
q100 -62 232 -62q110 0 192 43q86 45 131 117q48 76 48 164v22h-381v238h655v-199q0 -176 -78 -323q-80 -145 -225 -228q-150 -84 -350 -84zM649 -545q51 74 66 99q42 81 47 92q-51 9 -86 39q-33 33 -33 84q0 54 43 94q39 39 109 39q75 0 118 -43t43 -111q0 -66 -30 -137
q-29 -66 -95 -156h-182z" />
    <glyph glyph-name="uni0123" unicode="&#x123;" 
d="M541 4q-138 0 -242 70q-108 71 -166 192q-59 124 -59 281q0 156 59 280q58 123 166 193q104 70 242 70q108 0 190 -46t137 -122v137h250v-1018q0 -235 -133 -365q-136 -127 -369 -127q-198 0 -335 93q-133 90 -168 235h270q28 -48 84 -74q61 -28 143 -28q120 0 185 59
t65 186v142q-57 -75 -135 -115q-82 -43 -184 -43zM602 236q119 0 195 88q75 84 75 225t-75 225q-77 86 -195 86q-114 0 -188 -86q-76 -85 -76 -225t76 -225q73 -88 188 -88zM618 1180q-75 0 -118 43t-43 108q0 140 143 320h182q-50 -67 -75 -109q-46 -84 -56 -106
q51 -9 86 -39q33 -33 33 -84q0 -53 -41 -94q-42 -39 -111 -39z" />
    <glyph glyph-name="Hcircumflex" unicode="&#x124;" horiz-adv-x="1574" 
d="M162 0v1425h278v-557h695v557h278v-1425h-278v625h-695v-625h-278zM385 1571l254 307h299l254 -307h-258l-146 153l-145 -153h-258z" />
    <glyph glyph-name="hcircumflex" unicode="&#x125;" horiz-adv-x="1204" 
d="M135 0v1485h260v-543q115 148 310 148q171 0 272 -119q100 -118 100 -314v-657h-260v618q0 111 -49 175q-51 63 -154 63q-91 0 -155 -61q-64 -64 -64 -172v-623h-260zM-137 1571l254 307h299l254 -307h-258l-146 153l-145 -153h-258z" />
    <glyph glyph-name="Hbar" unicode="&#x126;" horiz-adv-x="1701" 
d="M225 0v1026h-164v205h164v194h279v-194h694v194h279v-194h163v-205h-163v-1026h-279v582h-694v-582h-279zM504 825h694v201h-694v-201z" />
    <glyph glyph-name="hbar" unicode="&#x127;" horiz-adv-x="1232" 
d="M164 0v1161h-144v174h144v150h260v-150h283v-174h-283v-258q115 148 309 148q114 0 199 -54q84 -56 129 -153q45 -96 45 -226v-618h-260v580q0 110 -49 174q-51 63 -154 63q-92 0 -156 -61q-63 -63 -63 -172v-584h-260z" />
    <glyph glyph-name="Itilde" unicode="&#x128;" horiz-adv-x="602" 
d="M440 0h-278v1425h278v-1425zM463 1561q-39 0 -86 12q-42 8 -98 45q-44 28 -60 35q-21 8 -45 8q-63 0 -63 -66v-30h-195v75q0 104 64 162q66 60 159 60q29 0 86 -11q45 -12 99 -47q34 -22 61 -32q26 -11 43 -11q64 0 64 66v31h194v-76q0 -104 -61 -162q-65 -59 -162 -59z
" />
    <glyph glyph-name="itilde" unicode="&#x129;" horiz-adv-x="530" 
d="M135 0v1059h260v-1059h-260zM406 1200q-46 0 -78 14q-32 10 -92 54q-10 8 -24.5 17t-16.5 11q-17 7 -31 7q-45 0 -45 -60v-41h-187v80q0 101 50 160q53 59 145 59q45 0 80 -14q43 -19 90 -53q31 -24 43 -29q12 -6 29 -6q45 0 45 59v41h186v-78q0 -103 -49 -161
q-54 -60 -145 -60z" />
    <glyph glyph-name="Imacron" unicode="&#x12a;" horiz-adv-x="602" 
d="M440 0h-278v1425h278v-1425zM-35 1831h672v-205h-672v205z" />
    <glyph glyph-name="imacron" unicode="&#x12b;" horiz-adv-x="530" 
d="M135 0v1059h260v-1059h-260zM-57 1473h647v-201h-647v201z" />
    <glyph glyph-name="Ibreve" unicode="&#x12c;" horiz-adv-x="602" 
d="M440 0h-278v1425h278v-1425zM301 1559q-157 0 -258 88q-104 87 -113 229h220q9 -58 49 -92q40 -37 102 -37q65 0 105 37q38 32 47 92h219q-9 -142 -113 -229q-101 -88 -258 -88z" />
    <glyph glyph-name="ibreve" unicode="&#x12d;" horiz-adv-x="530" 
d="M135 0v1059h260v-1059h-260zM266 1190q-152 0 -239 90t-90 242h213q3 -66 30 -107q26 -39 86 -39t86 39q28 42 31 107h213q-3 -152 -90 -242t-240 -90z" />
    <glyph glyph-name="Iogonek" unicode="&#x12e;" horiz-adv-x="602" 
d="M440 0h-278v1425h278v-1425zM319 -514q-139 0 -217 63q-79 64 -79 170q0 208 282 334l103 -53q-96 -65 -132 -119q-36 -50 -36 -108t36 -84q40 -29 97 -29h67v-174h-121z" />
    <glyph glyph-name="iogonek" unicode="&#x12f;" horiz-adv-x="532" 
d="M266 1182q-65 0 -112 47q-50 47 -50 114q0 68 50 115q47 47 112 47t115 -47q47 -47 47 -115q0 -67 -47 -114q-50 -47 -115 -47zM135 0v1059h260v-1059h-260zM283 -514q-139 0 -217 63q-80 65 -80 170q0 208 282 334l103 -53q-99 -68 -131 -119q-37 -52 -37 -108
q0 -58 39 -84q40 -29 94 -29h67v-174h-120z" />
    <glyph glyph-name="Idotaccent" unicode="&#x130;" horiz-adv-x="602" 
d="M440 0h-278v1425h278v-1425zM299 1567q-64 0 -111 47q-45 45 -45 110q0 68 45 113t111 45t111 -45t45 -113q0 -65 -45 -110q-47 -47 -111 -47z" />
    <glyph glyph-name="dotlessi" unicode="&#x131;" horiz-adv-x="530" 
d="M135 0v1059h260v-1059h-260z" />
    <glyph glyph-name="IJ" unicode="&#x132;" horiz-adv-x="1460" 
d="M731 -33q-158 0 -287 60q-128 58 -208 170t-95 264h283q15 -109 94 -176q80 -68 213 -68q132 0 221 80q88 79 88 268v860h279v-876q0 -188 -78 -320q-75 -130 -211 -196q-135 -66 -299 -66zM141 682v743h279v-743h-279z" />
    <glyph glyph-name="ij" unicode="&#x133;" horiz-adv-x="1064" 
d="M266 1182q-65 0 -112 47q-50 47 -50 114q0 68 50 115q47 47 112 47t115 -47q47 -47 47 -115q0 -67 -47 -114q-50 -47 -115 -47zM135 0v1059h260v-1059h-260zM799 1182q-66 0 -113 47q-49 46 -49 114q0 69 49 115q47 47 113 47q64 0 114 -47q48 -48 48 -115
q0 -66 -48 -114q-50 -47 -114 -47zM477 -420v225h60q63 0 98 41q33 42 33 117v1096h260v-1127q0 -167 -84 -260q-86 -92 -246 -92h-121z" />
    <glyph glyph-name="Jcircumflex" unicode="&#x134;" horiz-adv-x="1255" 
d="M836 463v962h278v-970q0 -149 -61 -256q-65 -111 -179 -170q-118 -62 -280 -62q-155 0 -275 60q-118 58 -186 166q-68 109 -80 245h273q15 -107 84 -164t184 -57q105 0 174 66q68 65 68 180zM571 1571l254 307h299l254 -307h-258l-145 153l-146 -153h-258z" />
    <glyph glyph-name="jcircumflex" unicode="&#x135;" horiz-adv-x="534" 
d="M-53 -420v225h59q63 0 98 41q33 42 33 117v1096h260v-1127q0 -167 -84 -260q-86 -92 -245 -92h-121zM-86 1204l211 322h283l210 -322h-245l-107 150l-106 -150h-246z" />
    <glyph glyph-name="uni0136" unicode="&#x136;" horiz-adv-x="1398" 
d="M162 0v1425h278v-577l572 577h336l-678 -682l712 -743h-362l-580 606v-606h-278zM586 -545q44 64 65 99q42 81 47 92q-51 9 -86 39q-32 32 -32 84q0 54 43 94q39 39 108 39q76 0 119 -43t43 -111q0 -64 -31 -137q-31 -69 -94 -156h-182z" />
    <glyph glyph-name="uni0137" unicode="&#x137;" horiz-adv-x="1146" 
d="M135 0v1485h260v-846l396 420h313l-469 -498l502 -561h-330l-412 469v-469h-260zM444 -545q51 74 66 99q42 81 47 92q-51 9 -86 39q-33 33 -33 84q0 54 43 94q39 39 109 39q76 0 119 -43t43 -111q0 -64 -31 -137q-31 -69 -94 -156h-183z" />
    <glyph glyph-name="kgreenlandic" unicode="&#x138;" horiz-adv-x="1146" 
d="M135 0v1059h260v-441l396 441h313l-469 -518l502 -541h-330l-412 449v-449h-260z" />
    <glyph glyph-name="Lacute" unicode="&#x139;" horiz-adv-x="1241" 
d="M1165 244v-244h-1003v1425h278v-1181h725zM414 1571h-252l180 307h283z" />
    <glyph glyph-name="lacute" unicode="&#x13a;" horiz-adv-x="530" 
d="M135 0v1485h260v-1485h-260zM379 1608h-252l180 307h283z" />
    <glyph glyph-name="uni013B" unicode="&#x13b;" horiz-adv-x="1241" 
d="M1165 244v-244h-1003v1425h278v-1181h725zM522 -545q51 74 66 99q42 81 47 92q-51 9 -86 39q-33 33 -33 84q0 54 43 94q39 39 109 39q75 0 118 -43t43 -111q0 -66 -30 -137q-31 -69 -94 -156h-183z" />
    <glyph glyph-name="uni013C" unicode="&#x13c;" horiz-adv-x="530" 
d="M135 0v1485h260v-1485h-260zM119 -545q44 64 65 99q42 81 47 92q-51 9 -86 39q-32 32 -32 84q0 54 43 94q39 39 108 39q76 0 119 -43t43 -111q0 -64 -31 -137q-31 -69 -94 -156h-182z" />
    <glyph glyph-name="Lcaron" unicode="&#x13d;" horiz-adv-x="1241" 
d="M1165 244v-244h-1003v1425h278v-1181h725zM643 948l6 477h238l-49 -477h-195z" />
    <glyph glyph-name="lcaron" unicode="&#x13e;" horiz-adv-x="768" 
d="M135 0v1485h260v-1485h-260zM537 1008l6 477h237l-49 -477h-194z" />
    <glyph glyph-name="Ldot" unicode="&#x13f;" horiz-adv-x="1241" 
d="M1165 244v-244h-1003v1425h278v-1181h725zM903 578q-73 0 -121 51q-51 51 -51 121q0 69 51 120q49 52 121 52q71 0 123 -52q49 -52 49 -120q0 -69 -49 -121q-51 -51 -123 -51z" />
    <glyph glyph-name="ldot" unicode="&#x140;" horiz-adv-x="897" 
d="M135 0v1485h260v-1485h-260zM707 578q-73 0 -121 51q-51 51 -51 121q0 69 51 120q49 52 121 52q70 0 122 -52q50 -53 50 -120q0 -68 -50 -121q-51 -51 -122 -51z" />
    <glyph glyph-name="Lslash" unicode="&#x141;" horiz-adv-x="1298" 
d="M219 0v590l-186 -101v224l186 100v612h279v-460l321 174v-224l-321 -174v-497h725v-244h-1004z" />
    <glyph glyph-name="lslash" unicode="&#x142;" horiz-adv-x="620" 
d="M180 0v606l-166 -104v200l166 105v678h260v-512l166 104v-200l-166 -105v-772h-260z" />
    <glyph glyph-name="Nacute" unicode="&#x143;" horiz-adv-x="1570" 
d="M162 0v1425h270l707 -999v999h270v-1425h-270l-707 999v-999h-270zM897 1571h-252l180 307h283z" />
    <glyph glyph-name="nacute" unicode="&#x144;" horiz-adv-x="1204" 
d="M395 623v-623h-260v1059h250v-125q114 156 320 156q171 0 272 -119q100 -118 100 -314v-657h-260v618q0 111 -49 175q-51 63 -154 63q-91 0 -155 -61q-64 -64 -64 -172zM715 1204h-244l156 322h272z" />
    <glyph glyph-name="uni0145" unicode="&#x145;" horiz-adv-x="1570" 
d="M162 0v1425h270l707 -999v999h270v-1425h-270l-707 999v-999h-270zM637 -545q44 64 65 99q0 1 19 36t29 56q-51 9 -86 39q-33 33 -33 84q0 54 43 94q39 39 108 39q76 0 119 -43t43 -111q0 -64 -31 -137q-31 -69 -94 -156h-182z" />
    <glyph glyph-name="uni0146" unicode="&#x146;" horiz-adv-x="1204" 
d="M395 623v-623h-260v1059h250v-125q114 156 320 156q171 0 272 -119q100 -118 100 -314v-657h-260v618q0 111 -49 175q-51 63 -154 63q-91 0 -155 -61q-64 -64 -64 -172zM459 -545q44 64 65 99q42 81 47 92q-51 9 -86 39q-32 32 -32 84q0 54 43 94q39 39 108 39
q76 0 119 -43t43 -111q0 -64 -31 -137q-31 -69 -94 -156h-182z" />
    <glyph glyph-name="Ncaron" unicode="&#x147;" horiz-adv-x="1570" 
d="M162 0v1425h270l707 -999v999h270v-1425h-270l-707 999v-999h-270zM635 1571l-254 307h258l145 -154l146 154h258l-254 -307h-299z" />
    <glyph glyph-name="ncaron" unicode="&#x148;" horiz-adv-x="1204" 
d="M395 623v-623h-260v1059h250v-125q114 156 320 156q171 0 272 -119q100 -118 100 -314v-657h-260v618q0 111 -49 175q-51 63 -154 63q-91 0 -155 -61q-64 -64 -64 -172zM465 1204l-252 322h250l143 -166l144 166h249l-251 -322h-283z" />
    <glyph glyph-name="napostrophe" unicode="&#x149;" horiz-adv-x="1581" 
d="M74 872q53 80 106 181q34 69 49 125q-55 12 -90 53t-35 94q0 62 48 113q47 47 120 47q77 0 129 -49q50 -53 50 -142q0 -93 -37 -186q-40 -100 -127 -236h-213zM772 623v-623h-260v1059h250v-125q114 156 319 156q172 0 273 -119q100 -118 100 -314v-657h-260v618
q0 111 -49 175q-51 63 -154 63q-91 0 -155 -61q-64 -64 -64 -172z" />
    <glyph glyph-name="Eng" unicode="&#x14a;" horiz-adv-x="1550" 
d="M162 0v1425h268v-206q76 114 193 178q116 61 258 61q160 0 282 -78q117 -78 183 -215q63 -135 63 -309v-483q0 -191 -88 -285q-90 -96 -250 -96h-135v225h65q60 0 95 41q34 40 34 125v434q0 184 -81 287q-82 104 -248 104q-101 0 -183 -43q-83 -47 -129 -131
q-49 -88 -49 -217v-817h-278z" />
    <glyph glyph-name="eng" unicode="&#x14b;" horiz-adv-x="1204" 
d="M627 -420v225h59q63 0 98 41q33 42 33 117v655q0 111 -49 175q-51 63 -154 63q-91 0 -155 -61q-64 -64 -64 -172v-623h-260v1059h250v-125q114 156 320 156q171 0 272 -119q100 -118 100 -314v-725q0 -167 -84 -260q-86 -92 -245 -92h-121z" />
    <glyph glyph-name="Omacron" unicode="&#x14c;" horiz-adv-x="1615" 
d="M807 -33q-156 0 -289 56q-140 59 -229 155q-101 109 -150 238q-53 136 -53 297q0 160 53 299q49 126 150 235q91 98 229 156q131 55 289 55q160 0 291 -55t229 -156q101 -109 150 -235q53 -139 53 -299q0 -161 -53 -297q-49 -129 -150 -238q-96 -99 -229 -155t-291 -56z
M807 217q128 0 229 64q98 61 156 174q55 110 55 258q0 147 -55 260q-58 110 -156 174q-101 61 -229 61q-127 0 -225 -61q-101 -64 -156 -174q-57 -111 -57 -260q0 -150 57 -258q55 -113 156 -174q98 -64 225 -64zM471 1831h672v-205h-672v205z" />
    <glyph glyph-name="omacron" unicode="&#x14d;" horiz-adv-x="1208" 
d="M604 -31q-151 0 -274 72q-120 71 -189 199q-67 125 -67 290q0 168 67 293t189 197q119 70 274 70q158 0 277 -70q117 -69 186 -197q68 -127 68 -293q0 -163 -68 -290q-70 -131 -186 -199q-123 -72 -277 -72zM604 201q118 0 193 90q73 88 73 239q0 152 -73 240t-193 88
q-119 0 -192 -88q-74 -89 -74 -240q0 -150 74 -239q75 -90 192 -90zM281 1473h647v-201h-647v201z" />
    <glyph glyph-name="Obreve" unicode="&#x14e;" horiz-adv-x="1615" 
d="M807 -33q-156 0 -289 56q-140 59 -229 155q-101 109 -150 238q-53 136 -53 297q0 160 53 299q49 126 150 235q91 98 229 156q131 55 289 55q160 0 291 -55t229 -156q101 -109 150 -235q53 -139 53 -299q0 -161 -53 -297q-49 -129 -150 -238q-96 -99 -229 -155t-291 -56z
M807 217q128 0 229 64q98 61 156 174q55 110 55 258q0 147 -55 260q-58 110 -156 174q-101 61 -229 61q-127 0 -225 -61q-101 -64 -156 -174q-57 -111 -57 -260q0 -150 57 -258q55 -113 156 -174q98 -64 225 -64zM807 1559q-157 0 -258 88q-104 87 -113 229h219
q9 -57 50 -92q40 -37 102 -37q64 0 104 37q38 32 47 92h220q-9 -142 -113 -229q-101 -88 -258 -88z" />
    <glyph glyph-name="obreve" unicode="&#x14f;" horiz-adv-x="1208" 
d="M604 -31q-151 0 -274 72q-120 71 -189 199q-67 125 -67 290q0 168 67 293t189 197q119 70 274 70q158 0 277 -70q117 -69 186 -197q68 -127 68 -293q0 -163 -68 -290q-70 -131 -186 -199q-123 -72 -277 -72zM604 201q118 0 193 90q73 88 73 239q0 152 -73 240t-193 88
q-119 0 -192 -88q-74 -89 -74 -240q0 -150 74 -239q75 -90 192 -90zM604 1192q-151 0 -252 90q-99 86 -108 242h213q9 -69 47 -107q39 -39 100 -39q62 0 101 39q38 38 47 107h213q-9 -154 -107 -242q-104 -90 -254 -90z" />
    <glyph glyph-name="Ohungarumlaut" unicode="&#x150;" horiz-adv-x="1615" 
d="M807 -33q-156 0 -289 56q-140 59 -229 155q-101 109 -150 238q-53 136 -53 297q0 160 53 299q49 126 150 235q91 98 229 156q131 55 289 55q160 0 291 -55t229 -156q101 -109 150 -235q53 -139 53 -299q0 -161 -53 -297q-49 -129 -150 -238q-96 -99 -229 -155t-291 -56z
M807 217q128 0 229 64q98 61 156 174q55 110 55 258q0 147 -55 260q-58 110 -156 174q-101 61 -229 61q-127 0 -225 -61q-101 -64 -156 -174q-57 -111 -57 -260q0 -150 57 -258q55 -113 156 -174q98 -64 225 -64zM723 1571h-238l179 307h270zM1128 1571h-237l199 307h270z
" />
    <glyph glyph-name="ohungarumlaut" unicode="&#x151;" horiz-adv-x="1208" 
d="M604 -31q-151 0 -274 72q-120 71 -189 199q-67 125 -67 290q0 168 67 293t189 197q119 70 274 70q158 0 277 -70q117 -69 186 -197q68 -127 68 -293q0 -163 -68 -290q-70 -131 -186 -199q-123 -72 -277 -72zM604 201q118 0 193 90q73 88 73 239q0 152 -73 240t-193 88
q-119 0 -192 -88q-74 -89 -74 -240q0 -150 74 -239q75 -90 192 -90zM688 1204l174 322h260l-202 -322h-232zM289 1204l155 322h261l-185 -322h-231z" />
    <glyph glyph-name="OE" unicode="&#x152;" horiz-adv-x="2396" 
d="M774 -33q-143 0 -270 56t-219 155q-94 102 -146 238q-53 136 -53 297q0 160 53 299q52 133 146 235q93 101 219 156q125 55 270 55q172 0 283 -57q114 -59 186 -164v188h1026v-243h-751v-334h727v-244h-727v-360h761v-244h-1036v188q-76 -103 -190 -163
q-110 -58 -279 -58zM805 217q128 0 229 64q98 61 156 174q55 110 55 258q0 147 -55 260q-58 110 -156 174q-101 61 -229 61q-129 0 -227 -61q-99 -65 -154 -174q-55 -113 -55 -260q0 -148 55 -258q55 -112 154 -174q98 -64 227 -64z" />
    <glyph glyph-name="oe" unicode="&#x153;" horiz-adv-x="1953" 
d="M604 -31q-151 0 -274 72q-120 71 -189 199q-67 125 -67 290q0 168 67 293t189 197q119 70 274 70q123 0 234 -60q102 -57 161 -160q58 102 160 160q105 60 234 60q232 0 358 -150q125 -149 125 -399v-92h-739q35 -267 264 -267q72 0 127 25q50 24 67 63h263
q-41 -140 -160 -219q-122 -82 -299 -82q-136 0 -236 60q-105 58 -166 166q-56 -109 -161 -166q-111 -60 -232 -60zM1391 877q-105 0 -170 -62q-67 -67 -84 -182h485q-3 109 -61 176q-59 68 -170 68zM604 201q115 0 193 90q73 88 73 239q0 152 -73 240q-76 88 -193 88
q-119 0 -192 -88q-74 -89 -74 -240q0 -150 74 -239q75 -90 192 -90z" />
    <glyph glyph-name="Racute" unicode="&#x154;" horiz-adv-x="1398" 
d="M162 0v1425h581q264 0 410 -125q145 -127 145 -337q0 -154 -77 -263q-80 -109 -211 -161l352 -539h-324l-313 494h-285v-494h-278zM440 735h267q157 0 235 60q74 59 74 170q0 112 -74 165q-79 54 -235 54h-267v-449zM805 1571h-252l180 307h283z" />
    <glyph glyph-name="racute" unicode="&#x155;" horiz-adv-x="776" 
d="M395 522v-522h-260v1059h250v-176q48 86 127 137q77 47 172 47h41v-246h-49q-118 0 -199 -78q-82 -76 -82 -221zM539 1204h-244l156 322h272z" />
    <glyph glyph-name="uni0156" unicode="&#x156;" horiz-adv-x="1398" 
d="M162 0v1425h581q264 0 410 -125q145 -127 145 -337q0 -154 -77 -263q-80 -109 -211 -161l352 -539h-324l-313 494h-285v-494h-278zM440 735h267q157 0 235 60q74 59 74 170q0 112 -74 165q-79 54 -235 54h-267v-449zM586 -545q44 64 65 99q42 81 47 92q-51 9 -86 39
q-32 32 -32 84q0 54 43 94q39 39 108 39q76 0 119 -43t43 -111q0 -64 -31 -137q-31 -69 -94 -156h-182z" />
    <glyph glyph-name="uni0157" unicode="&#x157;" horiz-adv-x="776" 
d="M395 522v-522h-260v1059h250v-176q48 86 127 137q77 47 172 47h41v-246h-49q-118 0 -199 -78q-82 -76 -82 -221zM119 -545q44 64 65 99q42 81 47 92q-51 9 -86 39q-32 32 -32 84q0 54 43 94q39 39 108 39q76 0 119 -43t43 -111q0 -64 -31 -137q-31 -69 -94 -156h-182z
" />
    <glyph glyph-name="Rcaron" unicode="&#x158;" horiz-adv-x="1398" 
d="M162 0v1425h581q264 0 410 -125q145 -127 145 -337q0 -154 -77 -263q-80 -109 -211 -161l352 -539h-324l-313 494h-285v-494h-278zM440 735h267q157 0 235 60q74 59 74 170q0 112 -74 165q-79 54 -235 54h-267v-449zM543 1571l-254 307h258l145 -154l146 154h258
l-254 -307h-299z" />
    <glyph glyph-name="rcaron" unicode="&#x159;" horiz-adv-x="776" 
d="M395 522v-522h-260v1059h250v-176q48 86 127 137q77 47 172 47h41v-246h-49q-118 0 -199 -78q-82 -76 -82 -221zM289 1204l-252 322h250l143 -166l143 166h250l-252 -322h-282z" />
    <glyph glyph-name="Sacute" unicode="&#x15a;" horiz-adv-x="1308" 
d="M668 -33q-249 0 -406 115q-159 116 -205 319h279q27 -85 115 -137q86 -53 213 -53q120 0 200 47q78 47 78 133q0 48 -22 90q-22 39 -84 66q-61 27 -179 45l-159 26q-200 35 -297 127q-101 94 -101 271q0 132 74 235q70 98 197 154q124 53 276 53q226 0 375 -104
q152 -109 186 -310h-278q-21 87 -94 130q-73 40 -187 40q-128 0 -196 -45q-72 -47 -72 -129q0 -74 55 -114q54 -41 215 -68l154 -24q420 -67 420 -416q0 -140 -72 -244q-70 -101 -197 -154q-120 -53 -288 -53zM760 1571h-252l180 307h283z" />
    <glyph glyph-name="sacute" unicode="&#x15b;" horiz-adv-x="1030" 
d="M532 -31q-195 0 -319 92q-123 87 -145 238h249q9 -47 68 -82t141 -35q84 0 131 33q48 31 48 84q0 46 -37 76q-39 31 -129 43l-154 20q-151 21 -225 101q-74 77 -74 204q0 107 55 183q56 77 152 121q93 43 217 43q127 0 217 -43t147 -115q55 -72 70 -160h-248
q-16 52 -61 78q-50 27 -121 27q-81 0 -125 -33q-47 -35 -47 -86q0 -47 37 -68q40 -25 123 -37l151 -20q154 -21 232 -111t78 -213q0 -103 -56 -180q-59 -77 -153 -117q-98 -43 -222 -43zM618 1204h-243l155 322h273z" />
    <glyph glyph-name="Scircumflex" unicode="&#x15c;" horiz-adv-x="1308" 
d="M668 -33q-249 0 -406 115q-159 116 -205 319h279q27 -85 115 -137q86 -53 213 -53q120 0 200 47q78 47 78 133q0 48 -22 90q-22 39 -84 66q-61 27 -179 45l-159 26q-200 35 -297 127q-101 94 -101 271q0 132 74 235q70 98 197 154q124 53 276 53q226 0 375 -104
q152 -109 186 -310h-278q-21 87 -94 130q-73 40 -187 40q-128 0 -196 -45q-72 -47 -72 -129q0 -74 55 -114q54 -41 215 -68l154 -24q420 -67 420 -416q0 -140 -72 -244q-70 -101 -197 -154q-120 -53 -288 -53zM244 1571l254 307h299l254 -307h-258l-146 153l-145 -153h-258z
" />
    <glyph glyph-name="scircumflex" unicode="&#x15d;" horiz-adv-x="1030" 
d="M532 -31q-195 0 -319 92q-123 87 -145 238h249q9 -47 68 -82t141 -35q84 0 131 33q48 31 48 84q0 46 -37 76q-39 31 -129 43l-154 20q-151 21 -225 101q-74 77 -74 204q0 107 55 183q56 77 152 121q93 43 217 43q127 0 217 -43t147 -115q55 -72 70 -160h-248
q-16 52 -61 78q-50 27 -121 27q-81 0 -125 -33q-47 -35 -47 -86q0 -47 37 -68q40 -25 123 -37l151 -20q154 -21 232 -111t78 -213q0 -103 -56 -180q-59 -77 -153 -117q-98 -43 -222 -43zM117 1204l252 322h282l252 -322h-250l-143 166l-143 -166h-250z" />
    <glyph glyph-name="Scedilla" unicode="&#x15e;" horiz-adv-x="1308" 
d="M668 -33q-249 0 -406 115q-159 116 -205 319h279q27 -85 115 -137q86 -53 213 -53q120 0 200 47q78 47 78 133q0 48 -22 90q-22 39 -84 66q-61 27 -179 45l-159 26q-200 35 -297 127q-101 94 -101 271q0 132 74 235q70 98 197 154q124 53 276 53q226 0 375 -104
q152 -109 186 -310h-278q-21 87 -94 130q-73 40 -187 40q-128 0 -196 -45q-72 -47 -72 -129q0 -74 55 -114q54 -41 215 -68l154 -24q420 -67 420 -416q0 -140 -72 -244q-70 -101 -197 -154q-120 -53 -288 -53zM487 -518v156h111q102 0 102 67q0 64 -92 64h-94l92 292h158
l-57 -159q84 -3 141 -60q55 -58 55 -143q0 -101 -65 -160q-66 -57 -187 -57h-164z" />
    <glyph glyph-name="scedilla" unicode="&#x15f;" horiz-adv-x="1030" 
d="M532 -31q-195 0 -319 92q-123 87 -145 238h249q9 -47 68 -82t141 -35q84 0 131 33q48 31 48 84q0 46 -37 76q-39 31 -129 43l-154 20q-151 21 -225 101q-74 77 -74 204q0 107 55 183q56 77 152 121q93 43 217 43q127 0 217 -43t147 -115q55 -72 70 -160h-248
q-16 52 -61 78q-50 27 -121 27q-81 0 -125 -33q-47 -35 -47 -86q0 -47 37 -68q40 -25 123 -37l151 -20q154 -21 232 -111t78 -213q0 -103 -56 -180q-59 -77 -153 -117q-98 -43 -222 -43zM354 -518v156h113q102 0 102 67q0 64 -92 64h-94l94 301h158l-60 -168q85 -3 142 -60
q55 -58 55 -143q0 -101 -65 -160q-66 -57 -187 -57h-166z" />
    <glyph glyph-name="Scaron" unicode="&#x160;" horiz-adv-x="1308" 
d="M668 -33q-249 0 -406 115q-159 116 -205 319h279q27 -85 115 -137q86 -53 213 -53q120 0 200 47q78 47 78 133q0 48 -22 90q-22 39 -84 66q-61 27 -179 45l-159 26q-200 35 -297 127q-101 94 -101 271q0 132 74 235q70 98 197 154q124 53 276 53q226 0 375 -104
q152 -109 186 -310h-278q-21 87 -94 130q-73 40 -187 40q-128 0 -196 -45q-72 -47 -72 -129q0 -74 55 -114q54 -41 215 -68l154 -24q420 -67 420 -416q0 -140 -72 -244q-70 -101 -197 -154q-120 -53 -288 -53zM498 1571l-254 307h258l145 -154l146 154h258l-254 -307h-299z
" />
    <glyph glyph-name="scaron" unicode="&#x161;" horiz-adv-x="1030" 
d="M532 -31q-195 0 -319 92q-123 87 -145 238h249q9 -47 68 -82t141 -35q84 0 131 33q48 31 48 84q0 46 -37 76q-39 31 -129 43l-154 20q-151 21 -225 101q-74 77 -74 204q0 107 55 183q56 77 152 121q93 43 217 43q127 0 217 -43t147 -115q55 -72 70 -160h-248
q-16 52 -61 78q-50 27 -121 27q-81 0 -125 -33q-47 -35 -47 -86q0 -47 37 -68q40 -25 123 -37l151 -20q154 -21 232 -111t78 -213q0 -103 -56 -180q-59 -77 -153 -117q-98 -43 -222 -43zM369 1204l-252 322h250l143 -166l143 166h250l-252 -322h-282z" />
    <glyph glyph-name="uni0162" unicode="&#x162;" horiz-adv-x="1380" 
d="M829 0h-278v1182h-475v243h1229v-243h-476v-1182zM508 -518v156h110q103 0 103 67q0 64 -92 64h-94l92 292h157l-57 -159q84 -3 141 -60q56 -59 56 -143q0 -100 -66 -160q-66 -57 -186 -57h-164z" />
    <glyph glyph-name="uni0163" unicode="&#x163;" horiz-adv-x="745" 
d="M541 -8q-161 0 -246 88q-88 85 -88 254v500h-172v225h172v321q136 6 260 43v-364h209v-225h-209v-472q0 -70 35 -108q34 -37 98 -37h76v-225h-135zM260 -518v156h113q102 0 102 67q0 64 -92 64h-94l94 301h158l-60 -168q85 -3 142 -60q55 -58 55 -143q0 -100 -66 -160
q-66 -57 -186 -57h-166z" />
    <glyph glyph-name="Tcaron" unicode="&#x164;" horiz-adv-x="1380" 
d="M829 0h-278v1182h-475v243h1229v-243h-476v-1182zM539 1571l-254 307h258l145 -154l146 154h258l-254 -307h-299z" />
    <glyph glyph-name="tcaron" unicode="&#x165;" horiz-adv-x="825" 
d="M541 -8q-161 0 -246 88q-88 85 -88 254v500h-172v225h172v321q136 6 260 43v-364h209v-225h-209v-472q0 -70 35 -108q34 -37 98 -37h76v-225h-135zM600 1176l6 329h238l-49 -329h-195z" />
    <glyph glyph-name="Tbar" unicode="&#x166;" horiz-adv-x="1380" 
d="M551 0v537h-311v215h311v430h-475v243h1229v-243h-476v-430h312v-215h-312v-537h-278z" />
    <glyph glyph-name="tbar" unicode="&#x167;" horiz-adv-x="745" 
d="M35 459v200h172v175h-172v225h172v321q136 6 260 43v-364h209v-225h-209v-175h209v-200h-209v-97q0 -70 35 -108q34 -37 98 -37h76v-225h-135q-161 0 -246 88q-88 85 -88 254v125h-172z" />
    <glyph glyph-name="Utilde" unicode="&#x168;" horiz-adv-x="1523" 
d="M762 -33q-201 0 -340 80q-138 79 -209 225q-72 147 -72 342v811h279v-778q0 -200 82 -313q80 -117 260 -117t262 117q80 115 80 313v778h278v-811q0 -201 -69 -342q-71 -146 -209 -225q-139 -80 -342 -80zM924 1561q-40 0 -86 12q-43 8 -99 45q-46 29 -59 35q-21 8 -45 8
q-64 0 -64 -66v-30h-194v75q0 105 63 162q66 60 160 60q29 0 86 -11q44 -11 98 -47q33 -21 62 -32q26 -11 43 -11q63 0 63 66v31h195v-76q0 -103 -62 -162q-65 -59 -161 -59z" />
    <glyph glyph-name="utilde" unicode="&#x169;" horiz-adv-x="1193" 
d="M799 434v625h260v-1059h-250v123q-53 -74 -127 -113q-72 -41 -170 -41q-182 0 -285 121q-100 118 -100 313v656h260v-625q0 -101 53 -166t150 -65q94 0 151 63q58 61 58 168zM750 1202q-42 0 -86 15q-44 12 -103 53q-41 25 -51 30q-24 7 -39 7q-59 0 -59 -66v-37h-189v80
q0 100 60 160q59 59 153 59q45 0 86 -14q53 -18 103 -53q41 -25 53 -29q16 -8 37 -8q59 0 59 65v37h189v-78q0 -101 -60 -161t-153 -60z" />
    <glyph glyph-name="Umacron" unicode="&#x16a;" horiz-adv-x="1523" 
d="M762 -33q-201 0 -340 80q-138 79 -209 225q-72 147 -72 342v811h279v-778q0 -200 82 -313q80 -117 260 -117t262 117q80 115 80 313v778h278v-811q0 -201 -69 -342q-71 -146 -209 -225q-139 -80 -342 -80zM426 1831h672v-205h-672v205z" />
    <glyph glyph-name="umacron" unicode="&#x16b;" horiz-adv-x="1193" 
d="M799 434v625h260v-1059h-250v123q-53 -74 -127 -113q-72 -41 -170 -41q-182 0 -285 121q-100 118 -100 313v656h260v-625q0 -101 53 -166t150 -65q94 0 151 63q58 61 58 168zM270 1473h648v-201h-648v201z" />
    <glyph glyph-name="Ubreve" unicode="&#x16c;" horiz-adv-x="1523" 
d="M762 -33q-201 0 -340 80q-138 79 -209 225q-72 147 -72 342v811h279v-778q0 -200 82 -313q80 -117 260 -117t262 117q80 115 80 313v778h278v-811q0 -201 -69 -342q-71 -146 -209 -225q-139 -80 -342 -80zM762 1559q-157 0 -258 88q-104 87 -113 229h219q9 -58 49 -92
q40 -37 103 -37q64 0 104 37q38 32 47 92h220q-9 -142 -113 -229q-101 -88 -258 -88z" />
    <glyph glyph-name="ubreve" unicode="&#x16d;" horiz-adv-x="1193" 
d="M799 434v625h260v-1059h-250v123q-53 -74 -127 -113q-72 -41 -170 -41q-182 0 -285 121q-100 118 -100 313v656h260v-625q0 -101 53 -166t150 -65q94 0 151 63q58 61 58 168zM594 1192q-151 0 -252 90q-100 87 -109 242h213q9 -68 48 -107t100 -39t100 39q38 38 47 107
h213q-9 -155 -106 -242q-104 -90 -254 -90z" />
    <glyph glyph-name="Uring" unicode="&#x16e;" horiz-adv-x="1523" 
d="M762 -33q-201 0 -340 80q-138 79 -209 225q-72 147 -72 342v811h279v-778q0 -200 82 -313q80 -117 260 -117t262 117q80 115 80 313v778h278v-811q0 -201 -69 -342q-71 -146 -209 -225q-139 -80 -342 -80zM762 1513q-72 0 -131 35t-94 94t-35 130q0 72 35 131
q33 56 94 92q59 35 131 35q74 0 133 -35q58 -34 92 -92q35 -59 35 -131q0 -71 -35 -130q-36 -61 -92 -94q-59 -35 -133 -35zM762 1661q47 0 80 33q30 30 30 78q0 44 -30 79q-36 31 -80 31q-47 0 -78 -31q-33 -33 -33 -79q0 -49 33 -78q29 -33 78 -33z" />
    <glyph glyph-name="uring" unicode="&#x16f;" horiz-adv-x="1193" 
d="M799 434v625h260v-1059h-250v123q-53 -74 -127 -113q-72 -41 -170 -41q-182 0 -285 121q-100 118 -100 313v656h260v-625q0 -101 53 -166t150 -65q94 0 151 63q58 61 58 168zM594 1159q-72 0 -131 35t-94 94t-35 129q0 72 35 131q33 56 94 92q59 35 131 35q74 0 133 -35
q58 -34 92 -92q35 -59 35 -131q0 -70 -35 -129q-36 -61 -92 -94q-59 -35 -133 -35zM594 1307q48 0 80 32q31 31 31 78q0 44 -31 80q-36 31 -80 31q-47 0 -78 -31q-33 -33 -33 -80q0 -49 33 -78q28 -32 78 -32z" />
    <glyph glyph-name="Uhungarumlaut" unicode="&#x170;" horiz-adv-x="1523" 
d="M762 -33q-201 0 -340 80q-138 79 -209 225q-72 147 -72 342v811h279v-778q0 -200 82 -313q80 -117 260 -117t262 117q80 115 80 313v778h278v-811q0 -201 -69 -342q-71 -146 -209 -225q-139 -80 -342 -80zM678 1571h-238l178 307h271zM1083 1571h-237l198 307h271z" />
    <glyph glyph-name="uhungarumlaut" unicode="&#x171;" horiz-adv-x="1193" 
d="M799 434v625h260v-1059h-250v123q-53 -74 -127 -113q-72 -41 -170 -41q-182 0 -285 121q-100 118 -100 313v656h260v-625q0 -101 53 -166t150 -65q94 0 151 63q58 61 58 168zM678 1204l174 322h260l-203 -322h-231zM279 1204l155 322h260l-184 -322h-231z" />
    <glyph glyph-name="Uogonek" unicode="&#x172;" horiz-adv-x="1523" 
d="M762 -33q-201 0 -340 80q-138 79 -209 225q-72 147 -72 342v811h279v-778q0 -200 82 -313q80 -117 260 -117t262 117q80 115 80 313v778h278v-811q0 -201 -69 -342q-71 -146 -209 -225q-139 -80 -342 -80zM971 -514q-141 0 -219 63q-80 65 -80 168q0 65 30 127
q27 56 109 125q77 68 211 144l98 -54q-103 -69 -153 -122t-64 -91t-14 -73q0 -57 37 -84q40 -29 96 -29h68v-174h-119z" />
    <glyph glyph-name="uogonek" unicode="&#x173;" horiz-adv-x="1193" 
d="M799 434v625h260v-1059h-250v123q-53 -74 -127 -113q-72 -41 -170 -41q-182 0 -285 121q-100 118 -100 313v656h260v-625q0 -101 53 -166t150 -65q94 0 151 63q58 61 58 168zM950 -514q-139 0 -217 63q-80 65 -80 170q0 208 283 334l102 -53q-99 -68 -131 -119
q-37 -52 -37 -108q0 -58 39 -84q40 -29 95 -29h67v-174h-121z" />
    <glyph glyph-name="Wcircumflex" unicode="&#x174;" horiz-adv-x="2035" 
d="M469 0l-420 1425h291l276 -1003l273 999h256l287 -1005l268 1009h287l-420 -1425h-258l-291 1018l-291 -1018h-258zM614 1571l254 307h299l254 -307h-258l-145 153l-146 -153h-258z" />
    <glyph glyph-name="wcircumflex" unicode="&#x175;" horiz-adv-x="1597" 
d="M365 0l-338 1059h268l197 -686l190 684h233l199 -686l197 688h260l-338 -1059h-227l-209 717l-205 -717h-227zM406 1204l251 322h283l252 -322h-250l-143 166l-144 -166h-249z" />
    <glyph glyph-name="Ycircumflex" unicode="&#x176;" horiz-adv-x="1372" 
d="M547 0v535l-522 890h317l350 -630l350 630h306l-523 -890v-535h-278zM283 1571l254 307h299l254 -307h-259l-145 153l-145 -153h-258z" />
    <glyph glyph-name="ycircumflex" unicode="&#x177;" horiz-adv-x="1134" 
d="M260 -420l174 420l-416 1059h297l263 -756l258 756h280l-577 -1479h-279zM180 1204l252 322h283l252 -322h-250l-144 166l-143 -166h-250z" />
    <glyph glyph-name="Ydieresis" unicode="&#x178;" horiz-adv-x="1372" 
d="M547 0v535l-522 890h317l350 -630l350 630h306l-523 -890v-535h-278zM918 1577q-62 0 -105 43q-43 40 -43 102t43 105q44 41 105 41q60 0 104 -41q43 -43 43 -105t-43 -102q-43 -43 -104 -43zM455 1577q-62 0 -105 43q-43 40 -43 102t43 105q44 41 105 41q60 0 104 -41
q43 -43 43 -105t-43 -102q-43 -43 -104 -43z" />
    <glyph glyph-name="Zacute" unicode="&#x179;" horiz-adv-x="1290" 
d="M90 1425h1102v-233l-760 -948h772v-244h-1114v233l760 949h-760v243zM754 1571h-252l180 307h283z" />
    <glyph glyph-name="zacute" unicode="&#x17a;" horiz-adv-x="1050" 
d="M78 0v215l549 619h-549v225h887v-215l-549 -619h561v-225h-899zM633 1204h-244l156 322h272z" />
    <glyph glyph-name="Zdotaccent" unicode="&#x17b;" horiz-adv-x="1290" 
d="M90 1425h1102v-233l-760 -948h772v-244h-1114v233l760 949h-760v243zM639 1567q-64 0 -111 47q-45 45 -45 110q0 68 45 113t111 45t111 -45t45 -113q0 -65 -45 -110q-47 -47 -111 -47z" />
    <glyph glyph-name="zdotaccent" unicode="&#x17c;" horiz-adv-x="1050" 
d="M78 0v215l549 619h-549v225h887v-215l-549 -619h561v-225h-899zM522 1202q-63 0 -110 47q-45 45 -45 111q0 68 45 113t110 45q66 0 111 -45t45 -113q0 -66 -45 -111q-47 -47 -111 -47z" />
    <glyph glyph-name="Zcaron" unicode="&#x17d;" horiz-adv-x="1290" 
d="M90 1425h1102v-233l-760 -948h772v-244h-1114v233l760 949h-760v243zM492 1571l-254 307h258l145 -154l145 154h258l-253 -307h-299z" />
    <glyph glyph-name="zcaron" unicode="&#x17e;" horiz-adv-x="1050" 
d="M78 0v215l549 619h-549v225h887v-215l-549 -619h561v-225h-899zM383 1204l-252 322h250l143 -166l144 166h250l-252 -322h-283z" />
    <glyph glyph-name="longs" unicode="&#x17f;" horiz-adv-x="602" 
d="M602 1485v-221h-55q-76 0 -113 -43q-39 -45 -39 -117v-1104h-260v1120q0 171 94 269q96 96 263 96h110z" />
    <glyph glyph-name="uni0181" unicode="&#x181;" horiz-adv-x="1853" 
d="M608 0v1190q-150 -3 -217 -76q-69 -75 -69 -258v-51h-240v67q0 553 534 553h609q229 0 358 -100q133 -103 133 -283q0 -106 -55 -182q-60 -78 -164 -117q138 -41 203 -127q67 -88 67 -208q0 -129 -63 -215q-66 -94 -180 -142q-114 -51 -275 -51h-641zM1192 1190h-309
v-340h309q120 0 184 43q66 41 66 127q0 170 -250 170zM1227 614h-344v-378h344q262 0 262 190q0 91 -68 141q-68 47 -194 47z" />
    <glyph glyph-name="uni0186" unicode="&#x186;" horiz-adv-x="1474" 
d="M702 -33q-181 0 -309 64q-134 66 -209 174q-82 114 -108 252h284q27 -108 117 -174q91 -66 228 -66q119 0 208 62q90 60 142 172q51 108 51 262q0 151 -49 264q-53 112 -139 172q-89 59 -209 59q-143 0 -228 -67q-89 -68 -116 -183h-289q30 146 112 259q79 113 209 178
q126 63 310 63q201 0 356 -96t240 -264q86 -170 86 -385t-86 -385q-89 -171 -242 -265q-158 -96 -359 -96z" />
    <glyph glyph-name="uni018A" unicode="&#x18a;" horiz-adv-x="1949" 
d="M608 0v1182q-150 -3 -217 -76q-69 -72 -69 -252v-49h-240v67q0 277 133 416q131 137 406 137h526q212 0 375 -88q162 -90 252 -247q90 -162 90 -377t-90 -377q-91 -159 -252 -248q-163 -88 -375 -88h-539zM887 244h243q133 0 234 55q102 55 160 160q57 102 57 254
t-57 254q-58 103 -160 159q-103 56 -234 56h-243v-938z" />
    <glyph glyph-name="uni018E" unicode="&#x18e;" horiz-adv-x="1316" 
d="M1155 0h-1038v244h760v360h-725v244h725v334h-750v243h1028v-1425z" />
    <glyph glyph-name="uni018F" unicode="&#x18f;" horiz-adv-x="1501" 
d="M1415 707q0 -215 -78 -385q-80 -167 -229 -261t-365 -94q-206 0 -348 90q-148 89 -227 252q-80 165 -80 391v115h1040q-21 190 -127 293q-106 100 -268 100q-123 0 -203 -45q-88 -48 -133 -119h-284q44 118 131 211q86 92 213 148q125 55 282 55q204 0 357 -90
q154 -94 235 -260q84 -173 84 -401zM739 217q173 0 267 98q96 96 120 271h-757q6 -167 106 -267q99 -102 264 -102z" />
    <glyph glyph-name="uni0190" unicode="&#x190;" horiz-adv-x="1273" 
d="M633 -33q-154 0 -271 51q-119 48 -192 146q-72 97 -72 229q0 120 72 213q70 90 199 131q-111 37 -170 121q-62 83 -62 191q0 127 68 219q64 91 180 141q113 49 260 49q224 0 359 -106q139 -109 180 -285h-266q-24 71 -91 113q-65 39 -170 39q-98 0 -174 -48
q-73 -49 -73 -145q0 -90 67 -139t176 -49h170v-232h-178q-126 0 -196 -49q-72 -51 -72 -141q0 -104 76 -156q77 -53 188 -53q107 0 184 41t101 114h270q-37 -184 -182 -290q-144 -105 -381 -105z" />
    <glyph glyph-name="florin" unicode="&#x192;" horiz-adv-x="765" 
d="M37 -420v225h57q75 0 115 43q37 43 37 117v869h-172v225h172v61q0 168 96 269q96 96 262 96h111v-225h-58q-72 0 -112 -43q-39 -42 -39 -115v-43h209v-225h-209v-889q0 -171 -94 -269q-96 -96 -265 -96h-110z" />
    <glyph glyph-name="uni0194" unicode="&#x194;" horiz-adv-x="1468" 
d="M735 -33q-110 0 -178 39q-71 41 -104 103q-35 62 -35 133q0 75 26 137q24 58 80 139l49 72l-544 837h321l391 -632l394 632h305l-547 -833l51 -76q53 -77 80 -139q27 -64 27 -137q0 -74 -33 -133q-33 -62 -105 -103q-68 -39 -178 -39zM639 254q0 -42 27 -66
q26 -26 69 -26q44 0 70 26q24 24 24 66q0 36 -16 76q-19 36 -59 94l-19 27l-18 -27q-44 -64 -60 -94q-18 -38 -18 -76z" />
    <glyph glyph-name="uni0198" unicode="&#x198;" horiz-adv-x="1572" 
d="M162 0v1425h278v-591l285 374q94 126 199 189q101 61 245 61q156 0 250 -88q97 -91 97 -258v-125h-269v105q0 133 -104 133q-49 0 -96 -29q-45 -28 -103 -104l-272 -351l710 -741h-362l-580 606v-606h-278z" />
    <glyph glyph-name="uni0199" unicode="&#x199;" horiz-adv-x="1146" 
d="M135 0v1081q0 205 109 305q108 99 309 99h149v-209h-120q-187 0 -187 -205v-432l396 420h313l-469 -498l502 -561h-330l-412 469v-469h-260z" />
    <glyph glyph-name="uni019D" unicode="&#x19d;" horiz-adv-x="1652" 
d="M53 -8v225h66q59 0 94 41t35 125v1042h268v-206q73 113 191 178q113 61 254 61q159 0 278 -78q114 -78 180 -215q64 -137 64 -309v-856h-279v817q0 183 -82 287t-241 104q-100 0 -179 -43q-82 -48 -127 -131q-49 -88 -49 -217v-444q0 -190 -86 -285q-90 -96 -252 -96
h-135z" />
    <glyph glyph-name="uni019F" unicode="&#x19f;" horiz-adv-x="1615" 
d="M809 -33q-156 0 -289 56q-140 59 -229 155q-101 104 -152 238q-53 136 -53 297q0 160 53 299q51 131 152 235q91 98 229 156q131 55 289 55q160 0 291 -55q135 -57 227 -156q101 -109 150 -235q53 -139 53 -299q0 -161 -53 -297q-49 -129 -150 -238q-90 -98 -227 -155
q-133 -56 -291 -56zM809 1217q-174 0 -293 -107q-121 -109 -151 -285h886q-30 178 -149 285t-293 107zM809 209q173 0 293 108q119 107 149 283h-886q30 -174 151 -283q120 -108 293 -108z" />
    <glyph glyph-name="Ohorn" unicode="&#x1a0;" horiz-adv-x="1648" 
d="M1530 713q0 -161 -53 -297q-49 -129 -150 -238q-90 -98 -227 -155q-133 -56 -291 -56q-156 0 -289 56q-140 59 -229 155q-101 104 -152 238q-53 136 -53 297q0 160 53 299q51 131 152 235q91 98 229 156q131 55 289 55q57 0 125 -10q63 -13 115 -27q30 -7 55 -10
q27 -6 61 -6h9q155 0 155 147v105h244v-131q0 -248 -221 -307q84 -97 131 -226q47 -133 47 -280zM369 713q0 -150 57 -258q55 -113 156 -174q98 -64 227 -64t227 64q98 61 156 174q55 110 55 258q0 147 -55 260q-58 110 -156 174q-98 61 -227 61t-227 -61
q-101 -64 -156 -174q-57 -111 -57 -260z" />
    <glyph glyph-name="ohorn" unicode="&#x1a1;" horiz-adv-x="1263" 
d="M1135 530q0 -163 -68 -290q-70 -131 -186 -199q-123 -72 -277 -72q-151 0 -274 72q-120 71 -189 199q-67 125 -67 290q0 168 67 293t189 197q119 70 274 70q43 0 107 -11q31 -6 98 -26q37 -13 78 -13q72 0 98 39q25 42 25 99v104h227v-131q0 -234 -197 -287
q95 -139 95 -334zM338 530q0 -150 74 -239q75 -90 192 -90q118 0 193 90q73 88 73 239q0 152 -73 240t-193 88q-119 0 -192 -88q-74 -89 -74 -240z" />
    <glyph glyph-name="Uhorn" unicode="&#x1af;" horiz-adv-x="1603" 
d="M1378 614q0 -201 -69 -342q-71 -146 -209 -225q-139 -80 -340 -80t-340 80q-135 78 -207 225t-72 342v811h277v-780q0 -196 80 -311q79 -117 262 -117q182 0 262 117q80 115 80 311v780h198q65 0 99 37q35 38 35 111v104h243v-131q0 -146 -75 -227q-78 -84 -224 -96v-609
z" />
    <glyph glyph-name="uhorn" unicode="&#x1b0;" horiz-adv-x="1265" 
d="M512 -31q-180 0 -283 121q-102 120 -102 313v658h260v-627q0 -101 53 -166t150 -65q94 0 151 63q58 61 58 168v627h157q125 0 125 137v105h226v-132q0 -123 -62 -200q-67 -79 -186 -94v-877h-250v123q-53 -74 -127 -113q-72 -41 -170 -41z" />
    <glyph glyph-name="uni01B3" unicode="&#x1b3;" horiz-adv-x="1775" 
d="M547 0v535l-522 890h317l352 -634l191 350q76 141 190 229q113 88 289 88q178 0 266 -98t88 -260v-113h-268v96q0 142 -115 142q-64 0 -110 -43q-48 -45 -99 -131l-301 -516v-535h-278z" />
    <glyph glyph-name="uni01B4" unicode="&#x1b4;" horiz-adv-x="1554" 
d="M262 -420l172 420l-416 1059h295l267 -766l159 452q58 169 162 259q101 88 262 88q157 0 248 -91q88 -91 88 -251v-105h-252v74q0 137 -108 137q-54 0 -90 -33q-35 -30 -72 -118l-438 -1125h-277z" />
    <glyph glyph-name="uni01CD" unicode="&#x1cd;" horiz-adv-x="1447" 
d="M1124 0l-118 324h-576l-117 -324h-284l551 1425h288l551 -1425h-295zM518 565h402l-201 551zM575 1571l-253 307h258l145 -154l145 154h258l-254 -307h-299z" />
    <glyph glyph-name="uni01CE" unicode="&#x1ce;" horiz-adv-x="1114" 
d="M430 -31q-164 0 -264 92q-100 87 -100 242q0 166 118 256q121 92 332 92h215v39q0 97 -53 144q-52 43 -143 43q-76 0 -127 -31q-50 -30 -62 -72h-250q27 137 144 225q120 91 303 91q204 0 325 -103q119 -104 119 -323v-664h-239v131q-52 -83 -138 -123q-85 -39 -180 -39z
M496 178q52 0 110 25q53 24 90 73q35 47 35 121v68h-203q-101 0 -153 -37q-56 -41 -56 -109q0 -69 50 -104q49 -37 127 -37zM414 1204l-252 322h250l143 -166l143 166h250l-252 -322h-282z" />
    <glyph glyph-name="uni01CF" unicode="&#x1cf;" horiz-adv-x="602" 
d="M440 0h-278v1425h278v-1425zM152 1571l-254 307h258l145 -154l145 154h259l-254 -307h-299z" />
    <glyph glyph-name="uni01D0" unicode="&#x1d0;" horiz-adv-x="530" 
d="M135 0v1059h260v-1059h-260zM125 1202l-211 322h246l106 -150l107 150h245l-210 -322h-283z" />
    <glyph glyph-name="uni01D1" unicode="&#x1d1;" horiz-adv-x="1615" 
d="M807 -33q-156 0 -289 56q-140 59 -229 155q-101 109 -150 238q-53 136 -53 297q0 160 53 299q49 126 150 235q91 98 229 156q131 55 289 55q160 0 291 -55t229 -156q101 -109 150 -235q53 -139 53 -299q0 -161 -53 -297q-49 -129 -150 -238q-96 -99 -229 -155t-291 -56z
M807 217q128 0 229 64q98 61 156 174q55 110 55 258q0 147 -55 260q-58 110 -156 174q-101 61 -229 61q-127 0 -225 -61q-101 -64 -156 -174q-57 -111 -57 -260q0 -150 57 -258q55 -113 156 -174q98 -64 225 -64zM657 1571l-254 307h259l145 -154l145 154h258l-254 -307
h-299z" />
    <glyph glyph-name="uni01D2" unicode="&#x1d2;" horiz-adv-x="1208" 
d="M604 -31q-151 0 -274 72q-120 71 -189 199q-67 125 -67 290q0 168 67 293t189 197q119 70 274 70q158 0 277 -70q117 -69 186 -197q68 -127 68 -293q0 -163 -68 -290q-70 -131 -186 -199q-123 -72 -277 -72zM604 201q118 0 193 90q73 88 73 239q0 152 -73 240t-193 88
q-119 0 -192 -88q-74 -89 -74 -240q0 -150 74 -239q75 -90 192 -90zM463 1204l-252 322h250l143 -166l144 166h249l-252 -322h-282z" />
    <glyph glyph-name="uni01D3" unicode="&#x1d3;" horiz-adv-x="1523" 
d="M762 -33q-201 0 -340 80q-138 79 -209 225q-72 147 -72 342v811h279v-778q0 -200 82 -313q80 -117 260 -117t262 117q80 115 80 313v778h278v-811q0 -201 -69 -342q-71 -146 -209 -225q-139 -80 -342 -80zM612 1571l-254 307h258l146 -154l145 154h258l-254 -307h-299z
" />
    <glyph glyph-name="uni01D4" unicode="&#x1d4;" horiz-adv-x="1193" 
d="M799 434v625h260v-1059h-250v123q-53 -74 -127 -113q-72 -41 -170 -41q-182 0 -285 121q-100 118 -100 313v656h260v-625q0 -101 53 -166t150 -65q94 0 151 63q58 61 58 168zM453 1204l-252 322h250l143 -166l143 166h250l-252 -322h-282z" />
    <glyph glyph-name="uni01D5" unicode="&#x1d5;" horiz-adv-x="1523" 
d="M762 -33q-201 0 -340 80q-138 79 -209 225q-72 147 -72 342v811h279v-778q0 -200 82 -313q80 -117 260 -117t262 117q80 115 80 313v778h278v-811q0 -201 -69 -342q-71 -146 -209 -225q-139 -80 -342 -80zM1114 1669q0 -53 -41 -94q-39 -39 -98 -39q-57 0 -96 39t-39 94
q0 59 39 98t96 39q59 0 98 -39q41 -41 41 -98zM684 1669q0 -53 -41 -94q-39 -39 -98 -39q-57 0 -96 39t-39 94q0 59 39 98t96 39q59 0 98 -39q41 -41 41 -98zM426 2071h672v-187h-672v187z" />
    <glyph glyph-name="uni01D6" unicode="&#x1d6;" horiz-adv-x="1193" 
d="M799 434v625h260v-1059h-250v123q-53 -74 -127 -113q-72 -41 -170 -41q-182 0 -285 121q-100 118 -100 313v656h260v-625q0 -101 53 -166t150 -65q94 0 151 63q58 61 58 168zM801 1219q-58 0 -96 38q-39 36 -39 93q0 55 39 94t96 39q55 0 94 -39t39 -94q0 -57 -39 -93
q-38 -38 -94 -38zM387 1219q-54 0 -92 38q-39 36 -39 93q0 55 39 94t92 39q57 0 96 -39t39 -94q0 -57 -39 -93q-38 -38 -96 -38zM268 1778h650v-185h-650v185z" />
    <glyph glyph-name="uni01D7" unicode="&#x1d7;" horiz-adv-x="1523" 
d="M762 -33q-201 0 -340 80q-138 79 -209 225q-72 147 -72 342v811h279v-778q0 -200 82 -313q80 -117 260 -117t262 117q80 115 80 313v778h278v-811q0 -201 -69 -342q-71 -146 -209 -225q-139 -80 -342 -80zM1114 1669q0 -53 -41 -94q-39 -39 -98 -39q-57 0 -96 39t-39 94
q0 59 39 98t96 39q59 0 98 -39q41 -41 41 -98zM684 1669q0 -53 -41 -94q-39 -39 -98 -39q-57 0 -96 39t-39 94q0 59 39 98t96 39q59 0 98 -39q41 -41 41 -98zM872 1831h-225l154 252h258z" />
    <glyph glyph-name="uni01D8" unicode="&#x1d8;" horiz-adv-x="1193" 
d="M799 434v625h260v-1059h-250v123q-53 -74 -127 -113q-72 -41 -170 -41q-182 0 -285 121q-100 118 -100 313v656h260v-625q0 -101 53 -166t150 -65q94 0 151 63q58 61 58 168zM801 1219q-58 0 -96 38q-39 36 -39 93q0 55 39 94t96 39q55 0 94 -39t39 -94q0 -57 -39 -93
q-38 -38 -94 -38zM387 1219q-54 0 -92 38q-39 36 -39 93q0 55 39 94t92 39q57 0 96 -39t39 -94q0 -57 -39 -93q-38 -38 -96 -38zM696 1540h-217l154 322h250z" />
    <glyph glyph-name="uni01D9" unicode="&#x1d9;" horiz-adv-x="1523" 
d="M762 -33q-201 0 -340 80q-138 79 -209 225q-72 147 -72 342v811h279v-778q0 -200 82 -313q80 -117 260 -117t262 117q80 115 80 313v778h278v-811q0 -201 -69 -342q-71 -146 -209 -225q-139 -80 -342 -80zM1114 1669q0 -53 -41 -94q-39 -39 -98 -39q-57 0 -96 39t-39 94
q0 59 39 98t96 39q59 0 98 -39q41 -41 41 -98zM684 1669q0 -53 -41 -94q-39 -39 -98 -39q-57 0 -96 39t-39 94q0 59 39 98t96 39q59 0 98 -39q41 -41 41 -98zM373 2085h245l144 -129l143 129h246l-246 -250h-287z" />
    <glyph glyph-name="uni01DA" unicode="&#x1da;" horiz-adv-x="1193" 
d="M799 434v625h260v-1059h-250v123q-53 -74 -127 -113q-72 -41 -170 -41q-182 0 -285 121q-100 118 -100 313v656h260v-625q0 -101 53 -166t150 -65q94 0 151 63q58 61 58 168zM801 1219q-58 0 -96 38q-39 36 -39 93q0 55 39 94t96 39q55 0 94 -39t39 -94q0 -57 -39 -93
q-38 -38 -94 -38zM387 1219q-54 0 -92 38q-39 36 -39 93q0 55 39 94t92 39q57 0 96 -39t39 -94q0 -57 -39 -93q-38 -38 -96 -38zM453 1544l-234 293h234l141 -164l141 164h234l-234 -293h-282z" />
    <glyph glyph-name="uni01DB" unicode="&#x1db;" horiz-adv-x="1523" 
d="M762 -33q-201 0 -340 80q-138 79 -209 225q-72 147 -72 342v811h279v-778q0 -200 82 -313q80 -117 260 -117t262 117q80 115 80 313v778h278v-811q0 -201 -69 -342q-71 -146 -209 -225q-139 -80 -342 -80zM1114 1669q0 -53 -41 -94q-39 -39 -98 -39q-57 0 -96 39t-39 94
q0 59 39 98t96 39q59 0 98 -39q41 -41 41 -98zM684 1669q0 -53 -41 -94q-39 -39 -98 -39q-57 0 -96 39t-39 94q0 59 39 98t96 39q59 0 98 -39q41 -41 41 -98zM651 1831l-186 252h258l154 -252h-226z" />
    <glyph glyph-name="uni01DC" unicode="&#x1dc;" horiz-adv-x="1193" 
d="M799 434v625h260v-1059h-250v123q-53 -74 -127 -113q-72 -41 -170 -41q-182 0 -285 121q-100 118 -100 313v656h260v-625q0 -101 53 -166t150 -65q94 0 151 63q58 61 58 168zM801 1219q-58 0 -96 38q-39 36 -39 93q0 55 39 94t96 39q55 0 94 -39t39 -94q0 -57 -39 -93
q-38 -38 -94 -38zM387 1219q-54 0 -92 38q-39 36 -39 93q0 55 39 94t92 39q57 0 96 -39t39 -94q0 -57 -39 -93q-38 -38 -96 -38zM489 1540l-184 322h250l154 -322h-220z" />
    <glyph glyph-name="uni01DD" unicode="&#x1dd;" horiz-adv-x="1155" 
d="M555 1090q162 0 283 -68q114 -69 180 -197q63 -123 63 -301q0 -159 -61 -284q-66 -128 -180 -197q-118 -74 -279 -74q-230 0 -358 152q-125 149 -125 397v94h741q-35 265 -266 265q-73 0 -125 -25q-52 -24 -70 -64h-262q41 139 162 220q119 82 297 82zM563 182
q108 0 172 64q66 63 84 178h-487q3 -108 63 -174q59 -68 168 -68z" />
    <glyph glyph-name="uni01F8" unicode="&#x1f8;" horiz-adv-x="1570" 
d="M162 0v1425h270l707 -999v999h270v-1425h-270l-707 999v-999h-270zM672 1571l-211 307h282l181 -307h-252z" />
    <glyph glyph-name="uni01F9" unicode="&#x1f9;" horiz-adv-x="1204" 
d="M395 623v-623h-260v1059h250v-125q114 156 320 156q171 0 272 -119q100 -118 100 -314v-657h-260v618q0 111 -49 175q-51 63 -154 63q-91 0 -155 -61q-64 -64 -64 -172zM498 1204l-185 322h273l155 -322h-243z" />
    <glyph glyph-name="Aringacute" unicode="&#x1fa;" horiz-adv-x="1447" 
d="M600 1849l139 260h262l-165 -260h-236zM29 0l522 1352q-37 31 -59 84q-23 51 -23 102q0 70 35 129q34 58 92 92q56 33 129 33q75 0 131 -33q58 -34 92 -92q33 -56 33 -129q0 -53 -23 -104q-21 -50 -61 -84l522 -1350h-295l-118 324h-576l-117 -324h-284zM725 1427
q45 0 78 33q33 29 33 78q0 47 -33 80q-36 31 -78 31t-78 -31q-33 -33 -33 -80q0 -49 33 -78q33 -33 78 -33zM518 565h402l-201 551z" />
    <glyph glyph-name="aringacute" unicode="&#x1fb;" horiz-adv-x="1114" 
d="M430 -31q-164 0 -264 92q-100 87 -100 242q0 166 118 256q121 92 332 92h215v39q0 97 -53 144q-52 43 -143 43q-76 0 -127 -31q-50 -30 -62 -72h-250q27 137 144 225q120 91 303 91q204 0 325 -103q119 -104 119 -323v-664h-239v131q-52 -83 -138 -123q-85 -39 -180 -39z
M496 178q52 0 110 25q53 24 90 73q35 47 35 121v68h-203q-101 0 -153 -37q-56 -41 -56 -109q0 -69 50 -104q49 -37 127 -37zM555 1159q-72 0 -131 35t-94 94t-35 129q0 72 35 131q33 56 94 92q59 35 131 35q74 0 133 -35q58 -34 92 -92q35 -59 35 -131q0 -70 -35 -129
q-36 -61 -92 -94q-59 -35 -133 -35zM555 1307q48 0 80 32q31 31 31 78q0 44 -31 80q-36 31 -80 31q-47 0 -78 -31q-33 -33 -33 -80q0 -49 33 -78q28 -32 78 -32zM668 1735h-252l180 307h283z" />
    <glyph glyph-name="AEacute" unicode="&#x1fc;" horiz-adv-x="2203" 
d="M315 0h-307l920 1425h1149v-243h-752v-334h727v-244h-727v-360h762v-244h-1038v324h-535zM662 565h387v631zM1624 1571h-252l180 307h283z" />
    <glyph glyph-name="aeacute" unicode="&#x1fd;" horiz-adv-x="1816" 
d="M453 -31q-175 0 -281 92q-106 87 -106 242q0 166 116 254t330 88h219v45q0 100 -53 144q-52 43 -143 43q-76 0 -127 -31q-50 -30 -62 -72h-250q27 136 142 225q117 91 297 91q260 0 362 -181q62 92 160 138q93 43 207 43q149 0 258 -68q104 -65 161 -191q56 -124 56 -288
v-82h-742q27 -279 267 -279q72 0 127 25q50 24 67 63h262q-41 -141 -159 -219q-122 -82 -297 -82q-144 0 -250 56q-103 55 -168 157q-58 -103 -162 -157q-106 -56 -231 -56zM1253 877q-102 0 -168 -60q-63 -57 -84 -172h484q-6 104 -64 168t-168 64zM496 178q54 0 112 25
q54 25 88 73q35 47 35 121v64h-203q-103 0 -153 -33q-56 -35 -56 -104q0 -66 50 -107q48 -39 127 -39zM1008 1204h-244l156 322h272z" />
    <glyph glyph-name="Oslashacute" unicode="&#x1fe;" horiz-adv-x="1615" 
d="M152 -100l165 252q-110 103 -170 245q-61 143 -61 316q0 160 53 299q49 126 150 235q91 98 229 156q131 55 287 55q175 0 328 -72l92 140h239l-166 -252q110 -104 170 -244q62 -145 62 -317q0 -161 -53 -297q-49 -129 -150 -238q-96 -99 -229 -155t-293 -56
q-172 0 -322 72l-92 -139h-239zM358 713q0 -97 29 -189q28 -90 78 -151l530 805q-85 39 -188 39q-131 0 -232 -64q-100 -63 -159 -178q-58 -113 -58 -262zM807 209q130 0 233 65q101 64 160 179q57 111 57 260q0 106 -26 188q-28 88 -80 152l-530 -805q82 -39 186 -39z
M920 1571h-252l180 307h282z" />
    <glyph glyph-name="oslashacute" unicode="&#x1ff;" horiz-adv-x="1208" 
d="M100 -104l138 215q-79 79 -121 184q-43 107 -43 235q0 166 67 291t189 197q123 72 274 72q120 0 221 -46l76 119h207l-137 -215q80 -80 121 -182q43 -107 43 -236q0 -163 -68 -290q-70 -131 -186 -199q-123 -72 -277 -72q-122 0 -221 45l-76 -118h-207zM330 530
q0 -120 45 -200l330 522q-46 18 -101 18q-119 0 -196 -92q-78 -93 -78 -248zM604 188q121 0 199 93q76 91 76 249q0 119 -45 199l-330 -522q49 -19 100 -19zM713 1204h-244l156 322h272z" />
    <glyph glyph-name="uni0218" unicode="&#x218;" horiz-adv-x="1308" 
d="M668 -33q-249 0 -406 115q-159 116 -205 319h279q27 -85 115 -137q86 -53 213 -53q120 0 200 47q78 47 78 133q0 48 -22 90q-22 39 -84 66q-61 27 -179 45l-159 26q-200 35 -297 127q-101 94 -101 271q0 132 74 235q70 98 197 154q124 53 276 53q226 0 375 -104
q152 -109 186 -310h-278q-21 87 -94 130q-73 40 -187 40q-128 0 -196 -45q-72 -47 -72 -129q0 -74 55 -114q54 -41 215 -68l154 -24q420 -67 420 -416q0 -140 -72 -244q-70 -101 -197 -154q-120 -53 -288 -53zM520 -545q51 74 66 99q42 81 47 92q-51 9 -86 39q-33 33 -33 84
q0 54 43 94q39 39 109 39q75 0 118 -43t43 -111q0 -66 -30 -137q-29 -66 -95 -156h-182z" />
    <glyph glyph-name="uni0219" unicode="&#x219;" horiz-adv-x="1030" 
d="M532 -31q-195 0 -319 92q-123 87 -145 238h249q9 -47 68 -82t141 -35q84 0 131 33q48 31 48 84q0 46 -37 76q-39 31 -129 43l-154 20q-151 21 -225 101q-74 77 -74 204q0 107 55 183q56 77 152 121q93 43 217 43q127 0 217 -43t147 -115q55 -72 70 -160h-248
q-16 52 -61 78q-50 27 -121 27q-81 0 -125 -33q-47 -35 -47 -86q0 -47 37 -68q40 -25 123 -37l151 -20q154 -21 232 -111t78 -213q0 -103 -56 -180q-59 -77 -153 -117q-98 -43 -222 -43zM397 -545q51 74 66 99q42 81 47 92q-51 9 -86 39q-33 33 -33 84q0 54 43 94
q39 39 109 39q76 0 119 -43t43 -111q0 -64 -31 -137q-31 -69 -94 -156h-183z" />
    <glyph glyph-name="uni021A" unicode="&#x21a;" horiz-adv-x="1380" 
d="M829 0h-278v1182h-475v243h1229v-243h-476v-1182zM541 -545q44 64 65 99q42 81 47 92q-51 9 -86 39q-32 32 -32 84q0 54 43 94q39 39 108 39q76 0 119 -43t43 -111q0 -64 -31 -137q-31 -69 -94 -156h-182z" />
    <glyph glyph-name="uni021B" unicode="&#x21b;" horiz-adv-x="745" 
d="M541 -8q-161 0 -246 88q-88 85 -88 254v500h-172v225h172v321q136 6 260 43v-364h209v-225h-209v-472q0 -70 35 -108q34 -37 98 -37h76v-225h-135zM303 -545q51 74 66 99q42 81 47 92q-51 9 -86 39q-33 33 -33 84q0 54 43 94q39 39 109 39q75 0 118 -43t43 -111
q0 -66 -30 -137q-29 -66 -95 -156h-182z" />
    <glyph glyph-name="uni0232" unicode="&#x232;" horiz-adv-x="1372" 
d="M547 0v535l-522 890h317l350 -630l350 630h306l-523 -890v-535h-278zM350 1831h672v-205h-672v205z" />
    <glyph glyph-name="uni0233" unicode="&#x233;" horiz-adv-x="1134" 
d="M260 -420l174 420l-416 1059h297l263 -756l258 756h280l-577 -1479h-279zM250 1473h647v-201h-647v201z" />
    <glyph glyph-name="uni0237" unicode="&#x237;" horiz-adv-x="534" 
d="M-53 -420v225h59q63 0 98 41q33 42 33 117v1096h260v-1127q0 -167 -84 -260q-86 -92 -245 -92h-121z" />
    <glyph glyph-name="uni024C" unicode="&#x24c;" horiz-adv-x="1462" 
d="M225 0v494h-164v241h164v690h582q264 0 410 -125q145 -127 145 -337q0 -153 -78 -263q-80 -109 -211 -161l352 -539h-323l-314 494h-284v-494h-279zM504 1184v-449h266q158 0 236 60q73 58 73 170q0 113 -73 165q-79 54 -236 54h-266z" />
    <glyph glyph-name="uni024D" unicode="&#x24d;" horiz-adv-x="806" 
d="M164 0v356h-144v162h144v541h250v-176q48 86 127 137q77 47 172 47h41v-246h-49q-118 0 -199 -78q-82 -76 -82 -225h330v-162h-330v-356h-260z" />
    <glyph glyph-name="uni0250" unicode="&#x250;" horiz-adv-x="1114" 
d="M684 1090q161 0 266 -91q99 -92 99 -243q0 -165 -119 -256q-121 -92 -332 -92h-215v-39q0 -98 53 -142q51 -45 144 -45q76 0 127 31q48 29 61 72h250q-28 -138 -144 -226q-119 -90 -303 -90q-205 0 -325 105q-119 101 -119 321v664h240v-131q53 84 139 123q82 39 178 39z
M383 662v-68h203q102 0 155 39q54 39 54 106q0 69 -50 107q-50 35 -127 35q-53 0 -108 -25q-55 -24 -90 -74q-37 -49 -37 -120z" />
    <glyph glyph-name="uni0251" unicode="&#x251;" horiz-adv-x="1284" 
d="M516 -31q-131 0 -231 72q-101 70 -156 195t-55 292q0 170 57 293q59 127 160 197q104 72 239 72q104 0 187 -50q85 -51 139 -143q12 79 31 162h248q-25 -159 -37 -262q-15 -132 -15 -250v-74q0 -151 27 -203q24 -53 102 -53h23v-225h-78q-244 0 -293 186
q-50 -95 -143 -153q-92 -56 -205 -56zM588 201q110 0 182 90q68 89 68 237q0 151 -68 240q-72 90 -182 90q-111 0 -180 -90q-70 -88 -70 -240q0 -149 70 -237q69 -90 180 -90z" />
    <glyph glyph-name="uni0253" unicode="&#x253;" horiz-adv-x="1251" 
d="M135 0v1081q0 205 109 305q108 99 309 99h147v-209h-120q-187 0 -187 -205v-151q53 73 135 118q80 41 181 41q139 0 245 -69q105 -71 164 -197q60 -129 60 -287q0 -157 -60 -286t-164 -199q-110 -72 -245 -72q-110 0 -187 45q-82 46 -137 125v-139h-250zM649 201
q116 0 191 90q73 88 73 233q0 148 -73 236t-191 88q-117 0 -190 -88q-76 -88 -76 -236q0 -145 76 -233q75 -90 190 -90z" />
    <glyph glyph-name="uni0254" unicode="&#x254;" horiz-adv-x="1120" 
d="M524 -31q-133 0 -229 51q-94 47 -156 134q-58 82 -73 190h262q12 -65 63 -104q48 -39 137 -39q111 0 183 90q69 87 69 239q0 153 -69 240q-70 88 -183 88q-88 0 -135 -41q-49 -43 -61 -108h-266q15 107 73 192t156 137t229 52q158 0 277 -72q116 -70 182 -199
q64 -125 64 -289q0 -165 -64 -290q-66 -129 -182 -199q-119 -72 -277 -72z" />
    <glyph glyph-name="uni0257" unicode="&#x257;" horiz-adv-x="1323" 
d="M543 -31q-135 0 -242 72q-106 69 -166 199q-61 125 -61 290q0 168 61 293q59 127 166 197q104 70 242 70q102 0 182 -41q81 -44 135 -119v203q0 172 90 262t250 90h107v-223h-52q-62 0 -100 -35q-37 -37 -37 -127v-1100h-250v139q-51 -78 -135 -125q-80 -45 -190 -45z
M604 201q117 0 195 90q73 88 73 239q0 152 -73 240q-76 88 -195 88q-117 0 -190 -88q-76 -88 -76 -240q0 -151 76 -239q75 -90 190 -90z" />
    <glyph glyph-name="uni0258" unicode="&#x258;" horiz-adv-x="1155" 
d="M555 -31q-178 0 -297 82q-121 78 -162 219h262q17 -39 70 -63q52 -25 125 -25q231 0 266 264h-741v95q0 250 125 399q126 150 358 150q160 0 279 -72q115 -72 180 -199q61 -125 61 -284q0 -179 -63 -302q-65 -128 -180 -194q-119 -70 -283 -70zM563 877q-113 0 -172 -68
q-59 -71 -59 -174h487q-17 113 -84 180q-65 62 -172 62z" />
    <glyph glyph-name="uni0259" unicode="&#x259;" horiz-adv-x="1155" 
d="M555 1090q162 0 283 -68q114 -69 180 -197q63 -123 63 -301q0 -159 -61 -284q-66 -128 -180 -197q-118 -74 -279 -74q-230 0 -358 152q-125 149 -125 397v94h741q-35 265 -266 265q-73 0 -125 -25q-52 -24 -70 -64h-262q41 139 162 220q119 82 297 82zM563 182
q108 0 172 64q66 63 84 178h-487q3 -108 63 -174q59 -68 168 -68z" />
    <glyph glyph-name="uni025B" unicode="&#x25b;" horiz-adv-x="1099" 
d="M545 -31q-147 0 -246 41q-104 39 -164 111q-57 69 -57 164q0 96 65 161q66 66 170 93q-96 26 -153 92q-56 65 -56 153t58 158q57 70 153 109q95 39 224 39q190 0 315 -82q122 -80 164 -242h-254q-26 57 -82 84t-133 27q-90 0 -137 -33q-52 -34 -52 -90q0 -53 50 -88
t139 -35h215v-195h-205q-101 0 -160 -30q-59 -35 -59 -97q0 -65 57 -94q56 -33 154 -33q84 0 145 25q57 20 82 82h260q-47 -164 -172 -240q-130 -80 -321 -80z" />
    <glyph glyph-name="uni0261" unicode="&#x261;" 
d="M541 4q-138 0 -242 70q-108 71 -166 192q-59 124 -59 281q0 156 59 280q58 123 166 193q104 70 242 70q108 0 190 -46t137 -122v137h250v-1018q0 -235 -133 -365q-136 -127 -369 -127q-198 0 -335 93q-133 90 -168 235h270q28 -48 84 -74q61 -28 143 -28q120 0 185 59
t65 186v142q-57 -75 -135 -115q-82 -43 -184 -43zM602 236q119 0 195 88q75 84 75 225t-75 225q-77 86 -195 86q-114 0 -188 -86q-76 -85 -76 -225t76 -225q73 -88 188 -88z" />
    <glyph glyph-name="uni0263" unicode="&#x263;" horiz-adv-x="1206" 
d="M604 -451q-143 0 -221 78t-78 189q0 51 14 94q10 39 48 113q6 12 36.5 70t53.5 100l-439 866h291l295 -656l295 656h289l-438 -866q48 -83 92 -166q30 -56 47 -109q12 -44 12 -90q0 -118 -78 -199q-77 -80 -219 -80zM522 -172q0 -40 23 -70q20 -26 59 -26q40 0 60 26
t20 70q0 33 -16 76q-15 41 -56 106l-10 17l-10 -17q-36 -60 -53 -106t-17 -76z" />
    <glyph glyph-name="uni026A" unicode="&#x26a;" horiz-adv-x="530" 
d="M135 0v1059h260v-1059h-260z" />
    <glyph glyph-name="uni0272" unicode="&#x272;" horiz-adv-x="1204" 
d="M-55 -420v225h59q63 0 98 41q33 42 33 117v1096h250v-125q114 156 320 156q171 0 272 -119q100 -118 100 -314v-657h-260v618q0 111 -49 175q-51 63 -154 63q-91 0 -155 -61q-64 -64 -64 -172v-691q0 -167 -84 -260q-86 -92 -245 -92h-121z" />
    <glyph glyph-name="uni0275" unicode="&#x275;" horiz-adv-x="1208" 
d="M604 -31q-151 0 -274 72q-120 71 -189 199q-67 125 -67 290q0 168 67 293q68 127 187 197t276 70q158 0 277 -70q117 -69 186 -197q68 -127 68 -293q0 -163 -68 -290q-70 -131 -186 -199q-123 -72 -277 -72zM604 870q-102 0 -176 -65q-77 -65 -98 -182h549
q-21 115 -97 182q-74 65 -178 65zM604 188q101 0 176 66q76 67 97 180h-545q21 -114 96 -180t176 -66z" />
    <glyph glyph-name="uni0283" unicode="&#x283;" horiz-adv-x="602" 
d="M602 1485v-221h-55q-76 0 -113 -43q-39 -45 -39 -117v-1159q0 -171 -94 -269q-96 -96 -262 -96h-113v221h58q72 0 112 43q39 45 39 117v1159q0 171 94 269q96 96 263 96h110z" />
    <glyph glyph-name="uni028A" unicode="&#x28a;" horiz-adv-x="1241" 
d="M621 199q194 0 194 250v286q0 158 78 242q76 82 240 82h67v-221h-18q-107 0 -107 -129v-260q0 -238 -127 -359t-327 -121q-201 0 -328 121t-127 359v260q0 129 -107 129h-18v221h68q163 0 239 -82q78 -84 78 -242v-286q0 -250 195 -250z" />
    <glyph glyph-name="uni02BB" unicode="&#x2bb;" horiz-adv-x="1198" 
d="M590 872q-78 0 -127 52q-51 51 -51 139q0 95 37 188q39 98 126 234h213q-67 -103 -104 -178q-34 -64 -51 -127q56 -12 90 -52q35 -41 35 -96q0 -65 -45 -110q-47 -50 -123 -50z" />
    <glyph glyph-name="circumflex" unicode="&#x2c6;" horiz-adv-x="1198" 
d="M207 1204l252 322h282l252 -322h-250l-143 166l-143 -166h-250z" />
    <glyph glyph-name="caron" unicode="&#x2c7;" horiz-adv-x="1198" 
d="M459 1204l-252 322h250l143 -166l143 166h250l-252 -322h-282z" />
    <glyph glyph-name="uni02C9" unicode="&#x2c9;" horiz-adv-x="1198" 
d="M276 1473h648v-201h-648v201z" />
    <glyph glyph-name="uni02CA" unicode="&#x2ca;" horiz-adv-x="1198" 
d="M629 1204h-244l156 322h272z" />
    <glyph glyph-name="uni02CB" unicode="&#x2cb;" horiz-adv-x="1198" 
d="M569 1204l-184 322h272l156 -322h-244z" />
    <glyph glyph-name="breve" unicode="&#x2d8;" horiz-adv-x="1198" 
d="M600 1192q-151 0 -252 90q-99 86 -108 242h213q9 -69 47 -107q39 -39 100 -39t100 39t48 107h213q-9 -154 -107 -242q-104 -90 -254 -90z" />
    <glyph glyph-name="dotaccent" unicode="&#x2d9;" horiz-adv-x="1198" 
d="M600 1202q-64 0 -111 47q-45 45 -45 111q0 68 45 113t111 45t111 -45t45 -113q0 -66 -45 -111q-47 -47 -111 -47z" />
    <glyph glyph-name="ring" unicode="&#x2da;" horiz-adv-x="1198" 
d="M600 1159q-72 0 -131 35t-94 94t-35 129q0 72 35 131q33 56 94 92q59 35 131 35q74 0 133 -35q58 -34 92 -92q35 -59 35 -131q0 -70 -35 -129q-36 -61 -92 -94q-59 -35 -133 -35zM600 1307q48 0 80 32q31 31 31 78q0 44 -31 80q-36 31 -80 31q-47 0 -78 -31
q-33 -33 -33 -80q0 -49 33 -78q28 -32 78 -32z" />
    <glyph glyph-name="ogonek" unicode="&#x2db;" horiz-adv-x="1198" 
d="M659 -514q-139 0 -217 63q-80 65 -80 170q0 208 283 334l103 -53q-101 -69 -132 -119q-36 -50 -36 -108q0 -59 38 -84q40 -29 95 -29h67v-174h-121z" />
    <glyph glyph-name="tilde" unicode="&#x2dc;" horiz-adv-x="1198" 
d="M756 1202q-42 0 -86 15q-44 12 -103 53q-41 25 -51 30q-25 7 -39 7q-59 0 -59 -66v-37h-189v80q0 100 60 160q59 59 153 59q45 0 86 -14q53 -18 103 -53q41 -25 53 -29q16 -8 37 -8q59 0 59 65v37h189v-78q0 -101 -60 -161t-153 -60z" />
    <glyph glyph-name="hungarumlaut" unicode="&#x2dd;" horiz-adv-x="1198" 
d="M592 1204l174 322h260l-203 -322h-231zM193 1204l155 322h260l-184 -322h-231z" />
    <glyph glyph-name="gravecomb" unicode="&#x300;" horiz-adv-x="0" 
d="M-109 1204l-184 322h273l155 -322h-244z" />
    <glyph glyph-name="acutecomb" unicode="&#x301;" horiz-adv-x="0" 
d="M109 1204h-244l155 322h273z" />
    <glyph glyph-name="uni0302" unicode="&#x302;" horiz-adv-x="0" 
d="M-393 1204l252 322h282l252 -322h-250l-143 166l-143 -166h-250z" />
    <glyph glyph-name="tildecomb" unicode="&#x303;" horiz-adv-x="0" 
d="M156 1202q-42 0 -86 15q-44 12 -103 53q-40 25 -53 30q-21 7 -37 7q-59 0 -59 -66v-37h-189v80q0 102 58 160q59 59 155 59q45 0 86 -14q53 -18 103 -53q41 -25 53 -29q16 -8 37 -8q59 0 59 65v37h189v-78q0 -101 -60 -161t-153 -60z" />
    <glyph glyph-name="uni0304" unicode="&#x304;" horiz-adv-x="0" 
d="M-324 1473h648v-201h-648v201z" />
    <glyph glyph-name="uni0306" unicode="&#x306;" horiz-adv-x="0" 
d="M0 1192q-150 0 -254 90q-97 87 -106 242h213q9 -69 47 -107q39 -39 100 -39t100 39q38 38 47 107h213q-9 -155 -106 -242q-104 -90 -254 -90z" />
    <glyph glyph-name="uni0307" unicode="&#x307;" horiz-adv-x="0" 
d="M-2 1202q-64 0 -111 47q-45 45 -45 111q0 68 45 113t111 45t111 -45t45 -113q0 -66 -45 -111q-47 -47 -111 -47z" />
    <glyph glyph-name="uni0308" unicode="&#x308;" horiz-adv-x="0" 
d="M223 1208q-61 0 -104 43q-43 40 -43 103q0 61 43 104q44 41 104 41q61 0 105 -41q43 -43 43 -104q0 -63 -43 -103q-43 -43 -105 -43zM-223 1208q-62 0 -105 43q-43 40 -43 103q0 61 43 104q44 41 105 41q60 0 104 -41q43 -43 43 -104q0 -63 -43 -103q-43 -43 -104 -43z
" />
    <glyph glyph-name="hookabovecomb" unicode="&#x309;" horiz-adv-x="0" 
d="M-125 1159l-37 141l86 25q47 13 82 31q27 15 27 47q0 51 -82 51h-162v158h193q121 0 186 -53q65 -56 65 -148q0 -71 -34 -111q-31 -40 -95 -69q-54 -24 -139 -47z" />
    <glyph glyph-name="uni030A" unicode="&#x30a;" horiz-adv-x="0" 
d="M0 1159q-74 0 -133 35q-56 33 -92 94q-35 59 -35 129q0 72 35 131q34 58 92 92q59 35 133 35t133 -35q58 -34 92 -92q35 -59 35 -131q0 -70 -35 -129q-36 -61 -92 -94q-59 -35 -133 -35zM0 1307q48 0 80 32q31 31 31 78q0 44 -31 80q-36 31 -80 31t-80 -31
q-31 -36 -31 -80q0 -47 31 -78q32 -32 80 -32z" />
    <glyph glyph-name="uni030B" unicode="&#x30b;" horiz-adv-x="0" 
d="M84 1204l174 322h260l-203 -322h-231zM-315 1204l155 322h260l-184 -322h-231z" />
    <glyph glyph-name="uni030C" unicode="&#x30c;" horiz-adv-x="0" 
d="M-141 1204l-252 322h250l143 -166l143 166h250l-252 -322h-282z" />
    <glyph glyph-name="uni0312" unicode="&#x312;" horiz-adv-x="0" 
d="M2 1180q-76 0 -119 43t-43 108q0 139 144 320h182q-55 -72 -76 -109q-40 -72 -55 -106q51 -9 86 -39q33 -33 33 -84q0 -53 -41 -94q-42 -39 -111 -39z" />
    <glyph glyph-name="uni0315" unicode="&#x315;" horiz-adv-x="0" 
d="M6 1008l6 477h238l-49 -477h-195z" />
    <glyph glyph-name="uni031B" unicode="&#x31b;" horiz-adv-x="0" 
d="M-223 1059q57 0 92 35t35 104v107h227v-134q0 -143 -84 -221q-83 -80 -244 -80h-108v189h82z" />
    <glyph glyph-name="dotbelowcomb" unicode="&#x323;" horiz-adv-x="0" 
d="M0 -438q-66 0 -111 45t-45 112q0 66 45 111q47 47 111 47t111 -47q45 -45 45 -111q0 -67 -45 -112t-111 -45z" />
    <glyph glyph-name="uni0326" unicode="&#x326;" horiz-adv-x="0" 
d="M-147 -545q46 67 63 99q30 51 49 92q-51 9 -86 39q-33 33 -33 84q0 53 41 94q42 39 111 39q76 0 119 -43t43 -111q0 -64 -31 -137q-31 -69 -94 -156h-182z" />
    <glyph glyph-name="uni0327" unicode="&#x327;" horiz-adv-x="0" 
d="M-190 -518v156h112q103 0 103 67q0 64 -93 64h-94l94 301h158l-59 -168q84 -3 141 -60q55 -58 55 -143q0 -101 -65 -160q-66 -57 -187 -57h-165z" />
    <glyph glyph-name="uni0328" unicode="&#x328;" horiz-adv-x="0" 
d="M37 -514q-139 0 -217 63q-80 65 -80 170q0 208 283 334l102 -53q-98 -67 -133 -119q-35 -53 -35 -108q0 -57 37 -84q44 -29 96 -29h68v-174h-121z" />
    <glyph glyph-name="uni0329" unicode="&#x329;" horiz-adv-x="0" 
d="M-119 -535v424h238v-424h-238z" />
    <glyph glyph-name="uni0338" unicode="&#x338;" horiz-adv-x="0" 
d="M-424 -301l719 1982h127l-717 -1982h-129z" />
    <glyph glyph-name="uni0344" unicode="&#x344;" horiz-adv-x="0" 
d="M-113 1579l156 356h256l-184 -356h-228zM-219 1208q-59 0 -100 41t-41 101q0 59 41 100t100 41t100 -41q43 -40 43 -100q0 -61 -43 -101q-41 -41 -100 -41zM219 1208q-59 0 -100 41q-43 40 -43 101q0 60 43 100q41 41 100 41t100 -41t41 -100q0 -60 -41 -101t-100 -41z
" />
    <glyph glyph-name="uni0374" unicode="&#x374;" horiz-adv-x="557" 
d="M74 922l180 503h231l-211 -503h-200z" />
    <glyph glyph-name="uni0375" unicode="&#x375;" horiz-adv-x="557" 
d="M74 -483l180 483h231l-211 -483h-200z" />
    <glyph glyph-name="uni037E" unicode="&#x37e;" horiz-adv-x="577" 
d="M49 -356q78 119 123 202q44 82 64 152q-56 12 -89 51q-32 38 -32 92q0 65 45 113q46 49 123 49q78 0 129 -51q49 -52 49 -139q0 -96 -47 -211q-46 -105 -146 -258h-219zM289 754q-73 0 -121 51q-51 51 -51 121t51 121q48 51 121 51q72 0 123 -51q49 -52 49 -121t-49 -121
q-51 -51 -123 -51z" />
    <glyph glyph-name="tonos" unicode="&#x384;" horiz-adv-x="1202" 
d="M389 1204l160 357h264l-186 -357h-238z" />
    <glyph glyph-name="dieresistonos" unicode="&#x385;" horiz-adv-x="1202" 
d="M487 1579l156 356h256l-184 -356h-228zM381 1208q-59 0 -100 41t-41 101q0 59 41 100t100 41q58 0 102 -41q41 -41 41 -100q0 -60 -41 -101q-44 -41 -102 -41zM819 1208q-59 0 -100 41q-43 40 -43 101q0 60 43 100q41 41 100 41q60 0 101 -41t41 -100q0 -60 -41 -101
t-101 -41z" />
    <glyph glyph-name="Alphatonos" unicode="&#x386;" horiz-adv-x="1550" 
d="M1227 0l-119 324h-576l-116 -324h-285l551 1425h289l551 -1425h-295zM621 565h401l-201 551zM31 1069l135 356h256l-164 -356h-227z" />
    <glyph glyph-name="anoteleia" unicode="&#x387;" horiz-adv-x="577" 
d="M289 754q-73 0 -121 51q-51 51 -51 121t51 121q48 51 121 51q72 0 123 -51q49 -52 49 -121t-49 -121q-51 -51 -123 -51z" />
    <glyph glyph-name="Epsilontonos" unicode="&#x388;" horiz-adv-x="1738" 
d="M584 0v1425h1028v-243h-750v-334h725v-244h-725v-360h760v-244h-1038zM31 1069l135 356h256l-164 -356h-227z" />
    <glyph glyph-name="Etatonos" unicode="&#x389;" horiz-adv-x="1996" 
d="M584 0v1425h278v-557h694v557h279v-1425h-279v625h-694v-625h-278zM31 1069l135 356h256l-164 -356h-227z" />
    <glyph glyph-name="Iotatonos" unicode="&#x38a;" horiz-adv-x="1024" 
d="M862 0h-278v1425h278v-1425zM31 1069l135 356h256l-164 -356h-227z" />
    <glyph glyph-name="Omicrontonos" unicode="&#x38c;" horiz-adv-x="1937" 
d="M1128 -33q-155 0 -288 56q-142 60 -230 155q-99 107 -149 238q-53 136 -53 297q0 160 53 299q50 128 149 235q90 97 230 156q131 55 288 55q160 0 291 -55q133 -56 230 -156q99 -107 149 -235q53 -139 53 -299q0 -161 -53 -297q-50 -131 -149 -238q-96 -98 -230 -155
q-133 -56 -291 -56zM1128 217q129 0 230 64q96 60 155 174q56 112 56 258q0 145 -56 260q-59 111 -155 174q-101 61 -230 61q-127 0 -225 -61q-99 -63 -155 -174q-58 -113 -58 -260q0 -148 58 -258q56 -114 155 -174q98 -64 225 -64zM31 1069l135 356h256l-164 -356h-227z
" />
    <glyph glyph-name="Upsilontonos" unicode="&#x38e;" horiz-adv-x="1882" 
d="M1057 0v535l-522 890h317l350 -630l350 630h306l-523 -890v-535h-278zM31 1069l135 356h256l-164 -356h-227z" />
    <glyph glyph-name="Omegatonos" unicode="&#x38f;" horiz-adv-x="1945" 
d="M397 0v244h265q-120 95 -185 233q-67 137 -67 299q0 144 53 271q52 125 147 217q92 89 228 143q125 51 282 51t285 -51q133 -54 225 -143q100 -97 150 -217q51 -122 51 -271q0 -158 -66 -299q-69 -141 -186 -233h264v-244h-604v233q136 75 223 213q86 133 86 299
q0 127 -53 236q-51 102 -149 166q-94 61 -226 61q-131 0 -225 -61q-99 -65 -150 -166q-53 -109 -53 -236q0 -166 86 -299q87 -138 223 -213v-233h-604zM31 1069l135 356h256l-164 -356h-227z" />
    <glyph glyph-name="iotadieresistonos" unicode="&#x390;" horiz-adv-x="634" 
d="M125 334v725h260v-697q0 -145 135 -145h74v-225h-135q-163 0 -248 88q-86 89 -86 254zM143 1577l156 356h256l-184 -356h-228zM37 1206q-59 0 -100 41t-41 101q0 59 41 100t100 41q58 0 102 -41q41 -41 41 -100q0 -60 -41 -101q-44 -41 -102 -41zM475 1206q-59 0 -100 41
q-43 40 -43 101q0 60 43 100q41 41 100 41t100 -41t41 -100q0 -60 -41 -101t-100 -41z" />
    <glyph glyph-name="Alpha" unicode="&#x391;" horiz-adv-x="1447" 
d="M1124 0l-118 324h-576l-117 -324h-284l551 1425h288l551 -1425h-295zM518 565h402l-201 551z" />
    <glyph glyph-name="Beta" unicode="&#x392;" horiz-adv-x="1406" 
d="M162 0v1425h616q230 0 359 -100q133 -103 133 -283q0 -217 -217 -299q136 -41 202 -127q66 -91 66 -208q0 -127 -64 -215q-66 -94 -180 -142q-114 -51 -274 -51h-641zM745 1190h-309v-340h309q121 0 185 43q65 41 65 127q0 170 -250 170zM780 614h-344v-378h344
q262 0 262 190q0 92 -67 141q-68 47 -195 47z" />
    <glyph glyph-name="Gamma" unicode="&#x393;" horiz-adv-x="1214" 
d="M162 0v1425h977v-243h-699v-1182h-278z" />
    <glyph glyph-name="uni0394" unicode="&#x394;" horiz-adv-x="1480" 
d="M885 1425l518 -1192v-233h-1325v233l516 1192h291zM360 244h746l-373 903z" />
    <glyph glyph-name="Epsilon" unicode="&#x395;" horiz-adv-x="1316" 
d="M162 0v1425h1028v-243h-750v-334h725v-244h-725v-360h760v-244h-1038z" />
    <glyph glyph-name="Zeta" unicode="&#x396;" horiz-adv-x="1290" 
d="M90 1425h1102v-233l-760 -948h772v-244h-1114v233l760 949h-760v243z" />
    <glyph glyph-name="Eta" unicode="&#x397;" horiz-adv-x="1574" 
d="M162 0v1425h278v-557h695v557h278v-1425h-278v625h-695v-625h-278z" />
    <glyph glyph-name="Theta" unicode="&#x398;" horiz-adv-x="1615" 
d="M807 -33q-156 0 -289 56q-140 59 -229 155q-101 109 -150 238q-53 136 -53 297q0 160 53 299q49 126 150 235q91 98 229 156q131 55 289 55q160 0 291 -55t229 -156q101 -109 150 -235q53 -139 53 -299q0 -161 -53 -297q-49 -129 -150 -238q-96 -99 -229 -155t-291 -56z
M807 213q131 0 231 63q98 64 156 177q57 111 57 260q0 147 -55 260q-58 113 -158 176t-231 63q-130 0 -227 -63q-100 -63 -158 -176q-57 -111 -57 -260t57 -260q59 -114 158 -177q97 -63 227 -63zM567 596v235h482v-235h-482z" />
    <glyph glyph-name="Iota" unicode="&#x399;" horiz-adv-x="602" 
d="M440 0h-278v1425h278v-1425z" />
    <glyph glyph-name="Kappa" unicode="&#x39a;" horiz-adv-x="1398" 
d="M162 0v1425h278v-577l572 577h336l-678 -682l712 -743h-362l-580 606v-606h-278z" />
    <glyph glyph-name="Lambda" unicode="&#x39b;" horiz-adv-x="1429" 
d="M1102 0l-391 1100l-396 -1100h-286l542 1425h289l541 -1425h-299z" />
    <glyph glyph-name="Mu" unicode="&#x39c;" horiz-adv-x="1832" 
d="M428 0h-266v1425h311l449 -729l438 729h311v-1425h-268v1034l-488 -801l-487 799v-1032z" />
    <glyph glyph-name="Nu" unicode="&#x39d;" horiz-adv-x="1570" 
d="M162 0v1425h270l707 -999v999h270v-1425h-270l-707 999v-999h-270z" />
    <glyph glyph-name="Xi" unicode="&#x39e;" horiz-adv-x="1269" 
d="M121 1182v243h1026v-243h-1026zM283 604v244h702v-244h-702zM109 0v244h1050v-244h-1050z" />
    <glyph glyph-name="Omicron" unicode="&#x39f;" horiz-adv-x="1615" 
d="M807 -33q-156 0 -289 56q-140 59 -229 155q-101 109 -150 238q-53 136 -53 297q0 160 53 299q49 126 150 235q91 98 229 156q131 55 289 55q160 0 291 -55t229 -156q101 -109 150 -235q53 -139 53 -299q0 -161 -53 -297q-49 -129 -150 -238q-96 -99 -229 -155t-291 -56z
M807 217q128 0 229 64q98 61 156 174q55 110 55 258q0 147 -55 260q-58 110 -156 174q-101 61 -229 61q-127 0 -225 -61q-101 -64 -156 -174q-57 -111 -57 -260q0 -150 57 -258q55 -113 156 -174q98 -64 225 -64z" />
    <glyph glyph-name="Pi" unicode="&#x3a0;" horiz-adv-x="1544" 
d="M162 0v1425h1220v-1425h-276v1182h-666v-1182h-278z" />
    <glyph glyph-name="Rho" unicode="&#x3a1;" horiz-adv-x="1357" 
d="M162 0v1425h563q270 0 416 -131q147 -132 147 -346q0 -216 -147 -348q-146 -131 -416 -131h-285v-469h-278zM440 711h248q166 0 242 61t76 176q0 113 -76 174q-77 62 -242 62h-248v-473z" />
    <glyph glyph-name="Sigma" unicode="&#x3a3;" horiz-adv-x="1261" 
d="M1176 244v-244h-1086v233l463 480l-463 479v233h1075v-243h-727l461 -469l-461 -469h738z" />
    <glyph glyph-name="Tau" unicode="&#x3a4;" horiz-adv-x="1380" 
d="M829 0h-278v1182h-475v243h1229v-243h-476v-1182z" />
    <glyph glyph-name="Upsilon" unicode="&#x3a5;" horiz-adv-x="1372" 
d="M547 0v535l-522 890h317l350 -630l350 630h306l-523 -890v-535h-278z" />
    <glyph glyph-name="Phi" unicode="&#x3a6;" horiz-adv-x="1710" 
d="M721 0v164q-189 12 -336 90q-145 75 -229 207q-84 128 -84 289q0 159 84 290q85 130 229 205q147 78 336 90v164h268v-164q188 -12 338 -90q145 -77 229 -205q82 -128 82 -290q0 -164 -82 -289q-83 -129 -229 -207q-150 -78 -338 -90v-164h-268zM350 750q0 -143 103 -238
q106 -99 270 -113v701q-166 -15 -270 -111q-103 -95 -103 -239zM1360 750q0 144 -103 239q-104 96 -270 111v-701q164 14 270 113q103 95 103 238z" />
    <glyph glyph-name="Chi" unicode="&#x3a7;" horiz-adv-x="1472" 
d="M35 0l528 741l-475 684h334l321 -473l312 473h329l-479 -682l533 -743h-336l-377 532l-363 -532h-327z" />
    <glyph glyph-name="Psi" unicode="&#x3a8;" horiz-adv-x="1638" 
d="M684 0v369q-272 30 -426 190q-156 159 -156 436v430h271v-430q0 -168 78 -258q77 -92 233 -116v804h270v-804q160 25 236 116q76 88 76 258v430h270v-430q0 -276 -154 -436q-157 -160 -428 -190v-369h-270z" />
    <glyph glyph-name="uni03A9" unicode="&#x3a9;" horiz-adv-x="1650" 
d="M102 0v244h265q-120 95 -185 233q-67 137 -67 299q0 144 53 271q52 125 147 217q92 89 228 143q125 51 282 51t285 -51q133 -54 225 -143q100 -97 150 -217q51 -122 51 -271q0 -158 -66 -299q-69 -141 -186 -233h264v-244h-604v233q136 75 223 213q86 133 86 299
q0 127 -53 236q-51 102 -149 166q-94 61 -226 61q-131 0 -225 -61q-98 -64 -149 -166q-54 -111 -54 -236q0 -166 86 -299q87 -137 224 -213v-233h-605z" />
    <glyph glyph-name="Iotadieresis" unicode="&#x3aa;" horiz-adv-x="602" 
d="M440 0h-278v1425h278v-1425zM532 1577q-61 0 -104 43q-43 40 -43 102t43 105q44 41 104 41q61 0 105 -41q43 -43 43 -105t-43 -102q-43 -43 -105 -43zM70 1577q-62 0 -105 43q-43 40 -43 102t43 105q44 41 105 41q60 0 104 -41q43 -43 43 -105t-43 -102q-43 -43 -104 -43
z" />
    <glyph glyph-name="Upsilondieresis" unicode="&#x3ab;" horiz-adv-x="1372" 
d="M547 0v535l-522 890h317l350 -630l350 630h306l-523 -890v-535h-278zM918 1577q-62 0 -105 43q-43 40 -43 102t43 105q44 41 105 41q60 0 104 -41q43 -43 43 -105t-43 -102q-43 -43 -104 -43zM455 1577q-62 0 -105 43q-43 40 -43 102t43 105q44 41 105 41q60 0 104 -41
q43 -43 43 -105t-43 -102q-43 -43 -104 -43z" />
    <glyph glyph-name="alphatonos" unicode="&#x3ac;" horiz-adv-x="1284" 
d="M516 -31q-131 0 -231 72q-101 70 -156 195t-55 292q0 170 57 293q59 127 160 197q104 72 239 72q104 0 187 -50q85 -51 139 -143q12 79 31 162h248q-25 -159 -37 -262q-15 -132 -15 -250v-74q0 -151 27 -203q24 -53 102 -53h23v-225h-78q-244 0 -293 186
q-50 -95 -143 -153q-92 -56 -205 -56zM588 201q110 0 182 90q68 89 68 237q0 151 -68 240q-72 90 -182 90q-111 0 -180 -90q-70 -88 -70 -240q0 -149 70 -237q69 -90 180 -90zM516 1204l160 357h264l-186 -357h-238z" />
    <glyph glyph-name="epsilontonos" unicode="&#x3ad;" horiz-adv-x="1099" 
d="M545 -31q-147 0 -246 41q-104 39 -164 111q-57 69 -57 164q0 96 65 161q66 66 170 93q-96 26 -153 92q-56 65 -56 153t58 158q57 70 153 109q95 39 224 39q190 0 315 -82q122 -80 164 -242h-254q-26 57 -82 84t-133 27q-90 0 -137 -33q-52 -34 -52 -90q0 -53 50 -88
t139 -35h215v-195h-205q-101 0 -160 -30q-59 -35 -59 -97q0 -65 57 -94q56 -33 154 -33q84 0 145 25q57 20 82 82h260q-47 -164 -172 -240q-130 -80 -321 -80zM424 1204l160 357h264l-186 -357h-238z" />
    <glyph glyph-name="etatonos" unicode="&#x3ae;" horiz-adv-x="1259" 
d="M872 -420v1038q0 112 -51 175t-151 63q-92 0 -156 -61q-63 -63 -63 -172v-623h-261v707q0 127 -110 127h-25v225h74q203 0 258 -150q53 84 141 133q88 48 195 48q191 0 301 -119q109 -121 109 -316v-1075h-261zM506 1204l160 357h264l-187 -357h-237z" />
    <glyph glyph-name="iotatonos" unicode="&#x3af;" horiz-adv-x="634" 
d="M125 334v725h260v-697q0 -145 135 -145h74v-225h-135q-163 0 -248 88q-86 89 -86 254zM125 1202l160 357h264l-187 -357h-237z" />
    <glyph glyph-name="upsilondieresistonos" unicode="&#x3b0;" horiz-adv-x="1189" 
d="M635 -31q-223 0 -344 133t-121 375v230q0 60 -25 96q-25 31 -82 31h-18v225h68q317 0 317 -326v-256q0 -140 49 -207q48 -69 156 -69q112 0 164 88q51 86 51 256q0 75 -12 166q-13 80 -37 184q-20 75 -53 164h264q50 -108 75 -250q25 -144 25 -260q0 -272 -125 -424
q-126 -156 -352 -156zM457 1577l155 356h256l-184 -356h-227zM350 1206q-59 0 -100 41t-41 101q0 59 41 100t100 41t103 -41q41 -41 41 -100q0 -60 -41 -101q-44 -41 -103 -41zM788 1206q-59 0 -100 41q-43 40 -43 101q0 60 43 100q41 41 100 41q60 0 101 -41t41 -100
q0 -60 -41 -101t-101 -41z" />
    <glyph glyph-name="alpha" unicode="&#x3b1;" horiz-adv-x="1284" 
d="M516 -31q-131 0 -231 72q-101 70 -156 195t-55 292q0 170 57 293q59 127 160 197q104 72 239 72q104 0 187 -50q85 -51 139 -143q12 79 31 162h248q-25 -159 -37 -262q-15 -132 -15 -250v-74q0 -151 27 -203q24 -53 102 -53h23v-225h-78q-244 0 -293 186
q-50 -95 -143 -153q-92 -56 -205 -56zM588 201q110 0 182 90q68 89 68 237q0 151 -68 240q-72 90 -182 90q-111 0 -180 -90q-70 -88 -70 -240q0 -149 70 -237q69 -90 180 -90z" />
    <glyph glyph-name="beta" unicode="&#x3b2;" horiz-adv-x="1210" 
d="M721 -31q-218 0 -326 156v-545h-260v1387q0 164 60 293q59 124 165 190q111 66 252 66q126 0 226 -50q98 -54 151 -139q55 -88 55 -207q0 -110 -59 -196q-57 -84 -158 -125q143 -39 226 -144q84 -110 84 -264q0 -123 -52 -217q-54 -97 -145 -149q-95 -56 -219 -56z
M395 498q0 -136 72 -217q71 -80 186 -80q105 0 162 63t57 164q0 122 -75 188q-77 68 -201 68h-61v205h55q83 0 137 57q55 58 55 146q0 83 -47 139q-47 53 -131 53q-91 0 -149 -70q-60 -72 -60 -208v-508z" />
    <glyph glyph-name="gamma" unicode="&#x3b3;" horiz-adv-x="1153" 
d="M451 -420v420l-230 618q-44 108 -57 134q-24 47 -51 65q-31 17 -64 17h-18v225h20q105 0 182 -23q66 -23 115 -90q44 -61 86 -186l172 -510q101 189 160 405q62 227 76 404h262q-18 -172 -70 -357q-55 -196 -133 -368q-83 -182 -190 -334v-420h-260z" />
    <glyph glyph-name="delta" unicode="&#x3b4;" horiz-adv-x="1183" 
d="M592 -31q-159 0 -273 60q-117 59 -180 161q-65 103 -65 238q0 146 82 262q81 120 229 189q-106 62 -152 135q-49 73 -49 170q0 92 60 170q58 75 166 119q107 43 252 43q86 0 172 -13q81 -15 145 -45v-211q-62 22 -137 37q-80 12 -168 12q-103 0 -164 -28q-61 -30 -61 -88
q0 -47 36 -76q36 -31 105 -68l147 -75q174 -88 275 -216q98 -125 98 -296q0 -139 -66 -250q-66 -110 -182 -168q-118 -62 -270 -62zM338 455q0 -113 72 -185q69 -69 182 -69q111 0 182 71q72 72 72 183q0 106 -70 188q-69 78 -190 137l-17 8q-231 -114 -231 -333z" />
    <glyph glyph-name="epsilon" unicode="&#x3b5;" horiz-adv-x="1099" 
d="M545 -31q-147 0 -246 41q-104 39 -164 111q-57 69 -57 164q0 96 65 161q66 66 170 93q-96 26 -153 92q-56 65 -56 153t58 158q57 70 153 109q95 39 224 39q190 0 315 -82q122 -80 164 -242h-254q-26 57 -82 84t-133 27q-90 0 -137 -33q-52 -34 -52 -90q0 -53 50 -88
t139 -35h215v-195h-205q-101 0 -160 -30q-59 -35 -59 -97q0 -65 57 -94q56 -33 154 -33q84 0 145 25q57 20 82 82h260q-47 -164 -172 -240q-130 -80 -321 -80z" />
    <glyph glyph-name="zeta" unicode="&#x3b6;" horiz-adv-x="923" 
d="M729 -317v75q0 105 -41 164q-43 58 -139 76l-86 16q-185 37 -287 142t-102 286q0 208 131 406q129 200 397 412h-463v225h781v-205q-291 -236 -435 -434q-147 -206 -147 -369q0 -111 59 -170q60 -60 176 -80l86 -16q155 -30 226 -129q67 -101 67 -307v-92h-223z" />
    <glyph glyph-name="eta" unicode="&#x3b7;" horiz-adv-x="1259" 
d="M872 -420v1038q0 112 -51 175t-151 63q-92 0 -156 -61q-63 -63 -63 -172v-623h-261v707q0 127 -110 127h-25v225h74q203 0 258 -150q53 84 141 133q88 48 195 48q191 0 301 -119q109 -121 109 -316v-1075h-261z" />
    <glyph glyph-name="theta" unicode="&#x3b8;" horiz-adv-x="1200" 
d="M600 -31q-163 0 -276 94q-118 92 -179 267q-61 174 -61 413q0 240 61 414q61 171 179 266q116 93 276 93t279 -93q115 -96 176 -266q61 -174 61 -414q0 -239 -61 -413q-61 -175 -176 -267q-116 -94 -279 -94zM600 1286q-116 0 -186 -104q-71 -106 -80 -322h532
q-9 216 -80 322q-70 104 -186 104zM600 199q117 0 188 108q69 106 78 332h-532q9 -223 80 -332q70 -108 186 -108z" />
    <glyph glyph-name="iota" unicode="&#x3b9;" horiz-adv-x="634" 
d="M125 334v725h260v-697q0 -145 135 -145h74v-225h-135q-163 0 -248 88q-86 89 -86 254z" />
    <glyph glyph-name="kappa" unicode="&#x3ba;" horiz-adv-x="1169" 
d="M135 0v1059h260v-426l285 266q86 80 170 123q78 37 172 37h31v-225h-29q-112 0 -231 -113l-144 -133l504 -588h-322l-356 424l-80 -74v-350h-260z" />
    <glyph glyph-name="lambda" unicode="&#x3bb;" horiz-adv-x="1140" 
d="M49 0l371 1006l-39 100q-34 82 -80 119q-50 35 -113 35h-49v225h54q165 0 260 -68q94 -70 155 -225l328 -844q27 -70 61 -100q36 -31 80 -31h33v-225h-39q-148 0 -225 59t-133 205l-170 440l-228 -696h-266z" />
    <glyph glyph-name="uni03BC" unicode="&#x3bc;" 
d="M135 -420v1479h260v-623q0 -105 56 -170q51 -63 147 -63q93 0 150 63q59 62 59 170v623h260v-715q0 -129 113 -129h24v-223h-82q-194 0 -250 145q-41 -78 -110 -123q-68 -45 -162 -45q-78 0 -133 27q-54 29 -88 78v-494h-244z" />
    <glyph glyph-name="nu" unicode="&#x3bd;" horiz-adv-x="1146" 
d="M449 0l-228 618q-44 113 -57 138q-23 45 -49 61q-31 17 -66 17h-18v225h20q109 0 182 -25q68 -23 115 -88q44 -61 86 -186l170 -504q95 181 152 389q59 213 80 414h262q-9 -108 -39 -240q-28 -125 -80 -272q-48 -140 -115 -283q-70 -144 -149 -264h-266z" />
    <glyph glyph-name="xi" unicode="&#x3be;" horiz-adv-x="970" 
d="M760 -317v75q0 105 -41 164q-43 58 -139 76l-86 16q-196 41 -301 133q-107 94 -107 250q0 141 82 242q81 101 219 135q-100 21 -164 94q-65 71 -65 172q0 73 39 129q36 56 104 91h-213v225h803v-225h-154q-155 0 -231 -46q-80 -47 -80 -145q0 -90 66 -141q64 -49 167 -49
h175v-226h-175q-146 0 -223 -51q-82 -52 -82 -156q0 -90 62 -143q58 -52 188 -76l86 -16q154 -30 225 -129q68 -103 68 -307v-92h-223z" />
    <glyph glyph-name="omicron" unicode="&#x3bf;" horiz-adv-x="1187" 
d="M594 -31q-151 0 -270 72q-119 70 -185 199q-65 127 -65 290q0 166 65 293q65 126 185 197q116 70 270 70t270 -70q117 -71 185 -197q65 -127 65 -293q0 -163 -65 -290q-69 -129 -185 -199q-119 -72 -270 -72zM594 201q115 0 186 92q70 88 70 237q0 150 -70 238
q-72 90 -186 90t-186 -90q-70 -88 -70 -238q0 -149 70 -237q71 -92 186 -92z" />
    <glyph glyph-name="pi" unicode="&#x3c0;" horiz-adv-x="1310" 
d="M225 0v834h-182v225h1196v-225h-180v-472q0 -145 131 -145h33v-225h-93q-163 0 -245 88q-86 86 -86 254v500h-314v-834h-260z" />
    <glyph glyph-name="rho" unicode="&#x3c1;" horiz-adv-x="1220" 
d="M121 -420v895q0 297 137 455q139 160 373 160q152 0 268 -70q117 -71 182 -197q66 -129 66 -293q0 -161 -60 -290q-60 -130 -163 -199q-107 -72 -240 -72q-96 0 -176 41q-78 39 -127 109v-539h-260zM629 201q113 0 184 92q70 88 70 237q0 150 -70 238q-72 90 -184 90
q-111 0 -183 -90q-71 -89 -71 -238q0 -148 71 -237q71 -92 183 -92z" />
    <glyph glyph-name="uni03C2" unicode="&#x3c2;" horiz-adv-x="1103" 
d="M780 -317v75q0 106 -37 164q-43 62 -131 76l-88 16q-209 40 -329 172q-121 133 -121 346q0 170 63 293q64 124 178 195q113 70 269 70q185 0 311 -105t147 -276h-264q-12 71 -63 110t-131 39q-113 0 -178 -86q-66 -87 -66 -229q0 -133 78 -211q79 -79 219 -105l86 -16
q149 -27 217 -129q66 -104 66 -307v-92h-226z" />
    <glyph glyph-name="sigma" unicode="&#x3c3;" horiz-adv-x="1265" 
d="M596 -31q-152 0 -270 68q-120 68 -185 188q-67 119 -67 279q0 263 162 409q161 146 436 146h545v-225h-269q79 -67 123 -160q43 -93 43 -193q0 -148 -63 -262q-64 -116 -181 -182q-118 -68 -274 -68zM594 201q115 0 186 86q70 85 70 219q0 103 -41 190q-47 88 -119 138
h-39q-139 0 -225 -89q-88 -88 -88 -239q0 -132 72 -219q71 -86 184 -86z" />
    <glyph glyph-name="tau" unicode="&#x3c4;" horiz-adv-x="1013" 
d="M664 -8q-163 0 -248 88q-86 89 -86 254v500h-291v225h905v-225h-354v-472q0 -145 133 -145h102v-225h-161z" />
    <glyph glyph-name="upsilon" unicode="&#x3c5;" horiz-adv-x="1189" 
d="M635 -31q-223 0 -344 133t-121 375v230q0 60 -25 96q-25 31 -82 31h-18v225h68q317 0 317 -326v-256q0 -140 49 -207q48 -69 156 -69q112 0 164 88q51 86 51 256q0 75 -12 166q-13 80 -37 184q-20 75 -53 164h264q50 -108 75 -250q25 -144 25 -260q0 -272 -125 -424
q-126 -156 -352 -156z" />
    <glyph glyph-name="phi" unicode="&#x3c6;" horiz-adv-x="1544" 
d="M645 -420v424q-175 15 -301 84q-133 71 -203 184q-73 113 -73 258q0 148 73 261q68 110 203 182q126 69 301 84v282q24 1 127 15q64 8 127 28v-325q174 -15 303 -84q132 -72 203 -182q72 -116 72 -261q0 -142 -72 -258q-73 -113 -203 -184q-129 -69 -303 -84v-424h-254z
M1221 530q0 130 -86 213q-92 85 -238 103v-633q149 18 238 104q86 83 86 213zM324 530q0 -131 88 -213q86 -86 235 -104v633q-146 -18 -235 -103q-88 -82 -88 -213z" />
    <glyph glyph-name="chi" unicode="&#x3c7;" horiz-adv-x="1097" 
d="M31 -420l377 748l-185 356q-45 84 -71 113q-34 37 -78 37h-37v225h33q94 0 159 -21q62 -20 113 -77q46 -55 96 -158l115 -228l238 484h266l-367 -729l197 -381q46 -87 78 -119q33 -33 73 -33h37v-225h-45q-84 0 -143 18q-61 22 -109 76t-104 166l-125 248l-254 -500h-264
z" />
    <glyph glyph-name="psi" unicode="&#x3c8;" horiz-adv-x="1521" 
d="M645 -420v397q-260 30 -405 187q-144 156 -144 409v486h254v-486q0 -147 78 -243q80 -99 217 -125v1134q133 6 254 43v-1179q287 59 287 422q0 211 -64 434h262q36 -131 48 -219q16 -122 16 -217q0 -274 -145 -445q-141 -166 -404 -201v-397h-254z" />
    <glyph glyph-name="omega" unicode="&#x3c9;" horiz-adv-x="1611" 
d="M485 -31q-188 0 -297 152q-110 149 -110 407q0 148 37 275q39 131 116 256h263q-78 -140 -117 -273q-37 -124 -37 -258q0 -154 49 -239q49 -88 139 -88q79 0 119 67q39 62 39 191v309h240v-309q0 -126 41 -191q40 -67 116 -67q91 0 140 88q49 85 49 239q0 134 -37 258
q-39 133 -117 273h262q79 -128 117 -256q37 -127 37 -275q0 -256 -109 -407q-112 -152 -299 -152q-120 0 -200 60q-85 60 -121 155q-33 -94 -119 -155q-80 -60 -201 -60z" />
    <glyph glyph-name="iotadieresis" unicode="&#x3ca;" horiz-adv-x="634" 
d="M125 334v725h260v-697q0 -145 135 -145h74v-225h-135q-163 0 -248 88q-86 89 -86 254zM479 1208q-61 0 -104 43q-43 40 -43 103q0 61 43 104q44 41 104 41q61 0 105 -41q43 -43 43 -104q0 -63 -43 -103q-43 -43 -105 -43zM33 1208q-62 0 -105 43q-43 40 -43 103
q0 61 43 104q44 41 105 41q60 0 104 -41q43 -43 43 -104q0 -63 -43 -103q-43 -43 -104 -43z" />
    <glyph glyph-name="upsilondieresis" unicode="&#x3cb;" horiz-adv-x="1189" 
d="M635 -31q-223 0 -344 133t-121 375v230q0 60 -25 96q-25 31 -82 31h-18v225h68q317 0 317 -326v-256q0 -140 49 -207q48 -69 156 -69q112 0 164 88q51 86 51 256q0 75 -12 166q-13 80 -37 184q-20 75 -53 164h264q50 -108 75 -250q25 -144 25 -260q0 -272 -125 -424
q-126 -156 -352 -156zM793 1208q-62 0 -105 43q-43 40 -43 103q0 61 43 104q44 41 105 41q60 0 104 -41q43 -43 43 -104q0 -63 -43 -103q-43 -43 -104 -43zM346 1208q-61 0 -104 43q-43 40 -43 103q0 61 43 104q44 41 104 41q61 0 105 -41q43 -43 43 -104q0 -63 -43 -103
q-43 -43 -105 -43z" />
    <glyph glyph-name="omicrontonos" unicode="&#x3cc;" horiz-adv-x="1187" 
d="M594 -31q-151 0 -270 72q-119 70 -185 199q-65 127 -65 290q0 166 65 293q65 126 185 197q116 70 270 70t270 -70q117 -71 185 -197q65 -127 65 -293q0 -163 -65 -290q-69 -129 -185 -199q-119 -72 -270 -72zM594 201q115 0 186 92q70 88 70 237q0 150 -70 238
q-72 90 -186 90t-186 -90q-70 -88 -70 -238q0 -149 70 -237q71 -92 186 -92zM463 1204l160 357h264l-187 -357h-237z" />
    <glyph glyph-name="upsilontonos" unicode="&#x3cd;" horiz-adv-x="1189" 
d="M635 -31q-223 0 -344 133t-121 375v230q0 60 -25 96q-25 31 -82 31h-18v225h68q317 0 317 -326v-256q0 -140 49 -207q48 -69 156 -69q112 0 164 88q51 86 51 256q0 75 -12 166q-13 80 -37 184q-20 75 -53 164h264q50 -108 75 -250q25 -144 25 -260q0 -272 -125 -424
q-126 -156 -352 -156zM438 1202l160 357h264l-186 -357h-238z" />
    <glyph glyph-name="omegatonos" unicode="&#x3ce;" horiz-adv-x="1611" 
d="M485 -31q-188 0 -297 152q-110 149 -110 407q0 148 37 275q39 131 116 256h263q-78 -140 -117 -273q-37 -124 -37 -258q0 -154 49 -239q49 -88 139 -88q79 0 119 67q39 62 39 191v309h240v-309q0 -126 41 -191q40 -67 116 -67q91 0 140 88q49 85 49 239q0 134 -37 258
q-39 133 -117 273h262q79 -128 117 -256q37 -127 37 -275q0 -256 -109 -407q-112 -152 -299 -152q-120 0 -200 60q-85 60 -121 155q-33 -94 -119 -155q-80 -60 -201 -60zM674 1202l160 357h264l-187 -357h-237z" />
    <glyph glyph-name="uni0400" unicode="&#x400;" horiz-adv-x="1316" 
d="M162 0v1425h1028v-243h-750v-334h725v-244h-725v-360h760v-244h-1038zM563 1571l-211 307h283l180 -307h-252z" />
    <glyph glyph-name="uni0401" unicode="&#x401;" horiz-adv-x="1316" 
d="M162 0v1425h1028v-243h-750v-334h725v-244h-725v-360h760v-244h-1038zM907 1577q-61 0 -104 43q-43 40 -43 102t43 105q44 41 104 41q61 0 105 -41q43 -43 43 -105t-43 -102q-43 -43 -105 -43zM444 1577q-61 0 -104 43q-43 40 -43 102t43 105q44 41 104 41q61 0 105 -41
q43 -43 43 -105t-43 -102q-43 -43 -105 -43z" />
    <glyph glyph-name="uni0402" unicode="&#x402;" horiz-adv-x="1710" 
d="M473 0v1182h-397v243h1122v-243h-448v-332q179 78 366 78q157 0 273 -58q119 -59 182 -165q65 -109 65 -246q0 -220 -153 -346q-155 -125 -430 -125h-47v231h47q137 0 221 66q82 64 82 174q0 103 -74 162q-75 57 -205 57q-187 0 -327 -90v-588h-277z" />
    <glyph glyph-name="uni0403" unicode="&#x403;" horiz-adv-x="1214" 
d="M162 0v1425h977v-243h-699v-1182h-278zM774 1571h-252l180 307h283z" />
    <glyph glyph-name="uni0404" unicode="&#x404;" horiz-adv-x="1472" 
d="M772 -33q-206 0 -358 94q-157 92 -242 261q-86 170 -86 391t86 391q84 166 242 262q154 92 358 92q245 0 410 -131q166 -131 215 -362h-287q-30 117 -119 182q-86 63 -221 63q-165 0 -266 -98q-104 -101 -131 -278h608v-234h-608q24 -181 129 -283t268 -102q132 0 223 61
q93 64 119 173h285q-46 -224 -213 -353q-170 -129 -412 -129z" />
    <glyph glyph-name="uni0405" unicode="&#x405;" horiz-adv-x="1308" 
d="M668 -33q-249 0 -406 115q-159 116 -205 319h279q27 -85 115 -137q86 -53 213 -53q120 0 200 47q78 47 78 133q0 48 -22 90q-22 39 -84 66q-61 27 -179 45l-159 26q-200 35 -297 127q-101 94 -101 271q0 132 74 235q70 98 197 154q124 53 276 53q226 0 375 -104
q152 -109 186 -310h-278q-21 87 -94 130q-73 40 -187 40q-128 0 -196 -45q-72 -47 -72 -129q0 -74 55 -114q54 -41 215 -68l154 -24q420 -67 420 -416q0 -140 -72 -244q-70 -101 -197 -154q-120 -53 -288 -53z" />
    <glyph glyph-name="uni0406" unicode="&#x406;" horiz-adv-x="602" 
d="M440 0h-278v1425h278v-1425z" />
    <glyph glyph-name="uni0407" unicode="&#x407;" horiz-adv-x="602" 
d="M440 0h-278v1425h278v-1425zM532 1577q-61 0 -104 43q-43 40 -43 102t43 105q44 41 104 41q61 0 105 -41q43 -43 43 -105t-43 -102q-43 -43 -105 -43zM70 1577q-62 0 -105 43q-43 40 -43 102t43 105q44 41 105 41q60 0 104 -41q43 -43 43 -105t-43 -102q-43 -43 -104 -43
z" />
    <glyph glyph-name="uni0408" unicode="&#x408;" horiz-adv-x="1255" 
d="M836 463v962h278v-970q0 -149 -61 -256q-65 -111 -179 -170q-118 -62 -280 -62q-155 0 -275 60q-118 58 -186 166q-68 109 -80 245h273q15 -107 84 -164t184 -57q105 0 174 66q68 65 68 180z" />
    <glyph glyph-name="uni0409" unicode="&#x409;" horiz-adv-x="2285" 
d="M47 -16v241h53q109 0 170 94q62 95 62 254v852h1042v-530h318q245 0 385 -119q139 -121 139 -327q0 -207 -139 -328q-142 -121 -385 -121h-596v1182h-508v-609q0 -176 -53 -309q-57 -135 -154 -207q-101 -73 -234 -73h-100zM1663 662h-289v-429h289q129 0 199 58
q71 59 71 158q0 98 -71 157q-71 56 -199 56z" />
    <glyph glyph-name="uni040A" unicode="&#x40a;" horiz-adv-x="2301" 
d="M162 0v1425h278v-544h666v544h278v-544h324q242 0 383 -117q141 -120 141 -324q0 -205 -139 -323q-141 -117 -385 -117h-602v647h-666v-647h-278zM1677 647h-293v-414h293q127 0 201 56q72 57 72 153q0 93 -72 150q-73 55 -201 55z" />
    <glyph glyph-name="uni040B" unicode="&#x40b;" horiz-adv-x="1738" 
d="M473 0v1182h-397v243h1122v-243h-448v-330q160 74 337 74q267 0 412 -148q143 -146 143 -420v-358h-278v328q0 350 -334 350q-167 0 -280 -78v-600h-277z" />
    <glyph glyph-name="uni040C" unicode="&#x40c;" horiz-adv-x="1427" 
d="M162 0v1425h276v-565h248l401 565h316l-500 -692l508 -733h-332l-422 616h-219v-616h-276zM856 1571h-252l180 307h283z" />
    <glyph glyph-name="uni040D" unicode="&#x40d;" horiz-adv-x="1597" 
d="M162 0v1425h276v-1011l738 1011h260v-1425h-277v1012l-739 -1012h-258zM688 1571l-211 307h283l180 -307h-252z" />
    <glyph glyph-name="uni040E" unicode="&#x40e;" horiz-adv-x="1437" 
d="M264 -8v235h72q162 0 256 97l-567 1101h309l411 -819l367 819h301l-522 -1089q-56 -121 -133 -201q-73 -73 -176 -108t-242 -35h-76zM709 1556q-173 0 -273 86q-98 84 -110 238h223q15 -143 160 -143q141 0 159 143h224q-12 -153 -111 -238q-100 -86 -272 -86z" />
    <glyph glyph-name="uni040F" unicode="&#x40f;" horiz-adv-x="1533" 
d="M162 0v1425h278v-1181h654v1181h278v-1425h-477v-338h-254v338h-479z" />
    <glyph glyph-name="uni0410" unicode="&#x410;" horiz-adv-x="1447" 
d="M1124 0l-118 324h-576l-117 -324h-284l551 1425h288l551 -1425h-295zM518 565h402l-201 551z" />
    <glyph glyph-name="uni0411" unicode="&#x411;" horiz-adv-x="1374" 
d="M162 0v1425h1046v-233h-770v-322h338q249 0 387 -114q137 -113 137 -320q0 -208 -137 -321q-139 -115 -387 -115h-614zM756 637h-318v-404h318q121 0 194 54q70 52 70 149q0 98 -70 150q-68 51 -194 51z" />
    <glyph glyph-name="uni0412" unicode="&#x412;" horiz-adv-x="1415" 
d="M162 0v1425h637q231 0 360 -100q131 -101 131 -278q0 -112 -57 -187q-59 -77 -162 -117q126 -41 193 -125q65 -86 65 -210q0 -187 -137 -297q-138 -111 -381 -111h-649zM768 1192h-332v-346h332q122 0 184 45q64 46 64 129q0 172 -248 172zM788 616h-352v-383h352
q263 0 263 193q0 91 -68 141q-70 49 -195 49z" />
    <glyph glyph-name="uni0413" unicode="&#x413;" horiz-adv-x="1214" 
d="M162 0v1425h977v-243h-699v-1182h-278z" />
    <glyph glyph-name="uni0414" unicode="&#x414;" horiz-adv-x="1679" 
d="M55 -338v576h148q70 46 110 159q39 110 39 275v753h1047v-1187h227v-576h-254v338h-1063v-338h-254zM612 672q0 -148 -34 -254q-37 -107 -101 -180h647v950h-512v-516z" />
    <glyph glyph-name="uni0415" unicode="&#x415;" horiz-adv-x="1316" 
d="M162 0v1425h1028v-243h-750v-334h725v-244h-725v-360h760v-244h-1038z" />
    <glyph glyph-name="uni0416" unicode="&#x416;" horiz-adv-x="2209" 
d="M16 0l504 735l-500 690h318l395 -565h234v565h276v-565h232l397 565h315l-497 -692l503 -733h-329l-420 616h-201v-616h-276v616h-203l-418 -616h-330z" />
    <glyph glyph-name="uni0417" unicode="&#x417;" horiz-adv-x="1316" 
d="M668 -31q-244 0 -398 115q-156 114 -196 324h280q21 -95 105 -148q80 -51 209 -51q132 0 209 53q75 51 75 150q0 94 -75 145q-77 53 -213 53h-156v228h145q133 0 201 51q72 51 72 135q0 88 -74 141q-73 52 -193 52t-196 -52q-81 -56 -101 -143h-274q52 206 203 321
q149 113 383 113q153 0 270 -51q115 -51 186 -143q68 -92 68 -207q0 -120 -63 -201q-63 -80 -181 -119q131 -38 203 -125q74 -89 74 -217q0 -124 -72 -221q-73 -98 -196 -149q-130 -54 -295 -54z" />
    <glyph glyph-name="uni0418" unicode="&#x418;" horiz-adv-x="1597" 
d="M162 0v1425h276v-1011l738 1011h260v-1425h-277v1012l-739 -1012h-258z" />
    <glyph glyph-name="uni0419" unicode="&#x419;" horiz-adv-x="1597" 
d="M162 0v1425h276v-1011l738 1011h260v-1425h-277v1012l-739 -1012h-258zM801 1556q-173 0 -273 86q-98 84 -110 238h223q15 -143 160 -143q142 0 160 143h223q-12 -153 -111 -238q-100 -86 -272 -86z" />
    <glyph glyph-name="uni041A" unicode="&#x41a;" horiz-adv-x="1427" 
d="M162 0v1425h276v-565h248l401 565h316l-500 -692l508 -733h-332l-422 616h-219v-616h-276z" />
    <glyph glyph-name="uni041B" unicode="&#x41b;" horiz-adv-x="1550" 
d="M47 -16v241h53q109 0 170 94q62 95 62 254v852h1057v-1425h-279v1182h-522v-609q0 -176 -53 -309q-57 -135 -154 -207q-101 -73 -234 -73h-100z" />
    <glyph glyph-name="uni041C" unicode="&#x41c;" horiz-adv-x="1832" 
d="M428 0h-266v1425h311l449 -729l438 729h311v-1425h-268v1034l-488 -801l-487 799v-1032z" />
    <glyph glyph-name="uni041D" unicode="&#x41d;" horiz-adv-x="1574" 
d="M162 0v1425h278v-557h695v557h278v-1425h-278v625h-695v-625h-278z" />
    <glyph glyph-name="uni041E" unicode="&#x41e;" horiz-adv-x="1615" 
d="M807 -33q-156 0 -289 56q-140 59 -229 155q-101 109 -150 238q-53 136 -53 297q0 160 53 299q49 126 150 235q91 98 229 156q131 55 289 55q160 0 291 -55t229 -156q101 -109 150 -235q53 -139 53 -299q0 -161 -53 -297q-49 -129 -150 -238q-96 -99 -229 -155t-291 -56z
M807 217q128 0 229 64q98 61 156 174q55 110 55 258q0 147 -55 260q-58 110 -156 174q-101 61 -229 61q-127 0 -225 -61q-101 -64 -156 -174q-57 -111 -57 -260q0 -150 57 -258q55 -113 156 -174q98 -64 225 -64z" />
    <glyph glyph-name="uni041F" unicode="&#x41f;" horiz-adv-x="1544" 
d="M162 0v1425h1220v-1425h-276v1182h-666v-1182h-278z" />
    <glyph glyph-name="uni0420" unicode="&#x420;" horiz-adv-x="1357" 
d="M162 0v1425h563q270 0 416 -131q147 -132 147 -346q0 -216 -147 -348q-146 -131 -416 -131h-285v-469h-278zM440 711h248q166 0 242 61t76 176q0 113 -76 174q-77 62 -242 62h-248v-473z" />
    <glyph glyph-name="uni0421" unicode="&#x421;" horiz-adv-x="1474" 
d="M86 713q0 218 88 387q85 169 242 264q152 94 356 94q185 0 311 -63q132 -66 207 -178q80 -119 109 -259h-289q-27 115 -113 183q-88 67 -225 67q-122 0 -211 -59q-89 -62 -141 -172q-51 -111 -51 -264q0 -154 51 -262q52 -113 141 -172q89 -62 211 -62q136 0 227 66
t115 174h285q-26 -134 -107 -252q-78 -108 -209 -174q-128 -64 -311 -64q-208 0 -356 96q-156 94 -242 265q-88 169 -88 385z" />
    <glyph glyph-name="uni0422" unicode="&#x422;" horiz-adv-x="1380" 
d="M829 0h-278v1182h-475v243h1229v-243h-476v-1182z" />
    <glyph glyph-name="uni0423" unicode="&#x423;" horiz-adv-x="1437" 
d="M264 -8v235h72q162 0 256 97l-567 1101h309l411 -819l367 819h301l-522 -1089q-56 -121 -133 -201q-73 -73 -176 -108t-242 -35h-76z" />
    <glyph glyph-name="uni0424" unicode="&#x424;" horiz-adv-x="1808" 
d="M770 -74v195q-208 9 -362 86q-157 79 -238 205q-84 131 -84 301t84 301q81 126 238 205q154 77 362 86v194h268v-194q209 -9 363 -86q156 -78 237 -205q84 -131 84 -301t-84 -301q-81 -127 -237 -205q-154 -77 -363 -86v-195h-268zM1448 713q0 158 -113 256t-305 110
v-733q191 12 305 111q113 98 113 256zM360 713q0 -158 113 -256q114 -99 303 -111v733q-190 -12 -303 -110t-113 -256z" />
    <glyph glyph-name="uni0425" unicode="&#x425;" horiz-adv-x="1472" 
d="M35 0l528 741l-475 684h334l321 -473l312 473h329l-479 -682l533 -743h-336l-377 532l-363 -532h-327z" />
    <glyph glyph-name="uni0426" unicode="&#x426;" horiz-adv-x="1626" 
d="M1319 -338v338h-1157v1425h278v-1181h627v1181h279v-1181h227v-582h-254z" />
    <glyph glyph-name="uni0427" unicode="&#x427;" horiz-adv-x="1427" 
d="M651 500q-265 0 -409 147q-146 149 -146 420v358h279v-327q0 -350 336 -350q167 0 276 75v602h279v-1425h-279v571q-151 -71 -336 -71z" />
    <glyph glyph-name="uni0428" unicode="&#x428;" horiz-adv-x="2127" 
d="M162 0v1425h276v-1181h488v1181h276v-1181h488v1181h276v-1425h-1804z" />
    <glyph glyph-name="uni0429" unicode="&#x429;" horiz-adv-x="2248" 
d="M1942 -338v338h-1780v1425h276v-1181h488v1181h276v-1181h488v1181h276v-1181h229v-582h-253z" />
    <glyph glyph-name="uni042A" unicode="&#x42a;" horiz-adv-x="1675" 
d="M461 0v1182h-385v243h663v-530h342q245 0 385 -119q140 -122 140 -327q0 -206 -140 -328q-142 -121 -385 -121h-620zM1053 662h-314v-429h314q128 0 198 58q72 60 72 158q0 97 -72 157q-71 56 -198 56z" />
    <glyph glyph-name="uni042B" unicode="&#x42b;" horiz-adv-x="1857" 
d="M1696 0h-279v1425h279v-1425zM162 0v1425h278v-530h318q245 0 385 -119q139 -121 139 -327q0 -207 -139 -328q-142 -121 -385 -121h-596zM729 662h-289v-429h289q129 0 199 58q71 59 71 158q0 98 -71 157q-71 56 -199 56z" />
    <glyph glyph-name="uni042C" unicode="&#x42c;" horiz-adv-x="1376" 
d="M162 0v1425h278v-530h342q245 0 385 -119q140 -122 140 -327q0 -206 -140 -328q-142 -121 -385 -121h-620zM754 662h-314v-429h314q128 0 198 58q72 60 72 158q0 97 -72 157q-71 56 -198 56z" />
    <glyph glyph-name="uni042D" unicode="&#x42d;" horiz-adv-x="1474" 
d="M702 -33q-242 0 -409 129q-167 127 -217 353h286q27 -110 121 -173q88 -61 222 -61q163 0 268 102t129 283h-608v234h608q-27 176 -129 278q-101 98 -266 98q-136 0 -222 -63q-90 -66 -120 -182h-289q53 232 217 362q165 131 409 131q204 0 361 -92q157 -97 240 -262
q86 -170 86 -391t-86 -391q-85 -168 -240 -261q-155 -94 -361 -94z" />
    <glyph glyph-name="uni042E" unicode="&#x42e;" horiz-adv-x="2174" 
d="M162 0v1425h276v-557h252q30 174 127 310q91 127 240 206q145 74 325 74q205 0 367 -96q160 -97 250 -264q90 -172 90 -385t-90 -385q-91 -169 -250 -265q-162 -96 -367 -96q-189 0 -342 84q-148 82 -245 232q-95 148 -113 342h-244v-625h-276zM1382 217q128 0 222 64
q98 64 149 174q53 112 53 258q0 145 -53 260q-50 107 -149 174q-94 61 -222 61q-125 0 -219 -61q-99 -67 -149 -174q-53 -115 -53 -260q0 -146 53 -258q51 -110 149 -174q94 -64 219 -64z" />
    <glyph glyph-name="uni042F" unicode="&#x42f;" horiz-adv-x="1398" 
d="M37 0l373 547q-139 53 -215 160q-78 110 -78 256q0 216 151 340q149 122 416 122h553v-1425h-276v504h-279l-332 -504h-313zM709 739h252v447h-252q-160 0 -234 -51q-78 -54 -78 -168q0 -228 312 -228z" />
    <glyph glyph-name="uni0430" unicode="&#x430;" horiz-adv-x="1114" 
d="M430 -31q-164 0 -264 92q-100 87 -100 242q0 166 118 256q121 92 332 92h215v39q0 97 -53 144q-52 43 -143 43q-76 0 -127 -31q-50 -30 -62 -72h-250q27 137 144 225q120 91 303 91q204 0 325 -103q119 -104 119 -323v-664h-239v131q-52 -83 -138 -123q-85 -39 -180 -39z
M496 178q52 0 110 25q53 24 90 73q35 47 35 121v68h-203q-101 0 -153 -37q-56 -41 -56 -109q0 -69 50 -104q49 -37 127 -37z" />
    <glyph glyph-name="uni0431" unicode="&#x431;" horiz-adv-x="1187" 
d="M614 -31q-253 0 -391 172q-139 171 -139 486q0 757 537 798l170 13q75 6 75 78h226q0 -283 -283 -304l-168 -12q-145 -9 -219 -92q-73 -82 -94 -260q58 73 145 117q84 41 182 41q135 0 246 -66q105 -63 168 -182q59 -118 59 -269q0 -154 -65 -272q-64 -116 -180 -182
q-120 -66 -269 -66zM612 201q121 0 191 82q71 80 71 213q0 130 -71 213q-73 82 -191 82q-120 0 -190 -82q-74 -83 -74 -213q0 -132 72 -213q70 -82 192 -82z" />
    <glyph glyph-name="uni0432" unicode="&#x432;" horiz-adv-x="1165" 
d="M145 0v1059h537q174 0 274 -74q99 -76 99 -211q0 -80 -41 -139q-45 -60 -121 -90q194 -59 194 -240q0 -142 -106 -223q-107 -82 -291 -82h-545zM618 870h-217v-237h217q90 0 134 33q47 30 47 88t-47 88q-48 28 -134 28zM639 444h-238v-256h238q190 0 190 129
q0 127 -190 127z" />
    <glyph glyph-name="uni0433" unicode="&#x433;" horiz-adv-x="962" 
d="M145 0v1059h777v-225h-516v-834h-261z" />
    <glyph glyph-name="uni0434" unicode="&#x434;" horiz-adv-x="1314" 
d="M29 -307v522h131q127 77 127 320v524h819v-844h182v-522h-241v307h-779v-307h-239zM516 535q0 -213 -104 -320h442v629h-338v-309z" />
    <glyph glyph-name="uni0435" unicode="&#x435;" horiz-adv-x="1155" 
d="M600 -31q-165 0 -281 70q-116 65 -182 194q-63 123 -63 302q0 161 63 284q61 126 178 199q119 72 279 72q232 0 358 -150q125 -149 125 -399v-95h-741q34 -264 266 -264q72 0 127 25q51 25 68 63h262q-41 -140 -160 -219q-122 -82 -299 -82zM592 877q-107 0 -172 -62
q-67 -67 -84 -180h487q-3 109 -61 176q-60 66 -170 66z" />
    <glyph glyph-name="uni0436" unicode="&#x436;" horiz-adv-x="1755" 
d="M10 0l404 547l-396 512h293l303 -408h136v408h256v-408h135l305 408h291l-396 -510l404 -549h-305l-310 430h-124v-430h-256v430h-123l-310 -430h-307z" />
    <glyph glyph-name="uni0437" unicode="&#x437;" horiz-adv-x="1067" 
d="M532 -31q-199 0 -323 90q-128 90 -154 250h260q34 -131 209 -131q94 0 146 37q53 35 53 96q0 63 -55 97q-58 34 -156 34h-121v195h131q84 0 135 31q50 30 50 86q0 57 -50 92q-53 35 -137 35q-164 0 -201 -125h-253q31 161 155 248q122 88 314 88q194 0 313 -82
q117 -82 117 -222q0 -88 -54 -151q-56 -65 -151 -92q106 -27 164 -94q59 -68 59 -164q0 -145 -123 -230q-125 -88 -328 -88z" />
    <glyph glyph-name="uni0438" unicode="&#x438;" horiz-adv-x="1288" 
d="M145 0v1059h256v-684l500 684h242v-1059h-256v680l-498 -680h-244z" />
    <glyph glyph-name="uni0439" unicode="&#x439;" horiz-adv-x="1288" 
d="M145 0v1059h256v-684l500 684h242v-1059h-256v680l-498 -680h-244zM651 1194q-173 0 -264 88q-93 90 -102 244h221q6 -71 43 -111q35 -41 102 -41q69 0 107 41q36 42 39 111h223q-9 -157 -102 -244q-94 -88 -267 -88z" />
    <glyph glyph-name="uni043A" unicode="&#x43a;" horiz-adv-x="1159" 
d="M145 0v1059h258v-406h140l307 406h291l-396 -510l404 -549h-305l-307 428h-134v-428h-258z" />
    <glyph glyph-name="uni043B" unicode="&#x43b;" horiz-adv-x="1255" 
d="M29 -8v223h47q184 0 184 307v537h850v-1059h-262v834h-348v-334q0 -244 -101 -375q-103 -133 -274 -133h-96z" />
    <glyph glyph-name="uni043C" unicode="&#x43c;" horiz-adv-x="1486" 
d="M389 0h-244v1059h271l332 -508l323 508h270v-1059h-247v702l-353 -546l-352 546v-702z" />
    <glyph glyph-name="uni043D" unicode="&#x43d;" horiz-adv-x="1263" 
d="M145 0v1059h261v-397h452v397h260v-1059h-260v436h-452v-436h-261z" />
    <glyph glyph-name="uni043E" unicode="&#x43e;" horiz-adv-x="1208" 
d="M604 -31q-151 0 -274 72q-120 71 -189 199q-67 125 -67 290q0 168 67 293t189 197q119 70 274 70q158 0 277 -70q117 -69 186 -197q68 -127 68 -293q0 -163 -68 -290q-70 -131 -186 -199q-123 -72 -277 -72zM604 201q118 0 193 90q73 88 73 239q0 152 -73 240t-193 88
q-119 0 -192 -88q-74 -89 -74 -240q0 -150 74 -239q75 -90 192 -90z" />
    <glyph glyph-name="uni043F" unicode="&#x43f;" horiz-adv-x="1232" 
d="M145 0v1059h942v-1059h-260v834h-421v-834h-261z" />
    <glyph glyph-name="uni0440" unicode="&#x440;" horiz-adv-x="1263" 
d="M145 -420v1479h250v-139q50 76 135 124q82 46 191 46q134 0 244 -72q101 -68 165 -199q60 -129 60 -291q0 -161 -60 -290q-63 -128 -165 -197q-106 -72 -244 -72q-103 0 -182 43q-81 41 -136 117v-549h-258zM659 201q117 0 193 88q74 89 74 239q0 153 -74 242
q-76 88 -193 88t-192 -90q-76 -88 -76 -240q0 -149 76 -237q75 -90 192 -90z" />
    <glyph glyph-name="uni0441" unicode="&#x441;" horiz-adv-x="1120" 
d="M596 -31q-155 0 -274 72q-116 68 -183 199q-65 127 -65 290q0 162 65 289q67 131 183 199q119 72 274 72q131 0 229 -52q100 -56 156 -137q59 -87 74 -192h-267q-12 64 -59 108q-50 41 -137 41q-112 0 -182 -88t-70 -240q0 -151 70 -239q72 -90 182 -90q88 0 139 39
q50 41 62 104h262q-15 -107 -74 -190t-156 -134q-96 -51 -229 -51z" />
    <glyph glyph-name="uni0442" unicode="&#x442;" horiz-adv-x="1056" 
d="M659 0h-260v834h-358v225h975v-225h-357v-834z" />
    <glyph glyph-name="uni0443" unicode="&#x443;" horiz-adv-x="1134" 
d="M260 -420l174 420l-416 1059h297l263 -756l258 756h280l-577 -1479h-279z" />
    <glyph glyph-name="uni0444" unicode="&#x444;" horiz-adv-x="1548" 
d="M653 -420v393q-176 15 -307 88q-134 71 -205 193q-73 119 -73 274q0 160 73 279q68 116 205 192q133 71 307 86v400h244v-400q174 -15 307 -86q133 -74 205 -192q72 -123 72 -279q0 -151 -72 -274q-76 -124 -205 -193q-131 -73 -307 -88v-393h-244zM1233 528
q0 143 -92 232q-91 88 -250 106v-676q158 18 250 107t92 231zM315 528q0 -139 93 -229q94 -91 249 -109v676q-158 -18 -249 -106q-93 -90 -93 -232z" />
    <glyph glyph-name="uni0445" unicode="&#x445;" horiz-adv-x="1138" 
d="M16 0l387 557l-350 502h314l213 -324l208 324h297l-350 -512l387 -547h-313l-250 369l-246 -369h-297z" />
    <glyph glyph-name="uni0446" unicode="&#x446;" horiz-adv-x="1290" 
d="M1022 -307v307h-877v1059h256v-834h424v834h258v-834h181v-532h-242z" />
    <glyph glyph-name="uni0447" unicode="&#x447;" horiz-adv-x="1155" 
d="M500 348q-200 0 -316 113q-118 112 -118 307v291h260v-260q0 -113 59 -166t160 -53q68 0 117 14q51 15 88 41v424h260v-1059h-260v399q-105 -51 -250 -51z" />
    <glyph glyph-name="uni0448" unicode="&#x448;" horiz-adv-x="1730" 
d="M145 0v1059h256v-834h336v834h256v-834h336v834h256v-1059h-1440z" />
    <glyph glyph-name="uni0449" unicode="&#x449;" horiz-adv-x="1794" 
d="M1526 -307v307h-1381v1059h256v-834h336v834h256v-834h336v834h256v-834h182v-532h-241z" />
    <glyph glyph-name="uni044A" unicode="&#x44a;" horiz-adv-x="1306" 
d="M338 0v834h-297v225h557v-324h238q202 0 315 -98t113 -268q0 -173 -113 -271t-315 -98h-498zM807 526h-209v-317h209q93 0 145 43q54 45 54 117q0 71 -54 116q-53 41 -145 41z" />
    <glyph glyph-name="uni044B" unicode="&#x44b;" horiz-adv-x="1581" 
d="M145 0v1059h261v-324h229q202 0 315 -98q115 -100 115 -268q0 -171 -115 -271q-113 -98 -315 -98h-490zM1176 0v1059h260v-1059h-260zM608 526h-202v-317h202q94 0 146 43q53 44 53 117q0 72 -53 116q-53 41 -146 41z" />
    <glyph glyph-name="uni044C" unicode="&#x44c;" horiz-adv-x="1114" 
d="M145 0v1059h261v-324h237q202 0 315 -98t113 -268q0 -173 -113 -271t-315 -98h-498zM614 526h-208v-317h208q94 0 146 43q53 44 53 117q0 72 -53 116q-53 41 -146 41z" />
    <glyph glyph-name="uni044D" unicode="&#x44d;" horiz-adv-x="1124" 
d="M539 -31q-126 0 -220 47q-98 46 -163 129q-70 85 -90 195h251q26 -67 89 -109q55 -38 137 -38q103 0 166 63q61 64 79 182h-395v193h393q-18 115 -79 176q-64 61 -164 61q-81 0 -137 -39q-63 -43 -82 -108h-254q21 111 86 194t163 129q102 48 220 48q155 0 268 -70
q116 -72 180 -197t64 -295q0 -169 -64 -294t-180 -197q-113 -70 -268 -70z" />
    <glyph glyph-name="uni044E" unicode="&#x44e;" horiz-adv-x="1710" 
d="M145 0v1059h258v-393h187q28 129 98 223q73 98 178 149q107 52 242 52q155 0 274 -70t187 -197q67 -125 67 -293q0 -165 -67 -290q-70 -130 -187 -199q-123 -72 -274 -72q-137 0 -254 60q-111 57 -182 166q-74 113 -88 247h-181v-442h-258zM1108 201q118 0 192 92
q72 90 72 237q0 148 -72 238t-192 90q-121 0 -193 -90q-73 -88 -73 -238q0 -149 73 -237q71 -92 193 -92z" />
    <glyph glyph-name="uni044F" unicode="&#x44f;" horiz-adv-x="1146" 
d="M37 0l291 391q-114 40 -174 121q-64 79 -64 193q0 165 123 260q122 94 336 94h452v-1059h-247v356h-183l-260 -356h-274zM571 553h183v301h-183q-233 0 -233 -149q0 -152 233 -152z" />
    <glyph glyph-name="uni0450" unicode="&#x450;" horiz-adv-x="1155" 
d="M600 -31q-165 0 -281 70q-116 65 -182 194q-63 123 -63 302q0 161 63 284q61 126 178 199q119 72 279 72q232 0 358 -150q125 -149 125 -399v-95h-741q34 -264 266 -264q72 0 127 25q51 25 68 63h262q-41 -140 -160 -219q-122 -82 -299 -82zM592 877q-107 0 -172 -62
q-67 -67 -84 -180h487q-3 109 -61 176q-60 66 -170 66zM469 1204l-184 322h272l156 -322h-244z" />
    <glyph glyph-name="uni0451" unicode="&#x451;" horiz-adv-x="1155" 
d="M600 -31q-165 0 -281 70q-116 65 -182 194q-63 123 -63 302q0 161 63 284q61 126 178 199q119 72 279 72q232 0 358 -150q125 -149 125 -399v-95h-741q34 -264 266 -264q72 0 127 25q51 25 68 63h262q-41 -140 -160 -219q-122 -82 -299 -82zM592 877q-107 0 -172 -62
q-67 -67 -84 -180h487q-3 109 -61 176q-60 66 -170 66zM801 1208q-62 0 -105 43q-43 40 -43 103q0 61 43 104q44 41 105 41q60 0 104 -41q43 -43 43 -104q0 -63 -43 -103q-43 -43 -104 -43zM354 1208q-61 0 -104 43q-43 40 -43 103q0 61 43 104q44 41 104 41q61 0 105 -41
q43 -43 43 -104q0 -63 -43 -103q-43 -43 -105 -43z" />
    <glyph glyph-name="uni0452" unicode="&#x452;" horiz-adv-x="1224" 
d="M606 -315v225h47q110 0 174 143q62 145 62 396q0 348 -236 348q-100 0 -166 -66q-65 -68 -65 -172v-559h-260v1145h-142v172h142v168h260v-168h285v-172h-285v-264q119 149 311 149q193 0 307 -153q111 -156 111 -428q0 -361 -125 -562q-126 -202 -348 -202h-72z" />
    <glyph glyph-name="uni0453" unicode="&#x453;" horiz-adv-x="962" 
d="M145 0v1059h777v-225h-516v-834h-261zM645 1204h-244l156 322h272z" />
    <glyph glyph-name="uni0454" unicode="&#x454;" horiz-adv-x="1122" 
d="M594 -31q-157 0 -272 72q-119 72 -183 197q-65 127 -65 292q0 166 65 293q66 128 183 199q116 70 272 70q115 0 217 -48q97 -45 162 -129q65 -83 80 -194h-260q-14 67 -70 108q-53 39 -135 39q-100 0 -164 -61q-66 -66 -86 -176h393v-193h-395q21 -115 86 -180t166 -65
q86 0 141 38q58 39 72 107h256q-21 -113 -84 -193q-65 -84 -162 -129q-94 -47 -217 -47z" />
    <glyph glyph-name="uni0455" unicode="&#x455;" horiz-adv-x="1030" 
d="M532 -31q-195 0 -319 92q-123 87 -145 238h249q9 -47 68 -82t141 -35q84 0 131 33q48 31 48 84q0 46 -37 76q-39 31 -129 43l-154 20q-151 21 -225 101q-74 77 -74 204q0 107 55 183q56 77 152 121q93 43 217 43q127 0 217 -43t147 -115q55 -72 70 -160h-248
q-16 52 -61 78q-50 27 -121 27q-81 0 -125 -33q-47 -35 -47 -86q0 -47 37 -68q40 -25 123 -37l151 -20q154 -21 232 -111t78 -213q0 -103 -56 -180q-59 -77 -153 -117q-98 -43 -222 -43z" />
    <glyph glyph-name="uni0456" unicode="&#x456;" horiz-adv-x="532" 
d="M266 1182q-65 0 -112 47q-50 47 -50 114q0 68 50 115q47 47 112 47t115 -47q47 -47 47 -115q0 -67 -47 -114q-50 -47 -115 -47zM135 0v1059h260v-1059h-260z" />
    <glyph glyph-name="uni0457" unicode="&#x457;" horiz-adv-x="532" 
d="M227 1339q0 -58 -41 -102q-43 -43 -102 -43t-102 43q-41 44 -41 102q0 61 41 105q44 41 102 41t102 -41q41 -44 41 -105zM592 1339q0 -58 -41 -102q-40 -43 -102 -43q-61 0 -101 43q-43 43 -43 102q0 62 43 105q41 41 101 41q58 0 102 -41q41 -44 41 -105zM135 0v1059
h260v-1059h-260z" />
    <glyph glyph-name="uni0458" unicode="&#x458;" horiz-adv-x="532" 
d="M266 1182q-65 0 -112 47q-50 47 -50 114q0 68 50 115q47 47 112 47t115 -47q47 -47 47 -115q0 -67 -47 -114q-50 -47 -115 -47zM-55 -420v225h59q63 0 98 41q33 42 33 117v1096h260v-1127q0 -167 -84 -260q-86 -92 -245 -92h-121z" />
    <glyph glyph-name="uni0459" unicode="&#x459;" horiz-adv-x="1802" 
d="M29 -8v223h47q184 0 184 307v537h844v-324h225q203 0 316 -98q114 -99 114 -268q0 -172 -114 -271q-113 -98 -316 -98h-485v834h-344v-334q0 -244 -101 -375q-103 -133 -274 -133h-96zM1303 526h-199v-317h199q93 0 145 43q53 44 53 117q0 72 -53 116q-53 41 -145 41z
" />
    <glyph glyph-name="uni045A" unicode="&#x45a;" horiz-adv-x="1820" 
d="M145 0v1059h261v-383h444v383h260v-342h238q202 0 315 -94q115 -95 115 -265q0 -167 -115 -262q-116 -96 -315 -96h-498v453h-444v-453h-261zM1319 508h-209v-299h209q92 0 145 41q54 42 54 108q0 69 -54 111q-51 39 -145 39z" />
    <glyph glyph-name="uni045B" unicode="&#x45b;" horiz-adv-x="1232" 
d="M162 0v1145h-142v172h142v168h260v-168h285v-172h-285v-266q57 72 135 112q77 39 176 39q170 0 271 -119q102 -120 102 -319v-592h-260v555q0 113 -53 178q-55 64 -150 64q-97 0 -160 -66q-61 -64 -61 -172v-559h-260z" />
    <glyph glyph-name="uni045C" unicode="&#x45c;" horiz-adv-x="1159" 
d="M145 0v1059h258v-406h140l307 406h291l-396 -510l404 -549h-305l-307 428h-134v-428h-258zM723 1204h-244l156 322h272z" />
    <glyph glyph-name="uni045D" unicode="&#x45d;" horiz-adv-x="1288" 
d="M145 0v1059h256v-684l500 684h242v-1059h-256v680l-498 -680h-244zM543 1206l-185 322h273l155 -322h-243z" />
    <glyph glyph-name="uni045E" unicode="&#x45e;" horiz-adv-x="1134" 
d="M260 -420l174 420l-416 1059h297l263 -756l258 756h280l-577 -1479h-279zM573 1192q-173 0 -264 88q-93 90 -102 244h221q6 -71 43 -111q35 -41 102 -41q69 0 107 41q36 42 39 111h223q-9 -157 -102 -244q-94 -88 -267 -88z" />
    <glyph glyph-name="uni045F" unicode="&#x45f;" horiz-adv-x="1239" 
d="M145 0v1059h261v-834h428v834h260v-1059h-353v-307h-241v307h-355z" />
    <glyph glyph-name="uni0490" unicode="&#x490;" horiz-adv-x="1218" 
d="M162 0v1425h731v314h250v-557h-703v-1182h-278z" />
    <glyph glyph-name="uni0491" unicode="&#x491;" horiz-adv-x="983" 
d="M694 1296h248v-462h-536v-834h-261v1059h549v237z" />
    <glyph glyph-name="uni0492" unicode="&#x492;" horiz-adv-x="1341" 
d="M289 0v573h-223v242h223v610h977v-243h-699v-367h416v-242h-416v-573h-278z" />
    <glyph glyph-name="uni0493" unicode="&#x493;" horiz-adv-x="1044" 
d="M227 0v371h-188v215h188v473h777v-225h-517v-248h312v-215h-312v-371h-260z" />
    <glyph glyph-name="uni0496" unicode="&#x496;" horiz-adv-x="2308" 
d="M16 0l508 735l-504 690h318l401 -565h238v565h276v-565h238l401 565h316l-504 -692l342 -491h209v-580h-252v338h-119l-424 616h-207v-616h-276v616h-209l-422 -616h-330z" />
    <glyph glyph-name="uni0497" unicode="&#x497;" horiz-adv-x="1798" 
d="M10 0l404 547l-396 512h293l303 -408h138v408h254v-408h135l305 408h291l-396 -510l238 -324h193v-542h-242v317h-90l-310 430h-124v-430h-254v430h-125l-310 -430h-307z" />
    <glyph glyph-name="uni049A" unicode="&#x49a;" horiz-adv-x="1480" 
d="M162 0v1425h276v-565h248l401 565h316l-500 -692l338 -489h197v-582h-250v338h-109l-422 616h-219v-616h-276z" />
    <glyph glyph-name="uni049B" unicode="&#x49b;" horiz-adv-x="1208" 
d="M145 0v1059h256v-406h142l307 406h291l-396 -510l240 -326h184v-530h-239v307h-86l-307 428h-136v-428h-256z" />
    <glyph glyph-name="uni04A2" unicode="&#x4a2;" horiz-adv-x="1693" 
d="M162 0v1425h278v-557h695v557h278v-1181h227v-582h-249v338h-256v625h-695v-625h-278z" />
    <glyph glyph-name="uni04A3" unicode="&#x4a3;" horiz-adv-x="1327" 
d="M145 0v1059h261v-397h452v397h260v-836h182v-530h-239v307h-203v436h-452v-436h-261z" />
    <glyph glyph-name="uni04AE" unicode="&#x4ae;" horiz-adv-x="1372" 
d="M547 0v535l-522 890h317l350 -630l350 630h306l-523 -890v-535h-278z" />
    <glyph glyph-name="uni04AF" unicode="&#x4af;" horiz-adv-x="1134" 
d="M438 -420v402l-420 1077h295l262 -770l263 770h278l-418 -1077v-402h-260z" />
    <glyph glyph-name="uni04B0" unicode="&#x4b0;" horiz-adv-x="1372" 
d="M203 399v215h297l-475 811h317l350 -630l350 630h306l-476 -811h297v-215h-344v-399h-278v399h-344z" />
    <glyph glyph-name="uni04B1" unicode="&#x4b1;" horiz-adv-x="1134" 
d="M164 -72v217h211l-357 914h295l262 -770l263 770h278l-354 -914h215v-217h-279v-348h-260v348h-274z" />
    <glyph glyph-name="uni04B2" unicode="&#x4b2;" horiz-adv-x="1503" 
d="M35 0l528 741l-475 684h334l321 -473l312 473h329l-479 -682l359 -499h196v-582h-250v338h-108l-377 532l-363 -532h-327z" />
    <glyph glyph-name="uni04B3" unicode="&#x4b3;" horiz-adv-x="1187" 
d="M16 0l387 557l-350 502h314l213 -324l208 324h297l-350 -512l230 -324h184v-530h-240v307h-100l-250 369l-246 -369h-297z" />
    <glyph glyph-name="uni04B6" unicode="&#x4b6;" horiz-adv-x="1546" 
d="M651 500q-265 0 -409 147q-146 149 -146 420v358h279v-327q0 -350 336 -350q167 0 276 75v602h279v-1181h227v-582h-250v338h-256v571q-151 -71 -336 -71z" />
    <glyph glyph-name="uni04B7" unicode="&#x4b7;" horiz-adv-x="1218" 
d="M500 348q-200 0 -316 113q-118 112 -118 307v291h260v-260q0 -113 59 -166t160 -53q68 0 117 14q51 15 88 41v424h260v-836h182v-530h-240v307h-202v399q-105 -51 -250 -51z" />
    <glyph glyph-name="uni04BA" unicode="&#x4ba;" horiz-adv-x="1427" 
d="M162 0v1425h278v-546q153 69 336 69q267 0 412 -145q143 -146 143 -422v-381h-278v352q0 348 -338 348q-163 0 -275 -75v-625h-278z" />
    <glyph glyph-name="uni04BB" unicode="&#x4bb;" horiz-adv-x="1214" 
d="M145 0v1485h261v-543q115 148 309 148q171 0 272 -119q100 -118 100 -314v-657h-260v618q0 111 -49 175q-51 63 -153 63q-92 0 -156 -61q-63 -63 -63 -172v-623h-261z" />
    <glyph glyph-name="uni04C0" unicode="&#x4c0;" horiz-adv-x="602" 
d="M440 0h-278v1425h278v-1425z" />
    <glyph glyph-name="uni04CF" unicode="&#x4cf;" horiz-adv-x="530" 
d="M135 0v1485h260v-1485h-260z" />
    <glyph glyph-name="uni04D4" unicode="&#x4d4;" horiz-adv-x="2203" 
d="M315 0h-307l920 1425h1149v-243h-752v-334h727v-244h-727v-360h762v-244h-1038v324h-535zM662 565h387v631z" />
    <glyph glyph-name="uni04D5" unicode="&#x4d5;" horiz-adv-x="1816" 
d="M453 -31q-175 0 -281 92q-106 87 -106 242q0 166 116 254t330 88h219v45q0 100 -53 144q-52 43 -143 43q-76 0 -127 -31q-50 -30 -62 -72h-250q27 136 142 225q117 91 297 91q260 0 362 -181q62 92 160 138q93 43 207 43q149 0 258 -68q104 -65 161 -191q56 -124 56 -288
v-82h-742q27 -279 267 -279q72 0 127 25q50 24 67 63h262q-41 -141 -159 -219q-122 -82 -297 -82q-144 0 -250 56q-103 55 -168 157q-58 -103 -162 -157q-106 -56 -231 -56zM1253 877q-102 0 -168 -60q-63 -57 -84 -172h484q-6 104 -64 168t-168 64zM496 178q54 0 112 25
q54 25 88 73q35 47 35 121v64h-203q-103 0 -153 -33q-56 -35 -56 -104q0 -66 50 -107q48 -39 127 -39z" />
    <glyph glyph-name="uni04D8" unicode="&#x4d8;" horiz-adv-x="1501" 
d="M1415 707q0 -215 -78 -385q-80 -167 -229 -261t-365 -94q-206 0 -348 90q-148 89 -227 252q-80 165 -80 391v115h1040q-21 190 -127 293q-106 100 -268 100q-123 0 -203 -45q-88 -48 -133 -119h-284q44 118 131 211q86 92 213 148q125 55 282 55q204 0 357 -90
q154 -94 235 -260q84 -173 84 -401zM739 217q173 0 267 98q96 96 120 271h-757q6 -167 106 -267q99 -102 264 -102z" />
    <glyph glyph-name="uni04D9" unicode="&#x4d9;" horiz-adv-x="1155" 
d="M555 1090q162 0 283 -68q114 -69 180 -197q63 -123 63 -301q0 -159 -61 -284q-66 -128 -180 -197q-118 -74 -279 -74q-230 0 -358 152q-125 149 -125 397v94h741q-35 265 -266 265q-73 0 -125 -25q-52 -24 -70 -64h-262q41 139 162 220q119 82 297 82zM563 182
q108 0 172 64q66 63 84 178h-487q3 -108 63 -174q59 -68 168 -68z" />
    <glyph glyph-name="uni04E2" unicode="&#x4e2;" horiz-adv-x="1597" 
d="M162 0v1425h276v-1011l738 1011h260v-1425h-277v1012l-739 -1012h-258zM465 1831h672v-205h-672v205z" />
    <glyph glyph-name="uni04E3" unicode="&#x4e3;" horiz-adv-x="1288" 
d="M145 0v1059h256v-684l500 684h242v-1059h-256v680l-498 -680h-244zM328 1475h647v-201h-647v201z" />
    <glyph glyph-name="uni04E8" unicode="&#x4e8;" horiz-adv-x="1615" 
d="M809 -33q-156 0 -289 56q-140 59 -229 155q-101 104 -152 238q-53 136 -53 297q0 160 53 299q51 131 152 235q91 98 229 156q131 55 289 55q160 0 291 -55q135 -57 227 -156q101 -109 150 -235q53 -139 53 -299q0 -161 -53 -297q-49 -129 -150 -238q-90 -98 -227 -155
q-133 -56 -291 -56zM809 1217q-174 0 -293 -107q-121 -109 -151 -285h886q-30 178 -149 285t-293 107zM809 209q173 0 293 108q119 107 149 283h-886q30 -174 151 -283q120 -108 293 -108z" />
    <glyph glyph-name="uni04E9" unicode="&#x4e9;" horiz-adv-x="1208" 
d="M604 -31q-151 0 -274 72q-120 71 -189 199q-67 125 -67 290q0 168 67 293q68 127 187 197t276 70q158 0 277 -70q117 -69 186 -197q68 -127 68 -293q0 -163 -68 -290q-70 -131 -186 -199q-123 -72 -277 -72zM604 870q-102 0 -176 -65q-77 -65 -98 -182h549
q-21 115 -97 182q-74 65 -178 65zM604 188q101 0 176 66q76 67 97 180h-545q21 -114 96 -180t176 -66z" />
    <glyph glyph-name="uni04EE" unicode="&#x4ee;" horiz-adv-x="1437" 
d="M264 -8v235h72q162 0 256 97l-567 1101h309l411 -819l367 819h301l-522 -1089q-56 -121 -133 -201q-73 -73 -176 -108t-242 -35h-76zM373 1831h671v-205h-671v205z" />
    <glyph glyph-name="uni04EF" unicode="&#x4ef;" horiz-adv-x="1134" 
d="M260 -420l174 420l-416 1059h297l263 -756l258 756h280l-577 -1479h-279zM250 1473h647v-201h-647v201z" />
    <glyph glyph-name="uni058F" unicode="&#x58f;" 
d="M547 260v211h244v141h-244v211h244v148q0 108 -60 174q-59 65 -158 65q-100 0 -159 -65q-60 -66 -60 -174v-82h-268v96q0 139 61 246q61 108 172 166q112 59 259 59q146 0 258 -59q111 -58 172 -166q59 -109 59 -246v-162h133v-211h-133v-141h133v-211h-133v-260h-276
v260h-244z" />
    <glyph glyph-name="uni060B" unicode="&#x60b;" 
d="M647 1317l-184 184l184 185l184 -187zM432 -20q-106 0 -188 6q-108 11 -160 22v244q84 -11 162 -16q89 -9 209 -9q77 0 151 6q63 3 133 17q58 9 86 31q22 15 31 47q9 30 12 90h-188q-248 0 -363 92q-114 92 -114 242q0 88 37 163q41 84 98 138q64 61 137 94q70 33 152 33
q107 0 192 -58q87 -61 146 -157q57 -92 94 -220q33 -118 33 -249q0 -157 -35 -260q-37 -102 -115 -158q-75 -55 -203 -76q-115 -22 -307 -22zM682 633h174q-16 87 -47 147q-35 69 -86 111q-53 41 -119 41q-76 0 -127 -51q-53 -53 -53 -123q0 -42 22 -70q23 -30 76 -41
q52 -14 160 -14zM535 -588l-17 369l187 35l-17 -404h-153z" />
    <glyph glyph-name="uni0E3F" unicode="&#xe3f;" 
d="M102 4v1417h441v240h153v-242q205 -12 326 -104q119 -94 119 -268q0 -216 -215 -299q139 -41 202 -127q64 -88 64 -211q0 -181 -135 -289t-361 -117v-225h-153v225h-441zM362 1202v-360h181v360h-181zM883 1028q0 146 -187 170v-350q89 15 138 61t49 119zM362 625v-402
h181v402h-181zM928 422q0 82 -60 139q-59 53 -172 62v-398q232 15 232 197z" />
    <glyph glyph-name="uni1E24" unicode="&#x1e24;" horiz-adv-x="1574" 
d="M162 0v1425h278v-557h695v557h278v-1425h-278v625h-695v-625h-278zM788 -438q-65 0 -110 45t-45 112q0 66 45 111q47 47 110 47q64 0 111 -47q45 -45 45 -111q0 -67 -45 -112t-111 -45z" />
    <glyph glyph-name="uni1E25" unicode="&#x1e25;" horiz-adv-x="1204" 
d="M135 0v1485h260v-543q115 148 310 148q171 0 272 -119q100 -118 100 -314v-657h-260v618q0 111 -49 175q-51 63 -154 63q-91 0 -155 -61q-64 -64 -64 -172v-623h-260zM606 -438q-65 0 -110 45t-45 112q0 66 45 111q47 47 110 47q64 0 111 -47q45 -45 45 -111
q0 -67 -45 -112t-111 -45z" />
    <glyph glyph-name="uni1E36" unicode="&#x1e36;" horiz-adv-x="1241" 
d="M1165 244v-244h-1003v1425h278v-1181h725zM670 -438q-66 0 -111 45t-45 112q0 66 45 111q47 47 111 47q63 0 110 -47q45 -45 45 -111q0 -67 -45 -112t-110 -45z" />
    <glyph glyph-name="uni1E37" unicode="&#x1e37;" horiz-adv-x="530" 
d="M135 0v1485h260v-1485h-260zM266 -438q-65 0 -110 45t-45 112q0 66 45 111q47 47 110 47q64 0 111 -47q45 -45 45 -111q0 -67 -45 -112t-111 -45z" />
    <glyph glyph-name="uni1E3E" unicode="&#x1e3e;" horiz-adv-x="1832" 
d="M428 0h-266v1425h311l449 -729l438 729h311v-1425h-268v1034l-488 -801l-487 799v-1032zM1028 1571h-252l180 307h283z" />
    <glyph glyph-name="uni1E3F" unicode="&#x1e3f;" horiz-adv-x="1769" 
d="M135 0v1059h250v-115q51 68 125 109q70 37 162 37q95 0 168 -46q70 -45 118 -129q59 83 146 129q85 46 184 46q164 0 258 -113q96 -116 96 -311v-666h-260v633q0 107 -45 164q-47 59 -129 59t-135 -59q-55 -58 -55 -164v-633h-260v633q0 107 -45 164q-47 59 -129 59
t-135 -59q-54 -60 -54 -164v-633h-260zM1069 1204h-244l156 322h272z" />
    <glyph glyph-name="uni1E62" unicode="&#x1e62;" horiz-adv-x="1308" 
d="M668 -33q-249 0 -406 115q-159 116 -205 319h279q27 -85 115 -137q86 -53 213 -53q120 0 200 47q78 47 78 133q0 48 -22 90q-22 39 -84 66q-61 27 -179 45l-159 26q-200 35 -297 127q-101 94 -101 271q0 132 74 235q70 98 197 154q124 53 276 53q226 0 375 -104
q152 -109 186 -310h-278q-21 87 -94 130q-73 40 -187 40q-128 0 -196 -45q-72 -47 -72 -129q0 -74 55 -114q54 -41 215 -68l154 -24q420 -67 420 -416q0 -140 -72 -244q-70 -101 -197 -154q-120 -53 -288 -53zM668 -438q-66 0 -111 45t-45 112q0 66 45 111q47 47 111 47
q63 0 110 -47q45 -45 45 -111q0 -67 -45 -112t-110 -45z" />
    <glyph glyph-name="uni1E63" unicode="&#x1e63;" horiz-adv-x="1030" 
d="M532 -31q-195 0 -319 92q-123 87 -145 238h249q9 -47 68 -82t141 -35q84 0 131 33q48 31 48 84q0 46 -37 76q-39 31 -129 43l-154 20q-151 21 -225 101q-74 77 -74 204q0 107 55 183q56 77 152 121q93 43 217 43q127 0 217 -43t147 -115q55 -72 70 -160h-248
q-16 52 -61 78q-50 27 -121 27q-81 0 -125 -33q-47 -35 -47 -86q0 -47 37 -68q40 -25 123 -37l151 -20q154 -21 232 -111t78 -213q0 -103 -56 -180q-59 -77 -153 -117q-98 -43 -222 -43zM545 -438q-66 0 -111 45t-45 112q0 66 45 111q47 47 111 47q63 0 110 -47
q45 -45 45 -111q0 -67 -45 -112t-110 -45z" />
    <glyph glyph-name="Wgrave" unicode="&#x1e80;" horiz-adv-x="2035" 
d="M469 0l-420 1425h291l276 -1003l273 999h256l287 -1005l268 1009h287l-420 -1425h-258l-291 1018l-291 -1018h-258zM905 1571l-211 307h283l180 -307h-252z" />
    <glyph glyph-name="wgrave" unicode="&#x1e81;" horiz-adv-x="1597" 
d="M365 0l-338 1059h268l197 -686l190 684h233l199 -686l197 688h260l-338 -1059h-227l-209 717l-205 -717h-227zM690 1204l-184 322h272l156 -322h-244z" />
    <glyph glyph-name="Wacute" unicode="&#x1e82;" horiz-adv-x="2035" 
d="M469 0l-420 1425h291l276 -1003l273 999h256l287 -1005l268 1009h287l-420 -1425h-258l-291 1018l-291 -1018h-258zM1130 1571h-251l180 307h282z" />
    <glyph glyph-name="wacute" unicode="&#x1e83;" horiz-adv-x="1597" 
d="M365 0l-338 1059h268l197 -686l190 684h233l199 -686l197 688h260l-338 -1059h-227l-209 717l-205 -717h-227zM907 1204h-243l155 322h273z" />
    <glyph glyph-name="Wdieresis" unicode="&#x1e84;" horiz-adv-x="2035" 
d="M469 0l-420 1425h291l276 -1003l273 999h256l287 -1005l268 1009h287l-420 -1425h-258l-291 1018l-291 -1018h-258zM1249 1577q-61 0 -104 43q-43 40 -43 102t43 105q44 41 104 41q61 0 105 -41q43 -43 43 -105t-43 -102q-43 -43 -105 -43zM786 1577q-61 0 -104 43
q-43 40 -43 102t43 105q44 41 104 41q61 0 105 -41q43 -43 43 -105t-43 -102q-43 -43 -105 -43z" />
    </font>
</defs>
</svg>
