<svg width="24" height="24" viewBox="0 0 24 24" fill="none" xmlns="http://www.w3.org/2000/svg" class="planGrid__supportedDevicesIcon" focusable="false"><path fill-rule="evenodd" clip-rule="evenodd" d="M3.99997 3C2.8954 3 1.99997 3.89543 1.99997 5V14C1.99997 15.1046 2.8954 16 3.99997 16H20C21.1045 16 22 15.1046 22 14V5C22 3.89543 21.1045 3 20 3H3.99997ZM3.99997 5L20 5V14H3.99997V5ZM1.11859 20.6355C4.58689 20.2212 8.23466 20 12 20C15.7653 20 19.413 20.2212 22.8813 20.6355L23.1186 18.6497C19.5701 18.2257 15.8431 18 12 18C8.15686 18 4.42984 18.2257 0.881348 18.6497L1.11859 20.6355Z" fill="currentColor"></path></svg>