<svg width="24" height="24" viewBox="0 0 24 24" fill="none" xmlns="http://www.w3.org/2000/svg" class="planGrid__supportedDevicesIcon" focusable="false"><path fill-rule="evenodd" clip-rule="evenodd" d="M2 3C0.895431 3 0 3.89543 0 5V14C0 15.1046 0.895431 16 2 16H22C23.1046 16 24 15.1046 24 14V5C24 3.89543 23.1046 3 22 3H2ZM2 5L22 5V14H2V5ZM2.1072 20.5232C5.27786 20.1813 8.59078 20 12 20C15.4092 20 18.7221 20.1813 21.8928 20.5232L22.1072 18.5347C18.8643 18.1851 15.4798 18 12 18C8.52024 18 5.13573 18.1851 1.8928 18.5347L2.1072 20.5232Z" fill="currentColor"></path></svg>